<svg width="551" height="156" viewBox="0 0 551 156" fill="none" xmlns="http://www.w3.org/2000/svg">
<path d="M100.138 71.0094C100.136 71.0589 100.386 71.1621 100.545 71.1781C100.901 71.2162 101.264 71.2132 101.62 71.2388C101.773 71.2504 102.019 71.3038 102.03 71.3498C102.058 71.4422 101.995 71.5591 101.89 71.6284C101.818 71.6704 101.582 71.6755 101.443 71.6521C101 71.5768 100.774 71.632 100.596 71.9046C100.768 71.9006 100.915 71.8953 101.062 71.8901C101.093 71.9288 101.123 71.9675 101.104 71.9501C101.104 71.9542 101.104 71.9542 101.104 71.9501C101.448 71.9709 101.742 71.9646 101.981 72.0218C102.089 72.0477 102.082 72.2087 102.152 72.361C101.962 72.3146 101.912 72.2956 101.867 72.2934C101.689 72.293 101.486 72.2748 101.356 72.3099C101.292 72.3274 101.311 72.4773 101.378 72.5426C101.463 72.6336 101.639 72.7001 101.776 72.7771C101.919 72.8585 102.062 72.9441 102.199 73.0294C102.36 73.1324 102.488 73.2627 102.689 73.3387C103.203 73.5375 103.288 73.641 103.027 73.9302C102.906 74.0609 102.896 74.1555 103.165 74.2638C103.579 74.4287 103.587 74.5408 103.253 74.7355C103.122 74.8119 102.947 74.8696 102.823 74.9462C102.751 74.9882 102.69 75.0556 102.701 75.1099C102.769 75.436 102.895 75.7607 102.92 76.0845C102.927 76.209 102.711 76.3309 102.564 76.4809L103.393 76.4841C103.37 76.7229 103.85 76.9697 103.206 77.112C103.607 77.417 103.572 77.5022 104.42 77.3491C104.383 77.4714 104.385 77.5708 104.324 77.6506C104.04 78.0132 104 78.3546 104.566 78.6842C104.889 78.8737 105.148 79.089 105.458 79.2862C105.526 79.3308 105.678 79.3631 105.793 79.3686C106.378 79.3972 106.552 79.4925 106.457 79.7899C106.413 79.9201 106.499 79.9823 106.72 80.0385C106.821 80.0641 106.918 80.164 106.91 80.2215C106.874 80.4432 106.654 80.6724 107.253 80.8298C107.118 80.8605 107.072 80.879 107.014 80.8844C106.899 80.8953 106.784 80.8939 106.675 80.9134C106.527 80.9351 106.361 80.9519 106.244 80.9999C105.933 81.1213 105.979 81.2311 106.344 81.3275C106.452 81.3576 106.596 81.406 106.613 81.4564C106.756 81.8357 107.109 82.217 106.697 82.5941C106.671 82.6176 106.682 82.6513 106.68 82.6843C106.671 82.8989 106.542 83.0747 106.124 83.1619C105.789 83.2324 105.466 83.3201 105.054 83.42C105.316 83.5527 105.546 83.6839 105.802 83.7999C106.09 83.9256 106.092 84.025 105.769 84.1292C105.639 84.1725 105.447 84.2045 105.399 84.2684C105.311 84.3964 105.31 84.5454 105.265 84.7045C105.341 84.7248 105.486 84.7566 105.562 84.7769C105.651 84.926 105.729 85.0415 105.812 85.1738C105.542 85.2227 105.36 85.3173 105.536 85.5038C105.555 85.5253 105.527 85.5654 105.501 85.5889C105.312 85.8155 105.426 85.9865 105.84 86.1391C106.085 86.2255 106.219 86.3768 106.002 86.5152C105.792 86.6539 105.652 86.8001 105.517 86.959C105.349 87.1494 104.847 87.2656 104.86 87.5435C104.237 87.6413 104.34 87.9153 104.355 88.1601C104.362 88.2928 104.276 88.3631 104.044 88.4138C103.677 88.4911 103.668 88.5568 103.994 88.672C104.233 88.754 104.294 88.8273 104.243 88.9737C104.206 89.0836 104.322 89.2092 104.39 89.3822C103.993 89.5697 104.646 89.6677 104.76 89.8346C104.698 89.9391 104.693 90.0423 104.663 90.1443C104.619 90.2869 104.612 90.4479 104.479 90.5697C104.352 90.6877 104.311 90.7601 104.517 90.8653C104.598 90.9065 104.653 90.9671 104.689 91.0226C104.802 91.1936 105.017 91.2413 105.368 91.246C106.911 91.2591 108.453 91.2888 109.989 91.3098C110.671 91.3183 111.36 91.3187 112.043 91.3148C112.878 91.31 113.709 91.2801 114.538 91.2874C115.367 91.2947 116.2 91.3436 117.028 91.3591C117.608 91.3708 118.183 91.3492 118.764 91.3527C120.549 91.3528 122.336 91.3447 124.121 91.3531C127.635 91.3671 131.148 91.3936 134.662 91.4117C134.981 91.4148 135.295 91.3846 135.607 91.3833C137.093 91.3854 138.573 91.3954 140.058 91.4058C140.358 91.4079 140.662 91.4517 140.961 91.4622C141.172 91.4724 141.394 91.4833 141.593 91.4516C142.748 91.301 143.879 91.1079 145.122 91.1312C146.798 91.1633 148.469 91.1578 150.146 91.1734C151.045 91.1799 151.944 91.1989 152.842 91.2137C153.499 91.225 154.155 91.2405 154.812 91.2518C156.462 91.2784 158.119 91.3054 159.77 91.3362C161.019 91.3598 162.269 91.3752 163.511 91.4109C166.046 91.489 168.579 91.6124 171.109 91.6571C174.353 91.7118 177.6 91.7086 180.846 91.7303C182.127 91.7389 183.409 91.7435 184.691 91.7563C187.387 91.7843 190.083 91.8329 192.775 91.8358C195.798 91.8425 198.81 91.8031 201.833 91.8015C203.543 91.7979 205.257 91.84 206.973 91.8409C208.963 91.8427 210.954 91.8198 212.944 91.8133C214.015 91.8118 215.092 91.8353 216.164 91.8296C217.587 91.8245 219.011 91.7904 220.439 91.7897C221.932 91.788 223.429 91.8237 224.922 91.8261C225.528 91.8267 226.129 91.7774 226.736 91.7491C227.043 91.7351 227.345 91.7001 227.65 91.7067C228.237 91.7187 228.821 91.7762 229.407 91.7841C231.052 91.8022 232.697 91.8161 234.343 91.8136C234.961 91.8148 235.57 91.7617 236.183 91.7337C236.266 91.7294 236.356 91.7214 236.439 91.7254C237.418 91.7897 238.386 91.8368 239.375 91.8106C241.317 91.7604 243.268 91.7645 245.214 91.7518C246.65 91.7431 248.084 91.751 249.52 91.7464C251.956 91.7411 254.399 91.736 256.836 91.7265C257.87 91.7231 258.897 91.7194 259.93 91.7118C260.9 91.7053 261.864 91.6902 262.834 91.6837C263.452 91.7014 264.069 91.7315 264.687 91.745C265.267 91.7567 265.842 91.7351 266.423 91.7344C268.208 91.7346 269.995 91.7265 271.78 91.7349C275.294 91.7489 278.807 91.7753 282.321 91.7935C282.64 91.7966 282.954 91.7664 283.266 91.7651C284.752 91.7671 286.232 91.7772 287.717 91.7875C288.017 91.7897 288.321 91.8335 288.62 91.844C288.83 91.8542 289.053 91.865 289.252 91.8334C290.407 91.6828 291.538 91.4897 292.781 91.513C294.457 91.545 296.128 91.5396 297.805 91.5551C298.704 91.5617 299.603 91.5807 300.501 91.5955C301.158 91.6068 301.814 91.6222 302.47 91.6335C304.121 91.6602 305.778 91.6872 307.429 91.718C308.678 91.7416 309.928 91.757 311.17 91.7927C313.705 91.8707 316.238 91.9942 318.768 92.0388C322.012 92.0935 325.259 92.0904 328.505 92.112C329.786 92.1207 331.068 92.1252 332.35 92.138C335.046 92.166 337.742 92.2147 340.434 92.2176C343.457 92.2242 346.469 92.1848 349.492 92.1832C351.202 92.1797 352.916 92.2218 354.632 92.2227C356.621 92.2245 358.612 92.2015 360.603 92.1951C361.674 92.1935 362.751 92.2171 363.823 92.2114C365.246 92.2062 366.67 92.1722 368.092 92.1712C369.584 92.1694 371.082 92.2052 372.574 92.2076C373.18 92.2081 373.782 92.1589 374.389 92.1305C374.696 92.1165 374.997 92.0815 375.303 92.0882C375.889 92.1002 376.474 92.1576 377.06 92.1655C378.705 92.1836 380.35 92.1976 381.995 92.195C382.614 92.1921 383.222 92.1431 383.836 92.1151C383.919 92.1109 384.009 92.1028 384.091 92.1069C385.071 92.1711 386.038 92.2183 387.028 92.1921C388.969 92.1419 390.921 92.1459 392.867 92.1332C394.302 92.1246 395.737 92.1324 397.172 92.1279C399.609 92.1225 402.052 92.1175 404.489 92.108C405.522 92.1045 406.549 92.1008 407.583 92.0933C409.044 92.0817 410.512 92.0581 411.973 92.0507C413.051 92.0453 414.128 92.0647 415.207 92.0593C416.106 92.0576 417.006 92.0312 417.906 92.0254C419.431 92.0128 420.962 92.0088 422.487 91.988C423.24 91.9792 423.99 91.904 424.742 91.92C425.985 91.9433 427.183 91.9644 428.148 91.4696C428.396 91.341 428.502 91.2675 428.349 91.1029C428.191 90.9297 428.136 90.7326 428.497 90.6426C428.884 90.5498 428.904 90.3935 428.905 90.2198C428.906 90.0502 428.927 89.8651 428.799 89.7182C428.641 89.5368 428.672 89.4183 428.864 89.2622C429.036 89.1257 429.107 88.9596 429.203 88.7988C429.279 88.6742 429.272 88.525 429.398 88.4153C429.597 88.2471 429.946 88.1441 429.983 87.8936C430 87.7786 430.412 87.6911 430.666 87.5794C430.654 87.5746 430.611 87.5229 430.566 87.5249C430.082 87.5095 430.159 87.3685 430.205 87.1928C430.235 87.0908 430.119 86.9652 430.015 86.8609C429.948 86.7914 429.791 86.7465 429.772 86.7373C430.026 86.456 430.235 86.2056 430.475 85.969C430.549 85.894 430.717 85.8401 430.841 85.78C430.953 85.8392 431.058 85.9064 431.183 85.9622C431.277 86.004 431.409 86.0642 431.498 86.0561C431.671 86.0397 431.82 85.9808 431.917 85.9566C431.782 85.8383 431.659 85.7371 431.555 85.6286C431.555 85.6245 431.789 85.5325 431.839 85.5473C431.984 85.5916 432.089 85.6712 432.251 85.7618C432.309 85.7481 432.431 85.7292 432.522 85.6882C433.075 85.4421 433.634 85.2004 434.162 84.9407C434.241 84.899 434.221 84.7657 434.16 84.6965C434.081 84.6058 433.906 84.5393 433.707 84.422C434.303 84.3394 434.572 84.1746 434.432 83.8823C434.254 83.8654 434.095 83.8535 433.943 83.8419C433.937 83.821 433.925 83.7997 433.92 83.7788C434.192 83.6803 434.462 83.4949 434.742 83.4962C435.24 83.4956 435.558 83.3539 435.914 83.2471C436.14 83.1796 436.282 83.0086 436.383 82.8687C436.411 82.8287 436.173 82.7302 436.042 82.6618C435.905 82.5889 435.774 82.5081 435.61 82.4587C435.453 82.4097 435.251 82.3667 435.091 82.3796C434.509 82.4216 434.097 82.3436 434.008 82.0456C433.92 81.7434 433.571 81.6892 433.146 81.6312C433.02 81.6126 432.893 81.594 432.766 81.5713C432.109 81.4359 431.802 81.0237 432.046 80.6964C432.127 80.5928 432.097 80.3928 431.96 80.324C431.686 80.1824 431.321 80.0612 430.96 80.0064C430.016 79.857 429.091 79.7044 428.355 79.3251C428 79.1382 428.02 79.1267 428.384 78.9707C429.105 78.6666 430.129 78.5965 430.616 78.099C430.896 77.8148 431.429 77.6008 431.641 77.2802C431.715 77.1721 431.791 77.0517 431.777 76.9393C431.778 76.9021 431.48 76.8711 431.271 76.8278C431.454 76.7415 431.617 76.6626 431.851 76.5499C431.667 76.5409 431.609 76.5381 431.558 76.5356C431.444 76.5218 431.336 76.5083 431.228 76.4947C431.294 76.4566 431.366 76.4146 431.432 76.3723C431.478 76.3414 431.543 76.3073 431.557 76.2708C431.608 76.1409 431.658 76.011 431.67 75.8792C431.673 75.8131 431.619 75.7277 431.532 75.6821C431.282 75.5583 431.02 75.4379 430.731 75.3369C430.536 75.2695 430.308 75.2212 430.474 75.0804C430.626 74.9554 430.804 74.8399 431.177 74.9078C431.316 74.9311 431.59 74.932 431.611 74.8999C431.672 74.8119 431.703 74.6934 431.624 74.6068C431.557 74.5291 431.355 74.4738 431.198 74.4206C430.884 74.3102 430.437 74.3174 430.295 74.0622C430.23 73.9473 430.094 73.9945 429.937 74.0861C429.767 74.1854 429.445 74.2483 429.184 74.248C429.05 74.2456 428.86 74.075 428.788 73.9639C428.71 73.8443 428.736 73.709 428.722 73.5801C428.674 73.0854 429.066 72.7198 429.83 72.4551C429.94 72.4191 430.066 72.3176 430.042 72.2668C429.889 71.9822 430.047 71.7292 430.186 71.4712C430.415 71.0439 430.558 70.9805 431.395 70.9551C431.682 70.9484 431.742 70.8852 431.64 70.7478C431.598 70.692 431.607 70.6221 431.585 70.5383C432.135 70.6643 432.407 70.57 432.432 70.2941C432.444 70.1458 432.502 69.9914 432.458 69.8444C432.358 69.4962 432.476 69.142 432.159 68.7997C432.055 68.6913 432.072 68.4645 432.208 68.4091C432.65 68.2197 432.879 67.9371 432.697 67.5848C432.484 67.6365 432.278 67.6885 432.071 67.7405C432.059 67.7317 432.053 67.7231 432.041 67.7142C432.172 67.6255 432.31 67.537 432.442 67.4442C432.152 67.3638 431.88 67.301 431.642 67.2107C431.554 67.1775 431.558 67.0826 431.523 67.0146C431.651 67.0002 431.813 66.9502 431.901 66.9751C432.443 67.1298 432.768 66.9802 433.075 66.8214C432.982 66.7631 432.85 66.7153 432.852 66.674C432.869 66.4266 432.576 66.4247 432.226 66.4076C432.105 66.4018 431.899 66.2883 431.902 66.2305C431.907 66.0984 431.971 65.9526 432.116 65.8521C432.445 65.6282 432.849 65.4368 433.202 65.2265C433.366 65.1311 433.473 65.0122 433.618 64.9076C433.862 64.7333 434.112 64.5593 434.362 64.3853C434.487 64.3004 434.624 64.2202 434.794 64.1168C434.585 64.0942 434.451 64.0836 434.324 64.0691C434.386 63.9852 434.489 63.9571 434.592 63.9249C434.676 63.9001 434.804 63.8898 434.831 63.8539C434.946 63.7188 435.035 63.5783 435.13 63.4423C435.124 63.442 435.053 63.4468 434.995 63.4647C434.002 63.7224 432.925 63.8437 431.813 63.8929C430.771 63.9414 429.73 63.9652 428.688 64.0178C426.688 64.1148 424.686 64.2241 422.692 64.3296C422.34 64.3456 422.093 64.3046 422.046 64.083C422.03 64.0037 421.913 63.9028 421.781 63.8592C421.171 63.6557 420.546 63.6583 419.921 63.814C419.805 63.8414 419.649 63.8918 419.567 63.8713C419.018 63.7369 418.509 63.8693 417.985 63.8769C417.028 63.884 416.073 63.8582 415.116 63.857C414.159 63.8559 413.208 63.8758 412.251 63.8829C410.765 63.8891 409.278 63.8911 407.792 63.8932C405.566 63.9005 403.339 63.912 401.107 63.9108C399.551 63.9094 397.989 63.883 396.433 63.8898C392.567 63.9 388.701 63.9226 384.835 63.9411C383.24 63.9503 381.645 63.9594 380.044 63.9641C377.39 63.9672 374.743 63.9706 372.09 63.9695C370.693 63.9677 369.291 63.9366 367.894 63.9512C366.12 63.9641 364.35 64.0309 362.577 64.0355C359.049 64.0456 355.523 64.031 352.002 64.0332C351.842 64.0337 351.656 64.0701 351.545 64.1226C351.167 64.3152 350.704 64.3878 350.198 64.4417C349.455 64.5255 348.643 64.5686 348.015 64.7615C346.554 65.2115 344.959 65.0883 343.391 65.0656C342.129 65.0455 340.87 64.9428 339.61 64.8897C338.859 64.8531 338.107 64.8247 337.355 64.817C336.622 64.8061 335.894 64.8245 335.16 64.8301C335.058 64.8292 334.936 64.844 334.861 64.8155C334.277 64.605 333.68 64.6876 333.085 64.7413C332.982 64.7488 332.868 64.7432 332.766 64.73C332.487 64.6957 332.185 64.5982 331.948 64.628C331.172 64.7185 330.427 64.5539 329.662 64.5332C328.12 64.4994 326.582 64.3913 325.035 64.3242C323.666 64.2658 322.297 64.2198 320.928 64.1613C319.444 64.1015 317.968 64.0336 316.484 63.9737C315.701 63.9439 314.916 63.9387 314.127 63.9044C312.905 63.8531 311.683 63.7977 310.468 63.7219C309.577 63.6661 308.688 63.5773 307.799 63.4967C307.513 63.4704 307.228 63.411 306.948 63.4139C305.869 63.4193 304.803 63.4583 303.725 63.4554C300.957 63.4529 298.196 63.4383 295.428 63.4235C292.699 63.4063 289.97 63.3891 287.241 63.372C287.322 63.2643 287.397 63.1521 287.472 63.044C287.465 63.0437 287.395 63.0486 287.337 63.0664C286.827 63.1988 286.294 63.2927 285.749 63.3613C284.728 63.353 283.714 63.3491 282.694 63.3407C281.693 63.3375 280.691 63.3631 279.683 63.3595C278.911 63.355 278.142 63.3009 277.376 63.3133C276.61 63.3256 275.827 63.155 275.085 63.3423C275.04 63.3525 274.97 63.3491 274.913 63.3463C274.466 63.3411 274.02 63.34 273.574 63.3348C273.295 63.2964 273.014 63.2951 272.738 63.3272C272.477 63.3269 272.216 63.3224 271.954 63.3221C270.43 63.314 268.9 63.3015 267.376 63.2934C265.399 63.284 263.422 63.2745 261.452 63.2654C258.71 63.2517 255.967 63.2381 253.231 63.233C252.677 63.2308 252.133 63.2705 251.577 63.2806C251.22 63.288 250.974 63.3712 250.777 63.4981C250.114 63.4948 249.451 63.4873 248.787 63.4922C244.922 63.5024 241.055 63.525 237.189 63.5434C235.594 63.5526 233.999 63.5618 232.398 63.5665C229.745 63.5695 227.098 63.5729 224.444 63.5719C223.048 63.57 221.646 63.5389 220.248 63.5536C218.474 63.5664 216.705 63.6333 214.931 63.6379C211.404 63.648 207.877 63.6334 204.356 63.6355C204.197 63.636 204.01 63.6724 203.9 63.725C203.521 63.9175 203.059 63.9901 202.553 64.0441C201.809 64.1278 200.997 64.171 200.37 64.3638C198.909 64.8139 197.313 64.6906 195.745 64.668C194.483 64.6479 193.225 64.5452 191.964 64.492C191.213 64.4554 190.462 64.4271 189.709 64.4194C188.976 64.4085 188.249 64.4268 187.515 64.4324C187.413 64.4316 187.291 64.4463 187.216 64.4178C186.632 64.2074 186.035 64.29 185.439 64.3437C185.337 64.3511 185.222 64.3455 185.115 64.332C184.835 64.2977 184.534 64.2003 184.296 64.2301C183.52 64.3205 182.775 64.1559 182.011 64.1352C180.469 64.1015 178.93 63.9934 177.383 63.9263C176.014 63.8678 174.645 63.8218 173.276 63.7634C171.792 63.7035 170.316 63.6357 168.832 63.5758C168.049 63.5459 167.265 63.5408 166.475 63.5064C165.253 63.4551 164.031 63.3997 162.816 63.324C161.925 63.2682 161.036 63.1793 160.147 63.0988C159.861 63.0724 159.576 63.0131 159.296 63.0159C158.218 63.0213 157.151 63.0603 156.073 63.0575C153.305 63.055 150.544 63.0404 147.776 63.0255C143.536 63.0009 139.289 62.9677 135.049 62.9472C134.047 62.9439 133.045 62.9696 132.037 62.966C131.266 62.9615 130.496 62.9074 129.73 62.9197C128.964 62.9321 128.181 62.7615 127.439 62.9487C127.394 62.959 127.324 62.9555 127.267 62.9528C126.279 62.946 125.29 62.9351 124.302 62.9283C122.778 62.9202 121.248 62.9077 119.724 62.8996C117.747 62.8901 115.77 62.8807 113.8 62.8715C111.057 62.8579 108.322 62.8446 105.579 62.8392C105.025 62.837 104.481 62.8766 103.925 62.8868C103.485 62.8943 103.218 63.0137 102.993 63.193C102.802 63.3451 102.841 63.4711 103.143 63.5561C103.295 63.5966 103.506 63.5738 103.71 63.5837C103.624 63.8029 103.231 63.8831 102.734 64.012C103.043 64.1015 103.251 64.1489 103.433 64.2156C103.559 64.2631 103.639 64.3373 103.744 64.3963C103.603 64.4142 103.468 64.4366 103.327 64.4504C103.276 64.4562 103.226 64.4455 103.175 64.443C103.142 64.4579 103.103 64.4767 103.07 64.4917C103.231 64.6153 103.372 64.7504 103.564 64.8633C103.82 65.0081 104.14 65.123 104.002 65.3562C103.913 65.5049 103.874 65.6602 103.785 65.809C103.75 65.8735 103.675 65.9733 103.592 65.9775C103.426 65.9901 103.236 65.9601 103.072 65.919C102.939 65.8919 102.827 65.8285 102.708 65.7854C102.675 65.7963 102.643 65.8071 102.61 65.8221C102.794 66.0089 102.547 66.2451 103.006 66.404C103.194 66.4711 103.127 66.5505 102.903 66.5686C102.557 66.5972 102.56 66.6884 102.726 66.8247C102.886 66.9525 103.034 67.0797 103.255 67.2725C102.905 67.2554 102.644 67.2427 102.345 67.2281C102.41 67.4878 103.034 67.5017 103.202 67.7457C102.853 67.8569 102.51 67.9684 102.154 68.0793C102.241 68.1373 102.328 68.1995 102.482 68.3063C102.216 68.4092 101.957 68.5041 101.723 68.6085C101.645 68.6461 101.578 68.7214 101.594 68.7719C101.628 68.8811 101.719 68.9848 101.808 69.1298C101.796 69.1292 101.878 69.1415 101.96 69.1579C102.207 69.2072 102.296 69.3604 102.101 69.4419C101.873 69.5426 101.633 69.6384 101.362 69.708C100.749 69.8643 100.737 69.8636 101.189 70.1546C101.264 70.2037 101.358 70.2414 101.426 70.2944C101.487 70.3429 101.517 70.4022 101.559 70.4539C101.443 70.4731 101.328 70.4964 101.206 70.5071C100.956 70.528 100.695 70.5277 100.451 70.5613C100.027 70.6193 100.159 70.8283 100.139 70.9805L100.138 71.0094Z" fill="#1B8533"/>
<path d="M550.208 131.69C550.209 131.641 549.795 131.538 549.536 131.522C548.954 131.485 548.361 131.489 547.778 131.464C547.529 131.453 547.124 131.4 547.104 131.354C547.055 131.262 547.151 131.145 547.319 131.075C547.435 131.033 547.82 131.027 548.048 131.05C548.775 131.125 549.14 131.069 549.417 130.796C549.136 130.8 548.897 130.806 548.657 130.811C548.606 130.773 548.555 130.734 548.586 130.751C548.586 130.747 548.586 130.747 548.586 130.751C548.024 130.731 547.546 130.738 547.151 130.682C546.975 130.656 546.979 130.495 546.858 130.343C547.169 130.389 547.252 130.408 547.324 130.41C547.616 130.41 547.948 130.427 548.157 130.392C548.262 130.374 548.224 130.224 548.111 130.159C547.967 130.068 547.677 130.002 547.45 129.925C547.213 129.844 546.975 129.759 546.748 129.674C546.48 129.571 546.265 129.441 545.934 129.366C545.085 129.168 544.942 129.065 545.354 128.775C545.545 128.644 545.557 128.549 545.112 128.441C544.429 128.277 544.411 128.165 544.946 127.97C545.156 127.893 545.439 127.835 545.638 127.758C545.754 127.715 545.849 127.648 545.829 127.594C545.702 127.268 545.48 126.943 545.426 126.619C545.408 126.494 545.754 126.372 545.986 126.221L544.634 126.22C544.66 125.981 543.865 125.736 544.909 125.592C544.239 125.287 544.293 125.202 542.916 125.357C542.971 125.235 542.963 125.135 543.058 125.055C543.504 124.692 543.554 124.35 542.614 124.022C542.078 123.833 541.646 123.618 541.13 123.422C541.017 123.377 540.767 123.345 540.58 123.34C539.624 123.313 539.334 123.218 539.477 122.92C539.542 122.79 539.398 122.728 539.035 122.672C538.869 122.647 538.705 122.547 538.717 122.489C538.764 122.267 539.112 122.038 538.127 121.881C538.347 121.85 538.42 121.832 538.514 121.826C538.701 121.815 538.889 121.816 539.066 121.796C539.306 121.774 539.577 121.757 539.765 121.709C540.268 121.587 540.187 121.477 539.586 121.381C539.409 121.351 539.171 121.303 539.141 121.253C538.89 120.874 538.295 120.493 538.949 120.115C538.991 120.091 538.971 120.058 538.972 120.025C538.977 119.81 539.179 119.634 539.858 119.545C540.4 119.474 540.923 119.385 541.591 119.284C541.157 119.152 540.775 119.022 540.351 118.906C539.876 118.781 539.867 118.682 540.39 118.577C540.599 118.533 540.912 118.5 540.987 118.436C541.125 118.308 541.118 118.159 541.184 118C541.06 117.98 540.821 117.948 540.697 117.928C540.544 117.779 540.412 117.664 540.269 117.531C540.707 117.482 541.001 117.387 540.703 117.201C540.673 117.179 540.715 117.139 540.758 117.115C541.054 116.888 540.861 116.717 540.177 116.566C539.773 116.48 539.548 116.329 539.895 116.19C540.231 116.05 540.453 115.904 540.665 115.744C540.929 115.554 541.744 115.436 541.709 115.158C542.721 115.059 542.54 114.785 542.504 114.54C542.486 114.407 542.623 114.337 542.999 114.285C543.594 114.207 543.606 114.141 543.067 114.027C542.674 113.945 542.571 113.872 542.648 113.726C542.702 113.615 542.508 113.49 542.387 113.317C543.026 113.129 541.956 113.032 541.763 112.865C541.859 112.761 541.861 112.657 541.905 112.555C541.971 112.412 541.975 112.251 542.186 112.129C542.386 112.011 542.45 111.938 542.109 111.834C541.975 111.793 541.883 111.732 541.822 111.677C541.628 111.506 541.275 111.459 540.703 111.455C538.185 111.445 535.667 111.419 533.16 111.402C532.046 111.395 530.922 111.397 529.809 111.402C528.445 111.409 527.092 111.441 525.739 111.436C524.386 111.43 523.024 111.383 521.672 111.37C520.725 111.36 519.788 111.383 518.841 111.381C515.927 111.385 513.013 111.397 510.099 111.393C504.365 111.388 498.632 111.37 492.898 111.36C492.378 111.358 491.867 111.389 491.357 111.391C488.932 111.393 486.518 111.386 484.094 111.379C483.605 111.378 483.106 111.335 482.617 111.325C482.274 111.316 481.91 111.305 481.587 111.337C479.71 111.491 477.874 111.687 475.845 111.667C473.109 111.639 470.382 111.648 467.645 111.637C466.178 111.632 464.711 111.615 463.244 111.603C462.173 111.593 461.101 111.579 460.03 111.57C457.335 111.547 454.63 111.524 451.935 111.497C449.896 111.477 447.856 111.464 445.828 111.432C441.688 111.36 437.549 111.242 433.418 111.204C428.123 111.157 422.826 111.168 417.529 111.154C415.437 111.149 413.346 111.147 411.254 111.138C406.853 111.116 402.452 111.074 398.06 111.078C393.128 111.079 388.215 111.125 383.282 111.134C380.493 111.142 377.694 111.104 374.895 111.107C371.648 111.11 368.4 111.138 365.153 111.15C363.405 111.154 361.647 111.133 359.898 111.141C357.578 111.15 355.256 111.187 352.925 111.191C350.49 111.197 348.045 111.165 345.61 111.166C344.621 111.167 343.642 111.218 342.652 111.248C342.153 111.262 341.663 111.298 341.163 111.292C340.206 111.282 339.25 111.225 338.293 111.219C335.608 111.205 332.924 111.195 330.239 111.202C329.229 111.202 328.239 111.256 327.24 111.286C327.104 111.29 326.958 111.299 326.823 111.295C325.222 111.233 323.641 111.188 322.028 111.217C318.863 111.272 315.678 111.272 312.504 111.29C310.162 111.302 307.821 111.298 305.479 111.306C301.504 111.317 297.518 111.328 293.542 111.344C291.856 111.349 290.181 111.356 288.494 111.366C286.913 111.375 285.341 111.392 283.759 111.401C282.75 111.385 281.741 111.356 280.732 111.344C279.785 111.334 278.848 111.357 277.901 111.359C274.987 111.363 272.073 111.376 269.159 111.372C263.425 111.366 257.692 111.348 251.958 111.339C251.438 111.336 250.927 111.367 250.417 111.369C247.992 111.371 245.578 111.365 243.154 111.358C242.665 111.356 242.166 111.313 241.677 111.304C241.334 111.294 240.97 111.284 240.647 111.316C238.77 111.469 236.934 111.665 234.905 111.645C232.169 111.617 229.442 111.626 226.706 111.615C225.238 111.611 223.771 111.594 222.304 111.581C221.233 111.571 220.161 111.558 219.09 111.548C216.395 111.525 213.69 111.502 210.995 111.476C208.956 111.455 206.917 111.443 204.888 111.41C200.748 111.338 196.609 111.221 192.479 111.182C187.183 111.135 181.886 111.146 176.589 111.133C174.497 111.127 172.406 111.126 170.314 111.116C165.913 111.095 161.512 111.053 157.12 111.056C152.188 111.057 147.275 111.104 142.342 111.113C139.553 111.12 136.754 111.082 133.955 111.086C130.708 111.089 127.461 111.117 124.214 111.128C122.465 111.132 120.707 111.111 118.958 111.119C116.638 111.128 114.316 111.166 111.995 111.17C109.56 111.175 107.115 111.143 104.68 111.145C103.692 111.146 102.712 111.196 101.723 111.226C101.223 111.241 100.733 111.277 100.234 111.271C99.2766 111.26 98.3205 111.204 97.3633 111.198C94.6787 111.184 91.9941 111.174 89.3091 111.18C88.2996 111.185 87.3098 111.235 86.3101 111.265C86.1747 111.269 86.0288 111.277 85.8936 111.274C84.2924 111.212 82.7117 111.167 81.098 111.195C77.9332 111.25 74.7488 111.251 71.5744 111.269C69.2327 111.281 66.8914 111.276 64.5497 111.284C60.5742 111.296 56.5883 111.307 52.6126 111.322C50.9267 111.328 49.2511 111.334 47.565 111.344C45.1816 111.36 42.7874 111.387 40.4041 111.398C38.6452 111.406 36.8869 111.389 35.128 111.397C33.6606 111.401 32.1927 111.43 30.7252 111.438C28.2377 111.454 25.7399 111.462 23.2522 111.486C22.024 111.497 20.8046 111.574 19.577 111.56C17.5482 111.539 15.5922 111.521 14.0404 112.019C13.6419 112.148 13.4737 112.222 13.73 112.386C13.9965 112.559 14.096 112.756 13.5111 112.847C12.8845 112.941 12.86 113.097 12.8663 113.271C12.8728 113.441 12.8476 113.626 13.0627 113.773C13.329 113.954 13.2846 114.072 12.9792 114.229C12.7054 114.366 12.5974 114.532 12.4479 114.694C12.3305 114.818 12.3478 114.968 12.1475 115.078C11.8314 115.247 11.267 115.35 11.2195 115.601C11.196 115.716 10.5279 115.805 10.1194 115.917C10.1401 115.922 10.2117 115.974 10.2846 115.972C11.0752 115.986 10.9574 116.127 10.8908 116.303C10.8468 116.405 11.0416 116.53 11.2161 116.635C11.3289 116.704 11.588 116.748 11.619 116.758C11.217 117.04 10.8885 117.291 10.5083 117.528C10.392 117.603 10.1202 117.658 9.92107 117.718C9.73514 117.659 9.5598 117.592 9.35297 117.537C9.19785 117.495 8.98072 117.435 8.83483 117.443C8.55346 117.46 8.31272 117.52 8.15605 117.544C8.38222 117.662 8.58799 117.763 8.76236 117.871C8.76226 117.875 8.38546 117.968 8.30255 117.953C8.06423 117.909 7.88919 117.83 7.62074 117.74C7.52676 117.754 7.32858 117.773 7.18192 117.814C6.29156 118.062 5.39091 118.305 4.54186 118.566C4.416 118.608 4.4545 118.741 4.55694 118.81C4.6901 118.901 4.97993 118.967 5.3102 119.084C4.34043 119.168 3.90988 119.334 4.15278 119.626C4.44377 119.642 4.70366 119.654 4.95316 119.665C4.96307 119.686 4.98339 119.707 4.9933 119.728C4.5539 119.827 4.12287 120.013 3.665 120.013C2.85326 120.015 2.34 120.157 1.76512 120.265C1.39929 120.333 1.17674 120.504 1.01735 120.645C0.974786 120.685 1.36793 120.783 1.58487 120.851C1.81211 120.923 2.02875 121.004 2.29817 121.053C2.55719 121.102 2.8892 121.144 3.14967 121.131C4.09768 121.087 4.77229 121.164 4.9318 121.462C5.09122 121.765 5.66232 121.818 6.35822 121.875C6.56592 121.893 6.77362 121.912 6.98122 121.934C8.06035 122.068 8.58143 122.479 8.1991 122.808C8.07178 122.911 8.12953 123.112 8.35686 123.18C8.81144 123.321 9.41219 123.441 10.0041 123.495C11.5512 123.643 13.067 123.793 14.2861 124.171C14.8749 124.357 14.8434 124.368 14.257 124.525C13.0947 124.831 11.428 124.904 10.6566 125.403C10.2128 125.688 9.35444 125.903 9.0243 126.225C8.90729 126.333 8.78999 126.454 8.81858 126.566C8.8177 126.603 9.30609 126.634 9.6485 126.677C9.35508 126.763 9.09306 126.843 8.71577 126.956C9.01736 126.965 9.11095 126.967 9.19415 126.97C9.38114 126.983 9.55775 126.996 9.73435 127.01C9.62938 127.048 9.51392 127.09 9.40885 127.133C9.33528 127.164 9.23042 127.198 9.20875 127.235C9.13285 127.365 9.05695 127.495 9.04345 127.627C9.0419 127.693 9.13356 127.778 9.27819 127.824C9.69155 127.947 10.1258 128.067 10.6022 128.167C10.9232 128.234 11.2967 128.282 11.0332 128.423C10.7909 128.548 10.5072 128.664 9.89482 128.597C9.66642 128.574 9.21895 128.574 9.18698 128.606C9.09125 128.695 9.04685 128.813 9.1801 128.9C9.29275 128.977 9.62446 129.032 9.88339 129.085C10.4011 129.195 11.1298 129.186 11.3736 129.441C11.4853 129.556 11.705 129.509 11.9569 129.417C12.2298 129.317 12.7516 129.253 13.1783 129.253C13.3968 129.255 13.7154 129.425 13.8377 129.536C13.9701 129.655 13.9357 129.791 13.9639 129.92C14.0668 130.415 13.4442 130.781 12.21 131.048C12.0322 131.085 11.8321 131.186 11.8726 131.237C12.1365 131.522 11.8912 131.775 11.677 132.034C11.3235 132.462 11.0931 132.525 9.7292 132.553C9.26073 132.56 9.16559 132.624 9.33928 132.761C9.41082 132.817 9.39877 132.887 9.43843 132.97C8.536 132.846 8.0967 132.941 8.06941 133.217C8.05552 133.365 7.96864 133.52 8.04845 133.667C8.2276 134.015 8.05278 134.37 8.5859 134.711C8.76027 134.82 8.74453 135.047 8.52469 135.102C7.81258 135.293 7.45212 135.576 7.76646 135.928C8.1111 135.876 8.44534 135.824 8.77958 135.771C8.80018 135.78 8.81039 135.788 8.831 135.797C8.62078 135.886 8.40016 135.975 8.18984 136.068C8.66667 136.148 9.11268 136.21 9.50602 136.3C9.65094 136.333 9.64871 136.428 9.70955 136.496C9.50108 136.511 9.23974 136.561 9.09463 136.536C8.20327 136.383 7.67942 136.534 7.18657 136.693C7.34131 136.751 7.55873 136.799 7.55776 136.84C7.54154 137.088 8.02021 137.089 8.59219 137.105C8.78978 137.111 9.13054 137.224 9.12919 137.281C9.12609 137.414 9.029 137.56 8.79769 137.661C8.27209 137.886 7.62238 138.078 7.05548 138.289C6.79307 138.385 6.62377 138.504 6.39236 138.609C6.00322 138.784 5.60368 138.959 5.20413 139.134C5.00441 139.219 4.78399 139.3 4.51098 139.403C4.85388 139.426 5.07217 139.436 5.27997 139.45C5.18434 139.534 5.01717 139.563 4.84991 139.595C4.71403 139.62 4.50565 139.631 4.46318 139.667C4.2831 139.802 4.14451 139.943 3.99562 140.079C4.00602 140.079 4.12061 140.074 4.21469 140.056C5.82339 139.796 7.57458 139.672 9.38652 139.62C11.084 139.569 12.7808 139.543 14.4784 139.488C17.738 139.386 20.9979 139.271 24.2473 139.161C24.82 139.144 25.2249 139.185 25.3134 139.406C25.3428 139.486 25.5381 139.586 25.7556 139.63C26.7603 139.832 27.7803 139.827 28.7934 139.67C28.9813 139.642 29.2323 139.592 29.3671 139.612C30.2693 139.745 31.0946 139.611 31.9481 139.603C33.5093 139.593 35.0697 139.617 36.6307 139.615C38.1917 139.614 39.7428 139.592 41.304 139.582C43.7289 139.573 46.1537 139.567 48.5786 139.561C52.2107 139.549 55.843 139.532 59.4853 139.527C62.0245 139.525 64.5736 139.548 67.113 139.537C73.4198 139.517 79.7268 139.485 86.0338 139.457C88.6357 139.444 91.2376 139.431 93.8499 139.423C98.1792 139.413 102.498 139.403 106.827 139.398C109.106 139.396 111.395 139.424 113.675 139.406C116.568 139.389 119.452 139.318 122.345 139.309C128.101 139.29 133.855 139.296 139.6 139.285C139.86 139.284 140.163 139.247 140.341 139.194C140.949 139.001 141.7 138.927 142.523 138.872C143.732 138.786 145.055 138.741 146.069 138.547C148.432 138.093 151.041 138.212 153.6 138.231C155.66 138.248 157.719 138.348 159.778 138.398C161.005 138.433 162.232 138.459 163.46 138.465C164.657 138.474 165.844 138.454 167.04 138.447C167.207 138.447 167.405 138.432 167.529 138.461C168.492 138.67 169.462 138.586 170.431 138.53C170.598 138.523 170.785 138.528 170.951 138.541C171.408 138.575 171.905 138.671 172.291 138.641C173.552 138.549 174.777 138.711 176.025 138.73C178.543 138.76 181.059 138.865 183.586 138.928C185.822 138.983 188.058 139.026 190.294 139.081C192.718 139.137 195.131 139.202 197.554 139.258C198.833 139.286 200.113 139.289 201.403 139.322C203.4 139.37 205.397 139.422 207.382 139.495C208.838 139.549 210.293 139.636 211.748 139.714C212.216 139.74 212.683 139.798 213.141 139.795C214.899 139.787 216.638 139.745 218.397 139.745C222.914 139.741 227.419 139.749 231.936 139.757C236.389 139.768 240.843 139.778 245.297 139.789C245.169 139.897 245.052 140.009 244.935 140.117C244.946 140.118 245.06 140.113 245.154 140.095C245.979 139.961 246.845 139.866 247.732 139.796C249.397 139.802 251.051 139.803 252.716 139.809C254.35 139.81 255.984 139.782 257.628 139.783C258.888 139.785 260.145 139.838 261.395 139.823C262.644 139.809 263.93 139.978 265.131 139.789C265.204 139.778 265.319 139.782 265.412 139.784C266.141 139.788 266.869 139.788 267.598 139.792C268.055 139.83 268.512 139.831 268.961 139.798C269.387 139.798 269.814 139.802 270.241 139.801C272.728 139.806 275.225 139.814 277.712 139.819C280.938 139.823 284.164 139.828 287.379 139.832C291.854 139.839 296.329 139.846 300.793 139.845C301.698 139.846 302.584 139.805 303.489 139.793C304.072 139.785 304.47 139.701 304.785 139.573C305.867 139.575 306.949 139.581 308.032 139.575C314.338 139.555 320.646 139.523 326.953 139.495C329.554 139.482 332.156 139.469 334.769 139.46C339.098 139.451 343.417 139.441 347.746 139.435C350.025 139.434 352.314 139.462 354.593 139.443C357.487 139.426 360.371 139.355 363.264 139.346C369.019 139.327 374.774 139.333 380.519 139.323C380.779 139.322 381.081 139.285 381.26 139.232C381.868 139.038 382.619 138.965 383.442 138.91C384.651 138.824 385.974 138.779 386.988 138.584C389.35 138.13 391.96 138.25 394.519 138.269C396.579 138.286 398.637 138.385 400.697 138.435C401.924 138.47 403.151 138.497 404.379 138.503C405.575 138.512 406.762 138.492 407.959 138.484C408.126 138.485 408.324 138.47 408.448 138.498C409.411 138.707 410.381 138.623 411.35 138.568C411.516 138.56 411.704 138.566 411.88 138.579C412.337 138.612 412.835 138.709 413.22 138.679C414.482 138.586 415.706 138.749 416.954 138.768C419.472 138.798 421.988 138.903 424.515 138.966C426.751 139.021 428.987 139.064 431.224 139.119C433.647 139.175 436.06 139.239 438.483 139.296C439.762 139.324 441.042 139.327 442.332 139.359C444.329 139.408 446.326 139.46 448.312 139.533C449.767 139.587 451.222 139.673 452.677 139.752C453.145 139.778 453.612 139.836 454.07 139.833C455.829 139.825 457.567 139.783 459.326 139.783C463.843 139.779 468.348 139.787 472.865 139.795C479.785 139.809 486.715 139.832 493.635 139.842C495.269 139.843 496.903 139.815 498.547 139.816C499.806 139.819 501.064 139.871 502.313 139.857C503.563 139.843 504.849 140.011 506.05 139.822C506.123 139.812 506.238 139.815 506.331 139.818C507.944 139.822 509.557 139.831 511.17 139.835C513.657 139.839 516.154 139.848 518.641 139.852C521.867 139.857 525.093 139.862 528.309 139.866C532.783 139.873 537.247 139.88 541.722 139.878C542.627 139.879 543.513 139.838 544.419 139.827C545.137 139.818 545.566 139.698 545.924 139.518C546.23 139.365 546.16 139.239 545.662 139.155C545.413 139.115 545.07 139.138 544.737 139.129C544.867 138.909 545.504 138.828 546.308 138.698C545.8 138.609 545.458 138.562 545.157 138.496C544.95 138.449 544.817 138.375 544.641 138.316C544.871 138.298 545.09 138.275 545.319 138.261C545.402 138.255 545.485 138.265 545.569 138.268C545.621 138.253 545.684 138.234 545.736 138.219C545.469 138.096 545.232 137.961 544.912 137.848C544.489 137.704 543.961 137.59 544.175 137.356C544.314 137.207 544.369 137.052 544.508 136.903C544.562 136.838 544.678 136.738 544.814 136.733C545.085 136.72 545.396 136.75 545.666 136.791C545.884 136.818 546.069 136.881 546.266 136.923C546.318 136.913 546.371 136.902 546.423 136.887C546.115 136.7 546.506 136.463 545.75 136.305C545.439 136.239 545.545 136.159 545.91 136.14C546.473 136.111 546.464 136.02 546.186 135.884C545.919 135.756 545.672 135.629 545.302 135.437C545.874 135.453 546.3 135.465 546.789 135.479C546.67 135.219 545.651 135.207 545.365 134.963C545.93 134.851 546.484 134.739 547.059 134.627C546.915 134.569 546.77 134.507 546.513 134.401C546.942 134.297 547.36 134.201 547.737 134.096C547.863 134.059 547.969 133.983 547.939 133.933C547.879 133.823 547.725 133.72 547.573 133.575C547.594 133.576 547.459 133.563 547.324 133.547C546.919 133.499 546.766 133.345 547.081 133.263C547.447 133.162 547.834 133.066 548.273 132.995C549.265 132.838 549.286 132.838 548.533 132.548C548.41 132.499 548.254 132.462 548.141 132.409C548.038 132.36 547.988 132.301 547.916 132.249C548.104 132.23 548.292 132.206 548.49 132.195C548.896 132.174 549.323 132.174 549.719 132.139C550.407 132.08 550.183 131.871 550.207 131.719L550.208 131.69Z" fill="#1B8533"/>
<path d="M157.335 71.3438C157.335 78.28 150.63 81.5631 143.925 81.5631C137.22 81.5631 132.781 78.9736 130.977 76.4303L135.37 70.1877C137.451 72.731 141.15 73.6558 143.231 73.6558C145.312 73.6558 147.254 72.4998 147.254 70.6501C147.254 68.8005 145.775 67.8757 143.694 67.8757H140.457V60.9395H143.694C145.312 60.9395 146.468 60.2458 146.468 58.6274C146.468 57.0089 145.081 56.3153 143.231 56.3153C141.382 56.3153 138.607 56.7777 135.602 58.8586L132.133 52.1536C134.445 50.5352 137.682 48.6855 144.017 48.6855C150.399 48.6855 156.271 51.9224 156.271 57.4714C156.271 61.1707 154.56 63.0203 152.248 64.1764C155.254 65.1012 157.335 67.8757 157.335 71.3438ZM189.012 65.1474C189.012 73.7021 184.85 81.6093 174.77 81.6093C164.735 81.6093 160.574 73.7021 160.574 65.1474C160.574 56.5928 164.735 48.6855 174.77 48.6855C184.85 48.6855 189.012 56.5928 189.012 65.1474ZM178.839 65.0087C178.839 60.847 177.914 57.3789 174.77 57.3789C171.672 57.3789 170.747 60.847 170.747 65.0087C170.747 69.1704 171.672 72.731 174.77 72.731C177.914 72.731 178.839 69.1704 178.839 65.0087ZM230.414 49.1479L219.316 68.5693V81.0544H208.866V68.5693L197.814 49.1479H209.375L214.091 59.9221L218.854 49.1479H230.414ZM254.693 81.0544H231.572V49.1479H254.23V57.3789H241.977V60.847H253.537V69.0317H241.977V72.731H254.693V81.0544ZM289.146 81.0544H277.817L276.569 76.569H267.459L266.257 81.0544H255.39L266.488 49.1479H278.048L289.146 81.0544ZM274.395 68.5693L272.037 60.0146L269.679 68.5693H274.395ZM319.664 81.0544H307.641L302.554 70.4189H301.213V81.0544H290.763V49.1479H304.635C308.566 49.1479 311.572 49.8415 313.884 51.46C316.196 53.0784 317.814 55.8529 317.814 59.321C317.814 65.7948 313.884 68.1069 312.496 68.9392L319.664 81.0544ZM307.271 59.7834C307.271 58.3962 306.577 57.9338 306.115 57.6101C305.653 57.2401 304.959 57.0089 303.803 57.0089H301.167V62.5579H303.803C305.606 62.5579 307.271 61.8643 307.271 59.7834ZM344.416 70.5577C344.416 73.887 342.797 76.8927 340.254 78.8811C337.711 80.8232 334.52 81.6093 330.821 81.6093C327.121 81.6093 322.867 80.592 318.52 77.3551L323.145 69.4941C326.104 71.9911 330.266 72.9622 331.653 72.9622C333.04 72.9622 334.011 72.546 334.011 71.6212C334.011 70.6964 332.855 70.3265 331.699 69.9565C330.543 69.6328 328 68.8005 327.075 68.4768C322.636 66.7196 319.769 64.6388 319.769 59.321C319.769 55.8529 321.572 53.1709 323.468 51.5987C325.41 49.9803 328.601 48.8242 332.855 48.8242C337.109 48.8242 341.456 50.3502 344.231 52.6623L340.254 60.0609C337.849 57.9338 334.335 57.0089 332.67 57.0089C331.006 57.0089 330.081 57.3326 330.081 58.3037C330.081 59.2285 331.56 59.5522 332.3 59.7834C333.04 60.0146 334.982 60.5695 336.092 60.9395C340.901 62.5579 344.416 64.9625 344.416 70.5577ZM389.067 65.1474C389.067 75.5517 381.669 81.6093 371.727 81.6093C361.785 81.6093 354.386 75.5517 354.386 65.1474C354.386 54.7431 361.785 48.6393 371.727 48.6393C381.669 48.6393 389.067 54.7431 389.067 65.1474ZM378.524 64.9162C378.524 60.5233 375.889 57.4714 371.727 57.4714C367.565 57.4714 364.883 60.5233 364.883 64.9162C364.883 69.3091 367.565 72.3611 371.727 72.3611C375.889 72.3611 378.524 69.3091 378.524 64.9162ZM414.271 57.3789H402.479V62.3267H413.577V70.5577H402.479V81.0544H392.075V49.1479H414.271V57.3789ZM51.7313 103.379H39.9397V108.327H51.0377V116.558H39.9397V127.054H29.5354V95.1479H51.7313V103.379ZM65.1785 127.054H54.7279V95.1479H65.1785V127.054ZM100.099 127.054H89.2319L79.5213 109.252C79.5213 109.252 79.7525 112.72 79.7525 115.032V127.054H69.5794V95.1479H80.9085L90.1568 112.951C90.1568 112.951 89.9256 109.483 89.9256 107.171V95.1479H100.099V127.054ZM135.462 127.054H124.133L122.885 122.569H113.775L112.573 127.054H101.706L112.804 95.1479H124.365L135.462 127.054ZM120.711 114.569L118.353 106.015L115.995 114.569H120.711ZM167.598 127.054H156.732L147.021 109.252C147.021 109.252 147.252 112.72 147.252 115.032V127.054H137.079V95.1479H148.408L157.656 112.951C157.656 112.951 157.425 109.483 157.425 107.171V95.1479H167.598V127.054ZM199.032 123.586C197.876 124.742 194.639 127.609 187.703 127.609C178.223 127.609 170.593 121.783 170.593 111.147C170.593 100.512 178.223 94.6855 187.703 94.6855C194.87 94.6855 198.338 97.6912 198.338 97.6912L195.564 106.477C195.564 106.477 192.327 103.703 188.396 103.703C184.466 103.703 181.09 106.015 181.09 111.009C181.09 115.957 184.697 118.176 188.396 118.176C192.095 118.176 194.639 116.65 196.026 115.263L199.032 123.586ZM211.552 127.054H201.102V95.1479H211.552V127.054ZM246.935 127.054H235.606L234.357 122.569H225.248L224.045 127.054H213.179L224.277 95.1479H235.837L246.935 127.054ZM232.184 114.569L229.826 106.015L227.467 114.569H232.184ZM269.822 127.054H248.551V95.1479H258.956V118.5H269.822V127.054ZM304.265 127.054H281.144V95.1479H303.803V103.379H291.549V106.847H303.109V115.032H291.549V118.731H304.265V127.054ZM339.643 127.054H327.158L322.072 116.881L316.985 127.054H304.5L315.135 110.408L305.055 95.1479H317.54L322.072 103.703L326.557 95.1479H339.042L329.008 110.408L339.643 127.054ZM367.144 106.153C367.144 113.876 361.826 117.113 354.659 117.113H351.237V127.054H340.787V95.1479H354.659C361.873 95.1479 367.144 98.3848 367.144 106.153ZM356.601 106.153C356.601 103.749 355.029 103.009 352.902 103.009H351.191V109.252H352.902C355.075 109.252 356.601 108.604 356.601 106.153ZM392.577 127.054H369.456V95.1479H392.115V103.379H379.861V106.847H391.421V115.032H379.861V118.731H392.577V127.054ZM424.95 127.054H412.927L407.84 116.419H406.499V127.054H396.049V95.1479H409.921C413.852 95.1479 416.857 95.8415 419.169 97.46C421.481 99.0784 423.1 101.853 423.1 105.321C423.1 111.795 419.169 114.107 417.782 114.939L424.95 127.054ZM412.557 105.783C412.557 104.396 411.863 103.934 411.401 103.61C410.938 103.24 410.245 103.009 409.089 103.009H406.453V108.558H409.089C410.892 108.558 412.557 107.864 412.557 105.783ZM449.285 103.286H441.748V127.054H431.297V103.286H423.806V95.1479H449.285V103.286ZM461.806 127.054H451.356V95.1479H461.806V127.054ZM489.79 116.558C489.79 119.887 488.172 122.893 485.629 124.881C483.085 126.823 479.895 127.609 476.195 127.609C472.496 127.609 468.242 126.592 463.895 123.355L468.519 115.494C471.479 117.991 475.641 118.962 477.028 118.962C478.415 118.962 479.386 118.546 479.386 117.621C479.386 116.696 478.23 116.326 477.074 115.957C475.918 115.633 473.375 114.8 472.45 114.477C468.011 112.72 465.144 110.639 465.144 105.321C465.144 101.853 466.947 99.1709 468.843 97.5987C470.785 95.9803 473.976 94.8242 478.23 94.8242C482.484 94.8242 486.831 96.3502 489.605 98.6623L485.629 106.061C483.224 103.934 479.71 103.009 478.045 103.009C476.38 103.009 475.456 103.333 475.456 104.304C475.456 105.229 476.935 105.552 477.675 105.783C478.415 106.015 480.357 106.57 481.467 106.939C486.276 108.558 489.79 110.962 489.79 116.558ZM515.469 127.054H492.348V95.1479H515.006V103.379H502.752V106.847H514.313V115.032H502.752V118.731H515.469V127.054Z" fill="white"/>
<path d="M66.1258 14.6345H59.9526V34.1252H54.3343V14.6345H48.161V10.1953H66.1258V14.6345ZM83.9993 34.1252H78.4156V25.1429C78.4156 23.062 78.1382 21.2586 75.8145 21.2586C73.4909 21.2586 72.7626 23.2007 72.7626 25.7324V34.1252H67.2136V10.1953H72.7626V15.883C72.7626 17.6171 72.7279 19.4899 72.7279 19.4899C73.5949 17.9639 75.225 16.7154 77.7567 16.7154C82.7161 16.7154 83.9993 19.8713 83.9993 24.0331V34.1252ZM103.243 25.0735C103.243 25.9058 103.173 26.9116 103.173 26.9116H91.0002C91.243 29.3739 93.1158 30.4837 95.37 30.4837C97.5896 30.4837 99.5317 29.5127 100.503 28.8537L102.688 31.7323C102.133 32.1484 99.8785 34.5067 94.5724 34.5067C89.3008 34.5067 85.4512 31.2467 85.4512 25.5937C85.4512 19.9407 89.613 16.7154 94.6764 16.7154C99.7398 16.7154 103.243 20.0794 103.243 25.0735ZM98.0751 23.7556C98.0405 22.195 96.896 20.3222 94.5724 20.3222C92.2834 20.3222 91.1043 22.1256 91.0349 23.7556H98.0751ZM129.7 25.5937C129.7 30.6225 126.579 34.5067 121.619 34.5067C119.296 34.5067 117.25 33.6744 115.966 31.871H115.932L115.966 34.1252H110.695V10.1953H116.244V15.9524C116.244 17.513 116.175 19.1084 116.175 19.1084H116.279C117.007 18.0679 118.741 16.7154 121.654 16.7154C126.579 16.7154 129.7 20.565 129.7 25.5937ZM124.047 25.5244C124.047 22.8886 122.452 21.0852 120.059 21.0852C117.666 21.0852 116.036 22.8886 116.036 25.5244C116.036 28.1601 117.666 29.9635 120.059 29.9635C122.452 29.9635 124.047 28.1601 124.047 25.5244ZM147.765 34.1252H142.424L142.389 32.1831C141.661 33.2235 139.858 34.5067 137.395 34.5067C132.679 34.5067 131.257 31.6282 131.257 27.3624V17.0275H136.806V26.5995C136.806 28.5763 137.361 29.9288 139.337 29.9288C141.314 29.9288 142.216 28.3682 142.216 26.1139V17.0275H147.765V34.1252ZM168.438 34.1252H163.167L163.201 31.871L163.097 31.9057C161.814 33.6397 159.768 34.5067 157.479 34.5067C152.52 34.5067 149.398 30.6225 149.398 25.5937C149.398 20.565 152.52 16.7154 157.479 16.7154C160.6 16.7154 162.334 18.276 162.889 19.1084V10.1953H168.438V34.1252ZM163.063 25.5244C163.063 22.8886 161.467 21.0852 159.074 21.0852C156.681 21.0852 155.051 22.8886 155.051 25.5244C155.051 28.1601 156.681 29.9635 159.074 29.9635C161.467 29.9635 163.063 28.1601 163.063 25.5244ZM189.243 30.6571C189.243 34.3333 188.306 36.4836 186.642 38.0442C184.977 39.6048 182.688 40.7493 178.769 40.7493C174.816 40.7493 171.66 39.0846 170.48 38.2176L172.769 34.5067C173.775 35.2697 176.376 36.4489 178.665 36.4489C181.96 36.4489 183.729 35.0616 183.729 31.6976V31.1427H183.659C182.619 32.4952 180.954 33.5703 178.284 33.5703C174.087 33.5703 170.203 30.6571 170.203 25.1429C170.203 19.6286 174.087 16.7154 178.284 16.7154C181.162 16.7154 182.792 18.0333 183.694 19.2124H183.763L183.694 17.0275H189.243V30.6571ZM183.867 25.1775C183.867 22.8539 182.341 21.0505 179.879 21.0505C177.417 21.0505 175.856 22.8539 175.856 25.1775C175.856 27.5359 177.417 29.3393 179.879 29.3393C182.341 29.3393 183.867 27.5359 183.867 25.1775ZM208.731 25.0735C208.731 25.9058 208.662 26.9116 208.662 26.9116H196.489C196.732 29.3739 198.604 30.4837 200.859 30.4837C203.078 30.4837 205.02 29.5127 205.991 28.8537L208.176 31.7323C207.621 32.1484 205.367 34.5067 200.061 34.5067C194.789 34.5067 190.94 31.2467 190.94 25.5937C190.94 19.9407 195.102 16.7154 200.165 16.7154C205.228 16.7154 208.731 20.0794 208.731 25.0735ZM203.564 23.7556C203.529 22.195 202.385 20.3222 200.061 20.3222C197.772 20.3222 196.593 22.1256 196.523 23.7556H203.564ZM220.44 21.2586H216.66V27.3971C216.66 28.8884 216.764 29.9288 218.463 29.9288C219.33 29.9288 220.128 29.6167 220.128 29.6167L220.405 33.9518C219.989 34.0559 218.463 34.5067 216.452 34.5067C212.013 34.5067 211.076 31.8016 211.076 27.8827V21.2586H208.648V17.0622H211.076V12.4149H216.66V17.0622H220.44V21.2586ZM227.633 12.1722C227.633 13.9062 226.35 15.0507 224.477 15.0507C222.604 15.0507 221.321 13.9062 221.321 12.1722C221.321 10.4728 222.604 9.29364 224.477 9.29364C226.35 9.29364 227.633 10.4728 227.633 12.1722ZM227.251 34.1252H221.702V17.0275H227.251V34.1252ZM246.726 34.1252H241.177V25.2122C241.177 22.958 240.83 21.2586 238.541 21.2586C236.148 21.2586 235.489 23.2007 235.489 25.6631V34.1252H229.94V17.0275H235.489L235.454 19.4899H235.524C236.46 17.9639 238.021 16.7154 240.483 16.7154C245.443 16.7154 246.726 19.906 246.726 24.0331V34.1252ZM267.289 30.6571C267.289 34.3333 266.352 36.4836 264.688 38.0442C263.023 39.6048 260.734 40.7493 256.815 40.7493C252.861 40.7493 249.705 39.0846 248.526 38.2176L250.815 34.5067C251.821 35.2697 254.422 36.4489 256.711 36.4489C260.006 36.4489 261.774 35.0616 261.774 31.6976V31.1427H261.705C260.665 32.4952 259 33.5703 256.329 33.5703C252.133 33.5703 248.249 30.6571 248.249 25.1429C248.249 19.6286 252.133 16.7154 256.329 16.7154C259.208 16.7154 260.838 18.0333 261.74 19.2124H261.809L261.74 17.0275H267.289V30.6571ZM261.913 25.1775C261.913 22.8539 260.387 21.0505 257.925 21.0505C255.462 21.0505 253.902 22.8539 253.902 25.1775C253.902 27.5359 255.462 29.3393 257.925 29.3393C260.387 29.3393 261.913 27.5359 261.913 25.1775ZM291.121 34.1252H285.815L285.711 32.3218C284.983 33.0501 283.596 34.5067 280.821 34.5067C277.804 34.5067 274.613 32.8767 274.613 29.0618C274.613 25.2469 278.116 23.9637 281.272 23.825L285.572 23.6516V23.2701C285.572 21.4667 284.289 20.5303 282.07 20.5303C279.885 20.5303 277.7 21.5014 276.833 22.0563L275.376 18.4494C276.833 17.7211 279.503 16.7154 282.694 16.7154C288.035 16.7154 291.121 18.935 291.121 24.4839V34.1252ZM285.607 26.5995L282.867 26.7729C281.168 26.8422 280.162 27.5705 280.162 28.8537C280.162 30.1716 281.237 30.9693 282.763 30.9693C284.254 30.9693 285.26 29.9982 285.607 29.4086V26.5995ZM312.624 25.5937C312.624 30.6225 309.503 34.5067 304.543 34.5067C302.012 34.5067 300.208 33.5703 299.133 31.975V40.4025H293.584V17.0275H298.856L298.821 19.2124H298.89C300.139 17.7211 301.977 16.7154 304.578 16.7154C309.503 16.7154 312.624 20.565 312.624 25.5937ZM306.971 25.5244C306.971 22.8886 305.341 21.0852 302.948 21.0852C300.59 21.0852 298.96 22.8886 298.96 25.5244C298.96 28.1601 300.59 29.9635 302.948 29.9635C305.341 29.9635 306.971 28.1601 306.971 25.5244ZM333.361 25.5937C333.361 30.6225 330.24 34.5067 325.28 34.5067C322.748 34.5067 320.945 33.5703 319.87 31.975V40.4025H314.321V17.0275H319.593L319.558 19.2124H319.627C320.876 17.7211 322.714 16.7154 325.315 16.7154C330.24 16.7154 333.361 20.565 333.361 25.5937ZM327.708 25.5244C327.708 22.8886 326.078 21.0852 323.685 21.0852C321.327 21.0852 319.697 22.8886 319.697 25.5244C319.697 28.1601 321.327 29.9635 323.685 29.9635C326.078 29.9635 327.708 28.1601 327.708 25.5244ZM359.933 25.5937C359.933 30.6225 356.812 34.5067 351.853 34.5067C349.529 34.5067 347.483 33.6744 346.2 31.871H346.165L346.2 34.1252H340.928V10.1953H346.477V15.9524C346.477 17.513 346.408 19.1084 346.408 19.1084H346.512C347.24 18.0679 348.974 16.7154 351.887 16.7154C356.812 16.7154 359.933 20.565 359.933 25.5937ZM354.28 25.5244C354.28 22.8886 352.685 21.0852 350.292 21.0852C347.899 21.0852 346.269 22.8886 346.269 25.5244C346.269 28.1601 347.899 29.9635 350.292 29.9635C352.685 29.9635 354.28 28.1601 354.28 25.5244ZM376.923 34.1252H371.617L371.513 32.3218C370.784 33.0501 369.397 34.5067 366.623 34.5067C363.605 34.5067 360.415 32.8767 360.415 29.0618C360.415 25.2469 363.918 23.9637 367.074 23.825L371.374 23.6516V23.2701C371.374 21.4667 370.091 20.5303 367.871 20.5303C365.686 20.5303 363.501 21.5014 362.634 22.0563L361.178 18.4494C362.634 17.7211 365.305 16.7154 368.495 16.7154C373.836 16.7154 376.923 18.935 376.923 24.4839V34.1252ZM371.409 26.5995L368.669 26.7729C366.969 26.8422 365.964 27.5705 365.964 28.8537C365.964 30.1716 367.039 30.9693 368.565 30.9693C370.056 30.9693 371.062 29.9982 371.409 29.4086V26.5995ZM393.848 32.4606C393.674 32.5993 391.871 34.5067 387.328 34.5067C382.646 34.5067 378.311 31.3161 378.311 25.6284C378.311 19.906 382.715 16.7154 387.397 16.7154C391.767 16.7154 393.744 18.5188 393.744 18.5188L392.53 22.7152C392.044 22.3337 390.518 21.1892 388.125 21.1892C385.767 21.1892 383.894 22.8192 383.894 25.5244C383.894 28.2295 385.594 29.9288 388.195 29.9288C390.796 29.9288 392.53 28.2642 392.53 28.2642L393.848 32.4606ZM412.798 34.1252H406.417L402.221 27.4665L400.695 28.9578V34.1252H395.146V10.1953H400.695V22.6805L405.897 17.0275H412.278L406.035 23.4435L412.798 34.1252ZM429.854 25.0735C429.854 25.9058 429.784 26.9116 429.784 26.9116H417.611C417.854 29.3739 419.727 30.4837 421.981 30.4837C424.201 30.4837 426.143 29.5127 427.114 28.8537L429.299 31.7323C428.744 32.1484 426.49 34.5067 421.183 34.5067C415.912 34.5067 412.062 31.2467 412.062 25.5937C412.062 19.9407 416.224 16.7154 421.288 16.7154C426.351 16.7154 429.854 20.0794 429.854 25.0735ZM424.686 23.7556C424.652 22.195 423.507 20.3222 421.183 20.3222C418.895 20.3222 417.715 22.1256 417.646 23.7556H424.686ZM449.57 34.1252H444.298L444.333 31.871L444.229 31.9057C442.946 33.6397 440.9 34.5067 438.611 34.5067C433.651 34.5067 430.53 30.6225 430.53 25.5937C430.53 20.565 433.651 16.7154 438.611 16.7154C441.732 16.7154 443.466 18.276 444.021 19.1084V10.1953H449.57V34.1252ZM444.194 25.5244C444.194 22.8886 442.599 21.0852 440.206 21.0852C437.813 21.0852 436.183 22.8886 436.183 25.5244C436.183 28.1601 437.813 29.9635 440.206 29.9635C442.599 29.9635 444.194 28.1601 444.194 25.5244ZM477.285 25.5937C477.285 30.6225 474.164 34.5067 469.204 34.5067C466.881 34.5067 464.835 33.6744 463.551 31.871H463.517L463.551 34.1252H458.28V10.1953H463.829V15.9524C463.829 17.513 463.76 19.1084 463.76 19.1084H463.864C464.592 18.0679 466.326 16.7154 469.239 16.7154C474.164 16.7154 477.285 20.565 477.285 25.5937ZM471.632 25.5244C471.632 22.8886 470.037 21.0852 467.644 21.0852C465.251 21.0852 463.621 22.8886 463.621 25.5244C463.621 28.1601 465.251 29.9635 467.644 29.9635C470.037 29.9635 471.632 28.1601 471.632 25.5244ZM495.336 17.0275L487.707 35.7553C486.458 38.8072 485.071 40.68 482.158 40.68C479.244 40.68 477.406 39.8476 477.406 39.8476L478.516 35.7553C478.516 35.7553 479.73 36.2061 480.562 36.2061C481.187 36.2061 481.776 36.2061 482.227 35.0963L482.851 33.605L476.088 17.0275H481.88L485.764 28.0214L489.614 17.0275H495.336Z" fill="white"/>
</svg>
