<svg width="155" height="163" viewBox="0 0 155 163" fill="none" xmlns="http://www.w3.org/2000/svg">
<path d="M93.7552 150.332C93.624 150.945 93.4839 151.599 93.3264 152.321C92.8975 152.594 92.4453 152.917 91.9668 153.18C90.2162 154.137 88.4832 155.148 86.6947 155.997C85.3118 156.651 83.8734 157.172 82.3504 157.23C81.6736 157.253 80.9967 157.379 80.3227 157.352C79.0682 157.301 77.8136 157.161 76.559 157.08C76.0251 157.042 75.4883 157.08 74.9573 157.035C73.5335 156.923 72.1243 156.715 70.7151 156.436C69.1834 156.129 67.7479 155.407 66.222 155.125C64.8129 154.866 63.392 154.682 61.9624 154.961C61.8894 154.975 61.8165 154.985 61.7436 154.985C60.2002 154.958 58.7239 155.435 57.2534 155.877C56.3198 156.157 55.4241 156.599 54.4263 157.005C54.0616 156.685 53.6269 156.334 53.2243 155.939C52.667 155.394 52.1185 154.839 51.5991 154.246C51.3453 153.953 51.1644 153.575 50.966 153.221C50.7093 152.768 50.6713 152.294 50.8318 151.766C51.2023 150.557 50.683 149.688 49.9449 148.966C49.3585 148.394 48.6436 148.108 47.9113 147.883C47.001 147.604 46.0878 147.335 45.1805 147.035C44.9033 146.943 44.6407 146.783 44.384 146.63C44.1827 146.511 44.028 146.333 44.028 145.942C44.6874 145.404 45.5569 145.26 46.2979 144.692C46.3096 144.572 46.3271 144.412 46.3504 144.167C44.877 143.615 43.4329 143.033 41.8048 142.72C41.8719 143.353 41.9274 143.854 41.9886 144.433C41.7348 144.409 41.5685 144.426 41.4168 144.375C39.9667 143.918 38.5546 143.343 37.1659 142.675C35.7217 141.98 34.3796 141.085 33.1513 139.971C32.2147 139.123 31.3307 138.193 30.3942 137.348C28.5503 135.686 26.6043 134.208 24.4861 133.056C23.9843 132.784 23.4824 132.505 22.9718 132.252C21.3088 131.428 20.0484 130.1 19.1411 128.278C18.6684 127.327 18.1053 126.438 17.6123 125.502C16.8303 124.013 16.0368 122.528 15.3132 120.999C14.365 118.996 13.4518 116.973 12.5736 114.926C11.5466 112.524 10.7151 110.017 9.9332 107.497C9.45764 105.961 9.11043 104.37 8.71656 102.8C8.56776 102.207 8.45688 101.597 8.30225 101.008C8.06009 100.078 8.00759 99.1245 7.99301 98.1572C7.96675 96.5733 7.98425 94.9826 7.84421 93.4124C7.52327 89.7985 7.53788 86.1778 7.60498 82.5537C7.62832 81.3207 7.76253 80.0877 7.92883 78.8546C8.14181 77.2912 8.43941 75.7551 8.73408 74.2155C8.96165 73.0336 9.22714 71.8584 9.52474 70.697C9.92153 69.1574 10.3242 67.6144 10.7997 66.1055C11.4999 63.8779 12.2731 61.6843 13.0054 59.4704C13.6093 57.6515 14.3533 55.911 15.1848 54.2249C16.5153 51.5307 18.0411 48.9931 19.6516 46.5135C21.729 43.3151 24.2002 40.5664 26.6363 37.7733C27.2753 37.041 27.9376 36.3291 28.6086 35.6377C28.8391 35.3993 29.1134 35.1983 29.3964 35.0621C31.0506 34.2616 32.7253 33.5191 34.3679 32.688C36.1652 31.7785 37.9361 30.7908 39.7217 29.8405C40.6466 29.3466 41.5714 28.8527 42.508 28.3895C42.861 28.2157 43.2432 28.1136 43.6196 28.0012C46.0061 27.2859 48.3927 26.5706 50.7852 25.8689C52.1681 25.4636 53.551 25.0446 54.9456 24.704C56.3169 24.3702 57.7027 24.1284 59.1061 24.0092C59.8763 23.9445 60.6436 23.8286 61.4139 23.7435C61.7027 23.7094 61.9945 23.706 62.2833 23.672C63.0273 23.58 63.7713 23.471 64.5153 23.3858C65.1659 23.3109 65.8165 23.2155 66.4672 23.1951C68.0893 23.1406 69.6882 22.7114 71.3191 22.7966C74.1666 22.3334 77.0288 22.4594 79.888 22.5003C80.6378 22.5105 81.3847 22.6127 82.1345 22.6774C82.6159 22.7217 83.0973 22.7693 83.5787 22.8238C84.2994 22.9056 85.02 23.0044 85.7407 23.0861C86.4642 23.1679 87.1878 23.2155 87.9084 23.3177C89.2272 23.5085 90.5401 23.7299 91.8559 23.9342C92.384 24.016 92.9121 24.0739 93.4402 24.1624C94.8756 24.3975 96.314 24.6121 97.7407 24.9016C98.2833 25.0106 98.826 25.232 99.3191 25.5215C100.962 26.4888 102.581 27.5073 104.212 28.5053C104.772 28.8459 105.332 29.1865 105.898 29.5067C106.044 29.5884 106.219 29.5986 106.359 29.5135C107.027 29.1967 107.687 28.8561 108.361 28.5666C109.067 28.2634 109.811 28.3418 110.52 28.495C111.812 28.7743 113.008 29.3874 114.17 30.1027C114.765 30.4706 115.398 30.7601 115.993 31.1314C117.405 32.0034 118.817 32.8753 120.203 33.7984C121.717 34.8066 123.185 35.9068 124.711 36.8945C125.633 37.4906 126.304 38.3728 126.928 39.2959C128.711 41.9322 130.45 44.6094 132.203 47.273C133.087 48.615 133.959 49.9707 134.855 51.3025C135.229 51.8577 135.628 52.389 136.049 52.8999C136.396 53.3257 136.588 53.8094 136.711 54.3748C136.991 55.6623 137.388 56.8953 137.933 58.0773C138.747 59.8416 139.628 61.5719 140.241 63.4589C140.585 64.5148 141.014 65.5333 141.382 66.5789C141.729 67.5735 142.067 68.5715 142.365 69.5866C142.832 71.1874 143.281 72.7985 143.695 74.4199C143.943 75.394 144.191 76.3613 144.533 77.3014C144.941 78.4255 145.706 79.1544 146.49 79.8663C146.654 80.0161 146.887 80.0638 147.097 80.1387C147.342 80.2239 147.544 80.3499 147.628 80.6803C147.24 81.2696 146.528 80.7757 146.079 81.3173C146.079 81.9167 146.021 82.5707 146.091 83.2043C146.248 84.628 146.47 86.045 146.666 87.4653C146.689 87.6322 146.736 87.7957 146.744 87.966C146.806 89.1514 146.919 90.3367 146.899 91.5186C146.864 93.4363 146.736 95.3505 146.438 97.2443C146.097 99.414 145.589 101.529 145.003 103.624C144.355 105.937 143.593 108.192 142.66 110.372C141.641 112.752 140.416 114.97 139.019 117.082C137.484 119.405 135.687 121.418 133.91 123.465C132.221 125.416 130.499 127.327 128.819 129.293C126.899 131.537 125.023 133.833 123.106 136.081C122.353 136.963 121.496 137.716 120.553 138.305C117.881 139.974 115.223 141.677 112.509 143.244C110.82 144.218 109.052 145.015 107.293 145.819C105.992 146.415 104.661 146.94 103.322 147.417C102.237 147.801 101.122 148.074 100.016 148.374C99.287 148.571 98.5547 148.755 97.8165 148.898C97.1251 149.031 96.4307 149.137 95.7305 149.198C94.9719 149.263 94.295 149.474 93.7582 150.336L93.7552 150.332ZM27.1586 128.823C27.4474 129.565 27.9609 130.001 28.3752 130.536C29.0608 131.421 29.5043 132.423 29.5919 133.632C29.6502 134.456 29.9799 134.688 30.683 134.46C30.9806 134.364 31.284 134.279 31.5204 134.208C31.9172 134.405 32.0426 134.746 32.1943 135.069C32.6553 136.054 33.2797 136.881 34.0937 137.46C35.1469 138.206 36.2614 138.826 37.443 139.259C37.5597 139.303 37.6911 139.293 37.9128 139.32C37.7494 139.061 37.6677 138.888 37.551 138.755C36.629 137.678 35.6721 136.643 34.7793 135.536C33.3176 133.724 31.7946 131.99 30.0761 130.515C29.2096 129.769 28.276 129.132 27.1586 128.826V128.823ZM54.7852 148.323C54.9135 148.742 54.9514 149.13 55.1294 149.399C55.9376 150.615 57.0521 151.191 58.3504 151.415C58.3854 151.235 58.4671 151.065 58.4263 150.973C58.1812 150.431 58.0062 149.763 57.6269 149.409C56.8537 148.69 55.9084 148.35 54.7881 148.323H54.7852ZM21.0871 124.708C21.1688 124.882 21.2067 125.079 21.3059 125.151C21.904 125.573 22.5167 125.968 23.1265 126.367C23.1527 126.384 23.2111 126.336 23.287 126.305V125.839C22.6889 125.348 22.0995 124.868 21.5101 124.384C21.3526 124.504 21.2359 124.592 21.0842 124.705L21.0871 124.708Z" fill="#48CE65"/>
<path d="M135.544 127.89L134.312 127.592L133.086 128.146L131.854 128.207L130.615 127.538L129.383 127.95L128.151 127.565L126.919 127.714L125.687 128.153L124.455 128.031L123.223 127.836L121.991 127.613L120.766 128.356L119.534 128.004L118.302 128.167L117.07 127.822L115.838 128.16L114.606 127.646L113.374 128.349L112.142 127.836L110.91 128.261L109.678 128.167L108.446 128.288L107.214 128.194L105.982 128.072L104.75 128.254L104.137 128.207L103.983 128.194L103.875 128.18L103.666 128.153L102.831 128.261L101.997 127.903L101.162 127.782L100.327 127.653L99.4922 127.883L98.6574 127.646L97.8225 127.944L96.9877 127.849H96.1529L95.3181 127.977L94.4833 127.849L93.6485 127.836L92.8137 128.18L91.9789 128.146L91.1441 128.437L90.3093 128.41L89.4745 127.944L88.6397 127.964H87.8049L86.9701 127.788L86.1353 127.748L85.3005 127.95L84.4657 127.896L83.6309 127.984L82.7961 127.741L81.9613 128.194L81.1265 127.721L80.2917 128.153L79.4569 127.782L78.6221 127.815L77.7873 127.7L76.9457 128.187L76.1109 128.031L75.2761 127.95L74.4346 128.444L73.5998 127.741L72.7583 128.126L71.9235 128.261L71.0886 127.782L70.2538 127.937L69.419 127.68L68.5842 127.782L67.7494 127.836L66.9146 128.167L66.0798 128.004L65.245 128.018L64.4102 128.187L63.5754 127.68L62.7406 128.417L61.9058 127.856L61.071 128.281L60.2362 128.133L59.4014 127.815L58.5666 127.856L57.7318 127.687L56.897 128.045L56.0622 128.268L55.2274 127.964L54.3926 128.288L53.5578 128.099L52.723 128.349L51.8882 128.363L51.0534 127.849L50.2186 127.957L49.3838 128.146L48.549 127.721L47.7142 128.004L46.8794 128.086L46.0446 128.207L45.2097 127.782L44.3749 128.004L43.5401 128.288L42.6986 127.849L41.8638 128.349L41.0223 127.944L40.1875 127.754L39.3527 127.876L38.5179 127.815L37.6831 127.869L36.8483 127.741L36.0134 128.119L35.1786 128.336H33.509L32.6742 128.133L31.8327 127.721L30.9979 128.268L30.1631 128.322L29.9544 128.349L29.9073 128.376L29.7928 128.437C29.7659 128.227 29.8063 128.004 29.914 127.795C29.8534 127.89 29.7592 127.971 29.6514 128.025C29.5909 128.031 29.5235 128.025 29.4629 127.998C29.4966 127.917 29.5437 127.849 29.5976 127.802C29.611 127.782 29.6312 127.761 29.6447 127.741C29.6582 127.7 29.6784 127.782 29.6918 127.586L29.2408 126.741L29.4225 125.897L29.2004 125.052L29.4158 124.208L29.3418 123.363L29.4495 122.519L29.3081 121.674L29.9611 120.83L29.1802 119.992L29.2408 119.147L29.2273 118.303L29.9073 117.458L29.3418 116.621L29.5168 115.776L29.8938 114.087V113.243L29.7524 112.405L29.2812 111.567L29.7322 110.723L29.2475 109.885L29.3687 109.04V108.196L29.3081 107.358L29.4629 106.514L29.5101 105.669L29.7457 104.825L29.1869 103.987L29.0792 103.149L29.0927 102.311L29.1331 101.467L29.3889 100.622L29.5505 99.7779L28.9647 98.947L29.5976 98.0957L29.537 97.258L29.335 96.4202L29.0388 95.5825L29.1331 94.738L29.3148 93.8935L29.4091 93.049L29.1533 92.2112L29.5707 91.3667L29.5841 90.5222L28.9715 89.6913L28.8368 88.8535L29.4225 88.0023L29.059 87.1645L28.7426 86.3268L29.4831 85.4755L29.3216 84.6378L29.2946 83.8V82.9623L28.7291 82.1313L29.2812 81.28L29.0725 80.4423L29.362 79.5978L28.6147 78.7736L28.8705 77.9291L29.3283 77.0778L28.6551 76.2536L29.1869 75.4023L29.1533 74.5646L28.9647 73.7268L28.4868 72.8959L29.16 72.0378L28.7089 71.2069L28.9176 70.3624L28.4329 69.5314L28.8772 68.6801L28.9715 67.8356L28.4935 67.0046L28.783 66.1601L28.884 65.3156L28.682 64.4779L28.3992 63.6469L28.3521 62.8092L28.783 61.9579L28.2983 61.1269L28.4194 60.2824L28.3252 59.4447L28.3521 58.6002C28.406 58.4448 28.4598 58.3435 28.5137 58.1543L28.6685 57.5327L28.4464 56.3032L28.3386 55.0668L28.4127 53.8305L28.3992 52.5941L28.1434 51.3645L28.0694 50.1282L28.1905 48.8851L28.002 47.6555L28.3992 46.4056L28.2983 45.1693L28.1636 43.9329L28.3319 42.6898L28.0357 41.4602L28.0088 40.2239L28.0559 38.9876L27.7327 37.758L27.8674 36.5486L27.5914 35.3528L27.7731 34.1435L27.5846 32.9477L27.6452 31.7384L27.3625 30.5291L27.5038 29.2724L26.9316 28.205L26.2853 27.0024L24.9388 27.2254L24.03 28.1172L23.8011 29.367L23.451 30.6574L23.7001 31.8262L23.9627 33.0017L23.5251 34.1908L23.6799 35.3663L23.9492 36.5419L23.5655 37.7309L23.4375 38.9132L23.7472 40.0888L24.0906 41.3116L24.2589 42.5412L24.1646 43.7775L24.0906 45.0139L23.9896 46.2502L24.2723 47.4798L23.6597 48.7229L24.1714 49.9458L23.6934 51.1889L24.4272 52.4049L24.4541 53.6345L23.9223 54.8776L23.9021 56.114L23.8347 57.3503L23.9627 57.9651C24.0031 58.1746 24.0434 58.3908 24.0838 58.5056L23.8886 59.3501L24.2656 60.1811V61.0188L24.6628 61.8498L24.5955 62.6876L24.2993 63.5321L24.508 64.363L24.3935 65.2008L24.6157 66.0318L24.2521 66.8763L24.5686 67.7073L24.4003 68.545L24.1781 69.3895L24.4608 70.2205L24.1108 71.065L24.7975 71.8892L24.4205 72.7337L24.6696 73.5647L24.3397 74.4092L24.7234 75.2402L24.3935 76.0847L24.7234 76.9157L24.4339 77.7602L24.2723 78.5979L24.7436 79.4289L24.3195 80.2734L24.2252 81.1111L24.3868 81.9489L24.4541 82.7866L24.7907 83.6176L24.2723 84.4621L25.0062 85.2863L24.3397 86.1308L25.0331 86.9551L24.7099 87.7996L24.5282 88.6373L24.4608 89.4751L24.9186 90.306L24.3464 91.1505L24.8244 91.9815L25.1139 92.8125L24.9052 93.6503L24.4205 94.4948L24.481 95.3325L25.0129 96.1635L24.481 97.008L24.4474 97.8457L24.9321 98.6767L24.6426 99.5145L24.4743 100.352L24.7369 101.183L25.0331 102.014L24.4878 102.859L24.8715 103.69L24.5686 104.527L24.8379 105.365L24.5484 106.203L24.8311 107.041L25.1273 107.878L25.1677 108.716L25.0802 109.554V110.392L24.609 111.229L24.8109 112.067L24.7638 112.905L24.582 113.743L24.8311 114.58L24.7773 115.418L24.7975 116.256L24.8244 117.094L24.9119 117.931V118.769L25.0331 119.607L25.2014 120.445L24.6292 121.282L24.7099 122.12L25.2822 122.958L25.0331 123.795L24.609 124.633L24.5282 125.471L24.9321 126.309L25.1139 127.146L24.9994 127.565L24.9725 127.667L24.9456 127.856L24.885 128.254C24.9186 128.775 24.986 129.275 25.161 129.714C25.2216 130.207 25.3697 130.693 25.6053 131.139C25.9285 131.518 26.319 131.835 26.7498 132.078C27.1201 132.403 27.5577 132.639 28.0222 132.815C28.5137 132.93 29.0523 132.916 29.5909 132.903L30.6142 132.916L31.449 132.45L32.2838 132.538L33.1186 132.497L33.9534 133.024L34.7882 132.727L35.623 132.511L36.4578 132.653L37.2926 132.774L38.1274 132.99L38.9622 133.092L39.797 132.815L40.6318 132.916L41.4666 132.707L42.3014 132.93L43.1362 132.99L43.971 133.098L44.8058 132.572H45.6406L46.4754 132.538L47.3102 132.977L48.145 132.713L48.9798 132.923L49.8146 132.95L50.6494 133.071L51.4842 132.72L52.319 132.842L53.1538 132.936L53.9886 132.659L54.8234 132.774L55.6583 132.362L56.4931 132.761L57.3279 132.923L58.1627 132.896L58.9975 133.078L59.8323 133.017L60.6671 132.288L61.5019 132.612L62.3367 132.565L63.1715 132.936L64.0063 132.565L64.8411 132.774L65.6759 132.903L66.5107 132.335L67.3455 132.416L68.1736 132.49L69.0016 132.592L69.8297 132.896L70.6578 132.47L71.4859 132.355L72.3139 132.889L73.142 132.524L73.9701 132.328L74.7981 132.747L75.6262 132.538L76.4543 132.234L77.2824 132.909L78.1104 132.457L78.9385 132.673L79.7666 132.74L80.5946 132.267L81.4227 132.72L82.2508 132.7L83.0788 132.227L83.9069 132.166L84.735 132.234L85.5631 132.849L86.3911 132.565L87.2192 132.551L88.0473 132.511L88.8753 132.754L89.7034 132.234L90.5315 132.788L91.3596 132.7L92.1876 132.213L93.0157 132.132L93.8438 132.585L94.6718 132.626L95.4999 132.416L96.328 132.646L97.1561 132.538L97.9841 132.47L98.8122 132.538L99.6403 132.335L100.468 131.99L101.296 132.227L102.124 132.659L102.953 132.544L103.781 132.673L104.205 132.619L104.817 132.565L106.036 132.369L107.254 132.349L108.486 132.572L109.712 132.538L110.937 132.2L112.169 132.45L113.394 131.903L114.626 132.024L115.858 132.551L117.084 132.159L118.316 132.281L119.541 131.842H120.766L121.998 131.943L123.23 132.207L124.455 131.754L125.687 132.119L126.913 132.139L128.145 132.396L129.363 131.768L130.595 132.227L131.821 132.065L133.046 131.693L134.285 132.261L135.51 132.024L136.695 132.247L137.826 131.815L138.795 131.126L138.863 129.991L138.91 128.93L137.954 128.342L136.883 128.059L135.732 127.842L135.544 127.89Z" fill="#1B8533"/>
<path d="M126.617 122.836C126.617 122.877 126.637 122.904 126.664 122.924L126.987 123.255L127.593 123.383L128.151 123.579L128.333 124.221L128.791 124.532L129.444 124.62L129.734 125.126L130.279 125.343L130.461 125.964L130.979 126.214L131.551 126.403L131.699 127.038L132.083 127.424L132.602 127.66L132.817 128.2L133.524 128.254L133.497 128.984L134.237 129.004C134.224 129.133 134.17 129.2 134.116 129.281C134.197 129.281 134.278 129.288 134.372 129.308C134.372 129.356 134.352 129.41 134.332 129.45C134.379 129.484 134.439 129.518 134.48 129.565C134.372 129.599 134.285 129.619 134.143 129.612H134.062C134.062 129.612 134.083 129.66 134.083 129.687C134.204 129.754 134.312 129.849 134.392 129.95C134.204 129.91 134.062 129.835 133.901 129.768C133.948 129.869 133.982 129.984 133.995 130.112C133.834 130.126 133.625 130.18 133.443 130.207C133.403 130.43 133.356 130.66 133.302 130.876L132.979 131.328C132.75 131.308 132.514 131.268 132.285 131.241L132.009 131.774L131.47 131.903L130.918 131.991L130.535 132.369L130.299 133.058C130.111 133.078 129.909 133.078 129.713 133.085L129.175 133.186C129 133.234 128.831 133.281 128.656 133.315L128.232 133.673L127.68 133.713L127.371 134.402L126.765 134.288C126.617 134.45 126.475 134.619 126.314 134.767L125.607 134.443L125.122 134.835C124.981 135.031 124.826 135.2 124.671 135.382C124.671 135.382 124.28 135.314 124.078 135.456C123.876 135.598 123.627 136.139 123.897 137.449C124.146 138.665 124.644 138.598 124.644 138.598L125.243 138.429L125.883 138.402L126.462 138.22L126.946 137.74C127.169 137.774 127.391 137.814 127.613 137.834L128.125 137.47L128.798 137.551C128.986 137.476 129.168 137.389 129.35 137.294L129.962 137.172L130.36 136.558L131.12 136.754L131.457 136.051C131.699 136.091 131.942 136.112 132.184 136.139L132.77 135.929C132.958 135.841 133.14 135.747 133.322 135.652L133.564 134.862C133.773 134.815 133.982 134.761 134.184 134.7L134.83 134.565C134.985 134.429 135.133 134.274 135.281 134.132L135.873 133.896L136.176 133.267C136.291 133.22 136.358 133.213 136.506 133.132L136.924 132.903C137.159 132.693 137.388 132.504 137.624 132.268C137.779 131.991 137.947 131.734 138.061 131.47C138.398 131.308 138.748 131.119 139.105 130.916L139.428 130.47C139.394 130.356 139.341 130.234 139.28 130.112C139.159 129.822 139.044 129.511 138.916 129.234L138.587 128.383C138.452 128.099 138.29 127.815 138.142 127.525C137.981 127.241 137.826 126.951 137.624 126.68L137.449 126.498L137.307 126.356L137.078 126.14C136.944 125.978 136.802 125.843 136.661 125.694L136.264 125.241L136.082 124.593L135.416 124.417L135.119 123.883L134.857 123.316L134.278 123.086L133.652 122.91L133.463 122.302L132.918 122.086L132.729 121.478L132.359 121.073L131.868 120.803L131.295 120.634L131.228 119.87L130.858 119.499L130.137 119.56L130.104 119.451C130.09 119.397 130.043 119.377 130.03 119.31C130.003 119.147 129.848 119.134 129.74 119.073C129.68 119.039 129.626 118.985 129.545 118.972C129.464 118.958 129.343 118.992 129.161 119.12C129.074 119.181 128.973 119.269 128.872 119.364C128.737 119.485 128.603 119.614 128.454 119.769C128.306 119.931 128.151 120.114 128.003 120.303C127.552 120.87 127.148 121.465 126.893 121.938C126.711 122.275 126.61 122.539 126.569 122.735C126.556 122.789 126.556 122.823 126.563 122.856L126.617 122.836Z" fill="#1B8533"/>
<path d="M18.4816 37.7647C18.522 37.7647 18.549 37.7445 18.5759 37.7242L18.9394 37.4202L19.1347 36.8121L19.3838 36.2581L20.0435 36.1163L20.4003 35.6704L20.5417 35.0083L21.0736 34.738L21.3294 34.1908L21.969 34.0287L22.2517 33.5085L22.4739 32.9274L23.1269 32.772L23.5308 32.3734L23.7867 31.8262L24.3455 31.583L24.406 30.8398L24.7898 30.8196C24.884 30.8466 24.9379 30.9142 25.0052 30.9682C24.8975 30.8128 24.8234 30.6304 24.7696 30.421C24.8504 30.4615 24.9244 30.5223 24.9783 30.5899C24.9783 30.4953 24.9985 30.3939 25.0187 30.2791C25.0591 30.2858 25.0995 30.2994 25.1264 30.3196L25.2139 30.1305C25.2341 30.3399 25.2341 30.5291 25.2207 30.698C25.2408 30.6844 25.261 30.6777 25.288 30.6777C25.3553 30.5426 25.4361 30.4345 25.5303 30.3399C25.4899 30.5358 25.4294 30.7115 25.3486 30.8601C25.4294 30.7858 25.5236 30.7317 25.6313 30.698C25.5573 30.7385 25.6313 30.9952 25.6784 31.1911L26.3786 31.3668L26.8633 31.7114L26.8499 32.441L27.4288 32.7112L27.6443 33.2652L27.826 33.8395L28.2906 34.1976L29.0244 34.3462L29.186 34.9407L29.4283 35.4744L29.6976 35.9879L30.1756 36.3325L30.3843 36.8932L31.1585 37.0148L31.2595 37.6566L31.8721 37.9539L31.8385 38.7579L32.3973 39.0957L33.1042 39.3254C33.1042 39.3254 33.2119 39.724 33.4273 39.8591C33.6427 39.9942 34.2419 40.0077 35.2989 39.1902C36.2818 38.4336 36.0327 38.035 36.0327 38.035L35.649 37.5823L35.3864 37.0351L35.0296 36.5892L34.4304 36.3325L34.3092 35.7041L33.8245 35.3528L33.7101 34.711L33.3331 34.2786L33.0772 33.7517L32.3973 33.549L32.4444 32.7856L31.7106 32.6302L31.6904 31.9208L31.4144 31.4073L31.0912 30.9344L30.3035 30.8196L30.1083 30.2453L29.9534 29.644L29.5293 29.2454L29.3004 28.6982L28.708 28.4347C28.6137 28.205 28.432 27.8604 28.2838 27.5632L27.6712 26.7795C27.4221 26.5971 27.1865 26.4282 26.9576 26.2728C26.8229 25.8742 26.6681 25.4621 26.4998 25.0162L25.8602 24.3271L25.5707 23.969L25.1937 24.3676L24.4868 25.05L23.753 25.658L23.0192 26.3066L22.346 27.0903L21.6795 27.7794L21.2755 28.1645L20.6494 28.3334L20.5013 28.9819L19.9829 29.2522L19.4309 29.4886L19.202 30.0494L19.0202 30.6574L18.4143 30.8061L18.1854 31.3263L17.5795 31.4681L17.1621 31.8059L16.8726 32.2653L16.6707 32.8126H15.9166L15.5262 33.1369V33.853L15.4184 33.8733C15.3646 33.8868 15.3377 33.9273 15.2771 33.9273C15.1155 33.9341 15.0953 34.0827 15.0212 34.1841C14.9808 34.2449 14.927 34.2854 14.9068 34.3665C14.8866 34.4475 14.9068 34.5691 15.0212 34.7583C15.0751 34.8529 15.1492 34.961 15.2299 35.0691C15.3377 35.211 15.4521 35.3663 15.5868 35.5217C15.7349 35.6906 15.8964 35.8595 16.0647 36.0284C16.5764 36.5419 17.1284 37.0013 17.566 37.3053C17.8825 37.5215 18.1383 37.6499 18.3335 37.7039C18.3874 37.7174 18.421 37.7242 18.4547 37.7242L18.4816 37.7647Z" fill="#1B8533"/>
<path d="M109.374 118.424V116.465L109.045 114.526L108.782 112.581L109.098 110.615L108.984 108.662L108.567 106.723L108.701 104.764L108.445 102.818L108.721 100.852L108.493 98.9064L108.183 96.9607L108.472 94.9947L108.412 93.0422L108.149 91.0965L108.304 89.1305L107.752 87.1983L108.183 85.212L107.543 83.2798L107.705 81.2868L107.395 79.3478L107.382 77.3953L107.186 75.4564L107.415 73.4836L107.234 71.5447L106.722 69.6259L107.072 67.6464L106.641 65.721L106.803 63.7618L106.257 61.8431L105.988 59.9108L106.358 57.9381L105.981 56.0126L106.069 54.0602L106.204 52.1077L105.995 50.1755L105.463 48.2568C105.53 47.6149 105.591 46.9596 105.672 46.3245L105.739 45.3652L105.8 44.6558C105.806 44.595 105.813 44.4599 105.82 44.4734C105.853 44.3586 105.894 44.2707 105.988 44.2302C105.995 44.1153 106.076 44.0275 106.19 43.9802C106.143 44.014 106.581 44.0208 106.877 44.041L107.833 44.0951L109.725 43.5141L111.637 43.8181L113.542 43.5411C114.175 43.7302 114.801 43.9262 115.413 44.1356L116.591 44.068C116.591 44.068 116.686 44.068 116.692 44.068L116.726 44.0545L116.834 44.0072C116.921 43.9464 117.029 43.8856 117.164 43.8316C117.292 43.7775 117.487 43.7032 117.588 43.7775C117.433 44.1491 117.265 44.3923 117.103 44.5139C117.117 44.5004 117.137 44.6018 117.157 44.6828L117.218 44.9261L117.332 45.4125L117.561 46.3786V48.3311L117.426 50.2903L117.541 52.2428L117.507 54.202L117.608 56.1545L118.019 58.0935L117.823 60.0595L118.086 62.0052L117.877 63.9712L118.005 65.9237L117.978 67.8829L118.483 69.8151L118.079 71.7879L118.658 73.7201L118.335 75.6861V77.6386L118.389 79.591L119.029 81.5232L118.921 83.4825L118.759 85.4417L118.934 87.3874L118.86 89.3467L119.244 91.2857L119.123 93.2449L119.204 95.1974L119.533 97.1431L119.204 99.1091L119.358 101.17L119.453 103.237L119.507 105.304L119.486 107.372L119.507 109.439L119.661 111.506L119.756 113.574L119.83 115.641L119.594 117.695L120.038 119.512L120.631 121.188L122.119 122.019L123.007 120.404L122.879 118.607L123.135 116.81L122.866 115.019L123.135 113.216V111.418L122.953 109.466L122.657 107.514L123.149 105.548L123.135 103.588L122.583 101.636L122.866 99.6766L123.014 97.7174L122.725 95.7649L122.624 93.8056L122.408 91.8532L122.684 89.8872L122.475 87.9347L122.657 85.9687L122.617 84.0095L122.435 82.057L122.132 80.1045L122.26 78.1453L122.139 76.1928L122.489 74.2268L121.897 72.2811L121.796 70.3286L122.038 68.3626L122.098 66.4033L122.038 64.4441L121.641 62.4984L121.755 60.5391L121.486 58.5867L121.937 56.6207L121.836 54.6682L121.715 52.7157L121.775 50.7565L121.721 48.7972L121.385 46.8515L121.344 44.8923L121.297 44.4058L121.237 43.5681C121.19 43.0209 121.19 42.4331 121.021 41.9737C120.981 41.717 120.914 41.494 120.84 41.2846C120.765 41.0751 120.604 40.8387 120.429 40.663C120.274 40.4739 120.032 40.4131 119.816 40.2914L119.15 39.9536C118.591 39.8726 117.978 39.8726 117.413 39.832L116.995 39.8185H116.74L116.235 39.8253C115.568 39.7239 114.902 39.6226 114.235 39.5348C113.569 39.555 112.902 39.5753 112.236 39.6091L110.25 39.8726L108.257 39.4064L106.264 39.5145H105.995C105.847 39.528 105.692 39.528 105.544 39.5483L104.648 39.6361C104.069 39.7375 103.517 39.9604 103.039 40.2982C102.117 41.0211 101.545 42.1291 101.471 43.2844C101.464 43.5816 101.471 43.8789 101.491 44.1694V44.3923L101.511 44.5342L101.538 44.7909C101.565 45.1355 101.612 45.4665 101.646 45.7976L101.336 47.7906L101.632 49.7633L101.484 51.7361L101.962 53.7359L101.7 55.7559L101.747 57.7692L102.231 59.7622L102.319 61.7687L102.05 63.7888L102.501 65.775L102.588 67.7816L102.238 69.8084L102.635 71.7946L102.393 73.8147L102.555 75.8144L102.669 77.8142L103.087 79.8005L103.302 81.7867L103.026 83.7798L103.302 85.7593V87.6374L103.76 89.5021L103.841 91.3802L103.538 93.2719L103.793 95.1501L103.457 97.0418L103.881 98.9132L103.544 100.805L104.063 102.676L103.948 104.561L104.143 106.439L104.056 108.324L104.366 110.162L104.258 112.013L104.042 113.864L104.46 115.702L104.473 117.58L104.453 119.593L105.773 120.735L107.281 121.12L108.647 120.282L109.361 118.404L109.374 118.424Z" fill="#1B8533"/>
<path d="M83.7245 119.087L83.7716 117.6L83.4754 116.127L83.26 114.655L83.6235 113.168L83.5495 111.689L83.1792 110.216L83.361 108.73L83.1523 107.25L83.4822 105.764L83.3071 104.284L83.0513 102.805L83.3946 101.318V99.8388L83.1859 98.3592L83.4014 96.8797L82.9166 95.4001L83.4216 93.9205L82.8628 92.441L83.1186 90.9614L82.9301 89.4683L83.0378 87.9685L82.957 86.4754L83.2802 84.9756L83.1927 83.4825L82.7685 82.003L83.1994 80.5031L82.8426 79.0303L83.0715 77.5373L82.5935 76.0712L82.3915 74.5984L82.8224 73.1053L82.5127 71.6393L82.6675 70.1665L82.8695 68.7004L82.7349 67.2547L82.4992 66.6128L82.3848 66.2818L82.3242 66.1129C82.304 66.0656 82.2838 66.0656 82.2636 66.0318C82.3511 65.8899 82.4319 65.7886 82.5127 65.7346C82.5396 65.7008 82.5598 65.6467 82.6406 65.667C82.7079 65.6805 82.7753 65.7075 82.8291 65.7278L82.9772 65.7751L83.0378 65.7954C83.0378 65.7954 83.0715 65.8021 83.1186 65.8021H83.2465C83.5158 65.7413 84.1015 65.6602 84.5526 65.5859L86.0135 65.7143L87.4475 65.1468L88.9016 65.4508L90.3491 65.1603C90.8271 65.3427 91.3051 65.5319 91.7696 65.721C92.2476 65.667 92.7188 65.6129 93.1968 65.5657C93.3382 65.5184 93.3248 65.4643 93.4123 65.417C93.4796 65.3697 93.5536 65.3224 93.6412 65.2751L93.796 65.2008C93.8297 65.2954 93.8499 65.3765 93.8364 65.4711C93.8297 65.5724 93.7489 65.7143 93.6614 65.8089C93.7893 65.8021 93.9239 65.8629 94.0653 65.998C94.0653 66.0521 94.0586 66.0251 94.0586 66.1872V67.3019L93.9105 68.795L94.0114 70.2746L93.9643 71.7609L94.0518 73.2405L94.449 74.7133L94.2403 76.2063L94.4894 77.6791L94.2673 79.1722L94.3884 80.6518L94.3481 82.1381L94.8395 83.6041L94.4221 85.104L94.9876 86.57L94.6577 88.0699L94.6443 89.5562L94.6914 91.0425L95.3175 92.5085L95.1963 94.0016L95.0347 95.5014L95.2098 96.981L95.1425 98.4741L95.5397 99.9469L95.432 101.447L95.5397 102.933L95.8965 104.406L95.6003 105.919L95.7955 107.487L95.9369 109.054L96.0379 110.621L96.0648 112.195L96.1321 113.763L96.3274 115.324L96.4553 116.884L96.5562 118.445L96.3341 120.005L96.7851 121.363L97.3641 122.62L98.8452 123.235L99.7406 121.992L99.6127 120.62L99.8618 119.242L99.579 117.884L99.8214 116.499L99.781 115.128L99.5656 113.648L99.229 112.175L99.6733 110.662L99.6127 109.176L99.0203 107.723L99.2626 106.223L99.3771 104.737L99.0539 103.271L98.926 101.791L98.6971 100.318L98.9597 98.8254L98.7442 97.3458L98.9193 95.8528L98.8789 94.3664L98.7038 92.8869L98.4076 91.4073L98.549 89.9142L98.4413 88.4279L98.8048 86.9281L98.2259 85.4553L98.1316 83.969L98.3874 82.4759L98.4615 80.9828L98.4144 79.4965L98.0306 78.0169L98.1585 76.5239L97.9027 75.0443L98.3605 73.5445L98.273 72.0582L98.1653 70.5718L98.2393 69.0788L98.1989 67.5925L97.8758 66.1129L97.8488 64.9576C97.8286 64.532 97.8488 64.0726 97.7681 63.674C97.6603 63.2889 97.5122 62.9781 97.3305 62.7011C97.2295 62.5592 97.0881 62.4106 96.94 62.2958C96.8659 62.2417 96.7851 62.1877 96.7111 62.1539L96.4418 62.0728C96.1119 61.9174 95.8022 61.7147 95.432 61.5661L94.2067 61.3094C93.9845 61.3026 93.7556 61.2959 93.5469 61.2959L93.1497 61.3094L92.3755 61.3499L90.854 61.0999L89.3325 61.2013L87.8177 61.4715L86.303 60.9918L84.7949 61.0662H83.2802L82.304 61.208C81.8597 61.2688 81.3951 61.3026 80.9845 61.3905C80.594 61.5121 80.1497 61.5661 79.8535 61.762C79.5505 61.9444 79.2812 62.1133 79.0658 62.4579C78.8234 62.7079 78.6349 62.9646 78.4868 63.3227L78.2242 64.5658V65.2481L78.2377 65.5859C78.2377 65.694 78.2579 65.7413 78.2646 65.8224L78.3791 66.6804L78.1636 68.2478L78.5676 69.7881L78.2377 71.3285L78.2175 72.8621L78.6416 74.3822L78.6618 75.9091L78.3252 77.4427L78.709 78.956L78.7224 80.4761L78.2916 82.003L78.6012 83.5163L78.2646 85.0364L78.3252 86.543V88.0496L78.6214 89.5494L78.7157 91.0628L78.3454 92.5829L78.5407 94.1097L78.4801 95.5487L78.8638 96.9878L78.884 98.4268L78.5272 99.8591L78.7292 101.298L78.3387 102.73L78.709 104.169L78.3185 105.608L78.7897 107.041L78.6282 108.48L78.7763 109.912L78.6416 111.351L78.9109 112.756L78.7561 114.161L78.5003 115.573L78.8773 116.979L78.8503 118.411L78.7897 119.945L80.0891 120.816L81.5836 121.113L82.9638 120.478L83.7178 119.06L83.7245 119.087Z" fill="#1B8533"/>
<path d="M59.8046 118.857L59.845 117.688L59.5353 116.533L59.3064 115.378L59.6565 114.202L59.5757 113.04L59.192 111.885L59.3603 110.716L59.1381 109.561L59.4545 108.392L59.2728 107.237L59.0102 106.081L59.3468 104.913V103.75L59.1246 102.595L59.3333 101.426L58.8419 100.278L59.3468 99.1024L58.788 97.9538L59.0439 96.7851L58.8486 95.6298L58.9496 94.4678L58.8688 93.3057L59.2054 92.1369L59.1314 90.9749L58.7274 89.8196L59.1852 88.6509L58.8621 87.4956L59.1246 86.3335L58.6803 85.1783L58.512 84.023L58.9833 82.8677L58.7072 81.7125L58.889 80.5572L59.1246 79.4154L59.0641 78.8412C59.0641 78.8006 59.0573 78.7263 59.0506 78.7195L59.0304 78.6858L58.9967 78.6452C58.8419 78.5574 58.687 78.4088 58.5322 78.1791C58.5793 78.1453 58.6063 78.1115 58.6669 78.098C58.7342 78.0845 58.8284 78.1318 58.9025 78.1588C59.0237 78.1926 59.1314 78.2264 59.2122 78.2669C59.2593 78.2804 59.2728 78.2939 59.3333 78.3074H59.8921L60.9828 78.0439C61.3598 78.071 61.73 78.1115 62.1003 78.152C62.4571 77.9494 62.8139 77.767 63.1775 77.571L64.2816 77.875C64.6451 77.7805 65.0154 77.6724 65.3789 77.5913C65.7357 77.7805 66.0926 77.9629 66.4359 78.1723C66.7927 78.125 67.1563 78.0777 67.5131 78.0507L68.0651 77.9088L68.3411 77.848L68.4825 77.821L68.5431 77.7805C68.6037 77.9088 68.6441 78.0372 68.6441 78.1588C68.6441 78.2129 68.6374 78.2669 68.6239 78.3209C68.7653 78.2128 68.9942 78.1183 69.1558 78.152C69.1558 78.2872 69.1221 78.4155 69.1086 78.5304C69.075 78.5912 69.0413 78.652 69.0076 78.6993C68.974 78.8479 68.9403 79.0776 68.9134 79.26L68.974 80.4288L68.8865 81.5976L68.9403 82.7664L69.3039 83.9284L69.0615 85.0972L69.2769 86.2592L69.0278 87.4348L69.1154 88.6036L69.048 89.7723L69.5193 90.9276L69.075 92.1099L69.6203 93.2652L69.2702 94.4475L69.2433 95.623L69.2837 96.7986L69.9165 97.9471L69.7953 99.1226L69.6203 100.298L69.7819 101.453L69.6943 102.622L70.0713 103.764L69.9434 104.933L70.0175 106.095L70.3406 107.243L70.004 108.426L70.1521 109.648L70.2464 110.878L70.2935 112.108L70.2666 113.337L70.28 114.567L70.4214 115.79L70.5022 117.019L70.5561 118.249L70.3002 119.472L70.7176 120.546L71.2764 121.539L72.7441 122.032L73.6664 121.059L73.5654 119.985L73.8414 118.904L73.5923 117.837L73.8751 116.756V115.682L73.7135 114.52L73.424 113.358L73.9222 112.168L73.9087 111L73.3634 109.851L73.6529 108.669L73.801 107.493L73.5115 106.338L73.4106 105.169L73.2018 104.007L73.4846 102.825L73.2894 101.663L73.4846 100.487L73.4577 99.3186L73.2961 98.1565L72.9931 97.0148L73.1413 95.8527L73.047 94.6975L73.4307 93.5287L72.872 92.3802L72.8046 91.2181L73.0874 90.0493L73.1884 88.8873L73.1682 87.7253L72.8181 86.5633L72.9797 85.3945L72.7575 84.2324L73.2557 83.0636L73.2086 81.9016L73.1413 80.7396L73.2557 79.5776V78.1993L73.1009 77.1724C73.0201 76.8549 72.8854 76.5847 72.7912 76.3009C72.6835 75.7266 72.2391 75.1591 71.7477 74.8551L70.6503 74.4903L69.8828 74.3822C69.7347 74.3214 69.5799 74.2674 69.4116 74.2201C69.2635 74.1728 69.048 74.112 68.9807 74.0782C68.7787 73.9971 68.5768 73.916 68.3748 73.8417C67.9507 73.8485 67.5265 73.8417 67.1091 73.8687C66.7052 73.7742 66.2945 73.6728 65.8839 73.5918C65.4665 73.612 65.0558 73.639 64.6451 73.6728C64.2344 73.7539 63.8305 73.8485 63.4266 73.9431C63.0159 73.7742 62.612 73.6323 62.1946 73.4769L60.976 73.5782L59.7575 73.6255L59.165 73.7674L58.8688 73.8417L58.3908 73.9431C57.7176 74.112 57.0309 74.2403 56.4856 74.4903L56.0076 74.5781L55.5969 74.7268C55.4623 74.7741 55.3344 74.8551 55.1997 74.9565C55.0785 75.0713 54.9506 75.1389 54.917 75.301C54.8631 76.0036 54.8227 76.6725 54.7891 77.3211C54.715 77.6318 54.5871 77.9088 54.54 78.2601C54.4928 78.6587 54.4592 78.8006 54.4188 79.0033L54.7958 80.2261L54.4322 81.4287L54.3784 82.6313L54.7621 83.8338L54.7419 85.0296L54.3649 86.2255L54.7083 87.4213L54.6881 88.6171L54.2303 89.8196L54.513 91.0155L54.1562 92.2113L54.2033 93.4071V94.6029L54.513 95.7987L54.614 96.9945L54.2437 98.1903L54.439 99.3861L54.3851 100.514L54.7689 101.636L54.7958 102.764L54.4457 103.892L54.6544 105.014L54.2707 106.142L54.6544 107.264L54.2707 108.392L54.7554 109.507L54.6005 110.635L54.7554 111.756L54.6275 112.885L54.9035 113.979L54.7621 115.08L54.513 116.188L54.9035 117.283L54.89 118.404L54.8429 119.607L56.149 120.276L57.6503 120.492L59.0237 119.985L59.7642 118.864L59.8046 118.857Z" fill="#1B8533"/>
<path d="M51.343 121.546L51.4103 120.647L51.1275 119.749L50.9256 118.85L51.3026 117.952L51.2487 117.053L50.8919 116.154L51.0871 115.256L50.8919 114.357L51.2352 113.459L51.0737 112.56L50.8313 111.662L51.1949 110.763L51.2083 109.865L51.0198 108.966L51.2554 108.068L50.7842 107.176L51.3093 106.27L50.7707 105.379L51.0467 104.48L50.865 103.582L50.9794 102.683L50.9121 101.784L51.2622 100.879L51.2083 99.9806L50.8178 99.0888L51.2891 98.1835L50.9727 97.2917L51.242 96.3864L50.8044 95.5014L50.6361 94.6096L51.1006 93.6975L50.8178 92.8058L50.9054 92.3531L50.9525 92.1302C50.966 92.0491 50.9794 92.0085 50.9996 91.8532L51.1006 91.0897C51.1275 90.7925 51.1343 90.502 51.1006 90.2182C50.9323 89.7115 50.663 89.2386 50.3062 88.84C49.8551 88.5157 49.3502 88.2995 48.8318 88.2184C48.4548 87.9347 47.997 87.705 47.5123 87.4955L46.9333 87.2726L46.4486 87.0969C46.1187 86.9956 45.7956 86.9078 45.4657 86.8267C45.1291 86.8335 44.7925 86.847 44.4558 86.874C44.1327 86.7794 43.8095 86.7051 43.4864 86.6173C43.1498 86.7862 42.8266 86.9483 42.5035 87.1172C42.1871 87.0091 41.8639 86.8943 41.5408 86.7997C41.2243 86.9078 40.9079 87.0159 40.5982 87.1375C40.2751 86.9821 39.9452 86.82 39.6153 86.6781C39.3056 86.7794 38.996 86.874 38.6863 86.9889L37.8043 87.5023C37.5754 87.3739 36.9089 87.2591 36.3434 87.2118C35.8789 87.4685 35.475 87.7928 35.1653 88.1779C34.7546 88.4414 34.3978 88.7927 34.1218 89.1913C33.8054 89.5696 33.5495 90.0155 33.4014 90.5087C33.361 90.7654 33.3543 91.0289 33.361 91.2924L33.3947 92.0356L33.3072 92.9341L33.3543 93.8259L33.7111 94.7177L33.462 95.6162L33.6707 96.508L33.4082 97.4066L33.4822 98.2984L33.4014 99.1969L33.8525 100.089L33.388 100.987L33.9064 101.879L33.5293 102.778L33.4688 103.676V104.575L34.0477 105.466L33.8794 106.365L33.664 107.264L33.7852 108.155L33.6573 109.054L33.9871 109.946L33.8121 110.844L33.839 111.736L34.1218 112.635L33.738 113.526L33.8323 114.472L33.8727 115.418V116.364L33.7852 117.31L33.738 118.256L33.8188 119.201L33.839 120.147L33.8256 121.093L33.5024 122.012L33.8525 122.856L34.3507 123.647L35.7847 124.113L36.7608 123.424L36.7272 122.586L37.0705 121.769L36.882 120.931L37.2254 120.107L37.286 119.276L37.1782 118.37L36.9493 117.465L37.5014 116.573L37.5418 115.675L37.0436 114.763L37.3802 113.864L37.5822 112.966L37.3398 112.06L37.286 111.162L37.1244 110.263L37.4543 109.365L37.2994 108.466L37.5351 107.568L37.5485 106.669L37.4273 105.77L37.1782 104.872L37.3667 103.973L37.3062 103.075L37.7168 102.176L37.185 101.278L37.1378 100.379L37.4408 99.4807L37.562 98.5821V97.6836L37.2186 96.785L37.3869 95.8865L37.1715 94.9879L37.6764 94.0826L37.6293 93.1841L37.562 92.2855L37.5889 92.0626L37.6024 91.9477C37.6024 91.9477 37.6158 91.9275 37.6158 91.9207C37.636 91.8937 37.6562 91.8667 37.6764 91.8532C37.6764 91.8059 37.6899 91.7586 37.7101 91.718C37.6428 91.6302 37.5956 91.5154 37.5889 91.3938C37.6562 91.3465 37.7303 91.3194 37.8043 91.3127C37.8649 91.2519 37.9053 91.2046 38.0198 91.1438C38.316 91.1978 38.6055 91.2654 38.895 91.333C39.171 91.2451 39.4403 91.1641 39.7163 91.0897C39.9991 91.1303 40.2818 91.1708 40.5646 91.2249C40.8406 91.1708 41.1166 91.1168 41.3927 91.0695C41.6687 90.9749 41.9447 90.8803 42.2207 90.7925C42.4967 90.9614 42.766 91.137 43.0286 91.3194C43.2979 91.3194 43.5672 91.3329 43.8297 91.3397C44.0923 91.387 44.3549 91.4208 44.6107 91.4816C44.88 91.4546 45.1425 91.441 45.4051 91.4275C45.6744 91.4005 45.9369 91.3735 46.2062 91.36C46.2803 91.4073 46.287 91.4343 46.2938 91.4681C46.3005 91.5018 46.3072 91.5289 46.3139 91.5627C46.3207 91.6235 46.3207 91.6843 46.3139 91.7383C46.3947 91.6775 46.5092 91.6235 46.6304 91.6099C46.6236 91.7113 46.5832 91.8059 46.5226 91.8802C46.6371 91.8667 46.7314 91.8802 46.8391 91.9275L46.9266 91.9883C46.8121 92.0356 46.691 92.4409 46.5765 92.7314L46.5294 93.6503L46.9199 94.5623L46.8997 95.4811L46.5226 96.4067L46.8593 97.3188L46.8256 98.2376L46.3543 99.1631L46.6236 100.075L46.2534 100.994L46.287 101.913L46.2736 102.832L46.563 103.744L46.6506 104.663L46.2668 105.581L46.4419 106.5L46.3678 107.365L46.7314 108.23V109.094L46.3611 109.959L46.5496 110.824L46.1456 111.689L46.5025 112.554L46.0985 113.418L46.5563 114.283L46.3813 115.148L46.5159 116.013L46.3611 116.877L46.6169 117.722L46.4486 118.566L46.1726 119.411L46.5361 120.262L46.4957 121.12L46.4149 122.046L47.7008 122.593L49.1954 122.802L50.5822 122.444L51.3497 121.6L51.343 121.546Z" fill="#1B8533"/>
<path d="M84.3805 42.526C84.3723 42.4068 84.355 42.3379 84.3598 42.2562C84.3652 42.0615 84.4008 42.0297 84.5996 42.0274C84.8228 42.028 85.0402 41.8685 85.2673 41.9569C85.2938 41.9755 85.4115 41.8454 85.4273 41.7856C85.4455 41.6849 85.413 41.5628 85.4027 41.428C85.5885 41.3882 85.7588 41.3517 85.9446 41.3119C85.9407 41.224 85.9322 41.1613 85.9237 41.0986C85.9227 40.8569 86.0141 40.7083 86.2193 40.7531C86.4753 40.8192 86.7015 40.6658 86.9645 40.6659C86.9608 40.5216 86.9681 40.3991 86.9665 40.2704C86.9866 40.2419 87.0133 40.2039 87.0375 40.2068C87.2808 40.1789 87.5045 40.0664 87.7584 40.1168C87.946 40.1492 88.024 40.0196 88.0252 39.7935C88.0255 39.737 88.0082 39.6682 87.9954 39.5741C88.1813 39.5343 88.3361 39.5012 88.4821 39.4618C88.5957 39.3004 88.4001 39.0923 88.5862 38.996C88.697 38.9319 88.8428 38.9491 89.0064 38.9221C89.0025 38.8342 89.0207 38.7335 89.0012 38.649C88.9906 38.5707 88.949 38.4989 88.8922 38.374C89.3321 38.3281 89.6859 38.2926 90.0706 38.2505C90.0578 38.1565 90.0274 38.0501 90.0478 37.9651C90.0681 37.8801 90.1461 37.7505 90.2014 37.7467C90.5949 37.7108 90.5389 37.4164 90.5911 37.1552C90.6133 37.1424 90.6597 37.1325 90.7062 37.1225C90.9584 37.0631 91.0823 36.8995 91.0778 36.6316C91.0778 36.6316 91.1024 36.578 91.1136 36.5433C91.6043 36.5188 91.5709 36.5663 91.6026 35.9789C91.8149 35.9576 92.0381 35.9581 92.2482 35.9212C92.6219 35.8572 92.6219 35.8572 92.6197 35.4303C92.6155 35.399 92.6443 35.3767 92.6689 35.323C92.7418 35.3316 92.808 35.3497 92.8787 35.3426C93.0667 35.3184 93.1356 35.2391 93.1343 35.0539C93.1358 34.7714 93.1306 34.4984 93.1145 34.2035C93.2338 34.2021 93.3686 34.1974 93.5122 34.1988C93.6316 34.1975 93.7664 34.1928 93.8857 34.1914C94.1001 34.1858 94.1824 34.0875 94.1793 33.8301C94.1796 33.7736 94.1777 33.7014 94.1671 33.6231C94.3529 33.5833 94.5078 33.5501 94.6936 33.5103C94.6865 33.165 94.6816 32.8355 94.6725 32.4746C94.7897 32.4575 94.94 32.4495 95.1057 32.4382C95.1509 32.243 95.1916 32.073 95.2368 31.8779C95.3164 31.877 95.4114 31.8727 95.5617 31.8647C95.6904 31.7565 95.8128 31.6012 95.6946 31.3766C95.7323 31.3605 95.7523 31.332 95.7678 31.3287C96.0716 31.2582 96.2288 31.0659 96.2392 30.7519C96.2392 30.7519 96.2593 30.7234 96.266 30.7139C96.392 30.703 96.5729 30.7449 96.6197 30.6784C96.7132 30.5455 96.7429 30.3537 96.8057 30.1709C97.1257 30.1023 97.2815 29.8996 97.2729 29.5627C97.4077 29.558 97.5337 29.5472 97.715 29.5325C97.8097 29.1736 97.7762 28.8098 97.7406 28.4304C97.9219 28.4157 98.0877 28.4044 98.2844 28.3864C98.2774 28.0412 98.2637 27.7054 98.2591 27.3194C98.3851 27.3085 98.5199 27.3038 98.6924 27.283C98.7285 27.1381 98.7691 26.9682 98.8298 26.7697C98.8298 26.7697 98.8432 26.7507 98.8586 26.7474C99.1625 26.6769 99.3196 26.4846 99.3301 26.1706C99.4436 26.0092 99.6413 26.2329 99.7549 26.0715C99.8885 25.8816 99.8034 25.666 99.831 25.4585C99.8477 25.2291 99.8333 25.0064 99.8102 24.7775C99.7999 24.6427 99.8512 24.551 99.9708 24.4931C100.305 24.3166 100.314 24.3228 100.301 23.9306C100.418 23.9135 100.535 23.8965 100.683 23.8728C100.797 23.7354 100.85 23.5737 100.841 23.3875C100.841 23.3875 100.909 23.3648 100.947 23.3486C101.066 23.2907 101.21 23.3487 101.31 23.2063C101.41 23.0639 101.331 22.9518 101.33 22.8231C101.334 22.4432 101.345 22.0538 101.34 21.6678C101.49 21.6597 101.665 21.6546 101.846 21.6399C101.835 21.2633 101.837 20.9243 101.823 20.5321C101.905 20.5468 101.973 20.5806 102.035 20.5673C102.192 20.5498 102.329 20.5042 102.333 20.2939C102.338 20.0992 102.335 19.8983 102.325 19.7069C102.308 19.4686 102.35 19.4272 102.613 19.4273C102.677 19.4297 102.742 19.4321 102.845 19.4341C102.845 19.0228 102.854 18.6743 102.853 18.3196C103.026 18.2987 103.207 18.2841 103.411 18.2566C103.352 17.7048 103.321 17.1872 103.377 16.6592C103.563 16.6194 103.718 16.5862 103.888 16.5497C103.872 16.1983 103.852 15.872 103.847 15.5425C103.847 15.4295 103.839 15.3103 103.882 15.2125C103.911 15.1337 103.986 15.0449 104.059 14.9969C104.379 14.8237 104.381 14.8394 104.349 14.4913C104.347 14.4756 104.345 14.46 104.343 14.4443C103.848 14.494 103.359 14.5342 102.873 14.59C102.859 14.722 102.869 14.8569 102.829 14.9703C102.788 15.0838 102.695 15.1603 102.569 15.1711C101.793 15.2084 101.015 15.2864 100.239 15.3801C100.067 15.401 99.89 15.3905 99.7154 15.3956C99.6638 15.5438 99.778 15.6806 99.6535 15.8201C99.5712 15.9184 99.4868 16.001 99.3654 15.9867C99.0119 15.9657 98.6713 16.0387 98.3242 16.0647C97.6787 16.1223 97.0377 16.1549 96.3834 16.2064C96.0761 16.2319 95.7798 16.2793 95.4725 16.3048C95.143 16.3432 94.8115 16.3658 94.4887 16.3947C94.4498 16.2256 94.4285 16.0689 94.3541 15.9317C94.2599 15.7664 94.0824 15.9254 93.9102 15.8897C93.8874 15.6043 93.8536 15.2971 93.8529 14.9989C93.8532 14.9423 93.9753 14.8436 94.0594 14.8175C94.3894 14.6662 94.4161 14.6282 94.3851 14.2236C94.7233 14.1914 95.0549 14.1688 95.4019 14.1428C95.4162 13.9543 95.4304 13.7657 95.4468 13.5929C96.1078 13.5319 96.7688 13.4709 97.4784 13.4156C97.499 13.2741 97.5175 13.1169 97.5473 12.9251C97.7155 12.8729 97.9059 12.8079 98.1245 12.8336C98.2547 12.8541 98.412 12.7801 98.5602 12.7564C98.7017 12.7422 98.8453 12.7437 98.9801 12.739C99.0509 12.7319 99.1107 12.7029 99.1747 12.7053C99.5947 12.6879 99.6502 12.6276 99.6086 12.1447C99.8141 12.1329 100.028 12.1273 100.225 12.1093C100.533 12.0838 100.581 12.033 100.654 11.6868C100.67 11.627 100.67 11.5705 100.684 11.495C100.867 11.496 101.048 11.4814 101.247 11.4791C101.246 11.6486 101.239 11.8276 101.233 12.0223C101.41 11.9763 101.55 11.9464 101.705 11.9133C101.707 11.8724 101.716 11.8221 101.71 11.7751C101.705 11.4455 101.74 11.4137 102.056 11.3944C102.452 11.3741 102.85 11.313 103.235 11.2708C103.271 11.0695 103.29 10.9124 103.328 10.7267C103.417 10.7319 103.498 10.7467 103.593 10.7425C103.673 10.7415 103.748 10.7093 103.872 10.6827C103.858 10.8148 103.831 10.9092 103.826 10.9909C103.821 11.0726 103.841 11.1571 103.86 11.2416C104.146 11.1965 104.31 10.9947 104.352 10.6364C104.683 10.6137 105.022 10.5815 105.377 10.5617C105.367 10.0156 105.359 9.48522 105.335 8.95811C105.492 8.9406 105.664 8.91977 105.868 8.8923C105.86 8.60358 105.868 8.36806 105.852 8.12967C105.846 7.96964 105.909 7.84333 106.052 7.84481C106.267 7.83919 106.314 7.65971 106.454 7.51683C107.093 7.46863 107.754 7.40763 108.424 7.35279C108.459 7.43401 108.485 7.50903 108.517 7.57458C108.692 7.56942 108.867 7.56428 109.026 7.56244C109.034 7.73814 109.042 7.91382 109.047 8.07385C109.233 8.03403 109.373 8.00419 109.543 7.96769C109.561 8.39127 109.576 8.74266 109.592 9.09407C109.776 9.09509 109.944 9.09942 110.103 9.09758C110.125 10.6732 110.157 12.255 110.171 13.8244C110.215 13.8553 110.25 13.88 110.274 13.8829C110.675 13.8374 110.772 13.9054 110.741 14.2667C110.694 14.8009 110.742 15.3309 110.75 15.8613C110.752 16.3447 110.754 16.8281 110.741 17.3149C110.739 17.5409 110.864 17.7561 110.761 17.9958C110.741 18.0243 110.86 18.1359 110.917 18.1478C111.023 18.1654 111.13 18.1265 111.247 18.1095C111.363 18.6732 111.343 18.7017 110.826 18.7077C110.816 19.0405 110.79 19.3767 110.77 19.7034C110.805 19.7281 110.834 19.7623 110.858 19.7652C111.267 19.7259 111.258 19.7198 111.272 20.1685C111.282 20.6581 111.324 21.141 111.319 21.6339C111.32 22.3434 111.36 23.0524 111.33 23.7684C111.325 23.9066 111.366 24.0349 111.377 24.1697C111.391 24.3359 111.3 24.4846 111.143 24.5586C110.943 24.6551 110.847 24.8236 110.853 25.0642C110.853 25.0642 110.833 25.0927 110.786 25.1591C110.132 25.2106 109.438 25.2626 108.728 25.3179C108.735 25.1389 108.745 24.9755 108.755 24.8122C108.58 24.8174 108.421 24.8192 108.253 24.8149C108.195 24.4619 108.011 24.2997 107.701 24.3284C107.681 24.0021 107.652 23.6697 107.627 23.3122C107.525 23.3259 107.468 23.314 107.408 23.3429C107.302 23.3818 107.205 23.3704 107.145 23.2863C107.115 23.2365 107.15 23.1482 107.149 23.076C107.14 22.6586 107.122 22.235 107.12 21.8081C107.115 21.0673 107.039 20.3336 107.096 19.5795C107.099 19.4822 107.077 19.382 107.056 19.2818C107.021 19.0876 106.924 19.0196 106.756 19.0718C106.61 19.1111 106.528 19.2094 106.556 19.3566C106.564 19.4193 106.604 19.4754 106.632 19.5661C106.402 19.6315 106.234 19.6837 106.041 19.733C106.047 20.2478 106.051 20.7468 106.062 21.2929C105.998 21.2905 105.932 21.2725 105.868 21.2701C105.662 21.2819 105.606 21.3421 105.559 21.5781C105.545 21.6536 105.516 21.7325 105.527 21.8108C105.53 22.0682 105.542 22.3318 105.56 22.5858C105.583 22.9277 105.518 22.9818 105.099 22.9427C105.065 23.1032 105.033 23.2794 104.996 23.4807C104.857 23.5106 104.702 23.5438 104.525 23.5898C104.534 23.9507 104.535 24.3054 104.542 24.6506C104.336 24.6624 104.164 24.6832 104.013 24.6913C104.027 25.027 104.032 25.3565 104.048 25.7079C103.878 25.7444 103.707 25.7809 103.53 25.8269C103.533 26.0843 103.526 26.3198 103.542 26.5582C103.559 26.7401 103.503 26.8569 103.315 26.881C103.167 26.9047 103.08 26.9717 103.037 27.126C102.901 27.5262 102.901 27.5262 102.483 27.5028C102.483 27.8575 102.49 28.2028 102.504 28.595C102.305 28.5973 102.139 28.6086 101.989 28.6167C101.983 28.8679 101.991 29.1001 101.985 29.3513C101.97 29.7658 101.954 29.7691 101.504 29.7367C101.499 29.8184 101.494 29.9 101.496 29.9722C101.521 30.1603 101.457 30.2709 101.269 30.295C101.087 30.3097 100.987 30.4521 100.949 30.5812C100.911 30.7104 100.93 30.8514 100.777 30.9003C100.678 30.9297 100.572 30.9121 100.428 30.9106C100.425 31.008 100.438 31.102 100.435 31.1993C100.446 31.2777 100.457 31.356 100.469 31.4501C100.273 31.468 100.109 31.495 99.9277 31.5097C99.9326 31.8393 99.9354 32.1531 99.9512 32.5046C99.7985 32.5534 99.6303 32.6056 99.4533 32.6516C99.4281 32.8182 99.3941 32.9787 99.3644 33.1706C99.1919 33.1914 99.0262 33.2027 98.8294 33.2207C98.8531 33.3366 98.8966 33.4805 98.9355 33.6495C98.7363 33.7083 98.5681 33.7605 98.4065 33.8032C98.3975 34.1277 98.2152 34.3307 97.8598 34.4123C97.8653 34.6288 97.8796 34.8515 97.8939 35.0742C97.8994 35.2908 97.7546 35.5153 97.567 35.483C97.3131 35.4325 97.0848 35.5702 96.8197 35.5544C96.8431 35.7268 96.8644 35.8835 96.8921 36.0872C96.7706 36.0729 96.7111 36.0454 96.6403 36.0525C96.4834 36.07 96.3461 36.1155 96.3516 36.332C96.3553 36.4764 96.3347 36.6179 96.3383 36.7623C96.346 36.9945 96.2479 37.1526 96.0311 37.199C95.7901 37.2426 95.5535 37.2611 95.2727 37.3051C95.283 37.44 95.311 37.5872 95.3365 37.7752C95.1595 37.8212 95.0047 37.8544 94.8276 37.9004C94.7937 38.0609 94.7685 38.2276 94.7433 38.3942C94.7299 38.4132 94.699 38.4199 94.6923 38.4294C94.5745 38.5594 94.4035 38.2977 94.3119 38.5028C94.2581 38.6353 94.2618 38.7797 94.2388 38.962C94.0927 39.0014 93.9291 39.0284 93.7587 39.0649C93.7627 39.1527 93.7624 39.2092 93.7621 39.2657C93.7652 39.5231 93.6829 39.6214 93.4685 39.627C93.3337 39.6317 93.1834 39.6397 93.0486 39.6444C92.9293 39.6458 92.8011 39.641 92.704 39.6296C92.7046 39.9278 92.7098 40.2008 92.7239 40.48C92.7296 40.6401 92.665 40.7507 92.5235 40.7649C92.2715 40.7866 92.024 40.7832 91.7544 40.7926C91.7271 40.9436 91.6952 41.1198 91.6521 41.3306C91.347 41.3718 91.0264 41.4163 90.6903 41.4641C90.69 41.5206 90.683 41.5867 90.6827 41.6432C90.6858 41.9005 90.6834 41.9414 90.4532 42.0068C90.2607 42.0561 90.1584 42.1829 90.1332 42.3496C90.1053 42.6136 89.9793 42.6245 89.7917 42.5921C89.7498 42.5769 89.6988 42.612 89.6235 42.6443C89.6253 42.7165 89.6204 42.7981 89.6311 42.8765C89.6524 43.0332 89.5789 43.1376 89.4307 43.1613C89.2537 43.2073 89.132 43.2495 89.1241 43.4851C89.1214 43.5824 89.0148 43.6778 88.9769 43.7505C88.6629 43.7855 88.3866 43.8044 88.0882 43.8361C88.0815 43.8456 88.0548 43.8835 88.0414 43.9025C88.0591 44.3261 88.0612 44.3418 87.6875 44.4057C87.4685 44.4365 87.2475 44.4516 87.0574 44.4601C86.9305 44.6405 87.1328 44.8391 86.9333 44.9544C86.8225 45.0185 86.6789 45.017 86.5085 45.0535C86.5171 45.1162 86.5143 45.2136 86.5183 45.3014C86.5289 45.3798 86.5396 45.4581 86.5545 45.5678C86.1698 45.6099 85.816 45.6454 85.4933 45.6743C85.4666 45.7122 85.4532 45.7312 85.4465 45.7407C85.4928 46.1985 85.4108 46.2403 84.9732 46.2453C84.5755 46.2499 84.5378 46.266 84.4298 46.644C84.3737 46.8173 84.3047 46.8966 84.1283 46.8296C84.0688 46.802 84.0002 46.8248 83.9118 46.8195C83.9134 46.9482 83.9064 47.0142 83.9061 47.0707C83.907 47.3124 83.8779 47.3912 83.659 47.422C83.3626 47.4694 83.0599 47.4698 82.7614 47.5015C82.6354 47.5123 82.5115 47.5389 82.3943 47.5559C82.2653 47.7207 82.4676 47.9192 82.2924 48.0374C82.1528 48.1238 81.9891 48.1508 81.8607 48.2025C81.82 48.3725 81.7793 48.5425 81.7587 48.684C81.3585 48.7294 80.9939 48.743 80.6377 48.8194C80.5293 48.8426 80.4109 48.6744 80.2949 48.8767C80.2102 49.0158 80.298 49.1341 80.2752 49.2599C80.2686 49.2694 80.2552 49.2884 80.2151 49.3454C79.9321 49.3738 79.6115 49.4183 79.2821 49.4566C79.2569 49.6233 79.2296 49.7743 79.1999 49.9661C78.9075 50.1013 78.5941 50.0233 78.2823 50.074C78.2049 50.0906 78.1232 50.0759 78.0458 50.0924C77.6653 50.1659 77.6653 50.1659 77.6742 50.5833C77.6785 50.6147 77.6496 50.637 77.6384 50.6716C77.3156 50.7005 76.984 50.7232 76.6303 50.7586C76.6428 50.9092 76.6862 51.0531 76.5572 51.2178C76.4327 51.3574 76.2536 51.3877 76.1543 51.3606C75.9645 51.3126 75.8027 51.4117 75.6281 51.4169C75.4535 51.4221 75.2789 51.4272 75.1131 51.4385C75.0883 51.5487 75.0679 51.6337 75.0476 51.7187C74.9842 52.0145 74.9687 52.0178 74.7079 52.0334C74.4935 52.039 74.2724 52.0542 74.0447 52.0788C73.691 52.1143 73.3461 52.1559 72.9702 52.2042C72.9829 52.2982 72.9915 52.3609 72.9845 52.4269C72.9855 52.6686 72.8919 52.8015 72.6888 52.7725C72.3885 52.732 72.0919 52.8359 71.7891 52.8363C71.4931 52.8271 71.1834 52.8935 70.8451 52.9257C70.8685 53.0981 70.8898 53.2547 70.9154 53.4428C70.6788 53.4612 70.4754 53.4887 70.2786 53.5067C69.7591 53.5535 69.2353 53.569 68.7179 53.6315C68.5145 53.6589 68.2914 53.6584 68.1663 53.9109C68.1396 53.9489 68.0576 53.9907 68.0023 53.9945C67.1846 54.0165 66.3642 54.1359 65.5486 54.1735C65.1132 54.1943 64.662 54.2748 64.2111 54.2989C63.3093 54.347 62.4048 54.4924 61.5164 54.5215C61.0169 54.5399 60.5281 54.6365 60.0328 54.6862C59.7963 54.7046 59.5664 54.7136 59.2989 54.7387C59.3171 54.638 59.3396 54.5687 59.3578 54.468C58.5331 54.556 57.7151 54.6346 56.8883 54.7069C56.5899 54.7386 56.2959 54.7452 55.9953 54.7612C55.789 54.7678 55.6695 54.6697 55.6367 54.4671C55.6367 54.4671 55.6197 54.3418 55.6111 54.2791C55.0276 54.3235 54.4373 54.3774 53.8537 54.4218C53.5465 54.4473 53.5246 54.4036 53.5728 54.0546C53.5773 54.0295 53.5643 53.992 53.5557 53.9293C53.0605 53.979 52.5632 54.0129 52.0194 54.0569C51.9981 53.9002 51.9768 53.7435 51.9403 53.5336C51.7193 53.5487 51.4982 53.5638 51.2793 53.5946C51.0051 53.6291 50.9544 53.6078 50.914 53.31C50.9055 53.2473 50.8969 53.1847 50.8863 53.1063C50.767 53.1077 50.641 53.1185 50.5262 53.0948C50.4181 53.0615 50.3346 52.9745 50.3485 52.8425C50.3622 52.767 50.3758 52.6916 50.394 52.5909C50.1951 52.5932 50.0051 52.6017 49.8372 52.5973C49.8402 52.4435 49.841 52.2739 49.8486 52.0949C49.5192 52.1333 49.2119 52.1588 48.8582 52.1943C48.8302 52.0471 48.8022 51.8999 48.7612 51.7151C48.6154 51.698 48.4454 51.678 48.2908 51.6546C48.2778 51.6171 48.2735 51.5857 48.2471 51.5672C48.1615 51.4646 48.3655 51.3241 48.2158 51.2191C48.0837 51.1265 47.9683 51.2157 47.849 51.2171C47.8402 51.2109 47.8226 51.1986 47.7697 51.1615C47.6715 50.4971 47.7261 49.7839 47.7187 49.084C48.0622 49.0319 48.2407 48.8404 48.2542 48.5096C48.5836 48.4713 48.9131 48.4329 49.2735 48.3879C49.2726 48.5574 49.2717 48.727 49.2751 48.9278C49.5979 48.899 49.9361 48.8668 50.2744 48.8347C50.292 48.847 50.3272 48.8717 50.3314 48.9031C50.3308 49.0161 50.306 49.1262 50.3121 49.2298C50.3075 49.2549 50.3582 49.2763 50.3825 49.2792C50.5149 49.3153 50.6452 49.3358 50.8174 49.3714C50.7997 49.3591 50.8174 49.3714 50.835 49.3838C50.9098 49.8758 50.9076 49.8601 51.3764 49.7919C51.5644 49.7678 51.7545 49.7593 51.9357 49.7447C51.9415 49.9047 51.9406 50.0742 51.944 50.2751C52.2823 50.2429 52.5983 50.2236 52.9278 50.1852C52.9278 50.1852 52.9454 50.1976 52.9496 50.2289C52.9998 50.3633 52.9348 50.5305 53.0691 50.6388C53.1945 50.7409 53.3232 50.6327 53.4358 50.6408C53.8136 50.6647 54.1852 50.5851 54.572 50.5586C54.5712 50.7281 54.5636 50.9071 54.5582 51.1018C55.0777 51.055 55.5729 51.0053 56.1013 50.9647C56.138 51.1181 56.1769 51.2871 56.2134 51.4971C56.8744 51.436 57.5421 51.3655 58.2429 51.304C58.2578 51.4137 58.2815 51.5297 58.2809 51.6427C58.2806 51.6992 58.2493 51.7623 58.229 51.8473C58.5032 51.8127 58.764 51.7971 59.0206 51.7502C59.3081 51.6967 59.326 51.6525 59.2968 51.3201C59.4517 51.2869 59.6065 51.2537 59.7769 51.2172C59.7638 51.1797 59.7769 51.2172 59.7857 51.2234C59.8358 51.3578 59.7708 51.525 59.9051 51.6333C60.0372 51.726 60.1592 51.6272 60.2785 51.6258C60.5415 51.6259 60.8132 51.6322 61.0786 51.5915C61.7642 51.4768 62.449 51.5317 63.137 51.3762C63.1834 51.3662 63.2208 51.4066 63.2782 51.4185C63.4512 51.2846 63.5405 51.1204 63.4663 50.9266C63.6367 50.8901 63.7915 50.8569 63.9928 50.8138C63.9928 50.8138 64.0256 50.8793 64.0342 50.942C64.0381 51.0298 63.9932 51.1685 64.0372 51.1994C64.1341 51.2673 64.2531 51.3225 64.3724 51.3211C64.578 51.3093 64.7927 51.2471 65.0338 51.2035C65.0386 51.1219 65.0456 51.0559 65.0459 50.9994C65.0424 50.8174 65.1453 50.7147 65.3546 50.6913C66.0378 50.6175 66.7255 50.5185 67.413 50.476C67.8396 50.4491 68.2704 50.4535 68.6998 50.3293C68.7249 50.1626 68.7413 49.9898 68.7756 49.7728C68.9675 49.8365 69.1421 49.8313 69.2344 49.9244C69.3003 49.999 69.2618 50.1847 69.2721 50.3195C69.5978 50.2927 69.7764 50.1012 69.8077 49.7451C70.493 49.6869 71.1761 49.6131 71.8924 49.5483C71.8802 49.3413 71.8744 49.1813 71.8577 48.9994C72.315 49.0224 72.7929 48.9038 73.2635 48.9078C73.3276 48.9102 73.4232 48.7929 73.4524 48.7141C73.4727 48.6291 73.4423 48.5228 73.4165 48.3912C73.609 48.3419 73.7839 48.2802 73.9651 48.2656C74.5023 48.2311 74.5111 48.2373 74.5116 47.713C74.7393 47.6884 74.9737 47.6543 75.2102 47.6359C75.4844 47.6013 75.7498 47.5606 76.0261 47.5417C76.5168 47.5172 76.5101 47.5267 76.5947 46.9764C76.9175 46.9475 77.2557 46.9153 77.594 46.8832C77.6192 46.5606 77.7941 46.3618 78.1186 46.2869C78.1568 46.1578 78.0426 46.021 78.1671 45.8814C78.2494 45.7831 78.3538 45.6721 78.4552 45.7149C78.6602 45.8161 78.8511 45.6381 79.0673 45.7046C79.2328 45.7498 79.4566 45.6373 79.6734 45.5909C79.6919 45.4337 79.7016 45.2704 79.7158 45.0819C80.0164 45.0658 80.348 45.0432 80.7127 45.0295C80.7336 44.8315 80.7545 44.6335 80.7775 44.4512C81.0936 44.4318 81.4164 44.403 81.748 44.3803C81.7616 44.3048 81.7795 44.2606 81.7819 44.2198C81.7728 43.8589 81.7949 43.8461 82.142 43.8201C82.363 43.805 82.5865 43.749 82.8431 43.7021C82.8391 43.6143 82.8306 43.5516 82.8376 43.4856C82.8345 43.2282 82.8545 43.1997 83.1175 43.1998C83.1815 43.2022 83.2523 43.1951 83.2766 43.198C83.3212 43.1158 83.3567 43.084 83.3458 43.0622C83.3236 42.6638 83.4104 42.5403 83.7571 42.5709C83.9758 42.5966 84.164 42.5159 84.4005 42.4975L84.3805 42.526Z" fill="#FCD214"/>
</svg>
