<svg width="344" height="129" viewBox="0 0 344 129" fill="none" xmlns="http://www.w3.org/2000/svg">
<path d="M1.53789 60.6451C1.5341 60.7054 1.78505 60.8335 1.94559 60.8545C2.30505 60.9041 2.67407 60.9038 3.03447 60.9383C3.18889 60.9538 3.43718 61.0211 3.4466 61.0773C3.47189 61.1901 3.4047 61.332 3.29587 61.4155C3.22148 61.4661 2.98166 61.47 2.84109 61.4403C2.3939 61.3444 2.16321 61.4096 1.97411 61.7402C2.14913 61.7369 2.29839 61.7318 2.44762 61.7268C2.47701 61.7742 2.50641 61.8217 2.48833 61.8003C2.48801 61.8053 2.48801 61.8053 2.48833 61.8003C2.83615 61.8289 3.1343 61.8238 3.37581 61.8957C3.48383 61.9282 3.47151 62.1244 3.5375 62.3106C3.34693 62.2523 3.29661 62.2287 3.25148 62.2256C3.07034 62.2235 2.86467 62.1994 2.73257 62.241C2.66652 62.2618 2.68094 62.4446 2.74712 62.5248C2.83075 62.6365 3.00685 62.7191 3.14332 62.8142C3.28592 62.9148 3.42819 63.0204 3.56403 63.1255C3.72439 63.2525 3.85029 63.4125 4.05155 63.507C4.56694 63.754 4.64963 63.8808 4.37514 64.2309C4.24868 64.3889 4.23496 64.5042 4.50492 64.6386C4.91937 64.8434 4.92377 64.9801 4.57887 65.2143C4.44361 65.3061 4.26447 65.3748 4.13566 65.4671C4.06127 65.5176 3.99789 65.5992 4.00668 65.6654C4.06586 66.0633 4.1834 66.4601 4.19746 66.855C4.20088 67.0067 3.978 67.1533 3.82417 67.3348L4.66512 67.3462C4.63391 67.637 5.11328 67.9422 4.45532 68.1097C4.85259 68.4851 4.81375 68.5885 5.6796 68.4098C5.63789 68.5585 5.63676 68.6796 5.57242 68.7762C5.27291 69.2155 5.22089 69.6312 5.78452 70.038C6.1065 70.2719 6.36181 70.5366 6.67027 70.7797C6.73803 70.8348 6.89088 70.8754 7.00693 70.8833C7.60005 70.9235 7.77394 71.0413 7.66708 71.4027C7.6183 71.561 7.70413 71.6375 7.9263 71.7081C8.02788 71.7402 8.12377 71.8629 8.1129 71.9329C8.07006 72.2027 7.83901 72.4799 8.44169 72.6773C8.30346 72.7134 8.25675 72.7355 8.1981 72.7416C8.08079 72.7539 7.96441 72.751 7.85291 72.7738C7.70242 72.7989 7.53291 72.8178 7.41276 72.8753C7.09289 73.0203 7.13625 73.1545 7.50418 73.2754C7.61188 73.313 7.757 73.3733 7.77255 73.435C7.90531 73.8985 8.25147 74.3663 7.82144 74.822C7.79376 74.8504 7.80411 74.8915 7.80159 74.9318C7.78517 75.1933 7.64877 75.4062 7.2215 75.5086C6.87962 75.5915 6.5494 75.6954 6.12763 75.8133C6.38925 75.9775 6.61864 76.1395 6.87507 76.2831C7.16311 76.439 7.16196 76.5601 6.83046 76.6841C6.69773 76.7357 6.50115 76.7729 6.45097 76.8503C6.35706 77.0056 6.35214 77.187 6.30114 77.3805C6.37725 77.4059 6.52365 77.4461 6.59976 77.4714C6.68541 77.654 6.76069 77.7954 6.84116 77.9575C6.56564 78.0146 6.37725 78.1281 6.55064 78.357C6.5684 78.3834 6.53942 78.4319 6.51174 78.4604C6.31323 78.7348 6.42309 78.9442 6.8385 79.134C7.08425 79.2415 7.21505 79.4271 6.99093 79.5937C6.77326 79.7608 6.62616 79.9377 6.48459 80.1301C6.30826 80.3606 5.79466 80.4976 5.79929 80.8362C5.16414 80.9498 5.25967 81.2845 5.26683 81.5829C5.26962 81.7447 5.18014 81.8296 4.94331 81.8893C4.56857 81.9801 4.55707 82.0601 4.88474 82.2035C5.12436 82.3056 5.18345 82.3954 5.12695 82.5734C5.08619 82.707 5.19953 82.8611 5.26395 83.0726C4.85489 83.2974 5.51388 83.4228 5.62406 83.6272C5.55783 83.754 5.54993 83.8797 5.51625 84.0037C5.46651 84.1771 5.45423 84.3732 5.3155 84.5204C5.18354 84.663 5.13914 84.7508 5.34463 84.8809C5.4256 84.9318 5.47923 85.0062 5.5138 85.0742C5.62367 85.2836 5.84 85.3437 6.19553 85.3526C7.76045 85.3828 9.3241 85.4331 10.8819 85.4729C11.5737 85.4895 12.2725 85.4964 12.9652 85.4978C13.8132 85.4997 14.6567 85.4709 15.4973 85.4874C16.3379 85.5039 17.1819 85.5711 18.0219 85.5977C18.6099 85.6173 19.1939 85.5962 19.7824 85.6058C21.5942 85.6224 23.4067 85.6289 25.2178 85.6556C28.7822 85.705 32.3455 85.7694 35.9095 85.8239C36.2328 85.8306 36.5522 85.7967 36.8694 85.7979C38.3769 85.8141 39.8773 85.8399 41.3842 85.8662C41.6882 85.8716 41.9954 85.9278 42.2987 85.9433C42.5115 85.9577 42.7372 85.973 42.9402 85.9362C44.1164 85.7633 45.27 85.5384 46.53 85.5782C48.2294 85.6327 49.9252 85.6414 51.6258 85.6757C52.5377 85.692 53.4486 85.7234 54.3598 85.7497C55.0254 85.7695 55.6908 85.7944 56.3564 85.8142C58.0303 85.8618 59.7106 85.9099 61.3842 85.9626C62.6506 86.0029 63.9177 86.0331 65.1768 86.0881C67.7462 86.2065 70.3121 86.3802 72.8776 86.4579C76.167 86.5543 79.4609 86.5803 82.7528 86.6365C84.0528 86.6589 85.353 86.6762 86.6527 86.7036C89.3877 86.7625 92.1211 86.8465 94.8515 86.8748C97.9181 86.9107 100.975 86.8904 104.043 86.9162C105.777 86.9276 107.514 86.9947 109.255 87.0115C111.274 87.032 113.294 87.0224 115.314 87.0328C116.401 87.0408 117.493 87.0793 118.58 87.0823C120.024 87.0891 121.469 87.0607 122.919 87.0729C124.433 87.0845 125.951 87.1419 127.465 87.1585C128.08 87.1647 128.692 87.1102 129.308 87.0813C129.62 87.067 129.927 87.0272 130.237 87.0381C130.831 87.0581 131.422 87.1335 132.017 87.1485C133.685 87.1857 135.353 87.2178 137.023 87.2298C137.651 87.237 138.269 87.1778 138.893 87.1493C138.977 87.1449 139.068 87.136 139.152 87.1417C140.144 87.229 141.124 87.2953 142.129 87.2725C144.1 87.2291 146.079 87.252 148.054 87.2544C149.511 87.2571 150.966 87.2798 152.422 87.2875C154.894 87.3034 157.373 87.3197 159.846 87.3305C160.894 87.3358 161.936 87.3407 162.985 87.341C163.969 87.342 164.947 87.3324 165.931 87.3334C166.558 87.3606 167.183 87.403 167.81 87.4252C168.398 87.4448 168.982 87.4237 169.571 87.4282C171.382 87.4448 173.195 87.4514 175.006 87.478C178.57 87.5274 182.134 87.5919 185.698 87.6463C186.021 87.653 186.34 87.6191 186.658 87.6204C188.165 87.6366 189.665 87.6624 191.172 87.6887C191.476 87.6941 191.784 87.7502 192.087 87.7657C192.3 87.7801 192.525 87.7954 192.728 87.7586C193.905 87.5858 195.058 87.3609 196.318 87.4007C198.018 87.4551 199.713 87.4639 201.414 87.4982C202.326 87.5145 203.237 87.5459 204.148 87.5722C204.814 87.592 205.479 87.6168 206.145 87.6366C207.818 87.6843 209.499 87.7324 211.172 87.7851C212.439 87.8254 213.706 87.8556 214.965 87.9105C217.534 88.0289 220.1 88.2026 222.666 88.2803C225.955 88.3768 229.249 88.4028 232.541 88.459C233.841 88.4813 235.141 88.4987 236.441 88.526C239.176 88.5849 241.909 88.669 244.64 88.6973C247.706 88.7332 250.764 88.7129 253.831 88.7387C255.565 88.7501 257.303 88.8172 259.043 88.834C261.062 88.8545 263.083 88.8448 265.102 88.8553C266.189 88.8632 267.281 88.9018 268.368 88.9047C269.812 88.9115 271.257 88.8831 272.7 88.895C274.215 88.9066 275.733 88.9639 277.247 88.9805C277.861 88.9868 278.473 88.9322 279.09 88.9033C279.402 88.8891 279.709 88.8492 280.019 88.8601C280.613 88.8801 281.204 88.9555 281.799 88.9705C283.467 89.0077 285.135 89.0398 286.805 89.0518C287.433 89.0539 288.051 88.9999 288.675 88.9713C288.759 88.967 288.85 88.958 288.934 88.9637C289.926 89.051 290.905 89.1173 291.91 89.0945C293.881 89.0511 295.861 89.0741 297.836 89.0764C299.292 89.0791 300.748 89.1018 302.204 89.1095C304.676 89.1254 307.155 89.1417 309.627 89.1525C310.676 89.1578 311.718 89.1627 312.767 89.163C314.249 89.1624 315.74 89.1471 317.222 89.1515C318.316 89.1549 319.408 89.1884 320.502 89.1917C321.414 89.198 322.329 89.174 323.242 89.1752C324.789 89.1739 326.342 89.1831 327.891 89.1717C328.655 89.1679 329.418 89.0832 330.18 89.1096C331.44 89.1494 332.655 89.1862 333.65 88.592C333.906 88.4376 334.015 88.3491 333.866 88.1471C333.711 87.9346 333.661 87.6939 334.031 87.5876C334.426 87.478 334.451 87.2877 334.458 87.0761C334.464 86.8695 334.491 86.644 334.367 86.4639C334.212 86.2413 334.247 86.0973 334.447 85.9088C334.625 85.7441 334.703 85.5423 334.806 85.3473C334.886 85.1962 334.885 85.0142 335.016 84.8817C335.223 84.6786 335.581 84.5563 335.626 84.2513C335.647 84.1114 336.068 84.0086 336.329 83.8747C336.317 83.8688 336.275 83.8054 336.23 83.8074C335.739 83.7843 335.821 83.6131 335.873 83.3995C335.907 83.2755 335.794 83.1214 335.692 82.9933C335.626 82.908 335.467 82.8518 335.449 82.8405C335.716 82.5 335.936 82.1967 336.187 81.9107C336.264 81.82 336.436 81.7559 336.564 81.6837C336.676 81.7569 336.781 81.8398 336.906 81.9089C337 81.9607 337.131 82.0352 337.222 82.0262C337.398 82.0078 337.551 81.9374 337.65 81.9088C337.517 81.7634 337.395 81.639 337.294 81.5058C337.294 81.5008 337.534 81.3908 337.585 81.4094C337.73 81.4647 337.834 81.5626 337.995 81.6745C338.054 81.6583 338.179 81.6365 338.273 81.5873C338.841 81.2925 339.416 81.0031 339.96 80.6915C340.041 80.6414 340.026 80.4787 339.966 80.3939C339.889 80.2826 339.713 80.2 339.515 80.0553C340.123 79.9601 340.401 79.7618 340.268 79.4043C340.088 79.382 339.927 79.3661 339.773 79.3506C339.768 79.325 339.756 79.299 339.752 79.2734C340.031 79.156 340.31 78.9325 340.595 78.9366C341.1 78.9405 341.428 78.7708 341.792 78.6439C342.023 78.5636 342.172 78.3566 342.28 78.1871C342.309 78.1386 342.071 78.0164 341.94 77.9318C341.803 77.8417 341.674 77.742 341.509 77.6804C341.351 77.6192 341.147 77.565 340.985 77.5792C340.393 77.625 339.978 77.5262 339.897 77.1622C339.817 76.7931 339.465 76.7239 339.036 76.6494C338.908 76.6256 338.78 76.6017 338.652 76.5729C337.99 76.4018 337.691 75.8968 337.949 75.5001C338.035 75.3746 338.011 75.1306 337.874 75.0456C337.6 74.8705 337.234 74.7195 336.869 74.6493C335.917 74.4586 334.984 74.2641 334.249 73.7952C333.895 73.5642 333.915 73.5504 334.289 73.3636C335.031 72.9997 336.071 72.9237 336.582 72.3219C336.875 71.9782 337.422 71.7223 337.647 71.3335C337.727 71.2025 337.807 71.0565 337.796 70.9194C337.799 70.8741 337.498 70.8335 337.287 70.7789C337.475 70.6754 337.643 70.5807 337.884 70.4456C337.698 70.4329 337.639 70.429 337.588 70.4255C337.472 70.4076 337.364 70.3901 337.255 70.3726C337.322 70.3267 337.397 70.2762 337.465 70.2253C337.512 70.1881 337.579 70.1472 337.595 70.1028C337.65 69.9449 337.706 69.7871 337.722 69.6266C337.727 69.5461 337.676 69.4416 337.588 69.3852C337.339 69.232 337.077 69.0829 336.787 68.9572C336.591 68.8733 336.362 68.8123 336.534 68.6422C336.693 68.4913 336.876 68.3522 337.253 68.4383C337.394 68.4681 337.672 68.4717 337.694 68.4328C337.759 68.3261 337.794 68.182 337.716 68.0758C337.651 67.9805 337.448 67.9112 337.29 67.8449C336.975 67.7075 336.522 67.7121 336.386 67.3999C336.323 67.2593 336.184 67.3155 336.022 67.4258C335.846 67.5452 335.517 67.6189 335.252 67.6161C335.117 67.6119 334.929 67.4023 334.86 67.2663C334.785 67.1198 334.815 66.9552 334.805 66.798C334.772 66.1947 335.181 65.7528 335.965 65.4372C336.078 65.3944 336.209 65.2719 336.187 65.2098C336.04 64.8615 336.208 64.5548 336.358 64.2416C336.604 63.723 336.751 63.6471 337.601 63.6238C337.892 63.6183 337.955 63.5418 337.856 63.3734C337.815 63.305 337.827 63.22 337.807 63.1176C338.361 63.2763 338.639 63.1639 338.674 62.8278C338.691 62.6472 338.755 62.4596 338.714 62.2801C338.625 61.8549 338.755 61.4244 338.445 61.0044C338.343 60.8713 338.367 60.5951 338.507 60.5288C338.962 60.302 339.203 59.9598 339.03 59.5289C338.812 59.59 338.601 59.6514 338.39 59.7129C338.378 59.702 338.372 59.6915 338.36 59.6805C338.496 59.5736 338.639 59.4671 338.775 59.3551C338.484 59.2546 338.21 59.1755 337.971 59.0634C337.883 59.022 337.89 58.9064 337.857 58.8233C337.987 58.8069 338.153 58.7474 338.241 58.7786C338.786 58.9721 339.121 58.7928 339.437 58.6021C339.345 58.5301 339.213 58.4707 339.216 58.4204C339.241 58.1191 338.944 58.1141 338.589 58.0901C338.467 58.0818 338.262 57.9417 338.266 57.8713C338.276 57.7104 338.346 57.5333 338.496 57.4121C338.836 57.1423 339.252 56.9129 339.618 56.6598C339.787 56.545 339.899 56.4012 340.05 56.275C340.302 56.0648 340.562 55.8551 340.821 55.6454C340.95 55.5431 341.092 55.4466 341.268 55.3222C341.057 55.2927 340.922 55.2785 340.793 55.2597C340.858 55.1581 340.964 55.1248 341.07 55.0865C341.156 55.057 341.286 55.0456 341.314 55.0021C341.435 54.8385 341.53 54.6682 341.631 54.5033C341.624 54.5029 341.553 54.5082 341.493 54.5294C340.477 54.8343 339.38 54.9722 338.251 55.022C337.192 55.0715 336.136 55.0909 335.077 55.1455C333.044 55.2452 331.011 55.3601 328.984 55.4703C328.626 55.4865 328.377 55.4343 328.336 55.1639C328.323 55.067 328.207 54.943 328.075 54.8886C327.463 54.6351 326.828 54.6325 326.189 54.8165C326.07 54.8489 325.911 54.9088 325.829 54.883C325.276 54.7143 324.755 54.8709 324.223 54.8753C323.252 54.8752 322.284 54.8349 321.313 54.8248C320.343 54.8146 319.377 54.8301 318.406 54.83C316.898 54.8238 315.39 54.8127 313.882 54.8015C311.623 54.79 309.364 54.7835 307.099 54.7615C305.52 54.7455 303.937 54.6989 302.358 54.693C298.436 54.6699 294.513 54.6619 290.59 54.6489C288.972 54.6454 287.353 54.6419 285.729 54.6329C283.037 54.6122 280.351 54.592 277.659 54.5664C276.242 54.5512 274.821 54.5005 273.403 54.5055C271.603 54.5049 269.806 54.57 268.006 54.5593C264.427 54.5392 260.85 54.489 257.278 54.4593C257.116 54.4584 256.926 54.5011 256.812 54.5641C256.422 54.7952 255.95 54.8795 255.435 54.9405C254.678 55.0357 253.853 55.0809 253.21 55.3101C251.714 55.8451 250.099 55.6802 248.509 55.6382C247.229 55.6021 245.956 55.4654 244.679 55.3891C243.918 55.3376 243.156 55.2961 242.394 55.2798C241.65 55.2598 240.911 55.2754 240.167 55.2755C240.063 55.2736 239.939 55.2904 239.864 55.255C239.278 54.9932 238.67 55.0883 238.064 55.1483C237.96 55.1564 237.844 55.1486 237.741 55.1315C237.459 55.0872 237.156 54.9657 236.914 54.9998C236.124 55.1029 235.373 54.8955 234.599 54.8632C233.035 54.8079 231.478 54.662 229.91 54.5661C228.524 54.4823 227.136 54.4136 225.749 54.3298C224.246 54.2432 222.75 54.147 221.247 54.0604C220.453 54.0168 219.658 54.0033 218.858 53.9542C217.62 53.8805 216.381 53.8017 215.151 53.6982C214.25 53.622 213.351 53.5056 212.451 53.3993C212.162 53.3646 211.875 53.2896 211.59 53.2905C210.496 53.2871 209.412 53.3249 208.319 53.3115C205.511 53.283 202.71 53.2399 199.903 53.1963C197.135 53.1503 194.367 53.1043 191.599 53.0583C191.685 52.9278 191.764 52.7918 191.844 52.6608C191.837 52.6603 191.766 52.6656 191.706 52.6868C191.185 52.8434 190.641 52.953 190.085 53.0316C189.051 53.0121 188.022 52.998 186.987 52.9784C185.972 52.9652 184.954 52.9872 183.932 52.9736C183.149 52.961 182.37 52.8881 181.593 52.8961C180.815 52.904 180.026 52.689 179.268 52.9104C179.222 52.9224 179.151 52.9176 179.093 52.9137C178.64 52.9032 178.187 52.8978 177.735 52.8874C177.453 52.838 177.168 52.8339 176.888 52.8704C176.622 52.8676 176.357 52.8598 176.092 52.857C174.546 52.8331 172.994 52.8038 171.448 52.78C169.443 52.7503 167.438 52.7206 165.439 52.6913C162.658 52.6495 159.876 52.6077 157.101 52.5763C156.538 52.5685 155.985 52.6119 155.421 52.6192C155.058 52.6249 154.806 52.724 154.602 52.8768C153.929 52.8667 153.257 52.8514 152.584 52.8513C148.662 52.8282 144.739 52.8202 140.816 52.8072C139.198 52.8037 137.579 52.8002 135.955 52.7912C133.263 52.7705 130.577 52.7503 127.885 52.7247C126.468 52.7096 125.047 52.6588 123.629 52.6638C121.829 52.6632 120.032 52.7283 118.232 52.7176C114.653 52.6976 111.076 52.6473 107.504 52.6176C107.342 52.6167 107.152 52.6594 107.038 52.7224C106.648 52.9535 106.176 53.0378 105.661 53.0988C104.904 53.194 104.079 53.2392 103.436 53.4684C101.94 54.0034 100.325 53.8385 98.7348 53.7966C97.4551 53.7604 96.1818 53.6237 94.9046 53.5474C94.1439 53.4959 93.3825 53.4544 92.6195 53.4381C91.8762 53.4181 91.1372 53.4337 90.3926 53.4338C90.2891 53.4319 90.1651 53.4487 90.0896 53.4133C89.5039 53.1515 88.8958 53.2466 88.2899 53.3066C88.1858 53.3147 88.0698 53.3069 87.9608 53.2894C87.6787 53.245 87.3755 53.1235 87.1339 53.1577C86.344 53.2607 85.593 53.0534 84.8181 53.0211C83.2548 52.9658 81.6971 52.8199 80.1299 52.7239C78.7431 52.6402 77.3554 52.5715 75.9687 52.4877C74.4656 52.4011 72.9696 52.3049 71.4664 52.2183C70.6728 52.1746 69.8773 52.1612 69.0776 52.1121C67.8391 52.0383 66.601 51.9596 65.3708 51.8561C64.4692 51.7799 63.5701 51.6635 62.6704 51.5571C62.3812 51.5224 62.0945 51.4475 61.8096 51.4484C60.7156 51.445 59.632 51.4828 58.5387 51.4694C55.7306 51.4409 52.9299 51.3977 50.1227 51.3541C45.8215 51.2852 41.5145 51.2057 37.2131 51.1418C36.1974 51.1286 35.1795 51.1506 34.1574 51.1369C33.3748 51.1243 32.596 51.0514 31.8185 51.0594C31.0411 51.0674 30.2518 50.8523 29.4933 51.0737C29.4473 51.0857 29.3763 51.0809 29.3183 51.077C28.3159 51.0596 27.3137 51.0372 26.3113 51.0199C24.7654 50.996 23.2134 50.9667 21.6675 50.9429C19.6623 50.9132 17.6571 50.8835 15.6583 50.8542C12.8769 50.8124 10.102 50.771 7.31995 50.7392C6.75717 50.7314 6.20414 50.7748 5.64041 50.7821C5.19335 50.7872 4.91892 50.9302 4.68519 51.1467C4.48592 51.3301 4.52158 51.4841 4.82567 51.5905C4.97787 51.6412 5.19312 51.6154 5.39943 51.6294C5.30501 51.8957 4.90416 51.9897 4.39606 52.1422C4.70628 52.2541 4.91622 52.3138 5.09877 52.3968C5.22455 52.4558 5.30299 52.547 5.40849 52.6198C5.26476 52.6404 5.12714 52.6664 4.98373 52.6819C4.93152 52.6885 4.88059 52.675 4.82901 52.6715C4.79551 52.6894 4.75527 52.7119 4.72177 52.7299C4.88055 52.882 5.01904 53.0479 5.211 53.1872C5.46523 53.366 5.78643 53.509 5.63917 53.7919C5.54368 53.9723 5.49945 54.1612 5.40395 54.3416C5.36667 54.4199 5.28787 54.5408 5.20343 54.5452C5.03423 54.559 4.84239 54.5207 4.67729 54.4691C4.54348 54.4348 4.43185 54.3566 4.31219 54.303C4.27901 54.3159 4.24585 54.3288 4.21236 54.3468C4.39219 54.5761 4.13469 54.8617 4.5949 55.0595C4.78389 55.143 4.71309 55.2392 4.48523 55.2591C4.13362 55.2909 4.13315 55.4019 4.29744 55.5696C4.4559 55.7268 4.60147 55.8831 4.81967 56.1201C4.46508 56.0961 4.20076 56.0782 3.89775 56.0577C3.95553 56.3747 4.58861 56.3974 4.75113 56.6962C4.3932 56.8285 4.04172 56.9613 3.67735 57.0932C3.7635 57.1647 3.84932 57.2412 4.00292 57.3728C3.72975 57.4957 3.46367 57.609 3.22274 57.7341C3.14221 57.7791 3.07174 57.8703 3.08729 57.932C3.11777 58.0653 3.20689 58.1926 3.29286 58.3701C3.27996 58.3692 3.36313 58.385 3.446 58.4057C3.69459 58.468 3.77992 58.6556 3.57957 58.7531C3.3454 58.8736 3.09868 58.9882 2.82159 59.0705C2.19491 59.2553 2.18198 59.2544 2.63209 59.6132C2.70598 59.6737 2.80017 59.7205 2.86729 59.7856C2.92829 59.8453 2.95613 59.9179 2.99747 59.9813C2.87953 60.0036 2.76128 60.031 2.63752 60.0428C2.38356 60.066 2.11829 60.0632 1.86983 60.1019C1.43833 60.1687 1.56468 60.4247 1.5401 60.6099L1.53789 60.6451Z" fill="#FCD214"/>
<path d="M40.3673 52.972H32.83V76.74H22.3794V52.972H14.8883V44.8335H40.3673V52.972ZM72.0325 76.74H61.582V64.9485H52.8886V76.74H42.438V44.8335H52.8886V56.3938H61.582V44.8335H72.0325V76.74ZM99.557 76.74H76.4363V44.8335H99.0945V53.0644H86.8406V56.5326H98.4009V64.7173H86.8406V68.4166H99.557V76.74ZM139.435 67.4918C139.435 74.4742 133.609 76.74 127.551 76.74H111.829V44.8335H125.008C127.782 44.8335 130.788 45.0647 133.1 45.9895C135.412 46.9143 137.817 49.2264 137.817 52.9257C137.817 56.625 135.412 59.1683 133.331 60.0007C137.031 61.018 139.435 63.7924 139.435 67.4918ZM127.551 54.6829C127.551 52.6483 125.933 52.3708 124.314 52.3708H122.233V56.995H124.314C125.886 56.995 127.551 56.625 127.551 54.6829ZM128.938 66.4744C128.938 64.4398 127.459 63.9312 125.701 63.9312H122.233V69.0177H125.701C127.366 69.0177 128.938 68.4166 128.938 66.4744ZM165.245 76.74H142.124V44.8335H164.783V53.0644H152.529V56.5326H164.089V64.7173H152.529V68.4166H165.245V76.74ZM199.236 76.74H188.369L178.659 58.9371C178.659 58.9371 178.89 62.4052 178.89 64.7173V76.74H168.717V44.8335H180.046L189.294 62.6364C189.294 62.6364 189.063 59.1683 189.063 56.8562V44.8335H199.236V76.74ZM226.739 76.74H203.618V44.8335H226.276V53.0644H214.022V56.5326H225.583V64.7173H214.022V68.4166H226.739V76.74ZM252.406 53.0644H240.615V58.0123H251.713V66.2432H240.615V76.74H230.21V44.8335H252.406V53.0644ZM265.853 76.74H255.403V44.8335H265.853V76.74ZM293.421 52.972H285.884V76.74H275.433V52.972H267.942V44.8335H293.421V52.972ZM318.398 66.2432C318.398 69.5726 316.779 72.5783 314.236 74.5667C311.693 76.5088 308.502 77.2949 304.803 77.2949C301.103 77.2949 296.849 76.2776 292.503 73.0407L297.127 65.1797C300.086 67.6767 304.248 68.6478 305.635 68.6478C307.022 68.6478 307.993 68.2316 307.993 67.3068C307.993 66.382 306.837 66.012 305.681 65.6421C304.525 65.3184 301.982 64.4861 301.057 64.1624C296.618 62.4052 293.751 60.3243 293.751 55.0066C293.751 51.5385 295.554 48.8565 297.45 47.2843C299.393 45.6658 302.583 44.5098 306.837 44.5098C311.092 44.5098 315.438 46.0358 318.213 48.3478L314.236 55.7464C311.831 53.6193 308.317 52.6945 306.652 52.6945C304.988 52.6945 304.063 53.0182 304.063 53.9893C304.063 54.9141 305.543 55.2378 306.282 55.469C307.022 55.7002 308.964 56.2551 310.074 56.625C314.883 58.2435 318.398 60.648 318.398 66.2432Z" fill="#003561"/>
<path d="M100.286 28H84.4719V4.0701H99.9743V8.54395H90.0556V13.434H99.4194V17.9078H90.0556V23.4568H100.286V28ZM120.494 28H114.182L110.332 22.3123L106.448 28H100.136L107.003 19.087L100.864 10.9023H107.142L110.332 16.0351L113.488 10.9023H119.766L113.627 19.087L120.494 28ZM140.068 19.4685C140.068 24.4972 136.947 28.3815 131.987 28.3815C129.456 28.3815 127.652 27.4451 126.577 25.8498V34.2773H121.028V10.9023H126.3L126.265 13.0872H126.334C127.583 11.5959 129.421 10.5901 132.022 10.5901C136.947 10.5901 140.068 14.4397 140.068 19.4685ZM134.415 19.3991C134.415 16.7634 132.785 14.9599 130.392 14.9599C128.034 14.9599 126.404 16.7634 126.404 19.3991C126.404 22.0349 128.034 23.8383 130.392 23.8383C132.785 23.8383 134.415 22.0349 134.415 19.3991ZM158.481 18.9483C158.481 19.7806 158.412 20.7863 158.412 20.7863H146.239C146.482 23.2487 148.354 24.3585 150.609 24.3585C152.828 24.3585 154.77 23.3874 155.741 22.7285L157.926 25.607C157.371 26.0232 155.117 28.3815 149.811 28.3815C144.539 28.3815 140.69 25.1215 140.69 19.4685C140.69 13.8155 144.852 10.5901 149.915 10.5901C154.978 10.5901 158.481 13.9542 158.481 18.9483ZM153.314 17.6304C153.279 16.0697 152.135 14.197 149.811 14.197C147.522 14.197 146.343 16.0004 146.273 17.6304H153.314ZM171.543 10.9023L171.231 16.0004H170.988C170.676 15.827 169.947 15.5842 168.976 15.5842C166.236 15.5842 165.543 18.1506 165.543 20.4049V28H159.994V10.9023H165.543L165.508 13.3299H165.578C166.549 11.4572 167.971 10.5901 169.809 10.5901C170.953 10.5901 171.543 10.9023 171.543 10.9023ZM178.365 6.04692C178.365 7.78097 177.082 8.92544 175.209 8.92544C173.336 8.92544 172.053 7.78097 172.053 6.04692C172.053 4.34755 173.336 3.1684 175.209 3.1684C177.082 3.1684 178.365 4.34755 178.365 6.04692ZM177.984 28H172.435V10.9023H177.984V28ZM197.458 18.9483C197.458 19.7806 197.389 20.7863 197.389 20.7863H185.216C185.458 23.2487 187.331 24.3585 189.585 24.3585C191.805 24.3585 193.747 23.3874 194.718 22.7285L196.903 25.607C196.348 26.0232 194.094 28.3815 188.788 28.3815C183.516 28.3815 179.667 25.1215 179.667 19.4685C179.667 13.8155 183.828 10.5901 188.892 10.5901C193.955 10.5901 197.458 13.9542 197.458 18.9483ZM192.291 17.6304C192.256 16.0697 191.111 14.197 188.788 14.197C186.499 14.197 185.32 16.0004 185.25 17.6304H192.291ZM215.756 28H210.207V19.087C210.207 16.8327 209.861 15.1333 207.572 15.1333C205.179 15.1333 204.52 17.0755 204.52 19.5378V28H198.971V10.9023H204.52L204.485 13.3646H204.554C205.491 11.8386 207.051 10.5901 209.514 10.5901C214.473 10.5901 215.756 13.7808 215.756 17.9078V28ZM232.816 26.3353C232.643 26.474 230.84 28.3815 226.296 28.3815C221.614 28.3815 217.279 25.1908 217.279 19.5032C217.279 13.7808 221.684 10.5901 226.366 10.5901C230.736 10.5901 232.712 12.3935 232.712 12.3935L231.499 16.5899C231.013 16.2085 229.487 15.064 227.094 15.064C224.736 15.064 222.863 16.694 222.863 19.3991C222.863 22.1042 224.562 23.8036 227.163 23.8036C229.764 23.8036 231.499 22.1389 231.499 22.1389L232.816 26.3353ZM250.761 18.9483C250.761 19.7806 250.692 20.7863 250.692 20.7863H238.519C238.762 23.2487 240.634 24.3585 242.889 24.3585C245.108 24.3585 247.05 23.3874 248.021 22.7285L250.206 25.607C249.651 26.0232 247.397 28.3815 242.091 28.3815C236.819 28.3815 232.97 25.1215 232.97 19.4685C232.97 13.8155 237.132 10.5901 242.195 10.5901C247.258 10.5901 250.761 13.9542 250.761 18.9483ZM245.594 17.6304C245.559 16.0697 244.415 14.197 242.091 14.197C239.802 14.197 238.623 16.0004 238.553 17.6304H245.594Z" fill="#003561"/>
<path d="M76.0723 112.983C76.0723 118.498 72.0147 121.862 66.6044 121.862C61.1942 121.862 57.1018 118.498 57.1018 112.983C57.1018 107.469 61.1942 104.07 66.6044 104.07C72.0147 104.07 76.0723 107.469 76.0723 112.983ZM70.4887 112.879C70.4887 110.348 69.0321 108.44 66.6044 108.44C64.1421 108.44 62.7202 110.348 62.7202 112.879C62.7202 115.411 64.1421 117.319 66.6044 117.319C69.0321 117.319 70.4887 115.411 70.4887 112.879ZM88.4085 97.5504L88.131 101.4C88.131 101.4 87.0559 101.088 86.0849 101.088C84.4549 101.088 84.0387 102.024 84.0387 103.307V104.417H87.7149V108.614H84.0387V121.48H78.455V108.614H76.2701V104.417H78.455V103.481C78.455 99.3885 80.3972 97.0996 84.6283 97.0996C86.8132 97.0996 88.4085 97.5504 88.4085 97.5504ZM109.893 121.48H94.0783V97.5504H109.581V102.024H99.6619V106.914H109.026V111.388H99.6619V116.937H109.893V121.48ZM129.064 104.383L122.024 121.48H116.821L109.816 104.383H115.608L119.492 115.203L123.341 104.383H129.064ZM146.369 112.429C146.369 113.261 146.299 114.267 146.299 114.267H134.126C134.369 116.729 136.242 117.839 138.496 117.839C140.716 117.839 142.658 116.868 143.629 116.209L145.814 119.087C145.259 119.504 143.005 121.862 137.698 121.862C132.427 121.862 128.577 118.602 128.577 112.949C128.577 107.296 132.739 104.07 137.802 104.07C142.866 104.07 146.369 107.435 146.369 112.429ZM141.201 111.111C141.166 109.55 140.022 107.677 137.698 107.677C135.409 107.677 134.23 109.481 134.161 111.111H141.201ZM159.43 104.383L159.118 109.481H158.875C158.563 109.307 157.835 109.065 156.864 109.065C154.124 109.065 153.43 111.631 153.43 113.885V121.48H147.881V104.383H153.43L153.396 106.81H153.465C154.436 104.938 155.858 104.07 157.696 104.07C158.84 104.07 159.43 104.383 159.43 104.383ZM177.524 104.383L169.894 123.11C168.645 126.162 167.258 128.035 164.345 128.035C161.432 128.035 159.594 127.203 159.594 127.203L160.703 123.11C160.703 123.11 161.917 123.561 162.75 123.561C163.374 123.561 163.964 123.561 164.414 122.451L165.039 120.96L158.276 104.383H164.068L167.952 115.376L171.801 104.383H177.524ZM199.648 109.515C199.648 117.527 194.099 121.48 186.539 121.48H178.424V97.5504H186.539C194.065 97.5504 199.648 101.539 199.648 109.515ZM193.961 109.515C193.961 105.007 191.394 102.198 186.851 102.198H184.007V116.729H186.851C191.29 116.729 193.961 113.955 193.961 109.515ZM219.386 112.983C219.386 118.498 215.329 121.862 209.918 121.862C204.508 121.862 200.416 118.498 200.416 112.983C200.416 107.469 204.508 104.07 209.918 104.07C215.329 104.07 219.386 107.469 219.386 112.983ZM213.803 112.879C213.803 110.348 212.346 108.44 209.918 108.44C207.456 108.44 206.034 110.348 206.034 112.879C206.034 115.411 207.456 117.319 209.918 117.319C212.346 117.319 213.803 115.411 213.803 112.879ZM226.728 121.48H221.179V97.5504H226.728V121.48ZM235.171 121.48H229.622V97.5504H235.171V121.48ZM253.255 121.48H247.949L247.845 119.677C247.116 120.405 245.729 121.862 242.955 121.862C239.937 121.862 236.747 120.232 236.747 116.417C236.747 112.602 240.25 111.319 243.406 111.18L247.706 111.007V110.625C247.706 108.822 246.423 107.885 244.203 107.885C242.018 107.885 239.833 108.856 238.966 109.411L237.51 105.805C238.966 105.076 241.637 104.07 244.827 104.07C250.168 104.07 253.255 106.29 253.255 111.839V121.48ZM247.741 113.955L245.001 114.128C243.301 114.197 242.296 114.926 242.296 116.209C242.296 117.527 243.371 118.324 244.897 118.324C246.388 118.324 247.394 117.353 247.741 116.764V113.955ZM267.197 104.383L266.885 109.481H266.642C266.33 109.307 265.602 109.065 264.631 109.065C261.891 109.065 261.197 111.631 261.197 113.885V121.48H255.648V104.383H261.197L261.163 106.81H261.232C262.203 104.938 263.625 104.07 265.463 104.07C266.608 104.07 267.197 104.383 267.197 104.383ZM275.095 107.053C275.095 108.926 273.742 110.001 271.835 110.001C269.893 110.001 268.54 108.926 268.54 107.053C268.54 105.18 269.893 104.07 271.835 104.07C273.742 104.07 275.095 105.18 275.095 107.053ZM275.095 118.879C275.095 120.752 273.742 121.862 271.835 121.862C269.893 121.862 268.54 120.752 268.54 118.879C268.54 117.006 269.893 115.897 271.835 115.897C273.742 115.897 275.095 117.006 275.095 118.879Z" fill="#003561"/>
</svg>
