<svg width="161" height="163" viewBox="0 0 161 163" fill="none" xmlns="http://www.w3.org/2000/svg">
<path d="M110.997 16.2444V18.0372C111.408 18.2199 111.801 18.4233 112.215 18.5785C115.095 19.6438 117.996 20.654 120.852 21.7814C121.608 22.0779 122.263 22.6709 122.898 23.2053C123.805 23.9706 124.64 24.8222 125.537 25.6014C125.84 25.8634 126.241 26.0151 126.775 26.3151C126.734 25.86 126.761 25.5841 126.679 25.3428C126.489 24.7843 126.237 24.243 126.037 23.6879C125.989 23.55 126.044 23.3707 126.054 23.1984C126.216 23.1846 126.344 23.1294 126.41 23.1708C127.465 23.85 128.531 24.5119 129.545 25.2463C129.79 25.4256 129.904 25.8289 130.007 26.1496C130.101 26.4426 130.094 26.7701 130.135 27.139C130.911 27.8355 131.898 28.1871 132.857 28.5974C133.854 29.0249 134.84 28.625 135.923 28.5078C135.91 28.8422 135.916 29.0697 135.885 29.2938C135.854 29.5007 135.789 29.7007 135.73 29.9006C135.251 31.4934 135.706 32.8553 136.765 34.0689C137.134 34.4895 137.469 34.9377 137.838 35.3583C138.373 35.972 138.983 36.4719 139.79 36.7201C140.073 36.8063 140.37 37.0028 140.553 37.2373C141.774 38.7853 143.461 39.7299 145.068 40.7746C146.631 41.7882 147.824 43.0879 148.666 44.7704C149.463 46.3632 150.46 47.8526 151.281 49.4317C152.654 52.0691 153.75 54.7859 154.361 57.744C155.417 62.8672 155.472 68.0249 155.306 73.1964C155.203 76.4062 154.934 79.616 154.654 82.8154C154.371 86.0872 154.026 89.3522 153.626 92.6102C153.181 96.2475 152.757 99.8986 152.115 103.505C151.246 108.414 149.818 113.165 147.152 117.447C146.155 119.047 145.068 120.595 143.944 122.105C142.567 123.953 141.16 125.78 139.67 127.539C138.566 128.842 137.31 130.014 136.123 131.248C134.588 132.844 132.808 134.151 131.015 135.423C129.821 136.268 128.555 137.023 127.293 137.761C126.475 138.24 125.861 138.902 125.437 139.705C124.768 140.974 123.802 141.967 122.729 142.874C121.794 143.667 120.859 144.446 120.252 145.546C119.79 146.38 119.035 146.883 118.134 147.152C116.358 147.68 114.578 148.19 112.798 148.697C110.549 149.338 108.293 149.969 106.044 150.603C104.664 150.993 103.281 151.365 101.911 151.776C99.938 152.369 97.9752 153 96.0021 153.603C95.5019 153.755 94.988 153.875 94.4774 153.979C92.287 154.417 90.0931 154.865 87.8958 155.268C87.1438 155.406 86.3676 155.444 85.5984 155.482C83.3286 155.589 81.0519 155.82 78.789 155.723C76.2123 155.613 73.6217 155.43 71.0863 154.868C68.9752 154.399 66.8675 153.906 64.7598 153.406C62.5142 152.875 60.272 152.338 58.0333 151.783C53.1764 150.576 48.2988 149.421 43.8454 147.028C41.5998 145.822 39.3714 144.577 37.1879 143.267C34.7905 141.829 32.4448 140.309 30.0957 138.795C29.5127 138.419 28.9573 137.975 28.4813 137.475C26.3702 135.265 24.028 133.331 21.5719 131.524C19.0607 129.68 16.6219 127.752 14.4935 125.463C12.9654 123.818 11.6994 121.991 10.5059 120.085C9.42617 118.361 8.85699 116.465 8.25677 114.568C7.61172 112.538 7.01841 110.493 6.3906 108.459C5.82832 106.639 5.60065 104.77 5.54546 102.877C5.49717 101.164 5.57305 99.4573 5.86281 97.7576C6.05253 96.6371 5.83522 95.5235 5.62824 94.4271C5.38333 93.1308 5.45232 91.8793 5.81796 90.5968C6.48717 88.2489 7.04945 85.8666 7.66002 83.5015C8.05326 81.9811 8.45684 80.4607 8.85353 78.9402C9.15019 77.8059 9.18816 76.6717 8.89495 75.5236C8.75697 74.9858 8.67416 74.4238 8.64312 73.8687C8.47754 70.952 8.7604 68.0766 9.44341 65.2358C9.90219 63.3326 10.3023 61.4157 10.6714 59.4954C11.1233 57.1441 12.0133 54.9479 12.9309 52.7587C14.0278 50.1453 15.3662 47.6423 16.9116 45.2772C18.6088 42.6777 20.4612 40.1781 22.2894 37.6682C23.1725 36.4546 24.1315 35.2928 25.1042 34.1481C27.2567 31.6141 29.6093 29.2973 32.2309 27.2218C34.6214 25.329 37.1465 23.65 39.6991 22.002C41.517 20.8298 43.3315 19.6404 45.1045 18.3992C46.7948 17.2167 48.3712 15.8755 50.0994 14.7585C52.0104 13.5242 54.1009 12.6382 56.274 11.9176C59.3096 10.9143 62.4625 10.4558 65.567 9.7766C69.5305 8.91468 73.5044 8.11482 77.4679 7.25635C80.8656 6.522 84.0806 7.14948 87.161 8.58026C90.4656 10.1145 93.8496 11.4108 97.3267 12.5037C99.9587 13.3311 102.549 14.2965 105.147 15.2411C105.982 15.5445 106.816 15.7307 107.703 15.71C108.369 15.6928 109.034 15.6824 109.697 15.7031C110.149 15.7169 110.618 15.7376 110.99 16.2341L110.997 16.2444ZM124.481 28.1285C123.343 27.6562 122.291 26.9701 121.053 27.4218C121.608 28.0596 122.343 28.5526 123.005 29.0559C123.936 29.0697 124.364 28.8146 124.481 28.1285ZM135.382 34.5826C134.64 34.7825 134.243 35.2376 133.795 35.6651C134.116 36.1512 134.468 36.0754 134.826 35.872C135.275 35.6169 135.603 35.2928 135.382 34.5826ZM133.416 30.8108C132.53 30.3327 131.939 30.15 131.643 30.2626C132.374 31.1211 132.564 31.1901 133.416 30.8108Z" fill="#48CE65"/>
<path d="M45.6145 96.2757C45.6145 96.2757 45.664 96.284 45.6888 96.2757C45.8044 96.2674 45.9118 96.2757 46.0275 96.284L46.424 96.0684L46.8205 95.9026L47.2418 96.1265L47.6466 96.0601L48.0431 95.7947L48.4561 95.9026L48.8609 95.745L49.2821 95.9523L49.6869 95.8196L50.0917 95.6372L50.513 95.8611H50.9177L51.3225 95.7035L51.7355 95.8445L52.132 95.5128L52.5533 95.8445L52.9498 95.463L53.3629 95.6372L53.7676 95.4962L54.1807 95.5625L54.5854 95.5045L54.9985 95.7284L55.4032 95.6786L55.808 95.405L56.221 95.7118L56.6258 95.4962L57.0306 95.6704L57.4353 95.3635L57.8401 95.2474L58.2449 95.5625L58.6496 95.3718L59.0544 95.4879L59.4592 95.6289L59.8639 95.5377L60.277 95.2225L60.6817 95.3884L61.0865 95.4962L61.4913 95.5791L61.896 95.4879L62.2926 95.6289L62.7138 95.2889L63.1021 95.5294L63.5482 95.3552L63.9529 95.7367L64.399 95.6123L64.8533 95.3801C64.8533 95.3801 65.1094 95.5128 65.2829 95.4713C65.4564 95.4299 65.762 95.1479 65.8859 94.2605C66.0016 93.4313 65.6546 93.3649 65.6546 93.3649L65.2085 93.3317L64.779 93.199C64.6386 93.1825 64.4981 93.1659 64.3494 93.1659L63.9116 93.3483L63.5069 93.1244L63.0773 93.2073L62.6643 92.9834H62.243L61.8217 92.8839L61.3839 93.141L60.9791 92.7927L60.5496 93.1078L60.1365 92.8176L59.7153 92.7429L59.294 92.7098L58.8644 93.0747L58.4514 92.9337L58.0301 92.7678L57.6088 92.8259L57.1875 92.7181L56.7662 92.9254L56.3449 92.7927H55.9237L55.5106 92.9751L55.0893 92.7098L54.668 92.7678L54.2468 92.7927H53.8255L53.4042 92.7346L52.9911 92.7015L52.5864 92.7595L52.1816 92.7844H51.7686L51.3556 92.5854L50.9508 92.8342L50.5378 92.7346L50.1247 92.602L49.72 92.7761L49.3235 92.9917L48.9269 92.7927L48.547 92.9503L48.1504 92.7429L47.7622 92.7263L47.3822 92.8259L47.0022 93.0083L46.5975 92.6683H46.2257L45.8788 93.0249L45.8044 92.9834C45.8044 92.9834 45.7384 92.9751 45.6971 92.9503C45.631 92.9005 45.5649 92.9337 45.5071 93C45.3253 93.2156 45.1023 92.8093 44.9206 93.0581C44.8132 93.2073 44.7306 93.6054 44.7471 94.1361C44.7554 94.5259 44.8132 94.9406 44.8875 95.2557C45.0197 95.803 45.1849 96.0933 45.3336 96.1679C45.4162 96.2094 45.4988 96.2757 45.5897 96.2923L45.6145 96.2757Z" fill="#1B8533"/>
<path d="M107.874 68.5359L107.032 68.2871L106.164 68.6354C105.884 68.6354 105.595 68.652 105.314 68.6685L104.455 68.2207L103.604 68.5193C103.315 68.4363 103.025 68.37 102.736 68.3037L101.894 68.4529L101.076 68.8095H100.233L99.3908 68.7432L98.5482 68.6685L97.7717 69.2408L96.9292 69.0832L96.1196 69.2656L95.277 69.1081L94.4758 69.3983L93.6332 69.1164L92.8484 69.6471L92.0058 69.3569L91.2046 69.6886L90.3785 69.672L89.5607 69.7964L88.7347 69.7715L87.9086 69.73L87.0908 69.8876L86.6778 69.871H86.5787C86.5787 69.871 86.5621 69.8627 86.5621 69.8544L86.5291 69.8379L86.4134 69.9125L86.2813 69.672L86.0335 69.5061L85.9178 69.6637L85.7939 69.5061L85.6783 69.7052L85.5543 69.6388H85.4304L85.3148 69.73L85.1909 69.6471H85.067L84.9513 69.871L84.8274 69.8461L84.7118 70.0452L84.5879 70.0286L84.4557 69.7135L84.3318 69.73H84.2079L84.084 69.6139L83.96 69.5891L83.8444 69.7218L83.7205 69.6886L83.5966 69.7466L83.4727 69.5808L83.357 69.8793L83.2249 69.5642L83.1092 69.8544L82.9853 69.6057L82.8614 69.6305L82.7375 69.5559L82.6218 69.8876L82.4979 69.7881L82.374 69.73L82.2584 70.0618L82.1262 69.5974L82.0106 69.8544L81.8866 69.9457L81.7627 69.6305L81.6388 69.7383L81.5149 69.5642L81.391 69.6305L81.2671 69.672L81.1515 69.8959L81.0275 69.7881H80.9036L80.7797 69.9125L80.6558 69.5725L80.5402 70.0701L80.4163 69.6886L80.3006 69.9705L80.1767 69.871L80.0528 69.6554L79.9289 69.6803L79.805 69.5725L79.6811 69.813L79.5572 69.9622L79.4332 69.7549L79.3093 69.9705L79.1854 69.8461L79.0615 70.012H78.9376L78.8137 69.672L78.6898 69.7466L78.5659 69.871L78.442 69.5808L78.3181 69.7715L78.1942 69.8213L78.0703 69.9042L77.9463 69.6222L77.8224 69.7715L77.6985 69.9622L77.5746 69.6637L77.4507 69.9954L77.3268 69.7218L77.2029 69.5891L77.079 69.6637L76.9551 69.6222L76.8312 69.6554L76.7073 69.5725L76.5834 69.8296L76.4594 69.9705H76.2116L76.0877 69.8379L75.9721 69.5642L75.8482 69.9291L75.7243 69.9622L75.6003 70.0452L75.4847 69.6139L75.3608 69.813L75.2369 69.8959L75.113 69.7881L74.9891 69.7218L74.8652 70.0203L74.7412 69.8959L74.6173 70.0452L74.4934 69.8959L74.3695 69.9457L74.2456 69.871L74.1217 69.9622L74.0061 69.5144L73.8739 70.0369L73.75 69.9871H73.6261L73.5104 69.531L73.3865 69.9042L73.2626 69.7881L73.0148 69.5227L72.8909 69.5061L72.767 69.5974L72.6431 69.9042L72.5274 69.5891L72.4035 69.9125L72.2796 69.8213H72.1557L72.0318 69.8461L71.9079 69.73L71.784 69.6886L71.6683 69.5227L71.5361 69.8876L71.4122 69.9457L71.2883 69.9291L71.1644 69.8876L71.0488 69.7052L70.9331 69.5891L70.801 69.9788L70.6853 69.5476L70.5614 69.5808L70.4375 69.7052L70.3136 69.8959L70.1897 69.8213L70.074 69.6886L69.9501 69.6139L69.8262 69.7715L69.7106 69.4813L69.5866 69.4564L69.4545 69.8627L69.3306 69.9374L69.2149 69.531L69.091 69.7632L68.9671 69.9622L68.8597 69.4481L68.7358 69.5393H68.488L68.3558 69.9042L68.2402 69.5144L68.1163 69.6471L68.0006 69.4398L67.8684 69.9291L67.7528 69.7466L67.6371 69.4232L67.505 69.8627L67.3893 69.4895H67.2654L67.1415 69.6139L67.0093 69.9208L66.902 69.4481L66.7698 69.7383L66.6541 69.5891L66.522 69.8959L66.4063 69.5808L66.2824 69.5061L66.1502 69.813L66.0346 69.6057L65.9189 69.5227L65.795 69.6471L65.6711 69.8213L65.5472 69.8379L65.4316 69.531L65.2994 69.8461L65.1838 69.7466L65.0599 69.7964L64.9359 69.7632C64.9359 69.7632 64.9359 69.6886 64.8368 69.6471L64.4321 69.5227L63.606 69.6222L62.7799 69.6471L61.9621 69.5476L61.1361 69.5061L60.31 69.6305H59.484L58.6662 69.4978L57.8401 69.5725L57.0306 69.2491L56.2045 69.2656L55.3785 69.2988L54.5607 69.1247L53.7263 69.2656L52.9003 69.2242L52.0825 69.1247L51.2482 69.2822L50.4552 69.133L49.6456 69.2573L48.8526 69.0749L48.0431 69.133L47.2418 69.0251L46.424 69.1495L45.5979 68.9837L44.8545 69.3071L44.0202 69.672L44.0862 70.5925L44.6314 71.256L45.4492 71.4799L46.2918 71.7867L47.0848 71.6872L47.8861 71.5794L48.6543 71.936L49.4474 71.8945L50.2486 71.7784L51.0251 72.1018L51.8099 72.2511L52.6112 72.1018L53.4455 71.9277L54.2715 71.8696L55.0893 71.994L55.9071 72.1018L56.7249 72.2262L57.5592 72.0935L58.3688 72.5662L59.2114 72.276L60.0209 72.6492L60.8635 72.2096L61.6895 72.2428L62.4991 72.6492L63.3251 72.7072L64.1512 72.7984L64.5642 72.7404L64.7707 72.7072C64.8616 72.6989 64.812 72.6823 64.8451 72.6741L64.9607 72.8233L65.0929 72.5828L65.2168 72.5994L65.349 72.3506L65.4729 72.4087L65.5885 72.6243L65.7124 72.4999L65.8281 72.5911L65.952 72.4584L66.0676 72.7238L66.1998 72.5248L66.3155 72.6492L66.4311 72.815L66.555 72.6409L66.6707 72.8897L66.8028 72.4418L66.9185 72.7155L67.0424 72.5662L67.158 72.8067L67.2902 72.558L67.4059 72.7902L67.538 72.5828L67.6537 72.7902L67.7693 72.9146L67.9015 72.6077L68.0171 72.9063L68.141 72.9809L68.265 72.8897L68.3889 72.8565L68.521 72.6409L68.6367 72.9975L68.7688 72.5165L68.8762 72.9809L69.0084 72.5248L69.1241 72.757L69.2397 72.8897L69.3636 72.9477L69.4958 72.6492L69.6114 73.0472L69.7436 72.7404L69.8675 72.558L69.9832 72.7072L70.0988 73.0472L70.2227 73.0141L70.3549 72.6658L70.4705 73.0306L70.5944 73.0638L70.7266 72.7487L70.8423 72.956L70.9662 73.0804L71.0901 72.9146L71.214 72.7238L71.3296 73.097L71.4535 72.8482L71.5692 73.0638L71.6931 72.8897L71.8087 73.097L71.9326 72.9146L72.0566 72.7238L72.1805 72.7072L72.3044 72.7736H72.4283L72.5439 73.1053L72.6678 72.9726L72.7918 73.0141L72.9157 73.1385L73.0396 72.9809L73.1635 73.0224H73.2874L73.4113 72.9975L73.5352 72.9394H73.6591L73.783 72.8648L73.9069 72.757L74.0226 73.1468L74.1465 73.097L74.2704 72.7155L74.3943 72.8814L74.5099 73.1716L74.6339 73.2297L74.7578 72.956L74.8817 72.8316L75.0056 72.9892L75.1295 72.9063L75.2534 73.0555L75.3773 72.9809L75.5012 73.097L75.6251 73.0721H75.749L75.8729 72.7736L75.9969 72.8316L76.1208 72.8067L76.2447 73.1633L76.3686 72.9643L76.4925 72.8233L76.6164 72.9228L76.7403 73.0058L76.8642 73.1468L76.9881 73.2131L77.112 73.0306L77.2359 73.097L77.3598 72.956L77.4838 73.1053L77.6077 73.1468L77.7316 73.2214L77.8555 72.8648H77.9794L78.1033 72.8399L78.2272 73.1385L78.3511 72.9643L78.475 73.1053L78.5989 73.1219L78.7228 73.2048L78.8468 72.9643L78.9707 73.0472L79.0946 73.1136L79.2185 72.9228L79.3424 72.9975L79.4663 72.7238L79.5902 72.9892L79.7141 73.097L79.838 73.0804L79.9619 73.2048L80.0858 73.1633L80.2015 72.6741L80.3254 72.8897L80.4493 72.8565L80.5732 73.1053L80.6971 72.8565L80.821 72.9975L80.9449 73.0887L81.0606 72.7072L81.1845 72.7653L81.3084 72.815L81.4323 72.8814L81.5562 73.0887L81.6719 72.8067L81.7958 72.7238L81.9197 73.0804L82.0353 72.8316L82.1592 72.6989L82.2832 72.9809L82.3988 72.8399L82.5145 72.6326L82.6466 73.0804L82.7623 72.7736L82.8862 72.9146L83.0101 72.9643L83.1257 72.6492L83.2579 72.956L83.3818 72.9394L83.4975 72.6243L83.6214 72.5828L83.7453 72.6326L83.8774 73.0472L83.9931 72.8565H84.117L84.2409 72.8233L84.3648 72.9892L84.4722 72.6409L84.6044 73.0141L84.7283 72.956L84.8357 72.6243L84.9596 72.5662L85.0918 72.8731L85.2157 72.898L85.3313 72.757L85.4552 72.9063L85.5709 72.8316L85.6948 72.7902L85.8187 72.8316L85.9343 72.6906L86.05 72.4584L86.1821 72.616L86.3143 72.9063L86.43 72.8316L86.5539 72.9146C86.5539 72.9146 86.5787 72.8897 86.6282 72.8814L87.0412 72.8316L87.859 72.6658L88.6851 72.616L89.5194 72.7321L90.3455 72.6658L91.1633 72.3921L92.0058 72.5082L92.8071 72.0853L93.6414 72.1101L94.5006 72.4004L95.3018 72.0687H96.1361L96.9292 71.7121L97.7552 71.6374H98.5813L99.4156 71.7287L100.2 71.3555L101.035 71.5296L101.844 71.4799C102.117 71.513 102.389 71.5545 102.654 71.6043L103.43 71.1399L104.24 71.4301C104.504 71.3803 104.768 71.3472 105.033 71.314L105.826 71.0735L106.611 71.4799C106.875 71.4301 107.147 71.3969 107.412 71.3638L108.172 71.5628L108.932 71.3389L109.617 70.9408L109.75 70.1862L109.865 69.4813L109.262 69.0251L108.544 68.7681L107.759 68.569L107.874 68.5359Z" fill="#1B8533"/>
<path d="M92.9971 88.2814C92.9475 88.2814 92.898 88.298 92.8484 88.3062L92.1215 88.4887C91.8571 88.6546 91.5928 88.8121 91.3367 88.9946C91.0806 89.1687 90.8163 89.318 90.5767 89.5253C90.2628 89.6 89.9489 89.6912 89.635 89.8322C89.3707 90.0229 89.1229 90.2551 88.8916 90.5122C88.6933 90.7941 88.5446 91.1259 88.396 91.441C88.1399 91.6732 87.9581 91.98 87.7516 92.2703C87.6112 92.5937 87.5864 92.9586 87.5121 93.2986C87.3138 93.6055 87.2477 93.9372 87.1156 94.2689C87.0908 94.6255 87.1651 94.9406 87.2147 95.2723C87.2808 95.5958 87.3634 95.9109 87.4708 96.1846C87.446 96.4914 87.4295 96.8148 87.4377 97.1383C87.5203 97.4368 87.6195 97.7437 87.7351 98.0339C87.8921 98.3159 88.0655 98.5812 88.2555 98.83C88.3546 99.1286 88.4868 99.4271 88.6272 99.7174C88.8998 99.9164 89.1807 100.091 89.4616 100.248C89.5772 100.555 89.7176 100.854 89.8746 101.152C90.1885 101.268 90.5024 101.368 90.8163 101.442C91.0228 101.666 91.2541 101.89 91.4937 102.089C91.7828 102.205 92.0802 102.305 92.3776 102.388C92.6502 102.529 92.931 102.653 93.2119 102.769C93.5092 102.844 93.8149 102.894 94.1205 102.935C94.4097 103.059 94.707 103.176 95.0209 103.275C95.3348 103.275 95.657 103.275 95.9709 103.234C96.2765 103.126 96.5822 103.01 96.863 102.869C97.1852 102.927 97.5074 102.952 97.846 102.96C98.1352 102.802 98.3995 102.62 98.6639 102.429C98.9695 102.355 99.2834 102.263 99.589 102.147C99.8121 101.89 100.019 101.625 100.2 101.351C100.423 101.119 100.622 100.878 100.803 100.621C101.092 100.464 101.365 100.265 101.638 100.057C101.77 99.7505 101.861 99.4354 101.943 99.1286C102.1 98.8632 102.265 98.5812 102.389 98.2993C102.538 98.0173 102.645 97.7271 102.761 97.4368C102.778 97.13 102.802 96.8231 102.794 96.5246C102.72 96.2177 102.621 95.9192 102.522 95.6372C102.596 95.3553 102.604 95.0567 102.645 94.7582C102.645 94.4596 102.695 94.1694 102.645 93.8542L102.505 92.9254C102.365 92.6352 102.199 92.3449 102.051 92.0712C101.968 91.7561 101.795 91.4659 101.662 91.159C101.406 90.9351 101.051 90.7941 100.77 90.6366C100.622 90.338 100.39 90.1224 100.184 89.857C99.8699 89.6912 99.5312 89.6165 99.2173 89.5087C98.9695 89.2765 98.7134 89.0277 98.4325 88.8121C98.1021 88.7707 97.7717 88.7126 97.4495 88.7126C97.1191 88.7292 96.7969 88.7872 96.483 88.8453C96.483 88.8453 95.9296 88.6877 95.5579 88.7541C95.1944 88.8038 94.6327 89.1687 94.7566 90.0644C94.8392 90.8854 95.3679 90.8937 95.3679 90.8937C95.5992 90.8937 95.8305 90.8937 96.0618 90.8937C96.2931 90.9351 96.5161 90.9932 96.7309 91.0595C96.9374 91.1093 97.1604 91.1259 97.3587 91.2005C97.5817 91.1922 97.813 91.1839 98.0278 91.2005C98.2095 91.3332 98.3582 91.4907 98.4904 91.6483C98.6886 91.6981 98.8538 91.8059 99.0356 91.8971C99.1595 92.0547 99.2173 92.2703 99.2916 92.4444C99.4403 92.5605 99.5147 92.7347 99.6303 92.884C99.7212 93.0415 99.7542 93.2488 99.7955 93.4313L100.035 93.6552L100.233 93.9289C100.159 94.1694 100.126 94.3767 100.019 94.6089L100.382 95.2392C100.316 95.4631 100.192 95.687 100.101 95.9026C100.06 96.1182 100.027 96.3338 99.969 96.5412C99.9277 96.7485 99.8864 96.9558 99.8203 97.1466C99.8947 97.3788 99.9442 97.611 99.9773 97.8514C99.8616 98.0339 99.7295 98.1915 99.5973 98.349C99.4486 98.49 99.2999 98.6227 99.1347 98.7388C99.0356 98.8964 98.9199 99.0539 98.796 99.1949C98.6308 99.3027 98.4656 99.3939 98.2839 99.4686C98.1682 99.6344 98.0278 99.792 97.8791 99.9496C97.6726 100.008 97.4661 100.041 97.2678 100.074C97.0778 100.14 96.8878 100.198 96.6896 100.248C96.5078 100.348 96.3096 100.439 96.1031 100.513C95.8883 100.447 95.6735 100.364 95.4753 100.265C95.277 100.281 95.0705 100.281 94.864 100.273C94.6575 100.256 94.4592 100.215 94.2527 100.173C94.0544 100.115 93.8562 100.049 93.6662 99.9745C93.4845 99.8749 93.3027 99.7837 93.1293 99.6676C92.9558 99.5598 92.7906 99.452 92.6336 99.3276C92.4601 99.2364 92.2867 99.1203 92.1215 99.0042C91.9645 98.8798 91.8158 98.7471 91.6671 98.6061C91.535 98.4568 91.4028 98.3076 91.2789 98.15C91.2128 97.951 91.1632 97.7519 91.1302 97.5529C90.965 97.4368 90.7998 97.3041 90.6511 97.1548C90.6015 96.9558 90.5685 96.7568 90.5437 96.5578C90.5272 96.3587 90.5272 96.1514 90.5272 95.9524C90.4281 95.7782 90.3537 95.5792 90.2711 95.3884L90.0481 94.8328C90.0976 94.6504 90.2298 94.5011 90.3124 94.3518C90.2711 94.1777 90.2876 94.0284 90.2959 93.8625C90.395 93.7298 90.5354 93.6303 90.6759 93.5391C90.742 93.4147 90.8411 93.2986 90.9485 93.1991C91.0063 93.0581 91.1054 92.9337 91.2045 92.801C91.2706 92.6435 91.3863 92.5025 91.5102 92.3449C91.7167 92.3283 91.948 92.3449 92.1545 92.3698C92.2949 92.2869 92.4767 92.2371 92.6336 92.1708C92.741 91.9883 92.8897 91.8308 93.0301 91.6483H93.1458C93.2036 91.6566 93.2532 91.6317 93.311 91.6483C93.4184 91.6732 93.5092 91.6151 93.5836 91.5239C93.8314 91.2502 94.2279 91.5903 94.4757 91.3166C94.6244 91.1507 94.7401 90.7444 94.7236 90.2053C94.7236 89.8156 94.6327 89.4009 94.484 89.0941C94.2279 88.5633 93.8562 88.3228 93.534 88.298C93.3523 88.2814 93.1623 88.2565 92.9806 88.2731L92.9971 88.2814Z" fill="#1B8533"/>
<path d="M109.072 94.0201C109.072 94.0201 109.097 94.0947 109.113 94.1279C109.188 94.2937 109.229 94.4762 109.295 94.6503C109.419 94.8328 109.568 95.0152 109.675 95.2142C109.774 95.4133 109.882 95.6123 109.948 95.8113C109.906 96.0352 109.849 96.2509 109.766 96.4416C109.807 96.6406 109.791 96.8148 109.791 96.9972C109.873 97.1963 109.882 97.3704 109.931 97.5777C109.865 97.7519 109.716 97.8846 109.626 98.0338C109.609 98.2163 109.51 98.3739 109.46 98.5563C109.312 98.6724 109.089 98.7388 108.923 98.8217C108.849 98.9958 108.684 99.1202 108.552 99.2778C108.428 99.4437 108.296 99.6178 108.114 99.7754C107.883 99.8168 107.651 99.85 107.42 99.8666C107.23 99.9578 107.032 100.032 106.834 100.091C106.652 100.198 106.462 100.298 106.264 100.389C106.049 100.389 105.834 100.364 105.628 100.339C105.438 100.472 105.231 100.58 105.008 100.688C104.793 100.571 104.587 100.439 104.397 100.298C104.174 100.389 103.942 100.48 103.695 100.538C103.488 100.422 103.306 100.314 103.125 100.182C102.91 100.157 102.695 100.107 102.488 100.049C102.307 99.9329 102.133 99.8003 101.968 99.6676C101.778 99.5681 101.605 99.4519 101.423 99.3276C101.307 99.1285 101.208 98.9295 101.125 98.7305C100.977 98.5895 100.828 98.4485 100.704 98.2909C100.514 98.1831 100.316 98.0504 100.142 97.9095C100.126 97.6773 100.134 97.4368 100.151 97.2128C100.002 97.0553 99.8782 96.8811 99.7542 96.6987C99.7542 96.4831 99.7708 96.2674 99.8121 96.0601C99.6882 95.8777 99.5725 95.6786 99.4816 95.4713C99.4403 95.264 99.4238 95.0484 99.4238 94.8411C99.556 94.6503 99.7129 94.4762 99.8699 94.3186C99.8699 94.1113 99.8947 93.8957 99.9195 93.6717C100.052 93.4976 100.184 93.3317 100.341 93.1742C100.489 93.0166 100.671 92.8756 100.836 92.7346C100.96 92.5522 101.068 92.3532 101.216 92.1707C101.291 91.9302 101.398 91.6897 101.514 91.4492C101.72 91.3165 101.96 91.2502 102.175 91.1507C102.381 91.0512 102.571 90.9019 102.786 90.8438L103.389 90.6034C103.562 90.4873 103.752 90.4043 103.934 90.2965C104.141 90.2467 104.339 90.3048 104.537 90.2965C104.711 90.1224 104.909 90.0394 105.124 89.915C105.33 89.9731 105.52 90.1058 105.702 90.2053C105.933 90.1555 106.156 90.2136 106.404 90.2136C106.577 90.4126 106.726 90.6282 106.858 90.8356C107.073 90.9268 107.304 90.9848 107.519 91.1092C107.767 91.1839 108.015 91.2834 108.263 91.3912C108.263 91.3912 108.519 91.7975 108.758 91.9966C109.006 92.1873 109.51 92.3698 110.278 91.9219C110.633 91.7063 110.7 91.4161 110.683 91.2004C110.658 90.9848 110.551 90.8273 110.551 90.8273C110.353 90.5868 110.138 90.3463 109.915 90.1224C109.716 89.8736 109.502 89.6331 109.279 89.4009C109.031 89.2018 108.8 89.0028 108.527 88.8369C108.23 88.7126 107.924 88.613 107.602 88.5384C107.362 88.3228 107.073 88.1569 106.784 87.9828C106.47 87.8915 106.115 87.8916 105.793 87.8584C105.479 87.7091 105.14 87.6759 104.801 87.5847C104.455 87.5681 104.124 87.6676 103.794 87.7174C103.447 87.7174 103.141 87.8335 102.811 87.8998C102.513 88.0823 102.265 88.3062 102.034 88.5384C101.72 88.5882 101.349 88.613 101.051 88.7125L100.489 89.517C100.176 89.6165 99.9112 89.7575 99.6138 89.8819C99.3743 90.0809 99.143 90.2799 98.9117 90.4955C98.6969 90.7277 98.4821 90.9599 98.2839 91.217C98.1847 91.5405 98.1187 91.8888 98.0691 92.2205C97.8708 92.4693 97.6891 92.7429 97.5321 93.0249C97.3587 93.3069 97.2017 93.6054 97.0696 93.9288C97.0117 94.2605 96.9704 94.6006 96.9704 94.9406C96.9043 95.2723 96.863 95.6123 96.8548 95.9523C96.9456 96.284 97.0613 96.6075 97.1852 96.906C97.2017 97.2294 97.2513 97.5529 97.3091 97.8763C97.4165 98.1831 97.5404 98.49 97.6891 98.7802C97.8874 99.0456 98.0939 99.3027 98.3169 99.5349C98.416 99.85 98.5399 100.165 98.6804 100.472C98.9034 100.712 99.143 100.936 99.399 101.144C99.6386 101.359 99.8947 101.558 100.159 101.749C100.415 101.94 100.688 102.114 100.969 102.28C101.241 102.454 101.522 102.62 101.811 102.761C102.1 102.894 102.398 103.018 102.695 103.117C103.009 103.2 103.315 103.242 103.62 103.283C103.926 103.333 104.24 103.375 104.554 103.391C104.868 103.416 105.19 103.424 105.504 103.408C105.826 103.466 106.148 103.507 106.487 103.524C106.801 103.399 107.098 103.25 107.379 103.084C107.693 103.035 108.007 102.976 108.312 102.894C108.626 102.827 108.932 102.736 109.237 102.636C109.502 102.446 109.733 102.238 109.973 102.031L110.633 101.285C110.931 101.169 111.179 100.953 111.468 100.771C111.666 100.513 111.815 100.207 111.955 99.9081L112.319 99.5432L112.624 99.1202L112.839 98.6475C112.897 98.49 112.938 98.3241 112.979 98.1582L113.054 97.6524V97.1548C113.046 96.8231 112.988 96.4997 112.913 96.2011C113.029 95.8777 113.103 95.5625 113.169 95.2308C113.145 94.924 113.07 94.6503 113.012 94.3601C112.839 94.103 112.632 93.8791 112.434 93.6469V93.4893C112.418 93.4064 112.385 93.3483 112.376 93.2654C112.376 93.1161 112.294 92.9834 112.178 92.8839C111.815 92.5854 112.005 91.9966 111.583 91.7312C111.336 91.5736 110.873 91.5736 110.402 91.8307C110.063 92.0214 109.75 92.3034 109.526 92.5522C109.147 92.9834 109.006 93.34 109.039 93.5888C109.064 93.7298 109.056 93.8791 109.089 94.0118L109.072 94.0201Z" fill="#1B8533"/>
<path d="M40.2285 52.8457C40.5424 52.8291 40.8316 52.7876 41.162 52.7876H42.145C42.8306 52.7793 43.4997 52.7627 44.2184 52.7876C44.9123 52.6715 45.6392 52.5886 46.3579 52.4974H48.5387L50.736 52.5886L52.9498 52.6383L55.1719 52.9535C55.9154 52.9949 56.6588 53.053 57.4023 53.0862L59.6244 52.7544L61.7886 52.912H63.9694L66.1585 52.9452L68.3475 52.771L70.5366 52.8291L72.7339 52.6549L74.9312 52.9949L77.1285 53.1027L79.3259 52.8539L81.5232 52.771H83.7205L85.9178 53.1027L88.1151 53.0447L90.3124 53.1276L92.5097 52.8788L94.7153 53.1359L96.9126 52.7876L99.1182 53.0944L101.316 52.8374L103.521 52.8208L105.735 52.9949L107.924 52.8457L110.097 52.6466L112.269 52.6052C112.988 52.5803 113.715 52.5554 114.425 52.5471C115.144 52.6217 115.846 52.7213 116.548 52.8125C117.242 52.854 117.936 52.8954 118.58 52.9783C118.902 52.9783 119.216 52.9949 119.489 53.0115L119.844 53.0447C119.927 53.0613 120.009 53.0696 120.034 53.0613C120.059 53.0696 120.067 53.0862 120.108 53.111C120.183 53.1691 120.224 53.194 120.406 53.3101C120.538 53.4013 120.753 53.5091 120.951 53.592L120.992 53.6086H121C121.091 53.3515 120.794 54.1974 121.215 53.0281V53.0613L121.182 53.1691C121.157 53.2437 121.133 53.3101 121.1 53.3847C121.067 53.451 121.034 53.5174 121 53.5837C120.967 53.6418 120.984 53.6003 120.976 53.6086C121.017 53.6418 121.174 53.7828 121.314 53.932C121.653 54.2057 122 54.6286 122.273 55.1096C122.397 55.6653 122.471 56.2375 122.463 56.8263C122.52 57.4068 122.545 57.9956 122.496 58.6093C122.62 59.2312 122.661 59.8118 122.719 60.6659C122.636 61.4621 122.611 62.1752 122.562 62.9382L122.38 65.1607L122.463 67.3832L122.33 69.5892L121.917 71.7951L121.901 74.0093L121.81 76.2152L121.917 78.4295L121.653 82.8413L121.86 85.0555L121.645 87.2615L121.793 89.4757L121.554 91.6899L121.959 93.9207C121.95 94.0368 121.934 94.0617 121.934 94.2524C121.934 94.4266 121.934 94.6008 121.934 94.7749V94.9076C121.562 94.9822 125.197 94.2442 123.652 94.5593H123.636L123.437 94.609L123.041 94.692C122.776 94.7417 122.504 94.7832 122.24 94.8164L122.041 94.8412C121.975 94.8412 121.884 94.8578 121.917 94.8495V94.8081C121.917 94.7998 121.917 94.7666 121.909 94.7666L121.876 94.9822L121.727 95.994C121.769 96.6906 121.802 97.4121 121.81 98.1253C121.744 98.8302 121.67 99.5434 121.579 100.24C121.488 100.945 121.38 101.641 121.257 102.33C121.141 103.018 121 103.706 120.844 104.37C120.612 105.017 120.364 105.655 120.084 106.219C119.91 106.833 119.637 107.405 119.481 107.679C119.257 108.002 118.985 108.35 118.547 108.616C118.142 108.914 117.597 109.13 117.044 109.329C116.441 109.429 115.829 109.512 115.185 109.52C114.549 109.553 113.905 109.553 113.269 109.495C112.955 109.495 112.624 109.47 112.352 109.437C112.277 109.437 112.211 109.42 112.178 109.412H112.112L112.096 109.404C112.046 109.487 112.096 109.702 112.079 109.843C112.063 110.158 111.996 110.465 111.889 110.755C111.831 110.905 111.765 111.046 111.691 111.178C111.649 111.245 111.608 111.311 111.567 111.377L111.55 111.402H111.542C112.021 110.614 110.46 113.218 112.616 109.619L112.591 109.611L112.55 109.586C112.434 109.528 112.319 109.478 112.195 109.437C111.963 109.354 111.658 109.296 111.468 109.279L111.137 109.263C110.295 109.337 109.593 109.445 108.841 109.545L106.635 109.52L104.43 109.561L102.224 109.362L100.027 109.387L97.8295 109.312H95.6322L93.4349 109.412L91.2376 109.304L89.0403 109.445L86.843 109.677L84.6457 109.337L82.4566 109.362L80.2676 109.661L78.0785 109.337H75.8895L73.7004 109.188L71.5031 109.478L69.314 109.155L67.1167 109.495L64.9359 109.022L62.7386 109.163L60.5496 109.006L58.3523 109.188L56.1549 109.23L53.9741 108.997L51.7851 109.047L49.6043 108.823L47.44 108.558C46.6883 108.599 46.0605 108.624 45.3666 108.624L44.4084 108.292L43.508 107.911C42.8802 107.828 42.2524 107.729 41.6659 107.554C41.1289 107.256 40.6664 106.891 40.2946 106.518C40.0633 106.385 39.8651 106.228 39.6833 106.078L39.3116 105.73L39.0555 104.818L38.7829 103.781C38.6343 103.076 38.4938 102.38 38.3699 101.666C38.1882 100.97 38.023 100.273 37.866 99.5765C37.7256 98.8716 37.6017 98.1667 37.486 97.4618C37.4282 96.7486 37.3786 96.0354 37.3456 95.3222C37.1887 94.6256 37.0317 93.929 36.8995 93.2324C36.8004 92.5275 36.7178 91.8226 36.6517 91.1177L36.6848 88.9201L36.8252 86.7058L36.7674 84.5082L36.6021 82.3106L36.5443 80.1129L36.1809 77.9236L35.9661 75.726L36.1148 73.52C36.1396 72.782 36.123 72.0522 36.1891 71.3141L36.0074 69.1165L36.2222 66.9188L35.7844 64.4724L36.0074 62.0177C35.9413 61.1884 35.8752 60.4171 35.8422 59.6293C35.9165 58.9078 36.0157 58.2112 36.1396 57.5395C36.0157 56.959 35.9165 56.3868 35.867 55.8145C35.933 55.1345 36.0652 54.4877 36.3048 53.8325C36.0487 53.5506 35.8091 53.2603 35.5696 52.9618C35.1152 53.1359 34.6692 53.3432 34.2231 53.6086C33.7523 54.1062 33.3392 54.6784 32.9675 55.2755C32.7197 56.0965 32.5545 56.9092 32.4223 57.7053C32.2406 58.5015 32.1001 59.2976 31.9762 60.0771C32.0754 60.865 32.2075 61.6362 32.3314 62.3743L32.0671 64.6383L32.381 66.9022L32.0506 69.1662V71.4302C32.001 72.1849 32.0423 72.9395 32.0341 73.6942L32.4719 75.9499L32.2406 78.2139L32.5545 80.4032L32.7032 82.6008L32.9014 84.7985L32.9675 86.9961L32.9179 89.202L33.2071 91.408C33.0997 92.1709 33.0088 92.9422 32.9345 93.7134C33.0914 94.4598 33.2566 95.2061 33.4383 95.9442C33.5788 96.6906 33.7357 97.4204 33.9009 98.1584C34.0579 98.8965 34.2148 99.6263 34.3966 100.356C34.4544 101.111 34.537 101.857 34.6196 102.603C34.7848 103.333 34.9666 104.063 35.1483 104.793L35.52 105.863L35.9661 107.057C36.0487 107.355 36.1974 107.687 36.3213 107.919C36.4452 108.168 36.5774 108.384 36.7178 108.599C36.9987 109.022 37.3043 109.412 37.6347 109.76C38.3947 110.341 39.1877 110.797 39.989 111.129C40.815 111.427 41.6411 111.601 42.4506 111.742C43.2354 111.958 44.0201 112.132 44.8049 112.256C45.1931 112.356 45.5814 112.397 45.9779 112.464C46.3744 112.53 46.7544 112.588 47.1179 112.638L49.3234 112.663L51.5125 112.978L53.7263 112.679L55.9154 112.771L58.0879 113.277L60.2935 113.036L62.4825 113.061H64.6716L66.8524 113.409L69.0414 113.376L71.2305 113.542L73.4278 113.268L75.6169 113.194L77.8059 113.641L80.0032 113.368L82.1923 113.418L84.3896 113.442L86.5786 113.641L88.7594 113.426L90.9402 113.459L93.121 113.293L95.3018 113.376L97.4826 113.351L99.6634 113.136L101.844 113.285L104.025 113.152L106.206 113.177L108.37 113.55L110.51 113.426L110.98 113.409C110.98 113.409 111.104 113.409 111.046 113.409C110.972 113.401 110.906 113.384 110.832 113.359L110.724 113.318C110.724 113.318 110.724 113.26 110.733 113.202L110.774 113.028C110.799 112.912 110.832 112.804 110.865 112.688C110.939 112.464 111.022 112.248 111.129 112.041C111.179 111.933 111.236 111.834 111.294 111.734L111.385 111.585L111.435 111.51C110.997 112.24 112.426 109.868 110.452 113.144H110.46C110.567 113.202 110.683 113.252 110.799 113.293C110.914 113.335 111.03 113.368 111.146 113.401C111.245 113.426 111.228 113.418 111.278 113.426C111.559 113.467 111.79 113.476 111.996 113.484C112.219 113.5 112.418 113.484 112.624 113.484C113.434 113.641 114.235 113.758 115.069 113.816C115.887 113.65 116.697 113.451 117.498 113.144C118.316 112.945 119.142 112.613 119.943 112.215C120.777 111.842 121.661 111.394 122.405 110.631C122.793 110.274 123.074 109.81 123.371 109.362C123.636 108.923 123.784 108.566 123.991 108.16C124.28 107.372 124.519 106.584 124.709 105.821C124.85 105.033 124.949 104.262 125.032 103.499C125.238 102.753 125.42 102.015 125.585 101.268C125.684 100.514 125.767 99.759 125.833 99.0043C125.899 98.2497 125.965 97.495 126.006 96.732L125.949 95.571L125.899 94.9656L125.866 94.6339C125.858 94.5095 125.841 94.3768 125.816 94.2524L125.8 94.1612V94.1115H125.792C124.941 94.2856 127.692 93.7217 123.883 94.5012L124.181 94.4349L124.776 94.3105L125.792 94.1115L125.841 94.0866C125.841 94.0866 125.849 94.0534 125.858 94.0037L125.874 93.871L125.932 93.3402L126.056 92.2621L125.825 90.0811V87.8917L126.089 85.7107L125.932 83.5214L126.031 81.332L125.924 79.1427V76.9533L126.139 74.7723L126.395 72.6161L126.337 70.4516L126.155 68.2872L126.502 66.1476L126.37 63.9914C126.51 63.2782 126.667 62.5816 126.824 61.8933C126.841 61.5367 126.882 61.2133 126.915 60.8815L127.022 59.762C127.006 58.9244 126.89 58.0702 126.733 57.2326C126.585 56.3868 126.395 55.5492 126.072 54.7282C125.916 53.8574 125.651 52.9783 125.205 52.1076C124.635 51.3032 124.049 50.5568 122.834 49.8851L122.553 49.769L122.413 49.7192H122.397C122.297 49.9846 122.611 49.1138 122.173 50.3246H122.182L122.471 49.7938V49.8021L122.413 49.769L122.281 49.6943C122.14 49.6197 122.008 49.5451 121.86 49.4787C121.546 49.3377 121.281 49.2631 121.009 49.1802C120.769 49.1304 120.513 49.0807 120.298 49.0475C119.439 48.7489 118.696 48.5748 117.928 48.3923C117.159 48.4587 116.399 48.5416 115.656 48.6411C114.912 48.6162 114.185 48.6162 113.45 48.608L111.261 48.3343L109.08 48.3923L106.908 48.5001L104.752 48.4255L102.612 48.7241L100.465 48.6743L98.3169 48.608L96.1692 48.7904H94.0132L91.8654 48.5416L89.6351 48.6162L87.4047 48.9314L85.1743 48.7904L82.9522 48.4836L80.7219 48.6411L78.4915 48.467L76.2612 48.4006L74.0226 48.7904L71.7922 48.3923L69.5536 48.666L67.3232 48.525L65.0846 48.6162L62.846 48.2762L60.5909 48.6909L58.3523 48.5665C57.6171 48.608 56.8901 48.6577 56.1549 48.6826L54.0485 48.2431L51.9338 48.3094L49.7943 48.5499L47.6631 48.1518L45.4988 48.0026C44.7719 48.1187 44.0201 48.2679 43.285 48.4089C42.5332 48.3011 41.7733 48.185 40.9637 48.1353C40.6085 48.2348 40.2368 48.3675 39.8651 48.5084C39.5016 48.6411 39.1381 48.7738 38.7582 48.9645C38.0477 49.2216 37.3126 49.5699 36.6435 50.0509C36.4617 50.2914 36.2883 50.5236 36.1396 50.7558C35.9991 51.0212 35.8752 51.2866 35.7678 51.5354C35.6522 51.9417 35.6852 52.4144 35.6852 52.8042C35.8835 53.0364 36.09 53.2603 36.313 53.4759C36.7178 53.4428 37.0813 53.451 37.4034 53.4925C37.6182 53.393 37.7752 53.2686 37.9817 53.1857C38.2212 53.1276 38.3782 53.0115 38.6508 52.9866C39.1051 52.8871 39.642 52.854 40.1955 52.8457H40.2285Z" fill="#1B8533"/>
<path d="M29.916 129.583L30.8062 128.953L31.6214 128.248L32.0899 127.194L32.7832 126.366L33.5609 125.623L34.3105 124.852L35.3318 124.353L36.2126 123.714L36.6904 122.669L37.6181 122.077L38.3676 121.305L39.1547 120.572L39.7356 119.631L40.5227 118.897L41.1036 117.957L42.1624 117.486L43.0057 116.8L43.5117 115.793L44.1769 114.937L44.9172 114.156L45.9759 113.686L46.6693 112.858L47.5032 112.162L48.0279 111.165L49.0305 110.638L49.4709 109.557L50.5297 109.086L51.0731 108.108L51.8508 107.356L52.8066 106.791L53.4718 105.935L54.0809 105.023L54.8117 104.233L55.4957 103.395L56.4327 102.812L57.1916 102.05L57.7538 101.091L58.5596 100.376L59.1499 99.4446L60.19 98.9555L61.0239 98.2688L61.4268 97.1588L62.1764 96.3875L63.0009 95.682L63.5912 94.7601L64.397 94.0358L65.4746 93.5749L66.1773 92.7565L66.955 92.0134L67.5547 91.101L69.2225 89.7088L69.7378 88.7117L70.6561 88.0909L71.2276 87.1502L72.1834 86.5576L72.5301 85.4006L73.5045 84.8362L74.0199 83.8391L74.7601 83.0489L75.5097 82.2682L76.2499 81.478L77.1962 80.876L77.8802 80.0294L78.4987 79.1264L79.1358 78.2328L79.9884 77.5367L80.7943 76.803L81.5064 75.9846L81.8812 74.8558L82.5933 74.028L83.2492 73.1532L84.158 72.476L84.8327 71.5729L85.6103 70.7451L86.3037 69.8515L86.8565 68.9485L87.6061 68.2242L88.0934 67.3023C88.2152 66.9637 88.3838 66.6439 88.5244 66.3146L89.5551 65.7973L90.2016 64.9695C90.3234 64.6121 90.4452 64.264 90.5764 63.9066L91.5883 63.3798L92.2723 62.5708L93.0781 61.8747L93.4716 60.8024L94.4648 60.2662L94.8022 59.1374L95.9265 58.7235L96.4606 57.7735L97.2758 57.0774L97.763 56.0709L98.3814 55.1867L99.2528 54.547L99.8619 53.644L100.715 52.9761L101.595 52.3365L102.101 51.3394L103.179 50.8973L103.666 49.872L104.575 49.2699L105.128 48.3105L105.915 47.5862L106.777 46.9277L107.489 46.1281L108.267 45.385L109.204 44.8018L109.785 43.8611L110.469 43.024L111.349 42.3937L112.324 41.867L113.12 41.1521L113.823 40.3337L114.619 39.6188L115.153 38.6217L115.819 37.7657L116.812 37.2577L117.711 36.6463L118.32 35.7339L119.286 35.1977L119.763 33.956L120.841 33.354L121.534 32.3475L122.462 31.7361L122.602 30.5602L123.118 29.4785L122.303 28.3121L121.113 27.8418L119.913 27.7947L118.976 28.3967L117.889 28.8483L117.421 29.9582L116.381 30.4662L115.856 31.5291L114.76 31.9806L113.954 32.7332L113.083 33.4198L112.595 34.5204L111.499 34.9719L110.928 35.9314L110.206 36.731L109.532 37.5776L108.735 38.3019L107.836 38.9133L107.245 39.8445L106.074 40.1832L105.531 41.1615L104.884 42.0363L104.2 42.8735L103.198 43.3908L102.42 44.1339L101.801 45.037L100.696 45.4509L100.002 46.2786L99.4871 47.2851L98.6906 48.0094L97.7911 48.6303L97.1446 49.5051L96.1983 50.0883L95.8235 51.2265L95.0739 51.9978L93.9308 52.4023L93.481 53.4653L92.7783 54.2836L92.1036 55.1302L91.0823 55.657L90.4264 56.5224L89.5738 57.2091L89.1428 58.2814L88.5244 59.1845L87.3906 59.636L86.9502 60.6989C86.6972 60.9529 86.4443 61.2163 86.2007 61.4891L85.4698 62.3074L84.5516 62.9753L84.0643 63.9912L83.3429 64.8472L82.8275 65.8537L82.0686 66.6627L81.4689 67.4811L81.066 68.4593L80.2883 69.146L79.7448 70.0585L79.0421 70.8486L78.0114 71.3472L77.4961 72.2878C77.3274 72.6076 77.1494 72.9181 76.962 73.2285L75.9126 73.7176L75.5003 74.7712L74.8632 75.6272L73.9262 76.201L73.0829 76.8594L72.3708 77.6496L71.8273 78.5902L70.9091 79.1922L70.197 79.9824L69.4755 80.7631L68.9601 81.7414L68.0044 82.2964L67.5172 83.2935L66.7957 84.0837L65.8494 84.6575L65.2965 85.6075L64.5095 86.3224L63.9098 87.2255L63.2164 88.0344L62.3263 88.6553L61.4081 89.2385L60.7897 90.1133L60.2931 91.101L59.3092 91.6183L58.7845 92.5778L57.7351 93.0293L56.9855 93.7724L56.5264 94.7978L55.9642 95.7196L54.9241 96.1805L54.212 96.9613L53.6592 97.8925L52.591 98.3252L52.1881 99.4164L51.4573 100.178L50.4641 100.677L49.7614 101.467L49.0774 102.276L48.2247 102.916L47.7187 103.903L46.9036 104.581L46.079 105.248L45.4887 106.151L44.7485 106.904L43.7647 107.412L43.0619 108.259L42.5934 109.331L41.7033 109.989L40.6632 110.497L40.0542 111.429L39.136 112.059L38.3208 112.793L37.9366 113.95L36.8216 114.373L36.325 115.426L35.4442 116.094L34.7696 116.969L33.6921 117.43L33.2986 118.578L32.3897 119.208L31.7151 120.083L30.5907 120.44L29.9535 121.287L29.4944 122.312L28.4544 122.745L27.6298 123.403L27.2738 124.532L26.1775 124.908L25.9339 126.056L25.5403 126.987L25.7371 128.059L26.1213 129.085L26.8708 130.016L27.9952 130.543L28.9697 130.082L29.9254 129.659L29.916 129.583Z" fill="#FCD214"/>
<path d="M35.7989 41.0744C36.5244 40.4457 37.2728 39.8476 38.0289 39.2649C38.8003 38.6976 39.5182 38.0688 40.3277 37.5398C41.0456 36.9034 41.733 36.2134 42.512 35.623C43.3215 35.1016 44.1005 34.5113 44.9559 34.0436C45.8189 33.5989 46.6514 33.1005 47.5373 32.6865L50.1721 31.4214L52.9979 30.6087C53.9067 30.2637 54.8614 30.0413 55.7931 29.7653C56.679 29.3589 57.565 28.9142 58.4891 28.5769L61.3759 27.9942C62.3229 27.7412 63.2929 27.5725 64.2475 27.3578C65.2098 27.1815 66.1645 26.9361 67.142 26.8211L70.0289 26.1694C70.5177 26.1004 71.0065 26.0237 71.4953 25.97L72.9692 25.8397L75.9019 25.3413C76.9024 25.3337 77.8724 25.441 78.8499 25.4947C79.8198 25.4563 80.7898 25.533 81.7521 25.5407C82.722 25.4487 83.6919 25.418 84.6618 25.3567C85.6318 25.4027 86.6017 25.441 87.5716 25.51C88.5339 25.648 89.5039 25.7247 90.4661 25.9087C91.4055 26.1847 92.3449 26.4684 93.2614 26.8058C94.216 26.9744 95.1554 27.2121 96.0948 27.4421C97.0265 27.7105 97.9354 28.0555 98.8518 28.3622C99.7912 28.6075 100.746 28.8146 101.678 29.1059C102.556 29.5429 103.411 30.0106 104.259 30.486C105.198 30.762 106.122 31.084 107.047 31.4137C107.864 31.9658 108.673 32.5178 109.46 33.1082C110.353 33.5069 111.224 33.9516 112.095 34.3963C112.92 34.9253 113.729 35.4697 114.531 36.0294C115.287 36.6504 116.043 37.2791 116.769 37.9385C117.571 38.4905 118.357 39.0732 119.136 39.6713C119.931 40.2463 120.71 40.8444 121.473 41.4577C122.214 42.1018 122.932 42.7688 123.65 43.4435C124.375 44.1106 125.086 44.7853 125.819 45.4983L126.353 46.104L126.674 46.4414L126.789 46.6024C127.041 46.9244 127.308 47.3078 127.583 47.6911C128.171 48.4349 128.759 49.2016 129.317 49.999C129.943 50.7427 130.546 51.5171 131.134 52.3068C131.654 53.1425 132.135 53.9936 132.624 54.8523C133.158 55.6727 133.708 56.4931 134.212 57.3365C134.586 58.2565 134.915 59.1919 135.251 60.1196C135.64 61.0167 136.015 61.9214 136.366 62.8338C136.855 63.6849 137.366 64.5359 137.817 65.41L138.321 66.7901L138.779 68.1855C139.077 69.1209 139.283 70.0793 139.528 71.0224C139.841 71.9501 140.093 72.8932 140.383 73.8286C140.528 74.7946 140.704 75.753 140.826 76.7191C140.811 77.7005 140.864 78.6742 140.788 79.6479C140.864 80.6063 140.986 81.5647 140.986 82.5231C140.986 83.4815 140.994 84.4476 140.91 85.3983V86.8397C140.902 87.3151 140.857 87.7981 140.834 88.2735L140.612 89.6919L140.291 91.095C140.185 91.5627 140.093 92.0304 139.963 92.4905L139.543 93.8629C139.451 94.3306 139.398 94.8136 139.283 95.2737L138.932 96.6691C138.741 97.1061 138.565 97.5585 138.359 97.9878L137.695 99.2606L137.206 100.61L136.618 101.921L135.847 103.14C135.579 103.539 135.274 103.915 134.991 104.306C134.594 105.187 134.25 106.107 133.762 106.958C133.105 107.679 132.494 108.431 131.806 109.121L130.096 111.49C129.439 112.218 128.729 112.923 128.049 113.637C127.377 114.365 126.644 115.024 125.933 115.714L124.864 116.742L123.757 117.731C122.963 118.329 122.191 118.942 121.366 119.494C120.61 120.123 119.885 120.79 119.106 121.396C118.342 122.017 117.594 122.653 116.815 123.259C116.028 123.842 115.241 124.447 114.447 125.022L111.881 126.487C111.018 126.954 110.163 127.437 109.292 127.89C108.429 128.35 107.574 128.833 106.703 129.278C105.87 129.807 105.061 130.382 104.206 130.88C103.304 131.279 102.411 131.693 101.494 132.038L100.135 132.613L98.7602 133.142C97.8132 133.426 96.8509 133.648 95.9039 133.886C94.9721 134.177 94.0327 134.461 93.0857 134.721C92.1311 134.936 91.1764 135.151 90.2141 135.327C89.2595 135.549 88.2972 135.718 87.3349 135.894C86.3726 136.078 85.4179 136.262 84.448 136.408C83.4704 136.485 82.5005 136.546 81.5229 136.577C80.5607 136.699 79.5907 136.791 78.6208 136.86C77.6509 136.968 76.6809 137.037 75.711 137.083C75.2833 137.014 74.8556 136.929 74.4356 136.845L73.0838 136.538L72.8012 136.515C72.7172 136.515 72.6867 136.5 72.6332 136.492C71.7091 136.485 70.7392 136.446 69.7769 136.362C68.807 136.393 67.8218 136.385 66.8366 136.362L65.4084 135.986L63.9955 135.565C63.0332 135.411 62.0862 135.181 61.1239 134.99C60.1922 134.706 59.2451 134.453 58.321 134.146C57.3588 133.97 56.3812 133.847 55.4265 133.617C54.533 133.196 53.6318 132.812 52.7764 132.337C51.8218 132.107 50.8595 131.9 49.9201 131.601C49.0953 131.049 48.2552 130.543 47.4762 129.937C46.5979 129.538 45.6738 129.201 44.8184 128.733C44.0165 128.189 43.1611 127.706 42.3974 127.123C41.5726 126.64 40.7172 126.188 39.8924 125.682L37.586 123.934C36.9139 123.236 36.2647 122.515 35.6003 121.81C34.8747 121.173 34.2332 120.445 33.5382 119.763C32.8967 119.034 32.3926 118.191 31.8199 117.409C31.5526 117.002 31.2547 116.619 31.0103 116.197L30.2695 114.932L29.353 113.79C29.0552 113.407 28.7879 112.992 28.5053 112.594C28.1463 111.666 27.7187 110.792 27.4284 109.841L25.8781 107.334L24.9158 104.543C24.4652 103.669 24.1063 102.749 23.6938 101.844C23.5411 101.377 23.3654 100.909 23.228 100.441L22.8232 99.0152C22.5941 98.0492 22.3039 97.1061 22.1358 96.1247L21.3874 93.2495C21.1812 92.2758 21.0132 91.302 20.8299 90.3283C20.6924 89.3469 20.6008 88.3502 20.532 87.3611C20.3258 86.3874 20.0814 85.4213 19.8981 84.4399L19.4857 81.4804C19.4094 80.4837 19.417 79.4793 19.3864 78.4825L19.4094 76.9798C19.4094 76.4737 19.4246 75.983 19.4628 75.5153V74.0969L19.5468 72.6861C19.5468 72.2108 19.5774 71.7431 19.6308 71.2754C19.6767 70.8077 19.6996 70.3323 19.7683 69.8646C19.9516 68.9369 20.112 68.0015 20.3716 67.0968C20.4786 66.146 20.7077 65.226 20.9063 64.2829C21.2041 63.3705 21.4867 62.4505 21.8533 61.5611C22.3039 60.71 22.8385 59.8973 23.3578 59.0846L24.1292 57.8655L24.954 56.6847C25.1755 56.2554 25.4275 55.849 25.6795 55.4273C25.9239 55.0133 26.1759 54.5916 26.4432 54.1929C27.0771 53.4569 27.7492 52.7592 28.4213 52.0614L29.3148 50.689L30.2619 49.3319C31.079 48.6035 31.9191 47.8982 32.7669 47.2158C33.523 46.4261 34.2943 45.6517 35.1039 44.908C35.9134 44.3099 36.7306 43.7272 37.5707 43.1675C38.1053 42.5081 38.6628 41.8641 39.2356 41.2201C40.0222 40.5453 40.8241 39.886 41.649 39.2726C41.6108 38.8509 41.565 38.4369 41.542 38.0075C40.9234 37.9922 40.3048 37.9922 39.6862 38.0075C38.869 38.2375 38.0595 38.4905 37.2576 38.7589C36.3487 39.3109 35.4705 39.8936 34.5922 40.484C33.6757 41.0437 32.7745 41.6264 31.881 42.2321C31.1554 43.0218 30.4452 43.8269 29.7578 44.6473C28.9101 45.3067 28.0853 45.9967 27.2757 46.7098L26.2981 48.0055L25.3664 49.3319C24.595 50.0833 23.816 50.8424 23.0829 51.6474C22.7468 52.0768 22.4337 52.5215 22.1282 52.9662C21.8151 53.4109 21.502 53.8556 21.2194 54.3233C20.6008 55.2203 20.0356 56.1557 19.4781 57.0988C19.081 58.1338 18.6838 59.1612 18.3783 60.2193C17.8132 61.1624 17.3397 62.1514 16.8509 63.1482C16.5989 64.1986 16.3468 65.2413 16.1864 66.3071C15.9191 67.3421 15.7893 68.4079 15.6137 69.4583C15.5373 70.524 15.3998 71.5821 15.4151 72.6555C15.3922 73.1845 15.3387 73.7212 15.3387 74.2502L15.354 75.845C15.3234 76.9108 15.3769 77.9075 15.3845 78.9426C15.522 79.9623 15.6442 80.982 15.8428 81.9941L15.6977 85.107C15.9115 86.119 16.1635 87.1234 16.3927 88.1278L16.6829 89.6459L17.0418 91.1487C17.2709 92.1531 17.4771 93.1575 17.7292 94.1619L18.1874 97.2364C18.4012 98.2485 18.7373 99.2299 19.0122 100.227L19.5316 101.691C19.7148 102.174 19.9211 102.649 20.1196 103.133C20.3487 104.145 20.5244 105.187 20.807 106.199L22.0748 109.059C22.5941 109.972 23.1516 110.861 23.6786 111.758C24.091 112.716 24.6485 113.606 25.1296 114.526C25.3664 114.994 25.5879 115.469 25.8399 115.929L26.6342 117.294C27.2375 118.152 27.8409 119.019 28.5282 119.816L29.8342 121.794L30.3153 122.423C31.1325 123.113 31.9039 123.842 32.744 124.486L35.0046 126.686L37.1583 129.055C38.0595 129.623 39.0141 130.113 39.9382 130.635C40.3659 130.941 40.8165 131.21 41.2671 131.47L42.6189 132.26C43.5125 132.797 44.4595 133.234 45.3912 133.702C46.2542 134.3 47.1554 134.821 48.0642 135.35C49.0189 135.779 49.9965 136.132 50.974 136.485C51.921 136.929 52.891 137.305 53.8609 137.673C54.8767 137.926 55.9077 138.095 56.9311 138.287C57.9315 138.563 58.9549 138.739 59.963 138.961C60.933 139.337 61.9182 139.705 62.911 140.05C63.9573 140.134 64.996 140.219 66.0346 140.249C67.058 140.418 68.0891 140.541 69.1201 140.656C70.1587 140.763 71.1974 140.832 72.2666 140.878L72.6332 140.909L72.8012 140.924L72.8547 140.939C72.8547 140.939 72.8776 140.947 72.87 140.955L73.038 140.985L73.3588 141.039L73.985 141.139C74.3974 141.2 74.8098 141.254 75.2222 141.3C76.2838 141.277 77.3301 141.208 78.3764 141.123C79.4227 141.123 80.4614 141.085 81.5 141.031C82.5311 140.909 83.5621 140.748 84.5855 140.579C85.6165 140.479 86.6475 140.372 87.6709 140.234C88.6943 140.058 89.7101 139.858 90.7182 139.636C91.7187 139.345 92.7039 139.046 93.6814 138.708C94.6972 138.524 95.6976 138.264 96.7058 138.033C97.6757 137.673 98.6456 137.328 99.6003 136.929C100.57 136.584 101.548 136.255 102.502 135.856L104.007 135.45L105.496 134.997C106.428 134.537 107.329 134.024 108.23 133.51C109.139 133.019 110.01 132.452 110.896 131.915C111.873 131.555 112.805 131.102 113.767 130.696C114.615 130.09 115.409 129.408 116.219 128.772C117.082 128.212 117.891 127.568 118.732 126.97C119.633 126.464 120.496 125.896 121.366 125.344C122.229 124.769 123.054 124.156 123.879 123.535C124.681 122.883 125.468 122.216 126.231 121.511C126.957 120.767 127.705 120.054 128.385 119.28C129.172 118.613 129.974 117.961 130.753 117.278L132.883 115.032C133.594 114.281 134.258 113.453 134.945 112.663C135.587 111.835 136.144 110.922 136.702 110.033L137.741 108.837C138.084 108.431 138.382 107.993 138.703 107.572C139.184 106.621 139.711 105.709 140.1 104.712L140.834 103.309C141.086 102.841 141.322 102.373 141.521 101.883C142.002 100.94 142.552 100.02 142.972 99.0382C143.247 98.0032 143.575 96.9911 143.789 95.9484C144.072 94.9286 144.408 93.9166 144.637 92.8738C144.767 91.8157 144.973 90.773 145.034 89.7149L145.202 88.1355C145.263 87.6141 145.309 87.0851 145.317 86.5561C145.416 85.5057 145.576 84.4553 145.592 83.3972C145.653 82.3545 145.729 81.304 145.699 80.2536L145.523 78.6895C145.447 78.1682 145.355 77.6545 145.271 77.1408C145.156 76.6271 145.057 76.1134 144.935 75.6073L144.53 74.0969C144.461 73.0542 144.293 72.0344 144.156 70.9994C143.858 70.0026 143.461 69.0366 143.117 68.0628C142.926 67.0431 142.72 66.0234 142.499 65.0036C142.132 64.0376 141.819 63.0485 141.414 62.0978C140.925 61.1777 140.437 60.273 139.902 59.3836C139.428 58.4712 138.909 57.5818 138.397 56.6924C138.031 55.734 137.664 54.768 137.259 53.8172C136.755 52.9278 136.221 52.0461 135.679 51.172C135.075 50.3363 134.472 49.5083 133.83 48.6956C133.364 47.7755 132.868 46.8631 132.341 45.9507C131.608 45.184 130.882 44.4633 130.004 43.6965L127.827 41.5497C127.186 40.76 126.514 39.9856 125.834 39.2113C125.078 38.5212 124.307 37.8465 123.52 37.1871C122.733 36.5354 121.932 35.8914 121.114 35.2703C120.343 34.5956 119.549 33.9439 118.747 33.2999C117.861 32.7708 116.975 32.2571 116.066 31.7588C115.226 31.1684 114.386 30.578 113.523 30.0336C112.668 29.4663 111.789 28.9372 110.903 28.4082C109.972 27.9788 109.04 27.5341 108.085 27.1508L106.695 26.4837L105.282 25.8627C104.389 25.349 103.449 24.9196 102.525 24.4443C101.502 24.1222 100.501 23.7542 99.4704 23.4859L97.8895 23.1792L96.301 22.9338C95.2929 22.5965 94.2542 22.3588 93.2308 22.0751C92.2074 21.7684 91.1764 21.4771 90.1377 21.2087C89.0685 21.1397 88.007 21.017 86.9301 21.0094C85.8762 20.856 84.8146 20.7027 83.7454 20.626L82.1416 20.5417L80.5377 20.5187C79.4685 20.649 78.407 20.8714 77.3607 21.0707C76.2838 20.971 75.2451 20.9787 74.1836 20.9404L71.0905 21.5691C70.0442 21.6534 69.0055 21.7914 67.9592 21.9064C66.9282 22.1211 65.8895 22.2668 64.8738 22.5351L61.712 22.8342C60.7039 23.1715 59.7187 23.6085 58.7411 24.0226C57.7177 24.2603 56.6714 24.4366 55.6556 24.728L52.6848 25.8397C51.6766 26.0237 50.6838 26.2997 49.6757 26.5374L48.2781 27.1661L46.911 27.8792C46.0327 28.4235 45.1392 28.9219 44.3067 29.5353C43.3597 29.934 42.3898 30.2867 41.458 30.739C40.5721 31.2681 39.6633 31.7588 38.8003 32.3261C38.0442 33.0622 37.2652 33.7446 36.5549 34.5113C35.6767 35.0556 34.7526 35.5617 33.9048 36.1751L32.996 37.3405C32.6981 37.7392 32.4232 38.1455 32.1406 38.5519C31.5449 39.2649 31.0179 40.024 30.4757 40.7677C30.2619 41.3811 30.0709 42.0021 29.88 42.6155C29.8189 43.1215 29.7731 43.6275 29.7273 44.1182L30.3 44.9616L31.774 44.6166C32.4308 43.9726 33.08 43.3285 33.775 42.7305C34.4242 42.1401 35.1344 41.6034 35.8141 41.0667L35.7989 41.0744Z" fill="#FCD214"/>
</svg>
