<svg width="181" height="31" viewBox="0 0 181 31" fill="none" xmlns="http://www.w3.org/2000/svg">
<path d="M16.3059 0.30249L20.0909 11.9525H32.3413L22.4303 19.1538L26.2168 30.8038L16.3059 23.6025L6.39496 30.8038L10.1814 19.1538L0.270508 11.9525H12.5209L16.3059 0.30249Z" fill="#FCD214"/>
<path d="M53.3456 0.30249L57.1306 11.9525H69.3809L59.47 19.1538L63.2565 30.8038L53.3456 23.6025L43.4346 30.8038L47.2211 19.1538L37.3102 11.9525H49.5606L53.3456 0.30249Z" fill="#FCD214"/>
<path d="M90.3856 0.30249L94.1706 11.9525H106.421L96.51 19.1538L100.297 30.8038L90.3856 23.6025L80.4747 30.8038L84.2611 19.1538L74.3502 11.9525H86.6006L90.3856 0.30249Z" fill="#FCD214"/>
<path d="M127.425 0.30249L131.21 11.9525H143.46L133.549 19.1538L137.336 30.8038L127.425 23.6025L117.514 30.8038L121.3 19.1538L111.389 11.9525H123.64L127.425 0.30249Z" fill="#FCD214"/>
<path d="M164.464 0.30249L168.249 11.9525H180.5L170.589 19.1538L174.375 30.8038L164.464 23.6025L154.554 30.8038L158.34 19.1538L148.429 11.9525H160.679L164.464 0.30249Z" fill="#FCD214"/>
</svg>
