<svg width="174" height="184" viewBox="0 0 174 184" fill="none" xmlns="http://www.w3.org/2000/svg">
<path d="M156.115 106.043C154.718 108.361 153.475 110.434 152.218 112.501C150.476 115.368 148.352 117.937 146.001 120.298C142.932 123.385 139.771 126.376 136.665 129.426C133.806 132.239 130.505 134.42 126.921 136.139C123.204 137.919 119.447 139.635 115.634 141.193C113.233 142.173 110.696 142.822 108.216 143.602C104.36 144.816 100.47 145.899 96.4602 146.471C93.8038 146.849 91.1407 147.15 88.4877 147.555C86.5461 147.849 84.6244 148.264 82.6928 148.605C81.5757 148.803 80.4553 148.963 79.3348 149.134C78.4837 149.264 78.3241 149.522 78.2842 150.512C78.251 151.325 78.7497 151.352 79.3415 151.442C82.0145 151.857 84.6809 151.847 87.3506 151.435C87.4603 151.418 87.5833 151.365 87.6764 151.398C87.9258 151.492 88.1652 151.619 88.4079 151.736C88.1951 151.913 88.0056 152.208 87.7695 152.255C86.33 152.532 84.887 152.8 83.4342 152.987C79.4313 153.509 75.435 154.101 71.4188 154.459C67.6519 154.797 64.0014 154.144 60.4573 152.716C58.6454 151.987 56.6905 151.609 54.8054 151.067C51.7733 150.194 49.1169 148.659 46.783 146.525C45.9053 145.722 44.9345 145.02 43.9936 144.287C43.0627 143.565 42.4044 142.615 42.0786 141.518C41.3604 139.116 40.0206 137.113 38.4613 135.206C35.253 131.286 32.457 127.088 30.2095 122.533C30.0732 122.258 29.9901 121.854 30.0898 121.589C30.4655 120.583 30.1929 119.746 29.611 118.927C27.7592 116.325 26.5324 113.398 25.3555 110.458C23.5967 106.069 21.9244 101.627 21.05 96.9681C20.2488 92.7068 19.6935 88.3987 19.0918 84.104C18.9056 82.7761 19.2846 81.5519 20.0825 80.4113C21.5753 78.2773 22.2369 75.7854 22.729 73.2668C23.5535 69.0389 24.3348 64.801 25.0795 60.5565C25.3322 59.1082 25.2557 57.5896 25.6214 56.1781C26.1733 54.0608 26.8183 51.9402 27.716 49.9568C29.0924 46.923 30.635 43.9562 32.2608 41.0495C34.3088 37.3836 37.4074 34.6041 40.3697 31.7175C41.5001 30.617 42.6205 29.4898 43.6079 28.2589C46.8461 24.2318 50.8258 21.372 55.7995 19.8802C57.6979 19.3116 59.4766 18.3549 61.3484 17.686C65.9597 16.037 70.7206 15.1707 75.6012 14.7392C80.0031 14.3479 84.1789 15.1907 88.348 16.3715C90.8216 17.0739 93.2918 17.803 95.792 18.3917C96.8791 18.6459 98.0428 18.6292 99.1732 18.6393C100.53 18.6493 101.786 18.9604 103.026 19.4955C108.057 21.6697 113.097 23.8204 118.144 25.9611C121.302 27.3023 124.471 28.6101 127.639 29.928C130.861 31.2659 133.48 33.4267 135.708 36.0624C137.912 38.668 140.01 41.3606 142.138 44.0264C144.884 47.4682 147.142 51.2244 149.08 55.1747C149.386 55.7968 149.692 56.4223 149.968 57.0578C150.516 58.3288 150.363 59.5162 149.416 60.5364C148.937 61.0515 148.88 61.4128 149.585 61.7238C152.388 62.9614 153.076 65.48 153.415 68.1893C153.455 68.5105 153.312 68.9118 153.133 69.1961C152.684 69.8952 152.158 70.5474 151.676 71.2264C151.224 71.8586 150.759 72.4841 150.353 73.1464C150.18 73.4307 150.14 73.7986 150.041 74.1264C150.376 74.0695 150.729 74.0662 151.041 73.9491C152.897 73.2534 154.752 73.4842 156.587 73.9558C157.428 74.1732 157.93 74.7987 157.977 75.7286C158.003 76.2838 158.126 76.839 158.096 77.3909C158.06 78.1134 158.439 78.4011 159.044 78.5282C160.234 78.779 161.424 79.0399 162.621 79.254C163.924 79.4881 164.034 79.5684 164.104 80.8863C164.553 89.2383 162.448 96.8611 157.677 103.728C157.092 104.571 156.527 105.431 156.111 106.043H156.115Z" fill="#48CE65"/>
<path d="M95.4121 17.7081C95.4081 17.8076 95.4163 17.8663 95.4048 17.9335C95.3827 18.0945 95.3504 18.1176 95.1853 18.1015C95.0004 18.0809 94.8057 18.1934 94.6254 18.0996C94.6052 18.0818 94.4958 18.179 94.4773 18.2271C94.4531 18.3089 94.469 18.4131 94.4654 18.5258C94.3077 18.542 94.1632 18.5568 94.0056 18.573C94.0009 18.6462 94.0023 18.699 94.0037 18.7517C93.9826 18.9522 93.8934 19.0671 93.7273 19.0114C93.5211 18.9335 93.3197 19.0401 93.1017 19.0162C93.0917 19.1362 93.0745 19.2371 93.0642 19.344C93.045 19.3658 93.0194 19.3948 92.9995 19.3903C92.7954 19.3914 92.5997 19.4644 92.3938 19.3996C92.2412 19.3558 92.1648 19.4562 92.1434 19.6435C92.138 19.6903 92.1461 19.749 92.1482 19.8281C91.9906 19.8443 91.8592 19.8577 91.7346 19.8772C91.6258 20.0007 91.7691 20.1909 91.6061 20.2539C91.5085 20.297 91.3892 20.2696 91.2511 20.2772C91.2464 20.3503 91.2222 20.4322 91.2307 20.504C91.2324 20.5699 91.2604 20.6331 91.2962 20.7418C90.9273 20.7401 90.6309 20.7375 90.3081 20.7376C90.3102 20.8167 90.3258 20.9076 90.3012 20.9762C90.2767 21.0449 90.2003 21.1453 90.1541 21.1434C89.8246 21.1376 89.8444 21.3867 89.7775 21.5985C89.7579 21.6071 89.7185 21.6112 89.6791 21.6152C89.4647 21.6416 89.3472 21.7661 89.3267 21.9885C89.3267 21.9885 89.3014 22.0308 89.289 22.0585C88.88 22.0344 88.912 21.9981 88.8325 22.4822C88.6546 22.4806 88.4696 22.46 88.2921 22.4716C87.9765 22.4908 87.9765 22.4908 87.9397 22.8449C87.9404 22.8713 87.9144 22.8872 87.8892 22.9294C87.8296 22.9157 87.7763 22.8947 87.717 22.8942C87.559 22.8972 87.4947 22.9567 87.479 23.1103C87.4522 23.3444 87.4318 23.5713 87.4185 23.8172C87.3195 23.8075 87.2073 23.7992 87.0884 23.785C86.9893 23.7754 86.8771 23.7671 86.7781 23.7574C86.5998 23.7427 86.5228 23.8167 86.502 24.0303C86.4967 24.0772 86.4916 24.1372 86.4934 24.2031C86.3357 24.2193 86.2044 24.2328 86.0467 24.249C86.0213 24.5358 85.9956 24.8095 85.9705 25.1095C85.8718 25.113 85.7465 25.1061 85.608 25.1004C85.5529 25.2581 85.5038 25.3954 85.4487 25.5531C85.3826 25.5466 85.3035 25.5416 85.1781 25.5346C85.0616 25.6127 84.9462 25.7303 85.0238 25.9272C84.9911 25.9372 84.9719 25.959 84.9588 25.9603C84.7005 25.9913 84.5529 26.1364 84.5158 26.3958C84.5158 26.3958 84.4966 26.4176 84.4902 26.4249C84.3847 26.4225 84.2385 26.3714 84.1937 26.4223C84.1042 26.524 84.0622 26.6804 83.9936 26.8263C83.7221 26.8541 83.5746 27.0081 83.5512 27.2881C83.439 27.2798 83.3336 27.2774 83.182 27.2732C83.071 27.5622 83.0659 27.8668 83.061 28.1845C82.9094 28.1803 82.771 28.1747 82.6062 28.1718C82.5808 28.4586 82.5618 28.7382 82.5307 29.0587C82.4253 29.0563 82.3131 29.048 82.1682 29.0496C82.1252 29.1664 82.0761 29.3036 82.0078 29.4627C82.0078 29.4627 81.995 29.4772 81.9819 29.4786C81.7237 29.5095 81.576 29.6547 81.5389 29.9141C81.4301 30.0376 81.2865 29.8343 81.1778 29.9578C81.0499 30.1031 81.1009 30.2896 81.0592 30.4591C81.0246 30.6477 81.0164 30.8337 81.0148 31.0255C81.0112 31.1382 80.9604 31.2096 80.856 31.2467C80.5626 31.3628 80.5559 31.3569 80.5315 31.6833C80.4328 31.6868 80.3341 31.6903 80.2091 31.6965C80.1021 31.8001 80.044 31.9294 80.0349 32.0846C80.0349 32.0846 79.976 32.0973 79.9433 32.1072C79.8389 32.1444 79.7253 32.0834 79.6294 32.1924C79.5334 32.3014 79.5887 32.4015 79.5784 32.5083C79.5405 32.8228 79.4963 33.1446 79.4652 33.4651C79.3399 33.4581 79.1947 33.4466 79.0431 33.4424C79.0184 33.7556 78.9862 34.0365 78.9619 34.3629C78.8955 34.3433 78.8419 34.3091 78.7894 34.3145C78.6576 34.3148 78.5397 34.3402 78.518 34.5143C78.4958 34.6752 78.4805 34.842 78.4715 35.0015C78.4635 35.2006 78.4248 35.2311 78.2068 35.2072C78.1539 35.1994 78.101 35.1916 78.0151 35.1806C77.978 35.5215 77.9394 35.8097 77.9076 36.1038C77.7628 36.1055 77.6112 36.1012 77.4401 36.1056C77.439 36.5684 77.4175 37.0003 77.3234 37.4329C77.1658 37.4491 77.0344 37.4626 76.8899 37.4775C76.8712 37.7702 76.8586 38.0425 76.8329 38.3162C76.8222 38.4098 76.8182 38.5094 76.7741 38.5866C76.7428 38.6493 76.6721 38.7161 76.6071 38.7492C76.3269 38.8639 76.3266 38.8507 76.3211 39.1421C76.3214 39.1553 76.3218 39.1685 76.3221 39.1817C76.7372 39.1853 77.1458 39.1962 77.5541 39.1939C77.5776 39.0857 77.5812 38.973 77.625 38.8826C77.6687 38.7922 77.7529 38.7372 77.8583 38.7396C78.5048 38.779 79.157 38.7847 79.8089 38.7772C79.9538 38.7755 80.0993 38.8002 80.2445 38.8117C80.3007 38.6936 80.2184 38.5699 80.3342 38.4654C80.4113 38.3914 80.4888 38.3306 80.5882 38.3534C80.8793 38.4028 81.1683 38.3731 81.4583 38.383C81.9987 38.3936 82.533 38.4246 83.0801 38.4411C83.3372 38.4477 83.5871 38.4353 83.8442 38.4419C84.1208 38.4399 84.3977 38.4511 84.6679 38.4564C84.6848 38.6001 84.6883 38.7319 84.7376 38.8525C84.8007 38.998 84.9623 38.8823 85.1018 38.9274C85.0949 39.1661 85.0951 39.4238 85.0686 39.6711C85.0633 39.7179 84.9531 39.7888 84.8811 39.8028C84.5938 39.8984 84.5682 39.9274 84.5573 40.2657C84.274 40.2617 83.9971 40.2505 83.707 40.2407C83.6782 40.3957 83.6493 40.5506 83.6201 40.6925C83.0666 40.6832 82.5131 40.674 81.9198 40.6556C81.8899 40.7711 81.8603 40.8997 81.8183 41.056C81.6742 41.0841 81.5105 41.1207 81.3316 41.0796C81.2254 41.0509 81.0884 41.098 80.9634 41.1042C80.8448 41.1032 80.7259 41.089 80.6137 41.0807C80.5544 41.0801 80.5022 41.0987 80.4493 41.0909C80.0996 41.0674 80.0481 41.1123 80.0389 41.5165C79.8674 41.5076 79.6892 41.4929 79.5245 41.49C79.2674 41.4834 79.2223 41.521 79.1309 41.8014C79.1124 41.8496 79.107 41.8964 79.0889 41.9578C78.9369 41.9403 78.7853 41.9361 78.6203 41.92C78.6363 41.7795 78.6588 41.6318 78.6809 41.4709C78.53 41.493 78.4118 41.5052 78.2804 41.5187C78.2747 41.5523 78.2626 41.5932 78.2636 41.6328C78.2379 41.9064 78.2056 41.9296 77.9418 41.917C77.612 41.898 77.2764 41.9127 76.9537 41.9128C76.9053 42.0764 76.8757 42.205 76.827 42.3554C76.7542 42.3431 76.6879 42.3234 76.6087 42.3184C76.5427 42.3119 76.4773 42.3318 76.3722 42.3426C76.3957 42.2345 76.4267 42.1586 76.4381 42.0913C76.4495 42.0241 76.441 41.9522 76.4325 41.8804C76.1913 41.8919 76.0372 42.0444 75.9703 42.3377C75.6934 42.3265 75.4101 42.3225 75.1132 42.3068C75.0725 42.7604 75.0314 43.2009 75.0034 43.64C74.8717 43.6403 74.7268 43.642 74.5557 43.6463C74.5356 43.8864 74.5078 44.0809 74.4999 44.28C74.4902 44.4132 74.4269 44.5123 74.308 44.498C74.1298 44.4833 74.0743 44.6278 73.9453 44.7336C73.4114 44.7157 72.8579 44.7065 72.2976 44.6914C72.276 44.6209 72.2611 44.5563 72.2398 44.499C72.0946 44.4875 71.9495 44.4759 71.8174 44.4631C71.8267 44.3167 71.836 44.1703 71.8457 44.0371C71.6881 44.0533 71.5698 44.0655 71.4253 44.0803C71.449 43.7276 71.4676 43.4348 71.4863 43.1421C71.3343 43.1246 71.1955 43.1058 71.0635 43.093C71.1872 41.7847 71.3041 40.4706 71.4346 39.1683C71.4009 39.1387 71.3739 39.115 71.3541 39.1104C71.0182 39.1119 70.944 39.0468 71.0021 38.75C71.0894 38.3114 71.0975 37.8677 71.1386 37.4272C71.1808 37.0263 71.2229 36.6254 71.2782 36.2231C71.2997 36.0358 71.2156 35.8461 71.3226 35.6567C71.3418 35.6349 71.2535 35.5316 71.207 35.5165C71.1207 35.4924 71.0291 35.515 70.9304 35.5185C70.8849 35.0407 70.9041 35.0189 71.3333 35.0607C71.3722 34.7857 71.4242 34.5094 71.4698 34.2403C71.4429 34.2166 71.4223 34.1857 71.4024 34.1811C71.0598 34.1766 71.0666 34.1826 71.0963 33.8093C71.1317 33.4025 71.1408 32.9984 71.1894 32.5902C71.253 32.002 71.2835 31.4106 71.3734 30.8197C71.3902 30.7056 71.3675 30.5955 71.3711 30.4828C71.3741 30.3437 71.4633 30.2287 71.6004 30.1816C71.7744 30.1197 71.8697 29.9887 71.8864 29.7887C71.8864 29.7887 71.9056 29.7669 71.9504 29.716C72.4975 29.7325 73.0776 29.7522 73.6709 29.7706C73.6484 29.9183 73.6256 30.0529 73.6028 30.1874C73.748 30.1989 73.8801 30.2118 74.0189 30.2306C74.0355 30.5285 74.1734 30.6796 74.4325 30.6838C74.4199 30.9561 74.4141 31.2344 74.4022 31.533C74.4877 31.5308 74.5342 31.5459 74.5864 31.5273C74.678 31.5047 74.7576 31.5229 74.7991 31.598C74.82 31.6421 74.7823 31.7121 74.7773 31.7721C74.7469 32.1189 74.7232 32.4717 74.6864 32.8258C74.6235 33.4404 74.6199 34.0554 74.5045 34.6754C74.4934 34.7559 74.5022 34.8409 74.511 34.9259C74.5219 35.09 74.5961 35.1551 74.7403 35.1271C74.8649 35.1077 74.942 35.0337 74.9321 34.9091C74.9307 34.8564 74.9031 34.8063 74.8879 34.7286C75.0846 34.6951 75.2288 34.6671 75.3928 34.6436C75.4343 34.2163 75.4761 33.8022 75.5169 33.3486C75.5698 33.3564 75.623 33.3773 75.6759 33.3851C75.8474 33.3939 75.8989 33.349 75.9597 33.1577C75.9779 33.0963 76.0092 33.0336 76.0074 32.9677C76.0282 32.754 76.0421 32.5345 76.0497 32.3222C76.062 32.0367 76.1202 31.9977 76.4646 32.068C76.5073 31.9381 76.5496 31.7949 76.598 31.6313C76.7163 31.6191 76.8476 31.6056 76.9986 31.5835C77.0236 31.2835 77.0554 30.9894 77.0808 30.7026C77.2523 30.7114 77.3971 30.7097 77.5225 30.7167C77.5415 30.4371 77.5672 30.1635 77.5859 29.8707C77.7304 29.8559 77.8749 29.8411 78.0258 29.8189C78.0465 29.6053 78.0744 29.4107 78.0823 29.2116C78.0849 29.0593 78.1417 28.9676 78.2997 28.9646C78.4247 28.9583 78.5025 28.9107 78.5519 28.7866C78.7016 28.4672 78.7016 28.4672 79.0456 28.5244C79.0774 28.2303 79.1028 27.9434 79.1272 27.617C79.2923 27.6331 79.4307 27.6387 79.5561 27.6457C79.5835 27.438 79.5982 27.2448 79.6257 27.0371C79.676 26.6948 79.6891 26.6934 80.0597 26.7611C80.0711 26.6938 80.0826 26.6266 80.0876 26.5666C80.0834 26.4083 80.147 26.3225 80.305 26.3195C80.4566 26.3237 80.5525 26.2147 80.5959 26.1111C80.6393 26.0075 80.6362 25.8889 80.7672 25.8622C80.8524 25.8468 80.9387 25.871 81.0576 25.8852C81.0687 25.8048 81.0666 25.7257 81.0777 25.6452C81.0759 25.5793 81.0742 25.5134 81.0721 25.4343C81.2369 25.4372 81.375 25.4296 81.5266 25.4339C81.5523 25.1602 81.5784 24.8997 81.5971 24.607C81.7281 24.5803 81.8723 24.5523 82.0232 24.5302C82.0591 24.3943 82.1018 24.2643 82.1438 24.1079C82.2887 24.1063 82.4271 24.1119 82.5919 24.1148C82.5827 24.0166 82.5597 23.8934 82.5428 23.7497C82.7132 23.719 82.8574 23.6909 82.9951 23.6702C83.032 23.402 83.2015 23.2502 83.5035 23.2147C83.5185 23.0347 83.5268 22.8488 83.5351 22.6629C83.5502 22.4828 83.6905 22.3098 83.8431 22.3536C84.049 22.4184 84.2508 22.3249 84.4691 22.362C84.4653 22.217 84.4618 22.0851 84.4573 21.9137C84.5567 21.9366 84.6036 21.9648 84.6629 21.9653C84.7946 21.965 84.9125 21.9397 84.9275 21.7597C84.9375 21.6397 84.9674 21.5242 84.9774 21.4042C84.9921 21.211 85.0877 21.0888 85.2716 21.0699C85.4754 21.0556 85.6732 21.0617 85.91 21.0506C85.9136 20.9379 85.9038 20.8133 85.8996 20.6551C86.0505 20.633 86.1819 20.6195 86.3328 20.5974C86.3755 20.4674 86.4115 20.3315 86.4474 20.1956C86.4602 20.1811 86.4865 20.1784 86.4929 20.1711C86.6023 20.074 86.7203 20.3064 86.8149 20.1447C86.8714 20.0397 86.8815 19.9197 86.9171 19.7706C87.0417 19.7512 87.1798 19.7436 87.3243 19.7288C87.329 19.6556 87.3343 19.6088 87.3397 19.5619C87.3604 19.3483 87.4375 19.2743 87.6157 19.289C87.7279 19.2973 87.8533 19.3043 87.9654 19.3126C88.0645 19.3222 88.1703 19.3378 88.2498 19.3561C88.2762 19.1088 88.2966 18.882 88.3103 18.6492C88.32 18.516 88.3836 18.4302 88.5021 18.4312C88.713 18.436 88.9179 18.4612 89.1422 18.4778C89.1785 18.3551 89.2209 18.2119 89.2757 18.0411C89.5324 18.0345 89.8022 18.0266 90.0852 18.0174C90.0905 17.9706 90.1023 17.9165 90.1077 17.8697C90.1284 17.656 90.1341 17.6224 90.3308 17.589C90.4949 17.5655 90.5911 17.4697 90.6271 17.3338C90.6741 17.1174 90.7796 17.1198 90.9322 17.1636C90.9656 17.18 91.011 17.1555 91.0764 17.1356C91.0814 17.0756 91.0928 17.0083 91.091 16.9424C91.0876 16.8105 91.1579 16.7306 91.2829 16.7244C91.4338 16.7023 91.5386 16.6783 91.5664 16.4837C91.5774 16.4033 91.6744 16.3338 91.7125 16.277C91.9759 16.2764 92.2067 16.2858 92.457 16.2865C92.4634 16.2792 92.4889 16.2502 92.5017 16.2356C92.5254 15.8829 92.525 15.8697 92.8407 15.8505C93.025 15.8448 93.2096 15.8522 93.3679 15.8624C93.4894 15.7243 93.3397 15.5414 93.5155 15.4639C93.6132 15.4208 93.7321 15.435 93.8766 15.4202C93.8753 15.3674 93.8863 15.287 93.891 15.2138C93.8893 15.1479 93.8875 15.0819 93.8851 14.9897C94.2078 14.9895 94.5043 14.9921 94.7745 14.9974C94.8001 14.9684 94.8128 14.9538 94.8192 14.9466C94.8223 14.5629 94.8941 14.5357 95.2573 14.5711C95.5874 14.6032 95.6201 14.5933 95.7438 14.2897C95.8061 14.1511 95.8704 14.0917 96.0106 14.1632C96.0574 14.1914 96.1164 14.1787 96.1891 14.1911C96.1995 14.0843 96.2113 14.0302 96.2166 13.9834C96.2377 13.7829 96.269 13.7202 96.4533 13.7145C96.7032 13.702 96.9542 13.7291 97.2045 13.7298C97.31 13.7322 97.4151 13.7214 97.5138 13.7179C97.6356 13.593 97.4859 13.4101 97.6418 13.328C97.7654 13.269 97.9035 13.2614 98.0147 13.2302C98.0638 13.093 98.1129 12.9557 98.1428 12.8403C98.4786 12.8388 98.7822 12.8605 99.0844 12.8295C99.1763 12.82 99.2593 12.9701 99.3737 12.813C99.4565 12.7053 99.3945 12.5993 99.4247 12.497C99.4311 12.4898 99.4439 12.4752 99.4823 12.4316C99.7194 12.4337 99.9893 12.4258 100.266 12.4239C100.302 12.288 100.338 12.1652 100.38 12.0089C100.635 11.9232 100.887 12.0163 101.151 12.0025C101.216 11.9957 101.283 12.0153 101.348 12.0086C101.67 11.9821 101.67 11.9821 101.701 11.6353C101.7 11.6089 101.726 11.593 101.738 11.5653C102.009 11.5706 102.286 11.5818 102.582 11.5844C102.585 11.4585 102.562 11.3353 102.684 11.2104C102.8 11.1059 102.951 11.097 103.031 11.1284C103.184 11.1854 103.327 11.1179 103.472 11.1294C103.618 11.1409 103.763 11.1524 103.901 11.158C103.932 11.069 103.956 11.0003 103.981 10.9317C104.06 10.6922 104.073 10.6909 104.291 10.7016C104.469 10.7163 104.654 10.7237 104.845 10.7239C105.141 10.7265 105.431 10.7232 105.747 10.7172C105.745 10.6381 105.744 10.5854 105.755 10.5313C105.776 10.3308 105.866 10.2291 106.032 10.2715C106.277 10.3323 106.532 10.273 106.783 10.3001C107.028 10.3344 107.291 10.3074 107.574 10.3114C107.57 10.1663 107.567 10.0345 107.563 9.87632C107.76 9.88245 107.931 9.87805 108.096 9.88095C108.531 9.88915 108.967 9.92372 109.401 9.91873C109.572 9.91437 109.757 9.93505 109.884 9.73697C109.91 9.70791 109.981 9.68069 110.027 9.68256C110.707 9.7383 111.398 9.71356 112.078 9.75612C112.441 9.77833 112.822 9.75238 113.198 9.77324C113.95 9.81496 114.713 9.77623 115.452 9.83249C115.868 9.86249 116.282 9.82658 116.697 9.83021C116.895 9.83633 117.086 9.8497 117.31 9.85312C117.286 9.93493 117.261 9.99038 117.237 10.0722C117.928 10.0738 118.614 10.0828 119.305 10.0976C119.556 10.0983 119.8 10.1195 120.051 10.1334C120.222 10.1466 120.313 10.2387 120.321 10.4096C120.321 10.4096 120.324 10.5151 120.326 10.5678C120.813 10.5838 121.308 10.5925 121.795 10.6085C122.052 10.6152 122.067 10.6534 121.995 10.9383C121.989 10.9588 121.996 10.991 121.998 11.0438C122.413 11.0474 122.828 11.0642 123.283 11.077C123.287 11.2088 123.29 11.3407 123.301 11.518C123.486 11.5255 123.67 11.533 123.855 11.5272C124.085 11.5234 124.125 11.5457 124.132 11.7962C124.133 11.8489 124.135 11.9017 124.136 11.9676C124.235 11.9772 124.341 11.9796 124.434 12.0097C124.52 12.0471 124.582 12.1268 124.558 12.2349C124.54 12.2963 124.522 12.3576 124.498 12.4394C124.663 12.4555 124.821 12.4657 124.96 12.4845C124.944 12.6117 124.928 12.7522 124.905 12.8999C125.182 12.8979 125.439 12.9046 125.735 12.9072C125.745 13.0318 125.755 13.1563 125.772 13.3132C125.892 13.3406 126.031 13.3725 126.157 13.4059C126.164 13.4381 126.165 13.4645 126.185 13.4823C126.247 13.5751 126.065 13.6731 126.179 13.7737C126.281 13.8624 126.384 13.7989 126.483 13.8086C126.49 13.8145 126.504 13.8263 126.544 13.8618C126.565 14.4215 126.456 15.0078 126.398 15.5887C126.109 15.6009 125.944 15.7434 125.902 16.0164C125.626 16.0184 125.349 16.0204 125.046 16.0251C125.063 15.8846 125.079 15.7442 125.094 15.5773C124.824 15.5721 124.54 15.5681 124.257 15.5642C124.244 15.5523 124.217 15.5287 124.216 15.5023C124.227 15.4086 124.257 15.3196 124.262 15.2332C124.268 15.2128 124.228 15.1904 124.208 15.1859C124.101 15.1439 123.995 15.1152 123.856 15.07C123.869 15.0819 123.856 15.07 123.842 15.0582C123.825 14.6436 123.825 14.6567 123.43 14.6709C123.272 14.6739 123.114 14.6637 122.962 14.6595C122.972 14.5263 122.988 14.3858 123.003 14.219C122.72 14.215 122.456 14.2025 122.18 14.2045C122.18 14.2045 122.166 14.1926 122.165 14.1662C122.136 14.0503 122.205 13.9176 122.104 13.8157C122.009 13.7197 121.892 13.7977 121.8 13.7808C121.489 13.7268 121.173 13.7592 120.85 13.7461C120.866 13.6057 120.889 13.458 120.911 13.2971C120.476 13.2889 120.061 13.2852 119.619 13.2711C119.603 13.1406 119.586 12.997 119.575 12.8196C119.021 12.8104 118.461 12.8085 117.875 12.796C117.872 12.7037 117.863 12.6055 117.874 12.5118C117.879 12.465 117.911 12.4155 117.935 12.3469C117.705 12.3507 117.487 12.3401 117.27 12.3558C117.027 12.3741 117.008 12.4091 117.002 12.6873C116.871 12.7008 116.74 12.7143 116.595 12.7292C116.603 12.7615 116.595 12.7292 116.588 12.7233C116.559 12.6073 116.628 12.4746 116.526 12.3726C116.425 12.2839 116.315 12.3547 116.216 12.345C115.998 12.3212 115.773 12.2914 115.55 12.3011C114.971 12.3341 114.408 12.2267 113.824 12.2934C113.785 12.2974 113.757 12.2606 113.711 12.2455C113.555 12.3408 113.466 12.4689 113.51 12.6363C113.366 12.6511 113.234 12.6646 113.064 12.6822C113.064 12.6822 113.042 12.6249 113.041 12.5721C113.046 12.499 113.095 12.3881 113.062 12.3585C112.987 12.2934 112.894 12.2369 112.795 12.2273C112.623 12.2184 112.44 12.2505 112.236 12.2649C112.224 12.3321 112.213 12.3862 112.207 12.433C112.194 12.5842 112.099 12.6601 111.924 12.6605C111.35 12.6599 110.771 12.6797 110.198 12.6527C109.842 12.6364 109.485 12.5938 109.118 12.6579C109.082 12.7938 109.052 12.9356 109.004 13.1124C108.851 13.0422 108.706 13.0307 108.638 12.9452C108.59 12.8774 108.639 12.727 108.642 12.6142C108.37 12.607 108.204 12.7496 108.146 13.042C107.573 13.0282 107 13.0275 106.4 13.0164C106.392 13.1892 106.382 13.3224 106.379 13.4747C106.002 13.4142 105.595 13.4693 105.206 13.4234C105.153 13.4156 105.063 13.5042 105.032 13.5669C105.007 13.6355 105.023 13.7264 105.032 13.8378C104.868 13.8613 104.717 13.8966 104.566 13.8923C104.117 13.8723 104.111 13.8664 104.063 14.3009C103.872 14.3007 103.674 14.3078 103.477 14.3017C103.246 14.3055 103.023 14.3153 102.792 14.3059C102.383 14.2819 102.389 14.2746 102.269 14.7232C101.999 14.7179 101.716 14.7139 101.432 14.71C101.382 14.9751 101.219 15.1241 100.944 15.1568C100.9 15.2604 100.982 15.3842 100.867 15.4886C100.79 15.5626 100.693 15.6452 100.613 15.6006C100.452 15.4981 100.278 15.6284 100.104 15.5537C99.9713 15.5013 99.7756 15.5742 99.5917 15.5931C99.5621 15.7218 99.5393 15.8563 99.5104 16.0113C99.2598 15.9974 98.9828 15.9862 98.6793 15.9645C98.644 16.1267 98.6088 16.289 98.5732 16.4381C98.3094 16.4255 98.0392 16.4202 97.7623 16.409C97.7441 16.4704 97.7253 16.5054 97.7196 16.539C97.6945 16.839 97.675 16.8476 97.3849 16.8378C97.2003 16.8303 97.01 16.8565 96.7931 16.8721C96.7884 16.9453 96.7898 16.9981 96.778 17.0522C96.7573 17.2658 96.7381 17.2876 96.5201 17.2637C96.4672 17.256 96.4079 17.2554 96.3881 17.2509C96.3436 17.3149 96.3113 17.3381 96.3184 17.3572C96.3008 17.6895 96.2176 17.7839 95.9329 17.7272C95.754 17.6861 95.5907 17.736 95.3929 17.7299L95.4121 17.7081Z" fill="#FCD214"/>
<path d="M107.842 87.9924C108.145 87.6483 108.446 87.2948 108.758 86.96C109.04 86.6597 109.322 86.3563 109.634 86.0872C110.263 85.5491 110.776 84.8609 111.602 84.57C111.724 84.5262 111.768 84.2853 111.877 84.1601C111.956 84.0663 112.131 83.9255 112.175 83.9537C112.694 84.2634 112.807 83.8285 113.072 83.5501C113.489 83.1153 113.936 82.7242 114.571 82.5334C115.228 82.3363 115.85 81.9859 116.448 81.6387C117.311 81.135 118.216 81.2007 119.138 81.3196C119.332 81.3446 119.554 81.4228 119.723 81.3634C120.718 81.013 121.425 81.6074 122.173 82.0673C122.504 82.2737 122.842 82.4865 123.13 82.743C123.302 82.8963 123.396 83.1403 123.509 83.3499C123.571 83.4688 123.584 83.7065 123.643 83.7159C124.338 83.8098 124.172 84.3322 124.197 84.7639C124.244 85.5523 124.41 86.3625 124.291 87.1258C124.225 87.545 124.444 87.9392 124.253 88.3302C124.056 88.7401 123.822 89.1436 123.7 89.5753C123.334 90.8454 122.517 91.834 121.682 92.8883C122.079 92.9821 122.417 93.0541 122.749 93.1417C122.852 93.1698 122.989 93.2105 123.036 93.2887C123.34 93.7924 123.671 94.2397 124.128 94.6401C124.482 94.953 124.638 95.5036 124.845 95.9666C125.135 96.6204 125.129 97.2711 124.91 97.9718C124.685 98.6914 124.807 99.4828 124.547 100.215C124.435 100.534 124.341 100.878 124.335 101.213C124.328 101.698 123.906 101.738 123.668 101.979C123.315 102.339 123.002 102.736 122.677 103.124C122.608 103.209 122.501 103.318 122.514 103.406C122.589 104.006 122.254 104.282 121.747 104.441C121.697 104.457 121.619 104.501 121.616 104.538C121.513 105.536 120.271 105.652 120.046 106.559C120.024 106.647 119.88 106.778 119.802 106.772C119.173 106.725 119.057 107.366 118.663 107.595C117.706 108.155 117.255 109.387 116.007 109.566C115.829 109.591 115.682 109.841 115.522 109.985C115.341 110.147 115.187 110.363 114.975 110.467C114.371 110.761 113.939 111.264 113.442 111.683C112.991 112.065 112.6 112.372 111.949 112.497C111.289 112.625 110.711 113.21 110.122 113.632C109.866 113.817 109.691 114.074 109.312 113.883C109.2 113.826 108.996 113.892 108.862 113.955C108.239 114.242 107.635 114.568 107.01 114.843C106.578 115.034 106.115 115.147 105.68 115.328C105.327 115.475 104.983 115.647 104.66 115.854C104.216 116.141 103.825 116.673 103.359 116.736C102.686 116.826 102.126 117.024 101.529 117.333C100.806 117.709 99.9678 117.853 99.1826 118.109C99.0543 118.15 98.8729 118.225 98.8353 118.328C98.7039 118.71 98.4849 118.672 98.1846 118.553C98.0564 118.503 97.853 118.51 97.7373 118.578C96.8832 119.107 95.8884 119.31 95.0375 119.886C94.4368 120.293 93.6235 120.39 92.8977 120.602C91.7903 120.928 90.6922 121.256 89.6974 121.879C89.4502 122.035 89.0748 122.148 88.8058 122.082C87.9799 121.882 87.2635 122.536 86.447 122.323C86.3094 122.285 86.0622 122.342 85.984 122.445C85.6524 122.889 85.1925 122.805 84.7452 122.827C83.8067 122.874 82.8713 122.986 81.9328 122.989C81.1132 122.989 80.2935 122.849 79.4739 122.82C78.2726 122.777 77.1652 122.192 75.9357 122.285C75.5478 122.317 75.1192 122.12 74.7438 121.948C74.0618 121.635 73.4111 121.262 72.7417 120.921C72.5196 120.809 72.2943 120.69 72.0597 120.609C71.5091 120.415 70.9616 120.233 70.6332 119.68C70.5612 119.554 70.361 119.436 70.2202 119.432C69.1378 119.417 68.2775 118.669 67.2295 118.541C67.0856 118.522 66.973 118.331 66.8291 118.25C66.4975 118.062 66.1533 117.887 65.8124 117.715C65.7404 117.677 65.6278 117.696 65.5715 117.646C64.7925 116.914 63.757 116.823 62.8154 116.473C61.8487 116.113 60.9008 115.785 59.8779 115.628C59.4868 115.569 59.1458 115.228 58.7516 115.118C57.9664 114.896 57.1937 114.655 56.4241 114.383C56.0362 114.246 55.5732 114.352 55.1478 114.305C54.763 114.261 54.3813 114.167 53.9997 114.086C53.8651 114.058 53.7306 114.011 53.5992 113.97C53.252 113.861 52.8985 114.321 52.5137 113.87C52.3104 113.632 51.8536 113.585 51.497 113.517C50.962 113.413 50.4177 113.36 49.8796 113.291C49.3791 113.229 48.8754 113.201 48.3811 113.11C47.7867 113 47.2017 112.838 46.6136 112.697C46.5041 112.672 46.3884 112.597 46.2914 112.619C45.6876 112.763 45.0964 112.71 44.4801 112.659C44.1328 112.631 43.8169 112.638 43.4696 112.509C43.1693 112.4 42.8033 112.472 42.4654 112.472C41.8303 112.472 41.1922 112.462 40.5571 112.487C39.9471 112.512 39.3402 112.594 38.7301 112.619C38.2421 112.638 37.751 112.609 37.2629 112.6C37.1034 112.6 36.8782 112.531 36.7968 112.609C36.387 113.01 35.9209 112.753 35.4766 112.778C35.1888 112.794 34.8885 112.822 34.6226 112.919C33.9093 113.185 32.8926 112.584 32.7487 111.796C32.7268 111.671 32.6486 111.549 32.5767 111.439C32.4171 111.195 32.3389 110.98 32.6893 110.833C32.7393 110.811 32.805 110.776 32.8207 110.732C33.1992 109.688 34.1377 109.803 34.9699 109.653C35.5674 109.544 36.143 109.322 36.7342 109.168C37.0752 109.081 37.3975 109.053 37.7791 109.093C38.3892 109.159 39.0336 108.927 39.6655 108.815C39.9502 108.765 40.2411 108.514 40.4977 108.884C40.5352 108.94 40.6635 108.987 40.726 108.965C41.7083 108.618 42.6813 109.275 43.6604 108.987C44.3518 109.365 45.1558 108.887 45.8503 109.275C45.9191 109.312 46.0349 109.347 46.0943 109.315C46.9296 108.887 47.7336 109.506 48.5688 109.393C48.8848 109.35 49.2258 109.556 49.5605 109.6C50.4584 109.722 51.3093 110.066 52.2447 110.035C52.6983 110.019 53.155 110.319 53.6243 110.426C54.4595 110.61 55.3323 110.664 56.0738 111.161C56.4523 110.858 56.8746 111.08 57.2782 111.055C57.5504 111.039 57.8569 110.92 57.9289 111.364C57.9383 111.424 58.2104 111.502 58.3293 111.468C59.0707 111.252 59.7058 111.424 60.2501 111.952C60.4691 112.165 60.6506 112.225 60.9916 112.134C61.3388 112.04 61.8331 112.068 62.1178 112.259C63.4661 113.148 65.1429 113.329 66.438 114.339C66.851 114.665 67.4485 114.765 67.9741 114.931C68.606 115.131 69.2035 115.362 69.6634 115.875C69.7822 116.01 70.0044 116.057 70.1889 116.132C70.8866 116.41 71.5936 116.667 72.2818 116.964C72.5196 117.064 72.7073 117.277 72.9356 117.405C73.3204 117.621 73.7115 117.943 74.115 117.971C74.603 118.003 74.894 118.25 75.2131 118.516C75.5791 118.822 76.0014 118.938 76.4613 119.063C77.9504 119.476 79.5427 119.245 80.9943 119.845C81.1507 119.911 81.3697 119.811 81.5605 119.795C82.4302 119.73 83.3218 119.895 84.1696 119.576C84.7452 120.042 85.1425 119.601 85.6274 119.351C86.1029 119.104 86.6629 118.91 87.1916 118.897C87.9518 118.882 88.5649 118.547 89.2313 118.291C90.0509 117.975 90.9112 117.759 91.7527 117.505C91.8591 117.474 92.0124 117.505 92.0781 117.44C92.5755 116.952 93.2856 117.102 93.8518 116.823C93.9739 116.764 94.1178 116.742 94.2272 116.664C94.7059 116.329 95.2659 116.273 95.8165 116.17C95.9385 116.148 96.098 116.154 96.1731 116.079C96.6079 115.647 97.1648 115.481 97.7216 115.306C97.803 115.281 97.925 115.306 97.9656 115.256C98.6633 114.411 99.8333 114.524 100.659 113.936C100.822 113.82 101.075 113.839 101.288 113.798C101.385 113.779 101.535 113.804 101.576 113.748C102.114 113.035 102.993 112.985 103.725 112.678C104.197 112.481 104.62 112.34 104.948 111.884C105.111 111.655 105.589 111.637 105.93 111.552C106.397 111.436 106.869 111.349 107.338 111.249C107.366 111.242 107.404 111.233 107.413 111.214C107.842 110.316 108.912 110.451 109.553 109.891C109.756 109.713 110.038 109.628 110.285 109.5C110.407 109.437 110.545 109.387 110.645 109.297C111.061 108.918 111.411 108.302 111.884 108.198C112.534 108.055 112.794 107.576 113.216 107.238C114.149 106.49 115.037 105.686 116.004 104.986C116.77 104.432 117.433 103.787 118.072 103.102C118.55 102.586 119.076 102.111 119.548 101.588C120.008 101.085 120.443 100.553 120.865 100.015C120.937 99.9208 120.925 99.7394 120.909 99.6017C120.865 99.2013 120.997 98.8916 121.309 98.6351C121.535 98.4505 121.697 98.2409 121.497 97.9062C121.406 97.7529 121.438 97.5214 121.428 97.3243C121.385 96.5359 121.231 96.3013 120.509 96.1418C119.849 95.9947 119.173 95.9134 118.503 95.8039C118.394 95.7851 118.228 95.7257 118.181 95.7757C117.806 96.1762 117.199 96.098 116.845 96.3326C116.179 96.7706 115.409 96.8926 114.746 97.2899C114.127 97.6621 113.435 97.9218 112.816 98.2941C111.965 98.8071 110.948 99.0449 110.273 99.8426C110.238 99.8864 110.191 99.9365 110.144 99.949C108.558 100.318 107.398 101.616 105.768 101.92C105.233 102.02 104.773 102.47 104.241 102.621C102.721 103.049 101.466 104.141 99.8301 104.304C99.0981 104.376 98.3974 104.738 97.6653 104.895C97.2305 104.989 96.7612 104.954 96.3107 104.945C95.951 104.939 95.8978 105.117 95.9134 105.424C95.976 106.459 96.0386 107.498 96.0542 108.536C96.0573 108.765 95.8853 108.999 95.7789 109.225C95.6538 109.494 95.513 109.756 95.3785 110.022C95.3409 110.097 95.3159 110.226 95.2659 110.235C94.4525 110.429 94.1616 111.267 93.4764 111.668C92.9196 111.993 92.4128 112.365 91.7777 112.584C91.1927 112.785 90.7423 112.885 90.0634 112.697C88.8871 112.369 87.8954 111.771 86.8443 111.227C85.7869 110.679 84.6294 110.332 83.5157 109.888C82.9777 109.672 82.4584 109.397 81.9046 109.228C81.0725 108.971 80.306 108.518 79.3926 108.483C79.0078 108.467 78.6292 108.214 78.257 108.051C77.9066 107.898 77.575 107.704 77.2215 107.563C76.5551 107.304 75.8669 107.1 75.2131 106.813C74.7595 106.616 74.2621 106.393 73.9523 106.04C73.6958 105.749 73.4643 105.63 73.1202 105.599C72.1254 105.511 71.2745 104.857 70.2171 104.904C69.8855 104.92 69.4694 104.538 69.2035 104.238C68.8875 103.884 69.3474 103.018 69.9074 102.868C70.8459 102.617 71.7875 102.655 72.7479 102.78C73.5957 102.89 74.2683 103.412 75.066 103.615C75.967 103.847 76.8148 104.197 77.6094 104.701C77.9441 104.914 78.3915 104.954 78.7888 105.07C79.6679 105.33 80.5501 105.58 81.4229 105.858C82.1643 106.093 82.8963 106.359 83.6346 106.606C83.6878 106.625 83.7817 106.597 83.7973 106.625C84.1821 107.319 84.9673 106.978 85.5023 107.285C86.0497 107.601 86.5847 108.023 87.1791 108.164C87.9862 108.355 88.5931 108.89 89.3376 109.162C89.7662 109.318 90.0446 109.722 90.614 109.694C92.1657 109.616 93.5359 108.661 93.0479 106.809C93.0072 106.659 92.9603 106.406 93.0353 106.346C93.539 105.94 93.2356 105.758 92.8539 105.583C92.1469 105.258 91.7871 104.623 91.418 103.997C91.3335 103.856 91.2835 103.656 91.1583 103.584C90.0509 102.952 89.3251 101.845 88.249 101.207C87.4731 100.75 87.0727 99.9928 86.4501 99.4265C86.1185 99.1231 85.715 98.8978 85.3427 98.6382C85.2739 98.5913 85.1706 98.5881 85.1206 98.5318C84.2196 97.5151 82.8463 97.0021 82.1393 95.7695C82.0798 95.6631 81.9171 95.6099 81.7951 95.5442C81.4667 95.3722 81.2508 95.1907 81.1444 94.7528C81.0381 94.3054 80.6908 93.8299 80.3154 93.5515C79.8712 93.2261 79.599 92.6067 78.9077 92.6161C78.7888 92.6161 78.5604 92.3971 78.5635 92.2814C78.5823 91.5149 77.9535 91.1708 77.5781 90.6577C77.0682 89.9633 76.4425 89.4439 75.6479 89.103C75.4727 89.0279 75.3726 88.7932 75.2225 88.6462C74.9722 88.4022 74.7438 88.0581 74.4404 87.958C73.7208 87.7171 73.0608 87.4293 72.4476 86.96C72.0597 86.6628 71.5341 86.5533 71.0805 86.3406C70.6644 86.1467 70.3391 85.618 69.7666 86.0027C69.7416 86.0215 69.6602 85.9746 69.6164 85.9464C68.7812 85.3958 67.7175 85.5679 66.8572 85.083C66.7665 85.033 66.5944 85.083 66.4756 85.1299C65.7779 85.4115 65.0584 85.2832 64.342 85.302C63.7007 85.3176 63.0688 85.5929 62.4275 85.6242C60.638 85.7149 59.0395 86.5283 57.3314 86.9068C57.175 86.9413 57.0436 87.0789 56.8965 87.154C56.7432 87.2322 56.5149 87.3949 56.4304 87.3417C56.1176 87.1415 55.983 87.3855 55.7703 87.5044C55.3855 87.7171 54.9444 87.8422 54.5878 88.0894C54.0403 88.471 53.4741 88.5054 52.8328 88.4867C52.1008 88.4648 51.6284 89.128 50.9996 89.4127C50.2331 89.7568 49.4635 90.1009 48.694 90.4419C48.6689 90.4544 48.6377 90.4544 48.6095 90.4544C48.2122 90.4794 47.7961 90.517 47.5083 90.1791C47.2987 89.9351 47.477 89.3157 47.8024 88.9622C48.1778 88.5586 48.6533 88.252 48.719 87.5982C48.744 87.3542 49.0881 87.1008 49.3415 86.9319C50.036 86.4689 50.743 86.009 51.4813 85.6211C52.0945 85.2989 52.7515 85.0517 53.4053 84.8171C53.7932 84.6794 54.1592 84.3072 54.6379 84.6106C54.7004 84.6513 54.8662 84.5919 54.9476 84.5293C56.4054 83.4218 58.1885 83.1121 59.881 82.646C60.5567 82.4614 61.3388 82.6241 61.9864 82.1674C62.0458 82.1267 62.1928 82.2268 62.2929 82.2206C62.8216 82.1799 63.3503 82.1236 63.879 82.0767C64.6987 82.0047 65.5183 81.9515 66.3348 81.8639C66.607 81.8358 66.8697 81.7325 67.1669 81.6575C66.5287 80.525 66.0157 79.355 65.8343 78.0598C65.8217 77.9785 65.7998 77.8784 65.7435 77.8283C64.999 77.1495 65.2305 76.2235 65.0741 75.3851C64.8488 74.1932 64.9521 73.0013 64.877 71.8125C64.8582 71.5059 64.9208 71.1555 65.0647 70.8896C65.3775 70.3109 65.634 69.7666 65.39 69.0814C65.3212 68.8875 65.4213 68.6091 65.4964 68.3901C65.7154 67.7425 65.9093 67.0793 66.2128 66.4693C66.4505 65.9906 66.7415 65.537 66.9917 65.0584C67.486 64.1105 68.0147 63.1595 68.8562 62.4399C69.0502 62.2741 69.1034 61.9519 69.2598 61.7298C70.1483 60.4753 71.1055 59.3022 72.4883 58.5264C72.9388 58.273 73.189 57.7411 73.7991 57.6285C74.3872 57.5222 74.9597 57.275 75.504 57.0154C76.1766 56.6931 76.9806 56.7682 77.5906 56.2833C77.6532 56.2333 77.7502 56.1738 77.819 56.1895C78.7012 56.3772 79.5302 55.9204 80.4155 56.0049C81.2101 56.08 82.0204 55.9986 82.8244 56.008C83.2905 56.0143 83.7379 55.9674 84.204 56.2552C84.5387 56.4616 85.0705 56.349 85.5836 56.3834C85.7337 55.9392 85.5335 55.3792 85.6618 54.8036C86.0247 53.1862 86.6504 51.6784 87.2698 50.158C87.4356 49.7482 87.5357 49.3102 87.6671 48.8879C87.7077 48.7565 87.7046 48.575 87.7922 48.5031C88.5774 47.8555 88.7526 46.8357 89.322 46.0536C89.9132 45.2402 90.4763 44.4331 91.2647 43.7761C92.0812 43.0973 92.7882 42.287 93.539 41.53C93.5953 41.4737 93.611 41.3235 93.6579 41.3173C94.5651 41.2046 95.0093 40.3756 95.7351 39.9783C96.4359 39.5967 97.0834 39.1211 97.756 38.6894C97.9844 38.5424 98.2222 38.4047 98.4568 38.2671C98.7696 38.0825 99.0981 37.9167 99.3922 37.7071C100.249 37.1002 101.066 36.4495 102.039 35.999C102.646 35.7175 103.131 35.1825 103.703 34.8103C104.019 34.6069 104.404 34.5131 104.754 34.3567C104.929 34.2784 105.089 34.1783 105.258 34.0876C105.402 34.0094 105.549 33.8624 105.693 33.8686C106.246 33.8843 106.581 33.6465 106.791 33.1366C106.85 32.9958 107.082 32.9051 107.254 32.8394C107.432 32.7706 107.67 32.8144 107.817 32.7143C108.364 32.3326 109.034 32.27 109.609 31.9822C110.804 31.3847 112.106 31.2627 113.404 31.1188C114.709 30.9749 116.007 30.7841 117.315 30.6495C118.244 30.5526 119.182 30.465 120.114 30.4681C121.438 30.4744 122.749 30.5932 124.056 30.8654C124.948 31.05 125.817 31.466 126.775 31.3096C126.975 31.2783 127.2 31.4097 127.413 31.466C127.629 31.5224 127.873 31.6756 128.051 31.6162C128.999 31.3034 129.847 31.9353 130.76 31.8633C130.998 31.8446 131.242 31.904 131.483 31.8884C131.952 31.8571 132.421 31.7445 132.853 32.0385C132.916 32.0823 133.022 32.1324 133.078 32.1074C133.788 31.7977 134.442 32.2169 135.121 32.2544C135.831 32.2919 136.545 32.2857 137.258 32.317C137.517 32.3295 137.777 32.3827 138.031 32.4421C138.246 32.4953 138.453 32.6517 138.659 32.6454C139.482 32.6298 140.302 32.5641 141.124 32.5234C141.259 32.5172 141.397 32.5578 141.534 32.561C141.947 32.561 142.36 32.561 142.773 32.5516C142.995 32.5453 143.274 32.4327 143.433 32.5266C143.981 32.8425 144.494 32.658 145.029 32.5453C145.301 32.489 145.595 32.5297 145.873 32.489C146.461 32.4014 146.593 32.9207 146.759 33.243C146.924 33.562 146.699 33.9656 146.349 34.1095C145.736 34.3598 145.104 34.6226 144.456 34.7195C142.77 34.9729 141.096 35.3702 139.373 35.2607C139.041 35.2388 138.713 35.1544 138.381 35.1294C138.19 35.1137 137.959 35.1012 137.812 35.1951C137.414 35.4453 137.042 35.4234 136.617 35.2764C136.2 35.1325 135.788 35.0699 135.315 35.2326C134.933 35.364 134.474 35.2639 134.045 35.2639C133.698 35.2639 133.338 35.2044 133.006 35.2764C132.049 35.4829 131.214 35.0261 130.322 34.8666C129.634 34.7446 128.952 34.5162 128.239 34.7383C128.114 34.779 127.945 34.7633 127.823 34.7133C127.044 34.3879 126.227 34.4161 125.411 34.4067C125.082 34.4036 124.754 34.2878 124.422 34.2503C124.044 34.2096 123.665 34.1971 123.283 34.1752C123.205 34.1721 123.102 34.2315 123.046 34.2002C122.054 33.634 120.937 33.9406 119.892 33.8154C119.182 33.731 118.516 33.6496 117.824 33.44C117.346 33.2961 116.764 33.4807 116.226 33.5308C115.581 33.5902 114.981 33.8843 114.296 33.8186C113.88 33.781 113.439 33.9719 113.01 34.0688C112.797 34.1158 112.594 34.194 112.381 34.2409C112.243 34.2722 112.062 34.2253 111.968 34.3003C110.829 35.1763 109.403 35.3452 108.123 35.8614C105.959 36.7342 103.95 37.8479 102.129 39.3088C101.87 39.5153 101.548 39.6436 101.279 39.8375C100.415 40.4538 99.6205 41.1952 98.6883 41.6708C98.1408 41.9492 97.7091 42.5311 96.999 42.4935C96.9114 42.4904 96.805 42.5999 96.7299 42.6812C96.0042 43.4664 95.0156 43.92 94.2366 44.5926C93.5359 45.1995 92.6568 45.7627 92.2658 46.6574C91.7402 47.8618 90.9018 48.9004 90.5546 50.2081C90.4138 50.7336 90.2824 51.3562 89.7756 51.7785C89.6004 51.9255 89.6379 52.3197 89.566 52.5981C89.5097 52.8108 89.4972 53.0705 89.3626 53.2207C88.5931 54.0903 88.3991 55.2009 88.0456 56.2458C88.0175 56.324 88.0175 56.4147 87.9862 56.4898C87.9048 56.6869 87.6921 56.9684 87.7547 57.0623C87.8829 57.25 88.152 57.4158 88.3803 57.4439C89.1624 57.5347 89.5597 58.1979 89.9852 58.6578C90.492 59.2021 91.2178 59.6651 91.3492 60.5379C91.393 60.8163 91.7715 60.9039 91.9561 60.6443C92.5004 59.8841 93.4921 59.6526 93.9989 58.858C94.027 58.8142 94.0802 58.7798 94.1271 58.7579C95.1564 58.2886 96.195 57.8381 97.2148 57.3438C97.3713 57.2688 97.4933 57.0185 97.5371 56.8245C97.7216 56.0237 98.2253 55.4606 98.8291 54.9506C99.1669 54.666 99.4735 54.3406 99.7989 54.0403C100.459 53.4303 101.091 52.7545 101.807 52.2446C102.984 51.4062 103.95 50.2644 105.324 49.7044C105.934 49.4572 106.509 49.1194 107.219 49.1788C107.642 49.2132 108.033 49.0756 108.446 48.866C108.83 48.6689 109.394 48.8097 109.878 48.8097C110.022 48.8097 110.232 48.9098 110.304 48.8472C110.732 48.4593 111.089 48.7596 111.502 48.8848C112.982 49.3352 113.936 50.5084 115.037 51.4531C115.397 51.7628 115.531 52.401 115.641 52.9172C115.869 54.009 116.016 55.1196 116.188 56.2208C116.317 57.0341 116.501 57.8162 116.407 58.6859C116.345 59.2709 116.435 59.8778 116.166 60.4378C116.066 60.6443 115.947 60.9008 115.763 60.9946C114.921 61.4295 114.271 62.1615 113.32 62.4462C112.838 62.5901 112.447 63.0375 112.018 63.3503C111.568 63.6788 111.117 64.0072 110.676 64.3482C110.595 64.4108 110.564 64.5359 110.517 64.636C110.46 64.7549 110.442 64.9332 110.351 64.9896C109.268 65.659 108.392 66.5913 107.369 67.3421C106.838 67.73 106.428 68.2868 105.962 68.7655C105.812 68.9188 105.658 69.0689 105.499 69.2128C105.036 69.6414 104.582 70.0669 104.319 70.6707C104.222 70.8928 103.956 71.0461 103.762 71.2212C103.662 71.312 103.437 71.4027 103.45 71.4559C103.625 72.2974 102.345 72.3381 102.514 73.2015C102.58 73.5331 102.496 73.9523 102.339 74.2589C101.914 75.0848 102.108 75.8794 102.308 76.7021C102.417 77.162 102.527 77.6375 102.517 78.1036C102.508 78.5729 102.705 78.9076 103.052 79.0891C104.269 79.7179 105.549 79.9181 106.734 79.0797C107.204 78.7481 107.723 78.698 108.205 78.5135C109.356 78.0755 110.223 77.259 111.195 76.5739C111.906 76.0733 112.747 75.7605 113.26 75.0003C113.952 75.0785 113.952 74.3121 114.399 74.0649C114.849 73.8147 115.231 73.4393 115.653 73.1358C116.511 72.5258 117.374 71.9251 118.237 71.3213C118.65 71.0335 119.079 70.7645 119.483 70.4642C120.649 69.6039 121.904 68.9031 123.28 68.4339C123.334 68.4151 123.393 68.4057 123.437 68.3744C124.538 67.6424 125.799 67.4578 127.066 67.2295C128.123 67.0386 129.146 66.6726 130.185 66.3817C130.316 66.3441 130.46 66.219 130.569 66.2472C131.345 66.4349 131.987 65.9343 132.709 65.8436C133.006 65.8061 133.263 65.4963 133.563 65.3837C134.733 64.9426 135.956 64.6173 137.08 64.0823C138.662 63.3253 140.23 62.5494 141.882 61.9363C142.723 61.6234 143.486 61.0979 144.294 60.6787C144.412 60.6161 144.572 60.5973 144.703 60.613C145.085 60.663 145.307 60.4128 145.595 60.2344C146.127 59.9028 146.715 59.6557 147.297 59.4117C148.295 58.9925 149.29 58.5608 150.312 58.2104C150.991 57.9758 151.708 57.8475 152.418 57.7161C153.216 57.5691 154.02 57.4533 154.824 57.3595C155.728 57.2531 156.638 57.1624 157.548 57.1155C158.021 57.0904 158.54 56.8746 158.959 57.3C159.178 57.5222 159.613 57.8694 159.563 57.9664C159.325 58.4294 159.723 59.1489 158.931 59.4023C158.371 59.5806 157.846 59.8434 157.232 59.8059C156.535 59.7621 155.847 60.028 155.127 59.834C154.886 59.7683 154.558 60.0061 154.276 60.1218C154.045 60.2157 153.832 60.394 153.597 60.4159C153.025 60.4722 152.477 60.5285 152.114 61.0603C152.077 61.1166 151.958 61.1636 151.889 61.1511C151.029 60.9946 150.447 61.5953 149.743 61.8862C149.02 62.1834 148.254 62.368 147.682 62.9499C145.998 63.3346 144.825 64.7987 143.102 65.0959C143.02 65.1084 142.948 65.1616 142.873 65.1992C141.816 65.7435 140.762 66.2909 139.701 66.829C139.557 66.901 139.388 66.926 139.226 66.9542C139.088 66.9761 138.922 66.926 138.806 66.9854C138.165 67.2952 137.521 67.5986 136.904 67.9552C135.981 68.4933 135.062 68.997 133.948 69.0251C133.723 69.0314 133.513 69.2535 133.282 69.338C131.871 69.851 130.466 70.3985 128.918 70.2984C128.473 70.8458 127.779 70.3453 127.241 70.7301C126.79 71.0523 126.177 71.1524 125.636 71.3433C124.5 71.7468 123.399 72.2161 122.458 72.9919C122.398 73.042 122.307 73.0764 122.229 73.0826C121.334 73.1233 120.784 73.7271 120.158 74.262C119.473 74.847 118.685 75.31 117.937 75.8199C117.803 75.9138 117.621 75.9638 117.521 76.0827C117.277 76.3737 117.105 76.7334 116.836 76.9931C116.601 77.2214 116.145 77.1745 116.066 77.6469C116.051 77.7439 115.738 77.7877 115.569 77.8659C115.35 77.966 115.006 78.0192 114.937 78.1881C114.627 78.9201 113.967 79.2267 113.354 79.5802C112.706 79.9525 112.018 80.2497 111.364 80.6126C111.005 80.8128 110.645 81.0412 110.354 81.329C110.219 81.4604 110.223 81.7638 110.219 81.9922C110.201 83.2717 109.675 84.3666 109.031 85.4303C108.546 86.228 108.117 87.0601 107.66 87.8766C107.714 87.9236 107.77 87.9705 107.823 88.0205L107.842 87.9924ZM109.9 60.7287C109.178 60.6536 108.837 59.7464 107.995 59.8622C107.945 59.8684 107.883 59.7433 107.82 59.6839C107.038 58.9237 105.909 59.077 105.011 58.6202C104.967 58.5983 104.87 58.7172 104.792 58.7266C104.435 58.7641 104.013 58.9268 103.734 58.7923C102.868 58.3762 102.142 58.7485 101.341 58.9737C100.75 59.1395 100.099 59.0832 99.6268 59.5837C99.6143 59.5963 99.5736 59.5837 99.5455 59.5744C98.9073 59.3616 98.4818 59.906 97.9531 60.0624C97.3024 60.2563 96.7237 60.6849 96.1199 61.029C95.7789 61.223 95.4254 61.4045 95.1313 61.6547C94.1647 62.4775 93.2011 63.3096 92.272 64.1762C91.5212 64.8707 90.8173 65.6184 90.0947 66.3441C89.6661 66.7758 89.0592 66.6476 88.8684 66.0438C88.7839 65.7716 88.7902 65.4588 88.8089 65.1647C88.8371 64.7393 88.8277 64.2763 88.9935 63.9009C89.1781 63.4879 89.5159 63.1313 89.8382 62.7966C90.0665 62.5588 90.0853 62.3273 89.8757 62.149C89.3126 61.6704 88.7213 61.223 88.1238 60.7882C87.7891 60.5442 87.373 60.4034 87.0727 60.1281C86.5096 59.6088 85.7181 59.9373 85.1362 59.5368C84.7014 59.2396 84.204 59.5587 83.7097 59.3522C83.0746 59.0895 82.3364 59.0582 81.6356 58.9737C81.3728 58.9424 81.0881 59.0988 80.8285 59.0644C79.0359 58.8298 78.9828 58.8298 77.3654 59.5681C77.2747 59.6088 77.137 59.5963 77.0369 59.5618C76.4832 59.3773 76.0921 59.7089 75.6792 59.9779C75.529 60.0749 75.4039 60.2219 75.2412 60.2814C74.4529 60.5661 73.6583 60.8069 73.1671 61.5953C72.9169 61.9957 72.507 62.2898 72.213 62.6683C71.5404 63.5286 70.8866 64.4045 70.2452 65.2899C69.9199 65.7404 69.557 66.194 69.363 66.707C69.1409 67.2952 69.0971 67.9521 68.9626 68.5747C68.9157 68.7905 68.8938 69.0877 68.7499 69.1878C68.4558 69.388 68.5153 69.6571 68.437 69.9167C68.2525 70.533 68.3369 71.2087 67.996 71.7937C67.9084 71.947 67.924 72.1848 67.9522 72.3787C68.0523 73.1389 68.0929 73.9085 68.1743 74.6624C68.3119 75.9732 68.7655 77.2527 69.0909 78.5447C69.1253 78.6761 69.1722 78.8106 69.2317 78.9326C69.4225 79.3331 69.751 79.7179 69.7885 80.1308C69.8386 80.7315 70.1764 81.1006 70.4986 81.5229C70.7239 81.8201 70.8991 82.1611 71.1431 82.4395C71.2901 82.6085 71.5623 82.8431 71.7218 82.8056C72.457 82.6272 72.9137 83.1434 73.4675 83.4125C73.9868 83.6659 74.4216 84.0694 75.0348 84.1664C75.4727 84.2352 75.992 84.279 76.0734 84.9422C76.089 85.0799 76.4863 85.1769 76.7084 85.2863C76.9305 85.3927 77.1777 85.4553 77.3716 85.5961C77.6125 85.7712 77.794 86.0184 78.0255 86.2092C78.3414 86.4689 78.8076 86.6347 78.9796 86.96C79.3832 87.7296 80.0839 88.2051 80.6064 88.8464C80.744 89.0154 80.8535 89.225 81.0224 89.3532C81.4948 89.7161 82.0079 90.0289 82.4771 90.395C82.6179 90.5045 82.743 90.7266 82.7493 90.9018C82.7743 91.5931 83.303 91.8778 83.7316 92.2688C84.1508 92.6474 84.4574 93.1604 84.911 93.4795C85.7932 94.1021 86.7536 94.6151 87.2823 95.6318C87.3417 95.7476 87.5638 95.7757 87.7015 95.854C87.8329 95.929 87.9737 96.001 88.0831 96.1042C88.8183 96.7862 89.5472 97.4744 90.273 98.1658C90.4982 98.3817 90.7767 98.5788 90.9081 98.8478C91.2584 99.5642 91.8685 99.8614 92.5849 99.9677C93.1855 100.055 93.8393 100.152 94.2679 99.5485C95.3034 98.0813 96.7331 97.0083 98.0595 95.854C98.9824 95.0468 99.7113 94.1083 100.5 93.2011C101.163 92.4378 101.829 91.6745 102.452 90.8799C103.159 89.9789 103.834 89.0529 104.498 88.1175C104.889 87.5638 105.158 86.9037 105.611 86.4126C106.04 85.9496 106.225 85.4271 106.387 84.864C106.509 84.4417 106.628 84.0131 106.766 83.597C106.9 83.1966 106.716 82.865 106.306 82.865C105.805 82.865 105.299 82.9495 104.801 82.9151C103.653 82.8337 102.561 82.5772 101.673 81.7669C100.997 81.1538 100.415 80.5062 99.9271 79.696C99.4579 78.9201 99.267 78.1818 99.2733 77.3466C99.2764 76.8679 99.3296 76.4081 99.0387 75.9889C98.9824 75.9075 98.9417 75.7136 98.9761 75.6917C99.4641 75.3632 99.2013 74.9721 99.12 74.5717C99.0668 74.3058 99.0793 73.9898 99.1763 73.7396C99.6862 72.4288 100.105 71.0711 100.978 69.9355C101.2 69.6477 101.432 69.3661 101.66 69.0814C102.42 68.1336 103.156 67.1638 103.947 66.2409C104.673 65.3962 105.683 64.8456 106.393 63.9728C106.547 63.7851 106.784 63.5974 107.01 63.5536C107.545 63.4504 107.717 62.9905 108.03 62.6621C108.633 62.027 109.243 61.4013 109.894 60.7319L109.9 60.7287ZM96.1637 101.892C96.7706 101.867 97.3368 101.835 97.9031 101.817C98.341 101.801 98.8228 101.923 99.0355 101.332C99.0731 101.228 99.3108 101.163 99.4673 101.138C100.306 101.003 100.934 100.249 101.845 100.346C103.096 99.6486 104.507 99.2795 105.686 98.438C106.012 98.2065 106.5 98.1533 106.747 97.8717C107.222 97.3337 108.127 97.3775 108.402 96.5985C108.421 96.5453 108.611 96.5547 108.721 96.5359C109.372 96.4139 109.96 96.1762 110.438 95.6975C110.573 95.563 110.739 95.3878 110.908 95.3659C111.402 95.3065 111.646 94.9154 111.981 94.6527C112.369 94.3461 112.725 94.0051 113.11 93.6985C113.548 93.3513 113.983 92.9915 114.461 92.7068C115.444 92.1249 116.454 91.5963 117.609 91.4086C118.284 91.2991 118.91 91.0738 119.223 90.3699C119.279 90.2448 119.395 90.1478 119.492 90.0446C120.233 89.2813 120.643 88.4335 120.815 87.3229C120.953 86.4219 120.459 85.9151 120.211 85.2582C120.086 84.9266 119.742 84.5919 119.414 84.4417C118.6 84.0694 117.734 83.9537 116.92 84.4698C116.357 84.8296 115.807 85.2175 115.284 85.6336C114.427 86.3125 113.604 87.032 112.753 87.7171C111.743 88.5336 110.714 89.3313 109.697 90.1384C108.984 90.7047 108.258 91.2521 107.57 91.8465C106.759 92.5441 105.661 92.8288 104.964 93.6985C104.804 93.8956 104.444 93.9206 104.26 94.1083C103.712 94.662 103.221 95.2658 102.683 95.8289C102.033 96.5078 101.366 97.171 100.69 97.8186C100.112 98.3723 99.4735 98.8728 98.9167 99.4453C98.1127 100.277 97.4057 101.213 96.3076 101.707C96.2388 101.738 96.2044 101.835 96.1606 101.892H96.1637ZM113.326 56.6931C113.044 55.9455 112.769 55.3167 112.578 54.6597C112.491 54.3625 112.021 54.131 112.375 53.7275C112.406 53.693 112.369 53.5366 112.319 53.496C111.721 53.0517 111.743 52.1508 110.93 51.791C110.554 51.6252 110.188 51.6033 109.844 51.547C109.228 51.4438 108.586 51.4125 107.976 51.7628C106.844 52.4104 105.808 53.1925 104.729 53.9183C104.479 54.0872 104.179 54.1842 103.95 54.375C103.331 54.8912 102.74 55.4387 102.151 55.9642C102.449 56.1207 102.445 56.1175 102.824 56.0049C103.45 55.8172 104.063 55.6983 104.717 55.9455C104.954 56.0362 105.292 55.9955 105.543 55.9048C106.187 55.667 106.759 55.9455 107.329 56.1207C108.123 56.3615 108.884 56.7088 109.659 57.006C109.788 57.056 109.954 57.0498 110.047 57.1311C110.595 57.5941 111.133 58.0696 111.662 58.5545C112.215 59.0582 112.506 58.9487 112.753 58.2323C112.938 57.7005 112.559 56.9622 113.323 56.6963L113.326 56.6931Z" fill="#1B8533"/>
<path d="M60.2065 64.1918C60.2753 63.4379 60.1408 62.5776 60.4599 61.9519C60.9291 61.0291 60.8509 59.8465 61.7644 59.1364C61.8896 59.0394 61.9771 58.8674 62.0241 58.711C62.3338 57.7318 62.8406 56.9059 63.7196 56.3178C63.9856 56.1394 64.1138 55.7703 64.3578 55.5482C64.971 54.9913 65.6154 54.4689 66.2411 53.9246C66.3631 53.8182 66.4476 53.6712 66.5571 53.5523C66.7291 53.3646 66.8762 53.1393 67.0858 53.0017C67.6833 52.6138 68.2964 52.254 68.9159 51.9005C69.3319 51.6628 69.7699 51.4782 70.2767 51.5439C70.4394 51.5658 70.6239 51.5439 70.7772 51.4876C71.5218 51.1966 72.3789 51.6315 72.6323 52.3698C72.7544 52.7201 72.6136 52.9579 72.4102 53.0955C72.0004 53.3771 71.5312 53.5742 71.0869 53.8057C70.7459 53.9809 70.3987 54.1435 70.064 54.3312C69.773 54.4939 69.4915 54.6785 69.2162 54.8631C68.894 55.0821 68.4685 55.1227 68.3934 55.6983C68.3496 56.0299 67.8898 56.324 67.5926 56.6087C66.4194 57.7349 65.4903 59.0582 64.6613 60.4378C64.2202 61.173 63.851 61.9551 63.435 62.7059C63.1753 63.1751 63.0095 63.7789 63.0377 64.3076C63.0752 65.0459 62.6591 65.5871 62.4683 66.2221C62.4433 66.3004 62.3181 66.3754 62.2274 66.3973C62.0929 66.4286 61.9459 66.413 61.802 66.4161C60.6632 66.4224 60.3504 66.1564 60.2409 65.0428C60.2128 64.7612 60.2378 64.4765 60.2378 64.1918C60.2253 64.1918 60.2159 64.1918 60.2034 64.1918H60.2065Z" fill="#1B8533"/>
<path d="M57.0844 56.9153C57.0312 56.6087 56.9436 56.3022 56.9311 55.9924C56.9029 55.2229 57.3346 54.5722 57.5599 53.8714C57.8352 53.0205 58.6141 52.4292 58.9582 51.6565C59.2742 50.9464 59.8686 50.5522 60.3066 50.0235C60.7445 49.498 61.3702 48.841 62.2587 49.0131C62.5214 49.0631 62.8061 49.2321 62.9907 49.4291C63.2503 49.7138 63.0126 49.9985 62.828 50.2331C62.096 51.1748 61.2764 52.057 60.6382 53.0549C59.9843 54.0779 59.4682 55.1947 58.9708 56.3053C58.8331 56.615 58.8925 57.0749 59.0083 57.4158C59.1397 57.81 58.9144 57.9352 58.6798 58.029C58.4108 58.1385 58.1011 58.2167 57.8195 58.1948C57.5505 58.1729 57.0312 57.2375 57.0875 56.9153H57.0844Z" fill="#1B8533"/>
<path d="M62.2774 171.453C59.4847 173.992 55.4225 177.851 46.0286 177.851C36.6347 177.851 27.4947 172.215 27.4947 159.774C27.4947 147.334 36.6347 141.748 46.2825 141.748C55.9302 141.748 59.9924 146.826 61.008 147.842L53.3913 154.189C52.6297 153.427 50.3447 151.142 46.2825 151.142C42.2203 151.142 39.0213 154.189 39.0213 159.774C39.0213 165.36 42.2203 168.407 46.2825 168.407C50.3447 168.407 51.1063 167.137 51.1063 167.137V164.598H45.7747V156.118H62.2774V171.453ZM77.8332 177.293H66.3575V142.256H77.8332V177.293ZM117.449 142.256L104.246 177.293H93.0753L79.8731 142.256H92.0597L98.6608 162.567L105.262 142.256H117.449ZM144.855 177.293H119.466V142.256H144.347V151.295H130.891V155.103H143.585V164.091H130.891V168.153H144.855V177.293Z" fill="#1B8533"/>
</svg>
