<svg width="174" height="184" viewBox="0 0 174 184" fill="none" xmlns="http://www.w3.org/2000/svg">
<path d="M157.842 69.8089C158.536 69.9514 159.278 70.1034 160.096 70.2744C160.405 70.7398 160.772 71.2306 161.069 71.7499C162.154 73.6496 163.3 75.5303 164.262 77.4712C165.003 78.972 165.594 80.533 165.659 82.1858C165.686 82.9203 165.829 83.6549 165.798 84.3863C165.74 85.7478 165.582 87.1093 165.489 88.4708C165.447 89.0502 165.489 89.6328 165.439 90.209C165.312 91.7542 165.076 93.2835 164.76 94.8128C164.412 96.475 163.594 98.0328 163.273 99.6888C162.98 101.218 162.771 102.76 163.088 104.311C163.104 104.391 163.115 104.47 163.115 104.549C163.084 106.224 163.625 107.826 164.127 109.422C164.443 110.435 164.945 111.407 165.404 112.49C165.041 112.886 164.644 113.357 164.196 113.794C163.578 114.399 162.949 114.994 162.277 115.558C161.945 115.833 161.517 116.03 161.115 116.245C160.602 116.524 160.065 116.565 159.467 116.391C158.096 115.989 157.112 116.552 156.294 117.353C155.645 117.99 155.321 118.765 155.066 119.56C154.749 120.548 154.444 121.539 154.105 122.524C154 122.825 153.819 123.109 153.645 123.388C153.51 123.607 153.309 123.774 152.865 123.774C152.255 123.059 152.093 122.115 151.449 121.311C151.313 121.298 151.132 121.279 150.854 121.254C150.229 122.853 149.568 124.42 149.213 126.187C149.931 126.114 150.499 126.054 151.155 125.988C151.128 126.263 151.147 126.444 151.09 126.608C150.572 128.182 149.92 129.714 149.163 131.221C148.376 132.789 147.36 134.245 146.098 135.578C145.137 136.595 144.083 137.554 143.125 138.57C141.241 140.571 139.566 142.683 138.261 144.982C137.952 145.526 137.636 146.071 137.35 146.625C136.416 148.43 134.91 149.798 132.845 150.782C131.768 151.295 130.76 151.906 129.698 152.442C128.011 153.29 126.328 154.151 124.595 154.937C122.325 155.966 120.032 156.957 117.711 157.91C114.99 159.024 112.148 159.927 109.292 160.775C107.551 161.291 105.748 161.668 103.968 162.095C103.296 162.257 102.605 162.377 101.937 162.545C100.883 162.808 99.8025 162.865 98.7061 162.881C96.9109 162.909 95.1081 162.89 93.3284 163.042C89.2324 163.39 85.1286 163.375 81.021 163.302C79.6235 163.276 78.226 163.131 76.8285 162.95C75.0565 162.719 73.3154 162.396 71.5704 162.076C70.2308 161.829 68.899 161.541 67.5825 161.218C65.8376 160.788 64.0887 160.351 62.3785 159.835C59.8537 159.075 57.3676 158.236 54.8582 157.441C52.7967 156.786 50.824 155.978 48.913 155.076C45.8593 153.632 42.9832 151.976 40.1728 150.228C36.5477 147.974 33.4323 145.292 30.2667 142.648C29.4367 141.955 28.6298 141.236 27.8461 140.508C27.5759 140.258 27.3481 139.96 27.1937 139.653C26.2865 137.858 25.4449 136.04 24.5029 134.258C23.4721 132.307 22.3526 130.386 21.2755 128.448C20.7157 127.444 20.156 126.44 19.6309 125.424C19.434 125.041 19.3182 124.626 19.1908 124.218C18.3801 121.628 17.5694 119.038 16.7741 116.441C16.3147 114.941 15.8399 113.44 15.4538 111.926C15.0755 110.438 14.8014 108.934 14.6663 107.411C14.5929 106.575 14.4617 105.743 14.3652 104.907C14.3266 104.593 14.3227 104.277 14.2841 103.963C14.1799 103.156 14.0563 102.348 13.9598 101.541C13.8749 100.835 13.7668 100.129 13.7436 99.4228C13.6819 97.6624 13.1954 95.9273 13.2919 94.1573C12.7669 91.0671 12.9097 87.961 12.9561 84.8581C12.9677 84.0444 13.0835 83.2338 13.1568 82.4201C13.207 81.8977 13.2611 81.3752 13.3228 80.8528C13.4155 80.0707 13.5274 79.2887 13.6201 78.5066C13.7127 77.7214 13.7668 76.9361 13.8826 76.1541C14.0988 74.7229 14.3497 73.2982 14.5814 71.8702C14.674 71.2971 14.7396 70.724 14.84 70.1509C15.1064 68.5931 15.3496 67.0321 15.6777 65.4838C15.8013 64.8949 16.0522 64.306 16.3804 63.7709C17.4767 61.9883 18.631 60.231 19.7622 58.4611C20.1482 57.8532 20.5343 57.2453 20.8972 56.631C20.9898 56.4727 21.0014 56.2827 20.9049 56.1307C20.5459 55.4057 20.1598 54.6901 19.8317 53.9587C19.4881 53.1925 19.5769 52.3851 19.7506 51.6157C20.0672 50.213 20.7621 48.9149 21.5728 47.6547C21.9897 47.0088 22.3178 46.3217 22.7386 45.6758C23.7269 44.1433 24.7152 42.6109 25.7614 41.1069C26.9042 39.4637 28.1511 37.871 29.2707 36.2151C29.9462 35.2145 30.9461 34.4863 31.9923 33.8087C34.9804 31.8742 38.0147 29.9871 41.0337 28.0842C42.5547 27.1248 44.0912 26.1781 45.6007 25.2061C46.2299 24.8008 46.8322 24.367 47.4113 23.911C47.8938 23.5343 48.442 23.3253 49.0829 23.1923C50.5422 22.8884 51.9397 22.4577 53.2793 21.8657C55.279 20.9823 57.2402 20.0261 59.3789 19.3611C60.5757 18.9875 61.73 18.5221 62.9151 18.1232C64.0424 17.7464 65.1735 17.3791 66.324 17.0562C68.1384 16.5496 69.9645 16.0619 71.8021 15.6123C72.9062 15.3432 74.0026 15.0741 75.0681 14.7036C76.342 14.2603 77.1682 13.4308 77.975 12.5791C78.1449 12.4018 78.199 12.1484 78.2839 11.9205C78.3804 11.6545 78.5232 11.4361 78.8977 11.3442C79.5656 11.7653 79.0058 12.5379 79.6196 13.0255C80.2991 13.0255 81.0403 13.0888 81.7584 13.0129C83.3721 12.8419 84.978 12.6012 86.5879 12.3891C86.777 12.3637 86.9624 12.3131 87.1554 12.3036C88.4988 12.2371 89.8423 12.1136 91.1819 12.1358C93.3554 12.1738 95.525 12.3131 97.6715 12.636C100.131 13.0065 102.528 13.5574 104.902 14.1939C107.524 14.8968 110.079 15.7232 112.55 16.7364C115.248 17.8414 117.762 19.1712 120.155 20.6878C122.788 22.3533 125.07 24.3037 127.39 26.2319C129.602 28.0652 131.768 29.9332 133.995 31.757C136.539 33.8404 139.141 35.8763 141.689 37.9565C142.689 38.7734 143.542 39.7043 144.21 40.727C146.102 43.6272 148.032 46.5117 149.808 49.4563C150.912 51.2896 151.815 53.2083 152.726 55.1176C153.402 56.5297 153.997 57.9735 154.537 59.4268C154.973 60.6047 155.282 61.8141 155.622 63.0142C155.846 63.8057 156.054 64.6005 156.216 65.4015C156.367 66.1519 156.487 66.9055 156.556 67.6654C156.629 68.4886 156.869 69.2232 157.845 69.8058L157.842 69.8089ZM133.462 142.082C134.304 141.768 134.798 141.211 135.404 140.761C136.408 140.017 137.543 139.536 138.913 139.441C139.848 139.378 140.11 139.02 139.852 138.257C139.743 137.934 139.647 137.605 139.566 137.348C139.79 136.917 140.176 136.781 140.543 136.617C141.658 136.116 142.596 135.439 143.253 134.555C144.098 133.412 144.801 132.203 145.291 130.921C145.341 130.794 145.33 130.651 145.361 130.411C145.067 130.588 144.87 130.677 144.72 130.803C143.5 131.804 142.326 132.843 141.071 133.811C139.018 135.398 137.053 137.05 135.381 138.915C134.536 139.856 133.814 140.869 133.466 142.082L133.462 142.082ZM155.564 112.1C156.039 111.961 156.479 111.92 156.784 111.727C158.162 110.85 158.814 109.64 159.069 108.231C158.865 108.193 158.672 108.105 158.567 108.149C157.954 108.415 157.197 108.605 156.795 109.017C155.981 109.856 155.595 110.881 155.564 112.097L155.564 112.1ZM128.799 148.671C128.996 148.582 129.22 148.541 129.301 148.433C129.779 147.784 130.227 147.119 130.679 146.457C130.698 146.429 130.644 146.366 130.609 146.283L130.081 146.283C129.525 146.932 128.98 147.572 128.432 148.211C128.567 148.382 128.668 148.509 128.795 148.674L128.799 148.671Z" fill="#48CE65"/>
<path d="M7.89926 88.4131C8.04189 88.4475 8.15906 88.4911 8.24776 88.4936C8.43017 88.4998 8.59345 88.4836 8.79361 88.5059C8.88346 88.5157 8.95393 88.4784 9.0417 88.4593C9.0972 88.4704 9.15566 88.4797 9.21594 88.4931C9.57673 88.5777 9.67613 88.5923 9.99745 88.5469C10.1164 88.5295 10.2886 88.5864 10.3697 88.535C10.4748 88.5604 10.5793 88.5891 10.6828 88.6093C10.7635 88.6253 10.7831 88.6583 10.8272 88.6867C10.913 88.7429 11.03 88.7616 11.118 88.7675C11.2474 88.7762 11.3748 88.7691 11.483 88.7527C11.7211 88.7168 11.9799 88.7343 12.2732 88.8156C12.3155 88.827 12.3557 88.8356 12.3933 88.8446C12.5941 88.8375 12.7018 88.7453 12.9591 88.7967C13.1339 88.7621 13.3113 88.728 13.4859 88.6945C13.7207 88.7925 13.9037 88.7043 14.1394 88.7848C14.1836 88.8001 14.3143 88.7761 14.3198 88.7491C14.3349 88.6736 14.5141 88.6695 14.5029 88.5817C14.4919 88.4928 14.5291 88.412 14.5448 88.3342C14.6457 88.2758 14.8384 88.3223 14.9653 88.3044C15.0653 88.2896 15.1661 88.3363 15.2664 88.3594C15.5173 88.4163 15.7671 88.4789 16.0299 88.5423C16.1335 88.4704 16.3721 88.5232 16.5274 88.4945C16.7543 88.5669 16.9402 88.5031 17.2128 88.596C17.3242 88.5638 17.4549 88.5267 17.5607 88.4967C17.9035 88.5924 18.1576 88.6076 18.4006 88.5728C18.5762 88.5478 18.7782 88.5481 19.012 88.6116C19.1986 88.6625 19.3867 88.7055 19.575 88.7474C19.6528 88.7649 19.7484 88.8116 19.8089 88.7848C19.8921 88.7494 20.0418 88.8138 20.1323 88.7813C20.2255 88.7482 20.3451 88.7275 20.4679 88.7169C20.6148 88.7039 20.6527 88.6327 20.7569 88.5975C20.8246 88.5737 20.8059 88.4971 20.8331 88.4268C21.023 88.4088 21.1662 88.3228 21.4546 88.3628C21.632 88.3288 21.8183 88.3028 21.982 88.2584C22.0791 88.2322 22.2167 88.2784 22.3029 88.2542C22.392 88.2285 22.4978 88.2764 22.5958 88.2977C22.7417 88.3293 22.8886 88.3683 23.034 88.4022C23.1143 88.4204 23.2307 88.4544 23.2674 88.4419C23.3599 88.4123 23.5032 88.4693 23.5953 88.4419C23.7097 88.408 23.8366 88.3772 23.9823 88.3698C24.1227 88.3634 24.2612 88.3531 24.3987 88.3473C24.5468 88.3416 24.7019 88.3141 24.8987 88.3792C24.9751 88.4036 25.3916 88.4201 25.4516 88.4086C25.6917 88.3625 25.9318 88.3164 26.1854 88.2689C26.4291 88.3879 26.6455 88.329 26.8892 88.3831C26.9872 88.4043 27.0922 88.3647 27.2266 88.3486C27.3706 88.3893 27.5845 88.4219 27.7196 88.4935C27.8573 88.5657 27.9858 88.592 28.1209 88.6246C28.2586 88.6578 28.357 88.5988 28.5199 88.6629C28.6464 88.7123 28.7576 88.7072 28.8538 88.6855C29.0417 88.7557 29.1522 88.715 29.2977 88.7087C29.446 88.7019 29.602 88.6828 29.7961 88.7355C29.9553 88.7787 30.071 88.686 30.238 88.7949C30.3858 88.7643 30.5116 88.7391 30.6344 88.7155C30.6828 88.7225 30.7217 88.7248 30.7617 88.7344C31.032 88.7996 31.305 88.8643 31.575 88.9306C31.6551 88.9499 31.7458 88.9682 31.8132 88.9987C31.9306 89.0542 32.0626 89.1155 32.1361 89.1805C32.2563 89.2875 32.4319 89.3665 32.593 89.4526C32.6688 89.4934 32.7998 89.5072 32.8758 89.5468C33.0708 89.647 33.2443 89.8803 33.2353 89.9904C33.2304 90.0542 33.156 90.1107 33.3049 90.1927C33.3081 90.268 33.3362 90.3504 33.2127 90.3903C33.1761 90.4027 33.1504 90.4261 33.1429 90.4503C33.1205 90.5229 33.1128 90.6002 33.0926 90.6745C33.0897 90.6892 33.0249 90.6853 33.0142 90.6993C32.9629 90.759 32.8305 90.7779 32.7858 90.8439C32.7635 90.8764 32.6525 90.8803 32.6492 90.9363C32.6447 91.0238 32.6102 91.1041 32.6032 91.1911C32.5886 91.3683 32.3717 91.4425 32.0583 91.4614C31.9974 91.4645 31.9109 91.4507 31.8454 91.4633C31.603 91.5076 31.3841 91.5789 31.11 91.5849C30.8362 91.5897 30.6482 91.6508 30.421 91.6846C30.1695 91.722 29.9198 91.7634 29.7004 91.824C29.5224 91.8744 29.2692 91.8417 29.0855 91.8813C28.8963 91.9219 28.7214 91.9826 28.5029 91.9866C28.2345 91.9904 28.0306 92.0393 27.8034 92.0731C27.6763 92.0921 27.5776 92.1652 27.4002 92.1082C27.2275 92.0536 27.1523 92.1146 26.9994 92.0789C26.8313 92.0408 26.5443 92.046 26.4545 92.0621C26.2937 92.0919 26.1416 92.1308 25.9694 92.152C25.8241 92.1701 25.7394 92.2525 25.5082 92.1884C25.3472 92.2193 25.1862 92.2502 25.0253 92.2811C24.8806 92.3089 24.7426 92.343 24.5864 92.3632C24.4815 92.3757 24.3487 92.3188 24.2281 92.2921C24.0823 92.2605 23.9353 92.2215 23.7902 92.1865L23.4124 92.0954C23.1757 92.1896 22.7738 92.1399 22.5218 92.2186C22.361 92.1834 22.2469 92.2421 22.0722 92.1846C21.8556 92.1135 21.6821 92.1413 21.5156 92.1473C21.3939 92.1522 21.27 92.1554 21.1458 92.1597C21.0376 92.1632 20.95 92.194 20.8545 92.2124C20.5653 92.2679 20.276 92.3234 19.9734 92.3804L18.8473 92.1088C18.7737 92.1229 18.6993 92.1405 18.6184 92.1517C18.5292 92.1644 18.4942 92.195 18.4743 92.2422C18.4543 92.2893 18.3795 92.3221 18.3249 92.3586C18.3068 92.3707 18.2617 92.3859 18.2472 92.38C18.1059 92.3259 18.0443 92.3973 17.9099 92.3613C17.6608 92.2953 17.4096 92.2395 17.1169 92.1689C17.0159 92.1882 16.9047 92.2323 16.7605 92.2318C16.6034 92.2306 16.4574 92.2651 16.2581 92.1993C16.1596 92.1672 16.0506 92.1481 15.9456 92.1227C15.8669 92.1486 15.7639 92.1522 15.7161 92.2068C15.6818 92.247 15.5711 92.2628 15.5714 92.3267C15.5721 92.3493 15.5207 92.37 15.4754 92.3733C15.3053 92.3843 15.1411 92.4049 14.9239 92.3502C14.6944 92.2913 14.466 92.2398 14.2057 92.177C14.1125 92.197 14.0006 92.2185 13.8979 92.2469C13.8285 92.2656 13.75 92.2384 13.6709 92.2276C13.4978 92.2012 13.3413 92.2226 13.1548 92.1717C13.0199 92.203 12.8229 92.1649 12.6847 92.2001C12.5962 92.2225 12.4272 92.1888 12.3238 92.2206C12.2233 92.2507 12.1023 92.2653 11.9822 92.2883L10.9713 92.0445C10.8744 92.0696 10.7694 92.0963 10.6286 92.1308C10.6264 92.1421 10.636 92.1858 10.6067 92.2142C10.5735 92.2487 10.4391 92.2387 10.4628 92.3036C10.2508 92.3399 10.0389 92.3762 9.80219 92.4184C9.74327 92.4113 9.63473 92.3508 9.5456 92.3766C9.47876 92.3959 9.40391 92.3767 9.31838 92.3584C9.22034 92.3372 9.11682 92.2909 9.02336 92.3121C8.91899 92.3354 8.75952 92.2934 8.65334 92.3257C8.52738 92.365 8.36887 92.3835 8.22425 92.4113C8.15653 92.4741 8.2558 92.5938 8.05022 92.6115C8.00747 92.6154 8.04119 92.6826 7.93065 92.6713C7.8176 92.6594 7.70548 92.669 7.5947 92.6459C7.30285 92.5837 7.01121 92.5075 6.71844 92.4369C6.56537 92.4283 6.50269 92.5184 6.29794 92.4536C6.16969 92.4783 6.04144 92.5029 5.91319 92.5275C5.78494 92.5521 5.66101 92.5813 5.52616 92.5996C5.43179 92.6123 5.2928 92.5728 5.20731 92.6066C5.14206 92.631 5.04859 92.6392 4.94763 92.6586C4.05431 92.4431 3.13892 92.22 2.22467 92.0042C2.037 91.959 1.93363 91.8336 1.72575 91.8236C1.65702 91.774 1.58533 91.7259 1.51933 91.6758C1.32618 91.5315 1.10441 91.4122 0.853992 91.3179C0.8003 91.2979 0.739327 91.2749 0.702687 91.2484C0.562951 91.1473 0.397061 91.0458 0.310088 90.9433C0.237915 90.8586 0.135264 90.7688 0.158607 90.6787C0.234537 90.3922 0.282938 90.0989 0.341578 89.807C0.469601 89.7835 0.586927 89.748 0.728153 89.7372C0.864148 89.7262 0.861573 89.6476 0.97755 89.6319C1.08011 89.6176 1.03252 89.5541 1.05386 89.5132C1.08656 89.4549 1.03758 89.3722 1.13193 89.3335C1.2406 89.2888 1.32539 89.2324 1.47684 89.2099C1.74472 89.1693 1.99211 89.1132 2.25111 89.0645C2.39551 89.0379 2.52692 88.9845 2.6925 88.9961C2.87104 89.0084 2.96767 88.9715 3.09706 88.9542C3.25056 88.9345 3.38425 88.8959 3.53548 88.8744C3.6112 88.8631 3.72517 88.8835 3.80089 88.8723C3.87934 88.8605 3.95123 88.8813 4.03176 88.8984C4.13003 88.9186 4.2315 88.9619 4.32541 88.9385C4.41113 88.9166 4.56788 88.9722 4.64426 88.9315C4.66495 88.9199 4.70725 88.9183 4.73999 88.912C4.93373 88.8749 5.1459 88.8504 5.3137 88.7987C5.50128 88.7399 5.78834 88.7867 5.97752 88.7331C6.1526 88.6843 6.36454 88.661 6.55146 88.6186C6.6888 88.5879 6.89194 88.6345 7.02176 88.589C7.14067 88.5456 7.30645 88.5301 7.45084 88.5035C7.59547 88.4757 7.74009 88.4479 7.90381 88.4165L7.89926 88.4131Z" fill="#FCD214"/>
<path d="M29.6524 97.8351C29.5149 97.8891 29.4038 97.9487 29.3161 97.9635C29.1359 97.9951 28.972 98.0018 28.7761 98.0518C28.6881 98.0741 28.6139 98.0469 28.5246 98.0403C28.4708 98.0589 28.4139 98.0764 28.3557 98.098C28.0077 98.2323 27.9108 98.2606 27.5868 98.2603C27.4668 98.2596 27.3026 98.3401 27.2161 98.3005C27.1148 98.3403 27.0146 98.3833 26.9143 98.4178C26.8361 98.4449 26.8205 98.4804 26.78 98.5147C26.7014 98.5824 26.5876 98.6173 26.501 98.6354C26.3736 98.6621 26.2465 98.6728 26.1372 98.6716C25.8969 98.6692 25.6422 98.7226 25.3608 98.8442C25.3201 98.8614 25.2812 98.8755 25.245 98.8897C25.045 98.9106 24.9275 98.8342 24.6782 98.9211C24.5008 98.9111 24.3209 98.9021 24.1438 98.8932C23.9223 99.0231 23.7305 98.9611 23.5061 99.0738C23.4641 99.0952 23.3316 99.0896 23.3231 99.0636C23.2993 98.9908 23.1211 99.0117 23.122 98.9231C23.1226 98.8334 23.0763 98.7584 23.0517 98.6834C22.9448 98.6396 22.7591 98.7125 22.6312 98.7125C22.5302 98.7117 22.4357 98.7722 22.3389 98.809C22.0966 98.9005 21.8561 98.9974 21.6029 99.0969C21.4917 99.04 21.2612 99.1257 21.1038 99.1188C20.8872 99.2223 20.6953 99.1849 20.4358 99.315C20.3216 99.2986 20.1876 99.2801 20.0792 99.2651C19.7503 99.4078 19.5001 99.4583 19.2549 99.4577C19.0779 99.4574 18.8776 99.4858 18.653 99.5814C18.4739 99.6579 18.2923 99.7268 18.1103 99.7946C18.0352 99.8229 17.9458 99.8825 17.8828 99.8644C17.7961 99.8408 17.6551 99.9256 17.5616 99.9059C17.4653 99.8861 17.3442 99.8822 17.2212 99.8888C17.074 99.8964 17.0281 99.8311 16.9207 99.8107C16.8507 99.7965 16.8604 99.7179 16.8252 99.6521C16.6348 99.6607 16.4828 99.5953 16.2013 99.6752C16.0215 99.6662 15.8337 99.6664 15.6662 99.6452C15.5668 99.6327 15.4357 99.6977 15.3474 99.6858C15.256 99.6727 15.1566 99.735 15.0619 99.7698C14.9209 99.8215 14.7797 99.8806 14.6394 99.9345C14.5619 99.9637 14.4503 100.014 14.4126 100.006C14.3173 99.9899 14.1818 100.066 14.0873 100.052C13.9699 100.034 13.8405 100.022 13.695 100.035C13.5551 100.048 13.4165 100.057 13.2794 100.07C13.1319 100.085 12.9748 100.08 12.7872 100.172C12.7142 100.207 12.3031 100.281 12.2422 100.278C11.9987 100.266 11.7552 100.253 11.4982 100.242C11.2703 100.394 11.0487 100.365 10.8134 100.453C10.7186 100.488 10.6098 100.463 10.4746 100.466C10.3365 100.526 10.1282 100.589 10.0025 100.678C9.87432 100.769 9.74989 100.813 9.61965 100.864C9.487 100.916 9.38252 100.872 9.22839 100.958C9.10866 101.025 8.99777 101.035 8.89984 101.027C8.72159 101.123 8.60727 101.098 8.46217 101.112C8.31431 101.126 8.15736 101.129 7.97101 101.208C7.81807 101.273 7.69258 101.197 7.53954 101.328C7.38939 101.319 7.26174 101.311 7.13721 101.305C7.08996 101.319 7.05165 101.326 7.01306 101.341C6.75257 101.444 6.48932 101.546 6.2292 101.649C6.15202 101.68 6.06412 101.711 6.00085 101.75C5.89085 101.822 5.76708 101.901 5.70171 101.976C5.59493 102.098 5.42988 102.201 5.28009 102.309C5.20966 102.36 5.08132 102.392 5.01054 102.442C4.82876 102.569 4.68375 102.824 4.70546 102.932C4.71777 102.995 4.79805 103.04 4.65997 103.142C4.66548 103.218 4.64722 103.303 4.77432 103.326C4.81207 103.333 4.84025 103.352 4.85048 103.375C4.88118 103.444 4.89776 103.52 4.9264 103.591C4.93102 103.605 4.99487 103.592 5.00708 103.604C5.06495 103.657 5.19841 103.657 5.25046 103.716C5.27631 103.745 5.38685 103.734 5.39667 103.789C5.41127 103.875 5.45482 103.95 5.47183 104.035C5.50692 104.209 5.73067 104.252 6.04371 104.227C6.10451 104.222 6.18865 104.196 6.25506 104.199C6.50065 104.209 6.7261 104.25 6.99862 104.217C7.27078 104.184 7.46437 104.218 7.69362 104.22C7.94743 104.222 8.19989 104.228 8.42456 104.258C8.607 104.283 8.85431 104.215 9.04114 104.229C9.23351 104.243 9.41397 104.279 9.63122 104.252C9.89785 104.219 10.1058 104.239 10.3351 104.241C10.4634 104.242 10.5697 104.3 10.7391 104.219C10.904 104.141 10.9857 104.191 11.1332 104.134C11.2955 104.073 11.5808 104.038 11.6718 104.042C11.8347 104.049 11.9901 104.066 12.1633 104.063C12.3095 104.061 12.4031 104.131 12.625 104.035C12.7882 104.043 12.9515 104.051 13.1148 104.06C13.2615 104.067 13.4023 104.081 13.5596 104.08C13.6651 104.078 13.7902 104.003 13.9067 103.959C14.0477 103.908 14.1889 103.848 14.3288 103.793L14.693 103.65C14.9387 103.711 15.3316 103.606 15.5906 103.648C15.746 103.591 15.866 103.633 16.0326 103.552C16.2392 103.451 16.4145 103.455 16.5803 103.437C16.7016 103.425 16.8249 103.411 16.9486 103.398C17.0563 103.387 17.1468 103.405 17.2436 103.41C17.537 103.425 17.8303 103.439 18.1371 103.454L19.2225 103.027C19.2972 103.031 19.373 103.038 19.4546 103.038C19.5445 103.038 19.5827 103.063 19.608 103.107C19.6333 103.151 19.7113 103.174 19.7696 103.202C19.7891 103.212 19.8355 103.22 19.8493 103.213C19.9831 103.139 20.0525 103.201 20.1816 103.147C20.421 103.047 20.6637 102.956 20.9458 102.846C21.0482 102.851 21.1636 102.879 21.3066 102.858C21.4623 102.835 21.6111 102.849 21.8012 102.756C21.8951 102.71 22.001 102.676 22.1023 102.636C22.1833 102.651 22.2859 102.64 22.3396 102.688C22.3783 102.723 22.49 102.723 22.4971 102.787C22.499 102.809 22.5524 102.823 22.5977 102.819C22.7677 102.807 22.9329 102.804 23.142 102.72C23.3629 102.629 23.5834 102.546 23.8343 102.448C23.9291 102.455 24.0425 102.46 24.1478 102.474C24.2187 102.483 24.2934 102.445 24.3707 102.423C24.5393 102.373 24.697 102.372 24.8761 102.296C25.0134 102.308 25.2044 102.243 25.3456 102.259C25.436 102.268 25.5997 102.211 25.706 102.229C25.8092 102.244 25.9309 102.242 26.0526 102.248L27.027 101.865C27.126 101.877 27.2333 101.888 27.3769 101.903C27.3805 101.914 27.376 101.959 27.4084 101.983C27.4453 102.012 27.5775 101.984 27.5615 102.051C27.7759 102.058 27.9904 102.064 28.2301 102.073C28.2877 102.058 28.3883 101.983 28.4797 101.996C28.5482 102.006 28.6202 101.976 28.703 101.946C28.7977 101.911 28.895 101.851 28.9902 101.859C29.0964 101.868 29.2497 101.804 29.3588 101.821C29.4883 101.842 29.6477 101.839 29.7943 101.846C29.8688 101.899 29.7842 102.032 29.9902 102.02C30.0331 102.018 30.0074 102.09 30.1158 102.063C30.2265 102.036 30.3388 102.029 30.446 101.991C30.7283 101.889 31.0087 101.772 31.2909 101.662C31.4417 101.632 31.5143 101.712 31.7099 101.62C31.84 101.626 31.97 101.633 32.1001 101.639C32.2302 101.646 32.3565 101.657 32.4924 101.657C32.5874 101.656 32.7207 101.598 32.8094 101.619C32.877 101.634 32.9706 101.629 33.073 101.635C33.9341 101.296 34.8161 100.947 35.6979 100.606C35.8788 100.535 35.9667 100.396 36.1718 100.357C36.2342 100.298 36.2997 100.241 36.3593 100.182C36.5342 100.012 36.7403 99.8625 36.9777 99.734C37.0286 99.7067 37.0865 99.6754 37.1197 99.6439C37.2466 99.5242 37.3993 99.4004 37.4737 99.2866C37.5354 99.1925 37.6268 99.0892 37.5932 99.0031C37.4846 98.7294 37.4026 98.4453 37.3105 98.1639C37.1808 98.1585 37.0603 98.1396 36.919 98.1486C36.7828 98.1567 36.7762 98.0783 36.6594 98.0789C36.556 98.079 36.5958 98.0094 36.5699 97.9718C36.5307 97.9186 36.5697 97.8297 36.4716 97.8045C36.3586 97.7753 36.268 97.7312 36.1151 97.7299C35.8447 97.727 35.5928 97.7058 35.3303 97.6937C35.184 97.6875 35.0474 97.6528 34.8845 97.6874C34.7089 97.7245 34.6087 97.7013 34.4784 97.7023C34.3239 97.7041 34.1868 97.6844 34.0343 97.6842C33.9578 97.6836 33.8472 97.7197 33.7708 97.7191C33.6916 97.7183 33.6227 97.7491 33.5448 97.7772C33.4497 97.8109 33.3541 97.8681 33.2582 97.8579C33.1706 97.8482 33.0216 97.9251 32.9411 97.8954C32.9193 97.8869 32.8771 97.8912 32.8439 97.8895C32.6474 97.8796 32.4341 97.885 32.2617 97.8571C32.0688 97.8249 31.7895 97.9114 31.5957 97.8845C31.4163 97.8606 31.2034 97.867 31.0131 97.851C30.8733 97.8397 30.6772 97.9143 30.5432 97.8873C30.4202 97.8608 30.254 97.8685 30.1076 97.8622C29.961 97.8548 29.8143 97.8475 29.6483 97.8391L29.6524 97.8351Z" fill="#FCD214"/>
<path d="M26.889 68.888C26.7463 68.9224 26.6292 68.9661 26.5405 68.9686C26.3581 68.9747 26.1948 68.9586 25.9946 68.9808C25.9048 68.9907 25.8343 68.9533 25.7465 68.9343C25.691 68.9453 25.6326 68.9547 25.5723 68.9681C25.2115 69.0527 25.1121 69.0672 24.7908 69.0218C24.6719 69.0044 24.4996 69.0613 24.4185 69.01C24.3134 69.0353 24.209 69.0641 24.1055 69.0843C24.0247 69.1002 24.0051 69.1333 23.961 69.1617C23.8752 69.2178 23.7583 69.2366 23.6703 69.2424C23.5408 69.2512 23.4135 69.2441 23.3052 69.2277C23.0672 69.1917 22.8083 69.2093 22.5151 69.2906C22.4728 69.302 22.4325 69.3105 22.395 69.3196C22.1942 69.3125 22.0864 69.2203 21.8292 69.2717C21.6543 69.2371 21.4769 69.203 21.3023 69.1695C21.0675 69.2675 20.8845 69.1793 20.6488 69.2598C20.6047 69.2751 20.4739 69.2511 20.4685 69.2241C20.4533 69.1485 20.2741 69.1445 20.2853 69.0567C20.2963 68.9678 20.2591 68.887 20.2435 68.8092C20.1425 68.7508 19.9499 68.7973 19.823 68.7794C19.7229 68.7646 19.6221 68.8113 19.5218 68.8343C19.2709 68.8913 19.0211 68.9539 18.7584 69.0173C18.6547 68.9454 18.4161 68.9982 18.2608 68.9695C18.034 69.0419 17.848 68.978 17.5755 69.0709C17.464 69.0387 17.3333 69.0017 17.2276 68.9717C16.8847 69.0674 16.6307 69.0825 16.3876 69.0478C16.212 69.0228 16.0101 69.0231 15.7762 69.0866C15.5897 69.1374 15.4016 69.1805 15.2132 69.2223C15.1354 69.2399 15.0398 69.2866 14.9794 69.2598C14.8962 69.2244 14.7464 69.2888 14.656 69.2563C14.5627 69.2232 14.4431 69.2024 14.3203 69.1919C14.1734 69.1789 14.1355 69.1076 14.0314 69.0725C13.9636 69.0487 13.9823 68.9721 13.9551 68.9018C13.7652 68.8838 13.622 68.7978 13.3336 68.8378C13.1562 68.8038 12.97 68.7778 12.8063 68.7334C12.7092 68.7071 12.5715 68.7533 12.4854 68.7292C12.3962 68.7034 12.2904 68.7514 12.1924 68.7727C12.0466 68.8043 11.8996 68.8433 11.7543 68.8772C11.674 68.8954 11.5575 68.9294 11.5209 68.9169C11.4283 68.8872 11.285 68.9443 11.1929 68.9168C11.0786 68.883 10.9517 68.8521 10.8059 68.8447C10.6656 68.8384 10.5271 68.8281 10.3895 68.8223C10.2414 68.8166 10.0864 68.789 9.88957 68.8542C9.81313 68.8786 9.39668 68.8951 9.33665 68.8836C9.09653 68.8375 8.8564 68.7914 8.60285 68.7438C8.35917 68.8629 8.1427 68.804 7.89908 68.858C7.80103 68.8793 7.69599 68.8397 7.5616 68.8236C7.4176 68.8643 7.20378 68.8969 7.06862 68.9685C6.93096 69.0407 6.80243 69.067 6.66731 69.0996C6.52968 69.1328 6.43126 69.0738 6.26836 69.1379C6.14186 69.1873 6.03065 69.1822 5.93447 69.1605C5.74654 69.2306 5.63605 69.1899 5.4905 69.1837C5.34222 69.1769 5.18622 69.1578 4.99217 69.2105C4.83293 69.2536 4.71725 69.161 4.55021 69.2698C4.40241 69.2393 4.27666 69.2141 4.15387 69.1905C4.10542 69.1975 4.06653 69.1998 4.02649 69.2094C3.75624 69.2746 3.48326 69.3393 3.21324 69.4056C3.13317 69.4249 3.04241 69.4432 2.97506 69.4736C2.85765 69.5291 2.72569 69.5905 2.65217 69.6555C2.53198 69.7625 2.35634 69.8415 2.19523 69.9276C2.11946 69.9683 1.98845 69.9822 1.91245 70.0218C1.71745 70.122 1.54393 70.3553 1.55293 70.4654C1.55788 70.5292 1.6322 70.5857 1.48338 70.6677C1.48013 70.7429 1.45208 70.8253 1.57554 70.8653C1.61215 70.8777 1.63782 70.9011 1.64531 70.9253C1.66776 70.9978 1.67542 71.0752 1.69559 71.1495C1.69854 71.1641 1.76336 71.1603 1.77404 71.1743C1.82538 71.234 1.95773 71.2529 2.00247 71.3189C2.02473 71.3514 2.13572 71.3553 2.13908 71.4112C2.14355 71.4988 2.17804 71.5791 2.18501 71.666C2.19964 71.8433 2.41654 71.9175 2.72992 71.9364C2.79087 71.9394 2.87731 71.9257 2.9428 71.9382C3.1852 71.9826 3.40416 72.0539 3.67821 72.0599C3.95203 72.0647 4.14006 72.1257 4.36724 72.1596C4.61874 72.197 4.86843 72.2384 5.08784 72.2989C5.26588 72.3494 5.51904 72.3167 5.70277 72.3563C5.89196 72.3969 6.0668 72.4575 6.28535 72.4615C6.55372 72.4654 6.75768 72.5143 6.98486 72.5481C7.11198 72.5671 7.21062 72.6402 7.38806 72.5832C7.56074 72.5286 7.63596 72.5896 7.78883 72.5539C7.95693 72.5157 8.24395 72.521 8.33377 72.5371C8.49454 72.5669 8.64666 72.6058 8.8188 72.6269C8.96412 72.6451 9.04887 72.7274 9.28 72.6634C9.441 72.6943 9.60199 72.7252 9.76299 72.7561C9.90761 72.7839 10.0456 72.8179 10.2019 72.8382C10.3067 72.8507 10.4396 72.7938 10.5601 72.7671C10.7059 72.7355 10.8529 72.6965 10.998 72.6615L11.3759 72.5704C11.6125 72.6646 12.0145 72.6149 12.2664 72.6936C12.4272 72.6583 12.5413 72.7171 12.7161 72.6596C12.9326 72.5884 13.1061 72.6163 13.2726 72.6222C13.3943 72.6272 13.5182 72.6304 13.6424 72.6347C13.7507 72.6381 13.8382 72.669 13.9337 72.6873C14.2229 72.7428 14.5122 72.7983 14.8149 72.8553L15.9409 72.5838C16.0146 72.5979 16.0889 72.6154 16.1699 72.6266C16.259 72.6394 16.294 72.67 16.314 72.7171C16.334 72.7643 16.4088 72.7971 16.4633 72.8336C16.4815 72.8457 16.5265 72.8609 16.5411 72.855C16.6824 72.8008 16.7439 72.8722 16.8784 72.8363C17.1275 72.7703 17.3786 72.7144 17.6714 72.6438C17.7723 72.6632 17.8835 72.7073 18.0277 72.7068C18.1849 72.7055 18.3308 72.74 18.5301 72.6743C18.6286 72.6422 18.7376 72.623 18.8427 72.5977C18.9214 72.6236 19.0244 72.6271 19.0721 72.6818C19.1064 72.722 19.2171 72.7378 19.2169 72.8017C19.2162 72.8243 19.2675 72.845 19.3128 72.8483C19.4829 72.8593 19.6471 72.8799 19.8643 72.8252C20.0939 72.7663 20.3223 72.7147 20.5825 72.652C20.6757 72.672 20.7876 72.6935 20.8904 72.7219C20.9597 72.7406 21.0382 72.7134 21.1174 72.7026C21.2905 72.6762 21.4469 72.6976 21.6335 72.6467C21.7683 72.6779 21.9653 72.6399 22.1035 72.6751C22.192 72.6975 22.361 72.6638 22.4645 72.6956C22.565 72.7257 22.6859 72.7403 22.806 72.7633L23.8169 72.5195C23.9138 72.5446 24.0188 72.5712 24.1596 72.6058C24.1619 72.6171 24.1523 72.6608 24.1816 72.6892C24.2148 72.7237 24.3492 72.7137 24.3255 72.7785C24.5374 72.8149 24.7493 72.8512 24.9861 72.8934C25.045 72.8863 25.1535 72.8258 25.2426 72.8516C25.3095 72.8709 25.3843 72.8517 25.4699 72.8334C25.5679 72.8121 25.6714 72.7659 25.7649 72.7871C25.8692 72.8104 26.0287 72.7684 26.1349 72.8006C26.2609 72.84 26.4194 72.8585 26.564 72.8862C26.6317 72.9491 26.5324 73.0687 26.738 73.0865C26.7808 73.0904 26.7471 73.1576 26.8576 73.1463C26.9706 73.1344 27.0828 73.144 27.1935 73.1208C27.4854 73.0587 27.777 72.9825 28.0698 72.9119C28.2229 72.9033 28.2856 72.9934 28.4903 72.9286C28.6186 72.9532 28.7468 72.9778 28.8751 73.0025C29.0033 73.0271 29.1272 73.0563 29.2621 73.0746C29.3564 73.0872 29.4954 73.0478 29.5809 73.0816C29.6462 73.106 29.7396 73.1142 29.8406 73.1336C30.7339 72.9181 31.6493 72.695 32.5636 72.4792C32.7512 72.4339 32.8546 72.3086 33.0625 72.2986C33.1312 72.2489 33.2029 72.2009 33.2689 72.1507C33.4621 72.0065 33.6838 71.8872 33.9342 71.7929C33.9879 71.7729 34.0489 71.7499 34.0856 71.7233C34.2253 71.6223 34.3912 71.5208 34.4782 71.4183C34.5503 71.3335 34.653 71.2438 34.6296 71.1537C34.5537 70.8671 34.5053 70.5739 34.4467 70.282C34.3186 70.2585 34.2013 70.223 34.0601 70.2121C33.9241 70.2012 33.9267 70.1226 33.8107 70.1068C33.7081 70.0926 33.7557 70.0291 33.7344 69.9882C33.7017 69.9299 33.7507 69.8472 33.6563 69.8085C33.5476 69.7638 33.4629 69.7074 33.3114 69.6848C33.0435 69.6443 32.7961 69.5881 32.5371 69.5395C32.3927 69.5129 32.2613 69.4595 32.0957 69.4711C31.9172 69.4834 31.8206 69.4464 31.6912 69.4292C31.5377 69.4095 31.404 69.3708 31.2528 69.3494C31.177 69.3381 31.0631 69.3585 30.9873 69.3472C30.9089 69.3354 30.837 69.3563 30.7565 69.3734C30.6582 69.3935 30.5567 69.4369 30.4628 69.4135C30.3771 69.3916 30.2204 69.4471 30.144 69.4065C30.1233 69.3949 30.081 69.3933 30.0482 69.387C29.8545 69.3498 29.6423 69.3254 29.4745 69.2737C29.287 69.2149 28.9999 69.2617 28.8107 69.2081C28.6356 69.1593 28.4237 69.136 28.2368 69.0936C28.0994 69.0629 27.8963 69.1095 27.7665 69.064C27.6476 69.0206 27.4818 69.0051 27.3374 68.9784C27.1928 68.9507 27.0481 68.9229 26.8844 68.8915L26.889 68.888Z" fill="#FCD214"/>
<path d="M139.956 116.016C139.37 115.602 138.763 115.217 138.15 114.84C137.514 114.498 136.886 114.15 136.23 113.852C135.539 113.634 134.84 113.46 134.149 113.292C133.471 113.075 132.794 112.857 132.109 112.69C131.432 112.486 130.754 112.29 130.07 112.13C129.385 111.956 128.694 111.847 128.009 111.716C127.332 111.513 126.654 111.339 125.977 111.15C125.293 111.033 124.601 110.903 123.917 110.808C123.218 110.837 122.519 110.852 121.828 110.903C121.143 110.823 120.466 110.714 119.767 110.648C119.069 110.648 118.37 110.612 117.672 110.627C116.973 110.641 116.274 110.634 115.583 110.663L113.522 110.968L111.455 111.15L109.43 111.585L107.348 111.644L105.301 111.956C104.645 112.174 103.982 112.377 103.333 112.61C102.669 112.799 102.006 112.973 101.35 113.169C100.687 113.336 100.023 113.51 99.3669 113.699C98.6825 113.786 97.998 113.895 97.3135 113.997C96.6572 114.215 96.008 114.426 95.3588 114.651L93.376 115.232L91.5342 116.096C90.8921 116.234 90.2499 116.365 89.6148 116.474C89.0221 116.743 88.4223 116.997 87.8154 117.244C87.1662 117.302 86.51 117.346 85.8537 117.375C85.2257 117.564 84.5977 117.731 83.9555 117.898C83.3063 117.985 82.6571 118.087 82.0009 118.152C81.3375 118.174 80.6813 118.195 80.018 118.195C79.3688 118.297 78.7125 118.384 78.0492 118.464C77.3929 118.566 76.7367 118.668 76.0734 118.755C75.4101 118.806 74.7468 118.864 74.0834 118.9L72.0935 119.067L70.0824 118.973C69.412 119.009 68.7628 119.009 68.1136 119.009C67.4644 119.06 66.8152 119.147 66.166 119.176L64.2184 119.016C63.5622 119.045 62.913 118.987 62.2638 118.973C61.6216 118.82 60.9865 118.66 60.3585 118.457C59.7234 118.319 59.0813 118.21 58.4533 118.05L56.4845 117.948L54.5863 117.455C53.9583 117.266 53.3443 117.033 52.7304 116.823C52.0883 116.677 51.4673 116.481 50.8322 116.314C50.2183 116.082 49.6256 115.806 49.0187 115.551C48.4542 115.203 47.8897 114.854 47.3392 114.491C46.7465 114.222 46.1608 113.953 45.5822 113.663C45.2929 113.51 45.0176 113.351 44.7424 113.191L44.5378 113.075L44.5025 113.038C44.5025 113.038 44.4602 113.038 44.439 113.038C44.4249 113.024 44.4108 113.009 44.3967 112.98C44.3826 112.944 44.3685 113.009 44.3755 112.661L44.5801 110.561L44.7495 108.462L44.6225 106.356L44.8201 104.264L44.7001 102.164L44.8836 100.065L44.5237 97.9733C44.5801 97.2759 44.6366 96.5714 44.686 95.874L44.439 93.7894L44.3614 91.6974L44.2626 89.6055C44.2273 88.9081 44.185 88.2108 44.1356 87.5135L44.1709 85.407L43.9874 83.3659C43.9098 82.6904 43.8533 82.0076 43.7898 81.3248C43.7263 80.642 43.6769 79.9592 43.6275 79.2764C43.6346 78.5936 43.6557 77.9036 43.6769 77.2208L43.7122 75.1652L43.6981 73.1095L43.437 71.0539L43.4864 68.9983L43.5146 66.9426L43.7686 64.8943L43.8674 62.8386L44.0721 60.7903L44.2344 58.7419L44.2838 57.8121L44.2697 57.6233C44.2908 57.5216 44.4037 57.449 44.5096 57.5216C44.5519 57.5071 44.5872 57.5216 44.6437 57.5216L44.7142 57.5361H44.7495L44.94 57.6305C45.5892 57.9066 46.2455 58.1535 46.9017 58.3932C47.5015 58.7637 48.0943 59.1632 48.7082 59.5046C49.3574 59.7661 50.0066 60.0203 50.6629 60.2455C51.3403 60.4053 52.0248 60.5578 52.7093 60.6813C53.3443 60.9719 53.9794 61.2842 54.6216 61.5457C55.2919 61.72 55.9553 61.9234 56.6327 62.0832L58.6367 62.6498C59.3283 62.7152 60.0269 62.7369 60.7184 62.7878C61.3817 63.0057 62.045 63.2018 62.7154 63.3762L64.7971 63.3544L66.8082 63.9282C67.4997 63.95 68.1842 63.9645 68.8757 63.9427L70.9292 64.1534C71.6207 64.1388 72.3052 64.0517 72.9897 64.0008L75.0431 63.9427L77.0966 64.0226L79.143 63.8483L81.1964 63.812L83.2499 63.7974L85.261 63.3834L87.3215 63.4706L89.3185 62.9694C90.0029 62.9258 90.6874 62.904 91.3649 62.8386L93.3618 62.3302C94.0393 62.2357 94.7096 62.1195 95.3871 61.996L97.4193 61.691L99.4163 61.197C100.087 61.059 100.75 60.8847 101.413 60.7176C102.091 60.6014 102.768 60.4852 103.439 60.3399L105.365 59.6135L107.298 58.9525L109.267 58.4586L111.25 58.0591L113.169 57.5289L115.068 56.9623C115.71 56.8025 116.352 56.679 116.987 56.541C117.608 56.3085 118.243 56.1415 118.871 55.9381C119.506 55.771 120.155 55.6476 120.798 55.5241C121.461 55.495 122.117 55.466 122.773 55.4877C123.43 55.466 124.093 55.4296 124.735 55.4224C125.37 55.3497 126.005 55.2335 126.64 55.1972C127.283 55.2553 127.918 55.3207 128.553 55.4296C129.272 55.3279 129.992 55.2989 130.726 55.2408C131.432 55.4078 132.144 55.5531 132.836 55.7565C133.556 55.8219 134.276 55.9308 134.988 56.0398C135.63 56.2359 136.258 56.4538 136.886 56.679C137.451 56.679 138.023 56.6935 138.594 56.7226C139.264 56.8606 139.942 57.0131 140.598 57.202C140.817 56.9695 141.043 56.7371 141.276 56.5119C141.05 56.1342 140.817 55.7638 140.57 55.3933C140.125 55.0156 139.674 54.6524 139.215 54.2965C138.559 54.0205 137.888 53.7662 137.218 53.5338C136.555 53.2433 135.877 52.989 135.193 52.7421C134.473 52.684 133.76 52.6476 133.041 52.6258C132.349 52.4225 131.651 52.2554 130.945 52.0956C130.218 52.1101 129.498 52.1174 128.778 52.1828C128.073 52.0375 127.353 51.9431 126.626 51.8486C125.906 51.8268 125.18 51.8922 124.453 51.914L122.329 52.052C121.63 52.2045 120.946 52.4152 120.254 52.6113C119.542 52.6113 118.829 52.6258 118.116 52.6767C117.446 52.8655 116.775 53.0399 116.126 53.265C115.463 53.4394 114.785 53.5847 114.136 53.7808C113.487 53.9842 112.824 54.1803 112.182 54.3982L110.22 54.9502L108.251 55.4224L106.374 56.1705L104.363 56.3812L102.507 57.1221C101.879 57.34 101.244 57.5361 100.616 57.7322C99.9809 57.9138 99.3458 58.11 98.7036 58.2698L96.7278 58.4877L94.7873 58.8509C94.1451 59.0252 93.51 59.185 92.8608 59.3303H90.8638C90.2146 59.461 89.5584 59.5482 88.9092 59.6571L86.9686 60.1293L84.9858 60.2891L82.9958 60.3544L81.0341 60.5796L79.0583 60.5288C78.4091 60.674 77.7528 60.783 77.0966 60.9137L75.1207 60.9501L73.159 60.5506C72.5028 60.6159 71.8395 60.7176 71.1832 60.7539L69.2144 60.6595C68.5582 60.645 67.9019 60.6014 67.2457 60.5433L65.3192 60.0784L63.3716 59.8605C62.7295 59.737 62.0874 59.599 61.4523 59.4319L59.4765 59.3085L57.543 58.9453C56.9291 58.691 56.3363 58.3714 55.7365 58.0882C55.0873 58.001 54.4381 57.8775 53.796 57.754C53.175 57.5506 52.5611 57.3327 51.9542 57.0858C51.3403 56.8606 50.7334 56.6209 50.1407 56.3594C49.555 56.0688 48.9905 55.7492 48.4259 55.4296C47.812 55.2263 47.2122 54.9793 46.6124 54.7396L46.0197 54.4127C45.7092 54.2457 45.3987 54.0568 45.0882 53.8752C44.6507 53.7372 44.2062 53.5701 43.7757 53.4539C42.8442 53.4031 41.6658 54.1149 41.4823 55.1318C41.32 55.6403 41.1225 56.1197 41.0872 56.7734L40.9249 58.1317L40.7696 60.2164L40.7979 62.3084L40.5509 64.3785L40.565 66.4632L40.4803 68.5479L40.1839 70.6544L40.2968 72.7464L40.438 74.831C40.3462 75.5284 40.2545 76.2257 40.1769 76.923L40.4803 79.0077L40.6144 81.0924L40.5226 83.1916L40.5509 85.2835L40.6991 87.3319C40.7908 88.0074 40.8966 88.683 40.9813 89.3657L40.9249 91.4141L41.0166 93.4552C41.0448 94.138 41.066 94.8208 41.0872 95.4963L41.32 97.5374L41.1507 99.5858L41.3624 101.634V103.683L41.1295 105.724L41.2283 107.772L41.0942 109.806V111.847L41.0378 113.002L40.8966 114.854V114.912C41.7505 115.559 43.0489 116.372 43.437 116.626C44.0227 117.004 44.6154 117.382 45.2152 117.731C45.8503 118.007 46.4925 118.261 47.1417 118.501C47.7979 118.726 48.4683 118.893 49.1245 119.082C49.7314 119.408 50.3594 119.685 50.9875 119.99C51.6578 120.157 52.3353 120.28 52.9986 120.425C53.6195 120.73 54.2687 120.97 54.9038 121.246C55.5671 121.435 56.2375 121.58 56.9079 121.726C57.5924 121.791 58.2839 121.856 58.9684 121.871C59.6529 121.922 60.3303 122.002 61.0148 122.038L63.0188 122.539C63.6962 122.619 64.3878 122.612 65.0723 122.655C65.7568 122.634 66.4412 122.634 67.1257 122.554L69.1792 122.844C69.8566 122.728 70.5058 122.59 71.1762 122.467C71.8395 122.437 72.5098 122.408 73.1731 122.365L75.1843 122.488L77.1813 122.321L79.1782 122.103L81.1964 121.994L83.1793 121.53C83.8497 121.45 84.5271 121.391 85.1975 121.29C85.8749 121.203 86.5452 121.108 87.2227 120.992C87.886 120.81 88.5493 120.614 89.2056 120.396C89.8759 120.229 90.5392 120.04 91.1955 119.837C91.8729 119.706 92.5433 119.554 93.2066 119.409L95.1119 118.682L96.9607 117.803C97.6169 117.643 98.2661 117.476 98.9294 117.331C99.5998 117.222 100.27 117.135 100.933 117.033L102.853 116.401C103.516 116.3 104.179 116.176 104.843 116.082C105.499 115.958 106.155 115.82 106.819 115.726C107.454 115.493 108.096 115.246 108.738 115.028C109.415 115.028 110.086 115.021 110.763 115.05C111.412 114.883 112.062 114.709 112.718 114.564C113.381 114.535 114.052 114.491 114.715 114.491C115.371 114.418 116.034 114.338 116.698 114.302C117.361 114.382 118.024 114.44 118.674 114.564C119.33 114.462 119.986 114.346 120.671 114.28C121.334 114.36 122.004 114.433 122.66 114.542C123.324 114.564 123.994 114.593 124.65 114.644C125.271 114.825 125.885 115.028 126.485 115.254C127.113 115.312 127.727 115.406 128.348 115.493C128.983 115.53 129.604 115.61 130.232 115.668C130.811 115.936 131.389 116.169 131.947 116.467C132.533 116.677 133.097 116.917 133.662 117.171C134.276 117.287 134.882 117.433 135.496 117.593C136.011 117.963 136.512 118.341 136.999 118.747C137.578 118.9 138.135 119.111 138.707 119.3C139.215 119.547 139.744 119.779 140.245 120.055C140.655 120.12 141.078 120.171 141.494 120.251H142.532L143.153 119.764L142.927 118.66C142.454 118.195 141.946 117.76 141.452 117.302C140.958 116.881 140.471 116.438 139.949 116.038L139.956 116.016Z" fill="#1B8533"/>
<path d="M148.113 117.375L148.156 116.895L148.135 116.43L147.803 116.009L147.669 115.559C147.655 115.406 147.634 115.253 147.619 115.094L147.563 114.629L147.746 114.135L147.803 113.655L147.507 113.212L147.605 112.726L147.556 112.261L147.535 111.789L147.33 111.338V110.866L147.133 110.409L147.365 109.915L147.408 109.435L147.154 108.978L147.034 108.513L146.991 108.041L147.224 107.547L147.14 107.075L147.182 106.595L146.956 106.13L147.154 105.644L146.857 105.186L147.104 104.699L146.893 104.234V103.755L147.048 103.268L146.949 102.796L146.801 102.324L146.766 101.845L146.695 101.373L146.85 100.893V100.414L146.66 99.9416L146.702 99.4622L146.547 98.99L146.794 98.5034L146.857 98.0239L146.54 97.5518V97.0724L146.589 96.593L146.448 96.1208L146.497 95.6414L146.78 95.1548L146.737 94.6754L146.766 94.196L146.639 93.7166L146.78 92.7577L146.582 92.2856L146.73 91.8062L146.589 91.3268L146.773 90.8474L146.434 90.368L146.639 89.8886L146.455 89.4092V88.9298L146.483 88.4504V87.971L146.674 87.4915L146.631 87.0121L146.547 86.5327L146.476 86.0533L146.589 85.5739L146.66 85.0945V84.6151L146.385 84.1357L146.399 83.6563L146.363 83.1769L146.526 82.6975V82.2181L146.589 81.7387V81.2593L146.54 80.7799L146.646 80.3005L146.547 79.8211L146.377 79.3417L146.681 78.8695V78.3901L146.434 77.9107L146.702 77.4386V76.9592L146.801 76.4797L146.547 75.9931L146.794 75.5209L146.483 75.0343L146.836 74.5621L146.681 74.0827L146.766 73.6033L146.568 73.1166L146.483 72.6372L146.61 72.1578L146.504 71.6784L146.61 71.199L146.737 70.7196L146.54 70.2329L146.836 69.7608L146.617 69.2741L146.766 68.7947L146.596 68.3081L146.631 67.8287L146.737 67.3492L146.709 66.8698L146.737 66.3904L146.9 65.9183L146.744 65.4316L146.681 64.9522L146.801 64.4728L147.005 64.0007L147.048 63.5213L147.005 63.0419L147.048 62.5625L146.843 62.0758L146.759 61.5964L146.977 61.1242L147.104 60.6521L146.97 60.1654L147.168 59.6933L146.829 59.1485L147.034 58.6183L146.893 58.0807L147.027 57.5941L146.561 57.1728L146.307 56.6643L145.425 56.5408L144.691 56.7587L144.141 57.1147L143.999 57.6013L143.724 58.0807L144.006 58.5819L143.774 59.0686L144.014 59.5698L143.724 60.0492L143.696 60.5431L143.618 61.0298L143.887 61.531L143.597 62.0104L143.767 62.4971L143.795 62.9765L143.865 63.4559L143.83 63.9353L143.696 64.4074L143.837 64.8941L143.456 65.359L143.64 65.8457L143.731 66.3251L143.788 66.8045L143.562 67.2766L143.534 67.756L143.647 68.2354L143.322 68.7076L143.371 69.187L143.569 69.6736L143.52 70.153L143.378 70.6252L143.456 71.1046L143.273 71.5767L143.583 72.0634L143.569 72.5428L143.209 73.015L143.456 73.5016L143.477 73.981L143.52 74.4604L143.258 74.9326L143.315 75.412L143.202 75.8914L143.442 76.3781L143.52 76.8575L143.16 77.3296L143.385 77.809L143.343 78.2884L143.308 78.7678L143.124 79.2472L143.28 79.7266L143.237 80.206L143.357 80.6854L143.273 81.1648V81.6443L143.449 82.1237L143.315 82.6031L143.421 83.0825L143.4 83.5619L143.103 84.0413L143.23 84.5207L143.364 85.0001L143.075 85.4795L143.322 85.9589L143.378 86.4383L143.174 86.9177L143.061 87.3971V87.8765L143.216 88.3559L143.047 88.8353V89.7941L143.23 90.2736L143.033 90.753L143.237 91.2324V91.7118L143.061 92.1912L143.223 92.6706L143.181 93.15L143.308 93.6294L143.35 94.1088L143.223 94.5882L143.061 95.0676L143.167 95.5398L143.371 96.0119L143.16 96.4913L143.35 96.9634L143.082 97.4428V97.915L143.336 98.3871L143.498 98.8593L143.237 99.3387L143.273 99.8108L143.442 100.283L143.167 100.762L143.477 101.227L143.498 101.699L143.287 102.179L143.336 102.651L143.407 103.123L143.329 103.602L143.562 104.067L143.513 104.547L143.456 105.026L143.611 105.491L143.632 105.963L143.442 106.45L143.527 106.937L143.816 107.416L143.745 107.917L143.534 108.426L143.71 108.912L143.611 109.413V109.907L143.978 110.372L143.703 110.888L143.978 111.36C143.957 111.527 143.936 111.694 143.922 111.861L144.063 112.348L143.844 112.871L144.225 113.329L144.148 113.837L144.289 114.324L143.992 114.839L144.133 115.304C144.232 115.45 144.324 115.602 144.437 115.747L144.246 116.263V116.75L144.656 117.178L144.416 117.709L144.881 118.086L145.178 118.471L145.778 118.646L146.42 118.726L147.161 118.631L147.852 118.304L148.008 117.832L148.177 117.375H148.113Z" fill="#1B8533"/>
<path d="M45.7586 73.066C45.808 73.1023 45.8574 73.1314 45.9068 73.1387C46.062 73.1677 46.2525 72.9643 46.3866 73.0733C46.4642 73.1387 46.4925 73.4074 46.5842 73.4074C46.81 73.4074 46.9158 72.9861 47.1417 73.1895C47.4098 73.4147 47.3816 73.3784 47.6709 73.1169C47.8544 72.9425 48.0308 73.0152 48.2072 73.0297C48.5671 73.0588 48.9199 73.0515 49.2798 73.2186C49.7737 73.451 50.1689 72.9789 50.6276 72.9353C51.0086 72.9135 51.3826 72.8554 51.7566 72.7537C51.9754 72.7028 52.1871 72.6375 52.3917 72.5576C52.5963 72.4631 52.7939 72.3542 52.9845 72.2452L53.5701 71.9256C53.7607 71.8094 53.9512 71.6932 54.1488 71.606C54.3675 71.5043 54.3675 71.1775 54.678 71.2065C54.9744 71.221 55.1508 71.1048 55.3131 70.8796C55.553 70.5092 56.0964 70.5964 56.4139 70.3131C56.4704 70.2622 56.3575 70.0007 56.3928 69.9208C56.4492 69.7756 56.7173 69.8845 56.802 69.7683C56.8938 69.6448 56.9784 69.485 57.0631 69.3543C57.1055 69.2744 57.0349 69.0637 57.1055 69.0274C57.176 68.9838 57.3948 69.1146 57.4795 69.0855C57.6276 69.0347 57.5641 68.7732 57.5782 68.5988C57.6206 68.1122 58.4391 68.3156 58.4533 67.7998C58.4603 67.6255 58.3474 67.4221 58.4674 67.364C58.5309 67.3277 58.6579 67.2841 58.7214 67.2405C58.7779 67.2042 58.792 67.1243 58.7779 67.0371C58.7567 66.8919 58.7426 66.6086 58.6156 66.4197C58.4815 66.2236 58.2698 66.0565 57.9593 65.8241C57.9593 65.8241 57.4653 65.5917 57.2678 65.5699C57.0631 65.5553 57.0631 65.6498 57.0631 65.6498L56.7738 65.6861L56.7174 65.9403C56.7315 66.0057 56.4774 65.9403 56.4069 65.9403C56.2375 65.9403 56.174 66.0057 56.1246 66.1074C56.0399 66.3035 56.0611 66.5795 56.0258 66.8338C55.9905 67.0662 55.7153 66.9209 55.5177 66.95C55.3413 66.979 55.5177 67.3567 55.3696 67.4512C55.2919 67.4875 55.0873 67.3785 55.0238 67.4221C54.9462 67.4802 55.0238 67.6981 54.9109 67.7054C54.8685 67.7054 54.5933 67.5238 54.6075 67.5819L54.671 67.9959L54.4945 68.1122C54.4945 68.1122 54.3252 68.2357 54.3181 68.2284C54.177 68.4608 53.7466 68.1122 53.5631 68.2211C53.4996 68.2574 53.5631 68.5117 53.5066 68.5698C53.4502 68.6352 53.3232 68.577 53.2244 68.5698C53.0127 68.5553 52.9633 68.7223 52.8574 68.9257C52.8151 69.0056 52.7798 69.1436 52.6881 69.1291C52.5963 69.1146 52.3846 68.8095 52.3211 68.8313C52.2506 68.8458 52.3494 69.2744 52.2788 69.2962C52.2012 69.3252 52.0248 68.9766 51.9542 68.9766C51.8766 68.9766 51.8977 69.2598 51.8766 69.4051L51.7072 69.5504C51.7072 69.5504 51.5026 69.5867 51.4955 69.5794C51.0651 69.6884 50.5641 69.3397 50.176 69.5359C50.0701 69.594 50.0066 69.9572 49.8725 69.9208C49.7314 69.8773 49.6467 69.6957 49.5126 69.7247C49.3997 69.7465 49.301 69.6375 49.181 69.6012C49.0187 69.5576 48.8634 69.87 48.6941 69.8119C48.5741 69.7756 48.4683 69.4705 48.3624 69.5286C48.2072 69.6085 48.2072 69.7756 48.0449 69.6739C47.9532 69.6158 47.8685 69.5141 47.7697 69.5794C47.6215 69.6811 47.5509 69.8555 47.4027 69.7756C47.311 69.7247 47.2263 69.6375 47.1346 69.6012C47.0217 69.5649 46.8665 69.6666 46.7606 69.5649C46.6548 69.4632 46.5983 69.3688 46.4925 69.347C46.2455 69.2962 46.1749 69.238 45.4693 71.0104C44.7636 72.5067 45.1588 72.8917 45.5751 72.9571C45.6527 72.9716 45.7162 73.0224 45.7868 73.0733L45.7586 73.066Z" fill="#1B8533"/>
<path d="M43.6628 103.581C43.7051 103.61 43.7475 103.639 43.7969 103.646C43.9309 103.668 44.1144 103.457 44.2344 103.574C44.3049 103.639 44.312 103.915 44.3896 103.915C44.5872 103.93 44.7354 103.515 44.9189 103.748C45.1306 104.009 45.1023 103.973 45.4199 103.777C45.6316 103.639 45.7868 103.748 45.9421 103.821C46.2596 103.966 46.5983 104.046 46.8382 104.373C47.1558 104.779 47.6921 104.54 48.0731 104.787C48.3907 104.968 48.6941 105.172 48.9975 105.36C49.3574 105.571 49.7314 105.76 50.1195 105.949C50.5147 106.116 50.8746 106.348 51.1992 106.624C51.3756 106.777 51.6719 106.639 51.7637 106.944C51.8413 107.242 51.9683 107.387 52.2224 107.481C52.6316 107.634 52.674 108.164 52.9068 108.477C52.9492 108.535 53.2032 108.397 53.2808 108.433C53.429 108.491 53.3232 108.76 53.4361 108.847C53.556 108.934 53.7183 109.014 53.8454 109.109C53.9089 109.159 54.1135 109.116 54.1488 109.203C54.177 109.283 54.0288 109.494 54.0429 109.588C54.0641 109.748 54.3181 109.719 54.4946 109.777C54.9673 109.937 54.6216 110.663 55.0379 110.866C55.1931 110.939 55.4119 110.903 55.4331 111.041C55.4401 111.121 55.4331 111.266 55.4542 111.339C55.4684 111.404 55.5389 111.455 55.6165 111.477C55.7577 111.52 56.0329 111.636 56.2587 111.6C56.4986 111.564 56.7456 111.455 57.0914 111.28C57.0914 111.28 57.5077 110.932 57.5853 110.721C57.6629 110.51 57.5641 110.445 57.5641 110.445L57.6065 110.096L57.3524 109.871C57.2819 109.849 57.4089 109.588 57.423 109.501C57.4653 109.305 57.4018 109.174 57.3101 109.05C57.1407 108.811 56.7738 108.709 56.4986 108.557C56.2375 108.418 56.4069 108.15 56.3645 107.866C56.3292 107.627 55.9129 107.699 55.8141 107.489C55.7647 107.38 55.8494 107.162 55.7788 107.067C55.6942 106.951 55.4542 107.017 55.419 106.857C55.4048 106.806 55.553 106.486 55.4825 106.486H55.0167L54.8333 106.239L54.6427 106C54.3111 105.84 54.4946 105.281 54.2546 105.034C54.177 104.954 53.93 105.048 53.8312 104.99C53.7254 104.917 53.7183 104.743 53.6619 104.62C53.5208 104.358 53.2808 104.329 52.9915 104.264C52.8716 104.235 52.7093 104.235 52.6528 104.118C52.6034 104.002 52.7304 103.639 52.6528 103.559C52.5752 103.479 52.2435 103.762 52.1518 103.704C52.053 103.639 52.2224 103.283 52.1447 103.203C52.0671 103.116 51.8131 103.269 51.6649 103.327L51.3685 103.21L51.1357 103C50.5923 102.673 50.2677 101.903 49.6114 101.743C49.428 101.7 49.1316 101.939 48.9905 101.801C48.8352 101.649 48.8211 101.438 48.6235 101.373C48.4542 101.322 48.3766 101.162 48.2213 101.053C48.0026 100.901 47.6709 101.082 47.4522 100.951C47.2969 100.857 47.2334 100.523 47.064 100.523C46.81 100.523 46.7677 100.683 46.556 100.523C46.436 100.436 46.3161 100.305 46.1608 100.334C45.9209 100.385 45.8009 100.53 45.5892 100.414C45.4552 100.341 45.3281 100.24 45.187 100.189C45.0106 100.123 44.7848 100.196 44.6154 100.094C44.4461 99.9853 44.3402 99.8764 44.1709 99.8546C43.7898 99.8037 43.4793 99.7238 43.0842 101.605C42.8442 103.239 43.0983 103.486 43.4793 103.515C43.5428 103.515 43.6063 103.566 43.6628 103.61V103.581Z" fill="#1B8533"/>
<path d="M137.592 97.2758C137.543 97.2685 137.486 97.2612 137.444 97.2758C137.317 97.3193 137.246 97.5808 137.098 97.5445C137.013 97.5227 136.872 97.2903 136.809 97.3266C136.639 97.421 136.724 97.8351 136.463 97.7479C136.16 97.6535 136.195 97.668 136.075 98.0167C135.997 98.2418 135.835 98.2636 135.687 98.3072C135.383 98.4016 135.115 98.5542 134.755 98.5179C134.268 98.4598 134.134 99.0409 133.767 99.2007C133.464 99.3241 133.182 99.5057 132.9 99.6728C132.568 99.8617 132.293 100.145 132.025 100.421C131.749 100.697 131.495 100.988 131.199 101.22C131.03 101.351 131.114 101.656 130.839 101.67C130.571 101.692 130.437 101.816 130.345 102.041C130.211 102.411 129.703 102.382 129.463 102.651C129.421 102.702 129.569 102.941 129.555 103.014C129.526 103.159 129.265 103.058 129.202 103.174C129.138 103.297 129.089 103.443 129.033 103.573C128.997 103.639 129.096 103.835 129.033 103.878C128.976 103.915 128.75 103.806 128.673 103.835C128.539 103.886 128.637 104.125 128.637 104.293C128.659 104.75 127.861 104.554 127.889 105.026C127.896 105.186 128.023 105.375 127.918 105.433C127.854 105.462 127.741 105.506 127.685 105.542C127.635 105.571 127.628 105.651 127.649 105.731C127.685 105.869 127.713 106.13 127.854 106.305C128.002 106.486 128.214 106.653 128.532 106.878C128.532 106.878 129.018 107.111 129.216 107.133C129.414 107.147 129.407 107.06 129.407 107.06L129.689 107.024L129.724 106.784C129.71 106.726 129.957 106.784 130.028 106.784C130.19 106.784 130.253 106.719 130.296 106.631C130.373 106.45 130.324 106.174 130.331 105.934C130.338 105.709 130.62 105.84 130.811 105.803C130.98 105.774 130.775 105.411 130.903 105.324C130.973 105.28 131.178 105.375 131.234 105.324C131.305 105.259 131.192 105.055 131.305 105.041C131.347 105.041 131.636 105.186 131.615 105.135L131.495 104.736L131.651 104.605C131.651 104.605 131.686 104.569 131.721 104.539C131.763 104.51 131.799 104.474 131.799 104.474C131.89 104.227 132.363 104.503 132.526 104.372C132.582 104.329 132.476 104.089 132.511 104.024C132.554 103.951 132.688 103.987 132.78 103.973C132.984 103.944 132.998 103.77 133.048 103.552C133.069 103.464 133.069 103.326 133.161 103.326C133.252 103.326 133.528 103.573 133.584 103.537C133.64 103.501 133.443 103.116 133.499 103.072C133.563 103.029 133.817 103.319 133.887 103.297C133.958 103.276 133.866 103.014 133.845 102.869L133.965 102.695L134.149 102.607C134.501 102.375 135.087 102.564 135.362 102.237C135.44 102.142 135.369 101.787 135.503 101.779C135.652 101.779 135.786 101.895 135.891 101.823C135.983 101.765 136.11 101.823 136.23 101.816C136.392 101.801 136.407 101.452 136.576 101.438C136.696 101.423 136.908 101.663 136.971 101.569C137.077 101.438 137.013 101.285 137.183 101.3C137.282 101.314 137.402 101.373 137.451 101.271C137.536 101.118 137.529 100.937 137.677 100.944C137.776 100.944 137.881 100.995 137.973 100.98C138.086 100.973 138.171 100.799 138.298 100.85C138.425 100.893 138.516 100.958 138.608 100.929C138.827 100.864 138.919 100.886 138.707 98.9827C138.615 97.3266 138.135 97.1741 137.79 97.2976C137.726 97.3193 137.649 97.2976 137.578 97.2903L137.592 97.2758Z" fill="#1B8533"/>
<path d="M127.198 59.4608C127.198 59.5189 127.212 59.5697 127.24 59.606C127.318 59.7223 127.586 59.715 127.593 59.8748C127.593 59.9692 127.417 60.1726 127.473 60.2307C127.614 60.376 127.981 60.1726 127.974 60.4632C127.974 60.7973 127.974 60.7537 128.341 60.7828C128.574 60.7973 128.637 60.9571 128.729 61.1024C128.906 61.3856 129.138 61.6108 129.195 62.0031C129.287 62.5115 129.872 62.5043 130.133 62.8384C130.352 63.1071 130.599 63.3614 130.832 63.6156C131.128 63.8989 131.474 64.1168 131.813 64.3274C132.173 64.5236 132.533 64.7124 132.843 64.9667C133.027 65.0974 133.295 64.9303 133.408 65.1991C133.52 65.4679 133.676 65.5841 133.923 65.6131C134.332 65.6422 134.501 66.1361 134.84 66.325C134.904 66.3613 135.08 66.1434 135.158 66.1361C135.306 66.1143 135.32 66.4049 135.454 66.4267C135.602 66.4485 135.764 66.4485 135.913 66.463C135.99 66.4702 136.138 66.3177 136.202 66.3686C136.265 66.4194 136.244 66.6809 136.301 66.7463C136.407 66.8625 136.597 66.6809 136.759 66.6155C137.19 66.4267 137.359 67.262 137.804 67.0586C137.952 66.986 138.072 66.7899 138.178 66.8625C138.234 66.9061 138.333 67.0005 138.397 67.0368C138.453 67.0659 138.524 67.0441 138.594 66.9932C138.707 66.9061 138.94 66.7608 139.032 66.5574C139.13 66.3395 139.173 66.078 139.222 65.6785C139.222 65.6785 139.194 65.1192 139.123 64.9303C139.053 64.7415 138.975 64.7851 138.975 64.7851L138.82 64.5381L138.594 64.6107C138.545 64.6543 138.495 64.4001 138.467 64.3274C138.404 64.1676 138.319 64.1604 138.227 64.1459C138.044 64.1241 137.818 64.2984 137.592 64.3856C137.387 64.4655 137.394 64.1531 137.289 63.9861C137.197 63.8408 136.95 64.1459 136.83 64.0514C136.766 64.0006 136.774 63.7681 136.71 63.7318C136.632 63.6882 136.477 63.8698 136.421 63.7681C136.4 63.7318 136.449 63.405 136.4 63.4413C136.4 63.4413 136.315 63.4994 136.237 63.5648C136.153 63.6229 136.075 63.681 136.075 63.681L135.906 63.5575L135.736 63.4485C135.475 63.434 135.574 62.9038 135.405 62.7803C135.348 62.7367 135.158 62.911 135.087 62.882C135.009 62.8602 135.002 62.7076 134.96 62.6205C134.868 62.4316 134.699 62.4752 134.473 62.4825C134.381 62.4825 134.254 62.5115 134.226 62.4244C134.198 62.3299 134.353 61.9885 134.304 61.9377C134.254 61.8868 133.944 62.1919 133.887 62.1483C133.824 62.0975 134.021 61.7706 133.979 61.7052C133.937 61.6399 133.711 61.8069 133.577 61.865L133.372 61.7779L133.238 61.6036C132.899 61.3203 132.928 60.652 132.525 60.4559C132.413 60.405 132.088 60.5576 132.046 60.4196C132.003 60.267 132.081 60.1 131.975 60.0055C131.883 59.9256 131.905 59.7804 131.862 59.6641C131.799 59.4971 131.474 59.5624 131.404 59.3954C131.354 59.2792 131.509 59.0031 131.404 58.9523C131.248 58.8797 131.128 58.9814 131.086 58.7925C131.065 58.6835 131.086 58.5528 130.973 58.5165C130.797 58.4656 130.634 58.5165 130.592 58.3567C130.564 58.255 130.571 58.1315 130.529 58.0371C130.479 57.9208 130.303 57.8773 130.296 57.732C130.296 57.5867 130.317 57.4705 130.26 57.3833C130.119 57.1654 130.098 57.0419 128.404 57.8264C126.909 58.4511 126.909 58.9378 127.127 59.2501C127.17 59.3082 127.17 59.3881 127.184 59.4608H127.198Z" fill="#1B8533"/>
<path d="M99.8256 71.3663L99.1905 70.8651L98.499 70.4583C98.2238 70.4148 97.9415 70.4002 97.6663 70.3712C97.4193 70.2767 97.1653 70.1968 96.9042 70.1242L96.1633 69.8264L95.38 69.6085C95.1471 69.4487 94.886 69.3179 94.632 69.1872C94.3639 69.1 94.0957 68.9983 93.8205 68.9257L92.9455 69.1073C92.6703 69.0201 92.381 68.9838 92.0846 68.9402C91.7882 68.9547 91.4989 68.962 91.2025 68.9911L90.3134 69.1291L89.89 69.2961L89.4878 69.5213L88.6269 69.8046C88.3729 69.9789 88.1471 70.1896 87.9142 70.3784C87.6249 70.4583 87.2862 70.5019 87.011 70.6327L86.27 71.1557C86.0795 71.4099 85.9031 71.6568 85.7973 71.9111L85.3245 72.5648L84.8023 73.1677C84.5483 73.2984 84.3366 73.4655 84.1037 73.6326L83.6732 74.3226L83.1511 74.9401L82.9253 75.7463L82.3396 76.3347C82.2902 76.618 82.2337 76.8867 82.2125 77.1773L81.6339 77.7802L81.4716 78.5864C81.3516 78.8261 81.274 79.0731 81.1752 79.3201L80.7377 80.0029C80.6742 80.2644 80.5966 80.5186 80.5613 80.7801L80.4696 81.5791L80.272 82.3418C80.2226 82.596 80.1944 82.8575 80.152 83.119L79.8204 83.8454C79.7569 84.0996 79.7075 84.3538 79.6722 84.6153L79.7145 85.4143C79.6581 85.6686 79.5946 85.9228 79.5522 86.177L79.6087 86.9688C79.4958 87.2157 79.3758 87.4627 79.27 87.7169L79.1359 88.4869C79.2206 88.7556 79.2982 89.0171 79.397 89.2786L79.3688 90.0559C79.3335 90.3101 79.3123 90.5716 79.2982 90.8331L79.4393 91.6103L79.4111 92.3875L79.1712 93.1938C79.2065 93.4625 79.2417 93.7313 79.2841 94.0073L79.3688 94.8354C79.4605 95.0896 79.5381 95.3511 79.6369 95.6053C79.6722 95.8741 79.6934 96.1429 79.7357 96.4043L79.8557 97.2034L80.2649 97.9152C80.2932 98.184 80.3355 98.46 80.3778 98.736C80.5049 98.9757 80.646 99.2081 80.7942 99.4406C80.8436 99.7166 80.8789 99.9926 80.9424 100.269L81.6057 100.857C81.6551 101.133 81.7468 101.409 81.8315 101.685C82.0291 101.888 82.2055 102.106 82.4242 102.295L82.9041 102.985C83.0523 103.225 83.264 103.428 83.4404 103.646C83.638 103.857 83.8003 104.089 84.0261 104.271L84.5694 104.997C84.7952 105.186 85.0704 105.317 85.3245 105.477C85.5926 105.607 85.8396 105.775 86.1289 105.854L86.9686 106.152C87.2297 106.327 87.4838 106.414 87.7378 106.537C87.9989 106.639 88.26 106.748 88.5281 106.835L89.3537 106.98C89.6431 106.944 89.9253 106.871 90.2005 106.791L91.012 106.857L91.8165 106.806C92.0846 106.864 92.3528 106.893 92.628 106.922C92.8961 106.886 93.1643 106.864 93.4253 106.821L94.2227 106.755C94.4909 106.719 94.7379 106.639 94.999 106.588C95.253 106.508 95.5 106.421 95.7469 106.327C96.008 106.283 96.2691 106.247 96.5302 106.196L97.2359 105.833L97.8921 105.375C98.1673 105.375 98.4425 105.353 98.7248 105.339C98.9647 105.23 99.1905 105.099 99.4304 104.983C99.628 104.779 99.8256 104.591 100.016 104.38L100.221 104.336L100.327 104.315L100.482 104.264C100.701 104.191 100.884 104.075 101.082 103.951C101.343 103.69 101.512 103.486 101.703 103.254C101.9 103.051 102.112 102.847 102.295 102.629C102.387 102.346 102.479 102.063 102.542 101.787C102.747 101.598 102.973 101.409 103.163 101.206C103.199 100.908 103.241 100.625 103.269 100.334L103.925 99.7675C103.996 99.4987 104.038 99.2299 104.095 98.9612C104.215 98.7215 104.356 98.489 104.462 98.2493L104.525 97.4285C104.589 97.1743 104.631 96.9128 104.673 96.6513L105.012 95.9322C105.054 95.6707 105.069 95.4092 105.09 95.1477L105.358 94.4141C105.464 94.1744 105.541 93.9274 105.626 93.6805L105.563 92.8814C105.704 92.6417 105.845 92.4093 105.972 92.1623L105.845 91.3633L106.085 90.6152L105.979 89.8307L106.071 89.068C106.12 88.8138 106.184 88.5668 106.212 88.298L106.191 87.499L106.219 86.7073C106.282 86.4458 106.296 86.1698 106.339 85.901L106.12 85.1093C106.071 84.8478 106.042 84.579 105.972 84.3175L105.951 83.504C105.965 83.228 105.993 82.9447 106 82.6614L105.824 81.8551L105.556 81.0779L105.301 80.2934C105.139 80.061 104.984 79.8285 104.808 79.6106L104.37 78.9206C104.314 78.6445 104.264 78.3613 104.179 78.0925L103.862 77.3153C103.686 77.0974 103.481 76.9085 103.283 76.7124C103.17 76.4582 103.072 76.1894 102.945 75.9352L102.091 75.4703C101.943 75.2015 101.773 74.9401 101.611 74.6713C101.371 74.4824 101.096 74.3299 100.842 74.1701C100.665 73.9449 100.468 73.7488 100.277 73.5382C100.002 73.5164 99.7198 73.5236 99.4516 73.5309C99.1694 73.451 98.8941 73.3784 98.5978 73.3202C98.4143 73.5599 98.2308 73.8069 98.0615 74.0611C98.0544 74.3372 98.0333 74.6204 98.005 74.8892C98.0544 75.1434 98.0968 75.3831 98.132 75.6301C98.2802 75.7899 98.4284 75.9497 98.5695 76.124C98.6895 76.3274 98.7954 76.5381 98.8941 76.7487C99.12 76.8141 99.3458 76.8867 99.5645 76.9739C99.6633 77.1918 99.7692 77.3879 99.8538 77.6131L100.468 77.9545C100.538 78.1869 100.581 78.4339 100.637 78.6591C100.757 78.8407 100.891 79.015 100.99 79.2111L101.265 79.814C101.47 79.952 101.632 80.1191 101.816 80.2716L101.851 80.9907L102.239 81.5355L102.5 82.1384L102.747 82.7558L102.895 83.4023L102.881 84.0851L103.142 84.7243C103.072 84.9567 102.938 85.2037 102.839 85.4289L103.086 86.0826C103.128 86.3078 103.199 86.5257 103.22 86.7581L103.269 87.4409L103.043 88.1164C103.043 88.3416 103.008 88.5741 102.987 88.8065L103.05 89.5256L102.676 90.1939L102.641 90.8912L102.754 91.6176C102.712 91.85 102.662 92.0752 102.606 92.3003L102.352 92.9613C102.338 93.1938 102.331 93.4335 102.302 93.6587L101.978 94.2906C102.027 94.5376 102.091 94.7991 102.119 95.046L101.914 95.707C101.738 95.8886 101.569 96.0775 101.378 96.2445L101.392 96.9709C101.329 97.1888 101.244 97.3995 101.173 97.6101C101.103 97.8208 101.039 98.0459 100.962 98.2566L100.447 98.7433C100.369 98.9539 100.277 99.15 100.193 99.3534C100.066 99.5277 99.9173 99.6948 99.7762 99.8546C99.7409 100.087 99.6845 100.305 99.6351 100.53C99.5433 100.726 99.4304 100.901 99.3246 101.082C99.1058 101.155 98.8871 101.235 98.6895 101.257C98.6825 101.322 98.7177 101.344 98.7177 101.395C98.7177 101.416 98.7389 101.431 98.7107 101.467L98.6048 101.598L98.0191 101.874L97.4193 102.135L96.749 102.237L96.1986 102.637L95.5705 102.818C95.38 102.934 95.1824 103.029 94.9848 103.131C94.7661 103.174 94.5544 103.203 94.3356 103.225C94.1239 103.276 93.9193 103.341 93.7076 103.385L93.1007 103.668C92.882 103.668 92.6632 103.632 92.4515 103.61C92.2469 103.661 92.0352 103.741 91.8235 103.77H91.1955C90.9838 103.675 90.7862 103.537 90.5957 103.428C90.391 103.45 90.1794 103.508 89.9818 103.501L89.3608 103.53C89.1773 103.414 89.015 103.232 88.8457 103.087C88.641 103.109 88.4082 103.152 88.2035 103.152L87.6672 102.971C87.519 102.847 87.392 102.687 87.2721 102.52L86.8769 102.121L86.4535 101.75L86.1924 101.62L85.9454 101.445L85.6843 100.893L85.3315 100.407C85.2116 100.247 85.0987 100.073 84.9999 99.8909L84.5271 99.4406L84.4283 98.7723C84.266 98.6198 84.1249 98.4382 83.9837 98.2639C83.8991 98.0605 83.8073 97.8644 83.7367 97.6537L83.7015 96.9637C83.5815 96.7748 83.4757 96.5714 83.3628 96.368C83.3134 96.1501 83.2781 95.9249 83.2428 95.707C83.1511 95.5036 83.0593 95.293 82.9746 95.0751C82.9111 94.8572 82.8617 94.6393 82.8123 94.4214C82.8123 94.1889 82.8265 93.9637 82.8406 93.7458L82.9394 93.0921C82.8829 92.8814 82.8476 92.6563 82.7982 92.4311C82.7136 92.2132 82.643 91.9807 82.5724 91.7556C82.6359 91.5231 82.7065 91.2907 82.7841 91.0655L82.6007 90.3755L82.9041 89.6927C82.9182 89.4675 82.9253 89.2351 82.9464 89.0099L82.7488 88.3053C82.7136 88.0729 82.6783 87.8404 82.6571 87.6007L83.0029 86.947C83.024 86.7218 83.0311 86.4894 83.0664 86.2642L83.017 85.5596L83.4122 84.9349L83.264 84.2086L83.4051 83.5403C83.5251 83.3369 83.6591 83.1408 83.7932 82.9447L83.9555 82.2909C84.0049 82.073 84.0402 81.8478 84.1037 81.6299L84.4283 81.0343L84.4636 80.3297C84.5553 80.1263 84.6682 79.9302 84.7882 79.7414L85.1339 79.1748L85.2892 78.5065L85.6138 77.9327L86.1219 77.4751C86.2206 77.2717 86.2983 77.0538 86.4253 76.8722L86.6017 76.1676L87.0815 75.6809C87.265 75.5429 87.4908 75.4412 87.6955 75.3323L88.0342 74.7439L88.5634 74.3444L89.015 74.0248C89.0926 73.8214 89.1491 73.5745 89.2549 73.3929H89.89C89.9465 73.313 90.0029 73.2258 90.0735 73.1459L90.2852 72.9425L90.8285 72.8481L91.3648 72.6592C91.5624 72.7101 91.753 72.7682 91.9505 72.8699L92.5151 72.5067C92.7126 72.5575 92.9102 72.6302 93.1078 72.6883C93.3124 72.6738 93.5171 72.6592 93.7217 72.681L94.2298 73.1386C94.4274 73.1532 94.625 73.1895 94.8296 73.2113C95.0483 73.1822 95.2671 73.1532 95.4858 73.1532L95.9727 73.6253L96.509 73.9522C96.749 73.9231 96.9818 73.9159 97.2218 73.9086C97.3629 74.1047 97.504 74.2936 97.631 74.497C97.8639 74.4752 98.1109 74.4534 98.3437 74.4389C98.5484 74.4752 98.753 74.5042 98.9577 74.5405L99.5927 74.2718C99.7833 74.1483 99.9879 74.0321 100.185 73.9159L100.694 73.3493L100.856 72.543L100.362 71.9256L99.8679 71.3372L99.8256 71.3663Z" fill="#1B8533"/>
<path d="M90.7792 76.3419C90.758 76.4072 90.7439 76.4726 90.7509 76.538C90.758 76.7268 90.9768 76.9084 90.9062 77.0973C90.8638 77.2062 90.638 77.2934 90.6522 77.4024C90.6945 77.6638 91.0685 77.7292 90.9274 78.0416C90.7651 78.3975 90.7862 78.3539 91.0473 78.6808C91.2167 78.8914 91.1814 79.1166 91.1743 79.3418C91.1602 79.7921 91.2096 80.2352 91.0403 80.6783C90.8286 81.2667 91.2449 81.7824 91.2308 82.3562C91.2167 82.8211 91.2308 83.2932 91.2308 83.7581C91.252 84.8404 91.5554 85.9082 91.5695 86.9905C91.5695 87.2883 91.8376 87.4553 91.7036 87.7895C91.5695 88.1091 91.5695 88.3706 91.6824 88.6757C91.8588 89.1696 91.5624 89.6853 91.5695 90.1865C91.5695 90.2809 91.8235 90.3536 91.8588 90.4407C91.9294 90.6078 91.7106 90.7894 91.7459 90.9637C91.7812 91.1526 91.8518 91.3487 91.8941 91.5376C91.9223 91.6392 92.0987 91.7482 92.0776 91.8499C92.0635 91.9516 91.8447 92.0533 91.8094 92.155C91.7459 92.3366 91.9576 92.4891 92.0635 92.6634C92.3457 93.1428 91.7177 93.6731 91.9858 94.1598C92.0776 94.3268 92.2752 94.4285 92.2258 94.5883C92.1975 94.6755 92.134 94.828 92.1199 94.9225C92.1058 95.0024 92.1411 95.0895 92.1975 95.1694C92.2963 95.3002 92.4657 95.5689 92.6633 95.6561C92.8679 95.7505 93.1078 95.7578 93.4606 95.7505C93.4606 95.7505 93.9405 95.598 94.0887 95.4309C94.2369 95.2638 94.1875 95.1476 94.1875 95.1476L94.3709 94.828C94.3709 94.828 94.2651 94.4866 94.2651 94.4794C94.2228 94.4213 94.4274 94.2397 94.4768 94.167C94.5967 94 94.5967 93.8474 94.5756 93.6876C94.5332 93.3753 94.3145 93.0775 94.1804 92.7724C94.0534 92.4891 94.3145 92.3438 94.4203 92.0751C94.5121 91.8426 94.1592 91.6465 94.1875 91.3995C94.2016 91.2761 94.3921 91.1381 94.3921 91.0073C94.3921 90.8548 94.1875 90.7458 94.251 90.5933C94.2721 90.5424 94.5473 90.3681 94.505 90.3245L94.1734 90.0122V89.678L94.1875 89.3439C94.0675 88.9662 94.5262 88.6684 94.5262 88.3125C94.5262 88.1962 94.3004 88.08 94.2792 87.9565C94.251 87.8258 94.3568 87.6878 94.3921 87.5498C94.4768 87.252 94.3568 87.0486 94.2227 86.7653C94.1663 86.6491 94.0675 86.5111 94.1169 86.3948C94.1592 86.2714 94.4838 86.1333 94.4909 86.0171C94.4909 85.9009 94.1028 85.8065 94.1028 85.6903C94.1028 85.5595 94.4415 85.4796 94.4556 85.3561C94.4768 85.2326 94.2298 85.1164 94.1098 85.022L94.0322 84.6951L94.0534 84.361C94.0252 83.6709 94.4274 82.9591 94.2721 82.2763C94.2298 82.0802 93.9123 81.9131 93.9617 81.7097C94.0111 81.4918 94.1663 81.3756 94.1451 81.1577C94.124 80.9688 94.2227 80.8236 94.251 80.6274C94.2933 80.3587 94.0181 80.0972 94.0534 79.8284C94.0816 79.6396 94.3427 79.4507 94.2863 79.2837C94.2016 79.0367 94.0604 79.044 94.131 78.7752C94.1663 78.6227 94.251 78.4629 94.1804 78.3176C94.0746 78.0851 93.9193 78.0052 93.9617 77.7583C93.9899 77.5985 94.0534 77.4459 94.0605 77.2861C94.0746 77.09 93.9546 76.8721 94.0181 76.6832C94.0816 76.4871 94.1522 76.3564 94.1451 76.182C94.124 75.7825 94.1522 75.5211 92.4586 75.2668C90.9909 75.0416 90.8003 75.5356 90.8356 76.044C90.8356 76.1385 90.8145 76.2256 90.7862 76.3201L90.7792 76.3419Z" fill="#1B8533"/>
<path d="M94.2933 80.2788C94.2157 80.257 94.131 80.2425 94.0534 80.2425C93.8205 80.2425 93.5877 80.4749 93.3548 80.4168C93.2207 80.3805 93.0937 80.1408 92.9526 80.1699C92.6068 80.2425 92.5715 80.6493 92.1411 80.5694C91.633 80.4967 91.6753 80.5113 91.3013 80.9108C91.0614 81.1868 90.758 81.2594 90.4404 81.441C89.8265 81.7824 89.2338 82.349 88.7539 83.0681C88.6269 83.2279 88.5422 83.4022 88.4999 83.5766C88.4505 83.7436 88.4082 83.9906 88.3799 84.194C88.3799 84.9712 88.6481 85.6612 89.0291 86.2932C89.2408 86.6854 89.5937 87.0486 89.9253 87.3101C90.2358 87.5425 90.5534 87.7314 90.8568 87.8622C91.1249 87.9929 91.386 88.0728 91.6471 88.1454C91.7812 88.1818 91.9011 88.2035 92.0564 88.2326C92.2469 88.2689 92.4374 88.2907 92.628 88.3125C92.755 88.298 92.8749 88.2834 92.9949 88.2544L93.3548 88.189C93.5806 88.1236 93.5877 88.0946 93.6864 88.0873C93.7711 88.0801 93.8629 88.1019 93.9193 88.1672C93.9687 88.2181 94.2369 88.1382 94.1522 88.3343C94.0957 88.436 94.0746 88.436 94.0746 88.5595C94.0746 88.6248 94.0746 88.5958 94.0957 88.6248L94.1522 88.6975C94.2369 88.7919 94.1522 88.8936 94.0604 88.9227C93.9616 88.959 93.8558 88.9372 93.7993 88.9662C93.7711 88.988 93.8558 89.2423 93.8135 89.3076C93.7358 89.4384 93.5171 89.2713 93.4042 89.3512C93.2842 89.4384 93.136 89.5546 92.9949 89.6345C92.9526 89.6563 92.9667 89.6853 92.8891 89.7435C92.8114 89.8161 92.7409 89.8887 92.6703 89.9323C92.6491 89.9468 92.628 89.9541 92.6068 89.9614C92.5433 89.9832 92.4657 89.9541 92.388 89.9468C92.388 89.8524 92.2751 89.8016 92.254 89.787C92.1411 89.7507 92.0987 89.9832 91.9858 90.1066C91.8306 90.2664 91.6259 90.172 91.4778 90.0413C91.3225 89.9178 91.2096 89.7652 91.005 89.8306C90.8638 89.8597 90.6874 90.0122 90.6027 89.8887C90.5533 89.8234 90.4969 89.6999 90.4475 89.6418C90.4122 89.5837 90.3275 89.5619 90.2429 89.5691C90.0947 89.5909 89.7983 89.5255 89.5866 89.6054C89.3679 89.6853 89.1632 89.8451 88.881 90.0848C88.881 90.0848 88.6128 90.5352 88.6481 90.7967C88.6763 91.0582 88.8316 91.1236 88.8316 91.1236L89.0362 91.5449L89.5019 91.741C89.5937 91.7482 89.6925 92.0606 89.7701 92.1623C89.9183 92.3874 90.1511 92.4891 90.3981 92.5545C90.8991 92.6707 91.4284 92.5255 91.88 92.3729C92.2963 92.2204 92.508 92.4674 92.9596 92.4674C93.1431 92.4528 93.2348 92.3802 93.4395 92.2204C93.4395 92.1841 93.4395 92.1477 93.4465 92.1114C93.4465 92.0751 93.4677 92.0533 93.4818 92.0388C93.4818 92.0388 93.5171 92.0243 93.5594 92.017C93.7217 91.9952 93.9405 92.1405 94.1098 92.0896C94.3145 92.0243 94.3921 91.7628 94.6108 91.741C94.6814 91.7265 95.0131 91.908 95.0625 91.8209C95.0625 91.8209 95.133 91.6829 95.2036 91.5449C95.2742 91.4068 95.3306 91.2543 95.3306 91.2543C95.5 91.1526 95.6552 91.0146 95.8105 90.8839C95.8175 90.8984 96.2268 90.4335 96.2127 90.419C96.3609 90.0921 96.5655 89.8669 96.756 89.5982C96.9536 89.3294 97.0736 89.0098 97.1018 88.6248C97.1018 88.5014 97.0242 88.3561 96.9466 88.2326C96.8689 88.0873 96.7984 88.0365 96.7701 87.9348C96.6996 87.7096 96.7278 87.4045 96.6713 87.1358C96.509 86.5402 96.1633 86.206 95.6552 85.9445C95.4435 85.8428 95.1824 85.7702 94.999 85.6395C94.8367 85.4942 94.7167 85.0947 94.4768 85.022C94.2298 84.9567 93.9334 85.3344 93.7288 85.3271C93.503 85.3198 93.3477 84.9639 93.129 84.9639C93.0161 84.9639 92.8608 85.0729 92.8185 85.1818C92.8185 85.2472 92.8185 85.3271 92.8185 85.378L92.8044 85.3925C92.8044 85.3925 92.7691 85.4215 92.7479 85.4288L92.7197 85.4433C92.7197 85.4433 92.6985 85.4288 92.6703 85.4143C92.6703 85.407 92.5645 85.3634 92.5715 85.3707C92.2893 85.2981 92.0564 85.0874 91.9082 84.8913C91.8306 84.7969 91.7812 84.7097 91.7459 84.6443C91.7459 84.6153 91.7459 84.6153 91.7106 84.6225C91.6753 84.6443 91.3578 84.7388 91.4001 84.6588C91.4495 84.5789 91.6189 84.5499 91.6048 84.5208V84.5136C91.6189 84.5136 91.6471 84.5136 91.6753 84.5281C91.7036 84.5136 91.7318 84.499 91.753 84.4845C91.8024 84.4845 91.753 84.4409 91.7177 84.3756C91.6895 84.3175 91.6824 84.2593 91.7177 84.2376C91.7953 84.2085 92.0141 84.4046 92.0282 84.3247C92.1058 84.2158 92.007 84.0632 92.1975 84.0705C92.3104 84.085 92.4092 84.1213 92.501 84.0342C92.635 83.8889 92.6632 83.7073 92.8749 83.7291C93.009 83.7291 93.1431 83.7872 93.2842 83.7945C93.4465 83.7945 93.6441 83.6637 93.8135 83.7291C93.9899 83.8017 94.1028 83.8816 94.2651 83.8744C94.6461 83.8744 94.8155 83.9325 95.3165 82.1819C95.8387 80.6856 95.2318 80.3733 94.6108 80.3733C94.4979 80.3733 94.385 80.3369 94.2792 80.3006L94.2933 80.2788Z" fill="#1B8533"/>
<path d="M34.3293 171.766C34.3293 175.422 32.5521 178.723 29.7593 180.906C26.9665 183.039 23.4629 183.902 19.4007 183.902C15.3384 183.902 10.6669 182.785 5.8938 179.231L10.9716 170.598C14.2213 173.34 18.7913 174.407 20.3147 174.407C21.838 174.407 22.9043 173.95 22.9043 172.934C22.9043 171.919 21.6349 171.512 20.3654 171.106C19.096 170.751 16.3032 169.837 15.2877 169.481C10.413 167.552 7.2648 165.267 7.2648 159.427C7.2648 155.619 9.24512 152.674 11.327 150.947C13.4597 149.17 16.9633 147.901 21.6349 147.901C26.3064 147.901 31.0795 149.576 34.1262 152.115L29.7593 160.24C27.1189 157.904 23.2598 156.888 21.4318 156.888C19.6038 156.888 18.5882 157.244 18.5882 158.31C18.5882 159.326 20.2131 159.681 21.0255 159.935C21.838 160.189 23.9706 160.798 25.1893 161.204C30.4702 162.982 34.3293 165.622 34.3293 171.766ZM66.3351 160.341C66.3351 168.821 60.4956 172.376 52.6251 172.376H48.8676V183.293H37.3918V148.256H52.6251C60.5464 148.256 66.3351 151.811 66.3351 160.341ZM54.7578 160.341C54.7578 157.701 53.0313 156.888 50.6956 156.888H48.8168V163.743H50.6956C53.0821 163.743 54.7578 163.032 54.7578 160.341ZM94.5167 183.293H69.1278V148.256H94.0089V157.295H80.5528V161.103H93.2472V170.091H80.5528V174.153H94.5167V183.293ZM132.096 183.293H120.163L109.5 163.743C109.5 163.743 109.754 167.552 109.754 170.091V183.293H98.5829V148.256H111.023L121.179 167.806C121.179 167.806 120.925 163.997 120.925 161.458V148.256H132.096V183.293ZM170.167 165.774C170.167 178.367 161.992 183.293 150.364 183.293H137.162V148.256H150.364C161.992 148.256 170.167 153.182 170.167 165.774ZM158.59 165.774C158.59 160.697 156.559 157.65 151.227 157.65H148.587V173.645H151.227C156.356 173.645 158.59 170.751 158.59 165.774Z" fill="#1B8533"/>
</svg>
