<svg fill="none" height="257" viewBox="0 0 414 257" width="414" xmlns="http://www.w3.org/2000/svg"><path d="m.197266 0h413.571v256.699h-413.571z" fill="#fff"/><path d="m257.904 215.343 2.788 8.578h9.02l-7.298 5.302 2.788 8.578-7.298-5.301-7.297 5.301 2.787-8.578-7.297-5.302h9.02z" fill="#fcd214"/><path d="m319.65 215.343 2.788 8.578h9.02l-7.298 5.302 2.788 8.578-7.298-5.301-7.297 5.301 2.787-8.578-7.297-5.302h9.02z" fill="#fcd214"/><path d="m288.777 215.343 2.788 8.578h9.02l-7.298 5.302 2.788 8.578-7.298-5.301-7.297 5.301 2.787-8.578-7.297-5.302h9.02z" fill="#fcd214"/><path d="m350.517 215.343 2.788 8.578h9.02l-7.298 5.302 2.788 8.578-7.298-5.301-7.297 5.301 2.787-8.578-7.297-5.302h9.02z" fill="#fcd214"/><path d="m381.391 215.343 2.787 8.578h9.02l-7.297 5.302 2.787 8.578-7.297-5.301-7.298 5.301 2.788-8.578-7.298-5.302h9.02z" fill="#fcd214"/><g fill="#000"><path d="m27.8948 35.6528v-13.7762h-1.9367v13.7762z"/><path d="m43.892 35.6528v-13.7762h-1.8967v5.77h-.04c-.6588-.9783-1.7769-1.6571-3.3142-1.6571-2.7752 0-4.5721 2.1163-4.5721 4.9115 0 2.8152 1.7969 4.9714 4.612 4.9714 1.3776 0 2.5556-.579 3.3342-1.737h.04v1.5174zm-1.8368-4.7717c0 1.8967-1.1181 3.3542-3.0148 3.3542s-3.0148-1.4575-3.0148-3.3542c0-1.8968 1.1181-3.3343 3.0148-3.3343s3.0148 1.4375 3.0148 3.3343z"/><path d="m56.0246 30.9409c0-2.9349-2.1962-4.9514-5.0113-4.9514-2.8351 0-5.0313 2.0165-5.0313 4.9514 0 2.9549 2.1962 4.9315 5.0313 4.9315 2.8151 0 5.0113-1.9766 5.0113-4.9315zm-1.9366-.0598c0 1.8767-1.178 3.3542-3.0747 3.3542-1.9167 0-3.0947-1.4775-3.0947-3.3542 0-1.8568 1.178-3.3343 3.0947-3.3343 1.8967 0 3.0747 1.4775 3.0747 3.3343z"/><path d="m66.2727 35.6528v-5.6103c0-2.2761-.6988-4.053-3.3941-4.053-1.3776 0-2.3959.7387-2.895 1.6771h-.0599l.02-1.4974h-1.9167v9.4836h1.9167v-4.7717c0-1.8169.6588-3.3143 2.4357-3.3143 1.6971 0 1.9766 1.1979 1.9766 2.7951v5.2909z"/><path d="m72.2028 21.8766h-1.9566l-1.3377 4.2726h1.5174z"/><path d="m79.4654 35.553-.1198-1.5374s-.4193.2197-.9783.2197c-.5391 0-.7986-.1797-.9783-.4792-.2196-.3993-.2396-.9384-.2396-1.737v-4.2926h2.2761v-1.5373h-2.2761v-2.8351h-1.9167v2.8351h-1.3976v1.5373h1.3976v4.3325c0 1.8568.1198 3.8134 2.4957 3.8134.6589 0 1.2379-.0998 1.737-.3194z"/><path d="m92.9774 34.4349-.6788-1.3976s-1.0383 1.198-2.895 1.198c-1.8369 0-3.0747-1.3777-3.0747-3.3742 0-1.9966 1.3976-3.2744 3.0747-3.2744s2.5156.8386 2.8351 1.158l.6788-1.3975c-.0998-.1198-1.1381-1.3577-3.6737-1.3577-2.5156 0-4.8516 1.8768-4.8516 4.9315 0 3.0347 2.2361 4.9514 4.7917 4.9514 2.5357 0 3.514-1.158 3.7935-1.4375z"/><path d="m103.911 30.9409c0-2.9349-2.197-4.9514-5.0117-4.9514-2.8351 0-5.0313 2.0165-5.0313 4.9514 0 2.9549 2.1962 4.9315 5.0313 4.9315 2.8147 0 5.0117-1.9766 5.0117-4.9315zm-1.937-.0598c0 1.8767-1.178 3.3542-3.0747 3.3542-1.9166 0-3.0946-1.4775-3.0946-3.3542 0-1.8568 1.178-3.3343 3.0946-3.3343 1.8967 0 3.0747 1.4775 3.0747 3.3343z"/><path d="m114.159 35.6528v-5.6103c0-2.2761-.699-4.053-3.394-4.053-1.378 0-2.396.7387-2.895 1.6771h-.06l.02-1.4974h-1.917v9.4836h1.917v-4.7717c0-1.8169.659-3.3143 2.435-3.3143 1.698 0 1.977 1.1979 1.977 2.7951v5.2909z"/><path d="m123.104 32.8776c0-1.2379-.799-1.9965-1.857-2.4358-.399-.1597-.759-.2795-1.278-.4592-.938-.2995-1.857-.6389-1.857-1.4175 0-.7787.599-1.178 1.518-1.178.918 0 1.836.4392 2.395 1.0182l.799-1.1779c-.599-.6389-1.557-1.2379-3.234-1.2379s-3.195.9583-3.195 2.7153c0 1.7969 1.398 2.296 2.795 2.7752.639.2196 2.137.5391 2.137 1.5773s-.939 1.3576-1.817 1.3576c-.879 0-1.997-.5191-2.795-1.3576l-.919 1.1181c.799 1.0382 2.097 1.697 3.694 1.697 1.837 0 3.614-.9583 3.614-2.9948z"/><path d="m127.258 23.0546c0-.6789-.519-1.178-1.238-1.178-.739 0-1.258.4991-1.258 1.178 0 .6788.519 1.1779 1.258 1.1779.719 0 1.238-.4991 1.238-1.1779zm-.28 12.5982v-9.4836h-1.916v9.4836z"/><path d="m138.884 35.6528v-13.7762h-1.897v5.77h-.039c-.659-.9783-1.777-1.6571-3.315-1.6571-2.775 0-4.572 2.1163-4.572 4.9115 0 2.8152 1.797 4.9714 4.612 4.9714 1.378 0 2.556-.579 3.334-1.737h.04v1.5174zm-1.837-4.7717c0 1.8967-1.118 3.3542-3.014 3.3542-1.897 0-3.015-1.4575-3.015-3.3542 0-1.8968 1.118-3.3343 3.015-3.3343 1.896 0 3.014 1.4375 3.014 3.3343z"/><path d="m150.278 30.5217c0-2.6554-1.857-4.5322-4.492-4.5322-2.636 0-4.812 1.9167-4.812 4.9115 0 3.0148 1.937 4.9714 4.752 4.9714 2.835 0 4.053-1.3976 4.173-1.4974l-.799-1.0981c-.219.1398-1.358 1.0981-3.134 1.0981-1.757 0-2.955-1.138-3.055-3.0148h7.307s.06-.4791.06-.8385zm-1.817-.4393h-5.53c.06-1.138.898-2.7153 2.795-2.7153 1.917 0 2.715 1.6572 2.735 2.7153z"/><path d="m157.472 26.1492s-.36-.1597-.999-.1597c-1.018 0-1.876.559-2.336 1.6372h-.06l.02-1.4575h-1.916v9.4836h1.916v-4.7318c0-1.3776.42-3.1945 2.137-3.1945.519 0 .858.1198 1.038.1997h.08z"/><path d="m176.582 35.6528v-5.7501c0-2.0564-.679-3.9132-3.214-3.9132-1.338 0-2.376.6788-3.015 1.8768-.439-1.2379-1.418-1.8768-2.815-1.8768-1.258 0-2.296.7986-2.735 1.6771h-.06l.02-1.4974h-1.917v9.4836h1.917v-4.9315c0-1.697.758-3.1545 2.276-3.1545 1.377 0 1.717 1.158 1.717 2.5556v5.5304h1.916v-4.9315c0-1.697.759-3.1545 2.276-3.1545 1.538 0 1.737 1.4575 1.737 2.5556v5.5304z"/><path d="m187.198 26.1692-1.977-.02-2.795 7.3873-2.875-7.3673-1.997-.02 3.854 9.304-.46 1.2578c-.259.6988-.459 1.1181-1.237 1.1181-.48 0-.999-.2197-.999-.2197l-.379 1.5573s.739.3395 1.797.3395 1.837-.5591 2.496-2.1963z"/><path d="m194.562 32.8776c0-1.2379-.798-1.9965-1.857-2.4358-.399-.1597-.758-.2795-1.277-.4592-.939-.2995-1.857-.6389-1.857-1.4175 0-.7787.599-1.178 1.517-1.178.919 0 1.837.4392 2.396 1.0182l.799-1.1779c-.599-.6389-1.558-1.2379-3.235-1.2379s-3.194.9583-3.194 2.7153c0 1.7969 1.397 2.296 2.795 2.7752.639.2196 2.136.5391 2.136 1.5773s-.938 1.3576-1.817 1.3576c-.878 0-1.996-.5191-2.795-1.3576l-.918 1.1181c.798 1.0382 2.096 1.697 3.693 1.697 1.837 0 3.614-.9583 3.614-2.9948z"/><path d="m205.105 30.5217c0-2.6554-1.857-4.5322-4.492-4.5322s-4.812 1.9167-4.812 4.9115c0 3.0148 1.937 4.9714 4.752 4.9714 2.835 0 4.053-1.3976 4.173-1.4974l-.799-1.0981c-.219.1398-1.357 1.0981-3.134 1.0981-1.757 0-2.955-1.138-3.055-3.0148h7.307s.06-.4791.06-.8385zm-1.817-.4393h-5.53c.06-1.138.898-2.7153 2.795-2.7153 1.917 0 2.715 1.6572 2.735 2.7153z"/><path d="m209.004 35.6528v-13.7762h-1.896v13.7762z"/><path d="m216.657 21.8766s-.539-.2196-1.637-.2196-1.857.5191-2.276 1.0382c-.399.4991-.639 1.2977-.639 2.5356v.9584h-1.357v1.5373h1.357v7.9263h1.897v-7.9263h2.256v-1.5373h-2.256v-1.0582c0-1.0782.2-2.0165 1.457-2.0165.539 0 1.079.1797 1.079.1797z"/><path d="m225.814 35.553-.12-1.5374s-.419.2197-.978.2197c-.539 0-.799-.1797-.978-.4792-.22-.3993-.24-.9384-.24-1.737v-4.2926h2.276v-1.5373h-2.276v-2.8351h-1.916v2.8351h-1.398v1.5373h1.398v4.3325c0 1.8568.119 3.8134 2.495 3.8134.659 0 1.238-.0998 1.737-.3194z"/><path d="m236.806 30.9409c0-2.9349-2.196-4.9514-5.011-4.9514-2.835 0-5.032 2.0165-5.032 4.9514 0 2.9549 2.197 4.9315 5.032 4.9315 2.815 0 5.011-1.9766 5.011-4.9315zm-1.937-.0598c0 1.8767-1.177 3.3542-3.074 3.3542-1.917 0-3.095-1.4775-3.095-3.3542 0-1.8568 1.178-3.3343 3.095-3.3343 1.897 0 3.074 1.4775 3.074 3.3343z"/><path d="m248.212 30.9409c0-2.9349-2.196-4.9514-5.011-4.9514-2.835 0-5.031 2.0165-5.031 4.9514 0 2.9549 2.196 4.9315 5.031 4.9315 2.815 0 5.011-1.9766 5.011-4.9315zm-1.936-.0598c0 1.8767-1.178 3.3542-3.075 3.3542-1.917 0-3.095-1.4775-3.095-3.3542 0-1.8568 1.178-3.3343 3.095-3.3343 1.897 0 3.075 1.4775 3.075 3.3343z"/><path d="m261.2 21.8766h-1.458l-1.776 4.2726h1.896zm-3.514 0h-1.477l-1.757 4.2726h1.896z"/><path d="m277.697 35.6528v-5.7501c0-2.0564-.679-3.9132-3.215-3.9132-1.338 0-2.376.6788-3.015 1.8768-.439-1.2379-1.417-1.8768-2.815-1.8768-1.258 0-2.296.7986-2.735 1.6771h-.06l.02-1.4974h-1.917v9.4836h1.917v-4.9315c0-1.697.759-3.1545 2.276-3.1545 1.378 0 1.717 1.158 1.717 2.5556v5.5304h1.917v-4.9315c0-1.697.759-3.1545 2.276-3.1545 1.537 0 1.737 1.4575 1.737 2.5556v5.5304z"/><path d="m289.664 30.9409c0-2.9349-2.196-4.9514-5.011-4.9514-2.835 0-5.032 2.0165-5.032 4.9514 0 2.9549 2.197 4.9315 5.032 4.9315 2.815 0 5.011-1.9766 5.011-4.9315zm-1.937-.0598c0 1.8767-1.178 3.3542-3.074 3.3542-1.917 0-3.095-1.4775-3.095-3.3542 0-1.8568 1.178-3.3343 3.095-3.3343 1.896 0 3.074 1.4775 3.074 3.3343z"/><path d="m299.912 35.6528v-5.6103c0-2.2761-.699-4.053-3.394-4.053-1.378 0-2.396.7387-2.895 1.6771h-.06l.02-1.4974h-1.917v9.4836h1.917v-4.7717c0-1.8169.659-3.3143 2.436-3.3143 1.697 0 1.976 1.1979 1.976 2.7951v5.2909z"/><path d="m311.133 30.5217c0-2.6554-1.857-4.5322-4.492-4.5322-2.636 0-4.812 1.9167-4.812 4.9115 0 3.0148 1.937 4.9714 4.752 4.9714 2.835 0 4.053-1.3976 4.173-1.4974l-.799-1.0981c-.22.1398-1.358 1.0981-3.134 1.0981-1.757 0-2.955-1.138-3.055-3.0148h7.307s.06-.4791.06-.8385zm-1.817-.4393h-5.53c.06-1.138.898-2.7153 2.795-2.7153 1.917 0 2.715 1.6572 2.735 2.7153z"/><path d="m321.321 26.1692-1.976-.02-2.795 7.3873-2.875-7.3673-1.997-.02 3.853 9.304-.459 1.2578c-.259.6988-.459 1.1181-1.238 1.1181-.479 0-.998-.2197-.998-.2197l-.379 1.5573s.738.3395 1.797.3395c1.058 0 1.836-.5591 2.495-2.1963z"/><path d="m332.956 32.8776c0-1.2379-.799-1.9965-1.857-2.4358-.399-.1597-.758-.2795-1.278-.4592-.938-.2995-1.856-.6389-1.856-1.4175 0-.7787.599-1.178 1.517-1.178s1.837.4392 2.396 1.0182l.798-1.1779c-.598-.6389-1.557-1.2379-3.234-1.2379s-3.194.9583-3.194 2.7153c0 1.7969 1.397 2.296 2.795 2.7752.639.2196 2.136.5391 2.136 1.5773s-.938 1.3576-1.817 1.3576c-.878 0-1.996-.5191-2.795-1.3576l-.918 1.1181c.798 1.0382 2.096 1.697 3.693 1.697 1.837 0 3.614-.9583 3.614-2.9948z"/><path d="m342.299 35.6528v-5.5105c0-2.7552-1.378-4.1528-4.153-4.1528-1.577 0-2.855.559-3.554.9583l.579 1.2778c.32-.1996 1.478-.8185 2.855-.8185 1.378 0 2.356.7187 2.356 2.1562v.3794l-2.536.0998c-2.196.0998-3.713 1.0382-3.713 2.895 0 1.8368 1.517 2.9349 3.274 2.9349 1.737 0 2.636-1.0182 3.015-1.4175l.02 1.1979zm-1.897-4.5521v2.0365c-.359.539-1.178 1.3776-2.416 1.3776-1.258 0-1.956-.7387-1.956-1.6372 0-.8984.619-1.5573 2.156-1.6372z"/><path d="m352.752 26.1692h-1.977l-2.795 7.1476-2.815-7.1476h-1.997l3.953 9.4836h1.677z"/><path d="m362.383 26.1692h-1.976l-2.795 7.1476-2.816-7.1476h-1.996l3.953 9.4836h1.677z"/><path d="m372.015 26.1692-1.976-.02-2.796 7.3873-2.875-7.3673-1.996-.02 3.853 9.304-.459 1.2578c-.26.6988-.459 1.1181-1.238 1.1181-.479 0-.998-.2197-.998-.2197l-.38 1.5573s.739.3395 1.797.3395c1.059 0 1.837-.5591 2.496-2.1963z"/><path d="m380.151 21.8766h-1.896l-1.358 4.2726h1.477zm-3.514 0h-1.896l-1.358 4.2726h1.478z"/><path d="m35.6813 56.571c0-2.7952-1.7969-4.9115-4.5721-4.9115-1.4974 0-2.6354.6189-3.3142 1.6571h-.04v-5.77h-1.8967v13.7762h1.8368v-1.4975h.04c.7786 1.158 1.9566 1.7171 3.3342 1.7171 2.8151 0 4.612-2.1563 4.612-4.9714zm-1.9566-.02c0 1.8967-1.1181 3.3542-3.0148 3.3542s-3.0347-1.4575-3.0347-3.3542 1.138-3.3342 3.0347-3.3342 3.0148 1.4375 3.0148 3.3342z"/><path d="m45.7376 61.3228v-9.5036h-1.9167v5.0912c0 1.5972-.6789 3.0347-2.356 3.0347-1.697 0-1.9765-1.2179-1.9765-2.5156v-5.6103h-1.8968v5.6901c0 2.356.6988 4.0331 3.3343 4.0331 1.3377 0 2.4158-.6589 2.9349-1.5773l.02 1.3577z"/><path d="m52.9877 61.2229-.1198-1.5373s-.4193.2196-.9783.2196c-.5391 0-.7986-.1797-.9783-.4792-.2196-.3993-.2396-.9383-.2396-1.737v-4.2925h2.2761v-1.5374h-2.2761v-2.8351h-1.9167v2.8351h-1.3976v1.5374h1.3976v4.3325c0 1.8568.1198 3.8134 2.4957 3.8134.6589 0 1.2379-.0998 1.737-.3195z"/><path d="m63.1654 61.2229-.1198-1.5373s-.4192.2196-.9783.2196c-.539 0-.7986-.1797-.9783-.4792-.2196-.3993-.2396-.9383-.2396-1.737v-4.2925h2.2761v-1.5374h-2.2761v-2.8351h-1.9167v2.8351h-1.3975v1.5374h1.3975v4.3325c0 1.8568.1198 3.8134 2.4957 3.8134.6589 0 1.2379-.0998 1.737-.3195z"/><path d="m73.0992 61.3228v-5.6503c0-2.2561-.6588-4.013-3.3941-4.013-1.3776 0-2.4159.7387-2.915 1.6771h-.0399v-5.79h-1.8967v13.7762h1.8967v-4.6919c0-1.8968.7387-3.3942 2.4757-3.3942s1.9566 1.3577 1.9566 2.7153v5.3708z"/><path d="m77.9678 48.7245c0-.6788-.5191-1.1779-1.2378-1.1779-.7387 0-1.2579.4991-1.2579 1.1779s.5192 1.178 1.2579 1.178c.7187 0 1.2378-.4992 1.2378-1.178zm-.2795 12.5983v-9.4837h-1.9167v9.4837z"/><path d="m86.7991 58.5476c0-1.2379-.7986-1.9966-1.8567-2.4358-.3994-.1598-.7587-.2796-1.2778-.4592-.9384-.2995-1.8568-.6389-1.8568-1.4176s.5989-1.178 1.5173-1.178c.9185 0 1.8369.4393 2.3959 1.0183l.7986-1.178c-.5989-.6389-1.5573-1.2378-3.2344-1.2378s-3.1945.9583-3.1945 2.7153c0 1.7969 1.3976 2.296 2.7952 2.7752.6389.2196 2.1363.539 2.1363 1.5772 0 1.0383-.9384 1.3577-1.8168 1.3577-.8785 0-1.9966-.5191-2.7952-1.3577l-.9184 1.1181c.7986 1.0382 2.0963 1.6971 3.6936 1.6971 1.8368 0 3.6137-.9584 3.6137-2.9948z"/><path d="m100.022 61.3228v-5.5105c0-2.7553-1.3777-4.1528-4.1529-4.1528-1.5773 0-2.8551.559-3.5539.9583l.579 1.2778c.3195-.1997 1.4775-.8186 2.8551-.8186s2.3559.7188 2.3559 2.1563v.3793l-2.5356.0999c-2.1962.0998-3.7136 1.0382-3.7136 2.895 0 1.8368 1.5174 2.9349 3.2744 2.9349 1.737 0 2.6354-1.0183 3.0148-1.4176l.0199 1.198zm-1.8968-4.5522v2.0365c-.3594.5391-1.178 1.3776-2.4158 1.3776-1.2578 0-1.9566-.7387-1.9566-1.6371 0-.8985.6189-1.5574 2.1562-1.6372z"/><path d="m112.384 56.571c0-2.8152-1.777-4.9115-4.572-4.9115-1.397 0-2.535.559-3.374 1.6771h-.04v-1.4975h-1.837v13.1972h1.917v-5.211l.02.02c.679 1.0582 1.777 1.6971 3.274 1.6971 2.815 0 4.612-2.1563 4.612-4.9714zm-1.956-.02c0 1.8967-1.118 3.3542-3.015 3.3542s-3.015-1.4575-3.015-3.3542 1.118-3.3342 3.015-3.3342 3.015 1.4375 3.015 3.3342z"/><path d="m124.278 56.571c0-2.8152-1.777-4.9115-4.572-4.9115-1.398 0-2.536.559-3.374 1.6771h-.04v-1.4975h-1.837v13.1972h1.917v-5.211l.019.02c.679 1.0582 1.777 1.6971 3.275 1.6971 2.815 0 4.612-2.1563 4.612-4.9714zm-1.957-.02c0 1.8967-1.118 3.3542-3.015 3.3542-1.896 0-3.014-1.4575-3.014-3.3542s1.118-3.3342 3.014-3.3342c1.897 0 3.015 1.4375 3.015 3.3342z"/><path d="m135.537 51.8192s-.36-.1597-.998-.1597c-1.019 0-1.877.559-2.336 1.6371h-.06l.02-1.4575h-1.917v9.4837h1.917v-4.7319c0-1.3776.419-3.1944 2.136-3.1944.519 0 .859.1197 1.038.1996h.08z"/><path d="m145.501 56.1916c0-2.6554-1.857-4.5321-4.492-4.5321s-4.812 1.9166-4.812 4.9115c0 3.0148 1.937 4.9714 4.752 4.9714 2.835 0 4.053-1.3976 4.173-1.4974l-.799-1.0981c-.219.1397-1.357 1.0981-3.134 1.0981-1.757 0-2.955-1.1381-3.055-3.0148h7.307s.06-.4792.06-.8386zm-1.817-.4392h-5.53c.06-1.1381.898-2.7153 2.795-2.7153 1.917 0 2.715 1.6571 2.735 2.7153z"/><path d="m154.966 61.3228v-5.5105c0-2.7553-1.378-4.1528-4.153-4.1528-1.577 0-2.855.559-3.554.9583l.579 1.2778c.32-.1997 1.478-.8186 2.855-.8186 1.378 0 2.356.7188 2.356 2.1563v.3793l-2.535.0999c-2.196.0998-3.714 1.0382-3.714 2.895 0 1.8368 1.518 2.9349 3.275 2.9349 1.737 0 2.635-1.0183 3.014-1.4176l.02 1.198zm-1.897-4.5522v2.0365c-.359.5391-1.178 1.3776-2.415 1.3776-1.258 0-1.957-.7387-1.957-1.6371 0-.8985.619-1.5574 2.156-1.6372z"/><path d="m159.422 61.3228v-13.7762h-1.897v13.7762z"/><path d="m164.16 61.3228v-13.7762h-1.897v13.7762z"/><path d="m175.187 51.8391-1.976-.0199-2.796 7.3872-2.875-7.3673-1.996-.0199 3.853 9.3039-.459 1.2578c-.26.6988-.459 1.1181-1.238 1.1181-.479 0-.998-.2196-.998-.2196l-.38 1.5573s.739.3394 1.797.3394 1.837-.559 2.496-2.1962z"/><path d="m194.169 61.3228v-5.7501c0-2.0565-.679-3.9132-3.214-3.9132-1.338 0-2.376.6788-3.015 1.8767-.439-1.2379-1.418-1.8767-2.815-1.8767-1.258 0-2.296.7986-2.736 1.6771h-.06l.02-1.4975h-1.916v9.4837h1.916v-4.9315c0-1.6971.759-3.1546 2.276-3.1546 1.378 0 1.718 1.158 1.718 2.5556v5.5305h1.916v-4.9315c0-1.6971.759-3.1546 2.276-3.1546 1.538 0 1.737 1.4575 1.737 2.5556v5.5305z"/><path d="m204.1 61.3228v-5.5105c0-2.7553-1.378-4.1528-4.153-4.1528-1.577 0-2.855.559-3.554.9583l.579 1.2778c.32-.1997 1.478-.8186 2.855-.8186 1.378 0 2.356.7188 2.356 2.1563v.3793l-2.535.0999c-2.197.0998-3.714 1.0382-3.714 2.895 0 1.8368 1.517 2.9349 3.274 2.9349 1.737 0 2.636-1.0183 3.015-1.4176l.02 1.198zm-1.897-4.5522v2.0365c-.359.5391-1.178 1.3776-2.416 1.3776-1.257 0-1.956-.7387-1.956-1.6371 0-.8985.619-1.5574 2.156-1.6372z"/><path d="m215.145 61.3228-4.193-5.9098 3.713-3.5739h-2.236l-3.873 3.7935v-8.086h-1.897v13.7762h1.897v-3.5539l1.098-1.0382 3.255 4.5921z"/><path d="m224.954 56.1916c0-2.6554-1.857-4.5321-4.492-4.5321-2.636 0-4.812 1.9166-4.812 4.9115 0 3.0148 1.937 4.9714 4.752 4.9714 2.835 0 4.053-1.3976 4.172-1.4974l-.798-1.0981c-.22.1397-1.358 1.0981-3.135 1.0981-1.757 0-2.955-1.1381-3.054-3.0148h7.307s.06-.4792.06-.8386zm-1.817-.4392h-5.53c.059-1.1381.898-2.7153 2.795-2.7153 1.916 0 2.715 1.6571 2.735 2.7153z"/><path d="m233.245 58.5476c0-1.2379-.798-1.9966-1.856-2.4358-.4-.1598-.759-.2796-1.278-.4592-.939-.2995-1.857-.6389-1.857-1.4176s.599-1.178 1.517-1.178c.919 0 1.837.4393 2.396 1.0183l.799-1.178c-.599-.6389-1.557-1.2378-3.235-1.2378-1.677 0-3.194.9583-3.194 2.7153 0 1.7969 1.398 2.296 2.795 2.7752.639.2196 2.136.539 2.136 1.5772 0 1.0383-.938 1.3577-1.816 1.3577-.879 0-1.997-.5191-2.796-1.3577l-.918 1.1181c.799 1.0382 2.096 1.6971 3.694 1.6971 1.836 0 3.613-.9584 3.613-2.9948z"/><path d="m241.377 48.7245c0-.6788-.519-1.1779-1.238-1.1779-.739 0-1.258.4991-1.258 1.1779s.519 1.178 1.258 1.178c.719 0 1.238-.4992 1.238-1.178zm-.28 12.5983v-9.4837h-1.916v9.4837z"/><path d="m248.431 61.2229-.119-1.5373s-.42.2196-.979.2196c-.539 0-.798-.1797-.978-.4792-.22-.3993-.24-.9383-.24-1.737v-4.2925h2.276v-1.5374h-2.276v-2.8351h-1.916v2.8351h-1.398v1.5374h1.398v4.3325c0 1.8568.119 3.8134 2.495 3.8134.659 0 1.238-.0998 1.737-.3195z"/><path d="m262.662 56.1916c0-2.6554-1.857-4.5321-4.492-4.5321-2.636 0-4.812 1.9166-4.812 4.9115 0 3.0148 1.937 4.9714 4.752 4.9714 2.835 0 4.053-1.3976 4.173-1.4974l-.799-1.0981c-.219.1397-1.358 1.0981-3.134 1.0981-1.757 0-2.955-1.1381-3.055-3.0148h7.307s.06-.4792.06-.8386zm-1.817-.4392h-5.53c.06-1.1381.898-2.7153 2.795-2.7153 1.917 0 2.715 1.6571 2.735 2.7153z"/><path d="m272.127 61.3228v-5.5105c0-2.7553-1.378-4.1528-4.153-4.1528-1.577 0-2.855.559-3.554.9583l.579 1.2778c.32-.1997 1.478-.8186 2.855-.8186 1.378 0 2.356.7188 2.356 2.1563v.3793l-2.535.0999c-2.196.0998-3.714 1.0382-3.714 2.895 0 1.8368 1.518 2.9349 3.274 2.9349 1.737 0 2.636-1.0183 3.015-1.4176l.02 1.198zm-1.897-4.5522v2.0365c-.359.5391-1.178 1.3776-2.416 1.3776-1.257 0-1.956-.7387-1.956-1.6371 0-.8985.619-1.5574 2.156-1.6372z"/><path d="m280.975 58.5476c0-1.2379-.798-1.9966-1.856-2.4358-.4-.1598-.759-.2796-1.278-.4592-.938-.2995-1.857-.6389-1.857-1.4176s.599-1.178 1.517-1.178c.919 0 1.837.4393 2.396 1.0183l.799-1.178c-.599-.6389-1.557-1.2378-3.234-1.2378-1.678 0-3.195.9583-3.195 2.7153 0 1.7969 1.398 2.296 2.795 2.7752.639.2196 2.137.539 2.137 1.5772 0 1.0383-.939 1.3577-1.817 1.3577-.879 0-1.997-.5191-2.795-1.3577l-.919 1.1181c.799 1.0382 2.096 1.6971 3.694 1.6971 1.837 0 3.613-.9584 3.613-2.9948z"/><path d="m290.944 51.8391-1.976-.0199-2.796 7.3872-2.875-7.3673-1.996-.0199 3.853 9.3039-.459 1.2578c-.26.6988-.459 1.1181-1.238 1.1181-.479 0-.998-.2196-.998-.2196l-.379 1.5573s.738.3394 1.796.3394c1.059 0 1.837-.559 2.496-2.1962z"/><path d="m301.101 47.5466s-.539-.2197-1.637-.2197-1.857.5191-2.276 1.0382c-.399.4992-.639 1.2978-.639 2.5357v.9583h-1.357v1.5374h1.357v7.9263h1.897v-7.9263h2.256v-1.5374h-2.256v-1.0582c0-1.0781.2-2.0165 1.457-2.0165.539 0 1.079.1797 1.079.1797z"/><path d="m311.033 56.6109c0-2.9349-2.196-4.9514-5.011-4.9514-2.835 0-5.031 2.0165-5.031 4.9514 0 2.9549 2.196 4.9315 5.031 4.9315 2.815 0 5.011-1.9766 5.011-4.9315zm-1.936-.0599c0 1.8768-1.178 3.3542-3.075 3.3542-1.917 0-3.095-1.4774-3.095-3.3542 0-1.8568 1.178-3.3342 3.095-3.3342 1.897 0 3.075 1.4774 3.075 3.3342z"/><path d="m318.327 51.8192s-.36-.1597-.999-.1597c-1.018 0-1.876.559-2.336 1.6371h-.06l.02-1.4575h-1.916v9.4837h1.916v-4.7319c0-1.3776.42-3.1944 2.137-3.1944.519 0 .858.1197 1.038.1996h.08z"/><path d="m333.604 56.571c0-2.8152-1.777-4.9115-4.572-4.9115-1.398 0-2.536.559-3.374 1.6771h-.04v-1.4975h-1.837v13.1972h1.916v-5.211l.02.02c.679 1.0582 1.777 1.6971 3.275 1.6971 2.815 0 4.612-2.1563 4.612-4.9714zm-1.957-.02c0 1.8967-1.118 3.3542-3.015 3.3542-1.896 0-3.014-1.4575-3.014-3.3542s1.118-3.3342 3.014-3.3342c1.897 0 3.015 1.4375 3.015 3.3342z"/><path d="m344.259 56.1916c0-2.6554-1.856-4.5321-4.492-4.5321-2.635 0-4.811 1.9166-4.811 4.9115 0 3.0148 1.936 4.9714 4.751 4.9714 2.835 0 4.053-1.3976 4.173-1.4974l-.799-1.0981c-.219.1397-1.357 1.0981-3.134 1.0981-1.757 0-2.955-1.1381-3.055-3.0148h7.308s.059-.4792.059-.8386zm-1.816-.4392h-5.531c.06-1.1381.899-2.7153 2.795-2.7153 1.917 0 2.716 1.6571 2.736 2.7153z"/><path d="m355.663 56.6109c0-2.9349-2.196-4.9514-5.011-4.9514-2.835 0-5.031 2.0165-5.031 4.9514 0 2.9549 2.196 4.9315 5.031 4.9315 2.815 0 5.011-1.9766 5.011-4.9315zm-1.936-.0599c0 1.8768-1.178 3.3542-3.075 3.3542-1.917 0-3.095-1.4774-3.095-3.3542 0-1.8568 1.178-3.3342 3.095-3.3342 1.897 0 3.075 1.4774 3.075 3.3342z"/><path d="m367.569 56.571c0-2.8152-1.777-4.9115-4.573-4.9115-1.397 0-2.535.559-3.374 1.6771h-.04v-1.4975h-1.836v13.1972h1.916v-5.211l.02.02c.679 1.0582 1.777 1.6971 3.275 1.6971 2.815 0 4.612-2.1563 4.612-4.9714zm-1.957-.02c0 1.8967-1.118 3.3542-3.015 3.3542s-3.015-1.4575-3.015-3.3542 1.118-3.3342 3.015-3.3342 3.015 1.4375 3.015 3.3342z"/><path d="m371.556 61.3228v-13.7762h-1.897v13.7762z"/><path d="m382.962 56.1916c0-2.6554-1.857-4.5321-4.492-4.5321-2.636 0-4.812 1.9166-4.812 4.9115 0 3.0148 1.937 4.9714 4.752 4.9714 2.835 0 4.053-1.3976 4.173-1.4974l-.799-1.0981c-.219.1397-1.357 1.0981-3.134 1.0981-1.757 0-2.955-1.1381-3.055-3.0148h7.307s.06-.4792.06-.8386zm-1.817-.4392h-5.53c.06-1.1381.898-2.7153 2.795-2.7153 1.917 0 2.715 1.6571 2.735 2.7153z"/><path d="m27.755 86.9927v-13.7762h-1.8967v13.7762z"/><path d="m32.7725 74.3945c0-.6789-.5191-1.178-1.2379-1.178-.7387 0-1.2578.4991-1.2578 1.178 0 .6788.5191 1.1779 1.2578 1.1779.7188 0 1.2379-.4991 1.2379-1.1779zm-.2796 12.5982v-9.4836h-1.9167v9.4836z"/><path d="m43.8 86.9927-4.1928-5.9098 3.7136-3.5738h-2.2361l-3.8733 3.7934v-8.086h-1.8968v13.7762h1.8968v-3.5539l1.0981-1.0382 3.2543 4.5921z"/><path d="m53.6091 81.8616c0-2.6554-1.8568-4.5322-4.4922-4.5322-2.6355 0-4.8117 1.9167-4.8117 4.9115 0 3.0148 1.9367 4.9714 4.7518 4.9714 2.8351 0 4.053-1.3976 4.1728-1.4974l-.7986-1.0981c-.2197.1398-1.3577 1.0981-3.1346 1.0981-1.757 0-2.9549-1.138-3.0548-3.0148h7.3074s.0599-.4791.0599-.8385zm-1.8168-.4393h-5.5305c.0599-1.138.8985-2.7153 2.7952-2.7153 1.9167 0 2.7153 1.6572 2.7353 2.7153z"/><path d="m73.2256 86.9927v-5.7501c0-2.0564-.6789-3.9132-3.2145-3.9132-1.3377 0-2.3759.6788-3.0148 1.8768-.4392-1.2379-1.4175-1.8768-2.8151-1.8768-1.2578 0-2.2961.7986-2.7353 1.6771h-.0599l.02-1.4974h-1.9167v9.4836h1.9167v-4.9315c0-1.697.7587-3.1545 2.276-3.1545 1.3777 0 1.7171 1.158 1.7171 2.5556v5.5304h1.9167v-4.9315c0-1.697.7587-3.1545 2.276-3.1545 1.5374 0 1.737 1.4575 1.737 2.5556v5.5304z"/><path d="m84.4543 81.8616c0-2.6554-1.8568-4.5322-4.4923-4.5322-2.6354 0-4.8116 1.9167-4.8116 4.9115 0 3.0148 1.9366 4.9714 4.7517 4.9714 2.8352 0 4.0531-1.3976 4.1728-1.4974l-.7986-1.0981c-.2196.1398-1.3576 1.0981-3.1346 1.0981-1.7569 0-2.9549-1.138-3.0547-3.0148h7.3074s.0599-.4791.0599-.8385zm-1.8169-.4393h-5.5304c.0599-1.138.8984-2.7153 2.7951-2.7153 1.9167 0 2.7154 1.6572 2.7353 2.7153z"/><path d="m94.9465 86.8929-.1198-1.5374s-.4193.2197-.9783.2197c-.5391 0-.7986-.1797-.9783-.4792-.2197-.3993-.2396-.9384-.2396-1.737v-4.2926h2.2761v-1.5373h-2.2761v-2.8351h-1.9167v2.8351h-1.3976v1.5373h1.3976v4.3325c0 1.8568.1198 3.8134 2.4957 3.8134.6588 0 1.2378-.0998 1.737-.3194z"/><path d="m105.938 82.2808c0-2.9349-2.196-4.9514-5.011-4.9514-2.835 0-5.0312 2.0165-5.0312 4.9514 0 2.9549 2.1962 4.9315 5.0312 4.9315 2.815 0 5.011-1.9766 5.011-4.9315zm-1.936-.0598c0 1.8767-1.178 3.3542-3.075 3.3542-1.9166 0-3.0946-1.4775-3.0946-3.3542 0-1.8568 1.178-3.3343 3.0946-3.3343 1.897 0 3.075 1.4775 3.075 3.3343z"/><path d="m119.984 86.9927v-9.5036h-1.916v5.0912c0 1.5973-.679 3.0348-2.356 3.0348-1.697 0-1.977-1.2179-1.977-2.5157v-5.6103h-1.897v5.6902c0 2.3559.699 4.033 3.335 4.033 1.337 0 2.415-.6588 2.935-1.5772l.02 1.3576z"/><path d="m130.868 86.9927v-5.6103c0-2.2761-.699-4.053-3.394-4.053-1.378 0-2.396.7387-2.895 1.6771h-.06l.02-1.4974h-1.917v9.4836h1.917v-4.7717c0-1.8169.659-3.3143 2.436-3.3143 1.697 0 1.976 1.1979 1.976 2.7951v5.2909z"/><path d="m142.608 86.9927v-13.7762h-1.897v5.77h-.039c-.659-.9783-1.777-1.6571-3.315-1.6571-2.775 0-4.572 2.1163-4.572 4.9115 0 2.8152 1.797 4.9714 4.612 4.9714 1.378 0 2.556-.579 3.334-1.737h.04v1.5174zm-1.837-4.7717c0 1.8967-1.118 3.3542-3.014 3.3542-1.897 0-3.015-1.4575-3.015-3.3542 0-1.8968 1.118-3.3343 3.015-3.3343 1.896 0 3.014 1.4375 3.014 3.3343z"/><path d="m154.002 81.8616c0-2.6554-1.857-4.5322-4.492-4.5322-2.636 0-4.812 1.9167-4.812 4.9115 0 3.0148 1.937 4.9714 4.752 4.9714 2.835 0 4.053-1.3976 4.173-1.4974l-.799-1.0981c-.219.1398-1.357 1.0981-3.134 1.0981-1.757 0-2.955-1.138-3.055-3.0148h7.307s.06-.4791.06-.8385zm-1.817-.4393h-5.53c.06-1.138.898-2.7153 2.795-2.7153 1.917 0 2.715 1.6572 2.735 2.7153z"/><path d="m161.196 77.4891s-.36-.1597-.999-.1597c-1.018 0-1.876.559-2.336 1.6372h-.059l.019-1.4575h-1.916v9.4836h1.916v-4.7318c0-1.3776.42-3.1945 2.137-3.1945.519 0 .858.1198 1.038.1997h.08z"/><path d="m168.689 84.2175c0-1.2379-.799-1.9965-1.857-2.4358-.399-.1597-.759-.2795-1.278-.4592-.938-.2995-1.856-.6389-1.856-1.4176 0-.7786.599-1.1779 1.517-1.1779s1.837.4392 2.396 1.0182l.798-1.1779c-.599-.6389-1.557-1.2379-3.234-1.2379s-3.194.9583-3.194 2.7153c0 1.7969 1.397 2.296 2.795 2.7752.639.2196 2.136.5391 2.136 1.5773s-.938 1.3576-1.817 1.3576c-.878 0-1.996-.5191-2.795-1.3576l-.918 1.1181c.798 1.0382 2.096 1.697 3.693 1.697 1.837 0 3.614-.9583 3.614-2.9948z"/><path d="m175.179 86.8929-.12-1.5374s-.419.2197-.978.2197c-.539 0-.799-.1797-.978-.4792-.22-.3993-.24-.9384-.24-1.737v-4.2926h2.276v-1.5373h-2.276v-2.8351h-1.917v2.8351h-1.397v1.5373h1.397v4.3325c0 1.8568.12 3.8134 2.496 3.8134.659 0 1.238-.0998 1.737-.3194z"/><path d="m184.134 86.9927v-5.5105c0-2.7552-1.377-4.1528-4.152-4.1528-1.578 0-2.855.559-3.554.9583l.579 1.2778c.319-.1996 1.477-.8186 2.855-.8186 1.377 0 2.356.7188 2.356 2.1563v.3794l-2.536.0998c-2.196.0998-3.713 1.0382-3.713 2.895 0 1.8368 1.517 2.9349 3.274 2.9349 1.737 0 2.635-1.0182 3.015-1.4175l.02 1.1979zm-1.896-4.5521v2.0365c-.36.539-1.178 1.3776-2.416 1.3776-1.258 0-1.957-.7387-1.957-1.6372 0-.8984.619-1.5573 2.157-1.6372z"/><path d="m194.84 86.9927v-5.6103c0-2.2761-.699-4.053-3.394-4.053-1.378 0-2.396.7387-2.895 1.6771h-.06l.02-1.4974h-1.917v9.4836h1.917v-4.7717c0-1.8169.659-3.3143 2.435-3.3143 1.698 0 1.977 1.1979 1.977 2.7951v5.2909z"/><path d="m206.58 86.9927v-13.7762h-1.897v5.77h-.04c-.659-.9783-1.777-1.6571-3.314-1.6571-2.775 0-4.572 2.1163-4.572 4.9115 0 2.8152 1.797 4.9714 4.612 4.9714 1.377 0 2.555-.579 3.334-1.737h.04v1.5174zm-1.837-4.7717c0 1.8967-1.118 3.3542-3.015 3.3542s-3.015-1.4575-3.015-3.3542c0-1.8968 1.118-3.3343 3.015-3.3343s3.015 1.4375 3.015 3.3343z"/><path d="m220.653 86.9927v-5.5105c0-2.7552-1.377-4.1528-4.152-4.1528-1.578 0-2.855.559-3.554.9583l.579 1.2778c.319-.1996 1.477-.8186 2.855-.8186 1.377 0 2.356.7188 2.356 2.1563v.3794l-2.536.0998c-2.196.0998-3.713 1.0382-3.713 2.895 0 1.8368 1.517 2.9349 3.274 2.9349 1.737 0 2.635-1.0182 3.015-1.4175l.02 1.1979zm-1.896-4.5521v2.0365c-.36.539-1.178 1.3776-2.416 1.3776-1.258 0-1.957-.7387-1.957-1.6372 0-.8984.619-1.5573 2.157-1.6372z"/><path d="m231.359 86.9927v-5.6103c0-2.2761-.699-4.053-3.394-4.053-1.378 0-2.396.7387-2.895 1.6771h-.06l.02-1.4974h-1.917v9.4836h1.917v-4.7717c0-1.8169.658-3.3143 2.435-3.3143 1.697 0 1.977 1.1979 1.977 2.7951v5.2909z"/><path d="m243.099 86.9927v-13.7762h-1.897v5.77h-.04c-.659-.9783-1.777-1.6571-3.314-1.6571-2.775 0-4.572 2.1163-4.572 4.9115 0 2.8152 1.797 4.9714 4.612 4.9714 1.377 0 2.555-.579 3.334-1.737h.04v1.5174zm-1.837-4.7717c0 1.8967-1.118 3.3542-3.015 3.3542s-3.015-1.4575-3.015-3.3542c0-1.8968 1.118-3.3343 3.015-3.3343s3.015 1.4375 3.015 3.3343z"/><path d="m256.194 84.2175c0-1.2379-.799-1.9965-1.857-2.4358-.399-.1597-.758-.2795-1.278-.4592-.938-.2995-1.856-.6389-1.856-1.4176 0-.7786.599-1.1779 1.517-1.1779s1.837.4392 2.396 1.0182l.799-1.1779c-.599-.6389-1.558-1.2379-3.235-1.2379s-3.194.9583-3.194 2.7153c0 1.7969 1.397 2.296 2.795 2.7752.639.2196 2.136.5391 2.136 1.5773s-.938 1.3576-1.817 1.3576c-.878 0-1.996-.5191-2.795-1.3576l-.918 1.1181c.798 1.0382 2.096 1.697 3.693 1.697 1.837 0 3.614-.9583 3.614-2.9948z"/><path d="m262.684 86.8929-.12-1.5374s-.419.2197-.978.2197c-.539 0-.799-.1797-.978-.4792-.22-.3993-.24-.9384-.24-1.737v-4.2926h2.276v-1.5373h-2.276v-2.8351h-1.917v2.8351h-1.397v1.5373h1.397v4.3325c0 1.8568.12 3.8134 2.496 3.8134.659 0 1.238-.0998 1.737-.3194z"/><path d="m266.548 74.3945c0-.6789-.519-1.178-1.237-1.178-.739 0-1.258.4991-1.258 1.178 0 .6788.519 1.1779 1.258 1.1779.718 0 1.237-.4991 1.237-1.1779zm-.279 12.5982v-9.4836h-1.917v9.4836z"/><path d="m276.937 85.7748-.679-1.3976s-1.038 1.198-2.895 1.198c-1.837 0-3.075-1.3777-3.075-3.3742 0-1.9966 1.398-3.2744 3.075-3.2744s2.516.8386 2.835 1.158l.679-1.3975c-.1-.1198-1.138-1.3577-3.674-1.3577-2.515 0-4.851 1.8768-4.851 4.9315 0 3.0347 2.236 4.9514 4.792 4.9514 2.535 0 3.513-1.158 3.793-1.4375z"/><path d="m287.052 86.9927-4.193-5.9098 3.714-3.5738h-2.237l-3.873 3.7934v-8.086h-1.897v13.7762h1.897v-3.5539l1.098-1.0382 3.255 4.5921z"/><path d="m296.785 86.8929-.119-1.5374s-.42.2197-.979.2197c-.539 0-.798-.1797-.978-.4792-.22-.3993-.24-.9384-.24-1.737v-4.2926h2.276v-1.5373h-2.276v-2.8351h-1.916v2.8351h-1.398v1.5373h1.398v4.3325c0 1.8568.119 3.8134 2.495 3.8134.659 0 1.238-.0998 1.737-.3194z"/><path d="m307.777 82.2808c0-2.9349-2.196-4.9514-5.011-4.9514-2.835 0-5.031 2.0165-5.031 4.9514 0 2.9549 2.196 4.9315 5.031 4.9315 2.815 0 5.011-1.9766 5.011-4.9315zm-1.936-.0598c0 1.8767-1.178 3.3542-3.075 3.3542-1.917 0-3.095-1.4775-3.095-3.3542 0-1.8568 1.178-3.3343 3.095-3.3343 1.897 0 3.075 1.4775 3.075 3.3343z"/><path d="m312.404 85.9545c0-.7787-.559-1.2578-1.317-1.2578-.779 0-1.338.4791-1.338 1.2578 0 .7587.559 1.2379 1.338 1.2379.758 0 1.317-.4792 1.317-1.2379z"/><path d="m321.509 86.9927v-13.7762h-1.937v13.7762z"/><path d="m327.718 73.2165h-1.956l-1.338 4.2726h1.518z"/><path d="m337.855 77.5091h-1.976l-2.795 7.1476-2.816-7.1476h-1.996l3.953 9.4836h1.677z"/><path d="m347.808 81.8616c0-2.6554-1.857-4.5322-4.492-4.5322-2.636 0-4.812 1.9167-4.812 4.9115 0 3.0148 1.937 4.9714 4.752 4.9714 2.835 0 4.053-1.3976 4.173-1.4974l-.799-1.0981c-.22.1398-1.358 1.0981-3.135 1.0981-1.756 0-2.954-1.138-3.054-3.0148h7.307s.06-.4791.06-.8385zm-1.817-.4393h-5.53c.06-1.138.898-2.7153 2.795-2.7153 1.917 0 2.715 1.6572 2.735 2.7153z"/><path d="m30.3705 112.563-.1198-1.538s-.4193.22-.9783.22c-.5391 0-.7986-.18-.9783-.479-.2196-.399-.2396-.938-.2396-1.737v-4.293h2.2761v-1.537h-2.2761v-2.835h-1.9167v2.835h-1.3976v1.537h1.3976v4.333c0 1.857.1198 3.813 2.4957 3.813.6589 0 1.2379-.1 1.737-.319z"/><path d="m37.2496 103.159s-.3594-.16-.9983-.16c-1.0183 0-1.8768.559-2.336 1.638h-.0599l.02-1.458h-1.9167v9.484h1.9167v-4.732c0-1.378.4193-3.195 2.1363-3.195.5191 0 .8585.12 1.0382.2h.0799z"/><path d="m40.9224 100.064c0-.6784-.5191-1.1775-1.2378-1.1775-.7387 0-1.2578.4991-1.2578 1.1775 0 .679.5191 1.178 1.2578 1.178.7187 0 1.2378-.499 1.2378-1.178zm-.2795 12.599v-9.484h-1.9167v9.484z"/><path d="m52.0298 107.532c0-2.656-1.8568-4.533-4.4922-4.533-2.6355 0-4.8117 1.917-4.8117 4.912 0 3.015 1.9366 4.971 4.7518 4.971 2.8351 0 4.053-1.397 4.1728-1.497l-.7986-1.098c-.2197.14-1.3577 1.098-3.1346 1.098-1.757 0-2.9549-1.138-3.0548-3.015h7.3074s.0599-.479.0599-.838zm-1.8168-.44h-5.5305c.0599-1.138.8985-2.715 2.7952-2.715 1.9167 0 2.7153 1.657 2.7353 2.715z"/><path d="m63.2141 112.663v-13.7765h-1.8967v5.7695h-.04c-.6588-.978-1.7769-1.657-3.3142-1.657-2.7752 0-4.5721 2.117-4.5721 4.912 0 2.815 1.7969 4.971 4.612 4.971 1.3776 0 2.5556-.579 3.3342-1.737h.04v1.518zm-1.8368-4.772c0 1.897-1.1181 3.354-3.0148 3.354s-3.0148-1.457-3.0148-3.354 1.1181-3.334 3.0148-3.334 3.0148 1.437 3.0148 3.334z"/><path d="m79.3242 107.951c0-2.935-2.1962-4.952-5.0113-4.952-2.8351 0-5.0313 2.017-5.0313 4.952 0 2.955 2.1962 4.931 5.0313 4.931 2.8151 0 5.0113-1.976 5.0113-4.931zm-1.9366-.06c0 1.877-1.178 3.354-3.0747 3.354-1.9167 0-3.0947-1.477-3.0947-3.354 0-1.857 1.178-3.334 3.0947-3.334 1.8967 0 3.0747 1.477 3.0747 3.334z"/><path d="m85.9386 112.563-.1198-1.538s-.4193.22-.9783.22c-.5391 0-.7986-.18-.9783-.479-.2196-.399-.2396-.938-.2396-1.737v-4.293h2.2761v-1.537h-2.2761v-2.835h-1.9167v2.835h-1.3976v1.537h1.3976v4.333c0 1.857.1198 3.813 2.4957 3.813.6589 0 1.2379-.1 1.737-.319z"/><path d="m95.8724 112.663v-5.651c0-2.256-.6589-4.013-3.3942-4.013-1.3776 0-2.4158.739-2.9149 1.677h-.04v-5.7895h-1.8967v13.7765h1.8967v-4.692c0-1.897.7388-3.394 2.4758-3.394s1.9566 1.357 1.9566 2.715v5.371z"/><path d="m107.13 107.532c0-2.656-1.857-4.533-4.492-4.533-2.636 0-4.812 1.917-4.812 4.912 0 3.015 1.9367 4.971 4.752 4.971 2.835 0 4.053-1.397 4.173-1.497l-.799-1.098c-.22.14-1.358 1.098-3.135 1.098-1.757 0-2.9545-1.138-3.0543-3.015h7.3073s.06-.479.06-.838zm-1.817-.44h-5.5303c.0599-1.138.8983-2.715 2.7953-2.715 1.917 0 2.715 1.657 2.735 2.715z"/><path d="m114.323 103.159s-.359-.16-.998-.16c-1.018 0-1.877.559-2.336 1.638h-.06l.02-1.458h-1.916v9.484h1.916v-4.732c0-1.378.42-3.195 2.137-3.195.519 0 .858.12 1.038.2h.08z"/><path d="m129.621 107.911c0-2.795-1.797-4.912-4.572-4.912-1.498 0-2.636.619-3.315 1.657h-.04v-5.7695h-1.896v13.7765h1.836v-1.498h.04c.779 1.158 1.957 1.717 3.335 1.717 2.815 0 4.612-2.156 4.612-4.971zm-1.957-.02c0 1.897-1.118 3.354-3.015 3.354-1.896 0-3.035-1.457-3.035-3.354s1.139-3.334 3.035-3.334c1.897 0 3.015 1.437 3.015 3.334z"/><path d="m139.677 112.663v-9.504h-1.917v5.091c0 1.598-.679 3.035-2.356 3.035-1.697 0-1.976-1.218-1.976-2.516v-5.61h-1.897v5.69c0 2.356.699 4.033 3.334 4.033 1.338 0 2.416-.659 2.935-1.577l.02 1.358z"/><path d="m151.499 112.663v-13.7765h-1.897v5.7695h-.04c-.658-.978-1.776-1.657-3.314-1.657-2.775 0-4.572 2.117-4.572 4.912 0 2.815 1.797 4.971 4.612 4.971 1.378 0 2.556-.579 3.334-1.737h.04v1.518zm-1.837-4.772c0 1.897-1.118 3.354-3.015 3.354-1.896 0-3.014-1.457-3.014-3.354s1.118-3.334 3.014-3.334c1.897 0 3.015 1.437 3.015 3.334z"/><path d="m163.412 110.666v-7.487h-1.897l.02 1.497h-.06c-.559-.878-1.657-1.677-3.314-1.677-2.436 0-4.572 1.757-4.572 4.772s2.136 4.772 4.572 4.772c1.597 0 2.676-.739 3.314-1.697h.04v.479c0 2.236-.898 3.694-3.314 3.694-1.417 0-2.895-.759-3.394-1.198l-.898 1.337c.279.2 1.896 1.418 4.232 1.418 2.356 0 3.534-.958 4.233-1.817.699-.839 1.038-1.997 1.038-4.093zm-1.837-2.895c0 1.797-1.058 3.215-3.014 3.215-1.937 0-3.015-1.418-3.015-3.215s1.078-3.234 3.015-3.234c1.956 0 3.014 1.437 3.014 3.234z"/><path d="m174.728 107.532c0-2.656-1.857-4.533-4.492-4.533-2.636 0-4.812 1.917-4.812 4.912 0 3.015 1.937 4.971 4.752 4.971 2.835 0 4.053-1.397 4.173-1.497l-.799-1.098c-.22.14-1.358 1.098-3.134 1.098-1.757 0-2.955-1.138-3.055-3.015h7.307s.06-.479.06-.838zm-1.817-.44h-5.53c.06-1.138.898-2.715 2.795-2.715 1.917 0 2.715 1.657 2.735 2.715z"/><path d="m181.243 112.563-.12-1.538s-.419.22-.978.22c-.539 0-.799-.18-.979-.479-.219-.399-.239-.938-.239-1.737v-4.293h2.276v-1.537h-2.276v-2.835h-1.917v2.835h-1.398v1.537h1.398v4.333c0 1.857.12 3.813 2.496 3.813.659 0 1.238-.1 1.737-.319z"/><path d="m185.107 100.064c0-.6784-.519-1.1775-1.238-1.1775-.739 0-1.258.4991-1.258 1.1775 0 .679.519 1.178 1.258 1.178.719 0 1.238-.499 1.238-1.178zm-.28 12.599v-9.484h-1.916v9.484z"/><path d="m195.795 112.663v-5.611c0-2.276-.699-4.053-3.394-4.053-1.378 0-2.396.739-2.895 1.677h-.06l.02-1.497h-1.917v9.484h1.917v-4.772c0-1.817.659-3.314 2.436-3.314 1.697 0 1.976 1.198 1.976 2.795v5.291z"/><path d="m207.535 110.666v-7.487h-1.897l.02 1.497h-.06c-.559-.878-1.657-1.677-3.314-1.677-2.436 0-4.572 1.757-4.572 4.772s2.136 4.772 4.572 4.772c1.597 0 2.676-.739 3.314-1.697h.04v.479c0 2.236-.898 3.694-3.314 3.694-1.417 0-2.895-.759-3.394-1.198l-.898 1.337c.279.2 1.896 1.418 4.232 1.418 2.356 0 3.534-.958 4.233-1.817.699-.839 1.038-1.997 1.038-4.093zm-1.837-2.895c0 1.797-1.058 3.215-3.014 3.215-1.937 0-3.015-1.418-3.015-3.215s1.078-3.234 3.015-3.234c1.956 0 3.014 1.437 3.014 3.234z"/><path d="m221.531 112.663v-5.511c0-2.755-1.378-4.153-4.153-4.153-1.577 0-2.855.559-3.554.959l.579 1.277c.32-.199 1.478-.818 2.855-.818 1.378 0 2.356.719 2.356 2.156v.38l-2.535.099c-2.197.1-3.714 1.039-3.714 2.895 0 1.837 1.517 2.935 3.274 2.935 1.737 0 2.636-1.018 3.015-1.417l.02 1.198zm-1.897-4.552v2.036c-.359.539-1.178 1.378-2.416 1.378-1.258 0-1.956-.739-1.956-1.638 0-.898.619-1.557 2.156-1.637z"/><path d="m233.893 107.911c0-2.815-1.777-4.912-4.572-4.912-1.397 0-2.536.559-3.374 1.677h-.04v-1.497h-1.837v13.197h1.917v-5.211l.02.02c.679 1.058 1.777 1.697 3.274 1.697 2.815 0 4.612-2.156 4.612-4.971zm-1.956-.02c0 1.897-1.118 3.354-3.015 3.354s-3.015-1.457-3.015-3.354 1.118-3.334 3.015-3.334 3.015 1.437 3.015 3.334z"/><path d="m245.787 107.911c0-2.815-1.777-4.912-4.572-4.912-1.398 0-2.536.559-3.375 1.677h-.039v-1.497h-1.837v13.197h1.916v-5.211l.02.02c.679 1.058 1.777 1.697 3.275 1.697 2.815 0 4.612-2.156 4.612-4.971zm-1.957-.02c0 1.897-1.118 3.354-3.015 3.354-1.896 0-3.014-1.457-3.014-3.354s1.118-3.334 3.014-3.334c1.897 0 3.015 1.437 3.015 3.334z"/><path d="m254.166 109.887c0-1.237-.798-1.996-1.856-2.435-.4-.16-.759-.28-1.278-.46-.939-.299-1.857-.638-1.857-1.417s.599-1.178 1.517-1.178c.919 0 1.837.439 2.396 1.018l.799-1.178c-.599-.639-1.558-1.238-3.235-1.238s-3.194.959-3.194 2.716c0 1.797 1.397 2.296 2.795 2.775.639.219 2.136.539 2.136 1.577s-.938 1.358-1.816 1.358c-.879 0-1.997-.519-2.796-1.358l-.918 1.118c.799 1.038 2.096 1.697 3.694 1.697 1.836 0 3.613-.958 3.613-2.995z"/><path d="m269.945 107.911c0-2.795-1.797-4.912-4.572-4.912-1.498 0-2.636.619-3.315 1.657h-.04v-5.7695h-1.896v13.7765h1.836v-1.498h.04c.779 1.158 1.957 1.717 3.335 1.717 2.815 0 4.612-2.156 4.612-4.971zm-1.957-.02c0 1.897-1.118 3.354-3.015 3.354-1.896 0-3.034-1.457-3.034-3.354s1.138-3.334 3.034-3.334c1.897 0 3.015 1.437 3.015 3.334z"/><path d="m280.6 107.532c0-2.656-1.857-4.533-4.492-4.533-2.636 0-4.812 1.917-4.812 4.912 0 3.015 1.937 4.971 4.752 4.971 2.835 0 4.053-1.397 4.173-1.497l-.799-1.098c-.22.14-1.358 1.098-3.135 1.098-1.757 0-2.955-1.138-3.054-3.015h7.307s.06-.479.06-.838zm-1.817-.44h-5.53c.059-1.138.898-2.715 2.795-2.715 1.916 0 2.715 1.657 2.735 2.715z"/><path d="m287.414 98.8865s-.539-.2197-1.637-.2197-1.857.5191-2.276 1.0382c-.4.499-.639 1.298-.639 2.536v.958h-1.358v1.537h1.358v7.927h1.897v-7.927h2.256v-1.537h-2.256v-1.058c0-1.078.199-2.017 1.457-2.017.539 0 1.078.18 1.078.18z"/><path d="m297.346 107.951c0-2.935-2.196-4.952-5.011-4.952-2.835 0-5.032 2.017-5.032 4.952 0 2.955 2.197 4.931 5.032 4.931 2.815 0 5.011-1.976 5.011-4.931zm-1.937-.06c0 1.877-1.178 3.354-3.074 3.354-1.917 0-3.095-1.477-3.095-3.354 0-1.857 1.178-3.334 3.095-3.334 1.896 0 3.074 1.477 3.074 3.334z"/><path d="m304.639 103.159s-.359-.16-.998-.16c-1.018 0-1.877.559-2.336 1.638h-.06l.02-1.458h-1.917v9.484h1.917v-4.732c0-1.378.419-3.195 2.136-3.195.52 0 .859.12 1.039.2h.08z"/><path d="m314.604 107.532c0-2.656-1.857-4.533-4.493-4.533-2.635 0-4.811 1.917-4.811 4.912 0 3.015 1.936 4.971 4.752 4.971 2.835 0 4.053-1.397 4.172-1.497l-.798-1.098c-.22.14-1.358 1.098-3.135 1.098-1.757 0-2.955-1.138-3.055-3.015h7.308s.06-.479.06-.838zm-1.817-.44h-5.531c.06-1.138.899-2.715 2.796-2.715 1.916 0 2.715 1.657 2.735 2.715z"/><path d="m319.566 110.546h-1.957l-1.397 4.912h1.517z"/><path d="m333.661 112.663v-5.511c0-2.755-1.377-4.153-4.152-4.153-1.578 0-2.856.559-3.554.959l.579 1.277c.319-.199 1.477-.818 2.855-.818 1.377 0 2.356.719 2.356 2.156v.38l-2.536.099c-2.196.1-3.714 1.039-3.714 2.895 0 1.837 1.518 2.935 3.275 2.935 1.737 0 2.635-1.018 3.015-1.417l.02 1.198zm-1.896-4.552v2.036c-.36.539-1.178 1.378-2.416 1.378-1.258 0-1.957-.739-1.957-1.638 0-.898.619-1.557 2.156-1.637z"/><path d="m344.367 112.663v-5.611c0-2.276-.699-4.053-3.395-4.053-1.377 0-2.395.739-2.895 1.677h-.059l.02-1.497h-1.917v9.484h1.917v-4.772c0-1.817.658-3.314 2.435-3.314 1.697 0 1.977 1.198 1.977 2.795v5.291z"/><path d="m356.107 112.663v-13.7765h-1.897v5.7695h-.04c-.659-.978-1.777-1.657-3.314-1.657-2.775 0-4.572 2.117-4.572 4.912 0 2.815 1.797 4.971 4.612 4.971 1.377 0 2.555-.579 3.334-1.737h.04v1.518zm-1.837-4.772c0 1.897-1.118 3.354-3.015 3.354s-3.015-1.457-3.015-3.354 1.118-3.334 3.015-3.334 3.015 1.437 3.015 3.334z"/><path d="m27.8948 138.333v-13.777h-1.9367v13.777z"/><path d="m39.6194 124.556s-.5391-.219-1.6372-.219-1.8568.519-2.2761 1.038c-.3993.499-.6389 1.298-.6389 2.536v.958h-1.3576v1.537h1.3576v7.927h1.8968v-7.927h2.2561v-1.537h-2.2561v-1.058c0-1.078.1996-2.017 1.4574-2.017.5391 0 1.0782.18 1.0782.18z"/><path d="m48.8127 133.201c0-2.655-1.8568-4.532-4.4922-4.532-2.6355 0-4.8117 1.917-4.8117 4.912 0 3.015 1.9366 4.971 4.7518 4.971 2.8351 0 4.053-1.397 4.1728-1.497l-.7986-1.098c-.2197.139-1.3577 1.098-3.1346 1.098-1.757 0-2.9549-1.138-3.0548-3.015h7.3074s.0599-.479.0599-.839zm-1.8168-.439h-5.5305c.0599-1.138.8985-2.715 2.7952-2.715 1.9167 0 2.7153 1.657 2.7353 2.715z"/><path d="m52.7119 138.333v-13.777h-1.8967v13.777z"/><path d="m60.0653 138.233-.1198-1.538s-.4192.22-.9783.22c-.5391 0-.7986-.18-.9783-.479-.2196-.399-.2396-.938-.2396-1.737v-4.293h2.2761v-1.537h-2.2761v-2.835h-1.9167v2.835h-1.3976v1.537h1.3976v4.333c0 1.857.1198 3.813 2.4957 3.813.6589 0 1.2379-.1 1.737-.319z"/><path d="m72.9983 138.333v-5.511c0-2.755-1.3776-4.153-4.1528-4.153-1.5773 0-2.8551.559-3.5539.959l.579 1.277c.3195-.199 1.4775-.818 2.8551-.818s2.3559.719 2.3559 2.156v.379l-2.5356.1c-2.1962.1-3.7136 1.039-3.7136 2.895 0 1.837 1.5174 2.935 3.2743 2.935 1.737 0 2.6355-1.018 3.0148-1.417l.02 1.198zm-1.8967-4.553v2.037c-.3594.539-1.178 1.378-2.4159 1.378-1.2578 0-1.9566-.739-1.9566-1.638 0-.898.619-1.557 2.1563-1.637z"/><path d="m81.4319 138.333v-13.777h-1.8968v13.777z"/><path d="m93.577 133.621c0-2.935-2.1962-4.952-5.0114-4.952-2.8351 0-5.0313 2.017-5.0313 4.952 0 2.955 2.1962 4.931 5.0313 4.931 2.8152 0 5.0114-1.976 5.0114-4.931zm-1.9367-.06c0 1.877-1.1779 3.354-3.0747 3.354-1.9167 0-3.0946-1.477-3.0946-3.354 0-1.857 1.1779-3.334 3.0946-3.334 1.8968 0 3.0747 1.477 3.0747 3.334z"/><path d="m100.191 138.233-.119-1.538s-.4197.22-.9788.22c-.539 0-.7986-.18-.9783-.479-.2196-.399-.2396-.938-.2396-1.737v-4.293h2.2757v-1.537h-2.2757v-2.835h-1.9167v2.835h-1.3975v1.537h1.3975v4.333c0 1.857.1198 3.813 2.4957 3.813.6589 0 1.2379-.1 1.7367-.319z"/><path d="m115.161 133.621c0-2.935-2.196-4.952-5.012-4.952-2.835 0-5.031 2.017-5.031 4.952 0 2.955 2.196 4.931 5.031 4.931 2.816 0 5.012-1.976 5.012-4.931zm-1.937-.06c0 1.877-1.178 3.354-3.075 3.354-1.916 0-3.094-1.477-3.094-3.354 0-1.857 1.178-3.334 3.094-3.334 1.897 0 3.075 1.477 3.075 3.334z"/><path d="m122.075 124.556s-.539-.219-1.638-.219c-1.098 0-1.856.519-2.276 1.038-.399.499-.639 1.298-.639 2.536v.958h-1.357v1.537h1.357v7.927h1.897v-7.927h2.256v-1.537h-2.256v-1.058c0-1.078.2-2.017 1.458-2.017.539 0 1.078.18 1.078.18z"/><path d="m131.231 138.233-.119-1.538s-.42.22-.979.22c-.539 0-.798-.18-.978-.479-.22-.399-.24-.938-.24-1.737v-4.293h2.277v-1.537h-2.277v-2.835h-1.916v2.835h-1.398v1.537h1.398v4.333c0 1.857.12 3.813 2.495 3.813.659 0 1.238-.1 1.737-.319z"/><path d="m141.165 138.333v-5.651c0-2.256-.659-4.013-3.394-4.013-1.378 0-2.416.739-2.915 1.677h-.04v-5.79h-1.897v13.777h1.897v-4.692c0-1.897.739-3.394 2.476-3.394s1.957 1.357 1.957 2.715v5.371z"/><path d="m152.423 133.201c0-2.655-1.857-4.532-4.492-4.532-2.636 0-4.812 1.917-4.812 4.912 0 3.015 1.937 4.971 4.752 4.971 2.835 0 4.053-1.397 4.172-1.497l-.798-1.098c-.22.139-1.358 1.098-3.135 1.098-1.757 0-2.955-1.138-3.054-3.015h7.307s.06-.479.06-.839zm-1.817-.439h-5.53c.059-1.138.898-2.715 2.795-2.715 1.916 0 2.715 1.657 2.735 2.715z"/><path d="m168.062 138.333v-5.75c0-2.057-.679-3.914-3.215-3.914-1.337 0-2.376.679-3.014 1.877-.44-1.238-1.418-1.877-2.816-1.877-1.257 0-2.296.799-2.735 1.677h-.06l.02-1.497h-1.917v9.484h1.917v-4.932c0-1.697.759-3.154 2.276-3.154 1.378 0 1.717 1.158 1.717 2.555v5.531h1.917v-4.932c0-1.697.759-3.154 2.276-3.154 1.537 0 1.737 1.457 1.737 2.555v5.531z"/><path d="m188.279 128.849h-1.936l-2.197 7.168-2.495-7.188h-1.538l-2.495 7.188-2.196-7.168h-1.937l3.134 9.484h1.757l2.516-7.088 2.496 7.088h1.757z"/><path d="m198.457 133.201c0-2.655-1.857-4.532-4.493-4.532-2.635 0-4.811 1.917-4.811 4.912 0 3.015 1.936 4.971 4.751 4.971 2.836 0 4.053-1.397 4.173-1.497l-.798-1.098c-.22.139-1.358 1.098-3.135 1.098-1.757 0-2.955-1.138-3.055-3.015h7.308s.06-.479.06-.839zm-1.817-.439h-5.531c.06-1.138.899-2.715 2.795-2.715 1.917 0 2.716 1.657 2.736 2.715z"/><path d="m205.65 128.829s-.359-.16-.998-.16c-1.018 0-1.877.559-2.336 1.637h-.06l.02-1.457h-1.917v9.484h1.917v-4.732c0-1.378.419-3.195 2.136-3.195.519 0 .859.12 1.038.2h.08z"/><path d="m215.614 133.201c0-2.655-1.856-4.532-4.492-4.532-2.635 0-4.811 1.917-4.811 4.912 0 3.015 1.936 4.971 4.751 4.971 2.835 0 4.053-1.397 4.173-1.497l-.799-1.098c-.219.139-1.357 1.098-3.134 1.098-1.757 0-2.955-1.138-3.055-3.015h7.308s.059-.479.059-.839zm-1.816-.439h-5.531c.06-1.138.899-2.715 2.795-2.715 1.917 0 2.716 1.657 2.736 2.715z"/><path d="m229.74 138.333v-5.611c0-2.276-.698-4.053-3.394-4.053-1.377 0-2.396.739-2.895 1.677h-.06l.02-1.497h-1.916v9.484h1.916v-4.772c0-1.817.659-3.314 2.436-3.314 1.697 0 1.977 1.198 1.977 2.795v5.291z"/><path d="m241.7 133.621c0-2.935-2.196-4.952-5.011-4.952-2.835 0-5.032 2.017-5.032 4.952 0 2.955 2.197 4.931 5.032 4.931 2.815 0 5.011-1.976 5.011-4.931zm-1.937-.06c0 1.877-1.178 3.354-3.074 3.354-1.917 0-3.095-1.477-3.095-3.354 0-1.857 1.178-3.334 3.095-3.334 1.896 0 3.074 1.477 3.074 3.334z"/><path d="m248.314 138.233-.119-1.538s-.42.22-.979.22c-.539 0-.798-.18-.978-.479-.22-.399-.24-.938-.24-1.737v-4.293h2.276v-1.537h-2.276v-2.835h-1.916v2.835h-1.398v1.537h1.398v4.333c0 1.857.12 3.813 2.495 3.813.659 0 1.238-.1 1.737-.319z"/><path d="m261.247 138.333v-5.511c0-2.755-1.377-4.153-4.152-4.153-1.578 0-2.856.559-3.554.959l.579 1.277c.319-.199 1.477-.818 2.855-.818 1.377 0 2.356.719 2.356 2.156v.379l-2.536.1c-2.196.1-3.714 1.039-3.714 2.895 0 1.837 1.518 2.935 3.275 2.935 1.737 0 2.635-1.018 3.015-1.417l.02 1.198zm-1.896-4.553v2.037c-.36.539-1.178 1.378-2.416 1.378-1.258 0-1.957-.739-1.957-1.638 0-.898.619-1.557 2.156-1.637z"/><path d="m270.096 135.557c0-1.237-.799-1.996-1.857-2.435-.399-.16-.759-.28-1.278-.46-.938-.299-1.857-.638-1.857-1.417s.599-1.178 1.518-1.178c.918 0 1.837.439 2.396 1.018l.798-1.178c-.599-.639-1.557-1.238-3.234-1.238s-3.195.959-3.195 2.716c0 1.797 1.398 2.296 2.796 2.775.639.219 2.136.539 2.136 1.577s-.938 1.358-1.817 1.358c-.878 0-1.997-.519-2.795-1.358l-.919 1.118c.799 1.038 2.097 1.697 3.694 1.697 1.837 0 3.614-.958 3.614-2.995z"/><path d="m284.017 138.333v-9.504h-1.916v5.091c0 1.597-.679 3.035-2.356 3.035-1.697 0-1.977-1.218-1.977-2.516v-5.61h-1.897v5.69c0 2.356.699 4.033 3.335 4.033 1.337 0 2.416-.659 2.935-1.577l.02 1.358z"/><path d="m293.044 135.557c0-1.237-.798-1.996-1.856-2.435-.4-.16-.759-.28-1.278-.46-.938-.299-1.857-.638-1.857-1.417s.599-1.178 1.517-1.178c.919 0 1.837.439 2.396 1.018l.799-1.178c-.599-.639-1.557-1.238-3.234-1.238-1.678 0-3.195.959-3.195 2.716 0 1.797 1.398 2.296 2.795 2.775.639.219 2.137.539 2.137 1.577s-.939 1.358-1.817 1.358c-.879 0-1.997-.519-2.795-1.358l-.919 1.118c.799 1.038 2.096 1.697 3.694 1.697 1.837 0 3.613-.958 3.613-2.995z"/><path d="m303.588 133.201c0-2.655-1.857-4.532-4.493-4.532-2.635 0-4.811 1.917-4.811 4.912 0 3.015 1.936 4.971 4.751 4.971 2.835 0 4.053-1.397 4.173-1.497l-.798-1.098c-.22.139-1.358 1.098-3.135 1.098-1.757 0-2.955-1.138-3.055-3.015h7.308s.06-.479.06-.839zm-1.817-.439h-5.531c.06-1.138.899-2.715 2.795-2.715 1.917 0 2.716 1.657 2.736 2.715z"/><path d="m310.781 128.829s-.359-.16-.998-.16c-1.018 0-1.877.559-2.336 1.637h-.06l.02-1.457h-1.917v9.484h1.917v-4.732c0-1.378.419-3.195 2.136-3.195.519 0 .859.12 1.038.2h.08z"/><path d="m316.191 133.661v-1.598h-4.832v1.598z"/><path d="m322.919 124.556s-.539-.219-1.637-.219-1.857.519-2.276 1.038c-.399.499-.639 1.298-.639 2.536v.958h-1.358v1.537h1.358v7.927h1.897v-7.927h2.256v-1.537h-2.256v-1.058c0-1.078.199-2.017 1.457-2.017.539 0 1.078.18 1.078.18z"/><path d="m328.875 128.829s-.36-.16-.998-.16c-1.019 0-1.877.559-2.336 1.637h-.06l.02-1.457h-1.917v9.484h1.917v-4.732c0-1.378.419-3.195 2.136-3.195.519 0 .858.12 1.038.2h.08z"/><path d="m332.548 125.734c0-.678-.519-1.178-1.238-1.178-.739 0-1.258.5-1.258 1.178 0 .679.519 1.178 1.258 1.178.719 0 1.238-.499 1.238-1.178zm-.28 12.599v-9.484h-1.917v9.484z"/><path d="m343.655 133.201c0-2.655-1.857-4.532-4.492-4.532-2.636 0-4.812 1.917-4.812 4.912 0 3.015 1.937 4.971 4.752 4.971 2.835 0 4.053-1.397 4.173-1.497l-.799-1.098c-.22.139-1.358 1.098-3.135 1.098-1.756 0-2.954-1.138-3.054-3.015h7.307s.06-.479.06-.839zm-1.817-.439h-5.53c.06-1.138.898-2.715 2.795-2.715 1.917 0 2.715 1.657 2.735 2.715z"/><path d="m353.803 138.333v-5.611c0-2.276-.698-4.053-3.394-4.053-1.377 0-2.396.739-2.895 1.677h-.06l.02-1.497h-1.916v9.484h1.916v-4.772c0-1.817.659-3.314 2.436-3.314 1.697 0 1.977 1.198 1.977 2.795v5.291z"/><path d="m365.543 138.333v-13.777h-1.896v5.77h-.04c-.659-.978-1.777-1.657-3.314-1.657-2.776 0-4.573 2.117-4.573 4.912 0 2.815 1.797 4.971 4.612 4.971 1.378 0 2.556-.579 3.335-1.737h.04v1.518zm-1.836-4.772c0 1.897-1.118 3.354-3.015 3.354s-3.015-1.457-3.015-3.354 1.118-3.334 3.015-3.334 3.015 1.437 3.015 3.334z"/><path d="m370.269 138.333v-13.777h-1.897v13.777z"/><path d="m381.296 128.849-1.977-.02-2.795 7.387-2.875-7.367-1.996-.02 3.853 9.304-.459 1.258c-.26.699-.459 1.118-1.238 1.118-.479 0-.998-.22-.998-.22l-.38 1.558s.739.339 1.797.339 1.837-.559 2.496-2.196z"/><path d="m33.1258 164.003v-5.511c0-2.755-1.3777-4.153-4.1529-4.153-1.5773 0-2.855.559-3.5538.959l.579 1.277c.3194-.199 1.4774-.818 2.855-.818 1.3777 0 2.356.719 2.356 2.156v.379l-2.5357.1c-2.1962.1-3.7135 1.038-3.7135 2.895 0 1.837 1.5173 2.935 3.2743 2.935 1.737 0 2.6354-1.018 3.0148-1.417l.02 1.198zm-1.8968-4.553v2.037c-.3594.539-1.1779 1.378-2.4158 1.378-1.2578 0-1.9566-.739-1.9566-1.638 0-.898.6189-1.557 2.1563-1.637z"/><path d="m43.831 164.003v-5.611c0-2.276-.6988-4.053-3.3941-4.053-1.3776 0-2.3959.739-2.895 1.677h-.0599l.0199-1.497h-1.9166v9.484h1.9166v-4.772c0-1.817.6589-3.314 2.4358-3.314 1.6971 0 1.9766 1.197 1.9766 2.795v5.291z"/><path d="m55.571 164.003v-13.777h-1.8967v5.77h-.0399c-.6589-.978-1.7769-1.657-3.3143-1.657-2.7752 0-4.5721 2.117-4.5721 4.912 0 2.815 1.7969 4.971 4.6121 4.971 1.3776 0 2.5555-.579 3.3342-1.737h.0399v1.518zm-1.8368-4.772c0 1.897-1.118 3.354-3.0148 3.354-1.8967 0-3.0148-1.457-3.0148-3.354s1.1181-3.334 3.0148-3.334c1.8968 0 3.0148 1.437 3.0148 3.334z"/><path d="m68.6664 161.227c0-1.238-.7986-1.996-1.8568-2.435-.3993-.16-.7587-.28-1.2778-.46-.9384-.299-1.8568-.639-1.8568-1.417 0-.779.599-1.178 1.5174-1.178s1.8368.439 2.3959 1.018l.7986-1.178c-.599-.639-1.5573-1.238-3.2344-1.238s-3.1945.959-3.1945 2.716c0 1.796 1.3976 2.296 2.7952 2.775.6389.219 2.1363.539 2.1363 1.577s-.9384 1.358-1.8169 1.358-1.9965-.519-2.7952-1.358l-.9184 1.118c.7986 1.038 2.0964 1.697 3.6936 1.697 1.8369 0 3.6138-.958 3.6138-2.995z"/><path d="m75.1564 163.903-.1197-1.538s-.4193.22-.9784.22c-.539 0-.7986-.18-.9783-.479-.2196-.399-.2396-.939-.2396-1.737v-4.293h2.2761v-1.537h-2.2761v-2.835h-1.9166v2.835h-1.3976v1.537h1.3976v4.333c0 1.857.1197 3.813 2.4956 3.813.6589 0 1.2379-.1 1.737-.319z"/><path d="m82.0355 154.499s-.3594-.16-.9983-.16c-1.0182 0-1.8767.559-2.3359 1.637h-.0599l.0199-1.457h-1.9167v9.484h1.9167v-4.732c0-1.378.4193-3.195 2.1363-3.195.5191 0 .8586.12 1.0382.2h.0799z"/><path d="m90.4096 164.003v-5.511c0-2.755-1.3776-4.153-4.1528-4.153-1.5773 0-2.8551.559-3.5539.959l.579 1.277c.3195-.199 1.4775-.818 2.8551-.818s2.3559.719 2.3559 2.156v.379l-2.5356.1c-2.1962.1-3.7136 1.038-3.7136 2.895 0 1.837 1.5174 2.935 3.2744 2.935 1.737 0 2.6354-1.018 3.0148-1.417l.0199 1.198zm-1.8967-4.553v2.037c-.3594.539-1.178 1.378-2.4158 1.378-1.2578 0-1.9566-.739-1.9566-1.638 0-.898.6189-1.557 2.1562-1.637z"/><path d="m95.1452 151.404c0-.679-.5191-1.178-1.2379-1.178-.7387 0-1.2578.499-1.2578 1.178s.5191 1.178 1.2578 1.178c.7188 0 1.2379-.499 1.2379-1.178zm-.2795 12.599v-9.484h-1.9167v9.484z"/><path d="m106.772 162.006v-7.487h-1.897l.02 1.497h-.06c-.559-.878-1.657-1.677-3.314-1.677-2.436 0-4.5723 1.757-4.5723 4.772s2.1363 4.772 4.5723 4.772c1.597 0 2.675-.739 3.314-1.697h.04v.479c0 2.236-.898 3.693-3.314 3.693-1.418 0-2.8953-.758-3.3945-1.197l-.8984 1.337c.2795.2 1.8967 1.418 4.2329 1.418 2.356 0 3.534-.959 4.232-1.817.699-.839 1.039-1.997 1.039-4.093zm-1.837-2.895c0 1.797-1.058 3.214-3.015 3.214-1.9366 0-3.0147-1.417-3.0147-3.214s1.0781-3.234 3.0147-3.234c1.957 0 3.015 1.437 3.015 3.234z"/><path d="m117.768 164.003v-5.651c0-2.256-.659-4.013-3.394-4.013-1.378 0-2.416.739-2.915 1.677h-.04v-5.79h-1.897v13.777h1.897v-4.692c0-1.897.739-3.394 2.476-3.394s1.956 1.357 1.956 2.715v5.371z"/><path d="m124.973 163.903-.12-1.538s-.419.22-.978.22c-.539 0-.799-.18-.979-.479-.219-.399-.239-.939-.239-1.737v-4.293h2.276v-1.537h-2.276v-2.835h-1.917v2.835h-1.398v1.537h1.398v4.333c0 1.857.12 3.813 2.496 3.813.659 0 1.238-.1 1.737-.319z"/><path d="m131.472 150.226s-.539-.219-1.637-.219-1.857.519-2.276 1.038c-.399.499-.639 1.298-.639 2.536v.958h-1.357v1.537h1.357v7.927h1.897v-7.927h2.256v-1.537h-2.256v-1.058c0-1.078.2-2.017 1.458-2.017.539 0 1.078.18 1.078.18z"/><path d="m141.405 159.291c0-2.935-2.197-4.952-5.012-4.952-2.835 0-5.031 2.017-5.031 4.952 0 2.955 2.196 4.931 5.031 4.931 2.815 0 5.012-1.976 5.012-4.931zm-1.937-.06c0 1.877-1.178 3.354-3.075 3.354-1.917 0-3.094-1.477-3.094-3.354 0-1.857 1.177-3.334 3.094-3.334 1.897 0 3.075 1.477 3.075 3.334z"/><path d="m148.698 154.499s-.36-.16-.999-.16c-1.018 0-1.876.559-2.336 1.637h-.059l.02-1.457h-1.917v9.484h1.917v-4.732c0-1.378.419-3.195 2.136-3.195.519 0 .858.12 1.038.2h.08z"/><path d="m163.771 154.519h-1.937l-2.196 7.168-2.496-7.188h-1.537l-2.496 7.188-2.196-7.168h-1.937l3.135 9.484h1.757l2.516-7.088 2.495 7.088h1.757z"/><path d="m172.748 164.003v-5.511c0-2.755-1.378-4.153-4.153-4.153-1.577 0-2.855.559-3.554.959l.579 1.277c.32-.199 1.478-.818 2.855-.818 1.378 0 2.356.719 2.356 2.156v.379l-2.535.1c-2.197.1-3.714 1.038-3.714 2.895 0 1.837 1.517 2.935 3.274 2.935 1.737 0 2.636-1.018 3.015-1.417l.02 1.198zm-1.897-4.553v2.037c-.359.539-1.178 1.378-2.416 1.378-1.257 0-1.956-.739-1.956-1.638 0-.898.619-1.557 2.156-1.637z"/><path d="m180.498 154.499s-.359-.16-.998-.16c-1.018 0-1.877.559-2.336 1.637h-.06l.02-1.457h-1.917v9.484h1.917v-4.732c0-1.378.419-3.195 2.136-3.195.519 0 .859.12 1.039.2h.079z"/><path d="m190.982 164.003v-13.777h-1.897v5.77h-.04c-.659-.978-1.777-1.657-3.314-1.657-2.775 0-4.572 2.117-4.572 4.912 0 2.815 1.797 4.971 4.612 4.971 1.377 0 2.555-.579 3.334-1.737h.04v1.518zm-1.837-4.772c0 1.897-1.118 3.354-3.015 3.354s-3.015-1.457-3.015-3.354 1.118-3.334 3.015-3.334 3.015 1.437 3.015 3.334z"/><path d="m205.055 164.003v-5.511c0-2.755-1.377-4.153-4.152-4.153-1.578 0-2.856.559-3.554.959l.579 1.277c.319-.199 1.477-.818 2.855-.818 1.377 0 2.356.719 2.356 2.156v.379l-2.536.1c-2.196.1-3.714 1.038-3.714 2.895 0 1.837 1.518 2.935 3.275 2.935 1.737 0 2.635-1.018 3.015-1.417l.02 1.198zm-1.896-4.553v2.037c-.36.539-1.178 1.378-2.416 1.378-1.258 0-1.957-.739-1.957-1.638 0-.898.619-1.557 2.156-1.637z"/><path d="m213.904 161.227c0-1.238-.799-1.996-1.857-2.435-.399-.16-.759-.28-1.278-.46-.938-.299-1.857-.639-1.857-1.417 0-.779.599-1.178 1.518-1.178.918 0 1.837.439 2.396 1.018l.798-1.178c-.599-.639-1.557-1.238-3.234-1.238s-3.195.959-3.195 2.716c0 1.796 1.398 2.296 2.796 2.775.638.219 2.136.539 2.136 1.577s-.938 1.358-1.817 1.358c-.878 0-1.997-.519-2.795-1.358l-.919 1.118c.799 1.038 2.097 1.697 3.694 1.697 1.837 0 3.614-.958 3.614-2.995z"/><path d="m224.371 163.903-.119-1.538s-.42.22-.979.22c-.539 0-.798-.18-.978-.479-.22-.399-.24-.939-.24-1.737v-4.293h2.276v-1.537h-2.276v-2.835h-1.916v2.835h-1.398v1.537h1.398v4.333c0 1.857.119 3.813 2.495 3.813.659 0 1.238-.1 1.737-.319z"/><path d="m234.305 164.003v-5.651c0-2.256-.659-4.013-3.394-4.013-1.378 0-2.416.739-2.915 1.677h-.04v-5.79h-1.897v13.777h1.897v-4.692c0-1.897.739-3.394 2.476-3.394s1.956 1.357 1.956 2.715v5.371z"/><path d="m239.174 151.404c0-.679-.519-1.178-1.238-1.178-.739 0-1.258.499-1.258 1.178s.519 1.178 1.258 1.178c.719 0 1.238-.499 1.238-1.178zm-.28 12.599v-9.484h-1.916v9.484z"/><path d="m248.005 161.227c0-1.238-.799-1.996-1.857-2.435-.399-.16-.758-.28-1.278-.46-.938-.299-1.856-.639-1.856-1.417 0-.779.599-1.178 1.517-1.178.919 0 1.837.439 2.396 1.018l.799-1.178c-.599-.639-1.558-1.238-3.235-1.238s-3.194.959-3.194 2.716c0 1.796 1.397 2.296 2.795 2.775.639.219 2.136.539 2.136 1.577s-.938 1.358-1.817 1.358c-.878 0-1.996-.519-2.795-1.358l-.918 1.118c.798 1.038 2.096 1.697 3.693 1.697 1.837 0 3.614-.958 3.614-2.995z"/><path d="m263.264 159.291c0-2.935-2.196-4.952-5.011-4.952-2.835 0-5.031 2.017-5.031 4.952 0 2.955 2.196 4.931 5.031 4.931 2.815 0 5.011-1.976 5.011-4.931zm-1.936-.06c0 1.877-1.178 3.354-3.075 3.354-1.917 0-3.095-1.477-3.095-3.354 0-1.857 1.178-3.334 3.095-3.334 1.897 0 3.075 1.477 3.075 3.334z"/><path d="m273.512 164.003v-5.611c0-2.276-.698-4.053-3.394-4.053-1.377 0-2.396.739-2.895 1.677h-.06l.02-1.497h-1.916v9.484h1.916v-4.772c0-1.817.659-3.314 2.436-3.314 1.697 0 1.977 1.197 1.977 2.795v5.291z"/><path d="m284.733 158.871c0-2.655-1.856-4.532-4.492-4.532-2.635 0-4.812 1.917-4.812 4.912 0 3.015 1.937 4.971 4.752 4.971 2.835 0 4.053-1.397 4.173-1.497l-.799-1.098c-.219.139-1.357 1.098-3.134 1.098-1.757 0-2.955-1.138-3.055-3.015h7.307s.06-.479.06-.839zm-1.816-.439h-5.531c.06-1.138.899-2.715 2.795-2.715 1.917 0 2.716 1.657 2.736 2.715z"/><path d="m289.456 162.964c0-.778-.559-1.257-1.318-1.257-.779 0-1.338.479-1.338 1.257 0 .759.559 1.238 1.338 1.238.759 0 1.318-.479 1.318-1.238z"/><path d="m28.314 222.293 6.988 10.163h2.6155v-13.776h-2.5357v6.788c0 1.637.04 3.254.04 3.254l-6.8482-10.042h-2.7552v13.776h2.5356v-6.768c0-1.638-.04-3.395-.04-3.395z"/><path d="m45.1473 232.676c2.9549 0 5.231-1.957 5.231-5.012s-2.2761-5.051-5.231-5.051c-2.9748 0-5.2509 1.996-5.2509 5.051s2.2761 5.012 5.2509 5.012zm2.5955-5.072c0 1.657-.9583 2.955-2.5955 2.955-1.6771 0-2.5955-1.298-2.5955-2.955s.9184-2.935 2.5955-2.935c1.6372 0 2.5955 1.278 2.5955 2.935z"/><path d="m57.7457 231.338.0399 1.118h2.4558v-5.531c0-1.637-.3594-2.515-1.0582-3.194-.7187-.679-1.697-1.118-3.4141-1.118-1.6771 0-3.0347.579-3.7735 1.018l.7787 1.637c.4193-.319 1.4775-.798 2.7552-.798 1.3377 0 2.1563.579 2.1563 1.817v.259l-2.316.16c-1.9965.14-3.9731.918-3.9731 2.935 0 2.016 1.5174 3.035 3.3941 3.035 1.4375 0 2.5556-.639 2.9549-1.338zm-1.7769-3.135 1.737-.1v1.777c-.3394.48-1.0782 1.059-2.0764 1.059-1.0582 0-1.6771-.56-1.6771-1.378 0-.819.6588-1.278 2.0165-1.358z"/><path d="m68.0005 222.613c-1.3976 0-2.3759.619-2.895 1.637h-.0399v-5.57h-2.5356v13.776h2.5356v-4.812c0-1.617.539-2.935 2.1163-2.935 1.4775 0 1.737 1.138 1.737 2.576v5.171h2.5556v-5.73c0-2.316-.6988-4.113-3.474-4.113z"/></g></svg>