<svg fill="none" height="257" viewBox="0 0 414 257" width="414" xmlns="http://www.w3.org/2000/svg"><path d="m.197266.300537h413.571v256.699h-413.571z" fill="#fff"/><path d="m257.904 215.643 2.788 8.579h9.02l-7.298 5.301 2.788 8.579-7.298-5.302-7.297 5.302 2.787-8.579-7.297-5.301h9.02z" fill="#fcd214"/><path d="m319.65 215.643 2.788 8.579h9.02l-7.298 5.301 2.788 8.579-7.298-5.302-7.297 5.302 2.787-8.579-7.297-5.301h9.02z" fill="#fcd214"/><path d="m288.777 215.643 2.788 8.579h9.02l-7.298 5.301 2.788 8.579-7.298-5.302-7.297 5.302 2.787-8.579-7.297-5.301h9.02z" fill="#fcd214"/><path d="m350.517 215.643 2.788 8.579h9.02l-7.298 5.301 2.788 8.579-7.298-5.302-7.297 5.302 2.787-8.579-7.297-5.301h9.02z" fill="#fcd214"/><path d="m381.391 215.643 2.787 8.579h9.02l-7.297 5.301 2.787 8.579-7.297-5.302-7.298 5.302 2.788-8.579-7.298-5.301h9.02z" fill="#fcd214"/><g fill="#000"><path d="m32.7457 35.9532v-1.6372h-4.8517v-12.139h-1.9366v13.7762z"/><path d="m43.6624 31.2413c0-2.9349-2.1962-4.9514-5.0113-4.9514-2.8351 0-5.0313 2.0165-5.0313 4.9514 0 2.9549 2.1962 4.9315 5.0313 4.9315 2.8151 0 5.0113-1.9766 5.0113-4.9315zm-1.9366-.0598c0 1.8767-1.178 3.3542-3.0747 3.3542-1.9167 0-3.0947-1.4775-3.0947-3.3542 0-1.8568 1.178-3.3343 3.0947-3.3343 1.8967 0 3.0747 1.4775 3.0747 3.3343z"/><path d="m53.8919 26.4696h-1.9765l-2.7952 7.1476-2.8152-7.1476h-1.9965l3.9532 9.4836h1.6771z"/><path d="m63.8446 30.8221c0-2.6554-1.8568-4.5322-4.4922-4.5322-2.6355 0-4.8117 1.9167-4.8117 4.9115 0 3.0148 1.9366 4.9714 4.7518 4.9714 2.8351 0 4.053-1.3976 4.1728-1.4974l-.7987-1.0981c-.2196.1398-1.3576 1.0981-3.1346 1.0981-1.7569 0-2.9549-1.138-3.0547-3.0148h7.3074s.0599-.4791.0599-.8385zm-1.8169-.4393h-5.5304c.0599-1.138.8984-2.7153 2.7952-2.7153 1.9166 0 2.7153 1.6572 2.7352 2.7153z"/><path d="m78.1502 35.9532v-1.6372h-6.2891v-4.7717h5.79v-1.6372h-5.79v-4.1129h6.1294v-1.6172h-8.0661v13.7762z"/><path d="m88.5196 26.4696h-1.9766l-2.7951 7.1476-2.8152-7.1476h-1.9965l3.9532 9.4836h1.6771z"/><path d="m98.4723 30.8221c0-2.6554-1.8568-4.5322-4.4923-4.5322-2.6354 0-4.8116 1.9167-4.8116 4.9115 0 3.0148 1.9366 4.9714 4.7517 4.9714 2.8352 0 4.0531-1.3976 4.1728-1.4974l-.7986-1.0981c-.2196.1398-1.3576 1.0981-3.1346 1.0981-1.7569 0-2.9549-1.138-3.0547-3.0148h7.3074s.0599-.4791.0599-.8385zm-1.8169-.4393h-5.5304c.0599-1.138.8984-2.7153 2.7951-2.7153 1.9167 0 2.7154 1.6572 2.7353 2.7153z"/><path d="m105.666 26.4496s-.36-.1597-.998-.1597c-1.019 0-1.877.559-2.336 1.6372h-.06l.02-1.4575h-1.917v9.4836h1.917v-4.7318c0-1.3776.419-3.1945 2.136-3.1945.519 0 .858.1198 1.038.1997h.08z"/><path d="m115.348 26.4696-1.976-.02-2.795 7.3873-2.875-7.3673-1.997-.02 3.853 9.304-.459 1.2578c-.259.6988-.459 1.1181-1.238 1.1181-.479 0-.998-.2197-.998-.2197l-.379 1.5573s.738.3395 1.797.3395c1.058 0 1.836-.5591 2.495-2.1963z"/><path d="m128.256 29.0651c0-4.2726-3.154-6.8881-7.287-6.8881h-4.153v13.7762h4.153c4.133 0 7.287-2.6155 7.287-6.8881zm-1.976 0c0 3.1745-2.196 5.211-5.311 5.211h-2.216v-10.442h2.216c3.115 0 5.311 2.0565 5.311 5.231z"/><path d="m139.707 31.2413c0-2.9349-2.196-4.9514-5.011-4.9514-2.835 0-5.031 2.0165-5.031 4.9514 0 2.9549 2.196 4.9315 5.031 4.9315 2.815 0 5.011-1.9766 5.011-4.9315zm-1.936-.0598c0 1.8767-1.178 3.3542-3.075 3.3542-1.917 0-3.095-1.4775-3.095-3.3542 0-1.8568 1.178-3.3343 3.095-3.3343 1.897 0 3.075 1.4775 3.075 3.3343z"/><path d="m143.706 35.9532v-13.7762h-1.896v13.7762z"/><path d="m148.444 35.9532v-13.7762h-1.896v13.7762z"/><path d="m158.553 35.9532v-5.5105c0-2.7552-1.378-4.1528-4.153-4.1528-1.577 0-2.855.559-3.554.9583l.579 1.2778c.32-.1996 1.478-.8185 2.855-.8185 1.378 0 2.356.7187 2.356 2.1562v.3794l-2.535.0998c-2.197.0998-3.714 1.0382-3.714 2.895 0 1.8368 1.517 2.9349 3.274 2.9349 1.737 0 2.636-1.0182 3.015-1.4175l.02 1.1979zm-1.897-4.5521v2.0365c-.359.539-1.178 1.3776-2.416 1.3776-1.257 0-1.956-.7387-1.956-1.6372 0-.8984.619-1.5573 2.156-1.6372z"/><path d="m166.303 26.4496s-.359-.1597-.998-.1597c-1.018 0-1.877.559-2.336 1.6372h-.06l.02-1.4575h-1.917v9.4836h1.917v-4.7318c0-1.3776.419-3.1945 2.136-3.1945.52 0 .859.1198 1.039.1997h.079z"/><path d="m170.395 22.177h-1.996l.16 10.1026h1.657zm.32 12.738c0-.7787-.559-1.2578-1.318-1.2578-.779 0-1.338.4791-1.338 1.2578 0 .7587.559 1.2379 1.338 1.2379.759 0 1.318-.4792 1.318-1.2379z"/><path d="m179.819 35.9532v-13.7762h-1.937v13.7762z"/><path d="m187.267 35.8534-.12-1.5374s-.419.2197-.978.2197c-.539 0-.799-.1797-.979-.4792-.219-.3993-.239-.9384-.239-1.737v-4.2926h2.276v-1.5373h-2.276v-2.8351h-1.917v2.8351h-1.398v1.5373h1.398v4.3325c0 1.8568.12 3.8134 2.496 3.8134.659 0 1.238-.0998 1.737-.3194z"/><path d="m201.418 35.9532-4.193-5.9098 3.713-3.5738h-2.236l-3.873 3.7934v-8.086h-1.897v13.7762h1.897v-3.5539l1.098-1.0382 3.254 4.5921z"/><path d="m211.227 30.8221c0-2.6554-1.857-4.5322-4.492-4.5322-2.636 0-4.812 1.9167-4.812 4.9115 0 3.0148 1.936 4.9714 4.752 4.9714 2.835 0 4.053-1.3976 4.172-1.4974l-.798-1.0981c-.22.1398-1.358 1.0981-3.135 1.0981-1.757 0-2.955-1.138-3.055-3.0148h7.308s.06-.4791.06-.8385zm-1.817-.4393h-5.531c.06-1.138.899-2.7153 2.796-2.7153 1.916 0 2.715 1.6572 2.735 2.7153z"/><path d="m221.892 30.8221c0-2.6554-1.857-4.5322-4.492-4.5322-2.636 0-4.812 1.9167-4.812 4.9115 0 3.0148 1.937 4.9714 4.752 4.9714 2.835 0 4.053-1.3976 4.173-1.4974l-.799-1.0981c-.22.1398-1.358 1.0981-3.135 1.0981-1.757 0-2.955-1.138-3.054-3.0148h7.307s.06-.4791.06-.8385zm-1.817-.4393h-5.53c.06-1.138.898-2.7153 2.795-2.7153 1.916 0 2.715 1.6572 2.735 2.7153z"/><path d="m233.697 31.2014c0-2.8151-1.776-4.9115-4.572-4.9115-1.397 0-2.535.559-3.374 1.6771h-.04v-1.4974h-1.837v13.1972h1.917v-5.211l.02.02c.679 1.0581 1.777 1.697 3.274 1.697 2.816 0 4.612-2.1562 4.612-4.9714zm-1.956-.0199c0 1.8967-1.118 3.3542-3.015 3.3542s-3.015-1.4575-3.015-3.3542c0-1.8968 1.118-3.3343 3.015-3.3343s3.015 1.4375 3.015 3.3343z"/><path d="m242.077 33.178c0-1.2379-.799-1.9965-1.857-2.4358-.399-.1597-.758-.2795-1.278-.4592-.938-.2995-1.856-.6389-1.856-1.4175 0-.7787.599-1.178 1.517-1.178s1.837.4392 2.396 1.0182l.799-1.1779c-.599-.6389-1.558-1.2379-3.235-1.2379s-3.194.9583-3.194 2.7153c0 1.7969 1.397 2.296 2.795 2.7752.639.2196 2.136.5391 2.136 1.5773s-.938 1.3576-1.817 1.3576c-.878 0-1.996-.5191-2.795-1.3576l-.918 1.1181c.798 1.0382 2.096 1.697 3.693 1.697 1.837 0 3.614-.9583 3.614-2.9948z"/><path d="m261.669 35.9532v-5.7501c0-2.0564-.679-3.9132-3.215-3.9132-1.337 0-2.375.6788-3.014 1.8768-.44-1.2379-1.418-1.8768-2.816-1.8768-1.257 0-2.296.7986-2.735 1.6771h-.06l.02-1.4974h-1.916v9.4836h1.916v-4.9315c0-1.697.759-3.1545 2.276-3.1545 1.378 0 1.717 1.158 1.717 2.5556v5.5304h1.917v-4.9315c0-1.697.759-3.1545 2.276-3.1545 1.537 0 1.737 1.4575 1.737 2.5556v5.5304z"/><path d="m272.898 30.8221c0-2.6554-1.857-4.5322-4.493-4.5322-2.635 0-4.811 1.9167-4.811 4.9115 0 3.0148 1.936 4.9714 4.751 4.9714 2.836 0 4.053-1.3976 4.173-1.4974l-.798-1.0981c-.22.1398-1.358 1.0981-3.135 1.0981-1.757 0-2.955-1.138-3.055-3.0148h7.308s.06-.4791.06-.8385zm-1.817-.4393h-5.531c.06-1.138.899-2.7153 2.795-2.7153 1.917 0 2.716 1.6572 2.736 2.7153z"/><path d="m288.182 31.2413c0-2.9349-2.197-4.9514-5.012-4.9514-2.835 0-5.031 2.0165-5.031 4.9514 0 2.9549 2.196 4.9315 5.031 4.9315 2.815 0 5.012-1.9766 5.012-4.9315zm-1.937-.0598c0 1.8767-1.178 3.3542-3.075 3.3542-1.917 0-3.094-1.4775-3.094-3.3542 0-1.8568 1.177-3.3343 3.094-3.3343 1.897 0 3.075 1.4775 3.075 3.3343z"/><path d="m298.43 35.9532v-5.6103c0-2.2761-.699-4.053-3.395-4.053-1.377 0-2.395.7387-2.895 1.6771h-.059l.02-1.4974h-1.917v9.4836h1.917v-4.7717c0-1.8169.658-3.3143 2.435-3.3143 1.697 0 1.977 1.1979 1.977 2.7951v5.2909z"/><path d="m309.575 35.8534-.12-1.5374s-.419.2197-.978.2197c-.539 0-.799-.1797-.978-.4792-.22-.3993-.24-.9384-.24-1.737v-4.2926h2.276v-1.5373h-2.276v-2.8351h-1.917v2.8351h-1.397v1.5373h1.397v4.3325c0 1.8568.12 3.8134 2.496 3.8134.659 0 1.238-.0998 1.737-.3194z"/><path d="m316.454 26.4496s-.359-.1597-.998-.1597c-1.018 0-1.877.559-2.336 1.6372h-.06l.02-1.4575h-1.917v9.4836h1.917v-4.7318c0-1.3776.419-3.1945 2.136-3.1945.519 0 .859.1198 1.038.1997h.08z"/><path d="m324.828 35.9532v-5.5105c0-2.7552-1.377-4.1528-4.153-4.1528-1.577 0-2.855.559-3.553.9583l.579 1.2778c.319-.1996 1.477-.8185 2.855-.8185 1.377 0 2.356.7187 2.356 2.1562v.3794l-2.536.0998c-2.196.0998-3.714 1.0382-3.714 2.895 0 1.8368 1.518 2.9349 3.275 2.9349 1.737 0 2.635-1.0182 3.014-1.4175l.02 1.1979zm-1.897-4.5521v2.0365c-.359.539-1.177 1.3776-2.415 1.3776-1.258 0-1.957-.7387-1.957-1.6372 0-.8984.619-1.5573 2.156-1.6372z"/><path d="m335.234 34.7353-.679-1.3976s-1.038 1.198-2.895 1.198c-1.837 0-3.075-1.3777-3.075-3.3742 0-1.9966 1.398-3.2744 3.075-3.2744s2.516.8386 2.835 1.158l.679-1.3975c-.1-.1198-1.138-1.3577-3.674-1.3577-2.515 0-4.851 1.8768-4.851 4.9315 0 3.0347 2.236 4.9514 4.792 4.9514 2.535 0 3.513-1.158 3.793-1.4375z"/><path d="m345.349 35.9532-4.193-5.9098 3.714-3.5738h-2.237l-3.873 3.7934v-8.086h-1.897v13.7762h1.897v-3.5539l1.098-1.0382 3.255 4.5921z"/><path d="m33.125 61.6232v-5.5105c0-2.7553-1.3776-4.1529-4.1528-4.1529-1.5773 0-2.8551.5591-3.5539.9584l.579 1.2778c.3195-.1997 1.4775-.8186 2.8551-.8186s2.3559.7188 2.3559 2.1563v.3793l-2.5356.0999c-2.1962.0998-3.7136 1.0382-3.7136 2.8949 0 1.8369 1.5174 2.935 3.2743 2.935 1.737 0 2.6355-1.0183 3.0148-1.4176l.02 1.198zm-1.8967-4.5522v2.0365c-.3594.5391-1.178 1.3776-2.4159 1.3776-1.2578 0-1.9566-.7387-1.9566-1.6371 0-.8985.619-1.5574 2.1563-1.6372z"/><path d="m43.8303 61.6232v-5.6103c0-2.2761-.6988-4.0531-3.3942-4.0531-1.3776 0-2.3958.7388-2.895 1.6772h-.0599l.02-1.4975h-1.9167v9.4837h1.9167v-4.7718c0-1.8169.6588-3.3143 2.4358-3.3143 1.697 0 1.9766 1.198 1.9766 2.7952v5.2909z"/><path d="m55.5703 61.6232v-13.7762h-1.8967v5.77h-.04c-.6588-.9783-1.7769-1.6572-3.3142-1.6572-2.7752 0-4.5721 2.1164-4.5721 4.9116 0 2.8151 1.7969 4.9714 4.612 4.9714 1.3776 0 2.5556-.579 3.3342-1.737h.04v1.5174zm-1.8368-4.7718c0 1.8967-1.1181 3.3542-3.0148 3.3542-1.8968 0-3.0148-1.4575-3.0148-3.3542s1.118-3.3342 3.0148-3.3342c1.8967 0 3.0148 1.4375 3.0148 3.3342z"/><path d="m76.013 61.6232v-5.7501c0-2.0565-.6789-3.9133-3.2145-3.9133-1.3377 0-2.3759.6789-3.0148 1.8768-.4392-1.2379-1.4175-1.8768-2.8151-1.8768-1.2579 0-2.2961.7987-2.7353 1.6772h-.0599l.02-1.4975h-1.9167v9.4837h1.9167v-4.9315c0-1.6971.7587-3.1546 2.276-3.1546 1.3777 0 1.7171 1.158 1.7171 2.5556v5.5305h1.9167v-4.9315c0-1.6971.7586-3.1546 2.276-3.1546 1.5374 0 1.737 1.4575 1.737 2.5556v5.5305z"/><path d="m80.8527 49.0249c0-.6788-.5191-1.1779-1.2378-1.1779-.7388 0-1.2579.4991-1.2579 1.1779s.5191 1.178 1.2579 1.178c.7187 0 1.2378-.4992 1.2378-1.178zm-.2795 12.5983v-9.4837h-1.9167v9.4837z"/><path d="m91.5408 61.6232v-5.6103c0-2.2761-.6988-4.0531-3.3941-4.0531-1.3776 0-2.3959.7388-2.895 1.6772h-.0599l.02-1.4975h-1.9167v9.4837h1.9167v-4.7718c0-1.8169.6588-3.3143 2.4357-3.3143 1.6971 0 1.9766 1.198 1.9766 2.7952v5.2909z"/><path d="m103.281 61.6232v-13.7762h-1.897v5.77h-.04c-.659-.9783-1.7767-1.6572-3.3141-1.6572-2.7752 0-4.5721 2.1164-4.5721 4.9116 0 2.8151 1.7969 4.9714 4.6121 4.9714 1.3776 0 2.5551-.579 3.3341-1.737h.04v1.5174zm-1.837-4.7718c0 1.8967-1.118 3.3542-3.0148 3.3542-1.8967 0-3.0148-1.4575-3.0148-3.3542s1.1181-3.3342 3.0148-3.3342c1.8968 0 3.0148 1.4375 3.0148 3.3342z"/><path d="m110.921 47.847s-.539-.2197-1.637-.2197-1.857.5191-2.276 1.0382c-.399.4992-.639 1.2978-.639 2.5357v.9583h-1.358v1.5374h1.358v7.9263h1.897v-7.9263h2.256v-1.5374h-2.256v-1.0582c0-1.0781.199-2.0165 1.457-2.0165.539 0 1.078.1797 1.078.1797z"/><path d="m119.555 61.6232v-9.5036h-1.917v5.0912c0 1.5972-.679 3.0347-2.356 3.0347-1.697 0-1.977-1.2179-1.977-2.5156v-5.6103h-1.896v5.6901c0 2.356.698 4.0331 3.334 4.0331 1.338 0 2.416-.6589 2.935-1.5773l.02 1.3577z"/><path d="m124.189 61.6232v-13.7762h-1.896v13.7762z"/><path d="m138.275 61.6232v-5.5105c0-2.7553-1.377-4.1529-4.152-4.1529-1.578 0-2.855.5591-3.554.9584l.579 1.2778c.319-.1997 1.477-.8186 2.855-.8186 1.377 0 2.356.7188 2.356 2.1563v.3793l-2.536.0999c-2.196.0998-3.713 1.0382-3.713 2.8949 0 1.8369 1.517 2.935 3.274 2.935 1.737 0 2.635-1.0183 3.015-1.4176l.02 1.198zm-1.896-4.5522v2.0365c-.36.5391-1.178 1.3776-2.416 1.3776-1.258 0-1.957-.7387-1.957-1.6371 0-.8985.619-1.5574 2.157-1.6372z"/><path d="m150.658 56.8714c0-2.7952-1.797-4.9116-4.572-4.9116-1.498 0-2.636.619-3.315 1.6572h-.04v-5.77h-1.896v13.7762h1.837v-1.4975h.04c.778 1.158 1.956 1.7171 3.334 1.7171 2.815 0 4.612-2.1563 4.612-4.9714zm-1.957-.02c0 1.8967-1.118 3.3542-3.015 3.3542-1.896 0-3.034-1.4575-3.034-3.3542s1.138-3.3342 3.034-3.3342c1.897 0 3.015 1.4375 3.015 3.3342z"/><path d="m162.052 56.9113c0-2.9349-2.197-4.9515-5.012-4.9515-2.835 0-5.031 2.0166-5.031 4.9515 0 2.9549 2.196 4.9315 5.031 4.9315 2.815 0 5.012-1.9766 5.012-4.9315zm-1.937-.0599c0 1.8768-1.178 3.3542-3.075 3.3542-1.916 0-3.094-1.4774-3.094-3.3542 0-1.8568 1.178-3.3342 3.094-3.3342 1.897 0 3.075 1.4774 3.075 3.3342z"/><path d="m172.12 61.6232v-9.5036h-1.917v5.0912c0 1.5972-.678 3.0347-2.356 3.0347-1.697 0-1.976-1.2179-1.976-2.5156v-5.6103h-1.897v5.6901c0 2.356.699 4.0331 3.334 4.0331 1.338 0 2.416-.6589 2.935-1.5773l.02 1.3577z"/><path d="m179.37 61.5233-.12-1.5373s-.419.2196-.978.2196c-.539 0-.798-.1797-.978-.4792-.22-.3993-.24-.9383-.24-1.737v-4.2925h2.276v-1.5374h-2.276v-2.8351h-1.916v2.8351h-1.398v1.5374h1.398v4.3325c0 1.8568.119 3.8134 2.495 3.8134.659 0 1.238-.0998 1.737-.3195z"/><path d="m198.612 52.1395h-1.936l-2.197 7.1677-2.495-7.1876h-1.538l-2.495 7.1876-2.196-7.1677h-1.937l3.134 9.4837h1.757l2.516-7.0878 2.496 7.0878h1.757z"/><path d="m208.47 61.6232v-5.6503c0-2.2561-.659-4.0131-3.394-4.0131-1.378 0-2.416.7388-2.915 1.6772h-.04v-5.79h-1.897v13.7762h1.897v-4.6919c0-1.8968.739-3.3942 2.476-3.3942s1.956 1.3577 1.956 2.7153v5.3708z"/><path d="m219.728 56.492c0-2.6554-1.857-4.5322-4.493-4.5322-2.635 0-4.811 1.9167-4.811 4.9116 0 3.0148 1.936 4.9714 4.752 4.9714 2.835 0 4.053-1.3976 4.172-1.4974l-.798-1.0981c-.22.1397-1.358 1.0981-3.135 1.0981-1.757 0-2.955-1.1381-3.055-3.0148h7.308s.06-.4792.06-.8386zm-1.817-.4392h-5.531c.06-1.1381.899-2.7153 2.796-2.7153 1.916 0 2.715 1.6571 2.735 2.7153z"/><path d="m226.921 52.1196s-.359-.1598-.998-.1598c-1.018 0-1.877.5591-2.336 1.6372h-.06l.02-1.4575h-1.917v9.4837h1.917v-4.7319c0-1.3776.419-3.1944 2.136-3.1944.519 0 .859.1197 1.039.1996h.079z"/><path d="m236.886 56.492c0-2.6554-1.857-4.5322-4.493-4.5322-2.635 0-4.811 1.9167-4.811 4.9116 0 3.0148 1.936 4.9714 4.751 4.9714 2.836 0 4.053-1.3976 4.173-1.4974l-.798-1.0981c-.22.1397-1.358 1.0981-3.135 1.0981-1.757 0-2.955-1.1381-3.055-3.0148h7.308s.06-.4792.06-.8386zm-1.817-.4392h-5.531c.06-1.1381.899-2.7153 2.795-2.7153 1.917 0 2.716 1.6571 2.736 2.7153z"/><path d="m250.133 61.6232v-5.5105c0-2.7553-1.378-4.1529-4.153-4.1529-1.577 0-2.855.5591-3.554.9584l.579 1.2778c.32-.1997 1.478-.8186 2.855-.8186 1.378 0 2.356.7188 2.356 2.1563v.3793l-2.535.0999c-2.197.0998-3.714 1.0382-3.714 2.8949 0 1.8369 1.517 2.935 3.274 2.935 1.737 0 2.636-1.0183 3.015-1.4176l.02 1.198zm-1.897-4.5522v2.0365c-.359.5391-1.178 1.3776-2.416 1.3776-1.257 0-1.956-.7387-1.956-1.6371 0-.8985.619-1.5574 2.156-1.6372z"/><path d="m260.838 61.6232v-5.6103c0-2.2761-.699-4.0531-3.394-4.0531-1.377 0-2.396.7388-2.895 1.6772h-.06l.02-1.4975h-1.917v9.4837h1.917v-4.7718c0-1.8169.659-3.3143 2.436-3.3143 1.697 0 1.977 1.198 1.977 2.7952v5.2909z"/><path d="m272.578 61.6232v-13.7762h-1.896v5.77h-.04c-.659-.9783-1.777-1.6572-3.315-1.6572-2.775 0-4.572 2.1164-4.572 4.9116 0 2.8151 1.797 4.9714 4.612 4.9714 1.378 0 2.556-.579 3.335-1.737h.039v1.5174zm-1.837-4.7718c0 1.8967-1.118 3.3542-3.014 3.3542-1.897 0-3.015-1.4575-3.015-3.3542s1.118-3.3342 3.015-3.3342c1.896 0 3.014 1.4375 3.014 3.3342z"/><path d="m287.63 61.6232v-5.6503c0-2.2561-.659-4.0131-3.394-4.0131-1.377 0-2.416.7388-2.915 1.6772h-.04v-5.79h-1.896v13.7762h1.896v-4.6919c0-1.8968.739-3.3942 2.476-3.3942s1.957 1.3577 1.957 2.7153v5.3708z"/><path d="m299.627 56.9113c0-2.9349-2.197-4.9515-5.012-4.9515-2.835 0-5.031 2.0166-5.031 4.9515 0 2.9549 2.196 4.9315 5.031 4.9315 2.815 0 5.012-1.9766 5.012-4.9315zm-1.937-.0599c0 1.8768-1.178 3.3542-3.075 3.3542-1.916 0-3.094-1.4774-3.094-3.3542 0-1.8568 1.178-3.3342 3.094-3.3342 1.897 0 3.075 1.4774 3.075 3.3342z"/><path d="m315.013 52.1395h-1.937l-2.196 7.1677-2.496-7.1876h-1.537l-2.496 7.1876-2.196-7.1677h-1.937l3.135 9.4837h1.757l2.516-7.0878 2.495 7.0878h1.757z"/><path d="m39.494 87.2931v-5.7501c0-2.0564-.6788-3.9132-3.2145-3.9132-1.3376 0-2.3758.6788-3.0147 1.8768-.4393-1.2379-1.4176-1.8768-2.8152-1.8768-1.2578 0-2.296.7986-2.7353 1.6771h-.0599l.02-1.4974h-1.9167v9.4836h1.9167v-4.9315c0-1.697.7587-3.1545 2.2761-3.1545 1.3776 0 1.717 1.158 1.717 2.5556v5.5304h1.9167v-4.9315c0-1.697.7587-3.1545 2.2761-3.1545 1.5373 0 1.737 1.4575 1.737 2.5556v5.5304z"/><path d="m50.1238 87.2931v-9.5036h-1.9167v5.0912c0 1.5973-.6789 3.0348-2.356 3.0348-1.697 0-1.9765-1.2179-1.9765-2.5157v-5.6103h-1.8968v5.6902c0 2.3559.6988 4.033 3.3343 4.033 1.3377 0 2.4158-.6588 2.9349-1.5772l.02 1.3576z"/><path d="m60.7081 86.0752-.6788-1.3976s-1.0382 1.198-2.895 1.198c-1.8368 0-3.0747-1.3777-3.0747-3.3742 0-1.9966 1.3976-3.2744 3.0747-3.2744s2.5157.8386 2.8351 1.158l.6788-1.3975c-.0998-.1198-1.138-1.3577-3.6736-1.3577-2.5157 0-4.8516 1.8768-4.8516 4.9315 0 3.0347 2.2361 4.9514 4.7917 4.9514 2.5356 0 3.5139-1.158 3.7934-1.4375z"/><path d="m70.5833 87.2931v-5.6502c0-2.2561-.6589-4.0131-3.3942-4.0131-1.3776 0-2.4158.7387-2.9149 1.6771h-.04v-5.79h-1.8967v13.7762h1.8967v-4.6919c0-1.8967.7388-3.3941 2.4758-3.3941s1.9566 1.3576 1.9566 2.7153v5.3707z"/><path d="m86.5571 82.5812c0-2.9349-2.1962-4.9514-5.0114-4.9514-2.8351 0-5.0313 2.0165-5.0313 4.9514 0 2.9549 2.1962 4.9315 5.0313 4.9315 2.8152 0 5.0114-1.9766 5.0114-4.9315zm-1.9367-.0599c0 1.8768-1.1779 3.3543-3.0747 3.3543-1.9166 0-3.0946-1.4775-3.0946-3.3543 0-1.8567 1.178-3.3342 3.0946-3.3342 1.8968 0 3.0747 1.4775 3.0747 3.3342z"/><path d="m93.4709 73.5169s-.539-.2196-1.6371-.2196-1.8568.5191-2.2761 1.0382c-.3993.4991-.6389 1.2977-.6389 2.5356v.9584h-1.3577v1.5373h1.3577v7.9263h1.8967v-7.9263h2.2561v-1.5373h-2.2561v-1.0582c0-1.0782.1997-2.0165 1.4575-2.0165.5391 0 1.0781.1797 1.0781.1797z"/><path d="m111.752 87.2931v-5.7501c0-2.0564-.679-3.9132-3.214-3.9132-1.338 0-2.376.6788-3.015 1.8768-.439-1.2379-1.418-1.8768-2.815-1.8768-1.258 0-2.296.7986-2.7356 1.6771h-.0599l.0199-1.4974h-1.9167v9.4836h1.9167v-4.9315c0-1.697.7586-3.1545 2.2756-3.1545 1.378 0 1.718 1.158 1.718 2.5556v5.5304h1.916v-4.9315c0-1.697.759-3.1545 2.276-3.1545 1.538 0 1.737 1.4575 1.737 2.5556v5.5304z"/><path d="m122.367 77.8095-1.976-.02-2.795 7.3873-2.875-7.3673-1.997-.02 3.853 9.304-.459 1.2578c-.259.6988-.459 1.1181-1.238 1.1181-.479 0-.998-.2197-.998-.2197l-.379 1.5573s.738.3395 1.797.3395c1.058 0 1.836-.5591 2.495-2.1963z"/><path d="m141.349 87.2931v-5.7501c0-2.0564-.678-3.9132-3.214-3.9132-1.338 0-2.376.6788-3.015 1.8768-.439-1.2379-1.417-1.8768-2.815-1.8768-1.258 0-2.296.7986-2.735 1.6771h-.06l.02-1.4974h-1.917v9.4836h1.917v-4.9315c0-1.697.758-3.1545 2.276-3.1545 1.377 0 1.717 1.158 1.717 2.5556v5.5304h1.917v-4.9315c0-1.697.758-3.1545 2.276-3.1545 1.537 0 1.737 1.4575 1.737 2.5556v5.5304z"/><path d="m153.317 82.5812c0-2.9349-2.196-4.9514-5.012-4.9514-2.835 0-5.031 2.0165-5.031 4.9514 0 2.9549 2.196 4.9315 5.031 4.9315 2.816 0 5.012-1.9766 5.012-4.9315zm-1.937-.0599c0 1.8768-1.178 3.3543-3.075 3.3543-1.916 0-3.094-1.4775-3.094-3.3543 0-1.8567 1.178-3.3342 3.094-3.3342 1.897 0 3.075 1.4775 3.075 3.3342z"/><path d="m163.565 87.2931v-5.6103c0-2.2761-.699-4.053-3.394-4.053-1.378 0-2.396.7387-2.895 1.6771h-.06l.02-1.4974h-1.917v9.4836h1.917v-4.7718c0-1.8168.659-3.3142 2.436-3.3142 1.697 0 1.976 1.1979 1.976 2.7951v5.2909z"/><path d="m174.786 82.162c0-2.6554-1.857-4.5322-4.492-4.5322-2.636 0-4.812 1.9167-4.812 4.9115 0 3.0148 1.937 4.9714 4.752 4.9714 2.835 0 4.053-1.3976 4.172-1.4974l-.798-1.0981c-.22.1398-1.358 1.0981-3.135 1.0981-1.757 0-2.955-1.138-3.054-3.0148h7.307s.06-.4791.06-.8385zm-1.817-.4393h-5.531c.06-1.138.899-2.7153 2.796-2.7153 1.916 0 2.715 1.6572 2.735 2.7153z"/><path d="m184.974 77.8095-1.976-.02-2.796 7.3873-2.875-7.3673-1.996-.02 3.853 9.304-.459 1.2578c-.26.6988-.459 1.1181-1.238 1.1181-.479 0-.998-.2197-.998-.2197l-.38 1.5573s.739.3395 1.797.3395c1.059 0 1.837-.5591 2.496-2.1963z"/><path d="m192.496 74.6949c0-.6789-.519-1.178-1.238-1.178-.739 0-1.258.4991-1.258 1.178 0 .6788.519 1.1779 1.258 1.1779.719 0 1.238-.4991 1.238-1.1779zm-.28 12.5982v-9.4836h-1.916v9.4836z"/><path d="m201.327 84.5179c0-1.2379-.798-1.9965-1.857-2.4358-.399-.1597-.758-.2795-1.277-.4592-.939-.2995-1.857-.6389-1.857-1.4176 0-.7786.599-1.1779 1.517-1.1779.919 0 1.837.4392 2.396 1.0182l.799-1.1779c-.599-.6389-1.558-1.2379-3.235-1.2379s-3.194.9583-3.194 2.7153c0 1.7969 1.397 2.296 2.795 2.7752.639.2196 2.136.5391 2.136 1.5773s-.938 1.3576-1.817 1.3576c-.878 0-1.996-.5191-2.795-1.3576l-.918 1.1181c.798 1.0382 2.096 1.697 3.693 1.697 1.837 0 3.614-.9583 3.614-2.9948z"/><path d="m216.367 85.2966v-7.4871h-1.897l.02 1.4974h-.06c-.559-.8785-1.657-1.6771-3.314-1.6771-2.436 0-4.572 1.757-4.572 4.7718s2.136 4.7717 4.572 4.7717c1.597 0 2.675-.7387 3.314-1.6971h.04v.4792c0 2.2362-.898 3.6936-3.314 3.6936-1.418 0-2.895-.7586-3.394-1.1979l-.899 1.3377c.28.1997 1.897 1.4176 4.233 1.4176 2.356 0 3.534-.9584 4.233-1.8169.698-.8386 1.038-1.9966 1.038-4.0929zm-1.837-2.895c0 1.7969-1.058 3.2144-3.015 3.2144-1.936 0-3.015-1.4175-3.015-3.2144s1.079-3.2345 3.015-3.2345c1.957 0 3.015 1.4376 3.015 3.2345z"/><path d="m228.421 82.5812c0-2.9349-2.196-4.9514-5.011-4.9514-2.835 0-5.031 2.0165-5.031 4.9514 0 2.9549 2.196 4.9315 5.031 4.9315 2.815 0 5.011-1.9766 5.011-4.9315zm-1.936-.0599c0 1.8768-1.178 3.3543-3.075 3.3543-1.917 0-3.095-1.4775-3.095-3.3543 0-1.8567 1.178-3.3342 3.095-3.3342 1.897 0 3.075 1.4775 3.075 3.3342z"/><path d="m232.7 74.6949c0-.6789-.519-1.178-1.238-1.178-.739 0-1.258.4991-1.258 1.178 0 .6788.519 1.1779 1.258 1.1779.719 0 1.238-.4991 1.238-1.1779zm-.28 12.5982v-9.4836h-1.916v9.4836z"/><path d="m243.388 87.2931v-5.6103c0-2.2761-.699-4.053-3.394-4.053-1.378 0-2.396.7387-2.895 1.6771h-.06l.02-1.4974h-1.917v9.4836h1.917v-4.7718c0-1.8168.659-3.3142 2.436-3.3142 1.697 0 1.976 1.1979 1.976 2.7951v5.2909z"/><path d="m255.128 85.2966v-7.4871h-1.897l.02 1.4974h-.06c-.559-.8785-1.657-1.6771-3.314-1.6771-2.436 0-4.572 1.757-4.572 4.7718s2.136 4.7717 4.572 4.7717c1.597 0 2.675-.7387 3.314-1.6971h.04v.4792c0 2.2362-.898 3.6936-3.314 3.6936-1.418 0-2.895-.7586-3.394-1.1979l-.899 1.3377c.28.1997 1.897 1.4176 4.233 1.4176 2.356 0 3.534-.9584 4.233-1.8169.699-.8386 1.038-1.9966 1.038-4.0929zm-1.837-2.895c0 1.7969-1.058 3.2144-3.015 3.2144-1.936 0-3.014-1.4175-3.014-3.2144s1.078-3.2345 3.014-3.2345c1.957 0 3.015 1.4376 3.015 3.2345z"/><path d="m271.16 82.5812c0-2.9349-2.196-4.9514-5.011-4.9514-2.835 0-5.032 2.0165-5.032 4.9514 0 2.9549 2.197 4.9315 5.032 4.9315 2.815 0 5.011-1.9766 5.011-4.9315zm-1.937-.0599c0 1.8768-1.178 3.3543-3.074 3.3543-1.917 0-3.095-1.4775-3.095-3.3543 0-1.8567 1.178-3.3342 3.095-3.3342 1.896 0 3.074 1.4775 3.074 3.3342z"/><path d="m281.229 87.2931v-9.5036h-1.917v5.0912c0 1.5973-.679 3.0348-2.356 3.0348-1.697 0-1.977-1.2179-1.977-2.5157v-5.6103h-1.896v5.6902c0 2.3559.698 4.033 3.334 4.033 1.338 0 2.416-.6588 2.935-1.5772l.02 1.3576z"/><path d="m288.479 87.1933-.12-1.5374s-.419.2197-.978.2197c-.54 0-.799-.1797-.979-.4792-.219-.3993-.239-.9384-.239-1.737v-4.2926h2.276v-1.5373h-2.276v-2.8351h-1.917v2.8351h-1.398v1.5373h1.398v4.3325c0 1.8568.12 3.8134 2.496 3.8134.659 0 1.238-.0998 1.737-.3194z"/><path d="m293.082 86.2549c0-.7787-.559-1.2578-1.318-1.2578-.779 0-1.338.4791-1.338 1.2578 0 .7587.559 1.2379 1.338 1.2379.759 0 1.318-.4792 1.318-1.2379z"/><path d="m302.186 87.2931v-13.7762h-1.937v13.7762z"/><path d="m309.634 87.1933-.12-1.5374s-.42.2197-.979.2197c-.539 0-.798-.1797-.978-.4792-.22-.3993-.239-.9384-.239-1.737v-4.2926h2.276v-1.5373h-2.276v-2.8351h-1.917v2.8351h-1.398v1.5373h1.398v4.3325c0 1.8568.12 3.8134 2.496 3.8134.658 0 1.237-.0998 1.737-.3194z"/><path d="m317.475 74.6949c0-.6789-.519-1.178-1.238-1.178-.738 0-1.257.4991-1.257 1.178 0 .6788.519 1.1779 1.257 1.1779.719 0 1.238-.4991 1.238-1.1779zm-.279 12.5982v-9.4836h-1.917v9.4836z"/><path d="m326.307 84.5179c0-1.2379-.799-1.9965-1.857-2.4358-.4-.1597-.759-.2795-1.278-.4592-.938-.2995-1.857-.6389-1.857-1.4176 0-.7786.599-1.1779 1.518-1.1779.918 0 1.836.4392 2.395 1.0182l.799-1.1779c-.599-.6389-1.557-1.2379-3.234-1.2379s-3.195.9583-3.195 2.7153c0 1.7969 1.398 2.296 2.795 2.7752.639.2196 2.137.5391 2.137 1.5773s-.939 1.3576-1.817 1.3576c-.879 0-1.997-.5191-2.795-1.3576l-.919 1.1181c.799 1.0382 2.097 1.697 3.694 1.697 1.837 0 3.614-.9583 3.614-2.9948z"/><path d="m34.0434 103.479h-1.9766l-2.7951 7.148-2.8152-7.148h-1.9965l3.9531 9.484h1.6771z"/><path d="m43.9961 107.832c0-2.655-1.8568-4.532-4.4923-4.532-2.6354 0-4.8117 1.916-4.8117 4.911 0 3.015 1.9367 4.972 4.7518 4.972 2.8351 0 4.053-1.398 4.1728-1.498l-.7986-1.098c-.2196.14-1.3577 1.098-3.1346 1.098-1.757 0-2.9549-1.138-3.0547-3.015h7.3074s.0599-.479.0599-.838zm-1.8169-.439h-5.5304c.0598-1.138.8984-2.716 2.7951-2.716 1.9167 0 2.7153 1.658 2.7353 2.716z"/><path d="m51.1896 103.459s-.3594-.159-.9983-.159c-1.0182 0-1.8768.559-2.336 1.637h-.0599l.02-1.458h-1.9167v9.484h1.9167v-4.732c0-1.377.4193-3.194 2.1363-3.194.5191 0 .8585.12 1.0382.199h.0799z"/><path d="m60.8721 103.479-1.9766-.02-2.7952 7.388-2.875-7.368-1.9966-.02 3.8534 9.304-.4592 1.258c-.2596.699-.4592 1.118-1.2379 1.118-.4792 0-.9983-.219-.9983-.219l-.3793 1.557s.7387.339 1.7969.339 1.8368-.559 2.4957-2.196z"/><path d="m74.7827 107.832c0-2.655-1.8568-4.532-4.4922-4.532-2.6355 0-4.8117 1.916-4.8117 4.911 0 3.015 1.9367 4.972 4.7518 4.972 2.8351 0 4.053-1.398 4.1728-1.498l-.7986-1.098c-.2197.14-1.3577 1.098-3.1346 1.098-1.757 0-2.9549-1.138-3.0547-3.015h7.3073s.0599-.479.0599-.838zm-1.8168-.439h-5.5305c.0599-1.138.8985-2.716 2.7952-2.716 1.9167 0 2.7153 1.658 2.7353 2.716z"/><path d="m84.2476 112.963v-5.51c0-2.756-1.3776-4.153-4.1528-4.153-1.5773 0-2.8551.559-3.5539.958l.579 1.278c.3195-.2 1.4775-.819 2.8551-.819s2.3559.719 2.3559 2.157v.379l-2.5356.1c-2.1962.1-3.7136 1.038-3.7136 2.895 0 1.837 1.5174 2.935 3.2744 2.935 1.737 0 2.6354-1.019 3.0148-1.418l.0199 1.198zm-1.8967-4.552v2.036c-.3594.539-1.1779 1.378-2.4158 1.378-1.2578 0-1.9566-.739-1.9566-1.637 0-.899.6189-1.557 2.1562-1.637z"/><path d="m93.0961 110.188c0-1.238-.7986-1.997-1.8568-2.436-.3993-.16-.7587-.279-1.2778-.459-.9384-.3-1.8568-.639-1.8568-1.418 0-.778.599-1.178 1.5174-1.178s1.8368.44 2.3959 1.019l.7986-1.178c-.599-.639-1.5573-1.238-3.2344-1.238s-3.1945.958-3.1945 2.715c0 1.797 1.3976 2.296 2.7952 2.775.6389.22 2.1363.539 2.1363 1.578 0 1.038-.9384 1.357-1.8169 1.357s-1.9965-.519-2.7952-1.357l-.9184 1.118c.7986 1.038 2.0964 1.697 3.6936 1.697 1.8369 0 3.6138-.959 3.6138-2.995z"/><path d="m103.065 103.479-1.977-.02-2.7949 7.388-2.8751-7.368-1.9965-.02 3.8533 9.304-.4592 1.258c-.2595.699-.4592 1.118-1.2378 1.118-.4792 0-.9983-.219-.9983-.219l-.3794 1.557s.7388.339 1.7969.339c1.0582 0 1.8369-.559 2.4957-2.196z"/><path d="m112.922 112.863-.119-1.537s-.42.22-.979.22c-.539 0-.798-.18-.978-.48-.22-.399-.24-.938-.24-1.737v-4.292h2.277v-1.538h-2.277v-2.835h-1.916v2.835h-1.398v1.538h1.398v4.332c0 1.857.12 3.814 2.495 3.814.659 0 1.238-.1 1.737-.32z"/><path d="m123.914 108.251c0-2.935-2.196-4.951-5.011-4.951-2.835 0-5.031 2.016-5.031 4.951 0 2.955 2.196 4.932 5.031 4.932 2.815 0 5.011-1.977 5.011-4.932zm-1.936-.06c0 1.877-1.178 3.355-3.075 3.355-1.917 0-3.095-1.478-3.095-3.355 0-1.856 1.178-3.334 3.095-3.334 1.897 0 3.075 1.478 3.075 3.334z"/><path d="m137.96 112.963v-9.504h-1.916v5.092c0 1.597-.679 3.034-2.356 3.034-1.697 0-1.977-1.217-1.977-2.515v-5.611h-1.897v5.691c0 2.356.699 4.033 3.335 4.033 1.337 0 2.415-.659 2.935-1.578l.02 1.358z"/><path d="m146.987 110.188c0-1.238-.798-1.997-1.856-2.436-.4-.16-.759-.279-1.278-.459-.939-.3-1.857-.639-1.857-1.418 0-.778.599-1.178 1.517-1.178.919 0 1.837.44 2.396 1.019l.799-1.178c-.599-.639-1.557-1.238-3.235-1.238-1.677 0-3.194.958-3.194 2.715 0 1.797 1.398 2.296 2.795 2.775.639.22 2.136.539 2.136 1.578 0 1.038-.938 1.357-1.816 1.357-.879 0-1.997-.519-2.796-1.357l-.918 1.118c.799 1.038 2.096 1.697 3.694 1.697 1.836 0 3.613-.959 3.613-2.995z"/><path d="m157.53 107.832c0-2.655-1.856-4.532-4.492-4.532-2.635 0-4.811 1.916-4.811 4.911 0 3.015 1.936 4.972 4.751 4.972 2.835 0 4.053-1.398 4.173-1.498l-.799-1.098c-.219.14-1.357 1.098-3.134 1.098-1.757 0-2.955-1.138-3.055-3.015h7.308s.059-.479.059-.838zm-1.816-.439h-5.531c.06-1.138.899-2.716 2.795-2.716 1.917 0 2.716 1.658 2.736 2.716z"/><path d="m162.128 99.1869h-1.996l.16 10.1021h1.657zm.32 12.7381c0-.779-.559-1.258-1.318-1.258-.778 0-1.338.479-1.338 1.258 0 .759.56 1.238 1.338 1.238.759 0 1.318-.479 1.318-1.238z"/><path d="m25.8184 218.98v13.776h7.3872v-2.156h-4.8117v-11.62z"/><path d="m36.0427 221.555c.8985 0 1.5374-.579 1.5374-1.417 0-.819-.6389-1.418-1.5374-1.418-.8984 0-1.5373.599-1.5373 1.418 0 .838.6389 1.417 1.5373 1.417zm-1.2778 1.538v9.663h2.5556v-9.663z"/><path d="m46.1634 227.585v5.171h2.5556v-5.73c0-2.316-.6988-4.113-3.474-4.113-1.3976 0-2.3759.619-2.895 1.637h-.0599l.0199-1.457h-2.5556v9.663h2.5556v-4.812c0-1.617.5391-2.935 2.1164-2.935 1.4774 0 1.737 1.138 1.737 2.576z"/><path d="m58.3714 231.239.0199 1.517h2.4158v-13.776h-2.5356v3.813c0 .679 0 1.198.02 1.637h-.0399c-.6789-1.038-1.777-1.517-3.0747-1.517-2.935 0-4.7518 2.256-4.7518 4.991 0 2.875 1.737 5.072 4.5721 5.072 1.3377 0 2.5356-.5 3.3143-1.737zm-2.6555-.34c-1.6571 0-2.6953-1.318-2.6953-2.995 0-1.617.9583-3.034 2.6155-3.034 1.6372 0 2.6953 1.417 2.6953 3.034 0 1.817-1.0781 2.995-2.6155 2.995z"/><path d="m68.8389 225.648 1.0981-1.697c-.7986-.579-1.757-1.038-3.474-1.038-1.8568 0-3.454 1.138-3.454 2.895 0 1.418.7387 2.276 2.1762 2.755l1.1181.38c1.2378.419 1.6172.698 1.6172 1.197 0 .56-.4393.919-1.3976.919-.8186 0-1.7969-.439-2.9349-1.318l-1.0382 1.737c.7786.899 2.4358 1.498 3.9132 1.498 2.3759 0 3.8334-1.358 3.8334-3.195 0-1.397-.7587-2.156-2.895-2.855l-.6788-.22c-1.0782-.339-1.3976-.678-1.3976-1.098 0-.459.4192-.778 1.2578-.778.8785 0 1.6971.399 2.2561.818z"/><path d="m73.883 228.743h7.1077s.04-.799.04-1.298c0-2.575-1.7969-4.532-4.7718-4.532-2.7552 0-5.0113 2.076-5.0113 5.171 0 3.115 2.1562 4.892 5.0712 4.892 2.3559 0 3.8134-.999 4.3525-1.558l-.9983-1.377c-.4592.399-1.6172.978-2.915.978-1.4574 0-2.6354-.739-2.875-2.276zm2.3559-3.933c1.7969 0 2.1962 1.218 2.2362 2.276h-4.632c.0798-1.218.8785-2.276 2.3958-2.276z"/><path d="m81.4693 223.093 3.9931 9.723-.4193.998c-.1997.499-.6189.639-1.1181.639-.4791 0-1.158-.24-1.158-.24l-.5191 1.957s.8985.399 2.2761.399c1.3577 0 2.1563-.818 2.8551-2.515l4.4922-10.961h-2.6554l-2.5157 6.848-2.5555-6.848z"/></g></svg>