<svg fill="none" height="257" viewBox="0 0 414 257" width="414" xmlns="http://www.w3.org/2000/svg"><path d="m0 .300537h413.571v256.699h-413.571z" fill="#fff"/><path d="m257.707 215.643 2.787 8.579h9.02l-7.297 5.301 2.787 8.579-7.297-5.302-7.298 5.302 2.788-8.579-7.298-5.301h9.02z" fill="#fcd214"/><path d="m319.453 215.643 2.787 8.579h9.02l-7.297 5.301 2.787 8.579-7.297-5.302-7.298 5.302 2.788-8.579-7.297-5.301h9.019z" fill="#fcd214"/><path d="m288.58 215.643 2.787 8.579h9.02l-7.297 5.301 2.787 8.579-7.297-5.302-7.298 5.302 2.788-8.579-7.298-5.301h9.02z" fill="#fcd214"/><path d="m350.32 215.643 2.787 8.579h9.02l-7.297 5.301 2.787 8.579-7.297-5.302-7.297 5.302 2.787-8.579-7.297-5.301h9.02z" fill="#fcd214"/><path d="m381.193 215.643 2.787 8.579h9.02l-7.297 5.301 2.787 8.579-7.297-5.302-7.297 5.302 2.787-8.579-7.297-5.301h9.02z" fill="#fcd214"/><g fill="#000"><path d="m34.0861 23.7942v-1.6172h-9.7033v1.6172h3.8933v12.159h1.9366v-12.159z"/><path d="m43.9086 35.9532v-5.6502c0-2.2561-.6588-4.0131-3.3941-4.0131-1.3776 0-2.4158.7387-2.915 1.6771h-.0399v-5.79h-1.8967v13.7762h1.8967v-4.6919c0-1.8967.7387-3.3941 2.4757-3.3941s1.9566 1.3576 1.9566 2.7153v5.3707z"/><path d="m48.7772 23.355c0-.6789-.5191-1.178-1.2378-1.178-.7387 0-1.2578.4991-1.2578 1.178 0 .6788.5191 1.1779 1.2578 1.1779.7187 0 1.2378-.4991 1.2378-1.1779zm-.2795 12.5982v-9.4836h-1.9167v9.4836z"/><path d="m57.6086 33.178c0-1.2379-.7987-1.9965-1.8568-2.4358-.3994-.1597-.7587-.2795-1.2778-.4592-.9384-.2995-1.8568-.6389-1.8568-1.4175 0-.7787.5989-1.178 1.5174-1.178.9184 0 1.8368.4392 2.3958 1.0182l.7986-1.1779c-.5989-.6389-1.5573-1.2379-3.2344-1.2379s-3.1945.9583-3.1945 2.7153c0 1.7969 1.3976 2.296 2.7952 2.7752.6389.2196 2.1363.5391 2.1363 1.5773s-.9384 1.3576-1.8168 1.3576c-.8785 0-1.9966-.5191-2.7952-1.3576l-.9184 1.1181c.7986 1.0382 2.0964 1.697 3.6936 1.697 1.8368 0 3.6138-.9583 3.6138-2.9948z"/><path d="m65.7401 23.355c0-.6789-.5191-1.178-1.2378-1.178-.7388 0-1.2579.4991-1.2579 1.178 0 .6788.5191 1.1779 1.2579 1.1779.7187 0 1.2378-.4991 1.2378-1.1779zm-.2795 12.5982v-9.4836h-1.9167v9.4836z"/><path d="m74.5714 33.178c0-1.2379-.7986-1.9965-1.8567-2.4358-.3994-.1597-.7587-.2795-1.2778-.4592-.9384-.2995-1.8568-.6389-1.8568-1.4175 0-.7787.5989-1.178 1.5173-1.178.9185 0 1.8369.4392 2.3959 1.0182l.7986-1.1779c-.5989-.6389-1.5573-1.2379-3.2344-1.2379s-3.1945.9583-3.1945 2.7153c0 1.7969 1.3976 2.296 2.7952 2.7752.6389.2196 2.1363.5391 2.1363 1.5773s-.9384 1.3576-1.8169 1.3576c-.8784 0-1.9965-.5191-2.7951-1.3576l-.9184 1.1181c.7986 1.0382 2.0963 1.697 3.6936 1.697 1.8368 0 3.6137-.9583 3.6137-2.9948z"/><path d="m85.039 35.8534-.1198-1.5374s-.4193.2197-.9783.2197c-.5391 0-.7986-.1797-.9783-.4792-.2196-.3993-.2396-.9384-.2396-1.737v-4.2926h2.2761v-1.5373h-2.2761v-2.8351h-1.9167v2.8351h-1.3976v1.5373h1.3976v4.3325c0 1.8568.1198 3.8134 2.4957 3.8134.6589 0 1.2379-.0998 1.737-.3194z"/><path d="m91.918 26.4496s-.3593-.1597-.9982-.1597c-1.0183 0-1.8768.559-2.336 1.6372h-.0599l.02-1.4575h-1.9167v9.4836h1.9167v-4.7318c0-1.3776.4192-3.1945 2.1363-3.1945.5191 0 .8585.1198 1.0382.1997h.0799z"/><path d="m101.381 35.9532v-9.5036h-1.9168v5.0912c0 1.5973-.6788 3.0348-2.3559 3.0348-1.6971 0-1.9766-1.2179-1.9766-2.5157v-5.6103h-1.8967v5.6902c0 2.3559.6988 4.033 3.3342 4.033 1.3377 0 2.4159-.6588 2.935-1.5772l.0199 1.3576z"/><path d="m106.016 35.9532v-13.7762h-1.897v13.7762z"/><path d="m117.043 26.4696-1.977-.02-2.795 7.3873-2.875-7.3673-1.997-.02 3.854 9.304-.46 1.2578c-.259.6988-.459 1.1181-1.237 1.1181-.48 0-.999-.2197-.999-.2197l-.379 1.5573s.739.3395 1.797.3395 1.837-.5591 2.496-2.1963z"/><path d="m126.9 35.8534-.12-1.5374s-.419.2197-.978.2197c-.539 0-.798-.1797-.978-.4792-.22-.3993-.24-.9384-.24-1.737v-4.2926h2.276v-1.5373h-2.276v-2.8351h-1.916v2.8351h-1.398v1.5373h1.398v4.3325c0 1.8568.119 3.8134 2.495 3.8134.659 0 1.238-.0998 1.737-.3194z"/><path d="m136.834 35.9532v-5.6502c0-2.2561-.659-4.0131-3.394-4.0131-1.378 0-2.416.7387-2.915 1.6771h-.04v-5.79h-1.897v13.7762h1.897v-4.6919c0-1.8967.739-3.3941 2.476-3.3941s1.956 1.3576 1.956 2.7153v5.3707z"/><path d="m148.092 30.8221c0-2.6554-1.857-4.5322-4.493-4.5322-2.635 0-4.811 1.9167-4.811 4.9115 0 3.0148 1.936 4.9714 4.752 4.9714 2.835 0 4.053-1.3976 4.172-1.4974l-.798-1.0981c-.22.1398-1.358 1.0981-3.135 1.0981-1.757 0-2.955-1.138-3.055-3.0148h7.308s.06-.4791.06-.8385zm-1.817-.4393h-5.531c.06-1.138.899-2.7153 2.796-2.7153 1.916 0 2.715 1.6572 2.735 2.7153z"/><path d="m163.895 31.2014c0-2.7952-1.797-4.9115-4.572-4.9115-1.498 0-2.636.6189-3.315 1.6571h-.04v-5.77h-1.896v13.7762h1.836v-1.4974h.04c.779 1.158 1.957 1.717 3.335 1.717 2.815 0 4.612-2.1562 4.612-4.9714zm-1.957-.0199c0 1.8967-1.118 3.3542-3.015 3.3542-1.896 0-3.035-1.4575-3.035-3.3542 0-1.8968 1.139-3.3343 3.035-3.3343 1.897 0 3.015 1.4375 3.015 3.3343z"/><path d="m174.55 30.8221c0-2.6554-1.857-4.5322-4.492-4.5322-2.636 0-4.812 1.9167-4.812 4.9115 0 3.0148 1.937 4.9714 4.752 4.9714 2.835 0 4.053-1.3976 4.173-1.4974l-.799-1.0981c-.22.1398-1.358 1.0981-3.135 1.0981-1.757 0-2.955-1.138-3.054-3.0148h7.307s.06-.4791.06-.8385zm-1.817-.4393h-5.53c.059-1.138.898-2.7153 2.795-2.7153 1.916 0 2.715 1.6572 2.735 2.7153z"/><path d="m182.841 33.178c0-1.2379-.798-1.9965-1.856-2.4358-.4-.1597-.759-.2795-1.278-.4592-.938-.2995-1.857-.6389-1.857-1.4175 0-.7787.599-1.178 1.517-1.178.919 0 1.837.4392 2.396 1.0182l.799-1.1779c-.599-.6389-1.557-1.2379-3.234-1.2379-1.678 0-3.195.9583-3.195 2.7153 0 1.7969 1.398 2.296 2.795 2.7752.639.2196 2.137.5391 2.137 1.5773s-.939 1.3576-1.817 1.3576c-.879 0-1.997-.5191-2.795-1.3576l-.919 1.1181c.799 1.0382 2.096 1.697 3.694 1.697 1.837 0 3.613-.9583 3.613-2.9948z"/><path d="m189.332 35.8534-.12-1.5374s-.42.2197-.979.2197c-.539 0-.798-.1797-.978-.4792-.22-.3993-.239-.9384-.239-1.737v-4.2926h2.276v-1.5373h-2.276v-2.8351h-1.917v2.8351h-1.398v1.5373h1.398v4.3325c0 1.8568.12 3.8134 2.496 3.8134.658 0 1.237-.0998 1.737-.3194z"/><path d="m202.265 35.9532v-5.5105c0-2.7552-1.378-4.1528-4.153-4.1528-1.578 0-2.855.559-3.554.9583l.579 1.2778c.319-.1996 1.477-.8185 2.855-.8185 1.377 0 2.356.7187 2.356 2.1562v.3794l-2.536.0998c-2.196.0998-3.713 1.0382-3.713 2.895 0 1.8368 1.517 2.9349 3.274 2.9349 1.737 0 2.635-1.0182 3.015-1.4175l.02 1.1979zm-1.897-4.5521v2.0365c-.36.539-1.178 1.3776-2.416 1.3776-1.258 0-1.957-.7387-1.957-1.6372 0-.8984.619-1.5573 2.157-1.6372z"/><path d="m214.627 31.2014c0-2.8151-1.777-4.9115-4.572-4.9115-1.398 0-2.536.559-3.374 1.6771h-.04v-1.4974h-1.837v13.1972h1.917v-5.211l.02.02c.678 1.0581 1.776 1.697 3.274 1.697 2.815 0 4.612-2.1562 4.612-4.9714zm-1.957-.0199c0 1.8967-1.118 3.3542-3.015 3.3542-1.896 0-3.014-1.4575-3.014-3.3542 0-1.8968 1.118-3.3343 3.014-3.3343 1.897 0 3.015 1.4375 3.015 3.3343z"/><path d="m226.52 31.2014c0-2.8151-1.777-4.9115-4.572-4.9115-1.397 0-2.535.559-3.374 1.6771h-.04v-1.4974h-1.837v13.1972h1.917v-5.211l.02.02c.679 1.0581 1.777 1.697 3.274 1.697 2.816 0 4.612-2.1562 4.612-4.9714zm-1.956-.0199c0 1.8967-1.118 3.3542-3.015 3.3542s-3.015-1.4575-3.015-3.3542c0-1.8968 1.118-3.3343 3.015-3.3343s3.015 1.4375 3.015 3.3343z"/><path d="m241.154 30.8221c0-2.6554-1.857-4.5322-4.493-4.5322-2.635 0-4.811 1.9167-4.811 4.9115 0 3.0148 1.936 4.9714 4.751 4.9714 2.836 0 4.053-1.3976 4.173-1.4974l-.798-1.0981c-.22.1398-1.358 1.0981-3.135 1.0981-1.757 0-2.955-1.138-3.055-3.0148h7.308s.06-.4791.06-.8385zm-1.817-.4393h-5.531c.06-1.138.899-2.7153 2.795-2.7153 1.917 0 2.716 1.6572 2.736 2.7153z"/><path d="m251.342 26.4696h-1.977l-2.795 7.1476-2.815-7.1476h-1.997l3.954 9.4836h1.677z"/><path d="m261.295 30.8221c0-2.6554-1.857-4.5322-4.493-4.5322-2.635 0-4.811 1.9167-4.811 4.9115 0 3.0148 1.936 4.9714 4.751 4.9714 2.836 0 4.053-1.3976 4.173-1.4974l-.798-1.0981c-.22.1398-1.358 1.0981-3.135 1.0981-1.757 0-2.955-1.138-3.055-3.0148h7.308s.06-.4791.06-.8385zm-1.817-.4393h-5.531c.06-1.138.899-2.7153 2.795-2.7153 1.917 0 2.716 1.6572 2.736 2.7153z"/><path d="m268.488 26.4496s-.359-.1597-.998-.1597c-1.018 0-1.877.559-2.336 1.6372h-.06l.02-1.4575h-1.917v9.4836h1.917v-4.7318c0-1.3776.419-3.1945 2.136-3.1945.519 0 .859.1198 1.038.1997h.08z"/><path d="m272.58 22.177h-1.996l.159 10.1026h1.658zm.32 12.738c0-.7787-.559-1.2578-1.318-1.2578-.779 0-1.338.4791-1.338 1.2578 0 .7587.559 1.2379 1.338 1.2379.759 0 1.318-.4792 1.318-1.2379z"/><path d="m282.004 35.9532v-13.7762h-1.937v13.7762z"/><path d="m288.214 22.177h-1.957l-1.338 4.2726h1.518z"/><path d="m298.351 26.4696h-1.977l-2.795 7.1476-2.815-7.1476h-1.997l3.953 9.4836h1.677z"/><path d="m308.303 30.8221c0-2.6554-1.857-4.5322-4.492-4.5322s-4.812 1.9167-4.812 4.9115c0 3.0148 1.937 4.9714 4.752 4.9714 2.835 0 4.053-1.3976 4.173-1.4974l-.799-1.0981c-.219.1398-1.357 1.0981-3.134 1.0981-1.757 0-2.955-1.138-3.055-3.0148h7.307s.06-.4791.06-.8385zm-1.817-.4393h-5.53c.06-1.138.898-2.7153 2.795-2.7153 1.917 0 2.715 1.6572 2.735 2.7153z"/><path d="m318.795 35.8534-.119-1.5374s-.42.2197-.979.2197c-.539 0-.798-.1797-.978-.4792-.22-.3993-.24-.9384-.24-1.737v-4.2926h2.276v-1.5373h-2.276v-2.8351h-1.916v2.8351h-1.398v1.5373h1.398v4.3325c0 1.8568.12 3.8134 2.495 3.8134.659 0 1.238-.0998 1.737-.3194z"/><path d="m325.674 26.4496s-.359-.1597-.998-.1597c-1.018 0-1.877.559-2.336 1.6372h-.06l.02-1.4575h-1.916v9.4836h1.916v-4.7318c0-1.3776.42-3.1945 2.137-3.1945.519 0 .858.1198 1.038.1997h.08z"/><path d="m329.347 23.355c0-.6789-.519-1.178-1.238-1.178-.738 0-1.257.4991-1.257 1.178 0 .6788.519 1.1779 1.257 1.1779.719 0 1.238-.4991 1.238-1.1779zm-.279 12.5982v-9.4836h-1.917v9.4836z"/><path d="m340.455 30.8221c0-2.6554-1.857-4.5322-4.493-4.5322-2.635 0-4.811 1.9167-4.811 4.9115 0 3.0148 1.936 4.9714 4.752 4.9714 2.835 0 4.053-1.3976 4.172-1.4974l-.798-1.0981c-.22.1398-1.358 1.0981-3.135 1.0981-1.757 0-2.955-1.138-3.055-3.0148h7.308s.06-.4791.06-.8385zm-1.817-.4393h-5.531c.06-1.138.899-2.7153 2.796-2.7153 1.916 0 2.715 1.6572 2.735 2.7153z"/><path d="m351.639 35.9532v-13.7762h-1.897v5.77h-.04c-.659-.9783-1.777-1.6571-3.314-1.6571-2.775 0-4.572 2.1163-4.572 4.9115 0 2.8152 1.797 4.9714 4.612 4.9714 1.378 0 2.556-.579 3.334-1.737h.04v1.5174zm-1.837-4.7717c0 1.8967-1.118 3.3542-3.015 3.3542-1.896 0-3.014-1.4575-3.014-3.3542 0-1.8968 1.118-3.3343 3.014-3.3343 1.897 0 3.015 1.4375 3.015 3.3343z"/><path d="m34.9645 56.9113c0-2.9349-2.1962-4.9515-5.0113-4.9515-2.8351 0-5.0313 2.0166-5.0313 4.9515 0 2.9549 2.1962 4.9315 5.0313 4.9315 2.8151 0 5.0113-1.9766 5.0113-4.9315zm-1.9366-.0599c0 1.8768-1.178 3.3542-3.0747 3.3542-1.9167 0-3.0947-1.4774-3.0947-3.3542 0-1.8568 1.178-3.3342 3.0947-3.3342 1.8967 0 3.0747 1.4774 3.0747 3.3342z"/><path d="m41.5789 61.5233-.1198-1.5373s-.4193.2196-.9783.2196c-.5391 0-.7986-.1797-.9783-.4792-.2196-.3993-.2396-.9383-.2396-1.737v-4.2925h2.2761v-1.5374h-2.2761v-2.8351h-1.9167v2.8351h-1.3976v1.5374h1.3976v4.3325c0 1.8568.1198 3.8134 2.4957 3.8134.6589 0 1.2379-.0998 1.737-.3195z"/><path d="m51.5127 61.6232v-5.6503c0-2.2561-.6589-4.0131-3.3942-4.0131-1.3776 0-2.4158.7388-2.9149 1.6772h-.04v-5.79h-1.8967v13.7762h1.8967v-4.6919c0-1.8968.7388-3.3942 2.4758-3.3942s1.9566 1.3577 1.9566 2.7153v5.3708z"/><path d="m62.7703 56.492c0-2.6554-1.8568-4.5322-4.4923-4.5322-2.6354 0-4.8117 1.9167-4.8117 4.9116 0 3.0148 1.9367 4.9714 4.7518 4.9714 2.8351 0 4.053-1.3976 4.1728-1.4974l-.7986-1.0981c-.2196.1397-1.3577 1.0981-3.1346 1.0981-1.757 0-2.9549-1.1381-3.0547-3.0148h7.3074s.0599-.4792.0599-.8386zm-1.8169-.4392h-5.5304c.0598-1.1381.8984-2.7153 2.7951-2.7153 1.9167 0 2.7153 1.6571 2.7353 2.7153z"/><path d="m69.9638 52.1196s-.3594-.1598-.9983-.1598c-1.0182 0-1.8768.5591-2.336 1.6372h-.0599l.02-1.4575h-1.9167v9.4837h1.9167v-4.7319c0-1.3776.4193-3.1944 2.1363-3.1944.5191 0 .8585.1197 1.0382.1996h.0799z"/><path d="m85.261 56.8714c0-2.7952-1.7969-4.9116-4.5722-4.9116-1.4974 0-2.6354.619-3.3142 1.6572h-.04v-5.77h-1.8967v13.7762h1.8368v-1.4975h.04c.7786 1.158 1.9566 1.7171 3.3342 1.7171 2.8152 0 4.6121-2.1563 4.6121-4.9714zm-1.9567-.02c0 1.8967-1.118 3.3542-3.0148 3.3542-1.8967 0-3.0347-1.4575-3.0347-3.3542s1.138-3.3342 3.0347-3.3342c1.8968 0 3.0148 1.4375 3.0148 3.3342z"/><path d="m95.3172 61.6232v-9.5036h-1.9167v5.0912c0 1.5972-.6788 3.0347-2.3559 3.0347-1.6971 0-1.9766-1.2179-1.9766-2.5156v-5.6103h-1.8968v5.6901c0 2.356.6988 4.0331 3.3343 4.0331 1.3377 0 2.4158-.6589 2.9349-1.5773l.02 1.3577z"/><path d="m107.139 61.6232v-13.7762h-1.896v5.77h-.04c-.659-.9783-1.777-1.6572-3.315-1.6572-2.7747 0-4.5716 2.1164-4.5716 4.9116 0 2.8151 1.7969 4.9714 4.6116 4.9714 1.378 0 2.556-.579 3.335-1.737h.04v1.5174zm-1.836-4.7718c0 1.8967-1.118 3.3542-3.015 3.3542s-3.015-1.4575-3.015-3.3542 1.118-3.3342 3.015-3.3342 3.015 1.4375 3.015 3.3342z"/><path d="m119.052 59.6266v-7.4871h-1.896l.02 1.4975h-.06c-.559-.8785-1.657-1.6772-3.315-1.6772-2.435 0-4.572 1.757-4.572 4.7718s2.137 4.7718 4.572 4.7718c1.598 0 2.676-.7388 3.315-1.6971h.04v.4792c0 2.2361-.899 3.6936-3.315 3.6936-1.417 0-2.895-.7587-3.394-1.1979l-.898 1.3376c.279.1997 1.897 1.4176 4.233 1.4176 2.355 0 3.533-.9583 4.232-1.8169.699-.8385 1.038-1.9965 1.038-4.0929zm-1.836-2.895c0 1.7969-1.059 3.2145-3.015 3.2145-1.937 0-3.015-1.4176-3.015-3.2145s1.078-3.2344 3.015-3.2344c1.956 0 3.015 1.4375 3.015 3.2344z"/><path d="m130.368 56.492c0-2.6554-1.856-4.5322-4.492-4.5322-2.635 0-4.812 1.9167-4.812 4.9116 0 3.0148 1.937 4.9714 4.752 4.9714 2.835 0 4.053-1.3976 4.173-1.4974l-.799-1.0981c-.219.1397-1.357 1.0981-3.134 1.0981-1.757 0-2.955-1.1381-3.055-3.0148h7.307s.06-.4792.06-.8386zm-1.817-.4392h-5.53c.06-1.1381.898-2.7153 2.795-2.7153 1.917 0 2.716 1.6571 2.735 2.7153z"/><path d="m136.883 61.5233-.12-1.5373s-.419.2196-.978.2196c-.539 0-.799-.1797-.978-.4792-.22-.3993-.24-.9383-.24-1.737v-4.2925h2.276v-1.5374h-2.276v-2.8351h-1.917v2.8351h-1.397v1.5374h1.397v4.3325c0 1.8568.12 3.8134 2.496 3.8134.659 0 1.238-.0998 1.737-.3195z"/><path d="m140.747 49.0249c0-.6788-.519-1.1779-1.238-1.1779-.738 0-1.257.4991-1.257 1.1779s.519 1.178 1.257 1.178c.719 0 1.238-.4992 1.238-1.178zm-.279 12.5983v-9.4837h-1.917v9.4837z"/><path d="m151.435 61.6232v-5.6103c0-2.2761-.698-4.0531-3.394-4.0531-1.377 0-2.396.7388-2.895 1.6772h-.06l.02-1.4975h-1.916v9.4837h1.916v-4.7718c0-1.8169.659-3.3143 2.436-3.3143 1.697 0 1.977 1.198 1.977 2.7952v5.2909z"/><path d="m163.175 59.6266v-7.4871h-1.896l.02 1.4975h-.06c-.559-.8785-1.657-1.6772-3.314-1.6772-2.436 0-4.573 1.757-4.573 4.7718s2.137 4.7718 4.573 4.7718c1.597 0 2.675-.7388 3.314-1.6971h.04v.4792c0 2.2361-.899 3.6936-3.315 3.6936-1.417 0-2.895-.7587-3.394-1.1979l-.898 1.3376c.279.1997 1.897 1.4176 4.233 1.4176 2.355 0 3.533-.9583 4.232-1.8169.699-.8385 1.038-1.9965 1.038-4.0929zm-1.836-2.895c0 1.7969-1.059 3.2145-3.015 3.2145-1.937 0-3.015-1.4176-3.015-3.2145s1.078-3.2344 3.015-3.2344c1.956 0 3.015 1.4375 3.015 3.2344z"/><path d="m174.416 61.5233-.12-1.5373s-.419.2196-.978.2196c-.539 0-.799-.1797-.979-.4792-.219-.3993-.239-.9383-.239-1.737v-4.2925h2.276v-1.5374h-2.276v-2.8351h-1.917v2.8351h-1.397v1.5374h1.397v4.3325c0 1.8568.12 3.8134 2.496 3.8134.659 0 1.238-.0998 1.737-.3195z"/><path d="m185.408 56.9113c0-2.9349-2.196-4.9515-5.012-4.9515-2.835 0-5.031 2.0166-5.031 4.9515 0 2.9549 2.196 4.9315 5.031 4.9315 2.816 0 5.012-1.9766 5.012-4.9315zm-1.937-.0599c0 1.8768-1.178 3.3542-3.075 3.3542-1.916 0-3.094-1.4774-3.094-3.3542 0-1.8568 1.178-3.3342 3.094-3.3342 1.897 0 3.075 1.4774 3.075 3.3342z"/><path d="m196.814 56.9113c0-2.9349-2.196-4.9515-5.011-4.9515-2.836 0-5.032 2.0166-5.032 4.9515 0 2.9549 2.196 4.9315 5.032 4.9315 2.815 0 5.011-1.9766 5.011-4.9315zm-1.937-.0599c0 1.8768-1.178 3.3542-3.074 3.3542-1.917 0-3.095-1.4774-3.095-3.3542 0-1.8568 1.178-3.3342 3.095-3.3342 1.896 0 3.074 1.4774 3.074 3.3342z"/><path d="m200.813 61.6232v-13.7762h-1.897v13.7762z"/><path d="m209.943 58.848c0-1.2379-.799-1.9966-1.857-2.4358-.399-.1598-.758-.2796-1.277-.4592-.939-.2995-1.857-.6389-1.857-1.4176s.599-1.178 1.517-1.178c.919 0 1.837.4393 2.396 1.0183l.799-1.178c-.599-.6389-1.558-1.2379-3.235-1.2379s-3.194.9584-3.194 2.7154c0 1.7969 1.397 2.296 2.795 2.7752.639.2196 2.136.539 2.136 1.5772s-.938 1.3577-1.817 1.3577c-.878 0-1.996-.5191-2.795-1.3577l-.918 1.1181c.798 1.0382 2.096 1.6971 3.693 1.6971 1.837 0 3.614-.9584 3.614-2.9948z"/><path d="m215.075 59.5068h-1.956l-1.398 4.9115h1.518z"/><path d="m231.727 56.8714c0-2.7952-1.797-4.9116-4.572-4.9116-1.498 0-2.636.619-3.315 1.6572h-.04v-5.77h-1.896v13.7762h1.837v-1.4975h.039c.779 1.158 1.957 1.7171 3.335 1.7171 2.815 0 4.612-2.1563 4.612-4.9714zm-1.957-.02c0 1.8967-1.118 3.3542-3.015 3.3542-1.896 0-3.034-1.4575-3.034-3.3542s1.138-3.3342 3.034-3.3342c1.897 0 3.015 1.4375 3.015 3.3342z"/><path d="m241.783 61.6232v-9.5036h-1.917v5.0912c0 1.5972-.679 3.0347-2.356 3.0347-1.697 0-1.976-1.2179-1.976-2.5156v-5.6103h-1.897v5.6901c0 2.356.699 4.0331 3.334 4.0331 1.338 0 2.416-.6589 2.935-1.5773l.02 1.3577z"/><path d="m249.033 61.5233-.12-1.5373s-.419.2196-.978.2196c-.539 0-.799-.1797-.978-.4792-.22-.3993-.24-.9383-.24-1.737v-4.2925h2.276v-1.5374h-2.276v-2.8351h-1.917v2.8351h-1.397v1.5374h1.397v4.3325c0 1.8568.12 3.8134 2.496 3.8134.659 0 1.238-.0998 1.737-.3195z"/><path d="m259.211 61.5233-.12-1.5373s-.419.2196-.978.2196c-.539 0-.799-.1797-.979-.4792-.219-.3993-.239-.9383-.239-1.737v-4.2925h2.276v-1.5374h-2.276v-2.8351h-1.917v2.8351h-1.397v1.5374h1.397v4.3325c0 1.8568.12 3.8134 2.496 3.8134.659 0 1.238-.0998 1.737-.3195z"/><path d="m269.145 61.6232v-5.6503c0-2.2561-.659-4.0131-3.395-4.0131-1.377 0-2.415.7388-2.914 1.6772h-.04v-5.79h-1.897v13.7762h1.897v-4.6919c0-1.8968.738-3.3942 2.475-3.3942s1.957 1.3577 1.957 2.7153v5.3708z"/><path d="m280.402 56.492c0-2.6554-1.857-4.5322-4.492-4.5322s-4.812 1.9167-4.812 4.9116c0 3.0148 1.937 4.9714 4.752 4.9714 2.835 0 4.053-1.3976 4.173-1.4974l-.799-1.0981c-.219.1397-1.357 1.0981-3.134 1.0981-1.757 0-2.955-1.1381-3.055-3.0148h7.307s.06-.4792.06-.8386zm-1.817-.4392h-5.53c.06-1.1381.898-2.7153 2.795-2.7153 1.917 0 2.715 1.6571 2.735 2.7153z"/><path d="m293.65 61.6232v-1.5773h-5.81l5.53-6.7284v-1.158h-7.707v1.5374h5.271l-5.55 6.7483v1.178z"/><path d="m304.053 56.492c0-2.6554-1.857-4.5322-4.492-4.5322-2.636 0-4.812 1.9167-4.812 4.9116 0 3.0148 1.936 4.9714 4.752 4.9714 2.835 0 4.053-1.3976 4.172-1.4974l-.798-1.0981c-.22.1397-1.358 1.0981-3.135 1.0981-1.757 0-2.955-1.1381-3.055-3.0148h7.308s.06-.4792.06-.8386zm-1.817-.4392h-5.531c.06-1.1381.899-2.7153 2.796-2.7153 1.916 0 2.715 1.6571 2.735 2.7153z"/><path d="m311.246 52.1196s-.359-.1598-.998-.1598c-1.018 0-1.877.5591-2.336 1.6372h-.06l.02-1.4575h-1.917v9.4837h1.917v-4.7319c0-1.3776.419-3.1944 2.136-3.1944.52 0 .859.1197 1.039.1996h.079z"/><path d="m321.949 56.9113c0-2.9349-2.196-4.9515-5.011-4.9515-2.835 0-5.031 2.0166-5.031 4.9515 0 2.9549 2.196 4.9315 5.031 4.9315 2.815 0 5.011-1.9766 5.011-4.9315zm-1.936-.0599c0 1.8768-1.178 3.3542-3.075 3.3542-1.917 0-3.095-1.4774-3.095-3.3542 0-1.8568 1.178-3.3342 3.095-3.3342 1.897 0 3.075 1.4774 3.075 3.3342z"/><path d="m327.965 56.9512v-1.5972h-4.832v1.5972z"/><path d="m339.704 56.8714c0-2.7952-1.797-4.9116-4.572-4.9116-1.497 0-2.635.619-3.314 1.6572h-.04v-5.77h-1.897v13.7762h1.837v-1.4975h.04c.779 1.158 1.957 1.7171 3.334 1.7171 2.815 0 4.612-2.1563 4.612-4.9714zm-1.956-.02c0 1.8967-1.118 3.3542-3.015 3.3542s-3.035-1.4575-3.035-3.3542 1.138-3.3342 3.035-3.3342 3.015 1.4375 3.015 3.3342z"/><path d="m349.062 61.6232v-5.5105c0-2.7553-1.378-4.1529-4.153-4.1529-1.577 0-2.855.5591-3.554.9584l.579 1.2778c.319-.1997 1.477-.8186 2.855-.8186s2.356.7188 2.356 2.1563v.3793l-2.536.0999c-2.196.0998-3.713 1.0382-3.713 2.8949 0 1.8369 1.517 2.935 3.274 2.935 1.737 0 2.636-1.0183 3.015-1.4176l.02 1.198zm-1.897-4.5522v2.0365c-.359.5391-1.178 1.3776-2.416 1.3776-1.258 0-1.956-.7387-1.956-1.6371 0-.8985.618-1.5574 2.156-1.6372z"/><path d="m357.91 58.848c0-1.2379-.798-1.9966-1.857-2.4358-.399-.1598-.758-.2796-1.277-.4592-.939-.2995-1.857-.6389-1.857-1.4176s.599-1.178 1.517-1.178c.919 0 1.837.4393 2.396 1.0183l.799-1.178c-.599-.6389-1.558-1.2379-3.235-1.2379s-3.194.9584-3.194 2.7154c0 1.7969 1.397 2.296 2.795 2.7752.639.2196 2.136.539 2.136 1.5772s-.938 1.3577-1.817 1.3577c-.878 0-1.996-.5191-2.795-1.3577l-.918 1.1181c.798 1.0382 2.096 1.6971 3.693 1.6971 1.837 0 3.614-.9584 3.614-2.9948z"/><path d="m368.453 56.492c0-2.6554-1.857-4.5322-4.492-4.5322s-4.812 1.9167-4.812 4.9116c0 3.0148 1.937 4.9714 4.752 4.9714 2.835 0 4.053-1.3976 4.173-1.4974l-.799-1.0981c-.219.1397-1.357 1.0981-3.134 1.0981-1.757 0-2.955-1.1381-3.055-3.0148h7.307s.06-.4792.06-.8386zm-1.817-.4392h-5.53c.06-1.1381.898-2.7153 2.795-2.7153 1.917 0 2.715 1.6571 2.735 2.7153z"/><path d="m379.638 61.6232v-13.7762h-1.897v5.77h-.04c-.659-.9783-1.777-1.6572-3.314-1.6572-2.776 0-4.573 2.1164-4.573 4.9116 0 2.8151 1.797 4.9714 4.613 4.9714 1.377 0 2.555-.579 3.334-1.737h.04v1.5174zm-1.837-4.7718c0 1.8967-1.118 3.3542-3.015 3.3542s-3.015-1.4575-3.015-3.3542 1.118-3.3342 3.015-3.3342 3.015 1.4375 3.015 3.3342z"/><path d="m35.4836 82.5413c0-2.7952-1.7969-4.9115-4.5721-4.9115-1.4974 0-2.6354.6189-3.3142 1.6571h-.04v-5.77h-1.8967v13.7762h1.8368v-1.4974h.04c.7786 1.158 1.9566 1.717 3.3342 1.717 2.8151 0 4.612-2.1562 4.612-4.9714zm-1.9566-.02c0 1.8968-1.118 3.3543-3.0148 3.3543-1.8967 0-3.0347-1.4575-3.0347-3.3543 0-1.8967 1.138-3.3342 3.0347-3.3342 1.8968 0 3.0148 1.4375 3.0148 3.3342z"/><path d="m45.5399 87.2931v-9.5036h-1.9167v5.0912c0 1.5973-.6789 3.0348-2.356 3.0348-1.697 0-1.9765-1.2179-1.9765-2.5157v-5.6103h-1.8968v5.6902c0 2.3559.6988 4.033 3.3343 4.033 1.3377 0 2.4158-.6588 2.9349-1.5772l.02 1.3576z"/><path d="m57.3621 87.2931v-13.7762h-1.8967v5.77h-.04c-.6588-.9783-1.7769-1.6571-3.3142-1.6571-2.7752 0-4.5721 2.1163-4.5721 4.9115 0 2.8152 1.7969 4.9714 4.612 4.9714 1.3776 0 2.5556-.579 3.3342-1.737h.04v1.5174zm-1.8368-4.7718c0 1.8968-1.1181 3.3543-3.0148 3.3543s-3.0148-1.4575-3.0148-3.3543c0-1.8967 1.1181-3.3342 3.0148-3.3342s3.0148 1.4375 3.0148 3.3342z"/><path d="m69.2751 85.2966v-7.4871h-1.8967l.02 1.4974h-.0599c-.5591-.8785-1.6572-1.6771-3.3143-1.6771-2.4358 0-4.5721 1.757-4.5721 4.7718s2.1363 4.7717 4.5721 4.7717c1.5972 0 2.6754-.7387 3.3143-1.6971h.0399v.4792c0 2.2362-.8984 3.6936-3.3143 3.6936-1.4175 0-2.895-.7586-3.3941-1.1979l-.8985 1.3377c.2796.1997 1.8968 1.4176 4.2327 1.4176 2.356 0 3.5339-.9584 4.2327-1.8169.6988-.8386 1.0382-1.9966 1.0382-4.0929zm-1.8368-2.895c0 1.7969-1.0582 3.2144-3.0148 3.2144-1.9367 0-3.0148-1.4175-3.0148-3.2144s1.0781-3.2345 3.0148-3.2345c1.9566 0 3.0148 1.4376 3.0148 3.2345z"/><path d="m80.591 82.162c0-2.6554-1.8567-4.5322-4.4922-4.5322-2.6354 0-4.8117 1.9167-4.8117 4.9115 0 3.0148 1.9367 4.9714 4.7518 4.9714 2.8351 0 4.053-1.3976 4.1728-1.4974l-.7986-1.0981c-.2196.1398-1.3577 1.0981-3.1346 1.0981-1.757 0-2.9549-1.138-3.0547-3.0148h7.3074s.0598-.4791.0598-.8385zm-1.8168-.4393h-5.5305c.0599-1.138.8985-2.7153 2.7952-2.7153 1.9167 0 2.7153 1.6572 2.7353 2.7153z"/><path d="m87.1057 87.1933-.1198-1.5374s-.4192.2197-.9783.2197c-.539 0-.7986-.1797-.9783-.4792-.2196-.3993-.2396-.9384-.2396-1.737v-4.2926h2.2761v-1.5373h-2.2761v-2.8351h-1.9167v2.8351h-1.3975v1.5373h1.3975v4.3325c0 1.8568.1198 3.8134 2.4957 3.8134.6589 0 1.2379-.0998 1.737-.3194z"/><path d="m99.0604 84.5179c0-1.2379-.7986-1.9965-1.8568-2.4358-.3993-.1597-.7587-.2795-1.2778-.4592-.9384-.2995-1.8568-.6389-1.8568-1.4176 0-.7786.599-1.1779 1.5174-1.1779s1.8368.4392 2.3959 1.0182l.7986-1.1779c-.599-.6389-1.5573-1.2379-3.2344-1.2379s-3.1945.9583-3.1945 2.7153c0 1.7969 1.3976 2.296 2.7952 2.7752.6389.2196 2.1363.5391 2.1363 1.5773s-.9384 1.3576-1.8169 1.3576-1.9965-.5191-2.7952-1.3576l-.9184 1.1181c.7986 1.0382 2.0964 1.697 3.6936 1.697 1.8369 0 3.6138-.9583 3.6138-2.9948z"/><path d="m109.029 77.8095-1.976-.02-2.796 7.3873-2.875-7.3673-1.9962-.02 3.8532 9.304-.459 1.2578c-.26.6988-.459 1.1181-1.238 1.1181-.479 0-.998-.2197-.998-.2197l-.38 1.5573s.739.3395 1.797.3395 1.837-.5591 2.496-2.1963z"/><path d="m116.394 84.5179c0-1.2379-.799-1.9965-1.857-2.4358-.399-.1597-.759-.2795-1.278-.4592-.938-.2995-1.857-.6389-1.857-1.4176 0-.7786.599-1.1779 1.518-1.1779.918 0 1.837.4392 2.396 1.0182l.798-1.1779c-.599-.6389-1.557-1.2379-3.234-1.2379s-3.195.9583-3.195 2.7153c0 1.7969 1.398 2.296 2.796 2.7752.638.2196 2.136.5391 2.136 1.5773s-.939 1.3576-1.817 1.3576c-.879 0-1.997-.5191-2.795-1.3576l-.919 1.1181c.799 1.0382 2.097 1.697 3.694 1.697 1.837 0 3.614-.9583 3.614-2.9948z"/><path d="m122.884 87.1933-.12-1.5374s-.419.2197-.978.2197c-.539 0-.799-.1797-.979-.4792-.219-.3993-.239-.9384-.239-1.737v-4.2926h2.276v-1.5373h-2.276v-2.8351h-1.917v2.8351h-1.397v1.5373h1.397v4.3325c0 1.8568.12 3.8134 2.496 3.8134.659 0 1.238-.0998 1.737-.3194z"/><path d="m133.137 82.162c0-2.6554-1.857-4.5322-4.492-4.5322-2.636 0-4.812 1.9167-4.812 4.9115 0 3.0148 1.937 4.9714 4.752 4.9714 2.835 0 4.053-1.3976 4.173-1.4974l-.799-1.0981c-.22.1398-1.358 1.0981-3.135 1.0981-1.757 0-2.954-1.138-3.054-3.0148h7.307s.06-.4791.06-.8385zm-1.817-.4393h-5.53c.06-1.138.898-2.7153 2.795-2.7153 1.917 0 2.715 1.6572 2.735 2.7153z"/><path d="m148.776 87.2931v-5.7501c0-2.0564-.679-3.9132-3.215-3.9132-1.337 0-2.375.6788-3.014 1.8768-.44-1.2379-1.418-1.8768-2.815-1.8768-1.258 0-2.296.7986-2.736 1.6771h-.06l.02-1.4974h-1.916v9.4836h1.916v-4.9315c0-1.697.759-3.1545 2.276-3.1545 1.378 0 1.717 1.158 1.717 2.5556v5.5304h1.917v-4.9315c0-1.697.759-3.1545 2.276-3.1545 1.538 0 1.737 1.4575 1.737 2.5556v5.5304z"/><path d="m157.593 74.6949c0-.6789-.519-1.178-1.238-1.178-.738 0-1.257.4991-1.257 1.178 0 .6788.519 1.1779 1.257 1.1779.719 0 1.238-.4991 1.238-1.1779zm-.279 12.5982v-9.4836h-1.917v9.4836z"/><path d="m166.425 84.5179c0-1.2379-.799-1.9965-1.857-2.4358-.4-.1597-.759-.2795-1.278-.4592-.938-.2995-1.857-.6389-1.857-1.4176 0-.7786.599-1.1779 1.518-1.1779.918 0 1.836.4392 2.395 1.0182l.799-1.1779c-.599-.6389-1.557-1.2379-3.234-1.2379-1.678 0-3.195.9583-3.195 2.7153 0 1.7969 1.398 2.296 2.795 2.7752.639.2196 2.137.5391 2.137 1.5773s-.939 1.3576-1.817 1.3576c-.879 0-1.997-.5191-2.795-1.3576l-.919 1.1181c.799 1.0382 2.097 1.697 3.694 1.697 1.837 0 3.614-.9583 3.614-2.9948z"/><path d="m176.892 87.1933-.12-1.5374s-.419.2197-.978.2197c-.539 0-.799-.1797-.978-.4792-.22-.3993-.24-.9384-.24-1.737v-4.2926h2.276v-1.5373h-2.276v-2.8351h-1.917v2.8351h-1.397v1.5373h1.397v4.3325c0 1.8568.12 3.8134 2.496 3.8134.659 0 1.238-.0998 1.737-.3194z"/><path d="m186.826 87.2931v-5.6502c0-2.2561-.659-4.0131-3.394-4.0131-1.378 0-2.416.7387-2.915 1.6771h-.04v-5.79h-1.897v13.7762h1.897v-4.6919c0-1.8967.739-3.3941 2.476-3.3941s1.956 1.3576 1.956 2.7153v5.3707z"/><path d="m198.083 82.162c0-2.6554-1.856-4.5322-4.492-4.5322-2.635 0-4.811 1.9167-4.811 4.9115 0 3.0148 1.936 4.9714 4.751 4.9714 2.835 0 4.053-1.3976 4.173-1.4974l-.799-1.0981c-.219.1398-1.357 1.0981-3.134 1.0981-1.757 0-2.955-1.138-3.055-3.0148h7.308s.059-.4791.059-.8385zm-1.816-.4393h-5.531c.06-1.138.899-2.7153 2.795-2.7153 1.917 0 2.716 1.6572 2.736 2.7153z"/><path d="m213.886 82.5413c0-2.7952-1.796-4.9115-4.572-4.9115-1.497 0-2.635.6189-3.314 1.6571h-.04v-5.77h-1.897v13.7762h1.837v-1.4974h.04c.779 1.158 1.957 1.717 3.334 1.717 2.816 0 4.612-2.1562 4.612-4.9714zm-1.956-.02c0 1.8968-1.118 3.3543-3.015 3.3543s-3.035-1.4575-3.035-3.3543c0-1.8967 1.138-3.3342 3.035-3.3342s3.015 1.4375 3.015 3.3342z"/><path d="m224.542 82.162c0-2.6554-1.857-4.5322-4.493-4.5322-2.635 0-4.811 1.9167-4.811 4.9115 0 3.0148 1.936 4.9714 4.751 4.9714 2.836 0 4.053-1.3976 4.173-1.4974l-.798-1.0981c-.22.1398-1.358 1.0981-3.135 1.0981-1.757 0-2.955-1.138-3.055-3.0148h7.308s.06-.4791.06-.8385zm-1.817-.4393h-5.531c.06-1.138.899-2.7153 2.795-2.7153 1.917 0 2.716 1.6572 2.736 2.7153z"/><path d="m232.833 84.5179c0-1.2379-.798-1.9965-1.857-2.4358-.399-.1597-.758-.2795-1.277-.4592-.939-.2995-1.857-.6389-1.857-1.4176 0-.7786.599-1.1779 1.517-1.1779.919 0 1.837.4392 2.396 1.0182l.799-1.1779c-.599-.6389-1.558-1.2379-3.235-1.2379s-3.194.9583-3.194 2.7153c0 1.7969 1.397 2.296 2.795 2.7752.639.2196 2.136.5391 2.136 1.5773s-.938 1.3576-1.817 1.3576c-.878 0-1.996-.5191-2.795-1.3576l-.918 1.1181c.798 1.0382 2.096 1.697 3.693 1.697 1.837 0 3.614-.9583 3.614-2.9948z"/><path d="m239.323 87.1933-.119-1.5374s-.42.2197-.979.2197c-.539 0-.798-.1797-.978-.4792-.22-.3993-.24-.9384-.24-1.737v-4.2926h2.276v-1.5373h-2.276v-2.8351h-1.916v2.8351h-1.398v1.5373h1.398v4.3325c0 1.8568.119 3.8134 2.495 3.8134.659 0 1.238-.0998 1.737-.3194z"/><path d="m243.926 86.2549c0-.7787-.559-1.2578-1.317-1.2578-.779 0-1.338.4791-1.338 1.2578 0 .7587.559 1.2379 1.338 1.2379.758 0 1.317-.4792 1.317-1.2379z"/><path d="m262.534 87.2931-5.63-13.8161h-1.697l-5.611 13.8161h2.037l1.418-3.5938h5.909l1.418 3.5938zm-4.113-5.211h-4.831l2.415-6.1893z"/><path d="m272.145 87.2931v-5.6103c0-2.2761-.699-4.053-3.394-4.053-1.378 0-2.396.7387-2.895 1.6771h-.06l.02-1.4974h-1.917v9.4836h1.917v-4.7718c0-1.8168.659-3.3142 2.436-3.3142 1.697 0 1.976 1.1979 1.976 2.7951v5.2909z"/><path d="m283.885 87.2931v-13.7762h-1.897v5.77h-.04c-.659-.9783-1.777-1.6571-3.314-1.6571-2.775 0-4.572 2.1163-4.572 4.9115 0 2.8152 1.797 4.9714 4.612 4.9714 1.378 0 2.556-.579 3.334-1.737h.04v1.5174zm-1.837-4.7718c0 1.8968-1.118 3.3543-3.015 3.3543-1.896 0-3.014-1.4575-3.014-3.3543 0-1.8967 1.118-3.3342 3.014-3.3342 1.897 0 3.015 1.4375 3.015 3.3342z"/><path d="m304.268 77.8095h-1.937l-2.196 7.1676-2.496-7.1876h-1.537l-2.496 7.1876-2.196-7.1676h-1.937l3.135 9.4836h1.757l2.515-7.0878 2.496 7.0878h1.757z"/><path d="m314.126 87.2931v-5.6502c0-2.2561-.659-4.0131-3.395-4.0131-1.377 0-2.415.7387-2.915 1.6771h-.04v-5.79h-1.896v13.7762h1.896v-4.6919c0-1.8967.739-3.3941 2.476-3.3941s1.957 1.3576 1.957 2.7153v5.3707z"/><path d="m325.383 82.162c0-2.6554-1.857-4.5322-4.492-4.5322-2.636 0-4.812 1.9167-4.812 4.9115 0 3.0148 1.937 4.9714 4.752 4.9714 2.835 0 4.053-1.3976 4.173-1.4974l-.799-1.0981c-.219.1398-1.358 1.0981-3.134 1.0981-1.757 0-2.955-1.138-3.055-3.0148h7.307s.06-.4791.06-.8385zm-1.817-.4393h-5.53c.06-1.138.898-2.7153 2.795-2.7153 1.917 0 2.715 1.6572 2.735 2.7153z"/><path d="m335.531 87.2931v-5.6103c0-2.2761-.698-4.053-3.394-4.053-1.377 0-2.395.7387-2.895 1.6771h-.06l.02-1.4974h-1.916v9.4836h1.916v-4.7718c0-1.8168.659-3.3142 2.436-3.3142 1.697 0 1.977 1.1979 1.977 2.7951v5.2909z"/><path d="m344.341 74.6949c0-.6789-.519-1.178-1.238-1.178-.739 0-1.258.4991-1.258 1.178 0 .6788.519 1.1779 1.258 1.1779.719 0 1.238-.4991 1.238-1.1779zm-.28 12.5982v-9.4836h-1.916v9.4836z"/><path d="m351.395 87.1933-.119-1.5374s-.42.2197-.979.2197c-.539 0-.798-.1797-.978-.4792-.22-.3993-.24-.9384-.24-1.737v-4.2926h2.276v-1.5373h-2.276v-2.8351h-1.916v2.8351h-1.398v1.5373h1.398v4.3325c0 1.8568.119 3.8134 2.495 3.8134.659 0 1.238-.0998 1.737-.3194z"/><path d="m356.553 73.5169h-1.957l-1.338 4.2726h1.518z"/><path d="m363.798 84.5179c0-1.2379-.798-1.9965-1.856-2.4358-.4-.1597-.759-.2795-1.278-.4592-.939-.2995-1.857-.6389-1.857-1.4176 0-.7786.599-1.1779 1.517-1.1779.919 0 1.837.4392 2.396 1.0182l.799-1.1779c-.599-.6389-1.557-1.2379-3.234-1.2379-1.678 0-3.195.9583-3.195 2.7153 0 1.7969 1.398 2.296 2.795 2.7752.639.2196 2.137.5391 2.137 1.5773s-.939 1.3576-1.817 1.3576c-.879 0-1.997-.5191-2.796-1.3576l-.918 1.1181c.799 1.0382 2.096 1.697 3.694 1.697 1.837 0 3.613-.9583 3.613-2.9948z"/><path d="m33.5071 111.745-.6789-1.397s-1.0382 1.198-2.895 1.198c-1.8368 0-3.0747-1.378-3.0747-3.375 0-1.996 1.3976-3.274 3.0747-3.274s2.5157.839 2.8351 1.158l.6789-1.398c-.0999-.119-1.1381-1.357-3.6737-1.357-2.5157 0-4.8516 1.877-4.8516 4.931 0 3.035 2.2361 4.952 4.7917 4.952 2.5356 0 3.5139-1.158 3.7935-1.438z"/><path d="m44.4404 108.251c0-2.935-2.1962-4.951-5.0114-4.951-2.8351 0-5.0313 2.016-5.0313 4.951 0 2.955 2.1962 4.932 5.0313 4.932 2.8152 0 5.0114-1.977 5.0114-4.932zm-1.9367-.06c0 1.877-1.178 3.355-3.0747 3.355-1.9167 0-3.0946-1.478-3.0946-3.355 0-1.856 1.1779-3.334 3.0946-3.334 1.8967 0 3.0747 1.478 3.0747 3.334z"/><path d="m54.6884 112.963v-5.61c0-2.276-.6988-4.053-3.3941-4.053-1.3776 0-2.3959.738-2.895 1.677h-.0599l.02-1.498h-1.9167v9.484h1.9167v-4.772c0-1.817.6588-3.314 2.4358-3.314 1.697 0 1.9765 1.198 1.9765 2.795v5.291z"/><path d="m65.4901 112.963v-5.61c0-2.276-.6988-4.053-3.3941-4.053-1.3777 0-2.3959.738-2.895 1.677h-.0599l.0199-1.498h-1.9167v9.484h1.9167v-4.772c0-1.817.6589-3.314 2.4358-3.314 1.6971 0 1.9766 1.198 1.9766 2.795v5.291z"/><path d="m76.711 107.832c0-2.655-1.8568-4.532-4.4922-4.532-2.6355 0-4.8117 1.916-4.8117 4.911 0 3.015 1.9367 4.972 4.7518 4.972 2.8351 0 4.053-1.398 4.1728-1.498l-.7986-1.098c-.2197.14-1.3577 1.098-3.1346 1.098-1.757 0-2.9549-1.138-3.0547-3.015h7.3073s.0599-.479.0599-.838zm-1.8168-.439h-5.5305c.0599-1.138.8985-2.716 2.7952-2.716 1.9167 0 2.7153 1.658 2.7353 2.716z"/><path d="m86.6574 111.745-.6788-1.397s-1.0382 1.198-2.895 1.198c-1.8368 0-3.0747-1.378-3.0747-3.375 0-1.996 1.3976-3.274 3.0747-3.274s2.5157.839 2.8351 1.158l.6788-1.398c-.0998-.119-1.138-1.357-3.6736-1.357-2.5157 0-4.8516 1.877-4.8516 4.931 0 3.035 2.2361 4.952 4.7917 4.952 2.5356 0 3.5139-1.158 3.7934-1.438z"/><path d="m92.799 112.863-.1198-1.537s-.4192.22-.9783.22c-.539 0-.7986-.18-.9783-.48-.2196-.399-.2396-.938-.2396-1.737v-4.292h2.2761v-1.538h-2.2761v-2.835h-1.9167v2.835h-1.3976v1.538h1.3976v4.332c0 1.857.1198 3.814 2.4957 3.814.6589 0 1.2379-.1 1.737-.32z"/><path d="m103.052 107.832c0-2.655-1.857-4.532-4.492-4.532-2.6354 0-4.8117 1.916-4.8117 4.911 0 3.015 1.9367 4.972 4.7518 4.972 2.8349 0 4.0529-1.398 4.1729-1.498l-.799-1.098c-.219.14-1.357 1.098-3.1343 1.098-1.757 0-2.9549-1.138-3.0547-3.015h7.307s.06-.479.06-.838zm-1.817-.439h-5.5301c.0599-1.138.8985-2.716 2.7952-2.716 1.9169 0 2.7149 1.658 2.7349 2.716z"/><path d="m114.237 112.963v-13.7761h-1.897v5.7701h-.04c-.659-.978-1.777-1.657-3.314-1.657-2.776 0-4.573 2.116-4.573 4.911 0 2.815 1.797 4.972 4.613 4.972 1.377 0 2.555-.579 3.334-1.737h.04v1.517zm-1.837-4.772c0 1.897-1.118 3.355-3.015 3.355s-3.015-1.458-3.015-3.355c0-1.896 1.118-3.334 3.015-3.334s3.015 1.438 3.015 3.334z"/><path d="m125.555 112.863-.12-1.537s-.419.22-.978.22c-.539 0-.799-.18-.978-.48-.22-.399-.24-.938-.24-1.737v-4.292h2.276v-1.538h-2.276v-2.835h-1.917v2.835h-1.397v1.538h1.397v4.332c0 1.857.12 3.814 2.496 3.814.659 0 1.238-.1 1.737-.32z"/><path d="m136.547 108.251c0-2.935-2.196-4.951-5.011-4.951-2.836 0-5.032 2.016-5.032 4.951 0 2.955 2.196 4.932 5.032 4.932 2.815 0 5.011-1.977 5.011-4.932zm-1.937-.06c0 1.877-1.178 3.355-3.074 3.355-1.917 0-3.095-1.478-3.095-3.355 0-1.856 1.178-3.334 3.095-3.334 1.896 0 3.074 1.478 3.074 3.334z"/><path d="m150.812 103.479-1.976-.02-2.795 7.388-2.875-7.368-1.997-.02 3.853 9.304-.459 1.258c-.259.699-.459 1.118-1.238 1.118-.479 0-.998-.219-.998-.219l-.379 1.557s.738.339 1.797.339c1.058 0 1.836-.559 2.495-2.196z"/><path d="m161.426 108.251c0-2.935-2.196-4.951-5.012-4.951-2.835 0-5.031 2.016-5.031 4.951 0 2.955 2.196 4.932 5.031 4.932 2.816 0 5.012-1.977 5.012-4.932zm-1.937-.06c0 1.877-1.178 3.355-3.075 3.355-1.916 0-3.094-1.478-3.094-3.355 0-1.856 1.178-3.334 3.094-3.334 1.897 0 3.075 1.478 3.075 3.334z"/><path d="m171.494 112.963v-9.504h-1.916v5.092c0 1.597-.679 3.034-2.356 3.034-1.697 0-1.977-1.217-1.977-2.515v-5.611h-1.897v5.691c0 2.356.699 4.033 3.335 4.033 1.337 0 2.415-.659 2.934-1.578l.02 1.358z"/><path d="m179.423 103.459s-.359-.159-.998-.159c-1.018 0-1.877.559-2.336 1.637h-.06l.02-1.458h-1.917v9.484h1.917v-4.732c0-1.377.419-3.194 2.136-3.194.519 0 .859.12 1.039.199h.079z"/><path d="m194.72 108.211c0-2.795-1.797-4.911-4.572-4.911-1.497 0-2.635.619-3.314 1.657h-.04v-5.7701h-1.897v13.7761h1.837v-1.497h.04c.779 1.158 1.957 1.717 3.334 1.717 2.815 0 4.612-2.157 4.612-4.972zm-1.956-.02c0 1.897-1.118 3.355-3.015 3.355s-3.035-1.458-3.035-3.355c0-1.896 1.138-3.334 3.035-3.334s3.015 1.438 3.015 3.334z"/><path d="m204.078 112.963v-5.51c0-2.756-1.378-4.153-4.153-4.153-1.577 0-2.855.559-3.554.958l.579 1.278c.32-.2 1.478-.819 2.855-.819 1.378 0 2.356.719 2.356 2.157v.379l-2.536.1c-2.196.1-3.713 1.038-3.713 2.895 0 1.837 1.517 2.935 3.274 2.935 1.737 0 2.636-1.019 3.015-1.418l.02 1.198zm-1.897-4.552v2.036c-.359.539-1.178 1.378-2.416 1.378-1.258 0-1.956-.739-1.956-1.637 0-.899.619-1.557 2.156-1.637z"/><path d="m214.783 112.963v-5.61c0-2.276-.699-4.053-3.394-4.053-1.378 0-2.396.738-2.895 1.677h-.06l.02-1.498h-1.917v9.484h1.917v-4.772c0-1.817.659-3.314 2.436-3.314 1.697 0 1.976 1.198 1.976 2.795v5.291z"/><path d="m225.924 112.963-4.193-5.91 3.714-3.574h-2.236l-3.874 3.794v-8.0861h-1.896v13.7761h1.896v-3.554l1.099-1.038 3.254 4.592z"/><path d="m230.323 110.847h-1.957l-1.398 4.911h1.518z"/><path d="m239.327 100.365c0-.679-.519-1.1781-1.238-1.1781-.739 0-1.258.4991-1.258 1.1781s.519 1.178 1.258 1.178c.719 0 1.238-.499 1.238-1.178zm-.279 12.598v-9.484h-1.917v9.484z"/><path d="m246.381 112.863-.119-1.537s-.42.22-.979.22c-.539 0-.798-.18-.978-.48-.22-.399-.24-.938-.24-1.737v-4.292h2.276v-1.538h-2.276v-2.835h-1.916v2.835h-1.398v1.538h1.398v4.332c0 1.857.12 3.814 2.495 3.814.659 0 1.238-.1 1.737-.32z"/><path d="m254.223 100.365c0-.679-.519-1.1781-1.238-1.1781-.738 0-1.258.4991-1.258 1.1781s.52 1.178 1.258 1.178c.719 0 1.238-.499 1.238-1.178zm-.279 12.598v-9.484h-1.917v9.484z"/><path d="m263.055 110.188c0-1.238-.799-1.997-1.857-2.436-.4-.16-.759-.279-1.278-.459-.938-.3-1.857-.639-1.857-1.418 0-.778.599-1.178 1.517-1.178.919 0 1.837.44 2.396 1.019l.799-1.178c-.599-.639-1.557-1.238-3.234-1.238-1.678 0-3.195.958-3.195 2.715 0 1.797 1.398 2.296 2.795 2.775.639.22 2.137.539 2.137 1.578 0 1.038-.939 1.357-1.817 1.357-.879 0-1.997-.519-2.795-1.357l-.919 1.118c.799 1.038 2.096 1.697 3.694 1.697 1.837 0 3.614-.959 3.614-2.995z"/><path d="m275.299 110.188c0-1.238-.799-1.997-1.857-2.436-.399-.16-.759-.279-1.278-.459-.938-.3-1.856-.639-1.856-1.418 0-.778.599-1.178 1.517-1.178s1.837.44 2.396 1.019l.798-1.178c-.599-.639-1.557-1.238-3.234-1.238s-3.194.958-3.194 2.715c0 1.797 1.397 2.296 2.795 2.775.639.22 2.136.539 2.136 1.578 0 1.038-.938 1.357-1.817 1.357-.878 0-1.996-.519-2.795-1.357l-.918 1.118c.798 1.038 2.096 1.697 3.693 1.697 1.837 0 3.614-.959 3.614-2.995z"/><path d="m279.453 100.365c0-.679-.519-1.1781-1.238-1.1781-.739 0-1.258.4991-1.258 1.1781s.519 1.178 1.258 1.178c.719 0 1.238-.499 1.238-1.178zm-.279 12.598v-9.484h-1.917v9.484z"/><path d="m295.632 112.963v-5.75c0-2.056-.679-3.913-3.215-3.913-1.337 0-2.376.679-3.015 1.877-.439-1.238-1.417-1.877-2.815-1.877-1.258 0-2.296.798-2.735 1.677h-.06l.02-1.498h-1.917v9.484h1.917v-4.931c0-1.697.759-3.155 2.276-3.155 1.378 0 1.717 1.158 1.717 2.556v5.53h1.917v-4.931c0-1.697.759-3.155 2.276-3.155 1.537 0 1.737 1.458 1.737 2.556v5.53z"/><path d="m308.098 108.211c0-2.815-1.777-4.911-4.572-4.911-1.397 0-2.535.559-3.374 1.677h-.04v-1.498h-1.837v13.198h1.917v-5.211l.02.02c.679 1.058 1.777 1.697 3.274 1.697 2.815 0 4.612-2.157 4.612-4.972zm-1.956-.02c0 1.897-1.118 3.355-3.015 3.355s-3.015-1.458-3.015-3.355c0-1.896 1.118-3.334 3.015-3.334s3.015 1.438 3.015 3.334z"/><path d="m312.085 112.963v-13.7761h-1.896v13.7761z"/><path d="m323.492 107.832c0-2.655-1.857-4.532-4.492-4.532-2.636 0-4.812 1.916-4.812 4.911 0 3.015 1.937 4.972 4.752 4.972 2.835 0 4.053-1.398 4.172-1.498l-.798-1.098c-.22.14-1.358 1.098-3.135 1.098-1.757 0-2.955-1.138-3.054-3.015h7.307s.06-.479.06-.838zm-1.817-.439h-5.53c.059-1.138.898-2.716 2.795-2.716 1.916 0 2.715 1.658 2.735 2.716z"/><path d="m333.984 112.863-.12-1.537s-.419.22-.978.22c-.539 0-.799-.18-.978-.48-.22-.399-.24-.938-.24-1.737v-4.292h2.276v-1.538h-2.276v-2.835h-1.917v2.835h-1.397v1.538h1.397v4.332c0 1.857.12 3.814 2.496 3.814.659 0 1.238-.1 1.737-.32z"/><path d="m344.976 108.251c0-2.935-2.196-4.951-5.011-4.951-2.835 0-5.032 2.016-5.032 4.951 0 2.955 2.197 4.932 5.032 4.932 2.815 0 5.011-1.977 5.011-4.932zm-1.937-.06c0 1.877-1.178 3.355-3.074 3.355-1.917 0-3.095-1.478-3.095-3.355 0-1.856 1.178-3.334 3.095-3.334 1.896 0 3.074 1.478 3.074 3.334z"/><path d="m39.2971 138.633v-5.75c0-2.056-.6789-3.913-3.2145-3.913-1.3377 0-2.3759.679-3.0148 1.876-.4392-1.237-1.4175-1.876-2.8151-1.876-1.2579 0-2.2961.798-2.7353 1.677h-.0599l.02-1.498h-1.9167v9.484h1.9167v-4.931c0-1.698.7587-3.155 2.276-3.155 1.3777 0 1.7171 1.158 1.7171 2.556v5.53h1.9167v-4.931c0-1.698.7587-3.155 2.276-3.155 1.5374 0 1.737 1.457 1.737 2.556v5.53z"/><path d="m49.228 138.633v-5.51c0-2.756-1.3776-4.153-4.1528-4.153-1.5773 0-2.8551.559-3.5539.958l.579 1.278c.3195-.2 1.4775-.819 2.8551-.819s2.3559.719 2.3559 2.157v.379l-2.5356.1c-2.1962.1-3.7136 1.038-3.7136 2.895 0 1.837 1.5174 2.935 3.2744 2.935 1.737 0 2.6354-1.019 3.0148-1.418l.0199 1.198zm-1.8967-4.552v2.036c-.3594.539-1.178 1.378-2.4158 1.378-1.2579 0-1.9566-.739-1.9566-1.637 0-.899.6189-1.558 2.1562-1.637z"/><path d="m60.2727 138.633-4.1928-5.91 3.7136-3.574h-2.2361l-3.8733 3.794v-8.086h-1.8967v13.776h1.8967v-3.554l1.0981-1.038 3.2544 4.592z"/><path d="m70.0819 133.502c0-2.656-1.8568-4.532-4.4923-4.532-2.6354 0-4.8117 1.916-4.8117 4.911 0 3.015 1.9367 4.972 4.7518 4.972 2.8351 0 4.053-1.398 4.1728-1.498l-.7986-1.098c-.2196.14-1.3577 1.098-3.1346 1.098-1.757 0-2.9549-1.138-3.0547-3.015h7.3074s.0599-.479.0599-.838zm-1.8169-.439h-5.5305c.0599-1.138.8985-2.716 2.7952-2.716 1.9167 0 2.7153 1.657 2.7353 2.716z"/><path d="m83.3293 138.633v-5.51c0-2.756-1.3776-4.153-4.1528-4.153-1.5773 0-2.8551.559-3.5539.958l.579 1.278c.3194-.2 1.4774-.819 2.8551-.819 1.3776 0 2.3559.719 2.3559 2.157v.379l-2.5356.1c-2.1962.1-3.7136 1.038-3.7136 2.895 0 1.837 1.5174 2.935 3.2743 2.935 1.737 0 2.6355-1.019 3.0148-1.418l.02 1.198zm-1.8967-4.552v2.036c-.3594.539-1.178 1.378-2.4159 1.378-1.2578 0-1.9566-.739-1.9566-1.637 0-.899.6189-1.558 2.1563-1.637z"/><path d="m94.0345 138.633v-5.61c0-2.276-.6987-4.053-3.3941-4.053-1.3776 0-2.3959.738-2.895 1.677h-.0599l.02-1.498h-1.9167v9.484h1.9167v-4.772c0-1.817.6588-3.314 2.4358-3.314 1.697 0 1.9766 1.198 1.9766 2.795v5.291z"/><path d="m105.775 138.633v-13.776h-1.897v5.77h-.04c-.659-.978-1.777-1.657-3.314-1.657-2.7756 0-4.5724 2.116-4.5724 4.911 0 2.815 1.7968 4.972 4.6124 4.972 1.377 0 2.555-.579 3.334-1.737h.04v1.517zm-1.837-4.772c0 1.897-1.118 3.354-3.015 3.354-1.8968 0-3.0148-1.457-3.0148-3.354 0-1.896 1.118-3.334 3.0148-3.334 1.897 0 3.015 1.438 3.015 3.334z"/><path d="m117.093 138.533-.12-1.537s-.419.219-.978.219c-.539 0-.799-.179-.978-.479-.22-.399-.24-.938-.24-1.737v-4.292h2.276v-1.538h-2.276v-2.835h-1.917v2.835h-1.397v1.538h1.397v4.332c0 1.857.12 3.814 2.496 3.814.659 0 1.238-.1 1.737-.32z"/><path d="m123.972 129.129s-.359-.159-.998-.159c-1.018 0-1.877.559-2.336 1.637h-.06l.02-1.458h-1.917v9.484h1.917v-4.732c0-1.377.419-3.194 2.136-3.194.519 0 .859.119 1.038.199h.08z"/><path d="m132.346 138.633v-5.51c0-2.756-1.377-4.153-4.153-4.153-1.577 0-2.855.559-3.554.958l.58 1.278c.319-.2 1.477-.819 2.855-.819 1.377 0 2.356.719 2.356 2.157v.379l-2.536.1c-2.196.1-3.714 1.038-3.714 2.895 0 1.837 1.518 2.935 3.275 2.935 1.737 0 2.635-1.019 3.014-1.418l.02 1.198zm-1.897-4.552v2.036c-.359.539-1.177 1.378-2.415 1.378-1.258 0-1.957-.739-1.957-1.637 0-.899.619-1.558 2.156-1.637z"/><path d="m142.752 137.415-.679-1.397s-1.038 1.197-2.895 1.197c-1.837 0-3.075-1.377-3.075-3.374 0-1.996 1.398-3.274 3.075-3.274s2.516.838 2.835 1.158l.679-1.398c-.1-.119-1.138-1.357-3.674-1.357-2.515 0-4.851 1.876-4.851 4.931 0 3.035 2.236 4.952 4.792 4.952 2.535 0 3.513-1.158 3.793-1.438z"/><path d="m152.867 138.633-4.193-5.91 3.714-3.574h-2.237l-3.873 3.794v-8.086h-1.897v13.776h1.897v-3.554l1.098-1.038 3.255 4.592z"/><path d="m166.274 129.149-1.977-.02-2.795 7.388-2.875-7.368-1.996-.02 3.853 9.304-.459 1.258c-.26.699-.459 1.118-1.238 1.118-.479 0-.998-.219-.998-.219l-.38 1.557s.739.339 1.797.339 1.837-.559 2.496-2.196z"/><path d="m176.887 133.921c0-2.935-2.196-4.951-5.011-4.951-2.835 0-5.031 2.016-5.031 4.951 0 2.955 2.196 4.932 5.031 4.932 2.815 0 5.011-1.977 5.011-4.932zm-1.936-.06c0 1.877-1.178 3.354-3.075 3.354-1.917 0-3.095-1.477-3.095-3.354 0-1.857 1.178-3.334 3.095-3.334 1.897 0 3.075 1.477 3.075 3.334z"/><path d="m186.956 138.633v-9.504h-1.917v5.092c0 1.597-.679 3.034-2.356 3.034-1.697 0-1.976-1.218-1.976-2.515v-5.611h-1.897v5.691c0 2.356.699 4.033 3.334 4.033 1.338 0 2.416-.659 2.935-1.578l.02 1.358z"/><path d="m194.885 129.129s-.36-.159-.999-.159c-1.018 0-1.876.559-2.336 1.637h-.059l.02-1.458h-1.917v9.484h1.917v-4.732c0-1.377.419-3.194 2.136-3.194.519 0 .858.119 1.038.199h.08z"/><path d="m210.182 133.881c0-2.795-1.797-4.911-4.572-4.911-1.498 0-2.636.619-3.314 1.657h-.04v-5.77h-1.897v13.776h1.837v-1.497h.04c.778 1.158 1.956 1.717 3.334 1.717 2.815 0 4.612-2.157 4.612-4.972zm-1.957-.02c0 1.897-1.118 3.354-3.014 3.354-1.897 0-3.035-1.457-3.035-3.354 0-1.896 1.138-3.334 3.035-3.334 1.896 0 3.014 1.438 3.014 3.334z"/><path d="m220.238 138.633v-9.504h-1.917v5.092c0 1.597-.678 3.034-2.355 3.034-1.698 0-1.977-1.218-1.977-2.515v-5.611h-1.897v5.691c0 2.356.699 4.033 3.334 4.033 1.338 0 2.416-.659 2.935-1.578l.02 1.358z"/><path d="m232.06 138.633v-13.776h-1.896v5.77h-.04c-.659-.978-1.777-1.657-3.315-1.657-2.775 0-4.572 2.116-4.572 4.911 0 2.815 1.797 4.972 4.612 4.972 1.378 0 2.556-.579 3.335-1.737h.04v1.517zm-1.836-4.772c0 1.897-1.119 3.354-3.015 3.354-1.897 0-3.015-1.457-3.015-3.354 0-1.896 1.118-3.334 3.015-3.334 1.896 0 3.015 1.438 3.015 3.334z"/><path d="m243.973 136.636v-7.487h-1.896l.02 1.498h-.06c-.559-.879-1.657-1.677-3.315-1.677-2.435 0-4.572 1.757-4.572 4.771 0 3.015 2.137 4.772 4.572 4.772 1.598 0 2.676-.739 3.315-1.697h.04v.479c0 2.236-.899 3.694-3.315 3.694-1.417 0-2.895-.759-3.394-1.198l-.898 1.338c.279.199 1.897 1.417 4.232 1.417 2.356 0 3.534-.958 4.233-1.817.699-.838 1.038-1.996 1.038-4.093zm-1.836-2.895c0 1.797-1.059 3.215-3.015 3.215-1.937 0-3.015-1.418-3.015-3.215 0-1.796 1.078-3.234 3.015-3.234 1.956 0 3.015 1.438 3.015 3.234z"/><path d="m255.289 133.502c0-2.656-1.856-4.532-4.492-4.532-2.635 0-4.812 1.916-4.812 4.911 0 3.015 1.937 4.972 4.752 4.972 2.835 0 4.053-1.398 4.173-1.498l-.799-1.098c-.219.14-1.357 1.098-3.134 1.098-1.757 0-2.955-1.138-3.055-3.015h7.307s.06-.479.06-.838zm-1.817-.439h-5.53c.06-1.138.898-2.716 2.795-2.716 1.917 0 2.715 1.657 2.735 2.716z"/><path d="m261.804 138.533-.12-1.537s-.419.219-.978.219c-.539 0-.799-.179-.978-.479-.22-.399-.24-.938-.24-1.737v-4.292h2.276v-1.538h-2.276v-2.835h-1.917v2.835h-1.397v1.538h1.397v4.332c0 1.857.12 3.814 2.496 3.814.659 0 1.238-.1 1.737-.32z"/><path d="m266.407 137.595c0-.779-.559-1.258-1.318-1.258-.778 0-1.337.479-1.337 1.258 0 .759.559 1.238 1.337 1.238.759 0 1.318-.479 1.318-1.238z"/><path d="m31.7912 225.149-2.296-.938c-.7188-.299-1.5773-.679-1.5773-1.677 0-1.018.8984-1.577 2.0365-1.577 1.1779 0 2.2361.579 3.1146 1.377l1.2379-1.857c-.8186-.838-2.2362-1.657-4.1928-1.657-2.895 0-4.7718 1.657-4.7718 4.053 0 1.677.9983 2.736 2.4957 3.335l2.1563.858c1.178.479 1.8967.839 1.8967 1.917 0 1.198-.8784 1.817-2.1562 1.817-1.2978 0-2.5956-.639-3.6737-1.817l-1.2379 1.877c.8985 1.038 2.5157 2.136 4.8716 2.136 2.915 0 4.7918-1.697 4.7918-4.253 0-1.717-.7587-2.795-2.6954-3.594z"/><path d="m39.2377 229.003v-3.914h2.2362v-1.976h-2.2362v-2.755h-2.5356v2.755h-1.4375v1.976h1.4375v4.473c0 2.515.8186 3.414 2.7952 3.414 1.0781 0 1.8368-.28 1.9566-.32l-.1398-1.976s-.3993.16-.9184.16c-.8984 0-1.158-.36-1.158-1.837z"/><path d="m48.5413 231.638.04 1.118h2.4557v-5.53c0-1.637-.3593-2.516-1.0581-3.195-.7188-.679-1.6971-1.118-3.4141-1.118-1.6771 0-3.0348.579-3.7735 1.018l.7786 1.638c.4193-.32 1.4775-.799 2.7553-.799 1.3377 0 2.1562.579 2.1562 1.817v.259l-2.316.16c-1.9965.14-3.9731.919-3.9731 2.935 0 2.017 1.5174 3.035 3.3941 3.035 1.4376 0 2.5556-.639 2.9549-1.338zm-1.7769-3.134 1.737-.1v1.777c-.3394.479-1.0781 1.058-2.0764 1.058-1.0582 0-1.6771-.559-1.6771-1.378 0-.818.6589-1.278 2.0165-1.357z"/><path d="m60.6729 229.801.7187 1.877c-.1996.18-1.1979 1.298-3.7734 1.298-2.6355 0-5.0713-1.817-5.0713-4.972 0-3.174 2.5157-5.091 5.1112-5.091 2.4358 0 3.3941.979 3.6537 1.238l-.6988 1.917c-.2995-.28-1.158-1.018-2.6554-1.018-1.5174 0-2.7353 1.058-2.7353 2.835s1.2179 2.935 2.875 2.935c1.6572 0 2.5756-1.019 2.5756-1.019z"/><path d="m64.7566 228.743h7.1077s.04-.798.04-1.298c0-2.575-1.7969-4.532-4.7718-4.532-2.7552 0-5.0113 2.077-5.0113 5.171 0 3.115 2.1562 4.892 5.0712 4.892 2.3559 0 3.8134-.998 4.3525-1.557l-.9983-1.378c-.4592.399-1.6172.978-2.9149.978-1.4575 0-2.6355-.738-2.8751-2.276zm2.3559-3.933c1.7969 0 2.1963 1.218 2.2362 2.276h-4.632c.0798-1.218.8785-2.276 2.3958-2.276z"/><path d="m72.3429 223.093 3.9931 9.723-.4193.998c-.1996.5-.6189.639-1.118.639-.4792 0-1.1581-.239-1.1581-.239l-.5191 1.956s.8985.4 2.2761.4c1.3577 0 2.1563-.819 2.8551-2.516l4.4922-10.961h-2.6554l-2.5156 6.848-2.5556-6.848z"/></g></svg>