<svg width="1087" height="144" viewBox="0 0 1087 144" fill="none" xmlns="http://www.w3.org/2000/svg">
<path d="M0.368015 98.4374C0.367202 98.5017 1.18852 98.6341 1.70261 98.6538C2.85413 98.7008 4.02678 98.6945 5.17851 98.7254C5.6721 98.7394 6.47366 98.8071 6.51406 98.8668C6.61541 98.9865 6.4283 99.1388 6.09798 99.2295C5.87097 99.2845 5.10963 99.2926 4.65738 99.2633C3.21843 99.1683 2.49744 99.2415 1.95804 99.5967C2.5136 99.5903 2.98698 99.5825 3.46027 99.5748C3.5625 99.6248 3.66475 99.6749 3.60332 99.6523C3.60325 99.6577 3.60325 99.6577 3.60332 99.6523C4.71398 99.6772 5.6605 99.6669 6.44137 99.7396C6.79071 99.7725 6.78802 99.9816 7.03241 100.179C6.41595 100.12 6.25164 100.096 6.10766 100.093C5.53159 100.094 4.87355 100.071 4.46149 100.118C4.25546 100.141 4.33527 100.335 4.56052 100.42C4.84706 100.537 5.42207 100.623 5.87344 100.722C6.34531 100.826 6.81709 100.937 7.26832 101.046C7.80156 101.179 8.23143 101.348 8.88855 101.445C10.5724 101.7 10.8587 101.833 10.0516 102.211C9.67911 102.381 9.65696 102.504 10.5399 102.643C11.8951 102.854 11.9344 103 10.882 103.255C10.4692 103.355 9.91273 103.431 9.52056 103.531C9.29356 103.586 9.1073 103.674 9.14756 103.744C9.40967 104.167 9.85704 104.588 9.97517 105.008C10.0143 105.17 9.33328 105.33 8.87818 105.525L11.5527 105.524C11.5077 105.834 13.0878 106.152 11.0281 106.341C12.3604 106.734 12.2562 106.845 14.9745 106.64C14.8696 106.799 14.8886 106.928 14.7021 107.032C13.832 107.505 13.744 107.949 15.6109 108.373C16.6776 108.617 17.5382 108.895 18.5636 109.149C18.7892 109.206 19.2825 109.247 19.6528 109.253C21.5451 109.287 22.1197 109.409 21.8473 109.796C21.7217 109.965 22.0087 110.045 22.7279 110.117C23.0567 110.15 23.3842 110.279 23.3627 110.353C23.2768 110.641 22.5941 110.94 24.546 111.141C24.1135 111.182 23.9692 111.206 23.7839 111.213C23.4134 111.228 23.043 111.227 22.693 111.253C22.2194 111.282 21.6842 111.305 21.3131 111.368C20.3236 111.528 20.4863 111.67 21.678 111.793C22.0273 111.831 22.4997 111.893 22.5606 111.959C23.0687 112.45 24.2558 112.943 22.974 113.435C22.8914 113.466 22.9319 113.51 22.9314 113.553C22.9278 113.831 22.534 114.06 21.1953 114.176C20.1242 114.27 19.0942 114.386 17.7758 114.519C18.6377 114.689 19.3968 114.858 20.2385 115.007C21.1828 115.168 21.2017 115.297 20.1713 115.435C19.7591 115.492 19.1413 115.535 18.9963 115.618C18.7267 115.785 18.7448 115.978 18.6188 116.185C18.8653 116.211 19.3381 116.251 19.5846 116.277C19.8908 116.47 20.1563 116.619 20.4422 116.791C19.5773 116.856 18.9997 116.98 19.5933 117.221C19.6547 117.249 19.5716 117.301 19.4889 117.332C18.9091 117.627 19.2973 117.848 20.6526 118.044C21.4536 118.154 21.9038 118.35 21.2226 118.531C20.562 118.713 20.1274 118.903 19.7133 119.111C19.1959 119.359 17.5892 119.513 17.6669 119.874C15.6696 120.005 16.0355 120.36 16.1138 120.678C16.1527 120.85 15.8842 120.942 15.1427 121.009C13.9687 121.112 13.947 121.197 15.015 121.345C15.7955 121.45 16 121.544 15.8535 121.735C15.7489 121.878 16.1377 122.04 16.3818 122.264C15.1237 122.51 17.2412 122.633 17.6293 122.849C17.4425 122.985 17.4408 123.119 17.3568 123.252C17.231 123.437 17.2285 123.647 16.815 123.806C16.4221 123.959 16.2974 124.054 16.9746 124.189C17.2414 124.242 17.4257 124.32 17.5482 124.392C17.9363 124.613 18.6349 124.674 19.7664 124.678C24.7451 124.684 29.7236 124.713 34.6816 124.73C36.8829 124.736 39.1049 124.732 41.3064 124.723C44.0017 124.711 46.6768 124.667 49.3513 124.671C52.0258 124.675 54.7203 124.732 57.3946 124.747C59.2667 124.759 61.1186 124.727 62.9908 124.727C68.7516 124.716 74.5125 124.693 80.2731 124.692C91.6092 124.687 102.945 124.698 114.281 124.698C115.31 124.7 116.318 124.659 117.327 124.655C122.12 124.648 126.893 124.651 131.687 124.655C132.654 124.656 133.641 124.711 134.607 124.722C135.286 124.734 136.006 124.747 136.644 124.704C140.35 124.501 143.974 124.243 147.986 124.265C153.396 124.295 158.787 124.277 164.198 124.286C167.099 124.289 169.999 124.307 172.9 124.321C175.019 124.331 177.138 124.347 179.257 124.357C184.585 124.381 189.934 124.405 195.262 124.434C199.294 124.456 203.326 124.468 207.338 124.506C215.525 124.59 223.711 124.734 231.878 124.775C242.35 124.824 252.822 124.799 263.294 124.805C267.429 124.808 271.564 124.805 275.7 124.814C284.402 124.832 293.104 124.877 301.786 124.863C311.538 124.852 321.25 124.781 331.002 124.758C336.516 124.742 342.05 124.786 347.584 124.776C354.003 124.765 360.423 124.722 366.842 124.7C370.298 124.691 373.775 124.714 377.231 124.7C381.819 124.684 386.408 124.63 391.017 124.62C395.831 124.607 400.665 124.644 405.48 124.637C407.434 124.634 409.369 124.566 411.324 124.525C412.312 124.505 413.279 124.457 414.267 124.464C416.159 124.476 418.051 124.546 419.944 124.553C425.252 124.565 430.56 124.573 435.868 124.558C437.863 124.556 439.819 124.483 441.794 124.442C442.062 124.436 442.35 124.425 442.617 124.43C445.785 124.507 448.911 124.562 452.101 124.521C458.356 124.443 464.652 124.435 470.927 124.406C475.556 124.385 480.185 124.386 484.815 124.37C492.674 124.347 500.554 124.324 508.413 124.296C511.746 124.285 515.059 124.273 518.392 124.256C521.519 124.241 524.626 124.215 527.754 124.2C529.749 124.219 531.744 124.254 533.74 124.268C535.612 124.279 537.464 124.247 539.336 124.243C545.097 124.231 550.858 124.209 556.618 124.208C567.954 124.202 579.29 124.213 590.626 124.214C591.655 124.216 592.663 124.174 593.672 124.17C598.465 124.163 603.238 124.167 608.032 124.17C608.999 124.171 609.986 124.226 610.953 124.237C611.631 124.249 612.351 124.262 612.99 124.219C616.695 124.016 620.32 123.758 624.331 123.78C629.742 123.811 635.132 123.792 640.543 123.801C643.444 123.804 646.344 123.823 649.245 123.836C651.364 123.846 653.483 123.862 655.602 123.872C660.93 123.896 666.279 123.92 671.607 123.949C675.639 123.971 679.671 123.983 683.683 124.021C691.87 124.106 700.056 124.249 708.224 124.29C718.695 124.34 729.167 124.314 739.639 124.321C743.774 124.323 747.909 124.321 752.045 124.329C760.747 124.347 769.449 124.393 778.131 124.378C787.883 124.367 797.595 124.296 807.347 124.274C812.861 124.258 818.395 124.301 823.929 124.291C830.348 124.28 836.768 124.237 843.187 124.215C846.643 124.206 850.12 124.23 853.576 124.215C858.165 124.199 862.753 124.145 867.341 124.135C872.156 124.122 876.99 124.159 881.804 124.152C883.759 124.149 885.693 124.081 887.648 124.04C888.636 124.02 889.604 123.972 890.591 123.979C892.484 123.991 894.376 124.061 896.268 124.068C901.576 124.08 906.884 124.088 912.192 124.073C914.188 124.065 916.143 123.998 918.119 123.957C918.386 123.951 918.675 123.94 918.942 123.945C922.109 124.022 925.236 124.077 928.425 124.036C934.681 123.958 940.976 123.95 947.252 123.921C951.881 123.9 956.51 123.901 961.139 123.885C968.998 123.862 976.878 123.839 984.738 123.811C988.071 123.8 991.383 123.788 994.717 123.771C999.428 123.747 1004.16 123.706 1008.87 123.687C1012.35 123.673 1015.83 123.691 1019.3 123.677C1022.2 123.668 1025.11 123.628 1028.01 123.615C1032.92 123.588 1037.86 123.573 1042.78 123.536C1045.21 123.519 1047.62 123.417 1050.04 123.432C1054.05 123.454 1057.92 123.474 1060.98 122.825C1061.76 122.656 1062.09 122.56 1061.58 122.347C1061.05 122.124 1060.84 121.868 1062 121.749C1063.23 121.626 1063.28 121.423 1063.26 121.197C1063.24 120.977 1063.29 120.736 1062.86 120.547C1062.32 120.312 1062.41 120.158 1063.01 119.954C1063.54 119.776 1063.75 119.56 1064.04 119.35C1064.27 119.188 1064.23 118.994 1064.63 118.851C1065.25 118.631 1066.36 118.495 1066.44 118.17C1066.49 118.02 1067.81 117.904 1068.61 117.757C1068.57 117.751 1068.43 117.684 1068.28 117.687C1066.72 117.67 1066.95 117.487 1067.07 117.258C1067.16 117.126 1066.77 116.963 1066.42 116.829C1066.2 116.739 1065.68 116.682 1065.62 116.67C1066.41 116.303 1067.05 115.976 1067.79 115.668C1068.02 115.57 1068.56 115.499 1068.95 115.42C1069.32 115.496 1069.67 115.582 1070.08 115.654C1070.39 115.708 1070.82 115.785 1071.1 115.774C1071.66 115.751 1072.13 115.674 1072.44 115.642C1071.99 115.489 1071.58 115.359 1071.23 115.218C1071.23 115.213 1071.98 115.092 1072.14 115.111C1072.61 115.168 1072.96 115.27 1073.5 115.387C1073.68 115.369 1074.07 115.343 1074.36 115.289C1076.11 114.966 1077.89 114.649 1079.56 114.308C1079.81 114.253 1079.73 114.08 1079.52 113.991C1079.25 113.874 1078.68 113.788 1078.02 113.638C1079.94 113.526 1080.78 113.311 1080.3 112.932C1079.72 112.911 1079.21 112.897 1078.71 112.883C1078.69 112.856 1078.65 112.828 1078.63 112.801C1079.5 112.671 1080.34 112.429 1081.25 112.429C1082.85 112.424 1083.86 112.238 1085 112.097C1085.72 112.008 1086.15 111.785 1086.46 111.603C1086.55 111.551 1085.77 111.424 1085.34 111.337C1084.88 111.243 1084.45 111.139 1083.92 111.076C1083.41 111.013 1082.75 110.959 1082.23 110.977C1080.36 111.035 1079.02 110.936 1078.7 110.55C1078.38 110.158 1077.25 110.09 1075.87 110.018C1075.46 109.994 1075.05 109.971 1074.63 109.942C1072.5 109.771 1071.45 109.238 1072.2 108.811C1072.45 108.676 1072.33 108.417 1071.88 108.328C1070.97 108.146 1069.78 107.991 1068.61 107.923C1065.55 107.735 1062.55 107.543 1060.13 107.055C1058.96 106.815 1059.02 106.8 1060.17 106.595C1062.46 106.195 1065.75 106.098 1067.26 105.448C1068.13 105.077 1069.82 104.796 1070.47 104.378C1070.69 104.238 1070.92 104.081 1070.86 103.935C1070.86 103.887 1069.9 103.848 1069.22 103.793C1069.8 103.68 1070.31 103.577 1071.05 103.429C1070.46 103.418 1070.27 103.415 1070.11 103.412C1069.74 103.395 1069.39 103.378 1069.04 103.361C1069.25 103.311 1069.47 103.256 1069.68 103.201C1069.82 103.161 1070.03 103.116 1070.07 103.068C1070.22 102.899 1070.36 102.73 1070.39 102.559C1070.39 102.473 1070.2 102.363 1069.92 102.304C1069.1 102.145 1068.23 101.99 1067.29 101.861C1066.65 101.775 1065.91 101.714 1066.43 101.53C1066.9 101.367 1067.46 101.215 1068.67 101.301C1069.13 101.33 1070.01 101.33 1070.07 101.288C1070.26 101.173 1070.34 101.019 1070.08 100.907C1069.85 100.807 1069.2 100.736 1068.68 100.668C1067.66 100.527 1066.22 100.539 1065.73 100.209C1065.5 100.06 1065.07 100.123 1064.57 100.243C1064.04 100.373 1063.01 100.456 1062.16 100.458C1061.73 100.455 1061.1 100.235 1060.85 100.092C1060.59 99.9367 1060.65 99.7609 1060.59 99.5936C1060.37 98.9516 1061.59 98.4743 1064.02 98.1255C1064.37 98.078 1064.77 97.9455 1064.69 97.8797C1064.15 97.5111 1064.63 97.1816 1065.05 96.8457C1065.73 96.2893 1066.19 96.2061 1068.88 96.1676C1069.81 96.157 1070 96.0744 1069.65 95.8967C1069.5 95.8245 1069.53 95.7337 1069.45 95.6251C1071.23 95.7851 1072.1 95.6609 1072.14 95.3024C1072.17 95.1097 1072.33 94.9089 1072.17 94.7184C1071.81 94.2669 1072.14 93.8062 1071.08 93.364C1070.73 93.2238 1070.76 92.9293 1071.19 92.8564C1072.59 92.6075 1073.29 92.2391 1072.66 91.783C1071.98 91.8515 1071.32 91.9204 1070.66 91.9893C1070.62 91.9778 1070.6 91.9668 1070.56 91.9553C1070.97 91.8392 1071.41 91.7235 1071.82 91.602C1070.88 91.4997 1069.99 91.4198 1069.21 91.3043C1068.92 91.2617 1068.93 91.1384 1068.8 91.0504C1069.22 91.0308 1069.73 90.9648 1070.02 90.9966C1071.79 91.1938 1072.82 90.9974 1073.79 90.7892C1073.48 90.7141 1073.05 90.6529 1073.05 90.5993C1073.07 90.278 1072.13 90.2775 1070.99 90.2577C1070.6 90.2508 1069.93 90.1049 1069.93 90.0298C1069.93 89.8583 1070.12 89.6685 1070.57 89.537C1071.6 89.2441 1072.88 88.993 1074 88.7176C1074.51 88.5926 1074.84 88.4376 1075.3 88.3007C1076.06 88.0728 1076.85 87.8453 1077.63 87.6177C1078.02 87.5066 1078.46 87.4016 1078.99 87.2662C1078.32 87.2382 1077.88 87.2253 1077.47 87.2074C1077.66 87.098 1077.99 87.0609 1078.32 87.0184C1078.59 86.9856 1079 86.9713 1079.08 86.9245C1079.43 86.7484 1079.7 86.5654 1079.99 86.3882C1079.97 86.3878 1079.75 86.3946 1079.56 86.4181C1076.39 86.7594 1072.93 86.924 1069.35 86.9953C1065.99 87.0652 1062.64 87.103 1059.29 87.1782C1052.84 87.3174 1046.4 87.4726 1039.98 87.6229C1038.85 87.6459 1038.05 87.5944 1037.87 87.307C1037.81 87.204 1037.42 87.0739 1036.99 87.0181C1034.99 86.7579 1032.98 86.7655 1030.98 86.9718C1030.61 87.0082 1030.11 87.0746 1029.85 87.0485C1028.06 86.8777 1026.43 87.053 1024.74 87.0663C1021.66 87.0819 1018.57 87.0547 1015.49 87.0596C1012.4 87.0645 1009.33 87.0965 1006.25 87.1122C1001.45 87.1301 996.661 87.1426 991.867 87.1551C984.686 87.1794 977.506 87.2091 970.305 87.2223C965.285 87.2309 960.245 87.2069 955.224 87.2262C942.756 87.2651 930.288 87.3201 917.82 87.3698C912.676 87.3922 907.533 87.4147 902.368 87.4315C893.81 87.4531 885.271 87.475 876.713 87.4913C872.207 87.4981 867.681 87.4671 863.175 87.4954C857.455 87.5239 851.755 87.6224 846.035 87.6401C834.658 87.6767 823.281 87.6811 811.924 87.7073C811.409 87.709 810.812 87.7575 810.462 87.8265C809.265 88.079 807.783 88.1763 806.156 88.2497C803.768 88.3634 801.155 88.4248 799.156 88.6794C794.499 89.2734 789.337 89.124 784.276 89.105C780.202 89.0873 776.13 88.9623 772.058 88.9017C769.631 88.8591 767.203 88.8273 764.776 88.8223C762.41 88.813 760.064 88.8416 757.698 88.8538C757.369 88.8534 756.978 88.8734 756.731 88.8369C754.821 88.5674 752.907 88.6787 750.992 88.7524C750.663 88.7627 750.293 88.7562 749.964 88.7397C749.059 88.697 748.073 88.5725 747.311 88.6128C744.82 88.7354 742.395 88.5267 739.927 88.5048C734.948 88.4712 729.971 88.3411 724.973 88.2642C720.55 88.1975 716.128 88.1468 711.705 88.08C706.913 88.0121 702.14 87.9339 697.348 87.866C694.818 87.8323 692.287 87.8309 689.736 87.7916C685.787 87.7331 681.838 87.6692 677.909 87.579C675.03 87.5124 672.151 87.403 669.272 87.3043C668.347 87.272 667.422 87.1968 666.516 87.2024C663.039 87.2165 659.603 87.2742 656.126 87.2777C647.197 87.2928 638.288 87.2922 629.359 87.2913C620.554 87.2871 611.749 87.283 602.943 87.2788C603.192 87.1384 603.42 86.9922 603.648 86.8514C603.628 86.8511 603.401 86.8578 603.216 86.8814C601.588 87.0566 599.879 87.1822 598.129 87.2749C594.837 87.2708 591.566 87.2725 588.274 87.2684C585.044 87.2708 581.814 87.3107 578.563 87.3127C576.074 87.312 573.585 87.247 571.116 87.268C568.647 87.2891 566.099 87.0729 563.73 87.3209C563.585 87.3345 563.359 87.3305 563.174 87.3273C561.734 87.3235 560.294 87.3251 558.854 87.3213C557.949 87.2733 557.044 87.2735 556.158 87.3169C555.315 87.3182 554.472 87.3142 553.628 87.3155C548.711 87.3151 543.773 87.3091 538.856 87.3087C532.478 87.3095 526.101 87.3104 519.743 87.3116C510.897 87.3121 502.05 87.3126 493.224 87.3241C491.434 87.3249 489.685 87.3801 487.894 87.397C486.742 87.409 485.959 87.5186 485.34 87.6847C483.2 87.6847 481.061 87.6794 478.921 87.6902C466.453 87.7291 453.984 87.7841 441.516 87.8337C436.373 87.8562 431.229 87.8787 426.065 87.8954C417.506 87.917 408.968 87.939 400.409 87.9553C395.903 87.9621 391.377 87.9311 386.871 87.9594C381.152 87.9878 375.451 88.0864 369.732 88.1041C358.354 88.1407 346.977 88.1451 335.62 88.1713C335.106 88.173 334.508 88.2215 334.158 88.2904C332.961 88.543 331.479 88.6403 329.853 88.7137C327.465 88.8274 324.851 88.8888 322.852 89.1434C318.195 89.7374 313.033 89.588 307.972 89.569C303.899 89.5513 299.827 89.4263 295.754 89.3656C293.327 89.3231 290.9 89.2913 288.472 89.2863C286.106 89.277 283.76 89.3056 281.394 89.3178C281.065 89.3174 280.674 89.3373 280.428 89.3008C278.518 89.0314 276.603 89.1426 274.689 89.2163C274.359 89.2267 273.989 89.2202 273.639 89.2033C272.735 89.1607 271.749 89.0361 270.987 89.0764C268.496 89.199 266.071 88.9903 263.603 88.9685C258.624 88.9348 253.647 88.8047 248.649 88.7279C244.226 88.6611 239.803 88.6104 235.381 88.5436C230.588 88.4757 225.816 88.3975 221.023 88.3296C218.493 88.296 215.963 88.2945 213.412 88.2552C209.463 88.1967 205.513 88.1329 201.585 88.0426C198.706 87.976 195.827 87.8666 192.948 87.7679C192.022 87.7356 191.097 87.6604 190.192 87.666C186.715 87.6801 183.278 87.7379 179.801 87.7413C170.872 87.7564 161.964 87.7558 153.035 87.7549C139.354 87.7511 125.652 87.7362 111.971 87.7378C108.741 87.7401 105.51 87.78 102.259 87.7821C99.77 87.7813 97.2813 87.7163 94.8122 87.7374C92.3431 87.7585 89.7948 87.5422 87.4257 87.7903C87.2815 87.8038 87.0552 87.7999 86.8701 87.7966C83.6812 87.7944 80.4925 87.7867 77.3036 87.7845C72.3866 87.7841 67.449 87.778 62.5319 87.7777C56.1541 87.7785 49.7763 87.7794 43.419 87.7806C34.5724 87.7811 25.7463 87.7819 16.8995 87.7931C15.1096 87.7939 13.3603 87.8491 11.5701 87.866C10.1504 87.8786 9.30491 88.0354 8.60245 88.2698C8.00331 88.4684 8.14528 88.6318 9.13144 88.7402C9.62455 88.7917 10.3038 88.7607 10.962 88.7723C10.7115 89.0575 9.45517 89.1641 7.86885 89.3348C8.87551 89.4489 9.55377 89.5091 10.1493 89.5946C10.56 89.6554 10.8263 89.7512 11.1751 89.827C10.7221 89.8513 10.2897 89.8812 9.83681 89.9001C9.67212 89.9079 9.50773 89.8943 9.34317 89.8915C9.24006 89.9111 9.11636 89.9358 9.01324 89.9554C9.54614 90.1149 10.0171 90.2894 10.653 90.4346C11.4942 90.6209 12.5415 90.768 12.1262 91.0717C11.8563 91.2654 11.7509 91.4673 11.481 91.661C11.3771 91.745 11.1492 91.875 10.8816 91.8811C10.3465 91.8985 9.72977 91.8609 9.19552 91.8086C8.76391 91.7742 8.39458 91.6927 8.00438 91.6376C7.90133 91.6519 7.79836 91.6662 7.69524 91.6858C8.3094 91.9271 7.54422 92.2355 9.04353 92.4387C9.65965 92.5246 9.45255 92.6282 8.73216 92.6531C7.62069 92.6926 7.63988 92.8109 8.19314 92.9869C8.72597 93.1517 9.21763 93.3158 9.95513 93.5647C8.82384 93.5449 7.98053 93.5301 7.01378 93.5132C7.25641 93.8499 9.27245 93.8638 9.84452 94.1794C8.7317 94.3262 7.63945 94.4733 6.50606 94.6196C6.79315 94.6944 7.0801 94.7745 7.5927 94.9122C6.74747 95.0475 5.92299 95.1725 5.18061 95.3096C4.9331 95.3589 4.72612 95.4572 4.78701 95.5226C4.90867 95.6641 5.21555 95.7982 5.52178 95.9859C5.48064 95.9852 5.74788 96.0006 6.01507 96.0214C6.81665 96.0837 7.12273 96.2821 6.50417 96.3892C5.78243 96.5213 5.01971 96.6474 4.15446 96.7395C2.19736 96.9465 2.15611 96.9458 3.65325 97.3206C3.89933 97.3839 4.20733 97.4322 4.43278 97.5005C4.63772 97.563 4.73968 97.6399 4.88285 97.7068C4.51221 97.7324 4.14152 97.7635 3.75043 97.7781C2.9477 97.8069 2.10419 97.8082 1.32182 97.8535C-0.0370201 97.9316 0.412133 98.2022 0.368489 98.3998L0.368015 98.4374Z" fill="#1B8533"/>
<path d="M72.4457 96.7672C72.4457 105.767 63.7457 110.027 55.0457 110.027C46.3457 110.027 40.5857 106.667 38.2457 103.367L43.9457 95.2672C46.6457 98.5672 51.4457 99.7672 54.1457 99.7672C56.8457 99.7672 59.3657 98.2672 59.3657 95.8672C59.3657 93.4672 57.4457 92.2672 54.7457 92.2672H50.5457V83.2672H54.7457C56.8457 83.2672 58.3457 82.3672 58.3457 80.2672C58.3457 78.1672 56.5457 77.2672 54.1457 77.2672C51.7457 77.2672 48.1457 77.8672 44.2457 80.5672L39.7457 71.8672C42.7457 69.7672 46.9457 67.3672 55.1657 67.3672C63.4457 67.3672 71.0657 71.5672 71.0657 78.7672C71.0657 83.5672 68.8457 85.9672 65.8457 87.4672C69.7457 88.6672 72.4457 92.2672 72.4457 96.7672ZM113.548 88.7272C113.548 99.8272 108.148 110.087 95.0681 110.087C82.0481 110.087 76.6481 99.8272 76.6481 88.7272C76.6481 77.6272 82.0481 67.3672 95.0681 67.3672C108.148 67.3672 113.548 77.6272 113.548 88.7272ZM100.348 88.5472C100.348 83.1472 99.1481 78.6472 95.0681 78.6472C91.0481 78.6472 89.8481 83.1472 89.8481 88.5472C89.8481 93.9472 91.0481 98.5672 95.0681 98.5672C99.1481 98.5672 100.348 93.9472 100.348 88.5472ZM167.269 67.9672L152.869 93.1672V109.367H139.309V93.1672L124.969 67.9672H139.969L146.089 81.9472L152.269 67.9672H167.269ZM198.772 109.367H168.771V67.9672H198.172V78.6472H182.271V83.1472H197.272V93.7672H182.271V98.5672H198.772V109.367ZM243.476 109.367H228.776L227.156 103.547H215.336L213.776 109.367H199.676L214.076 67.9672H229.076L243.476 109.367ZM224.336 93.1672L221.276 82.0672L218.216 93.1672H224.336ZM283.074 109.367H267.474L260.874 95.5672H259.134V109.367H245.574V67.9672H263.574C268.674 67.9672 272.574 68.8672 275.574 70.9672C278.574 73.0672 280.674 76.6672 280.674 81.1672C280.674 89.5672 275.574 92.5672 273.774 93.6472L283.074 109.367ZM266.994 81.7672C266.994 79.9672 266.094 79.3672 265.494 78.9472C264.894 78.4672 263.994 78.1672 262.494 78.1672H259.074V85.3672H262.494C264.834 85.3672 266.994 84.4672 266.994 81.7672ZM315.19 95.7472C315.19 100.067 313.09 103.967 309.79 106.547C306.49 109.067 302.35 110.087 297.55 110.087C292.75 110.087 287.23 108.767 281.59 104.567L287.59 94.3672C291.43 97.6072 296.83 98.8672 298.63 98.8672C300.43 98.8672 301.69 98.3272 301.69 97.1272C301.69 95.9272 300.19 95.4472 298.69 94.9672C297.19 94.5472 293.89 93.4672 292.69 93.0472C286.93 90.7672 283.21 88.0672 283.21 81.1672C283.21 76.6672 285.55 73.1872 288.01 71.1472C290.53 69.0472 294.67 67.5472 300.19 67.5472C305.71 67.5472 311.35 69.5272 314.95 72.5272L309.79 82.1272C306.67 79.3672 302.11 78.1672 299.95 78.1672C297.79 78.1672 296.59 78.5872 296.59 79.8472C296.59 81.0472 298.51 81.4672 299.47 81.7672C300.43 82.0672 302.95 82.7872 304.39 83.2672C310.63 85.3672 315.19 88.4872 315.19 95.7472ZM373.128 88.7272C373.128 102.227 363.528 110.087 350.628 110.087C337.728 110.087 328.128 102.227 328.128 88.7272C328.128 75.2272 337.728 67.3072 350.628 67.3072C363.528 67.3072 373.128 75.2272 373.128 88.7272ZM359.448 88.4272C359.448 82.7272 356.028 78.7672 350.628 78.7672C345.228 78.7672 341.748 82.7272 341.748 88.4272C341.748 94.1272 345.228 98.0872 350.628 98.0872C356.028 98.0872 359.448 94.1272 359.448 88.4272ZM405.83 78.6472H390.53V85.0672H404.93V95.7472H390.53V109.367H377.03V67.9672H405.83V78.6472ZM449.937 78.6472H434.637V85.0672H449.037V95.7472H434.637V109.367H421.137V67.9672H449.937V78.6472ZM467.385 109.367H453.825V67.9672H467.385V109.367ZM512.696 109.367H498.596L485.996 86.2672C485.996 86.2672 486.296 90.7672 486.296 93.7672V109.367H473.096V67.9672H487.796L499.796 91.0672C499.796 91.0672 499.496 86.5672 499.496 83.5672V67.9672H512.696V109.367ZM558.582 109.367H543.882L542.262 103.547H530.442L528.882 109.367H514.782L529.182 67.9672H544.182L558.582 109.367ZM539.442 93.1672L536.382 82.0672L533.322 93.1672H539.442ZM600.279 109.367H586.179L573.579 86.2672C573.579 86.2672 573.879 90.7672 573.879 93.7672V109.367H560.679V67.9672H575.379L587.379 91.0672C587.379 91.0672 587.079 86.5672 587.079 83.5672V67.9672H600.279V109.367ZM641.065 104.867C639.565 106.367 635.365 110.087 626.365 110.087C614.065 110.087 604.165 102.527 604.165 88.7272C604.165 74.9272 614.065 67.3672 626.365 67.3672C635.665 67.3672 640.165 71.2672 640.165 71.2672L636.565 82.6672C636.565 82.6672 632.365 79.0672 627.265 79.0672C622.165 79.0672 617.785 82.0672 617.785 88.5472C617.785 94.9672 622.465 97.8472 627.265 97.8472C632.065 97.8472 635.365 95.8672 637.165 94.0672L641.065 104.867ZM657.311 109.367H643.751V67.9672H657.311V109.367ZM703.221 109.367H688.521L686.901 103.547H675.081L673.521 109.367H659.421L673.821 67.9672H688.821L703.221 109.367ZM684.081 93.1672L681.021 82.0672L677.961 93.1672H684.081ZM732.919 109.367H705.319V67.9672H718.819V98.2672H732.919V109.367ZM777.61 109.367H747.61V67.9672H777.01V78.6472H761.11V83.1472H776.11V93.7672H761.11V98.5672H777.61V109.367ZM823.514 109.367H807.314L800.714 96.1672L794.114 109.367H777.914L791.714 87.7672L778.634 67.9672H794.834L800.714 79.0672L806.534 67.9672H822.734L809.714 87.7672L823.514 109.367ZM859.198 82.2472C859.198 92.2672 852.298 96.4672 842.998 96.4672H838.558V109.367H824.998V67.9672H842.998C852.358 67.9672 859.198 72.1672 859.198 82.2472ZM845.518 82.2472C845.518 79.1272 843.478 78.1672 840.718 78.1672H838.498V86.2672H840.718C843.538 86.2672 845.518 85.4272 845.518 82.2472ZM892.198 109.367H862.198V67.9672H891.598V78.6472H875.698V83.1472H890.698V93.7672H875.698V98.5672H892.198V109.367ZM934.203 109.367H918.603L912.003 95.5672H910.263V109.367H896.703V67.9672H914.703C919.803 67.9672 923.703 68.8672 926.703 70.9672C929.703 73.0672 931.803 76.6672 931.803 81.1672C931.803 89.5672 926.703 92.5672 924.903 93.6472L934.203 109.367ZM918.123 81.7672C918.123 79.9672 917.223 79.3672 916.623 78.9472C916.023 78.4672 915.123 78.1672 913.623 78.1672H910.203V85.3672H913.623C915.963 85.3672 918.123 84.4672 918.123 81.7672ZM965.779 78.5272H955.999V109.367H942.439V78.5272H932.719V67.9672H965.779V78.5272ZM982.026 109.367H968.466V67.9672H982.026V109.367ZM1018.34 95.7472C1018.34 100.067 1016.24 103.967 1012.94 106.547C1009.64 109.067 1005.5 110.087 1000.7 110.087C995.896 110.087 990.376 108.767 984.736 104.567L990.736 94.3672C994.576 97.6072 999.976 98.8672 1001.78 98.8672C1003.58 98.8672 1004.84 98.3272 1004.84 97.1272C1004.84 95.9272 1003.34 95.4472 1001.84 94.9672C1000.34 94.5472 997.036 93.4672 995.836 93.0472C990.076 90.7672 986.356 88.0672 986.356 81.1672C986.356 76.6672 988.696 73.1872 991.156 71.1472C993.676 69.0472 997.816 67.5472 1003.34 67.5472C1008.86 67.5472 1014.5 69.5272 1018.1 72.5272L1012.94 82.1272C1009.82 79.3672 1005.26 78.1672 1003.1 78.1672C1000.94 78.1672 999.736 78.5872 999.736 79.8472C999.736 81.0472 1001.66 81.4672 1002.62 81.7672C1003.58 82.0672 1006.1 82.7872 1007.54 83.2672C1013.78 85.3672 1018.34 88.4872 1018.34 95.7472ZM1051.66 109.367H1021.66V67.9672H1051.06V78.6472H1035.16V83.1472H1050.16V93.7672H1035.16V98.5672H1051.66V109.367Z" fill="white"/>
<path d="M272.09 19.9388H264.08V45.2288H256.79V19.9388H248.78V14.1788H272.09V19.9388ZM295.281 45.2288H288.036V33.5738C288.036 30.8738 287.676 28.5338 284.661 28.5338C281.646 28.5338 280.701 31.0538 280.701 34.3388V45.2288H273.501V14.1788H280.701V21.5588C280.701 23.8088 280.656 26.2388 280.656 26.2388C281.781 24.2588 283.896 22.6388 287.181 22.6388C293.616 22.6388 295.281 26.7338 295.281 32.1338V45.2288ZM320.25 33.4838C320.25 34.5638 320.16 35.8688 320.16 35.8688H304.365C304.68 39.0638 307.11 40.5038 310.035 40.5038C312.915 40.5038 315.435 39.2438 316.695 38.3888L319.53 42.1238C318.81 42.6638 315.885 45.7238 309 45.7238C302.16 45.7238 297.165 41.4938 297.165 34.1588C297.165 26.8238 302.565 22.6388 309.135 22.6388C315.705 22.6388 320.25 27.0038 320.25 33.4838ZM313.545 31.7738C313.5 29.7488 312.015 27.3188 309 27.3188C306.03 27.3188 304.5 29.6588 304.41 31.7738H313.545ZM354.58 34.1588C354.58 40.6838 350.53 45.7238 344.095 45.7238C341.08 45.7238 338.425 44.6438 336.76 42.3038H336.715L336.76 45.2288H329.92V14.1788H337.12V21.6488C337.12 23.6738 337.03 25.7438 337.03 25.7438H337.165C338.11 24.3938 340.36 22.6388 344.14 22.6388C350.53 22.6388 354.58 27.6338 354.58 34.1588ZM347.245 34.0688C347.245 30.6488 345.175 28.3088 342.07 28.3088C338.965 28.3088 336.85 30.6488 336.85 34.0688C336.85 37.4888 338.965 39.8288 342.07 39.8288C345.175 39.8288 347.245 37.4888 347.245 34.0688ZM378.02 45.2288H371.09L371.045 42.7088C370.1 44.0588 367.76 45.7238 364.565 45.7238C358.445 45.7238 356.6 41.9888 356.6 36.4538V23.0438H363.8V35.4638C363.8 38.0288 364.52 39.7838 367.085 39.7838C369.65 39.7838 370.82 37.7588 370.82 34.8338V23.0438H378.02V45.2288ZM404.844 45.2288H398.004L398.049 42.3038L397.914 42.3488C396.249 44.5988 393.594 45.7238 390.624 45.7238C384.189 45.7238 380.139 40.6838 380.139 34.1588C380.139 27.6338 384.189 22.6388 390.624 22.6388C394.674 22.6388 396.924 24.6638 397.644 25.7438V14.1788H404.844V45.2288ZM397.869 34.0688C397.869 30.6488 395.799 28.3088 392.694 28.3088C389.589 28.3088 387.474 30.6488 387.474 34.0688C387.474 37.4888 389.589 39.8288 392.694 39.8288C395.799 39.8288 397.869 37.4888 397.869 34.0688ZM431.839 40.7288C431.839 45.4988 430.624 48.2888 428.464 50.3138C426.304 52.3388 423.334 53.8238 418.249 53.8238C413.119 53.8238 409.024 51.6638 407.494 50.5388L410.464 45.7238C411.769 46.7138 415.144 48.2438 418.114 48.2438C422.389 48.2438 424.684 46.4438 424.684 42.0788V41.3588H424.594C423.244 43.1138 421.084 44.5088 417.619 44.5088C412.174 44.5088 407.134 40.7288 407.134 33.5738C407.134 26.4188 412.174 22.6388 417.619 22.6388C421.354 22.6388 423.469 24.3488 424.639 25.8788H424.729L424.639 23.0438H431.839V40.7288ZM424.864 33.6188C424.864 30.6038 422.884 28.2638 419.689 28.2638C416.494 28.2638 414.469 30.6038 414.469 33.6188C414.469 36.6788 416.494 39.0188 419.689 39.0188C422.884 39.0188 424.864 36.6788 424.864 33.6188ZM457.126 33.4838C457.126 34.5638 457.036 35.8688 457.036 35.8688H441.241C441.556 39.0638 443.986 40.5038 446.911 40.5038C449.791 40.5038 452.311 39.2438 453.571 38.3888L456.406 42.1238C455.686 42.6638 452.761 45.7238 445.876 45.7238C439.036 45.7238 434.041 41.4938 434.041 34.1588C434.041 26.8238 439.441 22.6388 446.011 22.6388C452.581 22.6388 457.126 27.0038 457.126 33.4838ZM450.421 31.7738C450.376 29.7488 448.891 27.3188 445.876 27.3188C442.906 27.3188 441.376 29.6588 441.286 31.7738H450.421ZM472.319 28.5338H467.414V36.4988C467.414 38.4338 467.549 39.7838 469.754 39.7838C470.879 39.7838 471.914 39.3788 471.914 39.3788L472.274 45.0038C471.734 45.1388 469.754 45.7238 467.144 45.7238C461.384 45.7238 460.169 42.2138 460.169 37.1288V28.5338H457.019V23.0888H460.169V17.0588H467.414V23.0888H472.319V28.5338ZM481.652 16.7438C481.652 18.9938 479.987 20.4788 477.557 20.4788C475.127 20.4788 473.462 18.9938 473.462 16.7438C473.462 14.5388 475.127 13.0088 477.557 13.0088C479.987 13.0088 481.652 14.5388 481.652 16.7438ZM481.157 45.2288H473.957V23.0438H481.157V45.2288ZM506.426 45.2288H499.226V33.6638C499.226 30.7388 498.776 28.5338 495.806 28.5338C492.701 28.5338 491.846 31.0538 491.846 34.2488V45.2288H484.646V23.0438H491.846L491.801 26.2388H491.891C493.106 24.2588 495.131 22.6388 498.326 22.6388C504.761 22.6388 506.426 26.7788 506.426 32.1338V45.2288ZM533.107 40.7288C533.107 45.4988 531.892 48.2888 529.732 50.3138C527.572 52.3388 524.602 53.8238 519.517 53.8238C514.387 53.8238 510.292 51.6638 508.762 50.5388L511.732 45.7238C513.037 46.7138 516.412 48.2438 519.382 48.2438C523.657 48.2438 525.952 46.4438 525.952 42.0788V41.3588H525.862C524.512 43.1138 522.352 44.5088 518.887 44.5088C513.442 44.5088 508.402 40.7288 508.402 33.5738C508.402 26.4188 513.442 22.6388 518.887 22.6388C522.622 22.6388 524.737 24.3488 525.907 25.8788H525.997L525.907 23.0438H533.107V40.7288ZM526.132 33.6188C526.132 30.6038 524.152 28.2638 520.957 28.2638C517.762 28.2638 515.737 30.6038 515.737 33.6188C515.737 36.6788 517.762 39.0188 520.957 39.0188C524.152 39.0188 526.132 36.6788 526.132 33.6188ZM564.03 45.2288H557.145L557.01 42.8888C556.065 43.8338 554.265 45.7238 550.665 45.7238C546.75 45.7238 542.61 43.6088 542.61 38.6588C542.61 33.7088 547.155 32.0438 551.25 31.8638L556.83 31.6388V31.1438C556.83 28.8038 555.165 27.5888 552.285 27.5888C549.45 27.5888 546.615 28.8488 545.49 29.5688L543.6 24.8888C545.49 23.9438 548.955 22.6388 553.095 22.6388C560.025 22.6388 564.03 25.5188 564.03 32.7188V45.2288ZM556.875 35.4638L553.32 35.6888C551.115 35.7788 549.81 36.7238 549.81 38.3888C549.81 40.0988 551.205 41.1338 553.185 41.1338C555.12 41.1338 556.425 39.8738 556.875 39.1088V35.4638ZM591.931 34.1588C591.931 40.6838 587.881 45.7238 581.446 45.7238C578.161 45.7238 575.821 44.5088 574.426 42.4388V53.3738H567.226V23.0438H574.066L574.021 25.8788H574.111C575.731 23.9438 578.116 22.6388 581.491 22.6388C587.881 22.6388 591.931 27.6338 591.931 34.1588ZM584.596 34.0688C584.596 30.6488 582.481 28.3088 579.376 28.3088C576.316 28.3088 574.201 30.6488 574.201 34.0688C574.201 37.4888 576.316 39.8288 579.376 39.8288C582.481 39.8288 584.596 37.4888 584.596 34.0688ZM618.838 34.1588C618.838 40.6838 614.788 45.7238 608.353 45.7238C605.068 45.7238 602.728 44.5088 601.333 42.4388V53.3738H594.133V23.0438H600.973L600.928 25.8788H601.018C602.638 23.9438 605.023 22.6388 608.398 22.6388C614.788 22.6388 618.838 27.6338 618.838 34.1588ZM611.503 34.0688C611.503 30.6488 609.388 28.3088 606.283 28.3088C603.223 28.3088 601.108 30.6488 601.108 34.0688C601.108 37.4888 603.223 39.8288 606.283 39.8288C609.388 39.8288 611.503 37.4888 611.503 34.0688ZM653.317 34.1588C653.317 40.6838 649.267 45.7238 642.832 45.7238C639.817 45.7238 637.162 44.6438 635.497 42.3038H635.452L635.497 45.2288H628.657V14.1788H635.857V21.6488C635.857 23.6738 635.767 25.7438 635.767 25.7438H635.902C636.847 24.3938 639.097 22.6388 642.877 22.6388C649.267 22.6388 653.317 27.6338 653.317 34.1588ZM645.982 34.0688C645.982 30.6488 643.912 28.3088 640.807 28.3088C637.702 28.3088 635.587 30.6488 635.587 34.0688C635.587 37.4888 637.702 39.8288 640.807 39.8288C643.912 39.8288 645.982 37.4888 645.982 34.0688ZM675.362 45.2288H668.477L668.342 42.8888C667.397 43.8338 665.597 45.7238 661.997 45.7238C658.082 45.7238 653.942 43.6088 653.942 38.6588C653.942 33.7088 658.487 32.0438 662.582 31.8638L668.162 31.6388V31.1438C668.162 28.8038 666.497 27.5888 663.617 27.5888C660.782 27.5888 657.947 28.8488 656.822 29.5688L654.932 24.8888C656.822 23.9438 660.287 22.6388 664.427 22.6388C671.357 22.6388 675.362 25.5188 675.362 32.7188V45.2288ZM668.207 35.4638L664.652 35.6888C662.447 35.7788 661.142 36.7238 661.142 38.3888C661.142 40.0988 662.537 41.1338 664.517 41.1338C666.452 41.1338 667.757 39.8738 668.207 39.1088V35.4638ZM697.322 43.0688C697.097 43.2488 694.757 45.7238 688.862 45.7238C682.787 45.7238 677.162 41.5838 677.162 34.2038C677.162 26.7788 682.877 22.6388 688.952 22.6388C694.622 22.6388 697.187 24.9788 697.187 24.9788L695.612 30.4238C694.982 29.9288 693.002 28.4438 689.897 28.4438C686.837 28.4438 684.407 30.5588 684.407 34.0688C684.407 37.5788 686.612 39.7838 689.987 39.7838C693.362 39.7838 695.612 37.6238 695.612 37.6238L697.322 43.0688ZM721.911 45.2288H713.631L708.186 36.5888L706.206 38.5238V45.2288H699.006V14.1788H706.206V30.3788L712.956 23.0438H721.236L713.136 31.3688L721.911 45.2288ZM744.041 33.4838C744.041 34.5638 743.951 35.8688 743.951 35.8688H728.156C728.471 39.0638 730.901 40.5038 733.826 40.5038C736.706 40.5038 739.226 39.2438 740.486 38.3888L743.321 42.1238C742.601 42.6638 739.676 45.7238 732.791 45.7238C725.951 45.7238 720.956 41.4938 720.956 34.1588C720.956 26.8238 726.356 22.6388 732.926 22.6388C739.496 22.6388 744.041 27.0038 744.041 33.4838ZM737.336 31.7738C737.291 29.7488 735.806 27.3188 732.791 27.3188C729.821 27.3188 728.291 29.6588 728.201 31.7738H737.336ZM769.624 45.2288H762.784L762.829 42.3038L762.694 42.3488C761.029 44.5988 758.374 45.7238 755.404 45.7238C748.969 45.7238 744.919 40.6838 744.919 34.1588C744.919 27.6338 748.969 22.6388 755.404 22.6388C759.454 22.6388 761.704 24.6638 762.424 25.7438V14.1788H769.624V45.2288ZM762.649 34.0688C762.649 30.6488 760.579 28.3088 757.474 28.3088C754.369 28.3088 752.254 30.6488 752.254 34.0688C752.254 37.4888 754.369 39.8288 757.474 39.8288C760.579 39.8288 762.649 37.4888 762.649 34.0688ZM805.586 34.1588C805.586 40.6838 801.536 45.7238 795.101 45.7238C792.086 45.7238 789.431 44.6438 787.766 42.3038H787.721L787.766 45.2288H780.926V14.1788H788.126V21.6488C788.126 23.6738 788.036 25.7438 788.036 25.7438H788.171C789.116 24.3938 791.366 22.6388 795.146 22.6388C801.536 22.6388 805.586 27.6338 805.586 34.1588ZM798.251 34.0688C798.251 30.6488 796.181 28.3088 793.076 28.3088C789.971 28.3088 787.856 30.6488 787.856 34.0688C787.856 37.4888 789.971 39.8288 793.076 39.8288C796.181 39.8288 798.251 37.4888 798.251 34.0688ZM829.008 23.0438L819.108 47.3438C817.488 51.3038 815.688 53.7338 811.908 53.7338C808.128 53.7338 805.743 52.6538 805.743 52.6538L807.183 47.3438C807.183 47.3438 808.758 47.9288 809.838 47.9288C810.648 47.9288 811.413 47.9288 811.998 46.4888L812.808 44.5538L804.033 23.0438H811.548L816.588 37.3088L821.583 23.0438H829.008Z" fill="white"/>
</svg>
