<svg width="927" height="95" viewBox="0 0 927 95" fill="none" xmlns="http://www.w3.org/2000/svg">
<path d="M224.637 41.2485C224.633 41.3089 224.945 41.4411 225.144 41.4646C225.588 41.5199 226.044 41.5255 226.489 41.5658C226.68 41.5838 226.988 41.6551 227 41.7115C227.033 41.8248 226.952 41.9658 226.819 42.0477C226.728 42.0971 226.432 42.0972 226.258 42.0653C225.704 41.9621 225.421 42.0237 225.192 42.3516C225.408 42.3511 225.592 42.3484 225.776 42.3458C225.813 42.3937 225.85 42.4417 225.828 42.4199C225.827 42.425 225.827 42.425 225.828 42.4199C226.258 42.4541 226.626 42.4537 226.925 42.5296C227.059 42.5639 227.047 42.76 227.131 42.9475C226.895 42.8861 226.832 42.8616 226.776 42.8579C226.553 42.8528 226.298 42.8255 226.136 42.865C226.055 42.8848 226.075 43.0679 226.158 43.1493C226.263 43.2625 226.482 43.348 226.651 43.4453C226.829 43.5482 227.006 43.6562 227.175 43.7636C227.375 43.8933 227.533 44.0555 227.783 44.1532C228.423 44.4086 228.527 44.5369 228.193 44.8829C228.039 45.0392 228.024 45.1543 228.36 45.2932C228.874 45.5048 228.882 45.6416 228.459 45.8706C228.294 45.9604 228.073 46.0263 227.916 46.1166C227.825 46.166 227.748 46.2466 227.759 46.3131C227.838 46.7123 227.989 47.1114 228.013 47.5069C228.019 47.6588 227.746 47.802 227.559 47.9812L228.597 48.006C228.563 48.2966 229.159 48.6097 228.349 48.767C228.845 49.149 228.799 49.2519 229.865 49.0868C229.816 49.2349 229.817 49.3562 229.739 49.4519C229.375 49.8869 229.317 50.3021 230.019 50.7183C230.42 50.9575 230.739 51.2266 231.124 51.4748C231.208 51.531 231.397 51.5741 231.541 51.5838C232.274 51.6335 232.49 51.7542 232.364 52.1143C232.306 52.2719 232.413 52.3499 232.688 52.4241C232.814 52.4579 232.934 52.5822 232.922 52.652C232.873 52.9214 232.592 53.1953 233.339 53.4024C233.169 53.4364 233.111 53.4577 233.039 53.4629C232.894 53.4733 232.751 53.4687 232.613 53.4897C232.428 53.5125 232.219 53.5286 232.071 53.5843C231.678 53.7243 231.734 53.8594 232.19 53.9862C232.324 54.0256 232.504 54.0883 232.524 54.1502C232.694 54.6163 233.129 55.0901 232.605 55.5394C232.571 55.5674 232.584 55.6088 232.582 55.649C232.565 55.9105 232.4 56.1215 231.874 56.2172C231.453 56.2948 231.047 56.3935 230.528 56.5048C230.853 56.6733 231.139 56.8391 231.458 56.9869C231.816 57.1475 231.816 57.2688 231.408 57.3876C231.245 57.4372 231.003 57.4713 230.942 57.548C230.829 57.7019 230.825 57.8835 230.765 58.0764C230.859 58.1029 231.041 58.1455 231.135 58.1721C231.244 58.3562 231.339 58.499 231.44 58.6624C231.101 58.7152 230.87 58.8258 231.088 59.0577C231.11 59.0845 231.075 59.1326 231.041 59.1606C230.8 59.4321 230.939 59.6435 231.454 59.8401C231.759 59.9516 231.924 60.1395 231.649 60.3027C231.383 60.4665 231.204 60.6412 231.032 60.8316C230.818 61.0595 230.186 61.1884 230.196 61.5275C229.414 61.6311 229.537 61.9677 229.55 62.2665C229.556 62.4285 229.447 62.512 229.155 62.568C228.694 62.653 228.681 62.7329 229.087 62.8816C229.385 62.9876 229.459 63.0785 229.392 63.2558C229.343 63.3888 229.486 63.5449 229.568 63.7576C229.067 63.9761 229.882 64.1121 230.021 64.3185C229.941 64.4444 229.933 64.5701 229.894 64.6937C229.835 64.8664 229.822 65.0626 229.653 65.2077C229.493 65.3483 229.439 65.4355 229.695 65.569C229.795 65.6213 229.863 65.6965 229.906 65.7652C230.045 65.9766 230.313 66.0401 230.752 66.0547C232.685 66.1098 234.616 66.185 236.54 66.2496C237.395 66.2771 238.258 66.2951 239.113 66.3076C240.16 66.3229 241.201 66.3075 242.239 66.3374C243.277 66.3673 244.32 66.448 245.358 66.4879C246.084 66.5169 246.805 66.5051 247.532 66.524C249.769 66.5694 252.007 66.6048 254.244 66.6602C258.645 66.7663 263.046 66.8874 267.447 66.9985C267.847 67.0104 268.24 66.9815 268.632 66.9878C270.494 67.028 272.347 67.0777 274.208 67.1279C274.583 67.1382 274.963 67.1993 275.338 67.2196C275.601 67.2374 275.88 67.2563 276.13 67.2227C277.58 67.0683 279.001 66.8615 280.557 66.9214C282.656 67.0029 284.75 67.0386 286.85 67.1C287.976 67.1308 289.101 67.1767 290.227 67.2175C291.049 67.2479 291.871 67.2833 292.693 67.3137C294.761 67.388 296.836 67.4629 298.903 67.5422C300.467 67.6027 302.032 67.653 303.588 67.728C306.762 67.8874 309.933 68.102 313.101 68.2206C317.164 68.3694 321.232 68.4478 325.297 68.5563C326.903 68.5993 328.508 68.6373 330.113 68.6854C333.491 68.7878 336.867 68.9154 340.239 68.9871C344.026 69.0717 347.8 69.1 351.588 69.1746C353.73 69.2135 355.876 69.3083 358.025 69.3528C360.518 69.4054 363.013 69.4278 365.506 69.4704C366.849 69.4956 368.197 69.5515 369.54 69.5717C371.322 69.6015 373.107 69.596 374.897 69.6313C376.767 69.667 378.642 69.7485 380.511 69.7892C381.27 69.8052 382.025 69.7604 382.786 69.7412C383.171 69.7319 383.549 69.6969 383.932 69.7127C384.666 69.7422 385.397 69.8271 386.132 69.8515C388.192 69.9152 390.252 69.9739 392.314 70.0125C393.089 70.0296 393.852 69.9803 394.621 69.9616C394.726 69.9586 394.838 69.951 394.942 69.9581C396.167 70.0612 397.378 70.1432 398.619 70.1363C401.051 70.1242 403.496 70.1786 405.934 70.2124C407.733 70.2382 409.53 70.2841 411.328 70.3149C414.381 70.3701 417.442 70.4257 420.495 70.4759C421.789 70.4979 423.076 70.5193 424.371 70.5363C425.586 70.5529 426.794 70.5589 428.009 70.5755C428.783 70.6127 429.555 70.665 430.329 70.6972C431.056 70.7262 431.776 70.7144 432.504 70.7283C434.741 70.7737 436.979 70.809 439.215 70.8645C443.617 70.9705 448.018 71.0917 452.419 71.2028C452.818 71.2147 453.212 71.1858 453.604 71.1921C455.465 71.2322 457.318 71.2819 459.179 71.3322C459.555 71.3424 459.935 71.4035 460.31 71.4238C460.573 71.4416 460.851 71.4605 461.102 71.4269C462.551 71.2726 463.972 71.0658 465.529 71.1257C467.628 71.2072 469.722 71.2429 471.822 71.3042C472.948 71.335 474.073 71.3809 475.199 71.4217C476.021 71.4521 476.843 71.4876 477.665 71.518C479.732 71.5923 481.808 71.6671 483.875 71.7465C485.439 71.8069 487.004 71.8573 488.56 71.9323C491.734 72.0916 494.904 72.3063 498.073 72.4248C502.136 72.5736 506.203 72.652 510.269 72.7606C511.874 72.8036 513.48 72.8416 515.085 72.8896C518.463 72.9921 521.839 73.1196 525.211 73.1913C528.998 73.276 532.772 73.3042 536.56 73.3788C538.701 73.4177 540.848 73.5125 542.997 73.557C545.49 73.6096 547.985 73.6321 550.478 73.6746C551.821 73.6998 553.169 73.7558 554.512 73.776C556.294 73.8057 558.079 73.8003 559.861 73.8351C561.73 73.8707 563.605 73.9522 565.475 73.9929C566.234 74.009 566.989 73.9641 567.75 73.9449C568.135 73.9356 568.513 73.9006 568.896 73.9164C569.63 73.9459 570.361 74.0308 571.095 74.0552C573.156 74.1189 575.216 74.1776 577.278 74.2162C578.053 74.2283 578.816 74.184 579.585 74.1653C579.689 74.1623 579.802 74.1548 579.905 74.1618C581.131 74.2649 582.342 74.3469 583.582 74.34C586.015 74.3279 588.46 74.3823 590.898 74.4161C592.697 74.4419 594.494 74.4878 596.292 74.5186C599.345 74.5738 602.405 74.6295 605.458 74.6796C606.753 74.7016 608.04 74.723 609.335 74.74C611.166 74.7629 613.005 74.7713 614.836 74.7993C616.186 74.82 617.535 74.8709 618.886 74.8916C620.013 74.9124 621.141 74.9029 622.268 74.9186C624.179 74.9419 626.097 74.9758 628.008 74.989C628.952 74.9974 629.893 74.9247 630.834 74.9632C632.391 75.0231 633.891 75.0792 635.112 74.5002C635.425 74.3498 635.559 74.2629 635.371 74.0583C635.177 73.8431 635.112 73.6014 635.566 73.5008C636.053 73.3974 636.081 73.2074 636.086 72.9956C636.091 72.7889 636.121 72.5637 635.965 72.3814C635.771 72.1562 635.812 72.0125 636.055 71.827C636.274 71.665 636.366 71.4642 636.49 71.2706C636.588 71.1206 636.583 70.9385 636.743 70.808C636.996 70.6079 637.435 70.4912 637.487 70.1866C637.511 70.0469 638.029 69.9506 638.35 69.8208C638.334 69.8147 638.282 69.7506 638.226 69.7518C637.62 69.7209 637.718 69.5508 637.78 69.3378C637.82 69.2143 637.677 69.0582 637.55 68.9283C637.467 68.8419 637.271 68.7832 637.247 68.7715C637.573 68.435 637.839 68.1349 638.145 67.8526C638.239 67.7629 638.451 67.7015 638.607 67.6313C638.746 67.7064 638.877 67.791 639.033 67.8621C639.149 67.9155 639.312 67.9922 639.425 67.9846C639.642 67.969 639.83 67.901 639.952 67.8739C639.785 67.7262 639.633 67.5998 639.506 67.4649C639.506 67.4599 639.801 67.3535 639.863 67.3729C640.044 67.4306 640.173 67.5303 640.374 67.6449C640.447 67.6296 640.601 67.6097 640.716 67.5619C641.414 67.2759 642.119 66.9954 642.786 66.6921C642.885 66.6432 642.864 66.4802 642.789 66.3943C642.692 66.2817 642.473 66.1962 642.227 66.0482C642.976 65.9626 643.316 65.7684 643.147 65.4085C642.924 65.3834 642.726 65.3648 642.535 65.3469C642.528 65.3212 642.514 65.295 642.508 65.2693C642.851 65.1562 643.193 64.9369 643.544 64.9455C644.167 64.9574 644.57 64.7928 645.017 64.6716C645.302 64.5949 645.483 64.39 645.614 64.2221C645.649 64.1739 645.352 64.0478 645.19 63.9611C645.02 63.8687 644.858 63.7669 644.654 63.7026C644.458 63.6388 644.206 63.5813 644.005 63.593C643.275 63.6294 642.761 63.5239 642.656 63.1583C642.551 62.7876 642.116 62.7126 641.585 62.6313C641.427 62.6054 641.268 62.5795 641.11 62.5486C640.29 62.3668 639.914 61.8565 640.226 61.4636C640.33 61.3393 640.298 61.0947 640.127 61.0074C639.786 60.8278 639.332 60.6708 638.881 60.5948C637.702 60.3887 636.547 60.1792 635.633 59.6982C635.192 59.4613 635.217 59.4478 635.676 59.2668C636.586 58.9143 637.87 58.8547 638.491 58.2605C638.849 57.9211 639.52 57.6736 639.793 57.288C639.889 57.1582 639.986 57.0133 639.97 56.8759C639.973 56.8306 639.6 56.7852 639.34 56.7271C639.57 56.6266 639.776 56.5344 640.072 56.403C639.841 56.3873 639.769 56.3825 639.706 56.3782C639.563 56.3584 639.428 56.3392 639.293 56.32C639.376 56.2751 639.467 56.2257 639.55 56.1758C639.609 56.1393 639.691 56.0994 639.71 56.0553C639.776 55.8981 639.842 55.741 639.86 55.5806C639.865 55.5001 639.799 55.3947 639.691 55.3369C639.381 55.1795 639.054 55.0261 638.695 54.8957C638.452 54.8086 638.168 54.7439 638.379 54.5763C638.572 54.4278 638.797 54.2915 639.263 54.3837C639.437 54.4157 639.78 54.4238 639.807 54.3852C639.885 54.2794 639.926 54.1357 639.829 54.0281C639.747 53.9317 639.496 53.8591 639.3 53.7903C638.909 53.6477 638.349 53.6451 638.177 53.3305C638.098 53.1887 637.926 53.2428 637.728 53.3505C637.512 53.4673 637.108 53.5358 636.78 53.5288C636.613 53.5225 636.378 53.3097 636.291 53.1725C636.196 53.0246 636.23 52.8603 636.216 52.7028C636.166 52.0984 636.665 51.6626 637.629 51.3591C637.767 51.318 637.927 51.1975 637.899 51.135C637.713 50.7841 637.916 50.4796 638.095 50.1686C638.392 49.6533 638.572 49.5797 639.621 49.5699C639.981 49.569 640.058 49.4934 639.933 49.3233C639.881 49.2542 639.894 49.1692 639.869 49.0665C640.554 49.2341 640.897 49.126 640.934 48.7902C640.953 48.6097 641.029 48.4229 640.976 48.2426C640.859 47.8155 641.014 47.3866 640.625 46.9613C640.497 46.8264 640.523 46.5503 640.695 46.4862C641.253 46.2664 641.546 45.9277 641.325 45.4936C641.057 45.5513 640.798 45.6094 640.538 45.6676C640.523 45.6565 640.515 45.6459 640.5 45.6347C640.667 45.5299 640.841 45.4255 641.008 45.3156C640.647 45.2103 640.308 45.1268 640.011 45.0108C639.902 44.968 639.909 44.8524 639.867 44.7687C640.027 44.7543 640.231 44.6974 640.341 44.7301C641.016 44.9323 641.427 44.7582 641.815 44.5723C641.7 44.4988 641.535 44.4372 641.539 44.3869C641.566 44.0858 641.198 44.076 640.76 44.0464C640.609 44.0361 640.354 43.8926 640.358 43.8222C640.368 43.6613 640.451 43.4851 640.635 43.3662C641.051 43.1015 641.561 42.8785 642.009 42.631C642.216 42.5188 642.353 42.3766 642.537 42.2526C642.846 42.0463 643.163 41.8405 643.48 41.6347C643.638 41.5343 643.812 41.44 644.027 41.3183C643.765 41.2854 643.598 41.269 643.44 41.2482C643.518 41.1474 643.648 41.1158 643.778 41.0792C643.884 41.051 644.045 41.0417 644.079 40.9986C644.226 40.8368 644.34 40.6678 644.463 40.5044C644.455 40.5038 644.366 40.5079 644.293 40.5282C643.043 40.8173 641.691 40.9379 640.297 40.9698C638.991 41.0026 637.687 41.0052 636.38 41.043C633.872 41.1105 631.362 41.1932 628.861 41.2713C628.421 41.2819 628.112 41.2257 628.057 40.9543C628.039 40.8571 627.895 40.7312 627.731 40.6746C626.971 40.4111 626.188 40.3985 625.401 40.5725C625.255 40.603 625.06 40.6604 624.957 40.6333C624.272 40.4556 623.631 40.6041 622.975 40.6001C621.776 40.5846 620.579 40.5289 619.381 40.5033C618.183 40.4777 616.99 40.4778 615.791 40.4623C613.929 40.4322 612.067 40.397 610.205 40.3619C607.416 40.3145 604.627 40.2721 601.83 40.2141C599.881 40.173 597.925 40.1012 595.975 40.0702C591.132 39.9848 586.288 39.9144 581.444 39.839C579.446 39.8098 577.448 39.7806 575.442 39.7458C572.118 39.6824 568.801 39.6195 565.477 39.551C563.728 39.5134 561.972 39.44 560.221 39.4224C557.999 39.3932 555.78 39.4299 553.559 39.3906C549.139 39.3136 544.722 39.2065 540.311 39.12C540.111 39.1166 539.877 39.1562 539.737 39.2175C539.259 39.4426 538.678 39.5195 538.042 39.5724C537.109 39.6557 536.091 39.6878 535.301 39.907C533.461 40.4188 531.465 40.2281 529.501 40.1608C527.92 40.1043 526.346 39.9472 524.768 39.8505C523.828 39.7869 522.887 39.7333 521.945 39.7048C521.027 39.673 520.115 39.6769 519.195 39.6652C519.068 39.6616 518.915 39.6765 518.821 39.6398C518.094 39.3684 517.344 39.454 516.597 39.5044C516.469 39.5109 516.325 39.5012 516.199 39.4825C515.85 39.4336 515.474 39.3071 515.176 39.3375C514.202 39.4281 513.272 39.2086 512.314 39.164C510.383 39.0838 508.458 38.913 506.521 38.792C504.808 38.6861 503.093 38.5953 501.38 38.4894C499.523 38.3789 497.674 38.2588 495.817 38.1482C494.837 38.0919 493.854 38.0658 492.866 38.004C491.336 37.9105 489.806 37.8119 488.285 37.6888C487.171 37.5982 486.059 37.4674 484.947 37.3467C484.589 37.3073 484.234 37.2277 483.882 37.2241C482.532 37.2034 481.194 37.2239 479.844 37.1931C476.376 37.12 472.918 37.0323 469.451 36.9441C466.032 36.8541 462.614 36.764 459.195 36.674C459.299 36.5447 459.396 36.4098 459.492 36.28C459.484 36.2795 459.396 36.2836 459.323 36.3039C458.681 36.4524 458.011 36.5534 457.326 36.6233C456.049 36.5873 454.778 36.5568 453.501 36.5208C452.246 36.4915 450.99 36.4973 449.728 36.4674C448.761 36.4424 447.798 36.357 446.839 36.3526C445.879 36.3483 444.901 36.1205 443.968 36.33C443.911 36.3413 443.824 36.3354 443.752 36.3305C443.193 36.3129 442.634 36.3003 442.075 36.2826C441.726 36.2287 441.375 36.2201 441.029 36.2522C440.701 36.2452 440.374 36.2332 440.046 36.2261C438.137 36.1777 436.22 36.1237 434.311 36.0753C431.835 36.0137 429.359 35.9521 426.89 35.8911C423.456 35.805 420.021 35.7189 416.593 35.6434C415.898 35.6267 415.216 35.6613 414.52 35.6596C414.072 35.6596 413.762 35.7548 413.513 35.9046C412.682 35.8837 411.852 35.8578 411.02 35.8469C406.177 35.7615 401.333 35.6911 396.49 35.6158C394.491 35.5865 392.493 35.5573 390.487 35.5225C387.163 35.4591 383.847 35.3962 380.523 35.3277C378.773 35.2901 377.018 35.2167 375.267 35.1992C373.044 35.1699 370.826 35.2066 368.604 35.1673C364.185 35.0903 359.767 34.9832 355.356 34.8967C355.156 34.8933 354.922 34.9329 354.782 34.9942C354.304 35.2194 353.723 35.2962 353.088 35.3491C352.154 35.4324 351.136 35.4645 350.347 35.6837C348.506 36.1955 346.51 36.0048 344.546 35.9375C342.966 35.881 341.391 35.7239 339.813 35.6272C338.873 35.5636 337.933 35.51 336.99 35.4816C336.072 35.4497 335.16 35.4536 334.241 35.4419C334.113 35.4383 333.96 35.4532 333.866 35.4165C333.139 35.1451 332.39 35.2307 331.643 35.2811C331.514 35.2876 331.371 35.2779 331.236 35.2587C330.887 35.2098 330.511 35.0833 330.213 35.1137C329.239 35.2043 328.309 34.9848 327.352 34.9402C325.421 34.8599 323.495 34.6892 321.559 34.5682C319.845 34.4623 318.131 34.3715 316.417 34.2656C314.56 34.155 312.712 34.0349 310.855 33.9244C309.874 33.8681 308.892 33.842 307.903 33.7801C306.373 33.6866 304.843 33.5881 303.323 33.465C302.209 33.3744 301.097 33.2436 299.984 33.1228C299.627 33.0835 299.272 33.0039 298.92 33.0003C297.569 32.9795 296.232 33.0001 294.881 32.9693C291.414 32.8962 287.955 32.8085 284.488 32.7203C279.177 32.5829 273.858 32.4349 268.546 32.3026C267.291 32.2732 266.035 32.2791 264.773 32.2492C263.806 32.2241 262.844 32.1388 261.884 32.1344C260.924 32.13 259.946 31.9022 259.013 32.1118C258.956 32.1231 258.869 32.1171 258.797 32.1123C257.559 32.079 256.321 32.0406 255.083 32.0073C253.174 31.9589 251.258 31.9049 249.348 31.8565C246.872 31.7949 244.396 31.7333 241.928 31.6723C238.493 31.5862 235.066 31.5007 231.63 31.4246C230.935 31.4079 230.253 31.4425 229.557 31.4409C229.005 31.4388 228.669 31.5777 228.383 31.7906C228.14 31.9711 228.186 32.1258 228.563 32.2372C228.752 32.2903 229.017 32.2679 229.272 32.2851C229.16 32.5502 228.666 32.638 228.041 32.7826C228.426 32.8995 228.686 32.9626 228.912 33.0486C229.069 33.1097 229.167 33.2022 229.298 33.2767C229.121 33.295 228.951 33.3189 228.775 33.3322C228.71 33.3379 228.647 33.3235 228.583 33.3192C228.542 33.3367 228.493 33.3586 228.452 33.376C228.65 33.5308 228.823 33.6991 229.063 33.8415C229.379 34.0246 229.778 34.1728 229.6 34.4537C229.485 34.6327 229.433 34.8211 229.318 35.0002C229.273 35.0779 229.177 35.1977 229.073 35.2008C228.865 35.2119 228.627 35.1705 228.422 35.1163C228.257 35.0798 228.118 34.9997 227.969 34.9442C227.928 34.9566 227.888 34.969 227.847 34.9864C228.072 35.2188 227.758 35.5006 228.329 35.7059C228.564 35.7925 228.478 35.8877 228.197 35.904C227.763 35.9302 227.764 36.0414 227.97 36.2118C228.168 36.3717 228.35 36.5305 228.623 36.7711C228.184 36.7415 227.858 36.7194 227.483 36.694C227.559 37.0123 228.341 37.045 228.546 37.3468C228.106 37.4735 227.674 37.6008 227.227 37.7271C227.334 37.8 227.441 37.878 227.633 38.0121C227.297 38.1308 226.97 38.24 226.675 38.3614C226.576 38.4052 226.49 38.4954 226.51 38.5573C226.55 38.6913 226.662 38.8201 226.771 38.9991C226.755 38.9981 226.858 39.0151 226.96 39.0372C227.268 39.1035 227.376 39.2927 227.13 39.3871C226.843 39.504 226.54 39.6148 226.199 39.6927C225.428 39.8678 225.412 39.8667 225.973 40.233C226.065 40.2947 226.182 40.3431 226.266 40.4093C226.342 40.47 226.378 40.5431 226.43 40.6073C226.284 40.6277 226.139 40.6532 225.986 40.6631C225.673 40.6823 225.345 40.6753 225.039 40.7101C224.507 40.7701 224.667 41.0283 224.639 41.2133L224.637 41.2485Z" fill="#FCD214"/>
<path d="M266.343 29.16H256.563V60H243.003V29.16H233.283V18.6H266.343V29.16ZM307.43 60H293.87V44.7H282.59V60H269.03V18.6H282.59V33.6H293.87V18.6H307.43V60ZM343.144 60H313.144V18.6H342.544V29.28H326.644V33.78H341.644V44.4H326.644V49.2H343.144V60ZM394.887 48C394.887 57.06 387.327 60 379.467 60H359.067V18.6H376.167C379.767 18.6 383.667 18.9 386.667 20.1C389.667 21.3 392.787 24.3 392.787 29.1C392.787 33.9 389.667 37.2 386.967 38.28C391.767 39.6 394.887 43.2 394.887 48ZM379.467 31.38C379.467 28.74 377.367 28.38 375.267 28.38H372.567V34.38H375.267C377.307 34.38 379.467 33.9 379.467 31.38ZM381.267 46.68C381.267 44.04 379.347 43.38 377.067 43.38H372.567V49.98H377.067C379.227 49.98 381.267 49.2 381.267 46.68ZM428.377 60H398.377V18.6H427.777V29.28H411.877V33.78H426.877V44.4H411.877V49.2H428.377V60ZM472.481 60H458.381L445.781 36.9C445.781 36.9 446.081 41.4 446.081 44.4V60H432.881V18.6H447.581L459.581 41.7C459.581 41.7 459.281 37.2 459.281 34.2V18.6H472.481V60ZM508.167 60H478.167V18.6H507.567V29.28H491.667V33.78H506.667V44.4H491.667V49.2H508.167V60ZM541.472 29.28H526.172V35.7H540.572V46.38H526.172V60H512.672V18.6H541.472V29.28ZM558.92 60H545.36V18.6H558.92V60ZM594.69 29.16H584.91V60H571.35V29.16H561.63V18.6H594.69V29.16ZM627.098 46.38C627.098 50.7 624.998 54.6 621.698 57.18C618.398 59.7 614.258 60.72 609.458 60.72C604.658 60.72 599.138 59.4 593.498 55.2L599.498 45C603.338 48.24 608.738 49.5 610.538 49.5C612.338 49.5 613.598 48.96 613.598 47.76C613.598 46.56 612.098 46.08 610.598 45.6C609.098 45.18 605.798 44.1 604.598 43.68C598.838 41.4 595.118 38.7 595.118 31.8C595.118 27.3 597.458 23.82 599.918 21.78C602.438 19.68 606.578 18.18 612.098 18.18C617.618 18.18 623.258 20.16 626.858 23.16L621.698 32.76C618.578 30 614.018 28.8 611.858 28.8C609.698 28.8 608.498 29.22 608.498 30.48C608.498 31.68 610.418 32.1 611.378 32.4C612.338 32.7 614.858 33.42 616.298 33.9C622.538 36 627.098 39.12 627.098 46.38Z" fill="#003561"/>
<path d="M23.5902 60H3.07015V28.95H23.1852V34.755H10.3152V41.1H22.4652V46.905H10.3152V54.105H23.5902V60ZM49.81 60H41.62L36.625 52.62L31.585 60H23.395L32.305 48.435L24.34 37.815H32.485L36.625 44.475L40.72 37.815H48.865L40.9 48.435L49.81 60ZM75.2083 48.93C75.2083 55.455 71.1583 60.495 64.7233 60.495C61.4383 60.495 59.0983 59.28 57.7033 57.21V68.145H50.5033V37.815H57.3433L57.2983 40.65H57.3883C59.0083 38.715 61.3933 37.41 64.7683 37.41C71.1583 37.41 75.2083 42.405 75.2083 48.93ZM67.8733 48.84C67.8733 45.42 65.7583 43.08 62.6533 43.08C59.5933 43.08 57.4783 45.42 57.4783 48.84C57.4783 52.26 59.5933 54.6 62.6533 54.6C65.7583 54.6 67.8733 52.26 67.8733 48.84ZM99.1002 48.255C99.1002 49.335 99.0102 50.64 99.0102 50.64H83.2152C83.5302 53.835 85.9602 55.275 88.8852 55.275C91.7652 55.275 94.2852 54.015 95.5452 53.16L98.3802 56.895C97.6601 57.435 94.7352 60.495 87.8502 60.495C81.0102 60.495 76.0152 56.265 76.0152 48.93C76.0152 41.595 81.4152 37.41 87.9852 37.41C94.5552 37.41 99.1002 41.775 99.1002 48.255ZM92.3952 46.545C92.3502 44.52 90.8652 42.09 87.8502 42.09C84.8802 42.09 83.3502 44.43 83.2602 46.545H92.3952ZM116.048 37.815L115.643 44.43H115.328C114.923 44.205 113.978 43.89 112.718 43.89C109.163 43.89 108.263 47.22 108.263 50.145V60H101.063V37.815H108.263L108.218 40.965H108.308C109.568 38.535 111.413 37.41 113.798 37.41C115.283 37.41 116.048 37.815 116.048 37.815ZM124.9 31.515C124.9 33.765 123.235 35.25 120.805 35.25C118.375 35.25 116.71 33.765 116.71 31.515C116.71 29.31 118.375 27.78 120.805 27.78C123.235 27.78 124.9 29.31 124.9 31.515ZM124.405 60H117.205V37.815H124.405V60ZM149.674 48.255C149.674 49.335 149.584 50.64 149.584 50.64H133.789C134.104 53.835 136.534 55.275 139.459 55.275C142.339 55.275 144.859 54.015 146.119 53.16L148.954 56.895C148.234 57.435 145.309 60.495 138.424 60.495C131.584 60.495 126.589 56.265 126.589 48.93C126.589 41.595 131.989 37.41 138.559 37.41C145.129 37.41 149.674 41.775 149.674 48.255ZM142.969 46.545C142.924 44.52 141.439 42.09 138.424 42.09C135.454 42.09 133.924 44.43 133.834 46.545H142.969ZM173.417 60H166.217V48.435C166.217 45.51 165.767 43.305 162.797 43.305C159.692 43.305 158.837 45.825 158.837 49.02V60H151.637V37.815H158.837L158.792 41.01H158.882C160.097 39.03 162.122 37.41 165.317 37.41C171.752 37.41 173.417 41.55 173.417 46.905V60ZM195.553 57.84C195.328 58.02 192.988 60.495 187.093 60.495C181.018 60.495 175.393 56.355 175.393 48.975C175.393 41.55 181.108 37.41 187.183 37.41C192.853 37.41 195.418 39.75 195.418 39.75L193.843 45.195C193.213 44.7 191.233 43.215 188.128 43.215C185.068 43.215 182.638 45.33 182.638 48.84C182.638 52.35 184.843 54.555 188.218 54.555C191.593 54.555 193.843 52.395 193.843 52.395L195.553 57.84ZM218.837 48.255C218.837 49.335 218.747 50.64 218.747 50.64H202.952C203.267 53.835 205.697 55.275 208.622 55.275C211.502 55.275 214.022 54.015 215.282 53.16L218.117 56.895C217.397 57.435 214.472 60.495 207.587 60.495C200.747 60.495 195.752 56.265 195.752 48.93C195.752 41.595 201.152 37.41 207.722 37.41C214.292 37.41 218.837 41.775 218.837 48.255ZM212.132 46.545C212.087 44.52 210.602 42.09 207.587 42.09C204.617 42.09 203.087 44.43 202.997 46.545H212.132Z" fill="#003561"/>
<path d="M665.171 48.975C665.171 56.13 659.906 60.495 652.886 60.495C645.866 60.495 640.556 56.13 640.556 48.975C640.556 41.82 645.866 37.41 652.886 37.41C659.906 37.41 665.171 41.82 665.171 48.975ZM657.926 48.84C657.926 45.555 656.036 43.08 652.886 43.08C649.691 43.08 647.846 45.555 647.846 48.84C647.846 52.125 649.691 54.6 652.886 54.6C656.036 54.6 657.926 52.125 657.926 48.84ZM681.178 28.95L680.818 33.945C680.818 33.945 679.423 33.54 678.163 33.54C676.048 33.54 675.508 34.755 675.508 36.42V37.86H680.278V43.305H675.508V60H668.263V43.305H665.428V37.86H668.263V36.645C668.263 31.335 670.783 28.365 676.273 28.365C679.108 28.365 681.178 28.95 681.178 28.95ZM709.055 60H688.535V28.95H708.65V34.755H695.78V41.1H707.93V46.905H695.78V54.105H709.055V60ZM733.93 37.815L724.795 60H718.045L708.955 37.815H716.47L721.51 51.855L726.505 37.815H733.93ZM756.384 48.255C756.384 49.335 756.294 50.64 756.294 50.64H740.499C740.814 53.835 743.244 55.275 746.169 55.275C749.049 55.275 751.569 54.015 752.829 53.16L755.664 56.895C754.944 57.435 752.019 60.495 745.134 60.495C738.294 60.495 733.299 56.265 733.299 48.93C733.299 41.595 738.699 37.41 745.269 37.41C751.839 37.41 756.384 41.775 756.384 48.255ZM749.679 46.545C749.634 44.52 748.149 42.09 745.134 42.09C742.164 42.09 740.634 44.43 740.544 46.545H749.679ZM773.331 37.815L772.926 44.43H772.611C772.206 44.205 771.261 43.89 770.001 43.89C766.446 43.89 765.546 47.22 765.546 50.145V60H758.346V37.815H765.546L765.501 40.965H765.591C766.851 38.535 768.696 37.41 771.081 37.41C772.566 37.41 773.331 37.815 773.331 37.815ZM796.809 37.815L786.909 62.115C785.289 66.075 783.489 68.505 779.709 68.505C775.929 68.505 773.544 67.425 773.544 67.425L774.984 62.115C774.984 62.115 776.559 62.7 777.639 62.7C778.449 62.7 779.214 62.7 779.799 61.26L780.609 59.325L771.834 37.815H779.349L784.389 52.08L789.384 37.815H796.809ZM825.516 44.475C825.516 54.87 818.316 60 808.506 60H797.976V28.95H808.506C818.271 28.95 825.516 34.125 825.516 44.475ZM818.136 44.475C818.136 38.625 814.806 34.98 808.911 34.98H805.221V53.835H808.911C814.671 53.835 818.136 50.235 818.136 44.475ZM851.127 48.975C851.127 56.13 845.862 60.495 838.842 60.495C831.822 60.495 826.512 56.13 826.512 48.975C826.512 41.82 831.822 37.41 838.842 37.41C845.862 37.41 851.127 41.82 851.127 48.975ZM843.882 48.84C843.882 45.555 841.992 43.08 838.842 43.08C835.647 43.08 833.802 45.555 833.802 48.84C833.802 52.125 835.647 54.6 838.842 54.6C841.992 54.6 843.882 52.125 843.882 48.84ZM860.653 60H853.453V28.95H860.653V60ZM871.608 60H864.408V28.95H871.608V60ZM895.073 60H888.188L888.053 57.66C887.108 58.605 885.308 60.495 881.708 60.495C877.793 60.495 873.653 58.38 873.653 53.43C873.653 48.48 878.198 46.815 882.293 46.635L887.873 46.41V45.915C887.873 43.575 886.208 42.36 883.328 42.36C880.493 42.36 877.658 43.62 876.533 44.34L874.643 39.66C876.533 38.715 879.998 37.41 884.138 37.41C891.068 37.41 895.073 40.29 895.073 47.49V60ZM887.918 50.235L884.363 50.46C882.158 50.55 880.853 51.495 880.853 53.16C880.853 54.87 882.248 55.905 884.228 55.905C886.163 55.905 887.468 54.645 887.918 53.88V50.235ZM913.164 37.815L912.759 44.43H912.444C912.039 44.205 911.094 43.89 909.834 43.89C906.279 43.89 905.379 47.22 905.379 50.145V60H898.179V37.815H905.379L905.334 40.965H905.424C906.684 38.535 908.529 37.41 910.914 37.41C912.399 37.41 913.164 37.815 913.164 37.815ZM923.411 41.28C923.411 43.71 921.656 45.105 919.181 45.105C916.661 45.105 914.906 43.71 914.906 41.28C914.906 38.85 916.661 37.41 919.181 37.41C921.656 37.41 923.411 38.85 923.411 41.28ZM923.411 56.625C923.411 59.055 921.656 60.495 919.181 60.495C916.661 60.495 914.906 59.055 914.906 56.625C914.906 54.195 916.661 52.755 919.181 52.755C921.656 52.755 923.411 54.195 923.411 56.625Z" fill="#003561"/>
</svg>
