<svg width="300" height="61" viewBox="0 0 300 61" fill="none" xmlns="http://www.w3.org/2000/svg">
<path d="M72.7263 3.41257V40.3159H4.06814V3.41257H72.7263ZM73.5092 0.150635H3.27984C1.91527 0.150635 0.806213 1.25969 0.806213 2.62427V41.0987C0.806213 42.4688 1.91527 43.5724 3.27984 43.5724H73.5092C74.8792 43.5724 75.9828 42.4633 75.9828 41.0987V2.62427C75.9828 1.25425 74.8738 0.150635 73.5092 0.150635Z" fill="white"/>
<path d="M48.4139 45.1003H28.3802V56.5443H48.4139V45.1003Z" fill="white"/>
<path d="M54.2908 57.887H22.5033C22.2721 57.887 22.0847 58.0744 22.0847 58.3056V60.328C22.0847 60.5592 22.2721 60.7466 22.5033 60.7466H54.2908C54.522 60.7466 54.7095 60.5592 54.7095 60.328V58.3056C54.7095 58.0744 54.522 57.887 54.2908 57.887Z" fill="white"/>
<path d="M151.161 55.7012V56.2068C151.161 57.0494 150.476 57.7344 149.633 57.7344H135.493C134.65 57.7344 133.965 57.0494 133.965 56.2068V55.7012H101.46V58.1748C101.46 59.5937 102.612 60.7463 104.031 60.7463H181.095C182.513 60.7463 183.666 59.5937 183.666 58.1748V55.7012H151.161Z" fill="white"/>
<path d="M175.522 12.0674V50.58H109.609V12.0674H175.522ZM176.49 8.61523H108.653C107.277 8.61523 106.163 9.72973 106.163 11.1052V54.0376H178.985V11.1052C178.985 9.72973 177.871 8.61523 176.495 8.61523H176.49Z" fill="white"/>
<path d="M251.57 15.0631C251.728 15.0631 251.853 14.9381 251.853 14.7804V11.5837C251.853 11.4261 251.728 11.301 251.57 11.301H251.413V9.63203C251.413 7.24538 249.477 5.30997 247.091 5.30997H245.846V5.22842C245.846 5.08707 245.732 4.9729 245.59 4.9729H240.681C240.54 4.9729 240.426 5.08707 240.426 5.22842V5.30997H213.466C211.079 5.30997 209.144 7.24538 209.144 9.63203V56.4244C209.144 58.8111 211.079 60.7465 213.466 60.7465H247.091C249.477 60.7465 251.413 58.8111 251.413 56.4244V19.4124H251.57C251.728 19.4124 251.853 19.2873 251.853 19.1297V15.933C251.853 15.7753 251.728 15.6503 251.57 15.6503H251.413V15.0631H251.57ZM248.156 56.4244C248.156 57.0061 247.683 57.4846 247.096 57.4846H213.471C212.889 57.4846 212.411 57.0116 212.411 56.4244V9.63203C212.411 9.05031 212.884 8.5719 213.471 8.5719H247.096C247.678 8.5719 248.156 9.04488 248.156 9.63203V56.4244Z" fill="white"/>
<path d="M290.922 19.9453H286.366C285.904 19.9453 285.529 20.3204 285.529 20.7825C285.529 21.2446 285.904 21.6198 286.366 21.6198H290.922C291.384 21.6198 291.759 21.2446 291.759 20.7825C291.759 20.3204 291.384 19.9453 290.922 19.9453Z" fill="white"/>
<path d="M299.974 26.2736H299.598V20.8643C299.598 18.8419 297.951 17.1946 295.929 17.1946H281.364C279.342 17.1946 277.695 18.8419 277.695 20.8643V22.8758H277.33V24.0011H277.695V26.1051H277.33V29.9215H277.695V30.351H277.33V34.1675H277.695V57.0771C277.695 59.0995 279.342 60.7468 281.364 60.7468H295.929C297.951 60.7468 299.598 59.0995 299.598 57.0771V31.4003H299.974V26.2845V26.2736ZM297.364 57.0662C297.364 57.86 296.717 58.5069 295.923 58.5069H281.359C280.565 58.5069 279.918 57.86 279.918 57.0662V20.8643C279.918 20.0705 280.565 19.4236 281.359 19.4236H295.923C296.717 19.4236 297.364 20.0705 297.364 20.8643V57.0717V57.0662Z" fill="white"/>
</svg>
