<svg width="155" height="163" viewBox="0 0 155 163" fill="none" xmlns="http://www.w3.org/2000/svg">
<path d="M143.871 114.353C142.427 116.671 141.142 118.745 139.843 120.812C138.042 123.679 135.846 126.247 133.416 128.609C130.244 131.696 126.976 134.686 123.766 137.737C120.81 140.55 117.397 142.731 113.693 144.45C109.85 146.229 105.967 147.945 102.025 149.504C99.5437 150.484 96.9215 151.133 94.3577 151.912C90.3711 153.126 86.3502 154.21 82.2055 154.782C79.4595 155.16 76.7067 155.461 73.9642 155.866C71.9572 156.16 69.9708 156.575 67.974 156.916C66.8193 157.113 65.6611 157.274 64.5029 157.444C63.6231 157.575 63.4582 157.832 63.4169 158.823C63.3826 159.635 63.8981 159.662 64.5098 159.752C67.2729 160.167 70.0292 160.157 72.7889 159.746C72.9023 159.729 73.0294 159.675 73.1257 159.709C73.3834 159.803 73.6309 159.93 73.8817 160.047C73.6618 160.224 73.4659 160.518 73.2219 160.565C71.7338 160.843 70.2423 161.11 68.7404 161.298C64.6026 161.819 60.4717 162.411 56.3201 162.769C52.4263 163.107 48.6528 162.455 44.9893 161.027C43.1162 160.298 41.0954 159.92 39.1468 159.378C36.0125 158.505 33.2666 156.969 30.854 154.835C29.9467 154.033 28.9432 153.33 27.9706 152.598C27.0083 151.875 26.3279 150.925 25.9911 149.828C25.2487 147.427 23.8637 145.423 22.2519 143.517C18.9355 139.596 16.0452 135.399 13.722 130.843C13.5811 130.569 13.4952 130.164 13.5983 129.9C13.9866 128.893 13.7048 128.057 13.1034 127.237C11.1891 124.635 9.92098 121.708 8.70438 118.768C6.88636 114.38 5.15769 109.938 4.25383 105.279C3.42558 101.017 2.85165 96.7093 2.2296 92.4145C2.03715 91.0866 2.42893 89.8624 3.25375 88.7219C4.79683 86.5879 5.48074 84.096 5.98937 81.5773C6.84168 77.3495 7.64931 73.1116 8.41913 68.867C8.68032 67.4187 8.60128 65.9002 8.97932 64.4887C9.54981 62.3714 10.2165 60.2508 11.1445 58.2673C12.5673 55.2336 14.1619 52.2667 15.8424 49.3601C17.9595 45.6941 21.1625 42.9146 24.2246 40.028C25.3931 38.9276 26.5513 37.8004 27.572 36.5695C30.9193 32.5423 35.0331 29.6825 40.1744 28.1907C42.1368 27.6221 43.9754 26.6655 45.9103 25.9965C50.677 24.3475 55.5984 23.4812 60.6435 23.0497C65.1937 22.6584 69.5102 23.5013 73.8199 24.682C76.3768 25.3844 78.9303 26.1136 81.5147 26.7023C82.6385 26.9565 83.8414 26.9398 85.0098 26.9498C86.412 26.9598 87.7111 27.2709 88.993 27.8061C94.1928 29.9802 99.4028 32.1309 104.62 34.2716C107.885 35.6129 111.16 36.9207 114.435 38.2386C117.765 39.5765 120.473 41.7372 122.776 44.3729C125.054 46.9786 127.223 49.6711 129.423 52.3369C132.261 55.7788 134.595 59.535 136.598 63.4852C136.915 64.1074 137.231 64.7328 137.516 65.3684C138.083 66.6394 137.925 67.8268 136.946 68.847C136.451 69.3621 136.392 69.7233 137.121 70.0344C140.018 71.2719 140.729 73.7906 141.08 76.4999C141.121 76.821 140.973 77.2224 140.788 77.5067C140.324 78.2058 139.781 78.858 139.282 79.537C138.815 80.1692 138.334 80.7946 137.915 81.4569C137.736 81.7412 137.695 82.1092 137.592 82.4369C137.939 82.3801 138.303 82.3767 138.626 82.2597C140.544 81.5639 142.461 81.7947 144.359 82.2664C145.228 82.4838 145.747 83.1092 145.795 84.0391C145.823 84.5943 145.95 85.1496 145.919 85.7015C145.881 86.424 146.273 86.7116 146.898 86.8387C148.129 87.0896 149.359 87.3505 150.596 87.5645C151.943 87.7987 152.057 87.879 152.129 89.1968C152.593 97.5488 150.417 105.172 145.486 112.039C144.881 112.881 144.297 113.741 143.867 114.353H143.871Z" fill="#48CE65"/>
<path d="M52.5135 55.354C52.5135 53.9802 52.4647 52.7697 52.5317 51.5653C52.5804 50.7301 52.3308 49.8948 52.8299 49.0475C53.262 48.3212 53.5847 47.5526 54.2603 46.9958C54.4003 46.8808 54.4855 46.6326 54.4916 46.445C54.4916 46.2574 54.3698 45.9124 54.2785 45.9064C53.4142 45.8337 52.5074 45.9487 51.6796 45.7369C51.1075 45.5916 50.6874 44.9803 49.951 45.1074C49.2875 45.2224 48.6363 45.1498 48.2163 44.4901C48.1798 44.4356 48.0094 44.472 47.9059 44.4598C47.1816 44.357 46.4026 44.7201 45.7513 44.0362C45.24 43.4975 44.4974 43.8728 43.8644 43.8183C43.2071 43.7578 42.9515 42.8983 42.1663 43.0618C41.9229 43.1102 41.8437 42.7531 42.0872 42.632C42.7628 42.2992 42.5558 41.5124 42.9636 40.9919C43.3836 40.4472 43.5601 39.7935 44.3879 39.6604C44.6678 39.6119 44.96 39.1701 45.173 39.2185C46.226 39.4606 46.8468 38.2562 47.8937 38.5104C48.4172 38.6375 48.8859 38.4923 49.3789 38.0807C49.9023 37.6449 50.6996 37.2031 51.3143 37.2757C52.2212 37.3847 52.6352 36.6645 53.3473 36.4768C54.0229 36.3013 54.6559 35.9624 55.3985 35.8171C55.9463 35.7082 56.3601 35.0727 56.8471 35.8716C57.2184 35.2906 57.8696 35.1756 58.5878 35.0545C57.5044 34.1588 56.2019 34.0317 55.3011 33.0996C54.5159 32.2886 53.329 32.0223 52.3369 31.4837C51.6857 31.1266 51.0466 30.8361 50.511 30.2914C49.9023 29.674 49.5249 29.208 50.3344 28.4151C50.6327 28.1246 50.377 27.3197 50.6388 26.9202C51.0587 26.2908 51.6674 25.7763 52.2517 25.274C53.7186 24.003 54.802 22.4839 55.5506 20.6924C55.8245 20.0387 55.9828 19.258 56.701 18.8585C57.614 18.3501 57.6687 17.2425 58.3443 16.5647C58.9652 15.9413 59.592 15.3179 60.219 14.7006C60.2981 14.6219 60.4502 14.5372 60.4442 14.4706C60.3346 13.4054 61.6676 13.1451 61.7528 12.3825C61.8989 11.0873 62.9336 11.0752 63.6701 10.5487C64.1631 10.1916 64.3091 10.5608 64.6439 10.5971C65.9099 10.7484 66.8837 11.2992 67.5898 12.2917C68.0645 12.9575 69.0141 12.6972 69.4888 13.4175C69.6227 13.6172 70.3227 13.4477 70.767 13.4477C70.8765 13.2783 71.0834 13.1088 71.0895 12.9333C71.1139 11.4142 71.1017 9.88896 71.1017 8.2972C71.5278 8.24273 71.8382 8.17616 72.1426 8.17616C73.579 8.16405 75.0154 8.17616 76.4518 8.17616C78.2291 9.42294 80.2437 8.68455 82.1488 8.79955C82.9522 8.84796 83.2809 9.76792 84.2 9.53793C84.9243 9.35636 85.7399 9.49556 86.5129 9.50767C86.6103 9.50767 86.7624 9.54398 86.7928 9.61056C87.2554 10.6516 88.5153 9.72555 89.0692 10.5366C89.3735 10.9905 89.8604 10.815 90.2743 10.8089C90.8465 10.8089 91.0534 11.0873 91.0047 11.6018C90.95 12.1767 91.0656 12.6549 91.5526 13.0362C91.6743 13.133 91.7412 13.5325 91.656 13.6172C90.5665 14.7187 91.1873 16.026 90.9499 17.3575C91.8325 17.1033 92.3864 16.6434 93.1472 16.7341C94.2185 16.8612 95.0279 15.8868 96.1296 15.9231C96.3852 15.9292 96.6287 15.5237 96.9148 15.4511C97.6208 15.2755 98.4121 15.7355 99.0755 15.0395C99.4894 14.6037 100.311 14.7308 100.67 14.1135C101.516 14.3737 102.253 12.6065 103.16 13.9864C104.176 14.1922 104.919 14.64 105.022 15.8081C105.046 16.0684 105.606 16.3286 105.582 16.5405C105.381 18.1322 106.976 19.0764 106.982 20.6137C106.982 21.4005 107.962 22.0299 107.603 22.9801C108.357 23.4825 108.315 24.2451 108.278 25.0137C109.033 25.6553 109.124 26.6479 109.599 27.4407C109.976 28.0701 110.445 28.6572 110.275 29.4803C110.208 29.7951 110.305 30.1461 110.256 30.4669C110.147 31.1871 110.646 32.0465 109.897 32.6154C109.24 33.1117 108.534 33.7412 107.785 33.8501C107.012 33.9651 106.392 34.4735 105.746 34.5098C104.925 34.5522 104.389 35.0969 103.695 35.2058C103.038 35.3087 102.533 35.4903 101.942 35.8171C101.37 36.1379 100.408 35.7687 99.958 36.5918C99.605 37.2455 98.7955 37.076 98.3573 37.5239C97.8338 38.0565 97.3104 38.5104 96.5313 38.7404C96.1418 38.8554 96.2513 39.6422 95.8496 40.084C95.4236 40.5561 94.754 40.3019 94.4619 40.7558C94.188 41.1734 94.0541 41.6818 93.7985 42.2992C95.667 43.5581 96.227 45.864 97.3652 47.8128C97.4199 47.9036 97.5843 47.9641 97.5843 48.0489C97.6208 48.8115 97.5356 49.5922 97.6817 50.3245C97.8521 51.184 97.073 51.6682 97.0244 52.3642C96.9757 53.036 95.8983 53.3386 96.3791 54.0346C96.6348 54.4038 97.2739 54.4946 97.706 54.767C98.4547 55.2451 99.6902 55.2088 99.6476 56.5403C100.305 57.2605 100.956 57.9868 101.638 58.7373C101.638 59.4575 101.632 60.2262 101.638 60.9948C101.644 61.6424 102.478 61.9208 102.332 62.7076C102.192 63.452 102.301 64.2388 102.301 65.0075C102.301 65.6672 102.32 66.3269 102.301 66.9866C102.277 67.5434 102.368 67.9973 102.794 68.4513C103.026 68.6994 102.977 69.2623 102.953 69.6799C102.928 70.2064 102.082 70.4183 102.32 71.0477C102.46 71.423 102.843 71.7256 102.934 72.1069C102.989 72.3369 102.758 72.706 102.551 72.9058C102.32 73.1297 102.259 73.2265 102.52 73.39C103.245 73.8439 102.94 74.5581 102.934 75.1754C102.934 75.3328 102.654 75.4962 102.484 75.6414C102.289 75.8048 102.332 75.938 102.593 76.1135C103.16 76.4948 102.989 77.094 102.953 77.6024C102.916 78.0926 101.9 78.5344 102.91 79.061C102.873 79.5815 103.02 80.2291 102.764 80.5862C102.027 81.6151 101.991 82.5653 102.764 83.5095C103.105 83.921 102.953 84.3386 102.959 84.7502C102.977 88.2666 102.916 91.789 102.995 95.2994C103.026 96.522 102.478 97.8777 103.549 98.9913C103.64 99.0881 102.691 99.3786 103.287 99.8931C103.878 100.401 103.026 100.777 103.05 100.795C104.006 101.4 103.22 102.677 104.048 103.337C104.237 103.488 104.353 104.106 104.249 104.178C103.628 104.638 103.61 105.243 103.616 105.921C103.634 110.315 103.628 114.715 103.616 119.109C103.616 119.666 103.616 120.156 104.115 120.574C104.273 120.707 104.31 121.318 104.182 121.415C103.391 121.984 103.653 122.783 103.628 123.515C103.604 124.284 103.811 125.119 103.567 125.803C103.324 126.481 102.794 127.056 102.959 127.855C101.973 128.351 102.618 129.513 102.07 130.112C101.553 130.675 101.668 131.541 100.987 132.007C100.786 132.146 100.871 132.715 100.676 132.83C99.6781 133.423 99.6781 134.682 98.832 135.402C97.7425 136.328 96.793 137.411 95.7644 138.41C95.1436 139.015 94.541 139.663 93.8289 140.147C93.2507 140.541 92.4837 140.643 91.8751 141.007C91.5099 141.23 91.2421 141.575 90.743 141.497C89.7509 141.333 89.1483 142.399 88.0223 142.223C86.9389 142.06 85.5938 141.642 84.6625 142.81C83.4452 142.81 82.2036 142.653 81.0228 142.865C80.2376 143.004 79.5681 143.621 78.6308 143.494C77.7604 143.379 76.8657 143.47 75.9831 143.47C75.1006 143.47 74.212 143.482 73.3294 143.47C72.6964 143.458 72.0573 143.603 71.5217 142.974C71.3269 142.744 70.7122 142.84 70.2861 142.816C69.3062 142.768 68.3263 142.744 67.3464 142.707C66.7134 141.781 65.563 142.52 64.9665 142.09C64.0596 141.436 63.1588 141.467 62.2154 141.503C61.2963 141.545 60.6268 140.952 59.9695 140.547C59.5069 140.256 58.8921 140.371 58.5634 139.911C58.1678 139.354 57.5227 139.687 57.0845 139.475C56.348 139.124 56.774 138.876 56.1288 138.301C55.5141 137.756 55.1793 136.746 54.0838 136.867C53.7673 136.34 54.1386 135.747 53.7308 135.305C53.2682 134.803 52.836 134.355 53.0125 133.611C53.0369 133.508 53.0612 133.35 53.0125 133.29C52.3795 132.582 51.9717 131.698 51.7465 130.851C51.5031 129.925 51.6004 128.878 51.7222 127.903C51.8256 127.056 50.7605 126.771 50.9918 125.858C51.1744 125.137 51.0283 124.326 51.0283 123.558C51.0283 122.789 50.9553 122.008 51.0466 121.252C51.144 120.435 50.0849 120.12 50.3283 119.206C50.517 118.486 50.3649 117.675 50.3649 116.906C49.4397 116.053 49.7197 114.933 49.7076 113.88C49.6893 112.778 49.7623 111.677 49.6893 110.582C49.6163 109.553 50.1397 108.385 49.0867 107.531C49.0259 107.483 49.0441 107.331 49.0441 107.222C49.0441 106.345 49.0623 105.461 49.038 104.584C49.0197 103.748 49.318 102.81 48.3807 102.217C48.3807 101.449 48.3807 100.68 48.3807 99.9052C48.3807 99.0276 48.4719 98.1319 48.3563 97.2724C48.198 96.0438 48.9467 94.6578 47.7476 93.5987C48.8128 92.7635 48.2833 91.5893 48.3563 90.5604C48.4354 89.4649 48.3746 88.3634 48.3746 87.2619C48.3746 86.1604 48.3685 85.0649 48.3746 83.9634C48.3867 82.765 48.4172 81.5667 48.4415 80.3622C49.4641 79.5028 48.8797 78.3347 49.038 77.3119C50.1762 76.1256 49.5554 74.6488 49.6954 73.2992C49.738 72.8937 50.5658 72.8089 50.158 72.349C49.8049 71.9495 49.671 71.7377 50.158 71.3806C50.2919 71.2777 50.3345 71.0175 50.3649 70.8177C50.4805 70.1035 50.1884 69.3773 50.8153 68.6691C51.1561 68.2818 50.9309 67.4284 51.0527 66.805C51.1074 66.5266 51.357 66.2543 51.5761 66.0424C52.0509 65.5764 52.5378 65.1527 52.3613 64.378C52.2396 63.8575 52.6412 63.5489 52.9821 63.331C53.8463 62.7681 53.6455 61.5577 54.5889 60.9887C55.3254 60.5469 54.035 59.7783 54.6619 59.1609C54.7411 59.0823 54.8202 59.0096 54.8932 58.9249C55.2402 58.5618 55.2828 58.1078 54.9785 57.7992C54.2055 57.0184 53.4143 56.2437 52.5195 55.348L52.5135 55.354ZM98.972 70.5333C98.972 69.813 98.9903 69.0504 98.972 68.2879C98.9477 67.4526 99.2581 66.5145 98.3208 65.9214C98.473 65.764 98.6555 65.6309 98.7712 65.4493C98.8807 65.2798 99.0146 65.0317 98.9598 64.8864C98.7894 64.4083 98.4242 63.9786 98.3451 63.5005C98.2355 62.8589 98.5703 62.0237 98.266 61.5577C97.5903 60.5106 97.8703 59.0036 96.6043 58.2652C96.3304 58.1018 96.1296 57.8052 95.8922 57.5752C95.0949 56.8066 94.7723 56.7642 93.628 57.3876C92.995 57.7386 92.2037 57.8415 91.7838 58.5436C91.5281 58.9673 91.1143 59.0157 90.6456 59.0036C90.3534 59.0036 89.9153 59.0641 89.7813 59.2578C89.2031 60.093 87.9554 59.1428 87.4745 60.1656C87.4197 60.2806 87.0911 60.2867 86.8841 60.3048C86.1538 60.3714 85.3199 60.0506 84.7964 60.8798C84.1452 60.9101 83.4392 60.7951 82.861 61.013C82.2888 61.2308 81.8384 61.6121 81.1323 61.6727C79.8907 61.7755 78.4969 61.0553 77.3892 62.2537C77.2431 62.411 77.0117 61.3277 76.4944 61.9087C76.044 62.411 75.5145 62.2779 74.9849 62.29C74.3215 62.3021 73.652 62.2295 73.0007 62.3203C72.6477 62.3687 72.0817 62.8831 72.0269 62.8165C71.333 62.0479 70.767 62.1629 70.1279 62.8831C70.0183 63.0042 69.4644 62.9194 69.2757 62.75C68.9288 62.4353 68.6062 62.2839 68.1254 62.2779C67.5046 62.2779 66.896 62.4474 66.2873 61.8784C65.843 61.4669 65.423 62.4897 64.6865 62.3324C63.5666 62.0963 62.2884 62.6471 61.3207 61.6303C59.9816 61.4427 58.8434 61.9934 57.7843 62.6895C57.3339 62.986 56.9505 63.4157 56.6097 63.8454C56.0254 64.5838 55.508 65.3706 54.9542 66.1272C54.8263 66.3027 54.5585 66.4237 54.522 66.6053C54.3211 67.6463 53.7368 68.4936 53.1769 69.3531C53.4812 70.4727 52.7386 71.3745 52.5499 72.3853C52.4465 72.9481 52.1848 73.3355 51.9535 73.8015C51.7039 74.316 51.5883 75.0846 52.2639 75.5567C52.5378 75.7504 52.5256 75.8291 52.3065 76.0409C52.0934 76.2467 51.8865 76.5553 51.8682 76.8337C51.8135 77.7113 51.8378 78.595 51.85 79.4726C51.8621 80.3138 51.6796 81.2096 52.4952 81.8572C52.5865 81.9298 52.55 82.3777 52.4343 82.4563C51.7709 82.9042 51.8378 83.5518 51.8439 84.2055C51.856 85.8577 51.217 86.8988 51.2474 88.551C51.2657 89.701 50.9796 90.8993 51.8682 91.9343C52.0569 92.1582 51.9291 92.8179 51.7283 93.1508C51.5152 93.5139 51.1744 93.7742 51.2231 94.2765C51.2718 94.7123 51.2352 95.1541 51.2352 95.5959C51.2352 96.4735 51.2109 98.0592 51.2109 98.9429C51.2109 99.9355 51.8439 100.819 51.8439 101.812V107.422C51.8439 108.3 52.0082 109.22 51.8013 110.049C51.5335 111.144 52.483 111.798 52.5195 112.754C52.55 113.686 52.1361 114.752 53.1708 115.448C53.1708 116.107 53.1464 116.767 53.1769 117.427C53.2073 118.05 53.0612 118.643 53.6029 119.254C53.9437 119.642 53.7855 120.477 53.8281 121.119C53.8524 121.554 53.7977 122.002 53.8403 122.438C53.9133 123.158 53.5055 124.006 54.3576 124.532C54.4002 125.283 54.4672 126.033 54.4855 126.784C54.5098 127.552 54.4672 128.327 54.5037 129.09C54.5098 129.271 54.6741 129.483 54.8263 129.604C55.3497 130.034 55.0333 130.621 55.1672 131.123C55.295 131.613 55.9767 131.843 55.8245 132.503C55.7271 132.939 55.8306 133.338 56.2201 133.659C56.6401 134.01 56.9444 134.579 57.4192 134.773C57.9061 134.978 58.3626 135.13 58.7825 135.499C59.9146 136.485 61.9293 137.284 63.5666 137.526C63.7735 137.557 64.1083 137.514 64.1752 137.623C64.5465 138.259 65.3986 138.017 65.7943 138.549C66.3177 139.245 67.3341 138.434 67.8393 139.239C68.1619 139.754 68.3019 139.148 68.5332 139.076C68.8254 138.985 69.1783 138.797 69.4157 138.888C69.787 139.027 69.9392 139.518 70.4809 139.524C71.5278 139.53 72.672 139.209 73.5241 140.165C74.3945 140.135 75.271 140.105 76.1414 140.074C76.7683 139.148 77.73 139.542 78.5577 139.518C80.1037 139.469 81.6558 139.518 83.2018 139.5C83.7374 139.5 84.273 139.421 84.8086 139.378C85.2408 138.446 86.2328 139.118 86.8415 138.676C87.931 137.884 89.1848 137.375 90.4143 136.909C91.2542 136.594 91.4186 135.384 92.502 135.547C94.0602 134.603 94.8089 132.654 96.7261 132.14C96.8174 132.116 96.9574 131.989 96.9513 131.916C96.86 130.687 98.053 130.385 98.619 129.634C99.3859 128.611 99.4528 127.334 100.007 126.245C100.141 125.973 100.268 125.664 100.268 125.367C100.287 120.858 100.275 116.349 100.287 111.84C100.287 111.453 100.147 111.187 99.7998 111.144C99.3555 111.084 98.899 111.144 98.9476 111.792C98.9537 111.901 98.9963 112.052 98.9416 112.113C98.5155 112.597 97.6816 112.397 97.3469 113.051C97.0121 113.698 96.2757 113.662 95.7522 113.989C95.2166 114.322 94.9731 114.975 94.2245 115.127C93.7619 115.224 93.4089 115.78 92.9646 116.071C92.5385 116.349 91.9908 116.47 91.6195 116.803C91.2178 117.16 90.7856 116.955 90.3961 117.082C89.9153 117.239 89.4527 117.481 89.0083 117.729C88.2049 118.183 87.371 118.649 86.5433 118.976C85.7155 119.309 84.7051 118.952 83.8226 119.654C83.3174 120.059 82.3557 119.4 81.674 120.035C80.9436 120.707 79.9941 120.199 79.1664 120.374C78.8742 120.435 78.5334 120.55 78.3447 120.762C77.9552 121.185 77.7847 120.786 77.6386 120.592C77.4317 120.326 77.3891 120.386 77.1457 120.574C76.0927 121.385 74.9423 121.131 73.7981 120.755C73.3294 119.926 72.3434 120.707 71.7469 120.072C71.0652 119.345 70.0914 119.811 69.2575 119.708C68.6124 119.63 67.9611 119.624 67.3159 119.587C66.7803 118.571 65.3195 119.509 64.8143 118.419C63.9257 118.516 63.4083 117.415 62.4528 117.711C62.0389 117.838 61.8989 117.439 61.6494 117.251C61.2355 116.943 61.0224 116.349 60.3468 116.38C59.9877 116.398 59.8173 116.162 59.7808 115.762C59.7199 115.133 60.1034 114.388 59.5677 113.886C58.88 113.238 59.2025 112.464 59.1477 111.744C59.099 111.09 59.1356 110.424 59.1356 109.764C59.1356 109.656 59.166 109.498 59.1112 109.45C57.967 108.493 58.6 107.21 58.4904 106.079C58.4174 105.316 58.4782 104.541 58.4782 103.773V101.461C58.4782 100.692 58.3018 99.8628 58.527 99.1668C58.7887 98.3679 57.5774 97.9442 58.1617 97.2664C58.7643 96.5643 58.393 95.8078 58.4599 95.0815C58.5086 94.561 58.5878 93.8166 58.3018 93.5321C57.7175 92.9632 57.8209 92.358 57.8209 91.7285C57.8087 88.2121 57.8209 84.6897 57.8148 81.1733C57.8148 80.4288 57.967 79.6602 57.194 79.0973C57.0296 78.9823 57.1818 78.4739 57.1453 78.1471C57.0966 77.7476 57.3096 77.4874 57.6505 77.4753C58.1678 77.4632 58.7095 77.3119 59.1782 77.79C59.6042 78.2318 59.9146 78.9399 60.7485 78.7765C61.1259 79.3697 61.9476 79.2547 62.3371 79.6965C62.891 80.3199 63.7735 79.7873 64.1144 80.1746C64.8569 81.0159 65.8125 80.4772 66.5307 80.8041C67.322 81.1672 68.0341 81.5122 68.9349 81.4274C69.5923 81.3669 70.2618 81.4153 70.9252 81.4153H73.2503C74.1328 81.4153 75.058 81.264 75.8918 81.4577C76.817 81.6695 77.1274 80.6467 77.9491 80.7314C78.6795 80.8101 79.5133 80.9614 80.0063 80.1323C80.7732 80.1201 81.5584 80.1867 82.3071 80.0717C82.7879 79.9991 83.214 79.5694 83.7009 79.4665C84.2304 79.3576 84.8025 79.4786 85.3503 79.4181C85.5207 79.3999 85.6425 79.0247 85.8251 78.9884C86.7442 78.8128 87.4076 77.8868 88.4544 78.1229C89.1118 77.6145 90.0674 77.5782 90.5786 76.864C90.9925 76.283 91.7777 76.3314 92.1551 75.9077C92.636 75.3751 93.3115 75.478 93.841 75.0665C94.3888 74.6367 95.1436 74.4491 95.6427 73.8499C96.0627 73.3415 96.5678 72.9058 97.0426 72.4397C97.6695 71.8164 98.2964 71.193 98.9659 70.5272L98.972 70.5333ZM100.299 106.097C100.299 101.618 100.348 97.109 100.268 92.6061C100.244 91.1535 100.81 89.586 99.6659 88.2363C99.4468 87.9761 99.6354 87.3829 99.6354 86.9411C99.6354 84.8531 99.4955 82.7469 99.6842 80.677C99.8181 79.2183 98.5338 78.1168 98.9537 76.6522C99.0633 76.2648 99.1059 75.7141 98.619 75.5083C98.1747 75.3207 97.8155 75.6112 97.493 75.9622C96.7747 76.749 95.9713 77.3784 94.9792 77.8687C93.3237 78.6857 91.449 79.176 90.1465 80.6225C90.0309 80.7496 89.757 80.7496 89.5501 80.7617C89.1301 80.792 88.7588 80.798 88.3449 81.0704C87.2859 81.7603 86.1537 82.3413 84.7903 82.1053C84.5043 82.0569 84.0295 82.1053 83.8956 82.2869C83.3905 82.9768 82.6723 82.8316 82.0879 82.7166C81.2845 82.5592 81.0472 83.4489 80.3655 83.4187C79.5925 83.3884 78.8195 83.4126 78.0404 83.4126C77.3769 83.4126 76.6831 83.5276 76.0562 83.3823C75.1736 83.1766 74.9119 84.3991 73.9928 84.1026C73.4937 83.9392 72.8973 84.0723 72.3434 84.0723C71.7895 84.0723 71.2235 83.9936 70.6879 84.0905C70.0549 84.2115 69.6166 83.346 69.3853 83.5579C68.8315 84.0602 68.5393 83.9755 68.168 83.461C67.9307 83.6608 67.6628 84.0481 67.4742 84.0118C67.0968 83.9392 66.9507 83.2734 66.4212 83.4126C65.4595 83.6729 64.9361 82.644 64.0657 82.6742C63.6518 81.9843 62.9823 82.0751 62.325 82.0751C62.0085 82.0751 61.6797 82.0448 61.3754 81.9661C61.1198 81.8935 61.0102 81.3246 60.6876 81.5909C60.3042 81.9056 60.3772 82.3716 60.7729 82.6924C61.1807 83.0132 61.1502 83.4247 61.1502 83.8605C61.1441 85.8396 61.1502 87.8187 61.1502 89.7978C61.1502 90.6451 62.1119 91.1596 61.8563 92.1764C61.6493 93.0055 61.8136 93.9255 61.8136 94.8031C61.8136 97.0001 61.838 99.2031 61.8015 101.4C61.7894 101.999 62.0145 102.387 62.3858 102.828C62.684 103.18 62.4771 103.658 62.0754 103.93C61.8015 104.112 61.7893 104.221 62.0206 104.408C62.4954 104.783 62.7936 105.262 62.2215 105.752C61.6006 106.29 61.6128 107.12 61.9232 107.507C62.3919 108.088 62.4893 108.621 62.4832 109.28C62.471 110.818 62.465 112.361 62.4893 113.898C62.4893 114.243 62.7206 114.497 63.1344 114.431C63.6822 114.34 63.8648 115.133 64.1752 115.054C65.1612 114.8 65.7821 115.738 66.5612 115.702C67.5898 115.653 68.381 116.156 69.2818 116.392C69.7931 116.525 70.5418 116.283 70.8461 116.567C71.4243 117.1 71.6982 116.924 72.0573 116.452C73.0129 117.524 74.2789 116.967 75.4171 117.057C76.2936 117.13 77.1883 117.015 78.0708 117.088C78.9717 117.166 79.4768 116.186 80.4567 116.38C81.3088 116.543 82.228 116.489 83.0983 116.38C83.5792 116.325 84.0052 115.889 84.4921 115.768C85.0095 115.641 85.5755 115.732 86.1111 115.647C86.2877 115.623 86.4155 115.236 86.5859 115.224C87.5841 115.151 88.4606 114.909 89.1058 114.056C89.2579 113.856 89.6718 113.789 89.97 113.789C90.4326 113.789 90.7491 113.626 91.1386 113.372C91.7412 112.972 92.4168 112.736 92.989 112.216C93.5672 111.695 94.4254 111.459 95.174 111.138C96.2635 110.678 96.5496 109.105 97.9921 109.135C98.0712 109.135 98.2112 108.996 98.2173 108.911C98.3573 107.567 99.6719 107.107 100.305 106.103L100.299 106.097ZM87.6632 50.7361C87.4502 50.494 87.0789 50.264 87.0546 50.0038C86.9633 49.1383 86.9937 48.2607 86.9755 47.3892C85.9529 46.6689 86.5068 45.5977 86.3607 44.6777C86.3303 44.472 86.379 44.1512 86.2633 44.0725C85.5938 43.6246 85.8251 42.9226 85.6607 42.3294C85.4721 41.6576 85.0886 40.9858 84.6139 40.4714C84.0904 39.9024 84.7356 39.1156 84.1635 38.6799C83.6218 38.2683 83.7009 37.7478 83.707 37.2092C83.707 37.07 82.7149 35.575 82.3801 35.2543C82.3801 36.0411 82.2645 36.7068 82.4045 37.3121C82.6418 38.3046 81.4854 38.7404 81.601 39.6361C80.6637 40.5682 79.7263 41.5003 78.789 42.4323C77.943 42.1902 77.6326 43.3341 76.7683 43.1768C76.0197 43.0376 75.2528 43.0497 74.6989 43.7941C74.6319 43.8849 74.0476 43.7457 73.8589 43.552C73.5059 43.201 73.1407 43.1041 72.6903 43.1525L70.4505 42.1721C70.5235 40.9677 69.3975 40.6045 68.7889 39.9024C68.3567 39.4062 68.2715 38.7465 68.4967 38.4136C69.0202 37.651 69.1662 36.8944 69.1358 36.0169C69.1236 35.7445 69.2879 35.3511 69.5009 35.1998C70.5965 34.4372 70.4748 32.4944 72.2582 32.4157C72.319 32.4157 72.4286 32.2463 72.4225 32.1676C72.3495 31.4534 72.7147 31.3324 73.3599 31.2053C73.7738 31.1205 74.2059 30.5274 74.3824 30.0674C74.5467 29.6377 74.5528 29.2685 75.1432 29.2806C76.2448 29.3048 77.3526 29.2564 78.4543 29.3109C78.7221 29.323 78.9655 29.6559 79.2455 29.7709C79.3611 29.8193 79.6472 29.7285 79.6898 29.6316C79.7689 29.444 79.7446 29.208 79.7264 28.9901C79.7142 28.9054 79.6107 28.7783 79.5255 28.7541C78.9412 28.5785 78.1621 28.6088 78.3995 27.6223C77.6995 26.9263 77.0361 26.1758 76.2814 25.5403C75.5266 24.8987 75.131 24.0514 74.6441 23.2404C74.5346 23.0588 74.352 22.8107 74.1815 22.7925C73.4755 22.7017 73.1225 22.4778 72.9825 21.6607C72.8973 21.1947 71.8686 21.3158 71.4304 20.7347C70.907 20.0387 70.2496 19.4153 69.5679 18.8706C68.9166 18.3562 68.6184 17.3273 67.535 17.406C66.902 16.8007 66.2751 16.1955 65.636 15.5903C65.563 15.5176 65.4474 15.4147 65.3804 15.4329C65.0822 15.5055 64.5465 15.6266 64.5465 15.7234C64.5647 16.3468 64.2604 16.7886 63.7979 17.067C63.1649 17.4483 63.3536 18.3259 62.8545 18.6467C61.9537 19.2156 62.0389 20.42 61.2233 20.9466C60.432 21.461 60.6633 22.5807 59.8355 23.0225C60.1216 24.2269 58.5574 24.354 58.4478 25.4374C58.3931 25.9579 57.547 26.3634 57.2975 26.9202C57.0844 27.3983 57.0236 27.9309 56.5549 28.2638C56.981 28.7056 57.2609 29.2867 58.0461 29.3109C58.7887 29.3351 58.2591 30.4003 58.7947 30.5153C59.3486 30.6363 59.7807 30.824 60.1581 31.2416C60.6024 31.7197 61.0528 32.4339 61.5884 32.5247C62.611 32.7002 62.9214 33.5838 63.6214 34.0438C63.7796 35.0787 64.6013 35.6537 65.2586 36.3316C65.9282 37.0215 66.8046 37.6086 66.4942 38.8009C66.4638 38.9159 66.8107 39.0914 66.8899 39.2791C67.2977 40.2172 67.9002 41.0826 68.2472 42.0147C68.6184 43.0073 68.7097 44.0543 69.6897 44.7383C69.8601 44.8532 69.7627 45.3495 69.7932 45.6643C69.8358 46.0819 69.7322 46.7113 69.9696 46.8868C71.0956 47.7221 69.781 49.332 71.0835 50.1067C71.2783 50.2217 71.12 50.9358 71.12 51.3777C71.12 51.9284 71.0713 52.4792 71.1383 53.0239C71.1748 53.3083 71.3817 53.5989 71.5826 53.8228C72.1425 54.4341 72.8182 54.6035 73.5851 54.1799C73.9563 53.9741 74.2241 53.6836 74.7172 53.6957C76.044 53.732 77.3648 53.7017 78.6917 53.7078C79.4464 53.7078 80.2437 53.8591 80.7368 53.0481C81.5097 53.1086 82.1731 53.0118 82.8244 52.4308C83.1287 52.1584 83.8896 52.4065 84.4373 52.3763C85.0703 52.34 85.3746 51.5169 86.1537 51.7045C86.9511 51.8982 87.2128 51.1053 87.6814 50.7301L87.6632 50.7361ZM89.331 42.5715C89.9274 41.8755 90.4691 41.2461 91.0108 40.6106C90.7004 39.5454 91.5099 39.037 92.1064 38.4257C92.8794 37.6449 93.7315 36.9247 94.4254 36.0774C95.1314 35.2179 96.367 35.2058 97 34.2435C97.5965 33.3417 98.6251 32.8999 99.6172 32.6215C100.232 32.452 100.548 31.6229 101.315 31.9194C102.387 32.331 103.099 31.405 103.981 31.1447C104.432 31.0116 104.803 30.6 105.399 30.5698C106.227 30.5213 106.343 30.1643 106.288 29.2867C106.258 28.748 105.734 28.633 105.612 28.2396C105.46 27.7433 105.862 27.1199 105.332 26.7144C104.791 26.3029 105.046 25.7279 104.919 25.2316C104.797 24.7474 104.359 24.3238 104.31 23.8517C104.249 23.2828 104.225 22.7381 103.695 22.4536C102.934 22.0481 103.105 21.1281 102.539 20.6076C101.979 20.0871 102.368 19.3669 102.289 18.7435C102.21 18.1141 101.778 17.878 101.163 18.1867C98.9172 19.3185 98.9051 19.4758 97.3652 19.3245C96.4461 19.2338 96.1905 20.4261 95.314 20.0448C94.961 20.4684 94.4802 20.6076 93.975 20.8074C93.5246 20.9768 92.9402 21.1947 92.6237 21.4852C91.8325 22.2176 90.1587 22.0783 90.2682 23.7306C90.2682 23.8033 90.1343 23.9364 90.043 23.9546C88.2597 24.3056 87.6206 26.0305 86.3668 27.017C86.2633 27.0957 86.2937 27.471 86.385 27.6404C86.4702 27.7978 86.7076 27.9249 86.8963 27.9552C87.2189 28.0036 87.6267 28.0883 87.8763 27.9431C88.3997 27.6465 88.844 27.0594 89.331 27.9612C90.8161 27.6162 91.4308 28.8267 92.2951 29.5893C91.9482 30.4608 93.3603 30.7271 92.9951 31.6047C93.8837 33.3538 93.8289 33.3417 93.1593 34.758C92.8915 35.3329 92.7759 35.9926 92.1916 36.3255C91.5464 36.6947 91.8264 37.5299 91.2664 37.9354C90.7491 38.3167 90.3413 38.8857 89.7753 39.1399C89.3614 39.3275 88.9292 39.3275 89.0083 39.9024C89.124 40.7437 88.7284 41.6334 89.3188 42.5655L89.331 42.5715ZM82.161 25.3829C82.4836 25.0077 82.8244 24.5901 83.1836 24.1967C83.6157 23.7306 84.0478 23.3493 84.766 23.2222C85.2651 23.1375 84.8634 22.1933 85.466 21.9089C85.746 21.7757 85.9529 21.4307 86.2328 21.3823C87.4441 21.1523 87.7362 20.3897 87.7058 19.2882C87.6571 17.648 87.6389 16.0079 87.7119 14.3737C87.7484 13.5446 87.085 13.3025 86.7137 12.8062C85.7886 13.0483 85.1373 12.3765 84.3521 12.1586C83.7435 11.9891 83.0435 12.1223 82.3862 12.1223C81.6193 12.1223 80.8219 12.0073 80.0855 12.1525C79.2881 12.3099 79.0569 11.4323 78.3752 11.4565C77.4987 11.4868 76.6161 11.4565 75.7397 11.4626C74.4493 11.4626 74.4798 11.4686 74.4067 12.6367C74.358 13.4598 74.7415 14.3737 73.8467 15.0455C73.6763 15.1726 73.652 15.7113 73.7737 15.9594C74.218 16.8733 74.3276 18.1806 75.3197 18.5438C76.3118 18.9069 76.8961 19.5969 77.5839 20.2324C78.3812 20.9829 79.069 21.8665 79.9394 22.5202C80.9254 23.2646 80.9863 24.6264 82.161 25.3829ZM91.0108 51.4987C90.3048 52.0797 89.7205 52.5639 89.1422 53.042C88.144 52.5215 87.6632 53.847 86.7685 53.7017C86.245 54.7851 84.906 53.962 84.2304 54.8033C83.7496 55.4025 82.7149 54.6278 82.1793 55.4932C82.0393 55.7172 81.3819 55.6566 80.962 55.6748C79.9759 55.7172 78.9899 55.7232 78.0039 55.7474C77.2613 56.7279 76.1962 56.2982 75.265 56.3224C72.8364 56.3829 70.4017 56.3406 67.9732 56.3406C67.328 56.3406 66.7864 56.274 66.1716 55.8382C65.6421 55.463 64.7352 55.6203 63.9927 55.5477C63.5605 54.6156 62.5684 55.2935 61.9597 54.8517C61.4484 54.4825 61.2232 53.7381 60.4503 53.7017C59.4095 53.6473 60.0486 52.2916 59.1904 52.0918C59.4764 51.3171 58.6609 50.9964 58.4417 50.4214C57.9426 49.108 57.6931 49.0717 55.8306 49.2714C55.8306 50.4395 55.861 51.6258 55.8184 52.8121C55.8001 53.3144 56.3176 53.617 56.3236 53.9075C56.3419 55.2148 57.7966 54.9062 58.2226 55.7232C58.4904 56.2316 59.0017 56.4011 59.6103 56.3527C60.2494 56.2982 60.8277 56.3103 61.4059 56.855C61.8867 57.3089 62.9458 56.7219 63.3962 57.5934C64.0475 57.6176 64.723 57.7508 65.35 57.6297C66.1351 57.4784 66.4333 58.2955 67.0724 58.3136C68.0645 58.3378 69.1053 58.5012 70.0427 58.2713C71.1626 57.9989 71.7773 59.0459 72.7633 58.9915C73.7554 58.937 74.7536 59.0338 75.7457 58.9673C76.7805 58.8946 77.9673 59.4151 78.789 58.3197C79.7385 58.2955 80.755 58.5376 81.4976 57.66C82.9583 58.1502 84.1026 56.7219 85.533 56.9882C85.7216 57.0245 85.9773 56.9761 86.1416 56.8732C87.1094 56.2498 88.0284 55.5477 89.2944 55.6566C89.41 55.6688 89.5865 55.3843 89.6718 55.2088C89.8117 54.9364 89.8848 54.4038 90.0126 54.3978C91.4491 54.3191 91.802 52.8907 92.782 52.2613C92.9341 51.4503 93.7498 50.8995 93.6707 49.9856C93.622 49.4409 93.8471 48.7873 93.6219 48.3575C93.2202 47.601 92.9098 46.8687 92.8794 46.0092C92.8794 45.9245 92.5263 45.7914 92.3377 45.7914C92.149 45.7914 91.7899 45.9427 91.796 46.0032C91.9116 47.3044 90.6882 48.297 90.9865 49.6527C91.1021 50.1793 91.0047 50.7482 91.0047 51.4987H91.0108ZM66.9385 53.7017C66.7316 53.7017 66.9507 53.7017 67.1759 53.7017C67.6141 53.7017 68.0402 53.1026 67.7663 52.8181C67.182 52.2129 67.0055 51.5471 67.1273 50.7664C67.2672 49.8283 67.0481 49.0657 66.2203 48.4846C66.0012 48.3273 65.8065 47.952 65.8186 47.6857C65.8673 46.6629 65.0882 45.9971 64.7961 45.1317C64.3152 43.6851 62.9945 42.5594 63.1405 40.8708C62.5136 40.5198 62.611 39.7451 62.2154 39.2791C61.7893 38.7767 61.3572 38.1836 60.7911 37.9294C60.4077 37.7539 59.6773 37.5905 59.2634 38.111C58.8556 38.6315 58.6243 38.3773 58.3018 38.0383C58.18 37.9112 57.8574 37.8144 57.7235 37.887C56.5488 38.5286 55.4106 39.2427 54.0168 39.3517C53.9316 39.3577 53.8464 39.4909 53.7855 39.5756C53.2316 40.3806 52.483 40.6893 51.5153 40.5198C51.4544 40.5077 51.2779 40.6953 51.2961 40.7377C51.357 40.895 51.5213 41.1674 51.5639 41.1492C52.5317 40.8042 53.1404 41.6879 53.9499 41.815C55.7089 42.0873 55.6906 42.0752 56.7558 43.0618C57.2975 43.5641 57.6505 44.3146 58.4843 44.472C59.5069 44.6596 59.1417 45.9245 59.9756 46.324C60.6755 46.6568 60.4016 47.7402 61.138 48.1336C60.998 49.3804 61.6981 50.3124 62.3311 51.2687C62.3858 51.3534 62.4771 51.4624 62.4588 51.5411C62.1545 52.9876 62.9701 53.1873 64.1266 53.0663C64.4309 53.036 64.7961 52.921 65.0273 53.2841C65.3925 53.8591 65.9708 53.7017 66.9324 53.7139L66.9385 53.7017ZM77.4378 39.8238C78.1439 39.0793 78.8925 38.2865 79.7325 37.4028C79.7325 36.3437 79.7385 35.1453 79.7264 33.9409C79.7264 33.7472 79.6412 33.5293 79.5255 33.372C78.9473 32.5549 77.9552 32.3915 77.1457 31.9376C77.0239 31.871 76.6952 31.98 76.5796 32.1071C76.0014 32.7486 75.0093 32.6457 74.4615 33.4628C73.932 34.2617 73.0616 34.8367 72.4347 35.4237C72.4347 36.3618 72.526 37.1426 72.4103 37.8991C72.2703 38.8312 72.8425 39.2912 73.4207 39.8238H77.4439H77.4378ZM90.3474 34.1406C90.3474 33.3478 90.3474 32.4702 90.3474 31.5866C89.7996 31.0418 89.2518 30.4971 88.6796 29.9282C87.9249 30.715 87.1641 31.5018 86.3242 32.3673C86.0746 33.1723 86.9207 33.8441 86.9633 34.6127C87.0059 35.5145 87.4563 35.9926 88.0284 36.5374C88.7832 35.7506 89.5439 34.9637 90.3413 34.1346L90.3474 34.1406Z" fill="#1B8533"/>
<path d="M117.828 59.6513C118.534 59.5968 119.228 59.8449 119.703 59.1671C120.464 58.0837 121.614 57.3937 122.795 57.073C123.787 56.8006 124.006 55.4146 125.205 55.6749C126.333 55.0939 127.325 55.2068 128.182 56.0138C128.182 59.8449 128.176 63.6882 128.182 67.5314C128.182 68.3727 128.017 69.1897 128.796 69.9402C129.235 70.3578 128.675 71.3686 128.145 71.9254C127.75 72.343 126.788 71.9072 126.794 72.9724C126.794 73.3779 126.137 73.7713 125.838 74.2071C125.674 74.4492 125.516 74.7881 125.54 75.0605C125.644 76.0531 124.39 76.6704 124.822 77.7659C124.877 77.899 124.426 78.2319 124.165 78.5164C125.017 78.8916 126.021 79.0853 126.654 79.6724C127.372 80.3442 128.273 80.6589 128.997 81.2581C129.326 81.5304 129.612 81.9843 129.983 82.057C131.383 82.3414 131.529 83.2674 131.529 84.4537C131.529 85.071 130.805 85.4826 130.963 85.761C131.237 86.2331 131.578 86.6083 131.493 87.2014C131.383 88.0185 131.827 88.9627 130.921 89.6163C130.805 89.7011 130.841 90.0158 130.829 90.2216C130.774 91.1899 130.726 92.1583 130.677 93.1267C129.691 93.8953 130.269 94.9605 130.19 95.8805C130.135 96.5583 129.302 96.8004 129.442 97.5933C129.484 97.8414 128.93 98.368 128.559 98.483C128.036 98.6464 127.585 98.8038 127.177 99.1911C127.05 99.3122 126.496 99.2093 126.325 99.0337C125.631 98.2954 124.907 97.7083 123.812 97.8899C123.026 96.982 121.736 96.9941 120.835 96.2739C120.61 96.0923 120.257 95.9531 119.983 95.9773C119.362 96.0318 118.979 95.7473 118.571 95.3479C118.285 95.0634 118.048 94.7487 117.561 94.5974C116.349 94.2221 115.266 93.5685 114.438 92.5456C114.024 92.0373 113.556 91.5531 113.032 91.1476C111.279 89.7979 110.951 87.5827 109.77 85.8941C109.66 85.7368 109.605 85.5128 109.587 85.3131C109.508 84.2721 109.8 83.2069 108.96 82.2567C108.686 81.948 108.699 81.0402 108.96 80.677C109.879 79.4 109.49 77.9959 109.581 76.6401C109.63 75.8896 109.405 74.9576 109.77 74.431C110.202 73.8137 110.226 73.2629 110.245 72.6335C111.334 72.0283 110.451 70.4789 111.571 69.8857C111.401 69.226 111.87 68.8871 112.277 68.53C112.71 68.1548 113.008 67.7493 112.904 67.138C112.704 65.9941 113.477 65.171 113.945 64.2752C114.237 63.7184 114.931 63.3856 115.296 62.8469C115.698 62.2477 115.826 61.5033 116.477 61.0191C117.001 60.6317 117.408 60.087 117.822 59.6573L117.828 59.6513ZM114.542 71.5562C114.231 71.8649 113.72 72.1372 113.647 72.4943C113.501 73.2327 113.464 74.0376 113.61 74.77C113.805 75.7323 112.837 76.2407 112.898 77.1364C112.971 78.2258 112.898 79.3274 112.929 80.4289C112.935 80.7255 112.971 81.1431 113.166 81.3004C113.69 81.7301 113.55 82.2627 113.586 82.7893C113.629 83.4187 114.329 83.7274 114.298 84.49C114.268 85.2708 115.911 88.0185 116.416 88.5269C117.037 89.1503 117.579 89.9129 118.309 90.3487C119.04 90.7784 119.685 91.317 120.385 91.7286C121.121 92.1583 121.736 92.7393 122.442 93.1327C123.41 93.6774 124.445 94.1374 125.467 94.6034C125.607 94.664 125.936 94.555 126.027 94.4219C126.447 93.8287 125.838 92.8846 126.721 92.3822C126.885 92.2915 126.824 91.7891 126.849 91.4744C126.897 90.8328 126.928 90.1913 126.97 89.5497C127.902 89.12 127.159 88.0246 127.701 87.5646C128.249 87.0986 128.109 86.4086 128.571 85.9123C129.113 85.3313 128.949 85.0105 128.322 84.7139C127.585 84.3629 126.648 84.1813 126.155 83.6185C125.078 82.3717 123.373 81.9722 122.405 80.6347C122.144 80.2776 121.815 79.9992 121.31 80.096C120.598 79.1216 119.332 78.8916 118.528 78.0564C118.188 77.7053 118.096 77.1304 117.798 76.7249C117.469 76.2891 116.928 75.9986 116.666 75.5386C116.197 74.7094 115.722 73.9227 115.023 73.2448C114.584 72.8211 115.284 71.9556 114.542 71.5441V71.5562ZM124.536 59.6392C124.091 60.081 123.598 60.4744 123.227 60.9646C122.771 61.5699 122.144 61.5033 121.517 61.6667C120.007 62.0661 118.967 63.3553 117.561 63.9847C117.548 65.3768 115.96 65.6552 115.613 66.6538C115.455 68.2153 115.449 69.6134 116.873 70.5212C116.928 70.5576 116.861 70.7391 116.903 70.8299C117.201 71.4775 117.415 72.1856 117.834 72.7424C118.358 73.4385 119.034 74.0316 119.697 74.6005C119.898 74.77 120.281 74.7881 120.573 74.7639C120.689 74.7518 120.835 74.4431 120.866 74.2555C120.914 73.9348 120.738 73.4748 120.902 73.2932C121.9 72.1675 122.777 70.8662 124.183 70.2307C125.09 69.8252 125.668 69.3289 125.51 68.3364C125.315 67.1017 126.118 65.7096 124.925 64.6323C124.907 64.6202 124.986 64.4689 125.047 64.4084C126.033 63.5005 125.321 62.3385 125.534 61.3157C125.704 60.5046 125.035 60.1899 124.542 59.6271L124.536 59.6392Z" fill="#1B8533"/>
<path d="M29.58 53.72C31.7834 53.4719 33.2806 54.7005 34.8875 55.6447C35.3257 56.4799 36.4457 56.262 36.9813 57.0246C37.4134 57.648 38.0525 58.1261 38.6003 58.6708C39.2272 59.2942 39.848 59.9116 40.475 60.535C39.9515 61.1523 40.0489 62.157 39.2516 62.5867C38.4968 62.9922 38.4724 63.8456 38.1499 64.4569C37.7421 65.2316 37.0056 65.7884 36.75 66.5086C36.4761 67.2651 35.7092 67.8341 35.8735 68.8145C35.9404 69.2261 35.3866 69.7042 35.2831 70.1884C35.1736 70.6968 35.3561 71.2476 34.8205 71.6712C34.6318 71.8225 34.6075 72.2462 34.6014 72.5488C34.5771 73.5354 34.5892 74.5279 34.5953 75.5145C34.5953 76.7189 34.6075 77.9293 34.6136 79.1338C35.5266 79.9145 35.4718 81.2581 36.2752 82.0631C36.8352 82.632 36.3422 83.328 36.7195 83.8727C37.1334 84.4658 37.7847 85.0711 37.8212 85.7005C37.8699 86.4389 38.5942 86.7173 38.582 87.3952C38.5699 88.0428 39.2576 88.3575 39.3672 89.0656C39.495 89.9311 39.349 90.6453 38.5151 90.6574C37.2978 90.6755 36.0805 90.615 34.8693 90.6816C34.1328 90.7179 33.2685 90.3003 32.6841 90.9539C32.1364 91.5713 31.3025 91.0145 30.9008 91.4321C30.353 92.001 29.7748 91.9889 29.1235 91.9828C28.241 91.9828 27.3524 91.9647 26.4698 91.9828C25.7333 92.001 24.9055 91.7347 24.3943 92.5578C23.3109 92.697 22.2275 92.8907 21.4545 91.7892C21.2841 91.5471 21.0771 91.3171 20.6693 91.2929C19.9511 91.2505 19.4885 90.7058 19.379 90.0703C19.2938 89.5619 18.7886 89.3743 18.7338 89.0172C18.6243 88.2788 18.6912 87.5888 18.0643 86.9473C17.7904 86.6689 18.0156 85.8942 18.0156 85.3434C18.0156 84.024 17.9304 82.6986 18.04 81.3913C18.1617 79.9327 17.4617 78.3409 18.679 77.0457C18.679 76.0592 18.5999 75.0605 18.7034 74.0801C18.7947 73.154 18.2103 72.0888 19.2024 71.3263C19.2511 70.4668 19.2938 69.6074 19.3486 68.748C19.3547 68.6511 19.385 68.5422 19.4398 68.4574C19.8233 67.8462 20.4563 67.2712 20.5476 66.6236C20.6693 65.7642 20.9128 65.0258 21.3267 64.2874C21.6736 63.6701 21.917 62.9861 22.2518 62.3628C23.0431 60.892 23.5969 59.2519 25.0638 58.2532C25.5264 57.9385 25.0273 57.0367 25.8064 57.0186C26.3238 57.0064 26.5915 56.722 26.8897 56.4194C27.8149 55.4873 28.7401 54.5613 29.5861 53.714L29.58 53.72ZM31.2782 75.6839C30.2861 76.501 29.3 76.6947 28.2045 76.9489C26.5307 77.3362 25.5568 77.7599 24.8751 77.2878C24.1082 76.7552 23.2074 76.4647 22.4953 75.7566C21.8136 75.0847 22.2214 74.3161 21.8441 73.6927C21.8014 73.6201 21.6919 73.5898 21.6189 73.5414C21.1745 73.8561 21.3327 74.3282 21.3327 74.7337C21.3206 78.1291 21.4484 81.5365 21.2658 84.9258C21.1988 86.1908 22.3127 87.026 22.0388 88.2849C21.984 88.527 22.544 88.9506 22.8909 89.1927C22.9761 89.2532 23.317 88.8477 23.5726 88.7691C24.2543 88.5572 25.1307 88.9083 25.5933 88.0609C25.8246 88.2667 26.062 88.4664 26.2933 88.6722C26.7011 88.0367 27.3098 87.9762 28.0036 88.0065C28.9957 88.0488 30.0365 87.8249 30.9678 88.067C32.0999 88.3575 32.6842 87.3165 33.6823 87.3286C34.6379 87.3407 34.8693 86.8868 34.4006 86.1908C33.5911 84.9985 33.3293 83.4551 32.0816 82.5352C32.0085 82.4807 31.9355 82.3475 31.9538 82.2689C32.1973 81.0584 31.0043 80.1869 31.2416 78.9159C31.4364 77.8688 31.2843 76.7612 31.2843 75.6839H31.2782ZM31.753 72.0465C32.1182 71.6833 31.899 71.2234 31.9355 70.8058C31.9781 70.261 31.7895 69.6134 32.0268 69.2019C32.2885 68.748 32.4407 68.1669 32.7329 67.8643C33.2137 67.362 33.165 66.6902 33.6093 66.212C34.1023 65.6855 34.0658 64.7776 34.7962 64.4024C35.4658 64.0635 35.2405 63.2827 35.6788 62.7622C36.1231 62.2357 36.2752 61.4549 36.8961 60.9707C37.2369 60.7044 37.1943 60.656 36.5674 60.2989C36.2996 60.1476 35.9709 60.0326 35.7823 59.8087C35.0153 58.8948 33.7128 58.7193 32.9642 57.7448C32.7816 57.5088 32.2277 57.5391 31.8503 57.2788C31.1077 56.7704 30.4017 56.8915 29.8418 57.4422C28.588 58.6829 27.3767 59.966 26.0742 61.1523C25.3377 61.8241 24.8386 62.7259 24.7352 63.549C24.6317 64.3479 24.1508 64.8745 23.9622 65.5644C23.8283 66.0486 23.463 66.4662 23.3352 66.9504C23.1709 67.5496 22.4101 67.8885 22.6474 68.6511C22.8544 69.2927 22.1058 69.5227 22.0023 70.025C21.9658 70.2126 22.0327 70.4426 22.1118 70.6302C22.2396 70.9147 22.3736 70.8542 22.5805 70.606C22.9335 70.1884 23.4265 69.8676 23.7248 69.4198C24.1265 68.8024 24.8447 68.9053 25.3681 68.5301C26.1411 67.9793 26.8776 68.0035 27.3402 68.639C27.961 69.4863 29.0931 69.4137 29.7017 70.1884C31.1321 69.9826 30.3226 72.2341 31.753 72.0344V72.0465ZM26.5489 74.8245C27.3889 74.9879 28.0097 74.6006 28.4844 73.959C28.8009 73.5353 28.6427 72.2281 28.2897 72.2281C27.3402 72.2281 27.0419 71.4534 26.4576 71.0297C26.0498 70.7331 25.7151 70.8542 25.3194 71.1507C24.723 71.5986 24.6012 72.1494 24.6256 72.8514C24.6743 74.2132 25.2099 74.8124 26.5489 74.8245Z" fill="#1B8533"/>
<path d="M121.536 129.277C121.627 129.368 121.712 129.519 121.779 129.513C122.99 129.417 123.922 129.973 124.488 130.942C124.999 131.813 125.467 132.697 125.583 133.804C125.699 134.894 125.023 135.596 124.798 136.498C124.585 137.357 123.538 137.521 122.802 137.92C122.619 138.017 122.442 138.15 122.248 138.186C121.396 138.338 120.397 137.817 119.704 138.422C118.894 139.131 118.042 138.761 117.214 138.84C116.338 138.925 115.443 138.798 114.56 138.876C113.653 138.955 113.154 137.975 112.174 138.162C111.322 138.332 110.409 138.229 109.527 138.186C108.894 138.156 108.589 137.291 107.841 137.46C107.135 136.758 106.423 136.074 105.741 135.348C105.619 135.221 105.631 134.954 105.601 134.755C105.583 134.646 105.595 134.537 105.601 134.428C105.65 133.593 106.672 133.036 106.289 132.055C106.246 131.952 106.484 131.65 106.648 131.571C107.634 131.099 107.457 129.846 108.255 129.253C108.163 128.569 108.443 128.351 109.143 128.248C109.521 128.194 109.807 127.571 110.135 127.207C109.417 126.79 109.716 126.064 109.551 125.464C109.265 124.393 109.922 123.57 110.312 122.795C110.702 122.027 111.371 121.252 112.461 120.98C113.014 120.84 113.471 120.29 114.195 120.356C114.451 120.38 114.719 120.029 115.005 119.951C115.997 119.678 116.776 118.752 117.963 119.043C118.212 119.103 118.638 118.958 118.815 118.758C119.265 118.256 119.85 118.547 120.33 118.383C121.316 118.056 121.736 119.424 122.722 119.073C123.532 118.783 124.086 119.491 124.774 119.697C125.102 119.793 125.37 119.842 125.51 120.169C125.875 121.016 126.125 121.887 126.715 122.656C127.038 123.08 127.026 123.861 126.454 124.417C124.792 126.021 123.167 127.667 121.53 129.295L121.536 129.277ZM122.534 121.688C120.994 121.688 119.448 121.736 117.908 121.67C116.916 121.627 116.283 122.807 115.212 122.366C114.743 122.832 114.268 123.286 113.812 123.764C113.471 124.121 113.477 125.174 113.812 125.543C114.031 125.785 114.274 126.009 114.512 126.245C115.443 127.165 115.747 127.195 117.007 126.53C117.549 126.245 118.133 126.064 118.663 125.694C119.034 125.434 119.728 125.646 120.282 125.646H121.213C121.956 124.908 122.68 124.224 123.355 123.503C123.696 123.134 123.617 122.729 123.246 122.384C123.002 122.16 122.777 121.918 122.54 121.688H122.534ZM114.7 134.888C115.473 134.888 116.277 135.027 117.001 134.845C117.683 134.676 118.218 134.065 119.052 134.204C119.363 134.252 119.521 133.944 119.576 133.556C119.673 132.818 119.375 132.334 118.858 131.868C118.2 131.281 117.031 132.013 116.593 130.954C115.936 130.948 115.279 130.936 114.621 130.93C113.982 131.94 112.509 131.238 111.87 132.249C111.182 132.158 110.866 132.425 110.915 133.145C110.951 133.683 110.915 134.034 111.663 134.277C113.173 134.767 113.13 134.882 114.706 134.888H114.7Z" fill="#1B8533"/>
<path d="M34.2782 109.147C34.7895 109.68 35.3252 110.23 35.9216 110.848C35.9216 112.173 35.946 113.596 35.9034 115.012C35.8973 115.284 35.7025 115.617 35.4894 115.811C35.2521 116.035 35.179 116.216 35.4834 116.277C36.3111 116.44 37.1998 116.664 37.918 116.035C38.3136 115.69 38.758 115.635 39.1171 115.768C39.9996 116.089 40.8152 116.537 41.8317 116.422C42.702 116.325 43.5967 116.434 44.4732 116.392C45.0149 116.368 45.3497 116.725 45.5019 117.058C45.9157 117.977 46.6826 118.764 46.5609 119.914C46.4696 120.78 46.5 121.669 46.5609 122.541C46.5974 123.146 46.2323 123.485 45.9705 123.951C44.9297 125.779 44.0837 126.693 42.4708 127.377C42.1908 127.498 41.8803 127.601 41.5821 127.607C40.4804 127.637 39.3788 127.619 38.2771 127.619C37.6867 128.805 37.1024 127.552 36.512 127.607C35.8547 127.667 35.1121 127.812 34.5522 127.57C33.8157 127.256 32.9575 127.074 32.3914 126.408C32.2027 126.184 31.3689 124.363 31.2959 123.903C31.2594 123.697 31.2958 123.467 31.2228 123.273C31.1071 122.971 30.9489 122.989 30.7603 123.189C30.5472 123.412 30.389 123.776 29.969 123.661C28.8369 123.346 28.143 124.617 26.9257 124.393C26.1527 124.248 25.7692 123.37 24.9171 123.558C24.8928 123.558 24.6737 123.013 24.6737 122.716C24.6737 122.263 24.5885 121.905 24.2476 121.56C24.0589 121.373 23.9737 120.743 24.0102 120.725C25.118 120.265 24.3572 119.109 24.911 118.425C25.3554 117.875 25.8058 117.233 25.9397 116.567C26.0614 115.944 26.4753 115.672 26.7918 115.266C26.9805 115.024 27.3335 114.709 27.2787 114.503C27.0657 113.644 27.8691 113.166 27.9604 112.464C28.0882 111.447 29.5612 111.253 29.3603 110.073C29.9994 109.758 30.6142 109.286 31.2898 109.177C32.2576 109.02 33.2679 109.135 34.2965 109.135L34.2782 109.147ZM34.9113 124.326C36.5181 124.326 38.271 124.217 39.9996 124.369C40.9856 124.453 41.4421 123.527 42.3307 123.534C42.562 123.534 42.8298 123.128 43.0246 122.868C43.4628 122.287 43.1707 121.615 43.2133 120.979C43.2377 120.58 43.4141 120.102 42.8785 119.702C42.3186 119.702 41.6491 119.606 41.0222 119.727C40.2492 119.878 39.9326 119.115 39.3118 119.055C39.1231 119.037 38.8554 119.109 38.7458 119.242C38.4354 119.599 38.0823 119.684 37.6136 119.727C36.7372 119.805 35.2216 120.683 34.8747 121.07C34.3634 121.651 34.6739 122.317 34.6252 122.934C34.5948 123.34 34.4426 123.8 34.9234 124.32L34.9113 124.326ZM32.5801 113.807H32.6044C32.6044 113.59 32.5923 113.372 32.6044 113.154C32.647 112.561 32.2819 112.464 31.7949 112.446C31.0828 112.421 30.4315 112.427 30.6141 113.438C29.7559 114.364 28.6239 115.097 28.2952 116.422C28.0943 117.227 27.3457 117.778 27.297 118.637C26.4144 119.369 26.6274 120.38 26.6701 121.318C26.6761 121.458 27.2848 121.754 27.4248 121.663C28.7151 120.858 30.4011 120.453 30.7237 118.613C31.3871 118.292 31.1437 117.457 31.6489 117.015C32.3123 116.434 31.5393 115.248 32.568 114.746C32.6958 114.685 32.5862 114.134 32.5862 113.807H32.5801Z" fill="#1B8533"/>
<path d="M108.887 142.435C109.088 143.331 108.528 144.42 109.575 145.104C109.575 146.194 109.587 147.283 109.593 148.378C108.985 148.742 109.082 149.51 108.68 149.964C107.95 150.781 107.116 151.501 106.374 152.306C106.045 152.664 105.4 152.585 105.284 152.785C104.688 153.813 103.294 152.912 102.752 153.91C102.107 153.953 101.462 153.947 100.829 154.043C99.8184 154.201 99.1915 152.954 98.1324 153.372C97.7307 153.021 97.3169 152.682 96.9273 152.319C96.4465 151.871 96.0448 151.314 95.5092 150.951C94.9005 150.539 95.1439 149.764 94.6083 149.329C94.0423 148.875 94.3406 148.427 94.7484 147.973C94.931 147.773 94.9248 147.398 94.9979 147.101C95.1135 146.593 94.7057 145.945 95.2352 145.576C95.8195 145.165 95.5456 144.384 96.136 143.954C97.2681 143.131 97.8646 141.927 98.3515 140.619C98.595 139.966 99.2037 139.584 100.098 139.445C101.212 139.27 102.259 138.671 103.464 138.852C103.884 138.919 104.359 138.822 104.724 138.991C105.369 139.294 106.008 139.675 106.55 140.141C107.378 140.855 108.12 141.673 108.893 142.447L108.887 142.435ZM106.276 145.116C105.978 144.82 105.82 144.674 105.668 144.511C104.438 143.18 102.91 142.605 101.109 142.816C100.817 142.853 100.512 142.998 100.275 143.173C99.4958 143.755 99.5993 144.977 98.6437 145.449C98.5524 145.498 98.4307 145.594 98.4185 145.679C98.3637 146.103 98.3942 146.539 98.2968 146.944C98.1811 147.434 97.3838 147.707 97.6759 148.3C97.9012 148.76 98.3637 149.117 98.7472 149.498C98.9663 149.716 99.2767 150.067 99.4897 150.031C100.324 149.892 100.859 150.575 101.535 150.678C102.46 150.824 103.519 150.975 104.158 149.886C104.292 149.656 104.651 149.498 104.937 149.413C105.899 149.129 106.337 148.536 106.282 147.537C106.24 146.775 106.276 146.006 106.276 145.116Z" fill="#1B8533"/>
<path d="M57.1642 72.0344C57.1642 71.181 57.2738 70.5032 57.1398 69.8737C56.939 68.9235 57.5476 68.288 57.8154 67.5133C58.1259 66.6297 58.911 66.1879 59.5257 65.619C59.8605 65.3103 60.5118 65.7158 61.0656 65.3769C62.0212 64.7898 62.07 64.8624 62.6421 65.4253C63.0316 65.8066 63.4455 66.1758 63.7863 66.5994C63.8898 66.7326 63.8593 67.0473 63.7863 67.2349C63.7072 67.4226 63.4942 67.5497 63.3359 67.707C62.7942 68.2457 62.1978 68.7541 61.7169 69.3411C61.2665 69.8919 60.9439 70.5516 60.5361 71.1447C59.9275 72.0284 59.0631 72.3552 58.0041 72.1857C57.7971 72.1555 57.5963 72.1131 57.1702 72.0344H57.1642Z" fill="#1B8533"/>
<path d="M79.4043 107.828C80.0555 106.714 80.5546 105.613 80.4268 104.257C80.3355 103.313 80.1285 102.278 80.6094 101.388C80.8102 101.013 81.2972 100.444 81.0294 100.305C80.2564 99.9053 80.7981 98.4225 79.5017 98.5859C79.0695 98.0957 78.4487 97.9504 77.8704 97.7265C77.8887 96.631 76.6105 96.28 76.4523 95.36C76.3549 94.8153 75.2289 94.2162 76.3914 93.617C75.4663 93.0723 75.9836 92.6062 76.5192 92.231C77.0183 91.88 76.9514 91.2868 77.2253 90.8692C77.9557 89.7677 79.1182 89.1201 80.2929 88.7388C81.5042 88.3454 81.8754 87.6433 81.6928 86.5781C81.498 85.4282 82.2223 84.593 82.5267 83.6125C82.5632 83.4975 82.8919 83.4128 83.0805 83.4188C83.2692 83.4249 83.5979 83.552 83.6101 83.667C83.744 84.5869 84.6996 85.2406 84.3953 86.336C84.2614 86.8081 84.2309 87.4012 84.5231 87.9459C85.5334 86.6084 85.6125 86.3723 85.7038 85.0045C85.7221 84.708 85.8438 84.1875 85.9717 84.1693C86.4768 84.1088 87.0794 84.0604 87.5055 84.2782C87.9255 84.4961 88.4185 84.8714 88.3576 85.5432C88.3089 86.0879 88.3454 86.6386 88.3454 87.1894V88.4059C89.1549 88.9022 89.9401 88.5935 90.5791 88.6783C91.4313 89.4893 92.2225 90.2458 92.9712 90.96C92.9712 91.4684 93.1051 91.9586 92.9468 92.3278C92.5573 93.2417 91.3765 93.6593 90.5061 93.0662C89.9948 92.7152 89.5505 92.6365 89.0149 92.6486C88.5524 92.6547 88.0958 93.2054 88.3758 93.4778C89.0879 94.1798 89.0271 95.009 89.021 95.8624C89.0149 96.631 89.021 97.3997 89.021 98.4951C89.4288 98.8401 89.9827 99.3727 90.6035 99.8146C91.1817 100.226 90.9139 101.019 91.4982 101.455C91.7295 101.63 91.7052 102.26 91.6565 102.671C91.5591 103.506 92.0217 104.445 91.346 105.165C90.6704 105.885 91.3826 107.12 90.2079 107.701C89.4531 108.076 88.8993 108.845 88.3515 109.347C88.3515 110.2 88.2723 110.866 88.3697 111.514C88.4975 112.355 87.4264 112.676 87.5907 113.523C87.6211 113.674 86.2759 113.953 86.0812 113.759C85.8803 113.565 85.7829 113.245 85.7099 112.96C85.6551 112.754 85.7465 112.512 85.6856 112.307C85.6308 112.119 85.4786 111.828 85.3508 111.816C84.6935 111.768 83.9327 111.598 83.3971 111.853C82.758 112.155 82.2527 112.767 82.3501 113.705C82.4232 114.352 81.851 114.643 81.3093 114.346C80.7798 114.062 80.2686 113.729 79.7512 113.42C79.8304 113.342 79.9156 113.269 79.9825 113.184C80.159 112.978 80.579 112.652 80.0859 112.518C79.386 112.331 78.54 112.615 78.0652 111.786C77.2923 111.786 76.5071 111.865 75.7523 111.756C75.2715 111.689 74.8454 111.302 74.3646 111.132C72.4534 110.467 71.2361 108.941 69.8849 107.592C69.5562 107.265 69.7814 105.607 70.1284 105.159C70.664 104.469 70.9257 104.493 71.7352 104.802C72.6665 105.159 73.3908 105.74 74.0238 106.46C74.4863 106.987 74.9733 107.301 75.7219 107.18C76.3915 107.071 76.641 108.034 77.4383 107.858C78.0652 107.719 78.753 107.828 79.4043 107.828ZM83.044 104.886C83.044 105.437 83.0257 105.988 83.0562 106.533C83.0684 106.72 83.184 107.041 83.2997 107.065C83.5796 107.126 83.9752 107.15 84.1761 106.999C84.6934 106.593 85.1743 106.121 85.576 105.601C85.716 105.419 85.6856 104.941 85.5395 104.747C85.2717 104.396 85.0039 104.124 85.0221 103.628C85.0647 102.532 85.0648 101.424 85.0039 100.329C84.9978 100.178 84.5352 99.9901 84.2613 99.9356C84.1091 99.9053 83.7683 100.105 83.7561 100.226C83.7014 100.88 83.7197 101.539 83.7136 102.193C82.6789 102.895 83.1414 103.96 83.0501 104.886H83.044ZM85.4725 95.8926C85.8986 95.1179 85.576 94.3554 85.716 93.6412C85.8742 92.8181 85.1926 92.5336 84.7787 92.0857C84.6692 91.9707 84.3709 91.9526 84.1822 92.001C83.8535 92.0797 83.6831 92.2976 83.7014 92.6849C83.7379 93.3265 83.7318 93.9741 83.7014 94.6217C83.677 95.239 84.0909 95.2148 84.5231 95.3116C84.8578 95.3903 85.1439 95.6869 85.4665 95.8926H85.4725Z" fill="#1B8533"/>
<path d="M41.4544 16.6286C41.4918 16.5525 41.5407 16.497 41.5417 16.4411C41.545 16.3266 41.5223 16.2143 41.5442 16.0957C41.5539 16.0424 41.5083 15.9802 41.4839 15.9151C41.4957 15.8844 41.5055 15.8511 41.5199 15.8184C41.6119 15.6248 41.6268 15.5675 41.5662 15.3403C41.543 15.2559 41.6064 15.171 41.544 15.0956C41.5716 15.0395 41.6032 14.9854 41.6249 14.9281C41.6419 14.8834 41.6805 14.8858 41.713 14.8703C41.7774 14.8406 41.7969 14.7739 41.8019 14.72C41.8094 14.6408 41.7982 14.5557 41.7764 14.4786C41.7288 14.3092 41.7438 14.1508 41.8334 13.9992C41.8459 13.9771 41.8551 13.9551 41.8649 13.9351C41.8521 13.8027 41.741 13.6916 41.796 13.5496C41.7513 13.4214 41.7072 13.2919 41.6638 13.1644C41.7743 13.0579 41.6662 12.9002 41.756 12.7852C41.7732 12.7638 41.742 12.6689 41.7099 12.6531C41.6205 12.6091 41.6118 12.492 41.5084 12.4594C41.4038 12.4261 41.3076 12.3654 41.2154 12.3201C41.1443 12.2287 41.1949 12.1259 41.1711 12.0362C41.1514 11.9652 41.2043 11.9216 41.2293 11.8675C41.291 11.7321 41.3594 11.5999 41.4284 11.4597C41.3413 11.3604 41.3984 11.231 41.3611 11.1181C41.4415 11.0051 41.3621 10.8566 41.4658 10.7235C41.4253 10.6373 41.3788 10.5364 41.341 10.4548C41.4464 10.2778 41.4587 10.1214 41.4124 9.94929C41.379 9.82506 41.3749 9.69533 41.4447 9.57379C41.5006 9.47696 41.5472 9.37552 41.5925 9.27343C41.6116 9.23139 41.6646 9.19114 41.6316 9.1401C41.5879 9.0705 41.6607 9.00351 41.6204 8.93056C41.5793 8.85562 41.5521 8.76929 41.537 8.68554C41.5184 8.58517 41.4335 8.52847 41.3898 8.44556C41.3602 8.39118 41.2702 8.36845 41.1867 8.31905C41.1613 8.18879 41.0567 8.05768 41.0975 7.8904C41.0535 7.76092 41.0187 7.62938 40.9627 7.50396C40.9297 7.42963 40.9812 7.36211 40.9508 7.29575C40.9184 7.22675 40.9727 7.1805 40.9957 7.12712C41.0298 7.04772 41.0726 6.97093 41.1093 6.89285C41.129 6.84948 41.1666 6.79002 41.1511 6.76084C41.1141 6.68787 41.1782 6.6216 41.1438 6.54994C41.1013 6.46104 41.0622 6.36546 41.0502 6.26838C41.0397 6.17528 41.0245 6.08155 41.0146 5.99045C41.0047 5.89269 40.9687 5.78046 41.0413 5.68352C41.0683 5.64543 41.0787 5.38518 41.0638 5.34135C41.0042 5.16605 40.9445 4.99074 40.8828 4.80614C41.0179 4.70349 40.9437 4.53759 41.0021 4.40548C41.0251 4.3521 40.976 4.26656 40.9541 4.17287C40.9989 4.09873 41.0327 3.97608 41.1142 3.92168C41.1964 3.86594 41.2246 3.79523 41.2601 3.72314C41.2962 3.64972 41.2245 3.55967 41.2965 3.48403C41.3521 3.42513 41.3436 3.35132 41.3159 3.27962C41.3945 3.19063 41.3441 3.10111 41.3335 3.00469C41.3222 2.90628 41.2963 2.79731 41.3542 2.69647C41.4016 2.61366 41.2898 2.49724 41.4145 2.43924C41.3752 2.33035 41.3427 2.23806 41.3122 2.14842C41.3194 2.12042 41.3212 2.09646 41.3317 2.0751C41.4027 1.93093 41.473 1.78476 41.5453 1.64125C41.5663 1.59853 41.586 1.5485 41.6204 1.51901C41.6833 1.46871 41.7528 1.41172 41.8279 1.39396C41.9515 1.36524 42.0409 1.28817 42.139 1.22368C42.1853 1.19345 42.1988 1.11551 42.2439 1.08462C42.3579 1.00473 42.6293 0.999056 42.7594 1.05481C42.8348 1.08695 42.9031 1.16039 42.9966 1.10192C43.0853 1.13398 43.1819 1.15334 43.2318 1.25085C43.2472 1.28004 43.2754 1.30714 43.3041 1.32294C43.3902 1.37032 43.4816 1.41034 43.5697 1.45704C43.5871 1.46559 43.584 1.50553 43.6007 1.51874C43.6723 1.57885 43.6975 1.67252 43.7764 1.73125C43.8152 1.76029 43.8223 1.83344 43.8883 1.86098C43.9917 1.9036 44.0872 1.96223 44.19 2.00618C44.3995 2.09604 44.4917 2.26915 44.521 2.47925C44.5259 2.51981 44.5115 2.56914 44.5278 2.61695C44.5855 2.79293 44.6744 2.96606 44.6875 3.14498C44.6992 3.32324 44.7753 3.47182 44.8202 3.63325C44.8699 3.81194 44.9243 3.99127 45.0005 4.15982C45.0639 4.29717 45.0309 4.4451 45.0816 4.5812C45.1337 4.72128 45.2091 4.86122 45.2187 5.00356C45.229 5.17784 45.2912 5.33117 45.3361 5.49259C45.3613 5.58293 45.4497 5.67954 45.3864 5.76777C45.3257 5.85398 45.3994 5.93005 45.3606 6.01214C45.3193 6.10289 45.3317 6.2898 45.3528 6.35488C45.3914 6.47176 45.4407 6.58724 45.4694 6.70751C45.494 6.80916 45.5931 6.90105 45.5226 7.0206C45.5626 7.13813 45.6026 7.25566 45.6426 7.3732C45.6785 7.47878 45.7217 7.58298 45.749 7.69261C45.7661 7.7657 45.7019 7.82532 45.673 7.89071C45.6389 7.97011 45.5961 8.0469 45.558 8.12432L45.4588 8.3259C45.5751 8.52081 45.5253 8.75668 45.6237 8.95437C45.5857 9.04178 45.6575 9.14181 45.5935 9.22805C45.5143 9.33501 45.551 9.45922 45.5616 9.56895C45.5701 9.64941 45.5766 9.73055 45.5844 9.81235C45.5909 9.88351 45.6292 9.95381 45.653 10.0235C45.7248 10.2347 45.7966 10.4459 45.8705 10.6663L45.5748 11.267C45.5931 11.3208 45.6154 11.3766 45.6304 11.4337C45.6474 11.4968 45.6843 11.5332 45.7404 11.5675C45.7965 11.6017 45.8368 11.6647 45.881 11.7163C45.8958 11.7335 45.9146 11.7693 45.908 11.776C45.8472 11.8423 45.9328 11.9143 45.8933 11.9844C45.8209 12.1146 45.7606 12.2507 45.6837 12.4069C45.7088 12.4806 45.7632 12.5721 45.7658 12.6646C45.7677 12.7651 45.8117 12.8746 45.7384 12.9729C45.7028 13.0217 45.6825 13.083 45.6549 13.1391C45.6873 13.2014 45.6937 13.2693 45.7592 13.3247C45.8074 13.365 45.8285 13.4434 45.9039 13.4722C45.9305 13.4821 45.9561 13.5245 45.9609 13.5551C45.9776 13.6694 46.0056 13.7844 45.9458 13.8992C45.8813 14.02 45.8255 14.1435 45.7572 14.2823C45.7829 14.3514 45.8107 14.433 45.8464 14.512C45.87 14.5651 45.8397 14.6032 45.8286 14.6492C45.8013 14.7485 45.8299 14.8588 45.774 14.9556C45.8139 15.0565 45.7733 15.1659 45.8178 15.2708C45.8462 15.3378 45.8102 15.4312 45.8499 15.5121C45.8877 15.5904 45.9075 15.6748 45.9373 15.7624L45.6718 16.3017C45.7036 16.3754 45.7373 16.4551 45.7812 16.5613C45.7946 16.5678 45.8459 16.5815 45.88 16.6132C45.9215 16.6502 45.9127 16.7321 45.9887 16.7463C46.0362 16.899 46.0837 17.0518 46.1387 17.2231C46.1316 17.2578 46.0626 17.3001 46.095 17.3691C46.1193 17.4209 46.0982 17.4603 46.0786 17.507C46.0556 17.5604 46.0033 17.6059 46.0304 17.6756C46.0601 17.7533 46.0141 17.8368 46.0545 17.9197C46.1037 18.0185 46.129 18.1288 46.1649 18.2344C46.2405 18.3065 46.3796 18.297 46.405 18.4372C46.4105 18.4665 46.4891 18.4753 46.4782 18.5413C46.4667 18.6085 46.4804 18.685 46.4555 18.7457C46.3886 18.9051 46.3051 19.058 46.2282 19.2142C46.2215 19.3088 46.3291 19.3899 46.2572 19.4922C46.289 19.5858 46.3209 19.6794 46.3528 19.7731C46.3846 19.8667 46.4218 19.9596 46.4463 20.0546C46.4634 20.1211 46.4199 20.1925 46.4616 20.2628C46.4919 20.3159 46.5036 20.3797 46.5286 20.4534C46.294 20.93 46.0508 21.4172 45.8163 21.9071C45.767 22.0072 45.6214 22.0168 45.6142 22.1459C45.5571 22.1676 45.502 22.1918 45.4442 22.2115C45.2782 22.2702 45.1424 22.3587 45.0366 22.4769C45.0142 22.5023 44.9884 22.5311 44.9579 22.5426C44.8417 22.5865 44.7256 22.6471 44.6065 22.6565C44.5081 22.6645 44.4045 22.6897 44.2976 22.6338C43.9578 22.4549 43.6108 22.2907 43.265 22.1205C43.2345 22.0275 43.19 21.936 43.1741 21.8403C43.1583 21.7479 43.0656 21.7138 43.0444 21.6321C43.0253 21.5597 42.9515 21.5615 42.9027 21.5292C42.8332 21.4817 42.7367 21.4757 42.689 21.3974C42.6338 21.3073 42.5655 21.2272 42.5355 21.1196C42.4818 20.9289 42.4101 20.7444 42.3471 20.5558C42.3125 20.4509 42.2466 20.3421 42.2566 20.2409C42.2672 20.1317 42.2215 20.0528 42.1983 19.9618C42.1717 19.8542 42.1231 19.7507 42.0945 19.6437C42.0796 19.5899 42.1011 19.5259 42.0862 19.4721C42.0705 19.4163 42.0936 19.3795 42.1119 19.3355C42.1336 19.2815 42.1825 19.2359 42.1528 19.1649C42.1251 19.0999 42.1872 19.0243 42.1375 18.9567C42.1234 18.9382 42.1206 18.9102 42.1125 18.8863C42.0644 18.7449 42.0308 18.5974 41.9661 18.466C41.8927 18.3188 41.9416 18.1554 41.8742 18.0094C41.8128 17.8747 41.7806 17.7279 41.7265 17.5885C41.6873 17.4862 41.7378 17.3768 41.6813 17.2727C41.6274 17.1765 41.6055 17.0629 41.5709 16.9579C41.5349 16.8524 41.499 16.7468 41.4584 16.6273L41.4544 16.6286Z" fill="#FCD214"/>
<path d="M21.8151 13.3063C21.7683 13.2634 21.6859 13.2759 21.6694 13.2014C21.6503 13.1157 21.529 13.0892 21.5444 12.9939C21.5719 12.8134 21.4791 12.6649 21.4302 12.5049C21.3806 12.3395 21.3124 12.1782 21.2675 12.0101C21.2477 11.9324 21.1591 11.9203 21.1446 11.8386C21.1391 11.806 21.0731 11.7818 21.033 11.7587C21.0009 11.7396 20.9675 11.7199 20.9329 11.7094C20.7829 11.6671 20.705 11.5492 20.6231 11.4325C20.6699 11.3577 20.684 11.2851 20.6655 11.1914C20.6545 11.1329 20.7232 11.0606 20.7561 10.9939C20.6289 10.7638 20.703 10.4818 20.5373 10.2593C20.6116 10.1084 20.6885 9.96886 20.7509 9.82208C20.8322 9.62993 20.9772 9.52057 21.1739 9.46812L21.346 9.11837C21.3291 9.07522 21.2982 9.02018 21.2859 8.96103C21.2769 8.9185 21.2986 8.86779 21.2903 8.82393C21.269 8.71559 21.319 8.61081 21.3892 8.56912C21.4821 8.51531 21.5504 8.37648 21.6978 8.43413C21.7172 8.44199 21.7444 8.43716 21.7663 8.42971C21.8606 8.39984 21.9556 8.37198 22.0479 8.33281C22.1282 8.29771 22.2091 8.35577 22.2926 8.31067C22.3788 8.26355 22.4785 8.24297 22.5841 8.20705C22.7977 8.3122 23.014 8.43197 23.2422 8.52438C23.3362 8.5624 23.317 8.67564 23.4123 8.701C23.4829 8.7192 23.5458 8.76339 23.6125 8.79625C23.6609 8.87647 23.6423 8.99503 23.7544 9.03692C23.7822 9.1186 23.8073 9.20229 23.8391 9.28261C23.8513 9.31181 23.8833 9.33424 23.9101 9.35736C23.979 9.41616 24.1004 9.56713 24.1214 9.62888C24.1892 9.82809 24.2549 10.028 24.3187 10.2219C24.4189 10.2778 24.5368 10.2977 24.5662 10.4266C24.6556 10.4707 24.7437 10.514 24.8332 10.5581C24.9286 10.6067 25.0419 10.6326 25.0726 10.7589C25.2101 10.8199 25.141 10.9435 25.1589 11.0418C25.1658 11.0784 25.1819 11.1129 25.1948 11.1507C25.3377 11.221 25.4773 11.3047 25.628 11.359C25.7307 11.3963 25.7334 11.5187 25.8301 11.5514C25.8368 11.5547 25.8389 11.574 25.843 11.5859C25.9224 11.8389 25.9237 11.8363 26.0452 11.9027C26.1694 11.9705 26.3266 11.9948 26.3855 12.1515L26.6858 12.2994C26.7166 12.4256 26.8298 12.4515 26.9253 12.5002C27.0354 12.556 27.1469 12.6093 27.2657 12.6677C27.3024 12.792 27.3411 12.9221 27.3812 13.0563C27.5081 13.1187 27.6295 13.1785 27.7497 13.2377C27.7924 13.2587 27.8424 13.2784 27.8713 13.3141C27.9216 13.377 27.9659 13.4486 27.9976 13.5223C28.0375 13.6132 28.0633 13.7089 28.1033 13.8264C28.1741 13.8612 28.2569 13.9153 28.3489 13.944C28.461 13.9792 28.458 14.1403 28.5871 14.1475C28.6107 14.2039 28.6377 14.2569 28.6573 14.3147C28.7312 14.5252 28.801 14.737 28.8742 14.9522C28.993 15.0107 29.1152 15.0691 29.236 15.1303C29.2774 15.1507 29.3394 15.1796 29.3463 15.2128C29.3614 15.2932 29.456 15.3033 29.4691 15.3844C29.4823 15.4688 29.528 15.5477 29.5478 15.6321C29.5649 15.7019 29.607 15.7342 29.6671 15.7571C29.6737 15.7604 29.8307 15.9704 29.8328 15.9763C29.8687 16.0819 29.9046 16.1875 29.9453 16.307C30.0454 16.3563 30.1555 16.4089 30.2643 16.4641C30.3177 16.4904 30.3937 16.5145 30.4133 16.559C30.4511 16.6473 30.5532 16.6925 30.5599 16.8003C30.5636 16.8602 30.5852 16.9206 30.5928 16.9558C30.6462 16.9821 30.6669 16.9973 30.6902 17.0038C30.7815 17.0272 30.7584 17.1551 30.8623 17.1764C30.9449 17.1939 31.0191 17.2486 31.0966 17.2867C31.1958 17.4185 31.1795 17.5797 31.1862 17.6841C31.2112 17.7412 31.2132 17.7571 31.2219 17.7631C31.242 17.7763 31.266 17.7848 31.2887 17.7959L31.7506 18.0233C31.8082 18.1926 31.8638 18.356 31.9187 18.5207C31.9763 18.69 32.1065 18.8735 32.2752 19.0295C32.3006 19.052 32.3267 19.0798 32.3382 19.1103C32.389 19.2497 32.4351 19.3919 32.4839 19.5353C32.5527 19.5775 32.6514 19.6061 32.6864 19.6698C32.7214 19.7335 32.7947 19.7629 32.8105 19.8387C32.827 19.9231 32.8548 20.0048 32.8745 20.0759C33.0539 20.1327 33.1517 20.2472 33.2185 20.3912C33.2542 20.4668 33.2456 20.5687 33.3224 20.6181C33.3859 20.6576 33.3692 20.7622 33.4584 20.773C33.4818 20.8939 33.6712 20.9573 33.5764 21.1196L33.7527 21.3308C33.9195 21.4129 34.0864 21.4951 34.2519 21.5765C34.2947 21.5976 34.358 21.6238 34.3636 21.6564C34.378 21.7381 34.4666 21.7502 34.4864 21.828C34.5314 21.996 34.5929 22.1574 34.6511 22.322C34.6945 22.4462 34.7127 22.5878 34.8674 22.6341C34.8679 22.7173 34.9625 22.7373 34.9829 22.8071C34.9999 22.8668 35.0495 22.9311 35.0379 22.9817C35.0022 23.1283 35.0801 23.243 35.1194 23.3652C35.23 23.7065 35.3558 24.0438 35.4604 24.3872C35.4937 24.4948 35.5024 24.6151 35.4446 24.7293C35.4091 24.8014 35.3543 24.8656 35.3775 24.9666C35.3946 25.043 35.3765 25.127 35.4076 25.2086C35.4401 25.2909 35.4242 25.3097 35.3433 25.3461C35.2245 25.3987 35.1093 25.4946 35.0134 25.595C34.9586 25.6526 34.8957 25.7129 34.8234 25.7419C34.6395 25.8156 34.4502 25.8733 34.2616 25.9364C34.111 25.902 33.9824 25.988 33.8496 26.0188C33.6106 25.9011 33.377 25.7861 33.1434 25.6711C33.0112 25.6061 32.9255 25.5174 32.8561 25.3755C32.7577 25.1744 32.7142 25.1381 32.5533 25.0473C32.4625 24.9959 32.3446 24.9894 32.2906 24.8666C32.2427 24.7617 32.1017 24.7653 32.0161 24.6966C31.949 24.4994 31.8779 24.3002 31.8141 24.0996C31.7537 23.909 31.6563 23.7533 31.4582 23.6806C31.4008 23.659 31.3467 23.6274 31.2913 23.5985C31.2526 23.5794 31.1543 23.4017 31.1547 23.3471C31.1571 23.2007 31.0402 23.1249 30.965 23.0249C30.9523 23.007 30.921 23.0032 30.9003 22.9914C30.7426 22.8872 30.5249 22.8746 30.4239 22.6789C30.4064 22.6437 30.3384 22.6335 30.2944 22.6118L29.4707 22.2063C29.3663 21.8962 29.2633 21.5934 29.1657 21.3066C29.019 21.2576 28.9558 21.1535 28.896 21.056C28.8584 20.9944 28.8631 20.9005 28.8182 20.8502C28.7492 20.7748 28.7252 20.6618 28.6098 20.62C28.4824 20.5722 28.3642 20.5024 28.2347 20.4386C28.2096 20.3616 28.1925 20.2752 28.1541 20.1982C28.1197 20.1266 28.0707 20.0577 28.0145 20.0035C27.9716 19.9625 27.8997 19.9536 27.8516 19.9166C27.8068 19.883 27.8189 19.7944 27.7443 19.7842C27.6524 19.7721 27.6723 19.6609 27.6049 19.6327C27.5115 19.5933 27.595 19.5283 27.5793 19.4791C27.5583 19.4107 27.5479 19.3376 27.4592 19.3089C27.3672 19.2802 27.3736 19.1291 27.2524 19.1258C27.2213 19.0475 27.1849 18.9699 27.1585 18.8888C27.1422 18.8377 27.1193 18.7933 27.066 18.7869C26.9601 18.7763 27.0018 18.631 26.8946 18.613C26.824 18.6014 26.7605 18.5519 26.6937 18.5191C26.6163 18.481 26.5401 18.4368 26.4601 18.4041C26.352 18.3608 26.3061 18.2586 26.2551 18.1738C26.1932 18.0703 26.1718 17.9421 26.1325 17.8265C26.0383 17.7719 25.9151 17.756 25.8903 17.6244L25.5753 17.4693C25.5247 17.3532 25.4934 17.2449 25.4323 17.1568C25.4054 17.117 25.3931 17.0645 25.3604 17.0401C25.3028 16.9952 25.2302 16.971 25.1527 16.9329C25.1371 16.8804 25.1214 16.8213 25.1038 16.7629C25.0807 16.6918 25.057 16.6221 25.0319 16.5517C25.0285 16.5417 25.0185 16.5318 25.0092 16.5272C24.9418 16.4957 24.8877 16.4641 24.8579 16.3831C24.8423 16.3406 24.757 16.3218 24.7029 16.2936C24.6696 16.2771 24.6362 16.2607 24.5761 16.2311C24.551 16.1441 24.5111 16.0399 24.4918 15.9309C24.4766 15.8504 24.3913 15.8283 24.3749 15.7572C24.3565 15.6835 24.2886 15.6766 24.2372 15.6496C24.0836 15.5707 23.9261 15.4965 23.7719 15.4189C23.7185 15.3927 23.6578 15.3678 23.6196 15.3241C23.5667 15.2632 23.5263 15.1902 23.4926 15.1172C23.4474 15.0204 23.4453 14.8966 23.3127 14.8628C23.2689 14.7733 23.2033 14.7111 23.1079 14.6758C23.0545 14.6561 22.9879 14.6433 22.9701 14.5682C22.9531 14.4984 22.8624 14.477 22.8546 14.3952C22.8503 14.3467 22.8161 14.3016 22.8112 14.2544C22.8013 14.1733 22.7048 14.1639 22.689 14.0815C22.6835 14.0489 22.6181 14.0234 22.5754 14.0023C22.3664 13.8978 22.1549 13.7953 21.952 13.6954C21.9045 13.556 21.8605 13.4265 21.8178 13.301L21.8151 13.3063Z" fill="#FCD214"/>
<path d="M14.1552 26.3613L14.6812 26.6202C14.8115 26.5948 14.9253 26.4949 15.0674 26.5466C15.1849 26.5066 15.3009 26.4427 15.4193 26.4347C15.5051 26.4288 15.6008 26.4029 15.6936 26.4536C15.8572 26.5424 16.0247 26.6199 16.1729 26.6928C16.2904 26.6529 16.3927 26.6169 16.4531 26.5953C16.6077 26.6416 16.6916 26.7475 16.8129 26.6762C16.9905 26.7636 17.168 26.851 17.3455 26.9384C17.3818 27.1039 17.5475 27.0942 17.6437 27.1682C17.7434 27.1376 17.8302 27.0825 17.931 27.1271C17.992 27.0908 18.0447 27.1151 18.1021 27.1434C18.2676 27.2282 18.4358 27.3077 18.6307 27.4036C18.709 27.3659 18.8085 27.3187 18.8802 27.2843C19.0062 27.3248 19.074 27.4195 19.1894 27.3669C19.2133 27.3554 19.26 27.3784 19.2888 27.3975C19.4378 27.4924 19.6415 27.5098 19.7291 27.6956L20.1897 27.9223C20.2748 27.8033 20.3971 27.7873 20.5113 27.7473L20.9759 27.976C21.0456 27.9556 21.1019 27.9153 21.1605 28.0155C21.2358 28.1454 21.3378 28.1807 21.458 28.1421C21.5962 28.0973 21.7355 28.1343 21.8738 28.1162C21.9057 28.112 21.9457 28.1217 21.9737 28.1389C22.0839 28.2047 22.2384 28.2144 22.2806 28.3712C22.3807 28.4205 22.4756 28.4904 22.5809 28.5124C22.6655 28.5292 22.7641 28.5379 22.8563 28.502C22.8995 28.4851 22.9718 28.4594 22.9906 28.4786C23.0756 28.5619 23.1789 28.4734 23.267 28.5235C23.4286 28.613 23.6008 28.6878 23.7643 28.7732C23.8371 28.8107 23.8377 28.9172 23.9371 28.9445C24.0304 28.9706 24.1166 29.0279 24.2047 29.0713L24.4356 29.185C24.5671 29.1403 24.6966 29.0962 24.834 29.0494C25.0276 29.1447 25.2232 29.2493 25.4267 29.3379C25.5208 29.3792 25.5229 29.4997 25.6309 29.5296C25.7242 29.5556 25.8104 29.613 25.8985 29.6564C25.9866 29.6998 26.0813 29.7364 26.1628 29.7898C26.2083 29.8188 26.2286 29.8852 26.2728 29.9202C26.3209 29.9572 26.3809 29.9768 26.4343 30.0031L26.8228 29.8709C26.9186 29.8783 26.9812 29.9937 27.0954 29.9471C27.1226 29.9356 27.1653 29.95 27.196 29.9651C27.3081 30.017 27.4144 30.0908 27.531 30.1234C27.6337 30.1507 27.5959 30.278 27.7018 30.302C27.7958 30.3234 27.88 30.3847 27.9694 30.4288C28.0469 30.4669 28.1249 30.5037 28.203 30.5438C28.2665 30.5767 28.2538 30.6765 28.3417 30.6966C28.3997 30.7102 28.4638 30.7385 28.5073 30.7781C28.5648 30.833 28.6145 30.9006 28.6489 30.9722C28.6913 31.0611 28.7239 31.1567 28.7444 31.2531C28.7643 31.3441 28.8566 31.4261 28.7887 31.5303C28.822 31.6346 28.8546 31.7402 28.8824 31.8318C28.8497 31.9119 28.8055 31.978 28.7979 32.0473C28.7891 32.1259 28.7917 32.2183 28.826 32.2867C28.8685 32.3723 28.8144 32.4518 28.8455 32.5334C28.8753 32.6111 28.8011 32.6675 28.7749 32.7342C28.7474 32.8035 28.7078 32.867 28.6776 32.9351C28.6265 33.0525 28.5197 33.111 28.4162 33.1563C28.2695 33.2217 28.1127 33.2639 27.9494 33.3195C27.9027 33.2965 27.8505 33.2609 27.7932 33.246C27.7386 33.2323 27.6781 33.2507 27.6222 33.2397C27.5082 33.2151 27.4353 33.2555 27.3907 33.3596C27.3618 33.4283 27.3222 33.4751 27.2472 33.5129C27.1948 33.5385 27.1781 33.6364 27.142 33.7098C27.0603 33.7309 26.9765 33.7527 26.8663 33.7814L26.5979 33.6493C26.4978 33.6 26.3944 33.5574 26.2982 33.5001C26.2021 33.4428 26.0756 33.5381 25.9884 33.4288C25.8981 33.464 25.8065 33.4985 25.7281 33.5296C25.6888 33.5218 25.6642 33.5213 25.6442 33.5115C25.5221 33.453 25.396 33.3992 25.2791 33.3301C25.1675 33.2635 25.0499 33.2902 24.9375 33.2962C24.8543 33.3001 24.7735 33.3465 24.6918 33.3743C24.6036 33.3143 24.5234 33.3727 24.4511 33.405C24.3575 33.4469 24.2634 33.4055 24.1705 33.4361C24.1353 33.4469 24.0539 33.4135 24.043 33.3816C23.9997 33.2608 23.8937 33.2302 23.7989 33.1835C23.5546 33.0632 23.3103 32.943 23.0353 32.8076C22.9577 32.844 22.8569 32.8906 22.7832 32.9256C22.6851 32.8856 22.619 32.8414 22.5504 32.8326C22.4718 32.8237 22.3793 32.8263 22.311 32.8607C22.2254 32.9031 22.1459 32.849 22.0656 32.8808C21.9879 32.9106 21.9309 32.8377 21.8649 32.8102C21.7514 32.761 21.6439 32.6964 21.5305 32.6506C21.4418 32.6152 21.3714 32.5324 21.263 32.5471C21.1008 32.5667 20.9321 32.5185 20.7783 32.6053L20.1429 32.2925C20.0997 32.3127 20.0341 32.3451 19.9677 32.3754C19.8855 32.3134 19.7875 32.3945 19.6919 32.3292C19.5623 32.2389 19.4075 32.1826 19.2701 32.1149C19.1711 32.1441 19.0849 32.2012 18.9842 32.1566C18.9232 32.1929 18.8691 32.1679 18.8131 32.1403C18.5361 32.0023 18.2544 31.8736 17.982 31.7263C17.8552 31.6572 17.7288 31.6679 17.6052 31.6867C17.3672 31.7254 17.3046 31.7278 17.1258 31.6397C16.9042 31.5306 16.6812 31.4209 16.4396 31.3019C16.3858 31.3202 16.3149 31.3699 16.2517 31.3603C16.1497 31.345 16.0369 31.3956 15.9432 31.3097C15.8997 31.27 15.8318 31.2565 15.7797 31.2242C15.7189 31.186 15.6324 31.1865 15.5993 31.1089C15.5622 31.0226 15.4614 30.9746 15.4574 30.8648C15.4558 30.8176 15.4275 30.7705 15.4092 30.7168L15.0648 30.5472C14.8983 30.6361 14.6994 30.6326 14.4977 30.6346C14.3913 30.6352 14.3171 30.5871 14.2376 30.5364C14.2435 30.4099 14.0939 30.4274 14.0507 30.3332C14.0069 30.2403 13.8974 30.1765 13.8184 30.2056C13.7035 30.2469 13.6127 30.0944 13.5062 30.1895L13.2726 30.0745C13.1831 30.0305 13.0937 29.9898 13.0056 29.9431C12.9021 29.8872 12.7702 29.8654 12.7327 29.7259C12.6326 29.6766 12.5067 29.6494 12.4397 29.5733C12.3432 29.4628 12.23 29.3523 12.1792 29.2096C12.0865 28.9533 11.9944 28.6957 11.9189 28.4346C11.8829 28.3124 11.8794 28.1813 11.9499 28.0585C12.0163 27.9403 12.0755 27.8168 12.1306 27.6914C12.1621 27.6206 12.2131 27.5844 12.2787 27.5454C12.3324 27.5138 12.3364 27.408 12.3854 27.3557C12.4396 27.2995 12.5172 27.2564 12.5922 27.2287C12.7183 27.1813 12.8036 27.0923 12.8935 26.9973C12.9702 26.9156 13.0575 26.8326 13.1791 26.8012C13.2721 26.7773 13.3765 26.7574 13.397 26.6348C13.5156 26.5556 13.6266 26.4311 13.7698 26.4435C13.9156 26.4573 14.0256 26.3854 14.1579 26.3626L14.1552 26.3613Z" fill="#FCD214"/>
</svg>
