<svg width="486" height="186" viewBox="0 0 486 186" fill="none" xmlns="http://www.w3.org/2000/svg">
<path d="M0.504326 102.997C0.503118 103.046 0.86754 103.148 1.09647 103.163C1.60923 103.198 2.13211 103.193 2.64516 103.216C2.86503 103.227 3.2215 103.279 3.23872 103.325C3.28233 103.417 3.19691 103.534 3.04846 103.604C2.94653 103.647 2.607 103.653 2.40576 103.631C1.7655 103.558 1.4431 103.615 1.19795 103.889C1.44572 103.884 1.65686 103.878 1.86797 103.871C1.91289 103.91 1.95782 103.948 1.93072 103.931C1.93062 103.935 1.93062 103.935 1.93072 103.931C2.42555 103.95 2.84767 103.941 3.19485 103.997C3.35015 104.022 3.34621 104.183 3.45257 104.335C3.17851 104.29 3.10558 104.271 3.04142 104.27C2.78459 104.27 2.49151 104.253 2.3072 104.289C2.21504 104.307 2.24807 104.457 2.34738 104.522C2.47358 104.613 2.72881 104.678 2.92874 104.754C3.13773 104.835 3.34661 104.919 3.54634 105.004C3.78232 105.106 3.97176 105.235 4.26344 105.31C5.01077 105.505 5.13668 105.608 4.77188 105.899C4.60358 106.031 4.59209 106.126 4.98388 106.232C5.58528 106.394 5.60093 106.506 5.12836 106.703C4.94304 106.781 4.69393 106.84 4.51778 106.917C4.41585 106.96 4.33166 107.027 4.34868 107.082C4.45998 107.407 4.6539 107.731 4.70104 108.055C4.71635 108.18 4.41064 108.303 4.20518 108.454L5.39757 108.452C5.3734 108.691 6.0737 108.934 5.15293 109.081C5.74174 109.384 5.69384 109.469 6.9084 109.31C6.85955 109.433 6.86629 109.532 6.78179 109.612C6.38769 109.977 6.34262 110.319 7.16932 110.645C7.64169 110.832 8.02171 111.046 8.47555 111.241C8.57536 111.285 8.79475 111.317 8.95973 111.321C9.80294 111.346 10.0575 111.44 9.93097 111.739C9.87275 111.869 9.99965 111.931 10.3193 111.985C10.4655 112.01 10.6098 112.11 10.5992 112.167C10.5571 112.389 10.2489 112.62 11.1164 112.774C10.9231 112.805 10.8584 112.824 10.7757 112.83C10.6103 112.841 10.4452 112.841 10.2888 112.861C10.0773 112.884 9.83842 112.902 9.67214 112.95C9.22888 113.074 9.29957 113.183 9.82925 113.277C9.98446 113.307 10.1943 113.354 10.2205 113.405C10.4406 113.783 10.9634 114.162 10.3854 114.542C10.3482 114.566 10.3657 114.599 10.3649 114.633C10.3597 114.847 10.1811 115.024 9.58269 115.114C9.10398 115.187 8.64322 115.277 8.05371 115.379C8.43574 115.51 8.77195 115.64 9.14521 115.754C9.5641 115.878 9.57082 115.978 9.10964 116.084C8.92512 116.128 8.64915 116.161 8.58338 116.226C8.46101 116.354 8.46655 116.503 8.40764 116.663C8.51722 116.683 8.72745 116.714 8.83703 116.733C8.97099 116.882 9.0874 116.997 9.2126 117.129C8.82614 117.179 8.56702 117.275 8.82849 117.461C8.85548 117.482 8.81777 117.522 8.7805 117.546C8.51813 117.774 8.68825 117.944 9.28995 118.094C9.64558 118.179 9.84372 118.329 9.53764 118.469C9.24073 118.609 9.04449 118.757 8.85716 118.917C8.62319 119.108 7.90488 119.228 7.9348 119.506C7.04264 119.608 7.20107 119.881 7.23179 120.126C7.2469 120.258 7.12597 120.329 6.7945 120.382C6.26976 120.461 6.25899 120.527 6.73317 120.64C7.07974 120.721 7.16966 120.794 7.10188 120.94C7.05333 121.051 7.22457 121.176 7.33042 121.348C6.7663 121.538 7.70871 121.632 7.87893 121.798C7.79382 121.903 7.7913 122.006 7.75212 122.109C7.69361 122.252 7.68973 122.413 7.5033 122.535C7.32614 122.654 7.26929 122.727 7.56943 122.831C7.68768 122.872 7.76878 122.932 7.82247 122.987C7.99258 123.157 8.30326 123.204 8.80766 123.206C11.0272 123.209 13.2463 123.228 15.4565 123.239C16.4378 123.243 17.4285 123.239 18.4101 123.231C19.6118 123.22 20.805 123.185 21.9973 123.187C23.1896 123.189 24.3901 123.232 25.5822 123.242C26.4167 123.25 27.2427 123.225 28.0774 123.224C30.6458 123.213 33.2144 123.193 35.7827 123.189C40.8366 123.18 45.8902 123.183 50.9441 123.178C51.4026 123.179 51.8529 123.147 52.3024 123.144C54.4396 123.136 56.5675 123.136 58.7045 123.137C59.1356 123.137 59.5748 123.179 60.0057 123.187C60.3081 123.196 60.629 123.205 60.9141 123.172C62.5689 123.014 64.188 122.813 65.9762 122.828C68.3879 122.849 70.7913 122.833 73.2034 122.837C74.4966 122.838 75.7896 122.851 77.0826 122.86C78.0271 122.867 78.9715 122.878 79.9161 122.885C82.2912 122.901 84.6755 122.917 87.0506 122.937C88.8479 122.952 90.6454 122.959 92.4333 122.987C96.0822 123.048 99.73 123.155 103.371 123.183C108.038 123.216 112.707 123.191 117.376 123.192C119.219 123.192 121.063 123.188 122.906 123.192C126.786 123.202 130.665 123.233 134.536 123.218C138.884 123.205 143.214 123.146 147.562 123.124C150.021 123.109 152.487 123.14 154.955 123.129C157.817 123.118 160.679 123.082 163.541 123.062C165.082 123.054 166.632 123.07 168.173 123.057C170.219 123.043 172.265 122.999 174.32 122.989C176.466 122.978 178.621 123.003 180.768 122.996C181.639 122.993 182.502 122.939 183.375 122.907C183.815 122.891 184.247 122.854 184.687 122.859C185.531 122.867 186.373 122.92 187.217 122.924C189.583 122.932 191.95 122.935 194.316 122.921C195.206 122.918 196.079 122.861 196.96 122.829C197.079 122.824 197.208 122.816 197.327 122.819C198.738 122.877 200.131 122.918 201.554 122.885C204.344 122.822 207.15 122.813 209.949 122.787C212.013 122.769 214.076 122.768 216.14 122.754C219.645 122.732 223.158 122.711 226.662 122.685C228.148 122.675 229.625 122.665 231.111 122.65C232.506 122.637 233.891 122.616 235.286 122.603C236.175 122.616 237.064 122.642 237.954 122.652C238.788 122.66 239.614 122.634 240.449 122.63C243.017 122.618 245.586 122.598 248.154 122.595C253.208 122.586 258.262 122.589 263.316 122.584C263.774 122.585 264.224 122.553 264.674 122.549C266.811 122.541 268.939 122.542 271.076 122.542C271.507 122.542 271.946 122.584 272.377 122.593C272.68 122.602 273 122.611 273.286 122.578C274.94 122.42 276.56 122.219 278.348 122.234C280.759 122.255 283.163 122.239 285.575 122.243C286.868 122.244 288.161 122.257 289.454 122.266C290.399 122.273 291.343 122.284 292.288 122.291C294.663 122.306 297.047 122.322 299.422 122.342C301.219 122.358 303.017 122.365 304.805 122.392C308.454 122.454 312.102 122.56 315.742 122.588C320.41 122.622 325.079 122.597 329.747 122.597C331.591 122.597 333.435 122.593 335.278 122.598C339.157 122.608 343.036 122.639 346.907 122.624C351.255 122.611 355.586 122.551 359.934 122.53C362.392 122.515 364.859 122.546 367.326 122.535C370.188 122.524 373.051 122.488 375.913 122.468C377.454 122.459 379.003 122.476 380.545 122.463C382.59 122.449 384.637 122.405 386.682 122.395C388.829 122.383 390.984 122.409 393.13 122.401C394.001 122.398 394.865 122.345 395.737 122.312C396.178 122.296 396.61 122.259 397.05 122.264C397.893 122.272 398.736 122.326 399.58 122.33C401.946 122.337 404.312 122.34 406.679 122.327C407.569 122.32 408.441 122.267 409.322 122.234C409.442 122.23 409.57 122.221 409.69 122.225C411.101 122.282 412.494 122.323 413.916 122.29C416.706 122.227 419.513 122.218 422.311 122.193C424.375 122.175 426.439 122.173 428.503 122.159C432.007 122.138 435.52 122.116 439.025 122.091C440.511 122.08 441.988 122.07 443.474 122.056C445.575 122.034 447.685 122.001 449.786 121.984C451.336 121.971 452.886 121.984 454.436 121.971C455.73 121.964 457.024 121.931 458.317 121.919C460.51 121.897 462.711 121.883 464.904 121.852C465.987 121.838 467.062 121.758 468.144 121.769C469.932 121.784 471.656 121.797 473.026 121.296C473.378 121.165 473.526 121.091 473.301 120.928C473.066 120.755 472.98 120.559 473.495 120.466C474.048 120.371 474.07 120.214 474.065 120.04C474.06 119.871 474.083 119.685 473.894 119.539C473.66 119.359 473.7 119.24 473.969 119.083C474.211 118.945 474.307 118.778 474.439 118.617C474.543 118.492 474.529 118.343 474.706 118.232C474.985 118.062 475.483 117.957 475.526 117.706C475.547 117.591 476.136 117.501 476.496 117.387C476.478 117.383 476.415 117.331 476.351 117.334C475.654 117.321 475.758 117.18 475.818 117.004C475.857 116.902 475.686 116.777 475.532 116.673C475.433 116.604 475.205 116.56 475.178 116.551C475.533 116.268 475.824 116.016 476.159 115.778C476.262 115.702 476.502 115.647 476.678 115.586C476.841 115.645 476.996 115.711 477.178 115.766C477.314 115.807 477.506 115.867 477.634 115.858C477.882 115.841 478.095 115.781 478.233 115.756C478.034 115.638 477.853 115.538 477.7 115.43C477.7 115.426 478.032 115.332 478.105 115.347C478.315 115.39 478.469 115.469 478.705 115.559C478.788 115.545 478.963 115.525 479.093 115.483C479.878 115.233 480.673 114.988 481.422 114.725C481.533 114.682 481.5 114.549 481.41 114.48C481.293 114.39 481.038 114.325 480.747 114.209C481.602 114.122 481.982 113.956 481.769 113.664C481.513 113.648 481.284 113.637 481.064 113.627C481.055 113.606 481.037 113.585 481.029 113.564C481.416 113.464 481.797 113.276 482.201 113.276C482.916 113.272 483.369 113.128 483.876 113.019C484.199 112.95 484.396 112.778 484.537 112.637C484.574 112.597 484.228 112.5 484.037 112.432C483.837 112.36 483.646 112.28 483.409 112.232C483.181 112.184 482.889 112.143 482.659 112.156C481.823 112.202 481.229 112.127 481.089 111.829C480.95 111.528 480.447 111.476 479.834 111.421C479.651 111.403 479.468 111.385 479.285 111.363C478.334 111.232 477.876 110.822 478.214 110.493C478.327 110.389 478.277 110.189 478.077 110.121C477.677 109.981 477.147 109.862 476.626 109.81C475.263 109.666 473.927 109.52 472.854 109.145C472.336 108.961 472.364 108.949 472.881 108.791C473.907 108.482 475.376 108.405 476.058 107.904C476.45 107.618 477.207 107.4 477.5 107.078C477.603 106.969 477.707 106.848 477.682 106.736C477.683 106.699 477.253 106.67 476.951 106.628C477.21 106.54 477.441 106.46 477.774 106.346C477.509 106.338 477.426 106.336 477.353 106.334C477.188 106.321 477.032 106.308 476.877 106.295C476.969 106.256 477.071 106.214 477.164 106.171C477.229 106.14 477.322 106.105 477.341 106.069C477.408 105.938 477.476 105.808 477.488 105.676C477.49 105.61 477.409 105.525 477.282 105.48C476.918 105.358 476.536 105.239 476.116 105.14C475.833 105.074 475.504 105.027 475.737 104.885C475.951 104.759 476.202 104.642 476.741 104.708C476.942 104.73 477.337 104.729 477.365 104.697C477.45 104.609 477.489 104.49 477.372 104.404C477.273 104.326 476.981 104.272 476.753 104.22C476.297 104.112 475.655 104.122 475.441 103.868C475.343 103.753 475.149 103.801 474.927 103.894C474.686 103.994 474.225 104.059 473.849 104.061C473.657 104.059 473.377 103.89 473.269 103.779C473.153 103.66 473.184 103.525 473.159 103.396C473.071 102.901 473.621 102.533 474.709 102.263C474.866 102.226 475.043 102.124 475.008 102.073C474.776 101.79 474.993 101.535 475.183 101.276C475.496 100.847 475.699 100.783 476.902 100.752C477.315 100.744 477.399 100.68 477.246 100.543C477.183 100.488 477.194 100.418 477.16 100.334C477.955 100.456 478.342 100.36 478.367 100.084C478.38 99.9355 478.457 99.7807 478.387 99.634C478.231 99.2863 478.386 98.9312 477.917 98.5909C477.764 98.483 477.779 98.2561 477.973 98.1998C478.601 98.0073 478.92 97.7232 478.644 97.372C478.34 97.4251 478.045 97.4785 477.751 97.5319C477.732 97.5231 477.724 97.5145 477.705 97.5057C477.891 97.4161 478.086 97.3267 478.272 97.2329C477.852 97.1545 477.459 97.0934 477.112 97.0047C476.985 96.972 476.987 96.877 476.934 96.8093C477.117 96.794 477.348 96.7429 477.476 96.7673C478.261 96.9184 478.723 96.7666 479.158 96.6057C479.022 96.548 478.831 96.5011 478.832 96.4597C478.847 96.2122 478.425 96.2122 477.921 96.1975C477.747 96.1924 477.447 96.0802 477.448 96.0224C477.451 95.8902 477.537 95.7439 477.742 95.6424C478.206 95.4162 478.779 95.2222 479.28 95.0095C479.511 94.9129 479.661 94.7933 479.865 94.6876C480.209 94.5117 480.562 94.336 480.915 94.1603C481.091 94.0745 481.285 93.9933 481.527 93.8888C481.224 93.8675 481.032 93.8578 480.849 93.8442C480.933 93.7598 481.081 93.7311 481.228 93.6982C481.348 93.6727 481.532 93.6616 481.57 93.6255C481.729 93.4896 481.852 93.3485 481.983 93.2118C481.974 93.2115 481.873 93.2168 481.79 93.2351C480.371 93.4995 478.827 93.6279 477.23 93.6845C475.733 93.7399 474.238 93.7706 472.741 93.8301C469.868 93.9404 466.994 94.063 464.129 94.1817C463.625 94.2 463.268 94.1606 463.191 93.9393C463.165 93.86 462.993 93.7599 462.802 93.7171C461.917 93.5176 461.018 93.5243 460.124 93.6842C459.958 93.7124 459.737 93.7638 459.618 93.7438C458.824 93.6131 458.096 93.7488 457.343 93.7599C455.967 93.7734 454.592 93.7538 453.216 93.759C451.84 93.7642 450.473 93.7904 449.097 93.8038C446.959 93.8198 444.822 93.8317 442.685 93.8436C439.483 93.8657 436.281 93.8919 433.071 93.9054C430.833 93.9143 428.586 93.8982 426.348 93.9154C420.789 93.9511 415.229 93.9993 409.67 94.0433C407.377 94.063 405.083 94.0827 402.781 94.098C398.965 94.1186 395.158 94.1395 391.342 94.156C389.333 94.1634 387.316 94.1416 385.307 94.1655C382.756 94.19 380.214 94.2686 377.663 94.2849C372.591 94.3184 367.518 94.3271 362.455 94.3525C362.225 94.3541 361.959 94.3917 361.801 94.445C361.265 94.6401 360.602 94.7158 359.876 94.7731C358.81 94.8618 357.644 94.9104 356.75 95.1074C354.666 95.5673 352.366 95.4546 350.11 95.4423C348.295 95.4305 346.481 95.3361 344.666 95.2913C343.584 95.2596 342.503 95.2362 341.42 95.2335C340.366 95.2274 339.32 95.2506 338.265 95.261C338.118 95.2609 337.943 95.2764 337.834 95.2484C336.986 95.0417 336.131 95.1283 335.276 95.186C335.129 95.1941 334.965 95.1893 334.818 95.1767C334.415 95.1443 333.977 95.0488 333.637 95.0802C332.525 95.1758 331.447 95.0161 330.346 95.0004C328.127 94.9768 325.91 94.8789 323.683 94.822C321.712 94.7726 319.741 94.7356 317.77 94.6862C315.634 94.6361 313.508 94.578 311.372 94.5279C310.245 94.5031 309.116 94.5032 307.98 94.4741C306.22 94.4309 304.46 94.3835 302.71 94.3158C301.427 94.2658 300.145 94.1828 298.863 94.1081C298.451 94.0836 298.039 94.0261 297.636 94.0309C296.085 94.0434 294.552 94.0895 293.002 94.0937C289.021 94.1095 285.05 94.1132 281.069 94.1166C277.143 94.1175 273.218 94.1184 269.292 94.1192C269.405 94.0109 269.509 93.8982 269.612 93.7896C269.603 93.7893 269.502 93.7947 269.419 93.8129C268.691 93.9487 267.927 94.0462 267.146 94.1184C265.679 94.1168 264.22 94.1196 262.753 94.118C261.313 94.1214 259.872 94.1536 258.423 94.1567C257.313 94.1573 256.204 94.1083 255.103 94.1257C254.002 94.1431 252.869 93.9776 251.809 94.1699C251.745 94.1804 251.644 94.1774 251.562 94.175C250.92 94.1728 250.278 94.1747 249.636 94.1724C249.233 94.1358 248.829 94.1364 248.434 94.1703C248.058 94.1717 247.682 94.169 247.306 94.1704C245.114 94.1724 242.913 94.17 240.72 94.172C237.877 94.1756 235.034 94.1792 232.2 94.1831C228.256 94.1876 224.311 94.192 220.376 94.205C219.578 94.2065 218.798 94.2498 217.999 94.2636C217.486 94.2734 217.135 94.3582 216.857 94.4865C215.903 94.4875 214.949 94.4844 213.995 94.4937C208.436 94.5295 202.877 94.5776 197.317 94.6217C195.024 94.6414 192.73 94.6611 190.428 94.6764C186.612 94.697 182.805 94.7179 178.989 94.7344C176.98 94.7418 174.963 94.7199 172.954 94.7438C170.403 94.7684 167.861 94.847 165.311 94.8633C160.238 94.8967 155.165 94.9054 150.102 94.9309C149.873 94.9324 149.606 94.9701 149.449 95.0234C148.912 95.2185 148.25 95.2942 147.524 95.3515C146.457 95.4402 145.291 95.4887 144.397 95.6858C142.313 96.1457 140.014 96.0329 137.758 96.0207C135.942 96.0089 134.128 95.9144 132.313 95.8696C131.232 95.838 130.15 95.8146 129.068 95.8118C128.013 95.8058 126.967 95.8289 125.912 95.8394C125.765 95.8392 125.59 95.8548 125.481 95.8268C124.633 95.6201 123.778 95.7067 122.924 95.7644C122.777 95.7725 122.612 95.7676 122.456 95.7548C122.053 95.7223 121.615 95.6269 121.275 95.6582C120.163 95.7539 119.085 95.5942 117.985 95.5785C115.766 95.5549 113.548 95.457 111.321 95.4001C109.35 95.3507 107.379 95.3136 105.408 95.2642C103.273 95.2142 101.146 95.1561 99.0102 95.106C97.8827 95.0812 96.7545 95.0813 95.6179 95.0522C93.858 95.0089 92.0981 94.9616 90.3479 94.8938C89.0651 94.8439 87.7831 94.7609 86.5008 94.6862C86.0887 94.6617 85.6773 94.6042 85.2736 94.6089C83.7233 94.6215 82.1905 94.6676 80.6403 94.6718C76.6593 94.6876 72.6878 94.6913 68.7071 94.6947C62.6077 94.6981 56.4993 94.693 50.3998 94.7005C48.9598 94.7039 47.519 94.7361 46.0698 94.7392C44.96 94.7398 43.8513 94.6908 42.7503 94.7082C41.6492 94.7256 40.516 94.5601 39.4565 94.7524C39.3921 94.7629 39.2912 94.7599 39.2087 94.7575C37.7871 94.7573 36.3656 94.7529 34.9439 94.7526C32.7518 94.7546 30.5506 94.7522 28.3585 94.7542C25.5151 94.7578 22.6717 94.7614 19.8375 94.7653C15.8935 94.7698 11.9586 94.7745 8.01436 94.7873C7.21637 94.7887 6.43573 94.832 5.63744 94.8459C5.00432 94.8563 4.62532 94.9775 4.30907 95.1584C4.03934 95.3117 4.10049 95.4375 4.53872 95.5206C4.75788 95.5601 5.0611 95.5359 5.35439 95.5445C5.23897 95.7643 4.67747 95.8471 3.96801 95.9793C4.4153 96.0668 4.71689 96.1128 4.98128 96.1785C5.16358 96.2251 5.28102 96.2988 5.43552 96.3571C5.23328 96.376 5.04008 96.3993 4.83794 96.414C4.76442 96.4201 4.6913 96.4097 4.61798 96.4076C4.57175 96.4228 4.51628 96.4418 4.47005 96.457C4.70553 96.5796 4.9132 96.7139 5.19481 96.8254C5.56737 96.9686 6.03236 97.0815 5.84321 97.3157C5.72034 97.465 5.67069 97.6207 5.54782 97.77C5.50038 97.8348 5.39706 97.9351 5.27771 97.9399C5.03891 97.9536 4.76444 97.9249 4.52695 97.8848C4.33498 97.8586 4.1714 97.7959 3.99816 97.7536C3.95203 97.7647 3.90594 97.7757 3.85971 97.7909C4.13034 97.9766 3.78516 98.2145 4.45091 98.3704C4.72446 98.4363 4.63077 98.5162 4.30928 98.5358C3.81324 98.5667 3.82024 98.6579 4.06458 98.7932C4.29996 98.9199 4.517 99.0462 4.84252 99.2376C4.33843 99.2228 3.96265 99.2118 3.53188 99.1992C3.63562 99.4586 4.53424 99.4683 4.78513 99.7113C4.28708 99.8249 3.7982 99.9387 3.29098 100.052C3.41799 100.109 3.54487 100.171 3.77158 100.277C3.39299 100.382 3.02377 100.478 2.691 100.584C2.58001 100.622 2.48644 100.698 2.51273 100.749C2.5651 100.858 2.70015 100.961 2.83421 101.105C2.81588 101.105 2.93482 101.116 3.05367 101.132C3.41021 101.18 3.54406 101.333 3.26688 101.416C2.94338 101.518 2.60168 101.615 2.21472 101.686C1.33948 101.847 1.32111 101.846 1.98363 102.134C2.09251 102.183 2.22919 102.22 2.3288 102.273C2.41935 102.321 2.46379 102.38 2.52674 102.431C2.36116 102.451 2.19549 102.476 2.02095 102.487C1.66269 102.51 1.28662 102.511 0.937227 102.546C0.3304 102.607 0.527086 102.815 0.50503 102.968L0.504326 102.997Z" fill="#FCD214"/>
<path d="M394.903 162.15C394.904 162.1 394.67 162 394.522 161.986C394.19 161.953 393.851 161.96 393.519 161.939C393.377 161.93 393.147 161.88 393.136 161.834C393.11 161.742 393.167 161.624 393.265 161.553C393.331 161.51 393.552 161.502 393.682 161.524C394.095 161.594 394.305 161.535 394.469 161.261C394.308 161.267 394.171 161.274 394.034 161.281C394.006 161.243 393.978 161.204 393.995 161.222C393.995 161.217 393.995 161.217 393.995 161.222C393.674 161.205 393.401 161.215 393.177 161.161C393.076 161.137 393.082 160.976 393.016 160.824C393.192 160.868 393.239 160.887 393.281 160.888C393.447 160.886 393.637 160.902 393.757 160.865C393.817 160.847 393.798 160.697 393.735 160.633C393.655 160.543 393.491 160.479 393.363 160.403C393.229 160.324 393.095 160.24 392.967 160.157C392.816 160.056 392.695 159.927 392.508 159.853C392.027 159.661 391.947 159.559 392.189 159.266C392.3 159.134 392.309 159.039 392.057 158.935C391.67 158.775 391.662 158.663 391.972 158.464C392.093 158.386 392.256 158.326 392.371 158.248C392.438 158.205 392.494 158.137 392.484 158.083C392.418 157.758 392.298 157.435 392.273 157.111C392.265 156.987 392.465 156.862 392.601 156.71L391.828 156.718C391.848 156.479 391.399 156.238 391.998 156.087C391.622 155.788 391.655 155.702 390.865 155.866C390.898 155.743 390.896 155.644 390.952 155.563C391.214 155.197 391.249 154.855 390.719 154.533C390.416 154.348 390.174 154.136 389.883 153.942C389.819 153.899 389.678 153.868 389.571 153.864C389.025 153.843 388.862 153.75 388.949 153.452C388.989 153.321 388.908 153.26 388.702 153.206C388.607 153.182 388.516 153.083 388.523 153.026C388.555 152.804 388.759 152.572 388.199 152.422C388.325 152.39 388.367 152.371 388.421 152.364C388.528 152.352 388.635 152.352 388.737 152.331C388.875 152.307 389.03 152.289 389.138 152.239C389.428 152.114 389.384 152.005 389.042 151.913C388.942 151.884 388.807 151.838 388.791 151.787C388.655 151.41 388.323 151.033 388.704 150.651C388.729 150.627 388.718 150.594 388.719 150.561C388.727 150.346 388.845 150.168 389.235 150.076C389.546 150.001 389.847 149.909 390.231 149.804C389.985 149.675 389.77 149.547 389.53 149.434C389.261 149.312 389.258 149.213 389.559 149.104C389.679 149.059 389.859 149.025 389.902 148.96C389.984 148.831 389.983 148.682 390.024 148.523C389.953 148.503 389.818 148.473 389.747 148.454C389.663 148.306 389.589 148.192 389.511 148.06C389.762 148.008 389.932 147.911 389.765 147.727C389.748 147.706 389.774 147.665 389.798 147.641C389.972 147.412 389.865 147.243 389.478 147.096C389.249 147.012 389.123 146.863 389.324 146.722C389.519 146.58 389.649 146.432 389.773 146.272C389.928 146.079 390.396 145.957 390.381 145.679C390.961 145.573 390.863 145.301 390.848 145.056C390.84 144.923 390.92 144.852 391.136 144.798C391.477 144.716 391.485 144.65 391.18 144.539C390.957 144.461 390.9 144.388 390.947 144.241C390.98 144.131 390.871 144.006 390.806 143.834C391.175 143.642 390.566 143.552 390.458 143.387C390.515 143.282 390.519 143.178 390.546 143.076C390.586 142.933 390.592 142.772 390.715 142.648C390.832 142.529 390.87 142.456 390.677 142.353C390.601 142.313 390.55 142.253 390.516 142.198C390.409 142.029 390.208 141.984 389.881 141.983C388.443 141.99 387.005 141.98 385.573 141.979C384.937 141.979 384.295 141.987 383.658 142C382.879 142.016 382.105 142.056 381.333 142.059C380.56 142.063 379.783 142.025 379.01 142.02C378.47 142.015 377.934 142.044 377.393 142.048C375.728 142.071 374.063 142.102 372.398 142.116C369.123 142.147 365.848 142.166 362.572 142.193C362.275 142.194 361.983 142.228 361.691 142.233C360.306 142.25 358.927 142.259 357.542 142.268C357.262 142.269 356.978 142.229 356.699 142.223C356.504 142.215 356.296 142.207 356.11 142.242C355.035 142.407 353.982 142.614 352.823 142.607C351.261 142.596 349.703 142.623 348.14 142.629C347.301 142.634 346.464 142.627 345.626 142.623C345.014 142.62 344.402 142.613 343.79 142.61C342.251 142.605 340.706 142.599 339.167 142.59C338.002 142.582 336.838 142.583 335.679 142.563C333.316 142.517 330.953 142.426 328.594 142.414C325.57 142.401 322.543 142.445 319.518 142.465C318.323 142.473 317.128 142.485 315.933 142.488C313.419 142.495 310.906 142.481 308.397 142.512C305.579 142.544 302.771 142.622 299.952 142.663C298.359 142.688 296.761 142.668 295.162 142.689C293.306 142.713 291.451 142.761 289.595 142.793C288.596 142.808 287.592 142.799 286.593 142.818C285.267 142.841 283.94 142.894 282.608 142.913C281.217 142.933 279.821 142.917 278.43 142.934C277.865 142.941 277.304 142.998 276.738 143.034C276.453 143.052 276.172 143.091 275.887 143.088C275.34 143.083 274.795 143.033 274.248 143.033C272.715 143.036 271.181 143.043 269.647 143.067C269.071 143.073 268.504 143.134 267.932 143.17C267.855 143.175 267.771 143.185 267.694 143.182C266.781 143.13 265.878 143.095 264.956 143.134C263.147 143.209 261.328 143.23 259.514 143.268C258.176 143.295 256.838 143.305 255.5 143.328C253.229 143.365 250.951 143.401 248.68 143.442C247.716 143.458 246.759 143.475 245.795 143.496C244.891 143.515 243.993 143.542 243.089 143.561C242.513 143.551 241.937 143.529 241.361 143.524C240.82 143.519 240.284 143.548 239.743 143.556C238.079 143.579 236.413 143.61 234.749 143.624C231.473 143.655 228.198 143.674 224.923 143.701C224.625 143.702 224.333 143.736 224.042 143.741C222.656 143.758 221.277 143.767 219.892 143.776C219.613 143.777 219.329 143.738 219.05 143.731C218.854 143.723 218.646 143.715 218.461 143.75C217.386 143.915 216.333 144.123 215.174 144.115C213.611 144.105 212.053 144.131 210.49 144.137C209.652 144.142 208.814 144.135 207.976 144.131C207.364 144.129 206.752 144.122 206.14 144.119C204.601 144.113 203.056 144.107 201.517 144.098C200.353 144.09 199.188 144.091 198.03 144.071C195.666 144.025 193.304 143.934 190.945 143.922C187.92 143.909 184.894 143.954 181.868 143.973C180.673 143.981 179.478 143.993 178.284 143.997C175.77 144.003 173.256 143.989 170.747 144.021C167.929 144.053 165.121 144.131 162.303 144.171C160.709 144.196 159.111 144.176 157.512 144.197C155.657 144.221 153.801 144.269 151.946 144.301C150.947 144.316 149.943 144.307 148.944 144.326C147.618 144.349 146.291 144.402 144.965 144.421C143.573 144.442 142.177 144.425 140.786 144.442C140.221 144.449 139.661 144.506 139.095 144.542C138.809 144.56 138.528 144.599 138.243 144.596C137.697 144.592 137.151 144.542 136.605 144.541C135.071 144.544 133.538 144.551 132.004 144.575C131.427 144.586 130.86 144.643 130.289 144.678C130.211 144.684 130.128 144.693 130.051 144.69C129.137 144.638 128.235 144.603 127.312 144.642C125.503 144.717 123.684 144.738 121.87 144.776C120.532 144.803 119.194 144.813 117.856 144.836C115.585 144.873 113.308 144.909 111.036 144.95C110.073 144.967 109.115 144.983 108.152 145.004C106.79 145.034 105.422 145.077 104.06 145.103C103.055 145.122 102.05 145.117 101.045 145.136C100.207 145.149 99.3678 145.187 98.5293 145.204C97.1078 145.236 95.6807 145.26 94.2589 145.3C93.557 145.319 92.8589 145.403 92.1578 145.397C90.9992 145.39 89.8821 145.384 88.9854 145.891C88.7552 146.023 88.6576 146.098 88.8007 146.26C88.9494 146.431 89.0023 146.628 88.6663 146.722C88.3064 146.82 88.2893 146.977 88.2894 147.15C88.2896 147.32 88.2715 147.505 88.3914 147.65C88.5399 147.83 88.5121 147.949 88.3344 148.107C88.1753 148.246 88.1102 148.413 88.0216 148.575C87.952 148.7 87.9588 148.85 87.8422 148.961C87.6582 149.132 87.3336 149.239 87.3014 149.49C87.2856 149.605 86.9022 149.698 86.6665 149.813C86.6783 149.817 86.7181 149.869 86.7598 149.866C87.2112 149.875 87.141 150.017 87.0995 150.193C87.0722 150.296 87.181 150.42 87.2786 150.523C87.3416 150.591 87.4888 150.634 87.5063 150.643C87.2709 150.928 87.0781 151.181 86.8561 151.42C86.7882 151.496 86.6318 151.552 86.5168 151.614C86.4118 151.556 86.313 151.491 86.1959 151.436C86.1081 151.396 85.9853 151.337 85.9018 151.346C85.7407 151.365 85.602 151.426 85.512 151.451C85.6388 151.568 85.7543 151.667 85.8517 151.775C85.8516 151.779 85.6345 151.874 85.5874 151.86C85.4521 151.817 85.3537 151.739 85.2022 151.65C85.1482 151.665 85.0346 151.685 84.95 151.727C84.4363 151.981 83.9169 152.229 83.4265 152.496C83.3538 152.539 83.3731 152.672 83.4302 152.74C83.5044 152.83 83.6687 152.894 83.855 153.009C83.2993 153.099 83.0499 153.267 83.1828 153.557C83.3487 153.572 83.497 153.582 83.6393 153.592C83.6445 153.612 83.6557 153.634 83.6609 153.654C83.4079 153.756 83.1579 153.945 82.8963 153.948C82.4325 153.954 82.1364 154.1 81.8058 154.212C81.5954 154.282 81.4648 154.455 81.3709 154.596C81.3458 154.636 81.5684 154.732 81.691 154.798C81.8193 154.87 81.9415 154.949 82.0944 154.996C82.2414 155.043 82.4302 155.083 82.5793 155.068C83.1218 155.019 83.5056 155.092 83.5907 155.388C83.6757 155.69 84.0009 155.739 84.3973 155.792C84.5156 155.809 84.6339 155.826 84.752 155.847C85.3658 155.974 85.6552 156.382 85.4302 156.712C85.3553 156.817 85.3843 157.017 85.5128 157.084C85.7696 157.222 86.1104 157.338 86.4474 157.388C87.3283 157.526 88.1913 157.666 88.8801 158.036C89.2127 158.218 89.1945 158.23 88.8563 158.391C88.1861 158.704 87.2324 158.787 86.7816 159.291C86.5224 159.579 86.0276 159.799 85.8325 160.123C85.7635 160.232 85.694 160.353 85.7081 160.465C85.7068 160.503 85.9852 160.53 86.18 160.57C86.0106 160.659 85.8593 160.74 85.6415 160.856C85.8136 160.862 85.867 160.864 85.9145 160.866C86.021 160.879 86.1217 160.891 86.2223 160.903C86.1615 160.942 86.0947 160.985 86.0338 161.028C85.9912 161.059 85.9306 161.094 85.9175 161.131C85.8715 161.261 85.8255 161.392 85.8151 161.524C85.8129 161.59 85.8635 161.675 85.9452 161.719C86.1789 161.84 86.4246 161.957 86.6947 162.054C86.8767 162.119 87.0891 162.164 86.9358 162.307C86.7948 162.434 86.6304 162.552 86.2819 162.489C86.1518 162.467 85.8962 162.47 85.8773 162.502C85.8208 162.591 85.7931 162.71 85.8674 162.795C85.9302 162.872 86.1186 162.925 86.2655 162.976C86.5591 163.083 86.9755 163.07 87.1096 163.323C87.1712 163.437 87.2976 163.388 87.4434 163.294C87.6013 163.193 87.9007 163.126 88.1445 163.123C88.2693 163.124 88.4478 163.292 88.5155 163.402C88.5887 163.521 88.5663 163.656 88.5798 163.785C88.6286 164.279 88.2655 164.649 87.555 164.924C87.4527 164.961 87.3363 165.064 87.3584 165.115C87.5034 165.397 87.3581 165.652 87.2306 165.912C87.02 166.342 86.887 166.408 86.1073 166.444C85.8395 166.454 85.7839 166.518 85.8803 166.654C85.9201 166.709 85.9118 166.779 85.9327 166.863C85.4197 166.744 85.1668 166.842 85.1456 167.118C85.1347 167.266 85.0819 167.421 85.1245 167.568C85.2198 167.915 85.1128 168.27 85.4105 168.608C85.5079 168.716 85.4943 168.942 85.3676 169C84.9569 169.195 84.7452 169.48 84.9177 169.83C85.1157 169.776 85.3077 169.721 85.4997 169.666C85.5113 169.675 85.5169 169.684 85.5285 169.692C85.4066 169.783 85.2788 169.873 85.1568 169.967C85.4276 170.044 85.6811 170.103 85.904 170.191C85.9861 170.223 85.9829 170.318 86.0163 170.385C85.8969 170.401 85.7466 170.453 85.6642 170.429C85.1581 170.282 84.8558 170.435 84.571 170.598C84.6582 170.655 84.7814 170.701 84.7801 170.743C84.7658 170.99 85.0392 170.988 85.3657 171.001C85.4784 171.005 85.6708 171.116 85.6689 171.174C85.6644 171.306 85.606 171.453 85.4718 171.555C85.167 171.783 84.7919 171.98 84.4638 172.194C84.3119 172.292 84.2128 172.412 84.0785 172.519C83.8526 172.696 83.6208 172.873 83.389 173.05C83.2732 173.137 83.1457 173.219 82.9876 173.324C83.183 173.344 83.3075 173.353 83.426 173.366C83.3696 173.451 83.2736 173.48 83.1773 173.514C83.0992 173.54 82.98 173.551 82.955 173.588C82.8493 173.724 82.7673 173.866 82.6795 174.003C82.6854 174.003 82.751 173.998 82.8051 173.979C83.7294 173.709 84.7324 173.573 85.7686 173.51C86.7394 173.448 87.7094 173.411 88.6803 173.345C90.5446 173.223 92.4093 173.088 94.2679 172.957C94.5955 172.936 94.826 172.974 94.872 173.195C94.8872 173.274 94.9968 173.373 95.1202 173.415C95.6901 173.611 96.2729 173.6 96.8548 173.437C96.9628 173.408 97.1072 173.355 97.1838 173.375C97.6965 173.502 98.1707 173.363 98.6585 173.349C99.5506 173.33 100.442 173.343 101.333 173.332C102.225 173.321 103.112 173.289 104.004 173.27C105.39 173.244 106.775 173.223 108.16 173.202C110.236 173.166 112.311 173.127 114.392 173.099C115.843 173.081 117.299 173.087 118.75 173.06C122.353 173.001 125.957 172.929 129.561 172.861C131.048 172.831 132.534 172.801 134.027 172.776C136.5 172.739 138.968 172.702 141.441 172.669C142.743 172.653 144.051 172.666 145.353 172.634C147.006 172.598 148.656 172.509 150.309 172.481C153.597 172.426 156.885 172.396 160.167 172.348C160.315 172.346 160.489 172.307 160.592 172.253C160.943 172.056 161.374 171.977 161.845 171.917C162.538 171.824 163.294 171.77 163.878 171.569C165.237 171.1 166.725 171.203 168.187 171.206C169.363 171.21 170.537 171.296 171.713 171.333C172.413 171.36 173.114 171.379 173.815 171.377C174.498 171.379 175.177 171.351 175.861 171.336C175.956 171.336 176.069 171.319 176.14 171.347C176.686 171.55 177.241 171.459 177.796 171.398C177.891 171.389 177.998 171.394 178.093 171.405C178.353 171.436 178.636 171.53 178.857 171.497C179.579 171.397 180.275 171.552 180.988 171.562C182.426 171.576 183.861 171.665 185.303 171.712C186.58 171.753 187.857 171.782 189.133 171.822C190.516 171.863 191.893 171.912 193.277 171.953C194.007 171.973 194.738 171.968 195.474 171.992C196.614 172.028 197.754 172.068 198.887 172.128C199.718 172.172 200.547 172.25 201.377 172.319C201.643 172.342 201.909 172.397 202.171 172.391C203.176 172.372 204.17 172.319 205.175 172.308C207.755 172.275 210.329 172.254 212.909 172.234C215.453 172.216 217.997 172.198 220.542 172.181C220.467 172.289 220.398 172.402 220.328 172.511C220.334 172.512 220.4 172.506 220.454 172.487C220.928 172.348 221.425 172.248 221.933 172.172C222.884 172.167 223.829 172.158 224.78 172.154C225.713 172.144 226.648 172.106 227.587 172.096C228.306 172.091 229.024 172.135 229.738 172.113C230.452 172.091 231.183 172.251 231.873 172.055C231.915 172.044 231.981 172.046 232.034 172.048C232.45 172.048 232.866 172.043 233.282 172.043C233.543 172.078 233.804 172.075 234.061 172.04C234.305 172.037 234.548 172.038 234.792 172.035C236.213 172.023 237.639 172.016 239.06 172.005C240.903 171.989 242.746 171.973 244.583 171.957C247.139 171.936 249.695 171.914 252.246 171.884C252.763 171.879 253.27 171.833 253.787 171.815C254.121 171.803 254.349 171.717 254.532 171.588C255.15 171.583 255.768 171.582 256.387 171.568C259.99 171.509 263.594 171.436 267.198 171.369C268.685 171.339 270.171 171.309 271.664 171.284C274.138 171.247 276.605 171.21 279.079 171.177C280.381 171.161 281.688 171.174 282.99 171.142C284.644 171.106 286.293 171.017 287.946 170.989C291.234 170.934 294.522 170.903 297.804 170.856C297.953 170.854 298.126 170.815 298.229 170.761C298.58 170.564 299.011 170.485 299.482 170.425C300.175 170.331 300.932 170.278 301.515 170.077C302.874 169.608 304.362 169.711 305.824 169.714C307 169.718 308.174 169.804 309.35 169.841C310.05 169.868 310.751 169.887 311.452 169.885C312.135 169.887 312.814 169.859 313.498 169.844C313.593 169.843 313.706 169.827 313.777 169.855C314.323 170.058 314.878 169.967 315.433 169.906C315.529 169.897 315.635 169.901 315.736 169.914C315.996 169.944 316.279 170.038 316.5 170.005C317.222 169.905 317.918 170.06 318.631 170.071C320.069 170.085 321.504 170.173 322.946 170.22C324.223 170.261 325.5 170.29 326.776 170.331C328.159 170.372 329.536 170.42 330.92 170.461C331.65 170.481 332.381 170.476 333.117 170.5C334.257 170.536 335.397 170.576 336.53 170.636C337.361 170.68 338.19 170.758 339.02 170.827C339.286 170.85 339.552 170.906 339.814 170.899C340.819 170.88 341.813 170.827 342.818 170.816C345.398 170.783 347.972 170.763 350.552 170.742C354.505 170.712 358.464 170.691 362.417 170.657C363.351 170.648 364.285 170.609 365.224 170.6C365.943 170.595 366.661 170.639 367.375 170.617C368.089 170.595 368.82 170.755 369.511 170.558C369.553 170.548 369.618 170.55 369.671 170.552C370.593 170.546 371.514 170.545 372.435 170.539C373.856 170.527 375.282 170.52 376.703 170.509C378.546 170.493 380.389 170.477 382.226 170.461C384.782 170.44 387.332 170.418 389.889 170.388C390.406 170.383 390.913 170.337 391.431 170.319C391.841 170.306 392.089 170.184 392.297 170.001C392.475 169.847 392.437 169.721 392.155 169.64C392.013 169.602 391.816 169.627 391.626 169.62C391.705 169.4 392.071 169.314 392.533 169.179C392.244 169.094 392.05 169.049 391.88 168.985C391.762 168.939 391.687 168.866 391.588 168.808C391.72 168.788 391.845 168.764 391.977 168.748C392.024 168.742 392.072 168.752 392.119 168.754C392.149 168.739 392.186 168.719 392.216 168.704C392.065 168.582 391.933 168.449 391.753 168.339C391.514 168.197 391.214 168.086 391.341 167.851C391.423 167.702 391.458 167.546 391.541 167.396C391.573 167.331 391.641 167.23 391.719 167.225C391.874 167.21 392.051 167.238 392.204 167.277C392.328 167.302 392.433 167.364 392.545 167.406C392.575 167.395 392.605 167.383 392.635 167.368C392.463 167.183 392.691 166.944 392.262 166.791C392.086 166.726 392.148 166.646 392.357 166.625C392.679 166.592 392.676 166.501 392.52 166.367C392.37 166.241 392.232 166.116 392.024 165.926C392.35 165.939 392.594 165.948 392.873 165.959C392.81 165.7 392.228 165.694 392.07 165.452C392.394 165.337 392.713 165.221 393.044 165.105C392.963 165.048 392.882 164.987 392.737 164.882C392.984 164.776 393.225 164.678 393.442 164.571C393.515 164.532 393.577 164.456 393.561 164.406C393.529 164.297 393.443 164.194 393.359 164.05C393.371 164.051 393.294 164.04 393.217 164.024C392.987 163.978 392.903 163.826 393.084 163.742C393.295 163.639 393.519 163.54 393.771 163.467C394.341 163.303 394.353 163.303 393.928 163.018C393.859 162.97 393.771 162.933 393.707 162.881C393.649 162.833 393.622 162.774 393.582 162.723C393.689 162.703 393.797 162.678 393.911 162.666C394.143 162.642 394.387 162.639 394.614 162.602C395.008 162.538 394.885 162.331 394.902 162.179L394.903 162.15Z" fill="#FCD214"/>
<path d="M49.1079 111.883H38.8424L38.4724 93.618L34.3107 111.883H25.2936L21.1319 93.618L20.762 111.883H10.4964L12.3461 79.9768H25.7561L29.7791 97.3173L33.8483 79.9768H47.2583L49.1079 111.883ZM85.8481 95.9763C85.8481 106.381 78.4495 112.438 68.5076 112.438C58.5657 112.438 51.1671 106.381 51.1671 95.9763C51.1671 85.572 58.5657 79.4681 68.5076 79.4681C78.4495 79.4681 85.8481 85.572 85.8481 95.9763ZM75.3051 95.7451C75.3051 91.3521 72.6694 88.3002 68.5076 88.3002C64.3459 88.3002 61.6639 91.3521 61.6639 95.7451C61.6639 100.138 64.3459 103.19 68.5076 103.19C72.6694 103.19 75.3051 100.138 75.3051 95.7451ZM112.439 101.387C112.439 104.716 110.82 107.722 108.277 109.71C105.734 111.652 102.543 112.438 98.8438 112.438C95.1445 112.438 90.8903 111.421 86.5436 108.184L91.1677 100.323C94.1271 102.82 98.2889 103.791 99.6761 103.791C101.063 103.791 102.034 103.375 102.034 102.45C102.034 101.525 100.878 101.155 99.7223 100.785C98.5663 100.462 96.023 99.6293 95.0982 99.3057C90.659 97.5485 87.7921 95.4676 87.7921 90.1499C87.7921 86.6818 89.5955 83.9998 91.4914 82.4276C93.4335 80.8091 96.6242 79.6531 100.878 79.6531C105.133 79.6531 109.479 81.179 112.254 83.4911L108.277 90.8897C105.872 88.7626 102.358 87.8378 100.693 87.8378C99.0287 87.8378 98.1039 88.1615 98.1039 89.1326C98.1039 90.0574 99.5836 90.3811 100.323 90.6123C101.063 90.8435 103.005 91.3984 104.115 91.7683C108.924 93.3868 112.439 95.7913 112.439 101.387ZM138.163 88.1152H130.626V111.883H120.175V88.1152H112.684V79.9768H138.163V88.1152ZM172.155 111.883H149.034V79.9768H171.693V88.2077H159.439V91.6758H170.999V99.8605H159.439V103.56H172.155V111.883ZM207.071 79.9768L195.048 111.883H184.875L172.852 79.9768H183.95L189.962 98.4733L195.973 79.9768H207.071ZM231.797 111.883H208.677V79.9768H231.335V88.2077H219.081V91.6758H230.641V99.8605H219.081V103.56H231.797V111.883ZM264.17 111.883H252.147L247.061 101.248H245.72V111.883H235.269V79.9768H249.142C253.072 79.9768 256.078 80.6704 258.39 82.2888C260.702 83.9073 262.32 86.6818 262.32 90.1499C262.32 96.6237 258.39 98.9357 257.003 99.7681L264.17 111.883ZM251.777 90.6123C251.777 89.225 251.084 88.7626 250.621 88.4389C250.159 88.069 249.465 87.8378 248.309 87.8378H245.673V93.3868H248.309C250.113 93.3868 251.777 92.6931 251.777 90.6123ZM293.302 79.9768L282.204 99.3981V111.883H271.754V99.3981L260.702 79.9768H272.262L276.979 90.751L281.742 79.9768H293.302ZM324.517 95.93C324.517 107.398 317.072 111.883 306.483 111.883H294.46V79.9768H306.483C317.072 79.9768 324.517 84.4622 324.517 95.93ZM313.974 95.93C313.974 91.3059 312.124 88.5314 307.269 88.5314H304.864V103.097H307.269C311.939 103.097 313.974 100.462 313.974 95.93ZM360.804 95.9763C360.804 106.381 353.405 112.438 343.463 112.438C333.521 112.438 326.123 106.381 326.123 95.9763C326.123 85.572 333.521 79.4681 343.463 79.4681C353.405 79.4681 360.804 85.572 360.804 95.9763ZM350.261 95.7451C350.261 91.3521 347.625 88.3002 343.463 88.3002C339.301 88.3002 336.619 91.3521 336.619 95.7451C336.619 100.138 339.301 103.19 343.463 103.19C347.625 103.19 350.261 100.138 350.261 95.7451ZM385.082 111.883H363.811V79.9768H374.215V103.329H385.082V111.883ZM408.875 111.883H387.604V79.9768H398.008V103.329H408.875V111.883ZM442.378 111.883H431.049L429.8 107.398H420.691L419.488 111.883H408.622L419.72 79.9768H431.28L442.378 111.883ZM427.627 99.3981L425.269 90.8435L422.91 99.3981H427.627ZM472.895 111.883H460.873L455.786 101.248H454.445V111.883H443.995V79.9768H457.867C461.798 79.9768 464.803 80.6704 467.115 82.2888C469.427 83.9073 471.046 86.6818 471.046 90.1499C471.046 96.6237 467.115 98.9357 465.728 99.7681L472.895 111.883ZM460.503 90.6123C460.503 89.225 459.809 88.7626 459.347 88.4389C458.884 88.069 458.191 87.8378 457.035 87.8378H454.399V93.3868H457.035C458.838 93.3868 460.503 92.6931 460.503 90.6123ZM130.094 148.635C130.094 155.617 124.267 157.883 118.21 157.883H102.488V125.977H115.667C118.441 125.977 121.447 126.208 123.759 127.133C126.071 128.058 128.475 130.37 128.475 134.069C128.475 137.768 126.071 140.312 123.99 141.144C127.689 142.161 130.094 144.936 130.094 148.635ZM118.21 135.826C118.21 133.792 116.591 133.514 114.973 133.514H112.892V138.138H114.973C116.545 138.138 118.21 137.768 118.21 135.826ZM119.597 147.618C119.597 145.583 118.117 145.074 116.36 145.074H112.892V150.161H116.36C118.025 150.161 119.597 149.56 119.597 147.618ZM161.684 144.242C161.684 149.329 160.528 152.334 158.216 154.646C155.904 156.958 152.204 158.392 147.118 158.392C142.031 158.392 138.332 156.958 136.02 154.646C133.708 152.334 132.552 149.329 132.552 144.242V125.977H143.049V144.705C143.049 147.433 144.158 149.329 147.118 149.329C150.077 149.329 151.141 147.433 151.141 144.705V125.977H161.684V144.242ZM195.89 141.93C195.89 153.398 188.445 157.883 177.856 157.883H165.833V125.977H177.856C188.445 125.977 195.89 130.462 195.89 141.93ZM185.347 141.93C185.347 137.306 183.497 134.531 178.642 134.531H176.237V149.097H178.642C183.312 149.097 185.347 146.462 185.347 141.93ZM229.171 152.566C226.628 154.878 222.928 158.392 214.374 158.392C205.819 158.392 197.496 153.259 197.496 141.93C197.496 130.601 205.819 125.514 214.605 125.514C223.391 125.514 227.09 130.138 228.015 131.063L221.079 136.843C220.385 136.15 218.304 134.069 214.605 134.069C210.906 134.069 207.993 136.843 207.993 141.93C207.993 147.017 210.906 149.791 214.605 149.791C218.304 149.791 218.998 148.635 218.998 148.635V146.323H214.143V138.601H229.171V152.566ZM255.776 157.883H232.655V125.977H255.314V134.208H243.06V137.676H254.62V145.861H243.06V149.56H255.776V157.883ZM282.415 134.115H274.877V157.883H264.427V134.115H256.936V125.977H282.415V134.115ZM307.606 157.883H284.485V125.977H307.144V134.208H294.89V137.676H306.45V145.861H294.89V149.56H307.606V157.883ZM339.979 157.883H327.956L322.869 147.248H321.528V157.883H311.078V125.977H324.95C328.881 125.977 331.886 126.67 334.198 128.289C336.511 129.907 338.129 132.682 338.129 136.15C338.129 142.624 334.198 144.936 332.811 145.768L339.979 157.883ZM327.586 136.612C327.586 135.225 326.892 134.763 326.43 134.439C325.968 134.069 325.274 133.838 324.118 133.838H321.482V139.387H324.118C325.921 139.387 327.586 138.693 327.586 136.612ZM364.73 147.387C364.73 150.716 363.112 153.722 360.569 155.71C358.025 157.652 354.835 158.438 351.135 158.438C347.436 158.438 343.182 157.421 338.835 154.184L343.459 146.323C346.419 148.82 350.581 149.791 351.968 149.791C353.355 149.791 354.326 149.375 354.326 148.45C354.326 147.525 353.17 147.155 352.014 146.785C350.858 146.462 348.315 145.629 347.39 145.306C342.951 143.548 340.084 141.468 340.084 136.15C340.084 132.682 341.887 130 343.783 128.428C345.725 126.809 348.916 125.653 353.17 125.653C357.424 125.653 361.771 127.179 364.545 129.491L360.569 136.89C358.164 134.763 354.65 133.838 352.985 133.838C351.32 133.838 350.396 134.161 350.396 135.133C350.396 136.057 351.875 136.381 352.615 136.612C353.355 136.843 355.297 137.398 356.407 137.768C361.216 139.387 364.73 141.791 364.73 147.387ZM378.71 138.832C378.71 142.069 376.398 143.826 373.068 143.826C369.693 143.826 367.381 142.069 367.381 138.832C367.381 135.595 369.693 133.792 373.068 133.792C376.398 133.792 378.71 135.595 378.71 138.832ZM378.71 153.398C378.71 156.635 376.398 158.392 373.068 158.392C369.693 158.392 367.381 156.635 367.381 153.398C367.381 150.161 369.693 148.358 373.068 148.358C376.398 148.358 378.71 150.161 378.71 153.398Z" fill="#003561"/>
<path d="M117.569 28.8972H111.951V4.96732H117.569V28.8972ZM137.34 28.8972H131.791V19.9842C131.791 17.7299 131.444 16.0306 129.156 16.0306C126.763 16.0306 126.104 17.9727 126.104 20.435V28.8972H120.555V11.7995H126.104L126.069 14.2618H126.138C127.075 12.7359 128.635 11.4873 131.098 11.4873C136.057 11.4873 137.34 14.678 137.34 18.805V28.8972ZM155.866 16.0306H152.086V22.1691C152.086 23.6604 152.19 24.7008 153.889 24.7008C154.756 24.7008 155.554 24.3887 155.554 24.3887L155.831 28.7238C155.415 28.8279 153.889 29.2787 151.878 29.2787C147.439 29.2787 146.502 26.5736 146.502 22.6546V16.0306H144.075V11.8342H146.502V7.1869H152.086V11.8342H155.866V16.0306ZM173.983 28.8972H168.4V19.9148C168.4 17.834 168.122 16.0306 165.799 16.0306C163.475 16.0306 162.747 17.9727 162.747 20.5044V28.8972H157.198V4.96732H162.747V10.655C162.747 12.3891 162.712 14.2618 162.712 14.2618C163.579 12.7359 165.209 11.4873 167.741 11.4873C172.7 11.4873 173.983 14.6433 173.983 18.805V28.8972ZM193.227 19.8455C193.227 20.6778 193.157 21.6836 193.157 21.6836H180.984C181.227 24.1459 183.1 25.2557 185.354 25.2557C187.574 25.2557 189.516 24.2846 190.487 23.6257L192.672 26.5042C192.117 26.9204 189.863 29.2787 184.557 29.2787C179.285 29.2787 175.435 26.0187 175.435 20.3657C175.435 14.7127 179.597 11.4873 184.661 11.4873C189.724 11.4873 193.227 14.8514 193.227 19.8455ZM188.059 18.5276C188.025 16.9669 186.88 15.0942 184.557 15.0942C182.268 15.0942 181.088 16.8976 181.019 18.5276H188.059ZM218.228 6.94414C218.228 8.67819 216.945 9.82266 215.072 9.82266C213.199 9.82266 211.916 8.67819 211.916 6.94414C211.916 5.24477 213.199 4.06561 215.072 4.06561C216.945 4.06561 218.228 5.24477 218.228 6.94414ZM217.846 28.8972H212.297V11.7995H217.846V28.8972ZM210.875 8.81691C210.216 8.60882 209.557 8.50478 208.899 8.50478C207.06 8.50478 206.852 9.85734 206.852 11.1405V11.8342H210.529V16.0306H206.852V28.8972H201.269V16.0306H199.084V11.8342H201.269V10.8978C201.269 6.73605 203.246 4.51647 207.511 4.51647C209.419 4.51647 211.153 4.96732 211.153 4.96732L210.875 8.81691ZM232.115 11.7995L231.803 16.8976H231.56C231.248 16.7242 230.519 16.4814 229.548 16.4814C226.809 16.4814 226.115 19.0478 226.115 21.3021V28.8972H220.566V11.7995H226.115L226.08 14.2271H226.15C227.121 12.3544 228.543 11.4873 230.381 11.4873C231.525 11.4873 232.115 11.7995 232.115 11.7995ZM245.469 23.6257C245.469 27.7181 241.759 29.2787 238.221 29.2787C235.655 29.2787 232.95 28.481 231.007 26.643L233.088 23.3483C234.476 24.5274 236.764 25.4291 238.152 25.4291C239.539 25.4291 240.51 25.0823 240.51 23.9725C240.51 22.8627 238.013 22.3078 237.389 22.0997C234.545 21.3714 232.048 20.3657 232.048 16.8282C232.048 13.4988 234.961 11.4527 238.533 11.4527C242.105 11.4527 244.117 12.7705 245.088 13.5682L243.284 16.8282C242.313 16.0652 240.371 15.1635 238.984 15.1635C237.666 15.1635 236.938 15.5103 236.938 16.4121C236.938 17.3138 238.256 17.7299 239.435 18.0767C242.383 18.9438 245.469 19.8455 245.469 23.6257ZM257.232 16.0306H253.452V22.1691C253.452 23.6604 253.556 24.7008 255.255 24.7008C256.122 24.7008 256.92 24.3887 256.92 24.3887L257.198 28.7238C256.781 28.8279 255.255 29.2787 253.244 29.2787C248.805 29.2787 247.868 26.5736 247.868 22.6546V16.0306H245.441V11.8342H247.868V7.1869H253.452V11.8342H257.232V16.0306ZM291 28.8972H285.416V19.6027C285.416 17.7646 285.069 16.0306 283.162 16.0306C281.22 16.0306 280.387 17.7646 280.387 20.1229V28.8972H274.839V19.6027C274.839 17.4872 274.353 16.0306 272.55 16.0306C270.607 16.0306 269.775 17.7646 269.775 20.1229V28.8972H264.226V11.7995H269.775L269.74 14.2618L269.81 14.2271C270.677 12.8052 272.341 11.4873 274.526 11.4873C276.885 11.4873 278.757 12.285 279.624 14.6086C280.838 12.5278 282.538 11.4873 285.069 11.4873C289.439 11.4873 291 14.4699 291 18.597V28.8972ZM311.462 20.4004C311.462 25.9146 307.405 29.2787 301.995 29.2787C296.584 29.2787 292.492 25.9146 292.492 20.4004C292.492 14.8861 296.584 11.4873 301.995 11.4873C307.405 11.4873 311.462 14.8861 311.462 20.4004ZM305.879 20.2963C305.879 17.7646 304.422 15.8572 301.995 15.8572C299.532 15.8572 298.11 17.7646 298.11 20.2963C298.11 22.828 299.532 24.7355 301.995 24.7355C304.422 24.7355 305.879 22.828 305.879 20.2963ZM329.902 28.8972H324.354V19.9842C324.354 17.7299 324.007 16.0306 321.718 16.0306C319.325 16.0306 318.666 17.9727 318.666 20.435V28.8972H313.117V11.7995H318.666L318.631 14.2618H318.701C319.637 12.7359 321.198 11.4873 323.66 11.4873C328.619 11.4873 329.902 14.678 329.902 18.805V28.8972ZM342.627 16.0306H338.847V22.1691C338.847 23.6604 338.951 24.7008 340.651 24.7008C341.518 24.7008 342.315 24.3887 342.315 24.3887L342.593 28.7238C342.177 28.8279 340.651 29.2787 338.639 29.2787C334.2 29.2787 333.264 26.5736 333.264 22.6546V16.0306H330.836V11.8342H333.264V7.1869H338.847V11.8342H342.627V16.0306ZM360.745 28.8972H355.161V19.9148C355.161 17.834 354.884 16.0306 352.56 16.0306C350.236 16.0306 349.508 17.9727 349.508 20.5044V28.8972H343.959V4.96732H349.508V10.655C349.508 12.3891 349.473 14.2618 349.473 14.2618C350.34 12.7359 351.97 11.4873 354.502 11.4873C359.462 11.4873 360.745 14.6433 360.745 18.805V28.8972ZM131.821 55.4004C131.821 60.9146 127.763 64.2787 122.353 64.2787C116.943 64.2787 112.85 60.9146 112.85 55.4004C112.85 49.8861 116.943 46.4873 122.353 46.4873C127.763 46.4873 131.821 49.8861 131.821 55.4004ZM126.237 55.2963C126.237 52.7646 124.781 50.8572 122.353 50.8572C119.891 50.8572 118.469 52.7646 118.469 55.2963C118.469 57.828 119.891 59.7355 122.353 59.7355C124.781 59.7355 126.237 57.828 126.237 55.2963ZM144.157 39.9673L143.88 43.8169C143.88 43.8169 142.805 43.5048 141.833 43.5048C140.203 43.5048 139.787 44.4412 139.787 45.7244V46.8342H143.463V51.0306H139.787V63.8972H134.204V51.0306H132.019V46.8342H134.204V45.8978C134.204 41.8054 136.146 39.5165 140.377 39.5165C142.562 39.5165 144.157 39.9673 144.157 39.9673ZM165.884 63.8972H160.543L160.509 61.9551C159.78 62.9955 157.977 64.2787 155.515 64.2787C150.798 64.2787 149.376 61.4002 149.376 57.1344V46.7995H154.925V56.3714C154.925 58.3483 155.48 59.7008 157.457 59.7008C159.434 59.7008 160.335 58.1402 160.335 55.8859V46.7995H165.884V63.8972ZM181.564 58.6257C181.564 62.7181 177.853 64.2787 174.315 64.2787C171.749 64.2787 169.044 63.481 167.102 61.643L169.182 58.3483C170.57 59.5274 172.859 60.4291 174.246 60.4291C175.633 60.4291 176.604 60.0823 176.604 58.9725C176.604 57.8627 174.107 57.3078 173.483 57.0997C170.639 56.3714 168.142 55.3657 168.142 51.8282C168.142 48.4988 171.055 46.4527 174.627 46.4527C178.199 46.4527 180.211 47.7705 181.182 48.5682L179.379 51.8282C178.408 51.0652 176.465 50.1635 175.078 50.1635C173.76 50.1635 173.032 50.5103 173.032 51.4121C173.032 52.3138 174.35 52.7299 175.529 53.0767C178.477 53.9438 181.564 54.8455 181.564 58.6257ZM189.13 41.9441C189.13 43.6782 187.847 44.8227 185.974 44.8227C184.101 44.8227 182.818 43.6782 182.818 41.9441C182.818 40.2448 184.101 39.0656 185.974 39.0656C187.847 39.0656 189.13 40.2448 189.13 41.9441ZM188.748 63.8972H183.199V46.7995H188.748V63.8972ZM208.223 63.8972H202.674V54.9842C202.674 52.7299 202.327 51.0306 200.038 51.0306C197.645 51.0306 196.986 52.9727 196.986 55.435V63.8972H191.437V46.7995H196.986L196.952 49.2618H197.021C197.957 47.7359 199.518 46.4873 201.98 46.4873C206.94 46.4873 208.223 49.678 208.223 53.805V63.8972ZM228.786 60.4291C228.786 64.1053 227.849 66.2555 226.185 67.8162C224.52 69.3768 222.231 70.5213 218.312 70.5213C214.358 70.5213 211.203 68.8566 210.023 67.9896L212.312 64.2787C213.318 65.0417 215.919 66.2208 218.208 66.2208C221.503 66.2208 223.272 64.8336 223.272 61.4695V60.9146H223.202C222.162 62.2672 220.497 63.3423 217.827 63.3423C213.63 63.3423 209.746 60.4291 209.746 54.9148C209.746 49.4006 213.63 46.4873 217.827 46.4873C220.705 46.4873 222.335 47.8052 223.237 48.9844H223.306L223.237 46.7995H228.786V60.4291ZM223.41 54.9495C223.41 52.6259 221.884 50.8225 219.422 50.8225C216.96 50.8225 215.399 52.6259 215.399 54.9495C215.399 57.3078 216.96 59.1112 219.422 59.1112C221.884 59.1112 223.41 57.3078 223.41 54.9495ZM247.486 51.0306H243.705V57.1691C243.705 58.6604 243.809 59.7008 245.509 59.7008C246.376 59.7008 247.173 59.3887 247.173 59.3887L247.451 63.7238C247.035 63.8279 245.509 64.2787 243.497 64.2787C239.058 64.2787 238.122 61.5736 238.122 57.6546V51.0306H235.694V46.8342H238.122V42.1869H243.705V46.8342H247.486V51.0306ZM265.603 63.8972H260.019V54.9148C260.019 52.834 259.742 51.0306 257.418 51.0306C255.095 51.0306 254.366 52.9727 254.366 55.5044V63.8972H248.817V39.9673H254.366V45.655C254.366 47.3891 254.332 49.2618 254.332 49.2618C255.199 47.7359 256.829 46.4873 259.36 46.4873C264.32 46.4873 265.603 49.6433 265.603 53.805V63.8972ZM284.846 54.8455C284.846 55.6778 284.777 56.6836 284.777 56.6836H272.604C272.847 59.1459 274.719 60.2557 276.974 60.2557C279.193 60.2557 281.135 59.2846 282.106 58.6257L284.291 61.5042C283.737 61.9204 281.482 64.2787 276.176 64.2787C270.905 64.2787 267.055 61.0187 267.055 55.3657C267.055 49.7127 271.217 46.4873 276.28 46.4873C281.344 46.4873 284.846 49.8514 284.846 54.8455ZM279.679 53.5276C279.644 51.9669 278.5 50.0942 276.176 50.0942C273.887 50.0942 272.708 51.8976 272.639 53.5276H279.679ZM307.489 63.8972H302.183L302.079 62.0938C301.35 62.8221 299.963 64.2787 297.189 64.2787C294.171 64.2787 290.981 62.6487 290.981 58.8338C290.981 55.0189 294.484 53.7357 297.64 53.597L301.94 53.4236V53.0421C301.94 51.2386 300.657 50.3023 298.437 50.3023C296.252 50.3023 294.067 51.2733 293.2 51.8282L291.744 48.2214C293.2 47.4931 295.871 46.4873 299.061 46.4873C304.402 46.4873 307.489 48.7069 307.489 54.2559V63.8972ZM301.975 56.3714L299.235 56.5448C297.535 56.6142 296.53 57.3425 296.53 58.6257C296.53 59.9436 297.605 60.7412 299.131 60.7412C300.622 60.7412 301.628 59.7702 301.975 59.1806V56.3714ZM328.992 55.3657C328.992 60.3944 325.87 64.2787 320.911 64.2787C318.379 64.2787 316.576 63.3423 315.501 61.747V70.1745H309.952V46.7995H315.223L315.189 48.9844H315.258C316.507 47.4931 318.345 46.4873 320.946 46.4873C325.87 46.4873 328.992 50.3369 328.992 55.3657ZM323.339 55.2963C323.339 52.6606 321.709 50.8572 319.316 50.8572C316.957 50.8572 315.327 52.6606 315.327 55.2963C315.327 57.9321 316.957 59.7355 319.316 59.7355C321.709 59.7355 323.339 57.9321 323.339 55.2963ZM349.728 55.3657C349.728 60.3944 346.607 64.2787 341.648 64.2787C339.116 64.2787 337.313 63.3423 336.238 61.747V70.1745H330.689V46.7995H335.96L335.925 48.9844H335.995C337.243 47.4931 339.081 46.4873 341.682 46.4873C346.607 46.4873 349.728 50.3369 349.728 55.3657ZM344.075 55.2963C344.075 52.6606 342.445 50.8572 340.052 50.8572C337.694 50.8572 336.064 52.6606 336.064 55.2963C336.064 57.9321 337.694 59.7355 340.052 59.7355C342.445 59.7355 344.075 57.9321 344.075 55.2963ZM358.274 58.8338L354.528 68.7526H349.985L352.933 58.8338H358.274Z" fill="#003561"/>
</svg>
