<svg width="1019" height="142" viewBox="0 0 1019 142" fill="none" xmlns="http://www.w3.org/2000/svg">
<path d="M1.15937 97.8642C1.15856 97.9278 1.92776 98.0579 2.40928 98.0769C3.48785 98.1222 4.58624 98.1147 5.66501 98.144C6.12733 98.1573 6.87808 98.2234 6.91587 98.2824C7.01071 98.4008 6.83533 98.5517 6.52585 98.6419C6.31318 98.6965 5.60004 98.7054 5.17645 98.6768C3.8287 98.5845 3.15331 98.6576 2.64778 99.0097C3.16817 99.0028 3.61158 98.9946 4.0549 98.9864C4.15062 99.0358 4.24636 99.0852 4.18883 99.063C4.18876 99.0683 4.18876 99.0683 4.18883 99.063C5.22914 99.0864 6.11573 99.0752 6.8471 99.1463C7.17428 99.1785 7.1716 99.3854 7.40036 99.5804C6.82298 99.5226 6.6691 99.4987 6.53424 99.4964C5.99465 99.4977 5.37829 99.4764 4.99229 99.5227C4.79929 99.5459 4.87389 99.7382 5.08481 99.8215C5.35311 99.9376 5.89164 100.021 6.31435 100.119C6.75625 100.222 7.19807 100.33 7.62064 100.439C8.12 100.569 8.52252 100.736 9.13795 100.831C10.7149 101.081 10.983 101.213 10.2267 101.588C9.8777 101.757 9.85686 101.878 10.6837 102.015C11.9529 102.223 11.9897 102.367 11.0037 102.62C10.617 102.719 10.0957 102.795 9.72828 102.895C9.51561 102.95 9.34108 103.037 9.37873 103.107C9.62391 103.525 10.0426 103.941 10.1529 104.357C10.1894 104.516 9.55143 104.675 9.125 104.869L11.6302 104.865C11.5877 105.172 13.0676 105.484 11.1381 105.674C12.3857 106.062 12.2881 106.171 14.8344 105.966C14.736 106.124 14.7536 106.251 14.5789 106.354C13.7636 106.823 13.6808 107.262 15.4291 107.68C16.4281 107.92 17.2339 108.194 18.1942 108.444C18.4055 108.501 18.8675 108.541 19.2143 108.547C20.9868 108.578 21.5249 108.698 21.2695 109.081C21.1517 109.249 21.4205 109.328 22.094 109.398C22.4019 109.43 22.7086 109.557 22.6884 109.631C22.6077 109.917 21.968 110.213 23.7962 110.41C23.391 110.45 23.2558 110.474 23.0823 110.482C22.7352 110.497 22.3883 110.497 22.0604 110.523C21.6168 110.552 21.1155 110.575 20.7678 110.638C19.8408 110.797 19.9932 110.938 21.1093 111.058C21.4364 111.096 21.8789 111.156 21.9359 111.221C22.4114 111.707 23.5229 112.193 22.3219 112.682C22.2445 112.712 22.2824 112.755 22.2819 112.798C22.2784 113.074 21.9093 113.301 20.6552 113.417C19.6519 113.511 18.687 113.627 17.452 113.759C18.2592 113.927 18.9701 114.094 19.7583 114.24C20.6428 114.399 20.6603 114.526 19.6951 114.663C19.3089 114.72 18.7303 114.763 18.5943 114.846C18.3417 115.011 18.3585 115.203 18.2403 115.408C18.4712 115.433 18.914 115.472 19.1449 115.498C19.4315 115.688 19.6801 115.836 19.9478 116.005C19.1376 116.071 18.5965 116.194 19.1523 116.432C19.2097 116.459 19.1319 116.511 19.0544 116.542C18.5111 116.835 18.8745 117.053 20.1439 117.245C20.8941 117.354 21.3156 117.547 20.6774 117.727C20.0584 117.907 19.6512 118.096 19.2632 118.302C18.7783 118.548 17.2733 118.702 17.3458 119.059C15.4749 119.191 15.8173 119.542 15.8903 119.856C15.9267 120.027 15.6751 120.118 14.9805 120.186C13.8808 120.289 13.8604 120.373 14.8606 120.518C15.5916 120.621 15.783 120.714 15.6457 120.903C15.5476 121.045 15.9117 121.205 16.1401 121.426C14.9615 121.671 16.9448 121.791 17.3082 122.004C17.1331 122.139 17.1314 122.271 17.0526 122.403C16.9346 122.586 16.9321 122.793 16.5447 122.951C16.1766 123.104 16.0597 123.197 16.6939 123.33C16.9438 123.383 17.1163 123.46 17.231 123.531C17.5943 123.749 18.2487 123.809 19.3085 123.811C23.972 123.812 28.6351 123.835 33.2791 123.846C35.341 123.85 37.4224 123.844 39.4844 123.832C42.0091 123.817 44.5148 123.771 47.0199 123.772C49.525 123.773 52.0488 123.827 54.5538 123.839C56.3073 123.848 58.042 123.814 59.7957 123.813C65.1916 123.795 70.5877 123.767 75.9835 123.759C86.6018 123.742 97.2197 123.74 107.838 123.728C108.801 123.729 109.746 123.687 110.691 123.682C115.181 123.67 119.651 123.668 124.141 123.666C125.047 123.666 125.971 123.719 126.877 123.73C127.513 123.741 128.187 123.752 128.785 123.71C132.256 123.505 135.651 123.245 139.409 123.262C144.477 123.287 149.526 123.263 154.594 123.266C157.311 123.265 160.028 123.281 162.745 123.291C164.73 123.298 166.714 123.312 168.699 123.32C173.69 123.337 178.7 123.355 183.691 123.378C187.468 123.396 191.244 123.403 195.002 123.436C202.67 123.511 210.338 123.644 217.988 123.676C227.796 123.713 237.606 123.677 247.414 123.672C251.288 123.67 255.161 123.663 259.034 123.666C267.186 123.675 275.337 123.71 283.469 123.687C292.603 123.665 301.7 123.584 310.835 123.551C315.999 123.529 321.183 123.566 326.367 123.55C332.379 123.532 338.392 123.483 344.405 123.454C347.643 123.442 350.899 123.461 354.137 123.443C358.434 123.422 362.732 123.364 367.049 123.348C371.559 123.331 376.087 123.362 380.596 123.35C382.427 123.345 384.239 123.275 386.071 123.233C386.996 123.212 387.902 123.164 388.827 123.169C390.6 123.179 392.372 123.247 394.145 123.251C399.116 123.257 404.088 123.259 409.06 123.239C410.929 123.234 412.761 123.16 414.611 123.118C414.862 123.111 415.132 123.1 415.382 123.104C418.349 123.177 421.278 123.228 424.265 123.184C430.124 123.1 436.021 123.086 441.899 123.05C446.235 123.024 450.571 123.02 454.907 122.999C462.269 122.968 469.65 122.937 477.012 122.9C480.134 122.885 483.237 122.87 486.359 122.85C489.288 122.832 492.198 122.803 495.128 122.784C496.997 122.801 498.865 122.833 500.734 122.845C502.488 122.854 504.223 122.82 505.976 122.813C511.372 122.796 516.768 122.767 522.164 122.76C532.782 122.743 543.4 122.741 554.019 122.729C554.982 122.73 555.927 122.688 556.871 122.683C561.361 122.671 565.832 122.669 570.322 122.667C571.228 122.667 572.152 122.72 573.058 122.73C573.694 122.741 574.368 122.753 574.966 122.71C578.437 122.505 581.832 122.246 585.59 122.263C590.657 122.287 595.706 122.263 600.775 122.266C603.492 122.266 606.209 122.281 608.926 122.291C610.91 122.299 612.895 122.312 614.88 122.32C619.871 122.338 624.881 122.356 629.871 122.379C633.648 122.396 637.425 122.403 641.182 122.437C648.851 122.511 656.519 122.645 664.169 122.676C673.977 122.714 683.786 122.677 693.595 122.672C697.468 122.67 701.342 122.663 705.215 122.667C713.366 122.676 721.517 122.711 729.65 122.687C738.784 122.665 747.881 122.584 757.015 122.552C762.18 122.53 767.363 122.567 772.547 122.551C778.56 122.533 784.573 122.483 790.586 122.455C793.823 122.442 797.08 122.462 800.317 122.443C804.615 122.422 808.913 122.364 813.211 122.349C817.72 122.331 822.248 122.362 826.758 122.35C828.588 122.345 830.401 122.275 832.232 122.233C833.157 122.212 834.064 122.164 834.988 122.169C836.761 122.179 838.533 122.247 840.306 122.251C845.278 122.258 850.249 122.259 855.221 122.239C857.091 122.229 858.922 122.16 860.773 122.118C861.023 122.112 861.293 122.1 861.544 122.105C864.511 122.177 867.439 122.228 870.427 122.185C876.286 122.1 882.183 122.086 888.061 122.05C892.397 122.024 896.733 122.02 901.069 122C908.431 121.968 915.812 121.937 923.173 121.9C926.295 121.885 929.398 121.87 932.52 121.85C936.933 121.821 941.366 121.775 945.779 121.751C949.036 121.733 952.293 121.747 955.55 121.73C958.267 121.718 960.985 121.675 963.702 121.659C968.308 121.627 972.933 121.607 977.539 121.565C979.814 121.546 982.07 121.441 984.343 121.454C988.101 121.472 991.723 121.487 994.584 120.841C995.318 120.674 995.628 120.578 995.149 120.368C994.65 120.147 994.461 119.895 995.542 119.775C996.699 119.652 996.74 119.451 996.724 119.228C996.708 119.01 996.749 118.772 996.347 118.585C995.849 118.353 995.928 118.201 996.489 117.998C996.992 117.821 997.188 117.607 997.46 117.399C997.674 117.239 997.638 117.047 998.006 116.905C998.587 116.687 999.629 116.551 999.711 116.228C999.751 116.081 1000.99 115.964 1001.74 115.818C1001.7 115.812 1001.57 115.746 1001.43 115.749C999.967 115.734 1000.18 115.552 1000.3 115.326C1000.38 115.195 1000.01 115.034 999.689 114.901C999.478 114.813 998.997 114.757 998.939 114.745C999.676 114.381 1000.28 114.057 1000.98 113.751C1001.19 113.654 1001.69 113.583 1002.06 113.504C1002.4 113.579 1002.73 113.665 1003.11 113.735C1003.4 113.788 1003.81 113.864 1004.08 113.852C1004.6 113.83 1005.04 113.752 1005.33 113.72C1004.91 113.57 1004.53 113.441 1004.2 113.303C1004.2 113.297 1004.89 113.177 1005.05 113.195C1005.49 113.251 1005.82 113.352 1006.32 113.467C1006.49 113.449 1006.86 113.423 1007.13 113.369C1008.77 113.048 1010.43 112.732 1012 112.393C1012.23 112.338 1012.15 112.167 1011.96 112.079C1011.71 111.963 1011.17 111.879 1010.56 111.731C1012.35 111.619 1013.15 111.404 1012.69 111.03C1012.15 111.01 1011.67 110.996 1011.2 110.983C1011.19 110.956 1011.15 110.929 1011.13 110.902C1011.94 110.773 1012.73 110.532 1013.58 110.531C1015.08 110.525 1016.03 110.34 1017.09 110.199C1017.77 110.11 1018.18 109.889 1018.47 109.708C1018.54 109.656 1017.81 109.532 1017.41 109.446C1016.99 109.353 1016.58 109.251 1016.08 109.189C1015.6 109.128 1014.99 109.075 1014.51 109.093C1012.75 109.153 1011.5 109.057 1011.2 108.674C1010.89 108.287 1009.83 108.221 1008.54 108.151C1008.16 108.128 1007.77 108.106 1007.39 108.078C1005.39 107.91 1004.41 107.384 1005.11 106.961C1005.34 106.827 1005.23 106.57 1004.81 106.483C1003.96 106.304 1002.85 106.152 1001.75 106.085C998.879 105.903 996.068 105.716 993.8 105.236C992.705 105 992.763 104.985 993.844 104.781C995.988 104.383 999.073 104.282 1000.49 103.638C1001.3 103.27 1002.89 102.99 1003.49 102.576C1003.7 102.436 1003.92 102.281 1003.86 102.137C1003.86 102.089 1002.96 102.052 1002.32 101.998C1002.86 101.886 1003.34 101.783 1004.04 101.636C1003.48 101.626 1003.31 101.623 1003.15 101.62C1002.81 101.604 1002.48 101.587 1002.15 101.571C1002.35 101.521 1002.56 101.467 1002.75 101.412C1002.89 101.371 1003.08 101.327 1003.12 101.28C1003.26 101.112 1003.39 100.945 1003.42 100.776C1003.42 100.691 1003.24 100.582 1002.98 100.524C1002.21 100.367 1001.4 100.215 1000.51 100.088C999.918 100.004 999.225 99.944 999.709 99.7614C1000.15 99.5993 1000.68 99.4491 1001.81 99.5325C1002.24 99.5611 1003.06 99.5596 1003.12 99.5181C1003.3 99.4044 1003.38 99.2519 1003.13 99.1414C1002.92 99.0422 1002.3 98.9732 1001.82 98.9065C1000.86 98.7677 999.509 98.7815 999.051 98.4551C998.841 98.3082 998.435 98.3701 997.971 98.4894C997.469 98.6187 996.504 98.7028 995.714 98.705C995.309 98.7033 994.715 98.486 994.485 98.344C994.237 98.1911 994.297 98.0171 994.241 97.8516C994.037 97.2165 995.18 96.7428 997.459 96.395C997.787 96.3476 998.155 96.216 998.078 96.151C997.582 95.7868 998.029 95.4603 998.419 95.1274C999.062 94.576 999.487 94.4932 1002.01 94.4521C1002.88 94.4406 1003.05 94.3587 1002.73 94.1832C1002.59 94.1119 1002.61 94.022 1002.54 93.9146C1004.21 94.071 1005.02 93.9471 1005.07 93.5923C1005.09 93.4016 1005.25 93.2027 1005.09 93.0143C1004.75 92.5679 1005.07 92.1117 1004.07 91.6752C1003.74 91.5368 1003.77 91.2454 1004.17 91.1728C1005.49 90.9249 1006.15 90.5596 1005.56 90.1089C1004.92 90.1774 1004.3 90.2463 1003.68 90.3152C1003.65 90.3039 1003.63 90.293 1003.59 90.2817C1003.97 90.1664 1004.38 90.0514 1004.77 89.9307C1003.88 89.8304 1003.05 89.7524 1002.32 89.6389C1002.05 89.5971 1002.06 89.475 1001.94 89.3881C1002.33 89.3683 1002.81 89.3024 1003.08 89.3336C1004.73 89.5268 1005.7 89.3313 1006.61 89.1242C1006.32 89.0502 1005.92 88.9901 1005.92 88.937C1005.94 88.619 1005.05 88.6196 1003.99 88.6012C1003.63 88.5948 1002.99 88.4512 1003 88.3769C1003 88.2071 1003.17 88.0191 1003.6 87.8885C1004.57 87.5975 1005.76 87.3476 1006.81 87.0739C1007.29 86.9496 1007.6 86.7958 1008.03 86.6599C1008.74 86.4335 1009.48 86.2074 1010.21 85.9814C1010.58 85.871 1010.99 85.7666 1011.49 85.6321C1010.85 85.6051 1010.45 85.5928 1010.06 85.5755C1010.24 85.4671 1010.55 85.43 1010.86 85.3876C1011.11 85.3548 1011.49 85.3403 1011.57 85.2938C1011.9 85.1191 1012.15 84.9378 1012.43 84.7621C1012.41 84.7617 1012.19 84.7687 1012.02 84.7922C1009.05 85.1333 1005.81 85.3 1002.46 85.3745C999.313 85.4473 996.172 85.4884 993.03 85.5665C986.996 85.7113 980.963 85.8719 974.948 86.0276C973.888 86.0517 973.137 86.0015 972.967 85.7173C972.911 85.6155 972.546 85.4871 972.142 85.4323C970.276 85.1771 968.388 85.1868 966.516 85.3931C966.168 85.4295 965.705 85.4958 965.455 85.4702C963.781 85.3032 962.256 85.4784 960.676 85.4934C957.785 85.5122 954.895 85.4886 952.004 85.4969C949.113 85.5051 946.241 85.5402 943.351 85.559C938.86 85.5819 934.37 85.5996 929.88 85.6172C923.154 85.6491 916.428 85.6863 909.683 85.7072C904.981 85.7212 900.26 85.703 895.558 85.7275C883.879 85.7796 872.201 85.8477 860.522 85.9104C855.704 85.9383 850.886 85.9661 846.049 85.9883C838.032 86.0191 830.034 86.0501 822.018 86.0755C817.797 86.0872 813.558 86.0614 809.337 86.0944C803.98 86.1288 798.641 86.2325 793.283 86.2563C782.626 86.3049 771.969 86.3217 761.331 86.36C760.85 86.3623 760.29 86.4109 759.962 86.4795C758.841 86.7307 757.452 86.8287 755.929 86.9031C753.692 87.0182 751.244 87.0818 749.371 87.3359C745.009 87.9289 740.174 87.7866 735.433 87.7734C731.618 87.7602 727.804 87.641 723.989 87.5854C721.716 87.546 719.442 87.5172 717.168 87.5149C714.952 87.5083 712.755 87.5391 710.539 87.5538C710.23 87.5537 709.864 87.5739 709.633 87.538C707.844 87.2735 706.051 87.3857 704.258 87.4607C703.949 87.4713 703.602 87.4652 703.294 87.4493C702.447 87.408 701.523 87.2859 700.81 87.3266C698.477 87.4506 696.205 87.2467 693.893 87.2278C689.23 87.2 684.568 87.0766 679.886 87.006C675.744 86.9448 671.601 86.8994 667.459 86.8382C662.97 86.7762 658.5 86.704 654.011 86.642C651.641 86.6115 649.271 86.6128 646.882 86.5767C643.182 86.5231 639.483 86.4643 635.804 86.3792C633.107 86.3165 630.41 86.2113 627.713 86.1168C626.847 86.0858 625.98 86.0124 625.132 86.0189C621.876 86.0367 618.657 86.0976 615.4 86.1048C607.036 86.1295 598.692 86.1387 590.328 86.1475C582.081 86.153 573.833 86.1585 565.585 86.164C565.818 86.0247 566.032 85.8798 566.246 85.7403C566.226 85.7399 566.014 85.7469 565.84 85.7704C564.316 85.9456 562.715 86.0717 561.076 86.1653C557.992 86.1649 554.928 86.1701 551.845 86.1697C548.82 86.1756 545.794 86.2186 542.749 86.2241C540.417 86.2261 538.086 86.1645 535.773 86.188C533.461 86.2116 531.074 86.0004 528.855 86.2484C528.719 86.262 528.507 86.2583 528.334 86.2553C526.985 86.2531 525.636 86.2563 524.287 86.2541C523.44 86.2076 522.592 86.2088 521.763 86.2527C520.973 86.255 520.183 86.2519 519.393 86.2541C514.787 86.2591 510.162 86.2585 505.556 86.2635C499.582 86.2713 493.609 86.2791 487.654 86.2872C479.367 86.2973 471.081 86.3075 462.814 86.3285C461.137 86.3313 459.498 86.3878 457.822 86.4064C456.742 86.4196 456.009 86.5289 455.429 86.6939C453.424 86.6963 451.42 86.6934 449.416 86.7064C437.737 86.7585 426.059 86.8265 414.38 86.8893C409.562 86.9171 404.744 86.945 399.907 86.9672C391.89 86.9979 383.892 87.029 375.876 87.0544C371.655 87.0661 367.416 87.0403 363.195 87.0732C357.838 87.1076 352.499 87.2114 347.141 87.2352C336.484 87.2838 325.827 87.3005 315.189 87.3389C314.708 87.3411 314.148 87.3898 313.82 87.4584C312.699 87.7096 311.31 87.8075 309.787 87.8819C307.55 87.997 305.102 88.0607 303.229 88.3148C298.867 88.9078 294.032 88.7655 289.291 88.7522C285.476 88.7391 281.662 88.6199 277.847 88.5643C275.574 88.5249 273.3 88.496 271.026 88.4937C268.81 88.4871 266.613 88.518 264.397 88.5326C264.088 88.5326 263.722 88.5527 263.491 88.5169C261.702 88.2524 259.909 88.3645 258.116 88.4396C257.807 88.4501 257.46 88.4441 257.133 88.4278C256.286 88.3866 255.362 88.2644 254.649 88.3051C252.315 88.4291 250.044 88.2252 247.732 88.2063C243.069 88.1785 238.407 88.0552 233.725 87.9846C229.583 87.9233 225.44 87.878 221.298 87.8167C216.809 87.7547 212.339 87.6825 207.85 87.6205C205.48 87.59 203.11 87.5914 200.72 87.5552C197.021 87.5017 193.322 87.4428 189.642 87.3577C186.945 87.295 184.249 87.1899 181.552 87.0953C180.686 87.0644 179.819 86.9909 178.971 86.9975C175.714 87.0153 172.495 87.0762 169.239 87.0833C160.875 87.1081 152.531 87.1172 144.167 87.126C131.352 87.1372 118.518 87.1374 105.703 87.1538C102.678 87.1597 99.6517 87.2028 96.6069 87.2083C94.2751 87.2103 91.9441 87.1486 89.6313 87.1722C87.3186 87.1958 84.9318 86.9845 82.7125 87.2326C82.5775 87.2462 82.3655 87.2425 82.1921 87.2395C79.2052 87.2407 76.2184 87.2367 73.2315 87.2379C68.6258 87.2429 64.0009 87.2423 59.3952 87.2473C53.4213 87.2551 47.4473 87.2629 41.4926 87.271C33.2062 87.2812 24.939 87.2916 16.6525 87.3124C14.9759 87.3151 13.3373 87.3716 11.6605 87.3903C10.3307 87.4043 9.5386 87.5604 8.88044 87.7931C8.31908 87.9903 8.45193 88.1519 9.37555 88.2581C9.8374 88.3086 10.4736 88.2772 11.0902 88.2879C10.8553 88.5703 9.67844 88.6773 8.19244 88.8479C9.13527 88.9597 9.77053 89.0185 10.3283 89.1025C10.7129 89.1622 10.9623 89.2568 11.2889 89.3314C10.8646 89.3559 10.4595 89.386 10.0353 89.4052C9.88107 89.4131 9.72709 89.3999 9.57296 89.3972C9.47636 89.4167 9.36048 89.4413 9.26388 89.4608C9.7629 89.6181 10.2039 89.7902 10.7995 89.9332C11.5872 90.1167 12.5681 90.2611 12.1788 90.5621C11.9259 90.7541 11.827 90.954 11.574 91.146C11.4766 91.2292 11.263 91.3582 11.0124 91.3645C10.5112 91.3823 9.93351 91.3457 9.43313 91.2946C9.02888 91.261 8.68301 91.1807 8.31756 91.1266C8.22103 91.1409 8.12456 91.1551 8.02796 91.1747C8.60303 91.4129 7.88607 91.7188 9.29027 91.9183C9.8673 92.0026 9.67324 92.1054 8.99845 92.1308C7.95733 92.1712 7.97521 92.2882 8.4933 92.4617C8.99225 92.6243 9.45265 92.7861 10.1433 93.0316C9.08361 93.0132 8.29372 92.9995 7.38821 92.9838C7.6152 93.3168 9.50357 93.3283 10.0392 93.6401C8.99669 93.7865 7.97349 93.9333 6.91176 94.0794C7.1806 94.153 7.44932 94.232 7.92935 94.3677C7.13754 94.5025 6.36517 94.6271 5.66969 94.7636C5.43782 94.8127 5.24387 94.9101 5.30085 94.9748C5.41469 95.1148 5.70203 95.2471 5.98872 95.4325C5.95018 95.4319 6.20049 95.4468 6.45075 95.4671C7.20152 95.5279 7.48805 95.7239 6.90858 95.8306C6.23244 95.9621 5.51792 96.0877 4.70739 96.1798C2.87405 96.3868 2.83542 96.3861 4.23745 96.7554C4.4679 96.8178 4.75636 96.8652 4.96748 96.9326C5.15939 96.9943 5.25484 97.0702 5.38889 97.1362C5.04169 97.162 4.69445 97.1932 4.32812 97.208C3.5762 97.2375 2.7861 97.2397 2.05324 97.2853C0.780388 97.3641 1.20088 97.6314 1.15985 97.827L1.15937 97.8642Z" fill="#FCD214"/>
<path d="M78.9143 108.259H65.6L65.1203 84.5691L59.7226 108.259H48.0277L42.63 84.5691L42.1502 108.259H28.836L31.235 66.8768H48.6274L53.8452 89.367L59.1229 66.8768H76.5153L78.9143 108.259ZM126.565 87.6278C126.565 101.122 116.97 108.978 104.075 108.978C91.1808 108.978 81.585 101.122 81.585 87.6278C81.585 74.1336 91.1808 66.2171 104.075 66.2171C116.97 66.2171 126.565 74.1336 126.565 87.6278ZM112.891 87.3279C112.891 81.6304 109.473 77.6721 104.075 77.6721C98.6775 77.6721 95.199 81.6304 95.199 87.3279C95.199 93.0254 98.6775 96.9837 104.075 96.9837C109.473 96.9837 112.891 93.0254 112.891 87.3279ZM161.053 94.6447C161.053 98.9628 158.954 102.861 155.655 105.44C152.357 107.959 148.218 108.978 143.42 108.978C138.623 108.978 133.105 107.659 127.467 103.461L133.465 93.2653C137.303 96.5039 142.701 97.7634 144.5 97.7634C146.299 97.7634 147.559 97.2236 147.559 96.0241C147.559 94.8246 146.059 94.3448 144.56 93.865C143.061 93.4452 139.762 92.3657 138.563 91.9459C132.805 89.6669 129.087 86.968 129.087 80.071C129.087 75.573 131.426 72.0945 133.885 70.0554C136.403 67.9563 140.542 66.457 146.059 66.457C151.577 66.457 157.214 68.4361 160.813 71.4348L155.655 81.0306C152.536 78.2718 147.978 77.0723 145.819 77.0723C143.66 77.0723 142.461 77.4922 142.461 78.7516C142.461 79.9511 144.38 80.3709 145.34 80.6708C146.299 80.9707 148.818 81.6903 150.257 82.1701C156.495 84.2692 161.053 87.3879 161.053 94.6447ZM194.417 77.4322H184.641V108.259H171.087V77.4322H161.371V66.8768H194.417V77.4322ZM238.503 108.259H208.517V66.8768H237.904V77.5521H222.011V82.0502H237.004V92.6656H222.011V97.4635H238.503V108.259ZM283.788 66.8768L268.195 108.259H255.001L239.408 66.8768H253.801L261.598 90.8663L269.395 66.8768H283.788ZM315.858 108.259H285.871V66.8768H315.258V77.5521H299.365V82.0502H314.359V92.6656H299.365V97.4635H315.858V108.259ZM357.845 108.259H342.251L335.654 94.4648H333.915V108.259H320.361V66.8768H338.353C343.451 66.8768 347.349 67.7764 350.348 69.8755C353.347 71.9746 355.446 75.573 355.446 80.071C355.446 88.4674 350.348 91.4661 348.549 92.5456L357.845 108.259ZM341.772 80.6708C341.772 78.8716 340.872 78.2718 340.272 77.852C339.672 77.3722 338.773 77.0723 337.273 77.0723H333.855V84.2692H337.273C339.612 84.2692 341.772 83.3696 341.772 80.6708ZM395.628 66.8768L381.234 92.0658V108.259H367.68V92.0658L353.347 66.8768H368.34L374.457 80.8507L380.635 66.8768H395.628ZM436.113 87.5678C436.113 102.441 426.457 108.259 412.723 108.259H397.13V66.8768H412.723C426.457 66.8768 436.113 72.6942 436.113 87.5678ZM422.439 87.5678C422.439 81.5704 420.04 77.972 413.743 77.972H410.624V96.8637H413.743C419.8 96.8637 422.439 93.4452 422.439 87.5678ZM483.176 87.6278C483.176 101.122 473.58 108.978 460.686 108.978C447.791 108.978 438.196 101.122 438.196 87.6278C438.196 74.1336 447.791 66.2171 460.686 66.2171C473.58 66.2171 483.176 74.1336 483.176 87.6278ZM469.502 87.3279C469.502 81.6304 466.083 77.6721 460.686 77.6721C455.288 77.6721 451.81 81.6304 451.81 87.3279C451.81 93.0254 455.288 96.9837 460.686 96.9837C466.083 96.9837 469.502 93.0254 469.502 87.3279ZM514.665 108.259H487.077V66.8768H500.571V97.1636H514.665V108.259ZM545.523 108.259H517.935V66.8768H531.429V97.1636H545.523V108.259ZM588.976 108.259H574.282L572.663 102.441H560.848L559.289 108.259H545.195L559.589 66.8768H574.582L588.976 108.259ZM569.844 92.0658L566.786 80.9707L563.727 92.0658H569.844ZM628.557 108.259H612.963L606.366 94.4648H604.627V108.259H591.073V66.8768H609.065C614.163 66.8768 618.061 67.7764 621.06 69.8755C624.059 71.9746 626.158 75.573 626.158 80.071C626.158 88.4674 621.06 91.4661 619.261 92.5456L628.557 108.259ZM612.484 80.6708C612.484 78.8716 611.584 78.2718 610.984 77.852C610.384 77.3722 609.485 77.0723 607.986 77.0723H604.567V84.2692H607.986C610.324 84.2692 612.484 83.3696 612.484 80.6708ZM677.583 96.264C677.583 105.32 670.027 108.259 662.17 108.259H641.779V66.8768H658.871C662.47 66.8768 666.368 67.1766 669.367 68.3761C672.366 69.5756 675.484 72.5743 675.484 77.3722C675.484 82.1701 672.366 85.4687 669.667 86.5482C674.465 87.8677 677.583 91.4661 677.583 96.264ZM662.17 79.6512C662.17 77.0124 660.071 76.6525 657.972 76.6525H655.273V82.6499H657.972C660.011 82.6499 662.17 82.1701 662.17 79.6512ZM663.969 94.9446C663.969 92.3057 662.05 91.646 659.771 91.646H655.273V98.2431H659.771C661.93 98.2431 663.969 97.4635 663.969 94.9446ZM718.555 90.5665C718.555 97.1636 717.056 101.062 714.057 104.061C711.058 107.059 706.26 108.919 699.663 108.919C693.066 108.919 688.268 107.059 685.269 104.061C682.271 101.062 680.771 97.1636 680.771 90.5665V66.8768H694.385V91.1662C694.385 94.7047 695.825 97.1636 699.663 97.1636C703.501 97.1636 704.881 94.7047 704.881 91.1662V66.8768H718.555V90.5665ZM762.919 87.5678C762.919 102.441 753.263 108.259 739.529 108.259H723.936V66.8768H739.529C753.263 66.8768 762.919 72.6942 762.919 87.5678ZM749.245 87.5678C749.245 81.5704 746.846 77.972 740.549 77.972H737.43V96.8637H740.549C746.606 96.8637 749.245 93.4452 749.245 87.5678ZM806.084 101.362C802.785 104.36 797.988 108.919 786.892 108.919C775.797 108.919 765.002 102.261 765.002 87.5678C765.002 72.8742 775.797 66.277 787.192 66.277C798.587 66.277 803.385 72.2744 804.585 73.4739L795.589 80.9707C794.689 80.071 791.99 77.3722 787.192 77.3722C782.394 77.3722 778.616 80.9707 778.616 87.5678C778.616 94.1649 782.394 97.7634 787.192 97.7634C791.99 97.7634 792.89 96.264 792.89 96.264V93.2653H786.593V83.2497H806.084V101.362ZM840.59 108.259H810.603V66.8768H839.99V77.5521H824.097V82.0502H839.091V92.6656H824.097V97.4635H840.59V108.259ZM875.14 77.4322H865.364V108.259H851.81V77.4322H842.094V66.8768H875.14V77.4322ZM907.813 108.259H877.826V66.8768H907.213V77.5521H891.32V82.0502H906.313V92.6656H891.32V97.4635H907.813V108.259ZM949.799 108.259H934.206L927.609 94.4648H925.869V108.259H912.315V66.8768H930.307C935.405 66.8768 939.303 67.7764 942.302 69.8755C945.301 71.9746 947.4 75.573 947.4 80.071C947.4 88.4674 942.302 91.4661 940.503 92.5456L949.799 108.259ZM933.726 80.6708C933.726 78.8716 932.826 78.2718 932.227 77.852C931.627 77.3722 930.727 77.0723 929.228 77.0723H925.809V84.2692H929.228C931.567 84.2692 933.726 83.3696 933.726 80.6708ZM981.901 94.6447C981.901 98.9628 979.802 102.861 976.504 105.44C973.205 107.959 969.067 108.978 964.269 108.978C959.471 108.978 953.954 107.659 948.316 103.461L954.313 93.2653C958.152 96.5039 963.549 97.7634 965.349 97.7634C967.148 97.7634 968.407 97.2236 968.407 96.0241C968.407 94.8246 966.908 94.3448 965.409 93.865C963.909 93.4452 960.611 92.3657 959.411 91.9459C953.654 89.6669 949.935 86.968 949.935 80.071C949.935 75.573 952.274 72.0945 954.733 70.0554C957.252 67.9563 961.39 66.457 966.908 66.457C972.425 66.457 978.063 68.4361 981.661 71.4348L976.504 81.0306C973.385 78.2718 968.827 77.0723 966.668 77.0723C964.509 77.0723 963.309 77.4922 963.309 78.7516C963.309 79.9511 965.229 80.3709 966.188 80.6708C967.148 80.9707 969.667 81.6903 971.106 82.1701C977.343 84.2692 981.901 87.3879 981.901 94.6447ZM1000.03 83.5495C1000.03 87.7477 997.034 90.0267 992.715 90.0267C988.337 90.0267 985.339 87.7477 985.339 83.5495C985.339 79.3514 988.337 77.0124 992.715 77.0124C997.034 77.0124 1000.03 79.3514 1000.03 83.5495ZM1000.03 102.441C1000.03 106.639 997.034 108.919 992.715 108.919C988.337 108.919 985.339 106.639 985.339 102.441C985.339 98.2431 988.337 95.9042 992.715 95.9042C997.034 95.9042 1000.03 98.2431 1000.03 102.441Z" fill="#003561"/>
<path d="M190.901 45.1417H183.614V14.1052H190.901V45.1417ZM216.544 45.1417H209.347V33.5817C209.347 30.658 208.897 28.454 205.928 28.454C202.825 28.454 201.97 30.9729 201.97 34.1665V45.1417H194.773V22.9664H201.97L201.925 26.16H202.015C203.229 24.1808 205.253 22.5615 208.447 22.5615C214.879 22.5615 216.544 26.6997 216.544 32.0524V45.1417ZM240.571 28.454H235.668V36.4155C235.668 38.3497 235.803 39.6991 238.007 39.6991C239.132 39.6991 240.166 39.2943 240.166 39.2943L240.526 44.9168C239.986 45.0518 238.007 45.6365 235.398 45.6365C229.641 45.6365 228.426 42.128 228.426 37.0452V28.454H225.278V23.0113H228.426V16.984H235.668V23.0113H240.571V28.454ZM264.069 45.1417H256.827V33.4918C256.827 30.793 256.467 28.454 253.454 28.454C250.44 28.454 249.495 30.9729 249.495 34.2565V45.1417H242.298V14.1052H249.495V21.482C249.495 23.731 249.45 26.16 249.45 26.16C250.575 24.1808 252.689 22.5615 255.972 22.5615C262.405 22.5615 264.069 26.6548 264.069 32.0524V45.1417ZM289.027 33.4018C289.027 34.4814 288.937 35.7858 288.937 35.7858H273.149C273.464 38.9794 275.893 40.4188 278.817 40.4188C281.695 40.4188 284.214 39.1593 285.474 38.3047L288.307 42.0381C287.588 42.5778 284.664 45.6365 277.782 45.6365C270.945 45.6365 265.952 41.4083 265.952 34.0765C265.952 26.7447 271.35 22.5615 277.917 22.5615C284.484 22.5615 289.027 26.9246 289.027 33.4018ZM282.325 31.6926C282.28 29.6684 280.796 27.2395 277.782 27.2395C274.813 27.2395 273.284 29.5785 273.194 31.6926H282.325ZM321.453 16.6691C321.453 18.9181 319.788 20.4025 317.36 20.4025C314.931 20.4025 313.266 18.9181 313.266 16.6691C313.266 14.4651 314.931 12.9357 317.36 12.9357C319.788 12.9357 321.453 14.4651 321.453 16.6691ZM320.958 45.1417H313.761V22.9664H320.958V45.1417ZM311.917 19.098C311.062 18.8282 310.208 18.6932 309.353 18.6932C306.969 18.6932 306.699 20.4475 306.699 22.1117V23.0113H311.467V28.454H306.699V45.1417H299.457V28.454H296.624V23.0113H299.457V21.7969C299.457 16.3992 302.021 13.5205 307.554 13.5205C310.028 13.5205 312.277 14.1052 312.277 14.1052L311.917 19.098ZM339.464 22.9664L339.059 29.5785H338.744C338.339 29.3536 337.395 29.0387 336.135 29.0387C332.582 29.0387 331.682 32.3673 331.682 35.291V45.1417H324.485V22.9664H331.682L331.637 26.115H331.727C332.987 23.686 334.831 22.5615 337.215 22.5615C338.699 22.5615 339.464 22.9664 339.464 22.9664ZM356.785 38.3047C356.785 43.6124 351.972 45.6365 347.384 45.6365C344.055 45.6365 340.547 44.602 338.028 42.218L340.726 37.9449C342.526 39.4742 345.494 40.6437 347.294 40.6437C349.093 40.6437 350.352 40.1939 350.352 38.7545C350.352 37.3151 347.114 36.5954 346.304 36.3256C342.616 35.381 339.377 34.0765 339.377 29.4885C339.377 25.1704 343.155 22.5166 347.788 22.5166C352.421 22.5166 355.03 24.2258 356.29 25.2604L353.951 29.4885C352.691 28.499 350.172 27.3295 348.373 27.3295C346.664 27.3295 345.719 27.7793 345.719 28.9488C345.719 30.1183 347.429 30.658 348.958 31.1078C352.781 32.2323 356.785 33.4018 356.785 38.3047ZM372.041 28.454H367.138V36.4155C367.138 38.3497 367.273 39.6991 369.477 39.6991C370.601 39.6991 371.636 39.2943 371.636 39.2943L371.996 44.9168C371.456 45.0518 369.477 45.6365 366.868 45.6365C361.11 45.6365 359.896 42.128 359.896 37.0452V28.454H356.747V23.0113H359.896V16.984H367.138V23.0113H372.041V28.454ZM415.836 45.1417H408.595V33.087C408.595 30.703 408.145 28.454 405.671 28.454C403.152 28.454 402.072 30.703 402.072 33.7617V45.1417H394.876V33.087C394.876 30.3432 394.246 28.454 391.907 28.454C389.388 28.454 388.308 30.703 388.308 33.7617V45.1417H381.112V22.9664H388.308L388.263 26.16L388.353 26.115C389.478 24.2708 391.637 22.5615 394.471 22.5615C397.529 22.5615 399.958 23.5961 401.083 26.6098C402.657 23.911 404.861 22.5615 408.145 22.5615C413.812 22.5615 415.836 26.4299 415.836 31.7825V45.1417ZM442.376 34.1215C442.376 41.2734 437.113 45.6365 430.096 45.6365C423.079 45.6365 417.772 41.2734 417.772 34.1215C417.772 26.9696 423.079 22.5615 430.096 22.5615C437.113 22.5615 442.376 26.9696 442.376 34.1215ZM435.134 33.9866C435.134 30.703 433.245 28.2291 430.096 28.2291C426.903 28.2291 425.059 30.703 425.059 33.9866C425.059 37.2701 426.903 39.7441 430.096 39.7441C433.245 39.7441 435.134 37.2701 435.134 33.9866ZM466.292 45.1417H459.095V33.5817C459.095 30.658 458.646 28.454 455.677 28.454C452.573 28.454 451.719 30.9729 451.719 34.1665V45.1417H444.522V22.9664H451.719L451.674 26.16H451.764C452.978 24.1808 455.002 22.5615 458.196 22.5615C464.628 22.5615 466.292 26.6997 466.292 32.0524V45.1417ZM482.796 28.454H477.893V36.4155C477.893 38.3497 478.028 39.6991 480.232 39.6991C481.357 39.6991 482.391 39.2943 482.391 39.2943L482.751 44.9168C482.211 45.0518 480.232 45.6365 477.623 45.6365C471.866 45.6365 470.651 42.128 470.651 37.0452V28.454H467.503V23.0113H470.651V16.984H477.893V23.0113H482.796V28.454ZM506.294 45.1417H499.052V33.4918C499.052 30.793 498.692 28.454 495.679 28.454C492.665 28.454 491.72 30.9729 491.72 34.2565V45.1417H484.523V14.1052H491.72V21.482C491.72 23.731 491.675 26.16 491.675 26.16C492.8 24.1808 494.914 22.5615 498.197 22.5615C504.63 22.5615 506.294 26.6548 506.294 32.0524V45.1417ZM540.305 34.1215C540.305 41.2734 535.042 45.6365 528.025 45.6365C521.008 45.6365 515.701 41.2734 515.701 34.1215C515.701 26.9696 521.008 22.5615 528.025 22.5615C535.042 22.5615 540.305 26.9696 540.305 34.1215ZM533.063 33.9866C533.063 30.703 531.174 28.2291 528.025 28.2291C524.832 28.2291 522.988 30.703 522.988 33.9866C522.988 37.2701 524.832 39.7441 528.025 39.7441C531.174 39.7441 533.063 37.2701 533.063 33.9866ZM556.305 14.1052L555.945 19.098C555.945 19.098 554.551 18.6932 553.291 18.6932C551.177 18.6932 550.637 19.9077 550.637 21.572V23.0113H555.405V28.454H550.637V45.1417H543.395V28.454H540.562V23.0113H543.395V21.7969C543.395 16.4892 545.914 13.5205 551.402 13.5205C554.236 13.5205 556.305 14.1052 556.305 14.1052ZM584.484 45.1417H577.557L577.512 42.6228C576.568 43.9722 574.229 45.6365 571.035 45.6365C564.918 45.6365 563.074 41.9031 563.074 36.3705V22.9664H570.271V35.381C570.271 37.9449 570.99 39.6991 573.554 39.6991C576.118 39.6991 577.287 37.675 577.287 34.7512V22.9664H584.484V45.1417ZM604.82 38.3047C604.82 43.6124 600.007 45.6365 595.419 45.6365C592.091 45.6365 588.582 44.602 586.063 42.218L588.762 37.9449C590.561 39.4742 593.53 40.6437 595.329 40.6437C597.128 40.6437 598.388 40.1939 598.388 38.7545C598.388 37.3151 595.149 36.5954 594.34 36.3256C590.651 35.381 587.413 34.0765 587.413 29.4885C587.413 25.1704 591.191 22.5166 595.824 22.5166C600.457 22.5166 603.066 24.2258 604.325 25.2604L601.986 29.4885C600.727 28.499 598.208 27.3295 596.409 27.3295C594.699 27.3295 593.755 27.7793 593.755 28.9488C593.755 30.1183 595.464 30.658 596.993 31.1078C600.817 32.2323 604.82 33.4018 604.82 38.3047ZM614.634 16.6691C614.634 18.9181 612.969 20.4025 610.54 20.4025C608.111 20.4025 606.447 18.9181 606.447 16.6691C606.447 14.4651 608.111 12.9357 610.54 12.9357C612.969 12.9357 614.634 14.4651 614.634 16.6691ZM614.139 45.1417H606.942V22.9664H614.139V45.1417ZM639.397 45.1417H632.2V33.5817C632.2 30.658 631.75 28.454 628.781 28.454C625.678 28.454 624.823 30.9729 624.823 34.1665V45.1417H617.626V22.9664H624.823L624.778 26.16H624.868C626.082 24.1808 628.107 22.5615 631.3 22.5615C637.732 22.5615 639.397 26.6997 639.397 32.0524V45.1417ZM666.066 40.6437C666.066 45.4116 664.852 48.2004 662.693 50.2245C660.534 52.2486 657.565 53.733 652.482 53.733C647.354 53.733 643.261 51.5739 641.732 50.4494L644.7 45.6365C646.005 46.6261 649.378 48.1554 652.347 48.1554C656.62 48.1554 658.914 46.3562 658.914 41.9931V41.2734H658.824C657.475 43.0276 655.316 44.422 651.852 44.422C646.41 44.422 641.372 40.6437 641.372 33.4918C641.372 26.3399 646.41 22.5615 651.852 22.5615C655.586 22.5615 657.7 24.2708 658.869 25.8001H658.959L658.869 22.9664H666.066V40.6437ZM659.094 33.5368C659.094 30.5231 657.115 28.1841 653.921 28.1841C650.728 28.1841 648.704 30.5231 648.704 33.5368C648.704 36.5954 650.728 38.9344 653.921 38.9344C657.115 38.9344 659.094 36.5954 659.094 33.5368ZM690.319 28.454H685.417V36.4155C685.417 38.3497 685.552 39.6991 687.756 39.6991C688.88 39.6991 689.915 39.2943 689.915 39.2943L690.274 44.9168C689.735 45.0518 687.756 45.6365 685.147 45.6365C679.389 45.6365 678.175 42.128 678.175 37.0452V28.454H675.026V23.0113H678.175V16.984H685.417V23.0113H690.319V28.454ZM713.817 45.1417H706.575V33.4918C706.575 30.793 706.215 28.454 703.202 28.454C700.188 28.454 699.243 30.9729 699.243 34.2565V45.1417H692.047V14.1052H699.243V21.482C699.243 23.731 699.199 26.16 699.199 26.16C700.323 24.1808 702.437 22.5615 705.721 22.5615C712.153 22.5615 713.817 26.6548 713.817 32.0524V45.1417ZM738.775 33.4018C738.775 34.4814 738.685 35.7858 738.685 35.7858H722.897C723.212 38.9794 725.641 40.4188 728.565 40.4188C731.444 40.4188 733.962 39.1593 735.222 38.3047L738.056 42.0381C737.336 42.5778 734.412 45.6365 727.53 45.6365C720.693 45.6365 715.7 41.4083 715.7 34.0765C715.7 26.7447 721.098 22.5615 727.665 22.5615C734.232 22.5615 738.775 26.9246 738.775 33.4018ZM732.073 31.6926C732.028 29.6684 730.544 27.2395 727.53 27.2395C724.561 27.2395 723.032 29.5785 722.942 31.6926H732.073ZM768.142 45.1417H761.26L761.125 42.8027C760.181 43.7473 758.382 45.6365 754.783 45.6365C750.87 45.6365 746.732 43.5224 746.732 38.5746C746.732 33.6267 751.275 31.9625 755.368 31.7825L760.945 31.5576V31.0628C760.945 28.7239 759.281 27.5094 756.402 27.5094C753.569 27.5094 750.735 28.7688 749.61 29.4885L747.721 24.8106C749.61 23.866 753.074 22.5615 757.212 22.5615C764.139 22.5615 768.142 25.4403 768.142 32.6372V45.1417ZM760.99 35.381L757.437 35.6059C755.233 35.6958 753.928 36.6404 753.928 38.3047C753.928 40.014 755.323 41.0485 757.302 41.0485C759.236 41.0485 760.541 39.7891 760.99 39.0244V35.381ZM796.031 34.0765C796.031 40.5987 791.983 45.6365 785.55 45.6365C782.267 45.6365 779.928 44.422 778.533 42.3529V53.2832H771.337V22.9664H778.174L778.129 25.8001H778.219C779.838 23.866 782.222 22.5615 785.595 22.5615C791.983 22.5615 796.031 27.5544 796.031 34.0765ZM788.699 33.9866C788.699 30.5681 786.585 28.2291 783.481 28.2291C780.423 28.2291 778.309 30.5681 778.309 33.9866C778.309 37.4051 780.423 39.7441 783.481 39.7441C786.585 39.7441 788.699 37.4051 788.699 33.9866ZM822.926 34.0765C822.926 40.5987 818.878 45.6365 812.446 45.6365C809.162 45.6365 806.823 44.422 805.429 42.3529V53.2832H798.232V22.9664H805.069L805.024 25.8001H805.114C806.733 23.866 809.117 22.5615 812.491 22.5615C818.878 22.5615 822.926 27.5544 822.926 34.0765ZM815.594 33.9866C815.594 30.5681 813.48 28.2291 810.376 28.2291C807.318 28.2291 805.204 30.5681 805.204 33.9866C805.204 37.4051 807.318 39.7441 810.376 39.7441C813.48 39.7441 815.594 37.4051 815.594 33.9866ZM834.009 38.5746L829.151 51.439H823.259L827.082 38.5746H834.009Z" fill="#003561"/>
</svg>
