<svg width="390" height="221" viewBox="0 0 390 221" fill="none" xmlns="http://www.w3.org/2000/svg">
<path fill-rule="evenodd" clip-rule="evenodd" d="M56.3228 176.445V181.607H58.8624V179.639C58.8624 178.337 58.8703 177.623 58.8822 177.528C58.91 177.326 58.9814 177.131 59.0767 176.984C59.2512 176.722 59.5012 176.603 59.8465 176.623C60.2909 176.647 60.5528 176.909 60.6282 177.409C60.6401 177.484 60.648 178.266 60.648 179.567V181.607H63.1875V179.23C63.1875 177.226 63.1836 176.814 63.1598 176.615C63.0764 175.901 62.8344 175.349 62.4257 174.937C62.0725 174.584 61.636 174.373 61.0964 174.302C60.8861 174.274 60.3583 174.29 60.1718 174.33C59.7115 174.429 59.3504 174.623 59.0251 174.949L58.8465 175.127V171.282H56.3268V176.445H56.3228ZM83.3174 171.362C83.25 171.52 80.6668 177.762 80.6668 177.77C80.6668 177.774 81.3413 177.778 82.1706 177.774H83.6745L85.0118 174.54C85.7498 172.762 86.353 171.302 86.353 171.294C86.353 171.286 85.6784 171.282 84.853 171.282H83.3531L83.3174 171.362ZM50.7557 174.294C50.1962 174.377 49.7716 174.532 49.347 174.814C48.4939 175.377 47.9106 176.334 47.7479 177.437C47.6725 177.945 47.7043 178.587 47.8312 179.079C48.1447 180.317 48.974 181.262 50.0692 181.627C50.466 181.758 50.6128 181.782 51.1009 181.782C51.454 181.782 51.5612 181.778 51.6882 181.75C52.2 181.639 52.577 181.444 52.8905 181.131L53.0532 180.968V181.611H55.5014V174.449H53.0532V175.107L52.9381 174.988C52.6445 174.679 52.2437 174.465 51.7477 174.346C51.581 174.306 51.5017 174.298 51.1882 174.294C50.9858 174.294 50.7954 174.294 50.7636 174.294H50.7557ZM66.9691 174.314C66.2747 174.405 65.5723 174.707 65.0565 175.127C64.0446 175.949 63.5526 177.27 63.751 178.627C63.9692 180.123 65.0287 181.294 66.5088 181.675C66.8421 181.758 67.1397 181.794 67.5365 181.794C68.2309 181.794 68.7587 181.675 69.338 181.389C70.4292 180.849 71.1554 179.833 71.3339 178.599C71.3776 178.302 71.3776 177.774 71.3339 177.48C71.2427 176.869 71.0165 176.298 70.6673 175.814C70.5284 175.619 70.1792 175.254 69.9888 175.107C69.4372 174.679 68.7904 174.409 68.0881 174.318C67.8063 174.282 67.2508 174.282 66.9731 174.318L66.9691 174.314ZM75.048 174.314C74.3615 174.405 73.7148 174.679 73.1711 175.103C72.9807 175.25 72.6315 175.615 72.4926 175.81C72.1434 176.294 71.9172 176.865 71.826 177.476C71.7823 177.77 71.7823 178.298 71.826 178.595C72.0561 180.187 73.2068 181.401 74.7822 181.714C75.0837 181.774 75.2583 181.79 75.6194 181.79C76.3059 181.79 76.8971 181.655 77.4566 181.365C78.9446 180.599 79.7105 178.952 79.3692 177.246C79.0557 175.671 77.8018 174.528 76.1551 174.314C75.8853 174.278 75.3258 174.278 75.048 174.314ZM39.542 174.457C39.542 174.457 40.2285 176.084 41.0618 178.056C41.899 180.032 42.5815 181.655 42.5815 181.667C42.5815 181.678 42.3355 182.266 42.0339 182.972C41.7324 183.678 41.4903 184.262 41.4903 184.266C41.4903 184.27 42.0974 184.27 42.8394 184.266H44.1886L46.2162 179.377C47.3313 176.691 48.2439 174.48 48.2439 174.469C48.2439 174.449 47.9741 174.445 46.9106 174.449H45.5734L44.752 176.536C44.2997 177.683 43.9267 178.615 43.9227 178.607C43.9187 178.603 43.5497 177.667 43.1013 176.524L42.2918 174.453H40.9189C40.161 174.445 39.546 174.449 39.546 174.453L39.542 174.457ZM51.9977 176.619C52.5056 176.734 52.9103 177.135 53.0492 177.655C53.1048 177.861 53.1048 178.202 53.0492 178.409C52.9103 178.929 52.5254 179.314 52.0056 179.452C51.7993 179.508 51.458 179.508 51.2517 179.452C50.8073 179.337 50.4263 179.008 50.2636 178.599C50.0851 178.151 50.1406 177.587 50.3986 177.21C50.7557 176.695 51.3548 176.472 51.9977 176.619ZM67.8063 176.627C68.3579 176.726 68.7864 177.135 68.9214 177.699C68.965 177.885 68.961 178.222 68.9134 178.413C68.7825 178.913 68.4095 179.294 67.9174 179.429C67.7468 179.476 67.3302 179.476 67.1635 179.429C66.7588 179.318 66.4374 179.048 66.2628 178.671C66.1596 178.449 66.1279 178.306 66.1279 178.036C66.1279 177.794 66.1517 177.671 66.235 177.464C66.3342 177.214 66.5247 176.98 66.7508 176.834C67.0445 176.639 67.4452 176.564 67.8103 176.627H67.8063ZM75.8813 176.627C76.3535 176.711 76.7463 177.024 76.9209 177.464C77.0043 177.671 77.0281 177.794 77.0281 178.036C77.0281 178.302 76.9963 178.449 76.8932 178.671C76.7186 179.044 76.3971 179.318 75.9924 179.429C75.8258 179.476 75.4051 179.472 75.2385 179.429C74.7504 179.294 74.3734 178.913 74.2425 178.413C74.1869 178.206 74.1869 177.865 74.2425 177.659C74.4131 177.024 74.9488 176.607 75.6075 176.599C75.6829 176.599 75.8059 176.611 75.8853 176.623L75.8813 176.627ZM81.2659 178.397C80.5318 178.488 79.9485 179.016 79.7898 179.734C79.7462 179.933 79.7501 180.286 79.8017 180.488C79.9565 181.111 80.4366 181.575 81.0596 181.706C81.139 181.722 81.2897 181.734 81.4048 181.734C81.8849 181.734 82.2659 181.579 82.6032 181.238C82.9444 180.897 83.0992 180.524 83.0992 180.032C83.0992 179.433 82.8254 178.933 82.3254 178.627C82.0318 178.445 81.6072 178.353 81.2659 178.397ZM60.3504 182.282C59.8385 182.452 59.6163 183.028 59.8822 183.484C59.9536 183.603 60.1202 183.75 60.2591 183.817C60.3782 183.873 60.394 183.877 60.6043 183.877C60.8147 183.877 60.8305 183.877 60.9496 183.817C61.1083 183.742 61.2869 183.571 61.3583 183.416C61.5527 183.004 61.3741 182.528 60.9535 182.325C60.8266 182.266 60.7948 182.258 60.6361 182.254C60.4972 182.25 60.4337 182.254 60.3544 182.282H60.3504ZM58.2275 182.321C57.549 182.456 57.1006 182.889 56.9299 183.575C56.9061 183.678 56.8863 183.817 56.8823 183.992L56.8704 184.254H56.3228V184.857L56.3308 185.46H56.6006L56.8704 185.472V188.325H58.3426V185.472H58.8425L59.3425 185.464V184.861L59.3504 184.258H58.3346L58.3465 184.123C58.3743 183.825 58.4934 183.663 58.7275 183.591C58.8862 183.543 59.1124 183.551 59.283 183.611C59.3425 183.631 59.3941 183.651 59.3981 183.651C59.402 183.651 59.406 183.373 59.406 183.036V182.421L59.2989 182.381C59.1203 182.313 58.9417 182.29 58.6521 182.29C58.4695 182.29 58.3267 182.301 58.2156 182.325L58.2275 182.321ZM64.2549 184.17C63.9454 184.238 63.6915 184.389 63.5288 184.607L63.4455 184.718V184.254H61.9535V188.321H63.4455V187.214C63.4455 186.575 63.4534 186.059 63.4653 185.996C63.4891 185.849 63.5764 185.67 63.6597 185.611C63.874 185.448 64.2153 185.484 64.3581 185.69C64.4692 185.853 64.4692 185.829 64.4772 187.135L64.4851 188.325H65.9731V186.992C65.9731 185.575 65.9652 185.412 65.8898 185.147C65.8144 184.889 65.7152 184.718 65.5327 184.535C65.3581 184.361 65.2073 184.27 64.9811 184.206C64.8025 184.155 64.4375 184.139 64.2629 184.178L64.2549 184.17ZM68.0166 184.159C67.7746 184.19 67.4175 184.333 67.227 184.472C66.7945 184.785 66.4969 185.278 66.3898 185.849C66.3501 186.075 66.3501 186.531 66.3898 186.75C66.4612 187.119 66.604 187.448 66.8064 187.714C67.0762 188.071 67.4611 188.313 67.8897 188.4C68.1238 188.448 68.5127 188.44 68.7111 188.381C68.9372 188.313 69.1277 188.206 69.2904 188.055L69.4372 187.916V188.325H70.9093V184.258H69.4372V184.678L69.342 184.575C69.1475 184.369 68.8737 184.23 68.5603 184.174C68.4135 184.151 68.1436 184.143 68.0127 184.159H68.0166ZM73.7941 184.174C73.5322 184.23 73.2307 184.412 73.0759 184.619L73.0124 184.702V184.254H72.2625L71.5125 184.262V186.289L71.5046 188.317H73.0124V187.162C73.0124 185.94 73.0124 185.916 73.0997 185.75C73.1791 185.595 73.3338 185.504 73.5164 185.504C73.6751 185.504 73.7624 185.535 73.8616 185.631C74.0203 185.789 74.0163 185.73 74.0203 187.107V188.317H75.5162L75.5083 186.841C75.5004 185.381 75.5004 185.361 75.4607 185.206C75.4369 185.119 75.3774 184.964 75.3258 184.861C75.2504 184.706 75.2107 184.647 75.0917 184.532C74.9369 184.377 74.806 184.289 74.6353 184.23C74.3814 184.139 74.0481 184.115 73.7901 184.17L73.7941 184.174ZM77.7225 184.174C77.0677 184.278 76.5321 184.631 76.2107 185.166C76.1154 185.329 76.04 185.516 75.9805 185.742C75.9329 185.924 75.9289 185.968 75.9289 186.281C75.9289 186.65 75.9448 186.773 76.0321 187.039C76.2583 187.734 76.8217 188.226 77.5757 188.392C77.6987 188.42 77.8098 188.428 78.0836 188.428C78.4724 188.428 78.6232 188.4 78.9129 188.285L79.0597 188.226V187.543L79.0676 186.861L78.9446 186.932C78.7661 187.039 78.6153 187.079 78.3891 187.091C78.155 187.103 78.028 187.079 77.8574 186.992C77.7026 186.912 77.5796 186.785 77.5003 186.619C77.4447 186.504 77.4407 186.48 77.4407 186.301C77.4407 186.143 77.4487 186.087 77.4844 186.004C77.6074 185.698 77.8931 185.516 78.278 185.5C78.5518 185.488 78.6629 185.516 79.0557 185.71C79.0637 185.71 79.0676 185.412 79.0676 185.035V184.357L78.9486 184.309C78.5915 184.166 78.1193 184.115 77.7225 184.178V184.174ZM81.1112 184.174C79.9763 184.373 79.2303 185.365 79.3414 186.531C79.3811 186.944 79.4883 187.265 79.6867 187.563C79.9684 187.988 80.393 188.261 80.9644 188.388C81.2104 188.444 81.8413 188.436 82.1072 188.381C82.5159 188.289 82.8809 188.099 83.1428 187.837C83.2658 187.714 83.4642 187.448 83.4484 187.432C83.4444 187.428 83.1587 187.317 82.8135 187.186L82.1865 186.944L82.0953 187.039C81.9802 187.154 81.8889 187.21 81.7461 187.246C81.3096 187.361 80.8691 187.131 80.7977 186.75L80.7818 186.666H82.1826L83.5833 186.658V186.317C83.5833 186.063 83.5714 185.936 83.5476 185.821C83.4484 185.361 83.2698 185.012 82.9762 184.726C82.6984 184.452 82.3849 184.285 81.9643 184.19C81.7778 184.151 81.3016 184.139 81.1112 184.174ZM59.8544 186.289V188.321H61.3464V184.254H59.8544V186.285V186.289ZM81.7064 185.305C81.8096 185.333 81.873 185.369 81.9683 185.456C82.0595 185.539 82.1111 185.631 82.1349 185.742L82.1508 185.817H81.4723C80.7064 185.817 80.766 185.833 80.8334 185.658C80.9445 185.361 81.3175 185.21 81.7064 185.305ZM68.8817 185.508C69.0841 185.559 69.3063 185.742 69.3936 185.932C69.6039 186.377 69.3936 186.889 68.9333 187.055C68.7944 187.107 68.5365 187.111 68.3936 187.067C68.1476 186.992 67.9333 186.777 67.8579 186.535C67.8262 186.432 67.8222 186.373 67.8262 186.246C67.8341 186.103 67.8421 186.067 67.9016 185.948C68.0801 185.587 68.4769 185.412 68.8817 185.516V185.508Z" fill="#B6BEC2"/>
<path fill-rule="evenodd" clip-rule="evenodd" d="M131.933 174.132C133.495 174.123 134.997 174.735 136.108 175.833C137.22 176.931 137.85 178.425 137.86 179.988C137.85 181.55 137.22 183.044 136.108 184.142C134.997 185.24 133.495 185.852 131.933 185.843C130.371 185.852 128.869 185.24 127.758 184.142C126.646 183.044 126.016 181.55 126.006 179.988C126.016 178.425 126.646 176.931 127.758 175.833C128.869 174.735 130.371 174.123 131.933 174.132V174.132ZM130.888 177.226V182.364C130.967 182.997 131.437 183.369 131.861 183.369C132.684 183.382 132.814 182.847 132.919 182.39V177.383C132.847 176.985 132.631 176.436 131.939 176.397C131.561 176.371 131.006 176.737 130.895 177.226H130.888ZM118.708 174.152V185.712H122.083V181.972H125.412V178.852H122.122V177.305H126.169L125.921 174.152H118.708V174.152Z" fill="#B6BEC2"/>
<path fill-rule="evenodd" clip-rule="evenodd" d="M136.286 174.178L139.595 179.746L136.162 185.687H139.791L141.436 182.847L143.133 185.713H146.861L143.283 179.694L146.475 174.191H142.807L141.416 176.541L139.98 174.172H136.286V174.178ZM185.446 173.852C185.191 173.852 184.924 173.871 184.636 173.904C182.58 174.152 181.607 175.314 181.242 176.868C180.981 178.859 181.568 179.446 182.156 179.981C182.906 180.647 183.951 180.961 185.093 181.287C185.805 181.483 186.621 181.698 186.51 182.482C186.458 182.847 186.229 183.16 185.296 183.108C184.016 183.121 183.762 182.416 183.468 181.737L180.726 182.351C181.092 184.081 182.169 185.21 183.52 185.576C185.557 186.137 186.856 185.804 187.926 185.145C189.323 184.283 190.054 182.501 189.467 180.588C189.333 180.176 189.102 179.801 188.795 179.494C188.487 179.188 188.111 178.959 187.698 178.826C187.123 178.624 186.562 178.343 185.185 178.062C184.61 177.945 184.166 177.644 184.219 177.233C184.251 176.966 184.447 176.378 185.413 176.385C186.196 176.398 186.523 177.044 186.875 177.56L189.434 176.75C188.932 175.281 187.913 173.839 185.452 173.852H185.446ZM173.448 174.172L172.103 180.967L170.667 174.178H167.697L170.406 185.687H173.128L174.46 179.146L175.824 185.739H178.481L181.209 174.185H178.794L177.364 180.869L175.954 174.165H173.448V174.172ZM159.753 174.172V185.667H167.325V183.036H162.638V181.032H166.411V178.552H162.658V176.842H167.227V174.165H159.753V174.172ZM156.11 174.172V179.981L152.624 174.185H149.256V185.66H152.207L152.226 179.074L156.176 185.667H159.009V174.165H156.117L156.11 174.172Z" fill="#B6BEC2"/>
<path fill-rule="evenodd" clip-rule="evenodd" d="M300.374 213.594L297.247 203.06H300.571L301.987 213.594H300.374ZM296.719 213.594H292.934L291.386 211.224L289.872 213.594H286.152L289.576 208.03L286.383 203.06H290.103L291.486 205.298L292.67 203.06H296.456L293.197 208.096L296.719 213.594ZM282.136 213.561C278.942 213.561 276.342 211.224 276.342 208.294C276.342 205.397 278.943 203.026 282.136 203.026C285.328 203.026 287.929 205.363 287.929 208.294C287.963 211.224 285.362 213.561 282.136 213.561ZM283.189 205.957C283.189 205.957 283.222 205.2 282.169 205.2C281.149 205.2 281.214 205.957 281.214 205.957V210.763C281.214 210.763 281.181 211.289 282.136 211.289C283.091 211.289 283.189 210.894 283.189 210.368V205.957ZM272.687 207.339H275.979V210.302H272.687V213.594H269.363V203.06H276.408L276.441 206.023H272.687V207.339ZM273.445 214.549C273.61 214.713 273.676 214.944 273.676 215.207C273.676 215.536 273.544 215.767 273.314 215.964C273.611 216.129 273.742 216.392 273.742 216.754C273.742 217.018 273.643 217.248 273.479 217.413C273.314 217.644 273.083 217.874 272.787 217.874H269.363V214.253H272.687C273.016 214.253 273.247 214.351 273.445 214.549ZM270.186 216.919H272.753C272.885 216.919 272.918 216.82 272.918 216.656C272.918 216.491 272.852 216.393 272.753 216.393H270.186V216.919ZM270.186 215.602H272.687C272.819 215.602 272.852 215.504 272.852 215.339C272.852 215.174 272.786 215.076 272.687 215.076H270.186V215.602ZM275.025 216.656C275.025 216.82 275.091 216.919 275.19 216.919H277.494C277.593 216.919 277.659 216.82 277.659 216.656V214.253H278.482V216.656C278.482 216.952 278.383 217.216 278.219 217.413C278.021 217.61 277.791 217.874 277.494 217.874H275.19C274.893 217.874 274.663 217.611 274.465 217.413C274.267 217.215 274.202 216.952 274.202 216.656V214.253H275.025V216.656ZM282.202 216.393H279.996C279.699 216.393 279.469 216.294 279.271 216.063C279.074 215.866 279.008 215.602 279.008 215.306C279.008 215.011 279.107 214.747 279.271 214.549C279.469 214.352 279.699 214.22 279.996 214.22H283.025V215.043H279.996C279.897 215.043 279.831 215.142 279.831 215.306C279.831 215.471 279.897 215.57 279.996 215.57H282.202C282.498 215.57 282.728 215.668 282.926 215.899C283.091 216.096 283.189 216.36 283.189 216.656C283.189 216.952 283.091 217.182 282.926 217.413C282.729 217.61 282.498 217.874 282.202 217.874H279.173V216.919H282.202C282.3 216.919 282.366 216.82 282.366 216.656C282.366 216.491 282.334 216.393 282.202 216.393ZM284.44 217.874H283.617V214.253H284.44V217.874ZM287.897 216.59V214.253H288.72V217.874H287.897L285.79 215.405V217.874H284.967V214.253H285.79L287.897 216.59ZM292.967 215.076H290.037V215.602H292.769V216.425H290.037V216.952H292.934V217.873H289.214V214.252H292.934V215.075H292.967V215.076ZM296.687 216.393H294.481C294.184 216.393 293.955 216.294 293.757 216.063C293.559 215.866 293.493 215.602 293.493 215.306C293.493 215.011 293.592 214.747 293.757 214.549C293.954 214.352 294.184 214.22 294.481 214.22H297.51V215.043H294.481C294.382 215.043 294.316 215.142 294.316 215.306C294.316 215.471 294.382 215.57 294.481 215.57H296.687C296.983 215.57 297.213 215.668 297.411 215.899C297.576 216.096 297.674 216.36 297.674 216.656C297.674 216.952 297.576 217.182 297.411 217.413C297.214 217.61 296.983 217.874 296.687 217.874H293.658V216.919H296.687C296.785 216.919 296.851 216.82 296.851 216.656C296.851 216.491 296.785 216.393 296.687 216.393ZM301.296 216.393H299.09C298.793 216.393 298.563 216.294 298.365 216.063C298.168 215.866 298.102 215.602 298.102 215.306C298.102 215.011 298.201 214.747 298.365 214.549C298.563 214.352 298.793 214.22 299.09 214.22H302.119V215.043H299.09C298.991 215.043 298.925 215.142 298.925 215.306C298.925 215.471 298.991 215.57 299.09 215.57H301.296C301.592 215.57 301.822 215.668 302.02 215.899C302.185 216.096 302.283 216.36 302.283 216.656C302.283 216.952 302.185 217.182 302.02 217.413C301.823 217.61 301.592 217.874 301.296 217.874H298.267V216.919H301.296C301.394 216.919 301.46 216.82 301.46 216.656C301.46 216.491 301.394 216.393 301.296 216.393ZM296.456 204.541L299.781 213.594H297.674L294.118 207.998L296.456 204.541Z" fill="#B6BEC2"/>
<path d="M300.926 172.724C299.749 172.729 298.578 173.348 297.994 174.581L297.724 175.15V179.853V184.556L297.994 185.125C298.413 186.009 299.061 186.567 300.033 186.875C300.729 187.096 301.84 186.979 302.548 186.613C303.007 186.376 303.657 185.668 303.908 185.133L304.138 184.641V179.853V175.064L303.887 174.557C303.284 173.329 302.102 172.719 300.926 172.724ZM300.979 175.054C301.022 175.054 301.064 175.058 301.105 175.067C301.24 175.097 301.467 175.254 301.61 175.417L301.872 175.714V179.831V183.949L301.679 184.23C301.573 184.385 301.375 184.551 301.238 184.598C301.102 184.646 300.948 184.685 300.896 184.684C300.69 184.681 300.37 184.453 300.185 184.179L299.99 183.89V179.863C299.991 176.02 299.997 175.823 300.156 175.561C300.344 175.252 300.681 175.052 300.979 175.054Z" fill="#B6BEC2"/>
<path d="M327.888 186.831C326.897 186.463 326.246 185.83 325.87 184.868C325.738 184.53 325.725 183.959 325.727 178.712L325.73 172.928L326.885 172.904L328.04 172.881L328.041 178.42C328.042 182.7 328.067 184.007 328.15 184.172C328.21 184.29 328.394 184.459 328.56 184.549C328.934 184.75 329.247 184.689 329.59 184.346L329.836 184.1V178.49V172.881L330.992 172.904L332.148 172.928L332.148 178.715C332.147 184.37 332.143 184.513 331.969 184.978C331.717 185.65 331.076 186.325 330.362 186.668C329.619 187.025 328.594 187.092 327.888 186.831Z" fill="#B6BEC2"/>
<path d="M289.642 179.854V172.885H292.507H295.372V174.083V175.28H293.704H292.037V176.909V178.538L293.084 178.523L294.132 178.509L294.156 179.673L294.18 180.838H293.108H292.037V183.83V186.823H290.839H289.642V179.854Z" fill="#B6BEC2"/>
<path d="M307.345 179.854V172.885H309.123C311.059 172.885 311.588 172.966 312.262 173.361C312.771 173.658 313.302 174.257 313.572 174.837C313.791 175.306 313.799 175.384 313.827 177.135C313.85 178.592 313.829 179.053 313.719 179.485C313.559 180.107 313.268 180.638 312.866 181.04L312.582 181.324L313.332 183.891C313.744 185.302 314.108 186.54 314.14 186.64C314.197 186.821 314.185 186.823 312.964 186.823H311.729L311.37 185.434C311.012 184.049 310.098 180.58 310.021 180.312C309.992 180.21 310.051 180.155 310.234 180.115C310.574 180.04 311.187 179.505 311.332 179.157C311.417 178.954 311.45 178.446 311.45 177.328V175.78L311.2 175.53C310.967 175.297 310.904 175.28 310.302 175.28H309.654V181.051V186.823H308.499H307.345V179.854Z" fill="#B6BEC2"/>
<path d="M318.547 186.759C318.546 186.724 318.537 184.136 318.525 181.009L318.505 175.322L317.457 175.298L316.41 175.274V174.08V172.885H319.659H322.909V174.083V175.28H321.883H320.857V181.051V186.823H319.702C319.067 186.823 318.547 186.794 318.547 186.759Z" fill="#B6BEC2"/>
<path d="M335.224 179.854V172.885H336.403H337.583L337.674 173.206C337.724 173.382 338.113 174.623 338.539 175.964C338.965 177.304 339.436 178.795 339.584 179.277C339.733 179.759 339.891 180.154 339.936 180.154C339.985 180.154 340.014 178.75 340.011 176.541L340.005 172.928L341.163 172.904L342.322 172.881V179.852V186.823H341.014H339.706L339.461 186.032C339.327 185.597 339.089 184.843 338.934 184.356C338.779 183.868 338.432 182.762 338.163 181.897C337.894 181.032 337.643 180.325 337.604 180.325C337.565 180.325 337.533 181.787 337.533 183.574V186.823H336.378H335.224L335.224 179.854Z" fill="#B6BEC2"/>
<path d="M345.4 179.854V172.885H348.265H351.13V174.083V175.28H349.418H347.706L347.729 176.883L347.752 178.486H348.842H349.933L349.933 179.662L349.933 180.838H348.821H347.709V182.633V184.429H349.42H351.13V185.626V186.823H348.265H345.4L345.4 179.854Z" fill="#B6BEC2"/>
<path d="M238.337 173.148C238.337 173.148 237.846 173.161 237.557 173.155C237.544 173.276 237.409 174.365 237.288 175.239C237.154 176.052 236.071 182.062 235.702 183.857C235.608 184.401 235.305 185.934 235.278 186.089C234.935 186.129 234.525 186.169 234.263 186.176C234.229 186.176 234.169 186.19 234.142 186.19V186.499C234.176 186.499 234.344 186.512 234.471 186.505C234.76 186.499 235.594 186.458 235.749 186.458C236.347 186.458 236.744 186.499 237.295 186.512C237.302 186.512 237.456 186.512 237.523 186.505V186.19C237.476 186.19 237.416 186.19 237.382 186.19C237.039 186.183 236.703 186.156 236.36 186.109C236.394 185.9 236.905 182.788 237.147 181.544C237.611 179.238 237.933 177.605 237.933 177.605L238.021 177.807L241.678 186.519L242.343 186.526C242.343 186.526 242.727 185.584 243.177 184.522C243.19 184.495 243.224 184.422 243.264 184.314C243.742 183.218 246.095 177.639 246.095 177.639C246.095 177.639 246.115 177.739 246.155 177.921C246.377 179.017 247.137 182.956 247.298 183.904C247.372 184.395 247.446 184.892 247.486 185.181C247.547 185.591 247.587 185.995 247.587 186.109C247.513 186.116 246.767 186.183 246.484 186.19C246.444 186.19 246.37 186.19 246.363 186.19V186.505C246.464 186.505 246.565 186.512 246.659 186.505C247.237 186.492 247.789 186.452 248.367 186.452C249.012 186.452 250.061 186.505 250.733 186.512C250.807 186.512 250.941 186.505 250.941 186.505V186.196C250.901 186.196 250.733 186.19 250.673 186.183C250.37 186.156 249.866 186.109 249.738 186.102C249.738 186.102 249.657 185.645 249.543 185.107C249.106 182.983 247.856 176.516 247.661 174.929C247.594 174.385 247.412 173.155 247.412 173.155H246.659C246.659 173.155 246.276 174.257 245.926 175.259C245.684 175.944 245.362 176.792 245.113 177.444C243.89 180.657 242.518 183.648 242.518 183.648C242.518 183.648 239.607 176.697 239.453 176.294C239.291 175.897 238.337 173.148 238.337 173.148ZM217.396 173.155L217.403 173.887L217.39 175.676L217.585 175.669L217.605 174.076C217.605 174.076 218.667 174.069 218.808 174.069H220.791L222.068 174.076V185.141V186.095L222.042 186.102C221.874 186.116 221.215 186.156 220.953 186.163C220.892 186.163 220.852 186.169 220.852 186.163V186.485C220.899 186.485 221.026 186.492 221.047 186.492C221.679 186.485 222.526 186.432 223.131 186.432C223.742 186.432 224.61 186.492 225.141 186.499C225.194 186.499 225.255 186.492 225.309 186.492V186.196H225.241C225.073 186.196 224.132 186.136 224.031 186.122C224.025 185.974 224.011 185.255 224.011 185.242L224.018 174.082H224.993H227.534L228.381 174.096C228.388 174.156 228.428 174.963 228.428 174.983C228.428 175.044 228.462 175.642 228.462 175.79H228.663L228.65 173.982L228.656 173.168C227.91 173.188 226.008 173.215 223.057 173.215C220.509 173.208 218.069 173.182 217.396 173.155ZM229.221 173.155V173.471C229.322 173.477 229.914 173.531 230.055 173.538C230.169 173.551 230.33 173.565 230.445 173.578C230.445 173.679 230.445 174.378 230.451 174.654C230.472 177.276 230.451 183.064 230.445 185.114C230.445 185.705 230.438 186.089 230.438 186.089C230.303 186.116 230.162 186.129 230.028 186.129C229.88 186.142 229.342 186.183 229.221 186.19V186.505C229.268 186.505 229.362 186.519 229.416 186.519C230.028 186.519 230.875 186.445 231.5 186.445C232.132 186.445 232.972 186.519 233.47 186.526C233.51 186.526 233.618 186.512 233.658 186.512V186.196H233.618C233.597 186.19 232.959 186.163 232.804 186.149C232.656 186.142 232.508 186.122 232.367 186.102C232.367 186.095 232.367 186.001 232.367 185.84C232.367 185.692 232.367 185.443 232.367 185.168C232.367 183.104 232.374 176.966 232.374 174.62C232.374 174.17 232.374 173.8 232.374 173.598C232.515 173.592 233.073 173.531 233.275 173.511C233.282 173.511 233.55 173.498 233.658 173.491V173.161C232.966 173.161 232.058 173.215 231.386 173.215C230.673 173.215 229.806 173.155 229.221 173.155ZM261.146 173.168H260.938C260.474 173.168 259.297 173.182 257.913 173.188C257.066 173.195 256.4 173.202 255.526 173.202C254.914 173.208 254.054 173.235 253.53 173.229C252.683 173.229 251.997 173.175 251.62 173.175C251.446 173.175 251.345 173.182 251.291 173.175C251.291 173.182 251.291 173.491 251.291 173.491C251.345 173.498 251.399 173.504 251.452 173.504C251.667 173.518 252.064 173.551 252.266 173.578C252.306 173.585 252.373 173.598 252.562 173.619C252.562 173.686 252.568 174.486 252.568 174.963C252.568 175.407 252.562 185.269 252.562 185.269C252.562 185.282 252.541 186.062 252.541 186.122C252.145 186.176 251.741 186.21 251.345 186.216H251.278V186.532C251.311 186.532 251.452 186.539 251.533 186.539C251.889 186.539 252.804 186.485 253.731 186.485C254.383 186.485 255.103 186.512 255.835 186.519C256.729 186.532 257.644 186.532 258.457 186.546C259.802 186.566 260.891 186.566 261.247 186.566C261.247 186.566 261.287 184.072 261.287 183.87H261.092C261.092 184.085 261.012 184.872 261.012 184.906C260.985 185.201 260.958 185.517 260.938 185.665C260.938 185.665 260.844 185.672 260.797 185.672C260.575 185.665 259.869 185.692 259.855 185.692H256.709L254.498 185.652L254.484 185.04V180.274C254.881 180.26 255.479 180.24 255.849 180.24C256.158 180.24 256.898 180.22 257.308 180.227C258.303 180.227 259.19 180.233 259.264 180.24C259.425 180.247 259.734 180.254 259.849 180.26C259.855 180.301 259.869 180.368 259.869 180.388C259.929 180.751 259.963 181.006 260.003 181.363C260.01 181.396 260.01 181.423 260.017 181.457H260.245C260.245 181.457 260.252 181.329 260.245 181.249C260.239 180.966 260.225 180.408 260.225 179.79C260.225 179.359 260.252 178.701 260.252 178.385C260.252 178.297 260.245 178.237 260.245 178.217L260.037 178.223C260.037 178.277 260.03 178.338 260.017 178.391C259.997 178.627 259.929 178.929 259.876 179.245C259.862 179.279 259.855 179.306 259.849 179.339C259.822 179.346 259.176 179.38 259.116 179.38C259.096 179.38 258.148 179.407 258.128 179.407L254.484 179.393L254.491 174.143C254.491 174.143 254.955 174.129 255.082 174.129C255.607 174.129 256.461 174.123 257.334 174.123C258.612 174.123 259.849 174.129 259.849 174.136C259.855 174.143 260.232 174.143 260.239 174.15C260.245 174.156 260.716 174.17 260.837 174.176C260.837 174.176 260.844 174.217 260.85 174.264C260.904 174.815 260.944 175.474 260.965 175.709V175.803H261.16C261.16 175.46 261.139 174.418 261.139 173.753C261.139 173.538 261.139 173.363 261.139 173.269L261.146 173.168Z" fill="#B6BEC2"/>
<path d="M220.528 206.243L220.452 208.501C217.816 208.32 217.063 208.998 217.063 211.21V211.496H214.804V206.379H217.063V207.839C217.741 206.65 218.66 206.108 220.528 206.243ZM166.75 215.425H169.01V206.695H166.75V215.425ZM177.943 206.258C176.361 206.258 175.397 206.966 174.885 207.748V202.932H162.984V205.039H172.776V211.496H174.93C174.93 209.644 176 208.336 177.31 208.336C178.44 208.336 178.952 208.892 178.952 210.894V215.425H181.211V210.081C181.211 207.523 179.901 206.258 177.943 206.258ZM186.83 213.693C185.46 213.693 184.571 212.866 184.42 211.496H182.296C182.507 213.904 184.089 215.605 186.815 215.605C188.924 215.605 190.114 214.657 190.732 213.227L188.819 212.384C188.532 213.242 188.005 213.693 186.83 213.693ZM186.74 206.303C185.933 206.285 185.135 206.472 184.42 206.845L185.505 208.38C185.911 208.17 186.348 208.064 186.815 208.079C188.081 208.079 188.728 208.907 188.819 209.991H186.634V211.496H190.943C190.973 211.27 190.988 211.059 190.988 210.834C191.003 207.552 188.834 206.303 186.74 206.303ZM209.109 213.693C207.739 213.693 206.85 212.866 206.699 211.496H204.575C204.786 213.904 206.368 215.605 209.094 215.605C211.203 215.605 212.393 214.657 213.011 213.227L211.098 212.384C210.797 213.242 210.269 213.693 209.109 213.693ZM209.034 206.303C208.228 206.285 207.43 206.472 206.714 206.845L207.799 208.38C208.206 208.17 208.642 208.064 209.109 208.079C210.375 208.079 211.023 208.907 211.113 209.991H208.929V211.496H213.237C213.267 211.27 213.282 211.059 213.282 210.834C213.297 207.552 211.128 206.303 209.034 206.303ZM235.516 213.693C234.145 213.693 233.257 212.866 233.106 211.496H230.982C231.193 213.904 232.774 215.605 235.501 215.605C237.61 215.605 238.8 214.657 239.418 213.227L237.504 212.384C237.203 213.242 236.676 213.693 235.516 213.693ZM235.396 206.303C234.589 206.285 233.791 206.472 233.076 206.845L234.16 208.38C234.567 208.17 235.004 208.064 235.471 208.079C236.736 208.079 237.384 208.907 237.474 209.991H235.29V211.496H239.598C239.628 211.27 239.644 211.059 239.644 210.834C239.659 207.552 237.489 206.303 235.396 206.303ZM192.148 201.863L196.212 211.496H198.682L195.582 203.835H199.589V201.878L192.148 201.864V201.863ZM204.199 201.878L199.544 213.664L198.851 215.425H201.216L206.805 201.878H204.199V201.878ZM224.972 215.214C225.936 215.214 226.734 214.943 227.291 214.476L226.388 213.047C226.101 213.167 225.785 213.212 225.469 213.212C224.233 213.212 223.525 212.475 223.284 211.496H221.07C221.371 213.588 222.878 215.214 224.972 215.214ZM227.758 207.643C227.246 206.83 226.207 206.243 224.761 206.243C223.345 206.228 222.034 206.996 221.341 208.245L223.224 209.449C223.571 208.727 224.249 208.245 225.288 208.245C226.764 208.245 227.758 209.389 227.758 210.744C227.758 211 227.728 211.256 227.653 211.496H230.018V206.394H227.758V207.643ZM225.574 217.261C224.113 217.261 223.571 216.553 223.465 215.726H221.311C221.356 217.306 222.411 219.037 225.619 219.037C227.788 219.037 229.204 217.953 229.792 216.328L227.758 215.62C227.472 216.674 226.689 217.261 225.574 217.261Z" fill="#B6BEC2"/>
<path d="M92.8709 220.675C91.6758 220.675 90.6585 219.925 90.6585 218.226C90.6585 215.603 92.9169 213.609 93.9406 213.046C93.9406 213.046 95.3737 213.872 96.8606 214.403C93.9061 212.533 92.0187 209.128 92.0187 205.348C92.0187 201.816 93.883 200.225 95.5669 200.225C96.9207 200.225 100.132 201.715 100.132 207.432C100.132 213.583 96.922 220.675 92.8722 220.675H92.8709Z" fill="#B6BEC2"/>
<path d="M122.281 216.586H120.882V211.57C120.882 210.602 120.732 209.904 120.434 209.471C120.136 209.039 119.633 208.822 118.928 208.822C118.331 208.822 117.824 209.095 117.405 209.641C116.987 210.188 116.778 210.842 116.778 211.603V216.584H115.38V211.398C115.38 209.681 114.717 208.822 113.393 208.822C112.779 208.822 112.272 209.08 111.874 209.594C111.476 210.108 111.276 210.779 111.276 211.603V216.584H109.878V207.851H111.276V209.233H111.311C111.93 208.175 112.835 207.646 114.024 207.646C114.621 207.646 115.141 207.813 115.585 208.146C116.029 208.478 116.332 208.915 116.497 209.455C117.146 208.249 118.112 207.646 119.398 207.646C121.32 207.646 122.281 208.833 122.281 211.204V216.587V216.586Z" fill="#B6BEC2"/>
<path d="M138.003 216.585H136.604V211.604C136.604 209.75 135.927 208.823 134.574 208.823C133.874 208.823 133.295 209.087 132.837 209.613C132.379 210.139 132.15 210.803 132.15 211.605V216.586H130.752V207.851H132.15V209.3H132.185C132.845 208.197 133.799 207.646 135.051 207.646C136.007 207.646 136.737 207.954 137.243 208.571C137.749 209.188 138.002 210.08 138.002 211.245V216.585H138.003Z" fill="#B6BEC2"/>
<path d="M123.807 214.757V216.255C123.807 216.255 124.549 216.791 125.999 216.791C128.199 216.791 129.165 215.564 129.165 214.224C129.165 211.322 125.257 212.016 125.257 210.09C125.257 209.366 125.833 208.842 126.8 208.842C127.93 208.842 128.762 209.445 128.762 209.445V208.058C128.762 208.058 127.987 207.629 126.873 207.629C124.992 207.629 123.82 208.804 123.82 210.215C123.82 213.085 127.716 212.524 127.716 214.393C127.716 215.253 127.01 215.564 126.096 215.564C124.789 215.564 123.807 214.755 123.807 214.755V214.757Z" fill="#B6BEC2"/>
<path d="M98.0339 218.726C98.0339 219.618 98.3449 219.968 98.8209 219.968C100.012 219.968 101.911 217.186 101.838 214.267C103.645 212.361 105.811 209.375 105.811 206.984C105.811 206.405 105.647 205.918 104.962 205.918C103.912 205.918 102.414 207.726 101.463 209.521C100.546 211.382 99.6884 213.502 98.5496 216.414C98.2835 217.145 98.0339 218.029 98.0339 218.728V218.726Z" fill="#B6BEC2"/>
<path d="M321.237 33.1626C320.83 32.8572 320.959 32.1929 319.636 32.3362C318.939 32.4092 318.149 32.2579 317.398 32.2442C316.776 32.2244 316.07 32.0323 315.616 32.4021C314.877 32.3825 314.139 32.3566 313.412 32.3376C312.376 32.8252 311.128 32.4433 309.976 32.4665C309.788 32.4695 309.533 32.3981 309.425 32.444C308.081 32.9798 306.568 32.5001 305.135 32.5085C304.301 32.5163 303.448 32.4262 302.605 32.3818C302.154 32.7001 301.51 32.6533 300.855 32.6059C300.2 32.5521 299.543 32.5369 298.887 32.5023C298.325 32.4727 297.763 32.4367 297.201 32.4136C297.037 32.4049 296.812 32.4383 296.727 32.4983C296.374 32.7314 296.194 32.5735 295.909 32.423C295.748 32.3436 295.397 32.3251 295.172 32.352C294.924 32.3841 294.738 32.5679 294.515 32.569C293.67 32.5568 292.813 32.5504 291.997 32.4365C291.1 32.3053 290.46 32.633 289.673 32.6304C289.027 32.6351 288.361 32.5677 287.705 32.5332C287.05 32.4987 286.355 32.5331 285.751 32.411C284.972 32.2603 284.71 32.7692 283.988 32.6602C283.359 32.5625 282.677 32.5782 282.021 32.5437C281.459 32.5141 280.87 32.5348 280.347 32.4427C279.602 32.3067 279.195 32.6789 278.585 32.6662C277.741 32.6475 276.9 32.5581 276.054 32.5523C275.35 32.5475 274.655 32.3625 273.936 32.628C273.254 32.876 272.316 32.6265 271.495 32.6091C270.685 32.5923 269.837 32.4251 269.183 32.7972C268.752 32.7358 268.253 32.845 267.89 32.5872C267.528 32.3293 267.141 32.3219 266.731 32.5261C266.345 32.7188 265.658 32.5987 265.338 32.8852C265.289 32.9278 264.986 32.886 264.81 32.8832C264.154 32.8486 263.498 32.8141 262.842 32.7796C262.093 32.7401 261.317 32.7574 260.606 32.649C259.86 32.5323 259.455 32.8788 258.844 32.8724C258.281 32.8686 257.72 32.8133 257.158 32.7837C256.502 32.7491 255.82 32.7649 255.203 32.6678C254.527 32.5549 254.318 32.9633 253.721 32.919C252.879 32.8553 252.035 32.8238 251.192 32.7858C250.442 32.7464 249.704 32.7204 248.954 32.6874C248.319 33.1444 247.387 32.7791 246.631 32.8684C245.685 32.9799 244.785 33.1261 243.745 33.0262C242.635 32.9162 241.495 32.9336 240.385 32.8236C239.684 32.7544 239.194 32.9222 238.635 33.0541C237.91 33.2224 237.176 33.3322 236.322 33.255C235.212 33.1514 234.074 33.1366 232.951 33.0581C232.611 33.0403 232.419 33.1205 232.26 33.2283C232.078 33.3478 232.007 33.3505 231.851 33.2067C231.481 32.8582 230.707 32.8497 230.383 32.9746C229.88 33.1611 229.433 33.1827 228.87 33.166C228.26 33.1468 227.542 32.9477 227.077 33.3168C227.052 33.3349 226.912 33.3275 226.889 33.307C226.348 32.8848 225.93 33.0112 225.296 33.236C224.925 33.3649 224.19 33.2681 223.666 33.1825C222.991 33.063 222.759 33.4638 222.197 33.4278C221.542 33.3868 220.885 33.3587 220.229 33.3242C219.48 33.2848 218.703 33.3149 217.994 33.1872C217.226 33.0499 217.009 33.5999 216.23 33.4428C215.626 33.3206 214.931 33.3551 214.275 33.3205C213.561 33.2829 212.792 33.165 212.245 33.5234C211.589 33.4889 210.934 33.435 210.277 33.4327C210.042 33.4332 209.846 33.5778 209.608 33.6363C209.239 33.733 208.913 33.6707 208.653 33.4828C208.382 33.2878 208.033 33.2242 207.708 33.3685C207.42 33.4952 207.146 33.5519 206.747 33.5631C205.594 33.5927 204.327 33.1131 203.311 33.6791L200.5 33.5311C199.675 34.0426 198.591 33.6693 197.626 33.6896C196.651 33.7028 195.598 33.4086 194.753 33.848C194.047 33.8625 193.251 33.5883 192.678 33.9905C191.846 33.966 191.013 33.9416 190.193 33.9113C189.911 33.8965 189.63 33.8817 189.349 33.8669C188.412 33.8176 187.475 33.7683 186.539 33.719C186.269 33.7048 185.872 33.6645 185.751 33.7356C185.239 34.0829 184.493 33.9855 183.959 33.8607C183.065 33.6587 182.676 34.148 181.915 34.1015C180.908 34.0421 179.782 33.7828 178.923 34.0473C177.897 34.3546 176.938 34.0525 175.962 34.0785C175.409 34.0946 175.155 34.4491 174.492 34.3367C173.968 34.2446 173.379 34.2781 172.828 34.2556C172.758 34.2519 172.673 34.3119 172.624 34.3481C172.205 34.7132 171.393 34.3027 170.874 34.5722C170.282 34.883 169.474 34.6275 168.757 34.6285C168.1 34.6262 167.445 34.5659 166.789 34.5314C165.849 34.9852 164.702 34.6925 163.635 34.6686C162.989 34.654 162.628 35.0416 161.872 34.905C161.256 34.7951 160.574 34.8108 159.917 34.7956C159.776 34.7882 159.652 34.9236 159.485 34.96C158.939 35.0796 158.381 35.1987 157.812 35.2914C157.243 35.384 156.731 35.5184 156.072 35.5482C155.048 35.5976 154.216 36.0055 153.343 36.2951C153.2 36.3392 152.943 36.3128 152.87 36.367C152.686 36.5186 152.582 36.7003 152.433 36.8667C151.973 37.3394 151.998 37.5343 152.611 37.9344C153.167 38.2992 153.159 38.2407 154.533 38.2356C155.355 38.2337 155.933 37.7543 156.847 38.0153C156.916 38.0383 157.157 37.922 157.255 37.8432C157.733 37.4554 158.439 37.4345 159.221 37.5337C159.641 37.5881 159.873 37.4196 160.193 37.359C160.833 37.2379 161.557 37.3276 162.192 37.09C162.563 36.9547 163.419 37.2062 163.767 37.0632C164.295 36.8522 164.774 36.8968 165.313 36.9187C165.875 36.9483 166.437 36.9779 167 37.0075L169.81 37.1555C170.655 36.716 171.709 36.9973 172.684 36.9906C172.755 36.9943 172.851 36.9477 172.9 36.9116C173.334 36.4827 174.251 36.9117 174.889 36.6097C175.479 36.331 176.486 36.6035 177.307 36.6273C178.152 36.6524 178.993 36.7225 179.837 36.754C180.728 36.788 181.68 36.993 182.43 36.5872C183.273 36.6316 184.115 36.6953 184.96 36.7075C185.183 36.7128 185.391 36.556 185.629 36.5039C185.783 36.4669 186.008 36.44 186.146 36.486C186.377 36.5563 186.578 36.7668 186.777 36.7645C187.083 36.7612 187.35 36.5881 187.669 36.5597C188.636 36.4816 189.617 36.8171 190.63 36.5285C191.62 36.245 192.801 36.5589 193.904 36.5846C194.361 36.5958 194.468 36.3626 194.811 36.3162C195.331 36.2403 195.538 36.5609 195.932 36.6462C196.589 36.2291 197.489 36.5217 198.277 36.5051C198.559 36.5006 198.929 36.6039 199.109 36.536C200.464 36.0136 201.976 36.4998 203.399 36.465C203.764 36.4583 204.15 36.4916 204.524 36.5242C205.097 36.5672 205.524 36.4929 206.037 36.3392C206.502 36.2024 207.312 36.4322 207.742 36.0741L209.428 36.1628C210.271 36.2072 211.124 36.3037 211.947 36.2761C212.453 36.2575 212.483 36.8076 213.003 36.5252C213.401 36.3139 213.864 36.448 214.289 36.4058C214.62 36.3716 214.876 36.185 215.206 36.1701C215.654 36.1421 216.143 36.2066 216.612 36.2312L218.298 36.32C219.536 35.7979 220.967 36.2605 222.297 36.2207C222.485 36.2177 222.739 36.2892 222.847 36.2433C224.096 35.7218 225.528 36.1972 226.857 36.1575C227.221 36.1444 227.766 36.2892 227.947 36.1955C228.489 35.9272 229.064 35.9446 229.731 35.9926C230.386 36.04 231.043 36.0616 231.698 36.0961C232.354 36.1307 233.01 36.1652 233.666 36.1997C234.587 35.6545 235.773 36.1106 236.821 36.0625C237.28 36.0415 237.759 36.0861 238.226 36.1365C238.647 36.178 238.878 36.0224 239.198 35.9618C239.827 35.84 240.629 35.9919 241.186 35.6792C241.246 35.6501 241.686 35.7765 241.857 35.8759C242.165 36.047 242.49 36.1221 242.814 35.9843C243.103 35.8511 243.376 35.7945 243.787 35.7968C244.75 35.8023 245.835 36.1563 246.66 35.6512C247.41 35.6907 248.16 35.7172 248.909 35.7696C249.739 35.8326 250.3 35.4491 251.222 35.5493C252.974 35.7383 254.771 35.7361 256.549 35.8685C257.193 35.9152 257.62 35.8216 257.985 35.5827C258.301 35.3735 258.703 35.3365 259.206 35.3695C260.236 35.443 261.268 35.4715 262.297 35.5451C262.8 35.5845 263.145 35.4994 263.529 35.3389C263.83 35.2128 264.162 35.3722 264.471 35.5176C264.93 35.7353 264.966 35.7178 265.406 35.6055C265.561 35.562 265.686 35.4202 265.815 35.427C266.565 35.4471 267.315 35.493 268.064 35.5325C268.687 35.0748 269.59 35.3353 270.376 35.3508C271.22 35.3695 272.064 35.3946 272.905 35.484C273.758 35.574 274.471 35.4115 275.229 35.2966C275.726 35.2195 276.347 35.478 276.807 35.2183C277.533 34.8048 277.879 35.378 278.415 35.4449C278.579 35.4664 278.838 35.4543 278.911 35.4C279.426 34.9755 280.632 35.4971 281.105 34.9864C281.143 34.9496 281.636 34.9498 281.826 35.1276C282.207 35.4703 282.97 35.4782 283.294 35.3533C283.797 35.1668 284.245 35.1388 284.819 35.169C286.224 35.2494 287.629 35.3169 289.035 35.3909C289.398 35.41 289.934 35.4963 290.103 35.3955C290.733 35.0286 291.596 35.3709 292.156 35.2196C292.847 35.0302 293.483 34.9927 294.22 35.0444C294.969 35.0967 295.719 35.1233 296.469 35.1627C297.031 35.1923 297.593 35.2219 298.155 35.2515C298.319 35.2602 298.566 35.2602 298.651 35.2002C299.163 34.8528 299.883 35.0005 300.454 35.0822C301.201 35.186 301.595 34.8389 302.216 34.8522C302.967 34.866 303.716 34.9312 304.465 34.9706C305.308 35.015 306.152 35.0594 306.995 35.1038C307.521 34.6927 308.32 34.9154 309.026 34.8945C310.26 34.8691 311.611 35.3145 312.743 34.7868C313.398 34.8214 314.081 34.7928 314.698 34.9027C315.535 35.0565 315.927 34.5221 316.741 34.6747C318.288 34.9626 319.401 34.3501 320.726 34.1617C321.424 34.0629 321.747 33.5056 321.307 33.1727L321.237 33.1626Z" fill="#FCD214"/>
<path d="M34.6156 32.6674C35.0666 32.8409 35.6911 32.9449 36.489 32.9449C38.1542 32.9449 38.4665 31.4532 38.4665 29.4757V5.71155H42.9417V29.3716C42.9417 31.8348 42.4907 33.5347 41.6581 34.6102C40.8602 35.6509 39.4725 36.4835 37.5645 36.4835C36.038 36.4835 34.685 36.1366 34.4769 35.9978L34.6156 32.6674ZM54.7918 30.0308C49.6227 30.0308 45.6678 26.6309 45.6678 21.323C45.6678 16.0151 49.6227 12.5459 54.7918 12.5459C59.9263 12.5459 63.8812 16.0151 63.8812 21.323C63.8812 26.6309 59.9263 30.0308 54.7918 30.0308ZM59.3018 21.219C59.3018 18.3395 57.6366 16.1192 54.7918 16.1192C51.8777 16.1192 50.2819 18.3395 50.2819 21.219C50.2819 24.0984 51.8777 26.3534 54.7918 26.3534C57.6366 26.3534 59.3018 24.0984 59.3018 21.219ZM68.5996 10.1868C67.0385 10.1868 65.9283 9.18077 65.9283 7.7237C65.9283 6.30132 67.0385 5.26056 68.5996 5.26056C70.1608 5.26056 71.2709 6.30132 71.2709 7.7237C71.2709 9.18077 70.1608 10.1868 68.5996 10.1868ZM66.3793 12.8581H70.8199V29.6492H66.3793V12.8581ZM85.4915 20.6639C85.4915 18.1661 85.0405 16.1886 82.4732 16.1886C79.7325 16.1886 78.7959 18.4783 78.7959 21.2884V29.6492H74.3553V12.8581H78.7959L78.7612 15.3907H78.8652C79.7672 13.6214 81.4672 12.5459 83.8956 12.5459C88.7178 12.5459 89.9321 15.6682 89.9321 19.6925V29.6492H85.4915V20.6639ZM107.51 30.0308C102.341 30.0308 98.3864 26.6309 98.3864 21.323C98.3864 16.0151 102.341 12.5459 107.51 12.5459C112.645 12.5459 116.6 16.0151 116.6 21.323C116.6 26.6309 112.645 30.0308 107.51 30.0308ZM112.02 21.219C112.02 18.3395 110.355 16.1192 107.51 16.1192C104.596 16.1192 103 18.3395 103 21.219C103 24.0984 104.596 26.3534 107.51 26.3534C110.355 26.3534 112.02 24.0984 112.02 21.219ZM123.087 21.8434C123.087 24.3413 123.504 26.3187 126.071 26.3187C128.742 26.3187 129.748 24.2025 129.748 21.3924V12.8581H134.189V29.6492H129.887L129.852 27.2901C128.881 28.9553 127.077 29.9614 124.649 29.9614C119.826 29.9614 118.647 26.8391 118.647 22.8148V12.8581H123.087V21.8434ZM137.576 12.8581H141.982L141.913 15.5641H142.017C142.676 13.7601 144.341 12.5459 146.145 12.5459C147.29 12.5459 147.915 12.8581 147.915 12.8581L147.602 16.709H147.394C146.909 16.5702 146.145 16.5008 145.556 16.5008C144.237 16.5008 143.231 17.0559 142.607 18.1314C142.19 18.964 141.982 20.1088 141.982 21.3924V29.6492H137.576V12.8581ZM168.542 24.5147L169.791 27.7758C169.444 28.088 167.709 30.0308 163.234 30.0308C158.654 30.0308 154.422 26.8738 154.422 21.3924C154.422 15.8764 158.793 12.5459 163.303 12.5459C167.536 12.5459 169.201 14.2458 169.652 14.6968L168.438 18.0273C167.917 17.5416 166.425 16.258 163.823 16.258C161.187 16.258 159.071 18.0967 159.071 21.1843C159.071 24.2719 161.187 26.284 164.066 26.284C166.946 26.284 168.542 24.5147 168.542 24.5147ZM179.558 30.0308C174.389 30.0308 170.434 26.6309 170.434 21.323C170.434 16.0151 174.389 12.5459 179.558 12.5459C184.692 12.5459 188.647 16.0151 188.647 21.323C188.647 26.6309 184.692 30.0308 179.558 30.0308ZM184.068 21.219C184.068 18.3395 182.402 16.1192 179.558 16.1192C176.644 16.1192 175.048 18.3395 175.048 21.219C175.048 24.0984 176.644 26.3534 179.558 26.3534C182.402 26.3534 184.068 24.0984 184.068 21.219ZM211.891 20.2476C211.891 18.2007 211.44 16.1886 209.255 16.1886C207.034 16.1886 205.889 18.0967 205.889 20.9761V29.6492H201.449V20.2129C201.449 17.9232 200.859 16.1886 198.743 16.1886C196.453 16.1886 195.447 18.3395 195.447 20.9761V29.6492H191.006V12.8581H195.447L195.412 15.3907H195.516C196.28 13.8295 198.326 12.5459 200.512 12.5459C202.941 12.5459 204.398 13.5173 205.196 15.7376C206.375 13.6908 208.283 12.5459 210.712 12.5459C215.117 12.5459 216.332 15.6682 216.332 19.519V29.6492H211.891V20.2476ZM240.503 20.2476C240.503 18.2007 240.052 16.1886 237.866 16.1886C235.646 16.1886 234.501 18.0967 234.501 20.9761V29.6492H230.06V20.2129C230.06 17.9232 229.471 16.1886 227.354 16.1886C225.065 16.1886 224.059 18.3395 224.059 20.9761V29.6492H219.618V12.8581H224.059L224.024 15.3907H224.128C224.891 13.8295 226.938 12.5459 229.124 12.5459C231.552 12.5459 233.009 13.5173 233.807 15.7376C234.987 13.6908 236.895 12.5459 239.323 12.5459C243.729 12.5459 244.943 15.6682 244.943 19.519V29.6492H240.503V20.2476ZM252.358 21.8434C252.358 24.3413 252.774 26.3187 255.341 26.3187C258.013 26.3187 259.019 24.2025 259.019 21.3924V12.8581H263.459V29.6492H259.158L259.123 27.2901C258.152 28.9553 256.348 29.9614 253.919 29.9614C249.097 29.9614 247.917 26.8391 247.917 22.8148V12.8581H252.358V21.8434ZM277.983 20.6639C277.983 18.1661 277.532 16.1886 274.965 16.1886C272.224 16.1886 271.287 18.4783 271.287 21.2884V29.6492H266.847V12.8581H271.287L271.253 15.3907H271.357C272.259 13.6214 273.959 12.5459 276.387 12.5459C281.209 12.5459 282.424 15.6682 282.424 19.6925V29.6492H277.983V20.6639ZM288.094 10.1868C286.533 10.1868 285.423 9.18077 285.423 7.7237C285.423 6.30132 286.533 5.26056 288.094 5.26056C289.655 5.26056 290.765 6.30132 290.765 7.7237C290.765 9.18077 289.655 10.1868 288.094 10.1868ZM285.874 12.8581H290.314V29.6492H285.874V12.8581ZM299.019 23.127C299.019 25.6943 299.47 26.3187 301.031 26.3187C301.933 26.3187 302.627 26.0412 302.627 26.0412L302.87 29.4757C302.662 29.5451 301.343 30.0308 299.47 30.0308C296.035 30.0308 294.613 28.4696 294.613 24.0984V16.3274H292.115V12.8928H294.613V8.10531H299.019V12.8928H302.904V16.3274H299.019V23.127ZM302.557 12.8581H307.206L311.646 24.7576L316.018 12.8581H320.632L312.826 31.9042C311.612 34.853 310.224 36.2754 307.865 36.2754C305.471 36.2754 303.91 35.5815 303.91 35.5815L304.812 32.1817C304.812 32.1817 305.992 32.598 306.824 32.598C307.691 32.598 308.42 32.3552 308.767 31.4879L309.495 29.7532L302.557 12.8581ZM336.034 30.0308C330.865 30.0308 326.91 26.6309 326.91 21.323C326.91 16.0151 330.865 12.5459 336.034 12.5459C341.169 12.5459 345.124 16.0151 345.124 21.323C345.124 26.6309 341.169 30.0308 336.034 30.0308ZM340.544 21.219C340.544 18.3395 338.879 16.1192 336.034 16.1192C333.12 16.1192 331.524 18.3395 331.524 21.219C331.524 24.0984 333.12 26.3534 336.034 26.3534C338.879 26.3534 340.544 24.0984 340.544 21.219ZM348.177 16.3274H345.887V12.8928H348.177V11.6092C348.177 9.56239 348.732 7.89716 349.599 6.96047C350.467 5.9544 351.854 5.29525 353.797 5.29525C355.844 5.29525 357.093 5.64217 357.093 5.64217L356.815 8.83385C356.815 8.83385 355.844 8.55631 354.907 8.55631C352.999 8.55631 352.548 9.83992 352.548 11.4358V12.8928H356.399V16.3274H352.618V29.6492H348.177V16.3274Z" fill="#003561"/>
<path d="M1.28643 71.9114C1.28521 71.9539 1.57697 72.0416 1.76049 72.0549C2.17152 72.0863 2.59087 72.0826 3.00221 72.1034C3.17848 72.1129 3.4641 72.1578 3.47769 72.1973C3.51221 72.2764 3.44313 72.3769 3.32373 72.4367C3.24178 72.473 2.96946 72.478 2.80819 72.4585C2.29508 72.3953 2.03625 72.4433 1.83831 72.6777C2.03704 72.6737 2.20639 72.6688 2.37572 72.6638C2.41156 72.6969 2.4474 72.73 2.42576 72.7151C2.42565 72.7186 2.42565 72.7186 2.42576 72.7151C2.8225 72.7319 3.16106 72.7255 3.4392 72.7737C3.56363 72.7956 3.55968 72.9337 3.64423 73.0641C3.42467 73.0249 3.36627 73.0088 3.31483 73.0071C3.10886 73.0073 2.8739 72.9923 2.72592 73.0228C2.65192 73.0381 2.67767 73.1665 2.757 73.2224C2.85776 73.3002 3.06213 73.3566 3.22209 73.4222C3.38929 73.4916 3.55639 73.5645 3.71615 73.6372C3.9049 73.725 4.05618 73.8364 4.28973 73.9009C4.8881 74.0698 4.98857 74.1582 4.69459 74.4071C4.55898 74.5196 4.5493 74.6007 4.86298 74.6927C5.34447 74.8329 5.35648 74.929 4.97653 75.0971C4.82753 75.163 4.62747 75.213 4.48582 75.2792C4.40388 75.3154 4.33602 75.3734 4.34941 75.4199C4.43707 75.6993 4.59099 75.9774 4.62721 76.255C4.63888 76.3618 4.39311 76.467 4.2276 76.5961L5.18386 76.5962C5.1633 76.8011 5.72372 77.0112 4.98458 77.1354C5.4553 77.3957 5.41646 77.4688 6.39127 77.3348C6.35149 77.4398 6.35641 77.525 6.28825 77.5936C5.97041 77.9055 5.9326 78.1985 6.59398 78.4793C6.97188 78.6408 7.27559 78.8246 7.63859 78.9927C7.71842 79.0308 7.89421 79.0579 8.02649 79.0624C8.70259 79.0849 8.90624 79.1662 8.80334 79.4215C8.75601 79.5333 8.85748 79.5863 9.11358 79.6339C9.23066 79.6555 9.34591 79.7409 9.33715 79.7902C9.3023 79.9805 9.05394 80.1777 9.74896 80.3108C9.59372 80.3375 9.54178 80.3535 9.47544 80.3584C9.34275 80.3681 9.21035 80.3673 9.08481 80.3843C8.91508 80.4035 8.72342 80.4183 8.58982 80.46C8.23374 80.565 8.2899 80.659 8.71422 80.7406C8.83855 80.766 9.00656 80.807 9.02739 80.8503C9.20203 81.1751 9.61939 81.501 9.15407 81.8257C9.12407 81.8459 9.13794 81.8748 9.13713 81.9031C9.13188 82.0872 8.98779 82.2384 8.50748 82.3145C8.12322 82.3761 7.75327 82.4523 7.28001 82.5393C7.58574 82.6523 7.85473 82.7641 8.15351 82.8627C8.48883 82.9696 8.49374 83.0548 8.12336 83.1452C7.97517 83.1828 7.75369 83.2108 7.70063 83.2658C7.60186 83.3759 7.60558 83.5036 7.55755 83.6402C7.64533 83.6573 7.81378 83.6842 7.90156 83.7013C8.00826 83.829 8.10106 83.9278 8.20081 84.041C7.89064 84.0838 7.68237 84.1654 7.89114 84.3248C7.91268 84.3433 7.88224 84.3777 7.85224 84.3979C7.64072 84.5929 7.77631 84.7392 8.25811 84.8687C8.5429 84.942 8.70106 85.0714 8.45491 85.1908C8.21611 85.3104 8.05802 85.4362 7.907 85.573C7.71843 85.7368 7.14179 85.838 7.16442 86.0763C6.44844 86.1622 6.57416 86.3968 6.5976 86.6067C6.60906 86.7205 6.51173 86.7811 6.24566 86.8253C5.82444 86.8928 5.81548 86.9492 6.1952 87.047C6.47274 87.1165 6.5445 87.1791 6.48942 87.3049C6.44995 87.3993 6.58666 87.5066 6.6707 87.6548C6.21737 87.8168 6.97268 87.8988 7.10837 88.0415C7.03961 88.1314 7.03708 88.2199 7.00516 88.3075C6.95753 88.4299 6.95363 88.568 6.80352 88.6729C6.66086 88.7745 6.61492 88.8367 6.85511 88.9263C6.94974 88.9613 7.01449 89.0131 7.05727 89.0606C7.19286 89.2069 7.44178 89.2471 7.84627 89.25C9.62623 89.2563 11.4058 89.2768 13.1782 89.2899C13.9651 89.295 14.7596 89.2932 15.5469 89.2876C16.5107 89.2808 17.4677 89.2525 18.4239 89.2561C19.3801 89.2597 20.3426 89.2989 21.2986 89.3096C21.9677 89.3178 22.6303 89.2974 23.2997 89.2985C25.3595 89.2929 27.4195 89.2802 29.4792 89.2816C33.5322 89.2824 37.585 89.2937 41.638 89.298C42.0058 89.2996 42.367 89.2727 42.7275 89.2706C44.4415 89.2676 46.148 89.2714 47.8618 89.2755C48.2075 89.2764 48.5595 89.313 48.905 89.321C49.1475 89.3291 49.4048 89.3377 49.6336 89.3099C50.9614 89.1771 52.2609 89.0078 53.6948 89.0238C55.6288 89.0459 57.5564 89.0359 59.4907 89.0438C60.5278 89.0465 61.5646 89.0599 62.6015 89.0697C63.359 89.0773 64.1163 89.0885 64.8738 89.096C66.7784 89.1136 68.6905 89.1314 70.5951 89.1525C72.0364 89.1688 73.4779 89.1779 74.9115 89.2046C77.8375 89.2633 80.7624 89.361 83.6818 89.3912C87.4249 89.4277 91.1695 89.4146 94.9134 89.4227C96.3918 89.426 97.8704 89.4258 99.3487 89.4326C102.46 89.448 105.57 89.481 108.675 89.4749C112.162 89.4708 115.635 89.4274 119.122 89.4163C121.094 89.4077 123.071 89.4384 125.05 89.4336C127.345 89.4288 129.641 89.4027 131.937 89.3908C133.173 89.386 134.415 89.4027 135.651 89.3944C137.292 89.3854 138.933 89.3516 140.581 89.3464C142.303 89.3401 144.03 89.3659 145.752 89.3632C146.451 89.3617 147.143 89.3175 147.843 89.2913C148.196 89.2783 148.543 89.2473 148.896 89.252C149.573 89.2605 150.248 89.3078 150.925 89.3127C152.822 89.3229 154.72 89.3296 156.618 89.3222C157.331 89.3212 158.031 89.2737 158.738 89.2477C158.834 89.2438 158.937 89.2366 159.033 89.2398C160.164 89.2918 161.281 89.3291 162.422 89.3034C164.66 89.2541 166.911 89.2514 169.155 89.2342C170.81 89.2221 172.465 89.2243 174.12 89.2158C176.931 89.2033 179.748 89.1912 182.559 89.1752C183.751 89.1689 184.935 89.1624 186.127 89.1526C187.245 89.1439 188.357 89.1279 189.475 89.1191C190.188 89.1323 190.901 89.1562 191.614 89.1658C192.283 89.174 192.946 89.1536 193.616 89.1511C195.675 89.1455 197.735 89.1328 199.795 89.1343C203.848 89.135 207.901 89.1464 211.954 89.1507C212.322 89.1523 212.683 89.1254 213.043 89.1232C214.757 89.1203 216.464 89.1241 218.178 89.1282C218.523 89.1291 218.875 89.1657 219.221 89.1737C219.463 89.1818 219.721 89.1904 219.949 89.1626C221.277 89.0297 222.577 88.8605 224.011 88.8765C225.945 88.8986 227.872 88.8886 229.807 88.8965C230.844 88.8992 231.88 88.9126 232.917 88.9224C233.675 88.93 234.432 88.9411 235.19 88.9487C237.094 88.9663 239.006 88.9841 240.911 89.0052C242.352 89.0214 243.794 89.0306 245.227 89.0572C248.153 89.116 251.078 89.2137 253.998 89.2439C257.741 89.2804 261.485 89.2672 265.229 89.2754C266.708 89.2787 268.186 89.2785 269.665 89.2853C272.776 89.3007 275.886 89.3337 278.991 89.3275C282.477 89.3235 285.951 89.2801 289.438 89.269C291.409 89.2604 293.387 89.291 295.366 89.2863C297.661 89.2814 299.957 89.2554 302.252 89.2434C303.488 89.2386 304.731 89.2554 305.967 89.247C307.608 89.238 309.249 89.2043 310.89 89.1988C312.611 89.1925 314.339 89.2184 316.06 89.2156C316.759 89.2142 317.452 89.17 318.151 89.1437C318.505 89.1307 318.852 89.0998 319.204 89.1045C319.881 89.1129 320.556 89.1603 321.233 89.1651C323.13 89.1754 325.028 89.1821 326.926 89.1746C327.64 89.1701 328.34 89.1261 329.047 89.1001C329.143 89.0962 329.246 89.0891 329.341 89.0922C330.473 89.1442 331.59 89.1815 332.731 89.1559C334.968 89.1066 337.219 89.1038 339.463 89.0866C341.119 89.0746 342.774 89.0767 344.429 89.0682C347.239 89.0558 350.057 89.0436 352.867 89.0276C354.059 89.0213 355.244 89.0148 356.436 89.005C358.121 88.9905 359.813 88.9655 361.498 88.9544C362.741 88.9463 363.984 88.9595 365.227 88.9514C366.265 88.9471 367.303 88.9215 368.34 88.9137C370.099 88.898 371.864 88.8896 373.623 88.8669C374.491 88.8569 375.354 88.79 376.221 88.8013C377.655 88.8173 379.038 88.8316 380.139 88.404C380.421 88.293 380.541 88.2296 380.361 88.0889C380.174 87.9409 380.105 87.772 380.519 87.6937C380.963 87.6128 380.982 87.4787 380.979 87.3298C380.975 87.1843 380.995 87.0255 380.844 86.8999C380.657 86.7448 380.689 86.6431 380.906 86.5086C381.101 86.3911 381.179 86.2483 381.286 86.1101C381.37 86.0031 381.358 85.8751 381.501 85.7806C381.726 85.6357 382.125 85.5463 382.161 85.3313C382.179 85.2326 382.652 85.1562 382.941 85.0596C382.927 85.0556 382.876 85.0113 382.825 85.0132C382.266 85.0016 382.35 84.8804 382.399 84.7296C382.431 84.642 382.294 84.5347 382.172 84.4455C382.092 84.3861 381.91 84.3481 381.888 84.3403C382.174 84.0982 382.408 83.8828 382.679 83.6791C382.762 83.6146 382.954 83.5678 383.096 83.5158C383.226 83.5663 383.35 83.6236 383.496 83.671C383.605 83.7065 383.758 83.7577 383.861 83.7505C384.06 83.7359 384.231 83.6849 384.342 83.6638C384.183 83.5628 384.038 83.4764 383.916 83.3837C383.916 83.3802 384.183 83.3005 384.241 83.3131C384.41 83.3506 384.533 83.4185 384.722 83.4957C384.788 83.4838 384.929 83.4672 385.033 83.4317C385.664 83.2189 386.302 83.0098 386.905 82.7854C386.994 82.7494 386.968 82.6351 386.896 82.576C386.802 82.4984 386.598 82.442 386.366 82.342C387.052 82.2693 387.357 82.1271 387.188 81.8768C386.982 81.8629 386.799 81.8532 386.623 81.8438C386.616 81.8258 386.602 81.8076 386.595 81.7897C386.906 81.7044 387.212 81.5445 387.536 81.5446C388.11 81.5426 388.474 81.42 388.881 81.3273C389.14 81.2686 389.299 81.1215 389.412 81.0013C389.443 80.9668 389.166 80.8831 389.013 80.8249C388.853 80.7628 388.7 80.6939 388.51 80.6521C388.328 80.6106 388.093 80.5744 387.909 80.5859C387.238 80.6238 386.762 80.5583 386.652 80.3029C386.541 80.044 386.138 79.9987 385.647 79.9503C385.5 79.9348 385.353 79.9193 385.207 79.9002C384.445 79.7861 384.08 79.4337 384.353 79.1522C384.444 79.063 384.404 78.8916 384.244 78.8331C383.924 78.7125 383.5 78.6097 383.082 78.5639C381.99 78.4388 380.919 78.3109 380.061 77.988C379.646 77.8288 379.668 77.8189 380.084 77.6839C380.908 77.4208 382.087 77.3574 382.636 76.9292C382.952 76.6845 383.56 76.4993 383.796 76.2236C383.88 76.1307 383.964 76.0272 383.944 75.9308C383.945 75.899 383.6 75.8733 383.359 75.8368C383.567 75.7623 383.753 75.694 384.02 75.5966C383.807 75.5895 383.741 75.5873 383.682 75.5854C383.55 75.5738 383.425 75.5626 383.301 75.5513C383.375 75.5184 383.457 75.4821 383.532 75.4456C383.584 75.419 383.658 75.3896 383.674 75.3582C383.729 75.2466 383.783 75.1351 383.794 75.022C383.795 74.9653 383.731 74.8923 383.629 74.8534C383.338 74.748 383.032 74.6456 382.696 74.56C382.47 74.5028 382.206 74.4621 382.394 74.3408C382.566 74.2331 382.767 74.1335 383.2 74.1905C383.361 74.21 383.677 74.21 383.7 74.1824C383.768 74.1067 383.801 74.005 383.707 73.931C383.628 73.8645 383.394 73.8177 383.212 73.7726C382.846 73.6789 382.331 73.6865 382.161 73.4681C382.083 73.3698 381.927 73.4107 381.748 73.4898C381.555 73.5755 381.185 73.6305 380.884 73.631C380.729 73.6294 380.505 73.4837 380.42 73.3887C380.327 73.2864 380.353 73.1703 380.334 73.0597C380.265 72.6357 380.708 72.3208 381.582 72.0913C381.708 72.0601 381.851 71.9727 381.822 71.9292C381.638 71.6856 381.813 71.4681 381.967 71.2464C382.22 70.8792 382.383 70.8244 383.348 70.7999C383.679 70.7932 383.747 70.7388 383.625 70.6213C383.575 70.5735 383.584 70.5136 383.557 70.4418C384.194 70.5481 384.505 70.4664 384.526 70.2296C384.537 70.1024 384.6 69.9698 384.545 69.8439C384.421 69.5456 384.547 69.2414 384.173 68.9489C384.051 68.8562 384.063 68.6617 384.219 68.6137C384.724 68.4498 384.981 68.2068 384.762 67.9053C384.518 67.9503 384.281 67.9955 384.044 68.0408C384.03 68.0332 384.023 68.0259 384.008 68.0183C384.158 67.9418 384.314 67.8655 384.464 67.7854C384.127 67.7175 383.812 67.6644 383.535 67.5878C383.433 67.5596 383.435 67.4782 383.393 67.42C383.54 67.4072 383.725 67.3638 383.828 67.3849C384.457 67.5158 384.828 67.3865 385.178 67.2493C385.069 67.1996 384.915 67.159 384.916 67.1236C384.93 66.9114 384.592 66.9107 384.187 66.8972C384.048 66.8925 383.808 66.7959 383.809 66.7463C383.812 66.633 383.882 66.5077 384.046 66.4211C384.42 66.228 384.881 66.0626 385.283 65.8811C385.469 65.7987 385.59 65.6964 385.754 65.6062C386.031 65.456 386.314 65.3059 386.598 65.1559C386.74 65.0827 386.897 65.0135 387.09 64.9243C386.848 64.9055 386.694 64.8968 386.547 64.8848C386.615 64.8127 386.734 64.7883 386.852 64.7603C386.949 64.7387 387.096 64.7295 387.126 64.6986C387.255 64.5824 387.354 64.4616 387.46 64.3447C387.453 64.3444 387.372 64.3488 387.305 64.3643C386.166 64.5885 384.927 64.696 383.646 64.7418C382.445 64.7868 381.246 64.8105 380.045 64.859C377.74 64.9486 375.435 65.0488 373.137 65.1457C372.732 65.1605 372.446 65.1262 372.386 64.9363C372.365 64.8683 372.228 64.7821 372.075 64.7451C371.366 64.5726 370.645 64.5768 369.928 64.7124C369.795 64.7363 369.617 64.78 369.522 64.7626C368.885 64.6492 368.301 64.7643 367.697 64.7725C366.593 64.7817 365.491 64.7626 364.387 64.7647C363.284 64.7669 362.187 64.7869 361.083 64.7961C359.369 64.8062 357.655 64.8127 355.941 64.8193C353.373 64.8327 350.806 64.8497 348.231 64.8559C346.436 64.8597 344.634 64.842 342.839 64.8529C338.381 64.8741 333.922 64.9059 329.464 64.9342C327.624 64.9472 325.785 64.9601 323.938 64.9693C320.878 64.9805 317.825 64.9919 314.765 64.9995C313.154 65.0024 311.536 64.9803 309.925 64.9973C307.879 65.0141 305.84 65.0771 303.795 65.0867C299.726 65.1067 295.658 65.1055 291.598 65.1187C291.414 65.1197 291.199 65.1515 291.073 65.1969C290.642 65.3632 290.11 65.427 289.528 65.4749C288.672 65.5491 287.737 65.5887 287.019 65.7561C285.345 66.1468 283.502 66.0462 281.693 66.0319C280.236 66.0187 278.782 65.9346 277.327 65.8931C276.46 65.8641 275.593 65.8422 274.725 65.8381C273.879 65.8311 273.04 65.8491 272.194 65.8563C272.076 65.8559 271.936 65.8689 271.848 65.8447C271.169 65.6661 270.483 65.7389 269.798 65.7869C269.68 65.7936 269.548 65.7891 269.43 65.7781C269.107 65.7496 268.757 65.667 268.484 65.6933C267.591 65.7734 266.727 65.6347 265.845 65.6194C264.066 65.5954 262.288 65.5076 260.502 65.455C258.922 65.4093 257.341 65.3742 255.761 65.3285C254.048 65.2819 252.343 65.2285 250.631 65.1819C249.727 65.1588 248.822 65.1569 247.91 65.13C246.499 65.09 245.088 65.0464 243.685 64.9853C242.656 64.9403 241.629 64.867 240.601 64.8008C240.27 64.7791 239.941 64.7291 239.617 64.7324C238.374 64.7405 237.144 64.7774 235.901 64.7784C232.708 64.7852 229.523 64.7816 226.331 64.7777C223.183 64.7717 220.035 64.7658 216.886 64.7599C216.977 64.6672 217.061 64.5708 217.145 64.4778C217.137 64.4776 217.056 64.482 216.99 64.4975C216.405 64.6126 215.792 64.695 215.165 64.7555C213.988 64.7517 212.819 64.7516 211.642 64.7477C210.487 64.7481 209.331 64.7733 208.169 64.7734C207.279 64.7721 206.39 64.7282 205.507 64.7412C204.624 64.7542 203.716 64.6105 202.866 64.7735C202.814 64.7824 202.733 64.7797 202.667 64.7775C202.152 64.7744 201.637 64.775 201.122 64.7719C200.8 64.7399 200.476 64.7397 200.159 64.7681C199.857 64.7686 199.556 64.7657 199.254 64.7662C197.496 64.7642 195.731 64.7584 193.973 64.7564C191.693 64.7546 189.412 64.7529 187.139 64.7513C183.976 64.7485 180.813 64.7456 177.658 64.75C177.018 64.7499 176.391 64.7857 175.751 64.7962C175.339 64.8037 175.057 64.8758 174.834 64.9853C174.069 64.9845 173.304 64.9802 172.538 64.9866C168.08 65.0078 163.622 65.0396 159.163 65.0678C157.324 65.0808 155.484 65.0938 153.638 65.103C150.577 65.1141 147.524 65.1256 144.464 65.1332C142.853 65.1361 141.235 65.1139 139.624 65.131C137.579 65.1477 135.539 65.2107 133.494 65.2204C129.426 65.2404 125.358 65.2392 121.297 65.2524C121.113 65.2533 120.899 65.2851 120.772 65.3305C120.341 65.4969 119.81 65.5606 119.227 65.6085C118.372 65.6827 117.436 65.7224 116.718 65.8898C115.044 66.2805 113.201 66.1799 111.392 66.1655C109.936 66.1523 108.482 66.0683 107.026 66.0268C106.159 65.9978 105.292 65.9759 104.424 65.9717C103.578 65.9647 102.739 65.9828 101.893 65.9899C101.775 65.9895 101.635 66.0026 101.548 65.9784C100.869 65.7998 100.182 65.8725 99.497 65.9205C99.3791 65.9272 99.2468 65.9228 99.1221 65.9115C98.7992 65.883 98.4485 65.8004 98.1756 65.8267C97.2832 65.9068 96.4192 65.7681 95.5369 65.7528C93.7575 65.7288 91.9798 65.641 90.1938 65.5884C88.6136 65.5427 87.0331 65.5076 85.4529 65.4619C83.7403 65.4153 82.0352 65.3619 80.3226 65.3153C79.4185 65.2922 78.5138 65.2903 77.6024 65.2634C76.1912 65.2234 74.7801 65.1798 73.3769 65.1187C72.3483 65.0737 71.3206 65.0004 70.2927 64.9342C69.9623 64.9125 69.6327 64.8625 69.3089 64.8658C68.0655 64.8739 66.8361 64.9108 65.5929 64.9118C62.4002 64.9186 59.2152 64.915 56.0229 64.9111C51.1314 64.9036 46.2327 64.8888 41.3412 64.8849C40.1863 64.8853 39.0307 64.9105 37.8685 64.9106C36.9784 64.9092 36.0896 64.8654 35.2065 64.8784C34.3234 64.8914 33.4154 64.7477 32.5648 64.9107C32.5131 64.9196 32.4322 64.9169 32.3661 64.9146C31.226 64.912 30.086 64.9058 28.9459 64.9032C27.1879 64.9011 25.4227 64.8953 23.6647 64.8933C21.3844 64.8916 19.1041 64.8898 16.8311 64.8883C13.6682 64.8854 10.5126 64.8828 7.34939 64.887C6.70943 64.8868 6.08318 64.9226 5.44292 64.9331C4.93514 64.941 4.6306 65.0442 4.37609 65.1988C4.15903 65.3297 4.20745 65.4377 4.55848 65.5097C4.73405 65.5439 4.97734 65.5237 5.2125 65.5315C5.11886 65.7198 4.66816 65.7898 4.09855 65.9019C4.45683 65.9777 4.69847 66.0177 4.91018 66.0744C5.05614 66.1147 5.14996 66.1781 5.27358 66.2283C5.1113 66.2441 4.95625 66.2637 4.79407 66.276C4.73507 66.2812 4.67649 66.2721 4.6177 66.2702C4.58055 66.2831 4.53597 66.2993 4.49883 66.3123C4.68707 66.4178 4.85296 66.5332 5.07825 66.6294C5.37632 66.7527 5.74867 66.8502 5.59584 67.0507C5.49656 67.1785 5.45598 67.3119 5.35671 67.4397C5.31835 67.4951 5.235 67.5809 5.13927 67.5848C4.94769 67.5962 4.72772 67.5711 4.53746 67.5364C4.38364 67.5135 4.25276 67.4595 4.11404 67.423C4.07699 67.4324 4.03997 67.4418 4.00282 67.4547C4.21894 67.6143 3.94096 67.8177 4.47409 67.9525C4.69315 68.0094 4.61762 68.0778 4.3597 68.094C3.96175 68.1197 3.96691 68.1978 4.16221 68.3142C4.35035 68.4233 4.52378 68.5319 4.7839 68.6965C4.37971 68.683 4.07841 68.673 3.73301 68.6614C3.81494 68.8839 4.53554 68.8938 4.73555 69.1025C4.33558 69.199 3.94296 69.2958 3.53564 69.3921C3.63721 69.4415 3.73866 69.4946 3.91996 69.5857C3.61583 69.6748 3.31926 69.757 3.05187 69.8473C2.96267 69.8798 2.88726 69.9446 2.9081 69.9878C2.94956 70.0814 3.05736 70.17 3.16416 70.2941C3.14947 70.2936 3.24479 70.3039 3.34003 70.3177C3.62573 70.3592 3.73232 70.4903 3.50963 70.5608C3.24969 70.6479 2.97519 70.7308 2.66451 70.7914C1.96182 70.9274 1.94709 70.9269 2.47699 71.175C2.56407 71.2169 2.6735 71.2489 2.75313 71.2941C2.8255 71.3355 2.86086 71.3863 2.91109 71.4305C2.7782 71.4473 2.64522 71.4677 2.50519 71.4772C2.21778 71.4959 1.91617 71.4965 1.6358 71.5261C1.14886 71.5772 1.30557 71.7561 1.28713 71.8866L1.28643 71.9114Z" fill="#FCD214"/>
<path d="M22.4149 80.0076H13.1941V57.167H8.32987V50.8223H22.4149V80.0076ZM53.715 65.4573C53.715 73.2823 49.9082 80.5151 40.6874 80.5151C31.5089 80.5151 27.7021 73.2823 27.7021 65.4573C27.7021 57.6322 31.5089 50.3994 40.6874 50.3994C49.9082 50.3994 53.715 57.6322 53.715 65.4573ZM44.4096 65.3304C44.4096 61.5236 43.5636 58.3513 40.6874 58.3513C37.8535 58.3513 37.0075 61.5236 37.0075 65.3304C37.0075 69.1371 37.8535 72.394 40.6874 72.394C43.5636 72.394 44.4096 69.1371 44.4096 65.3304ZM91.3614 80.0076H81.9714L81.633 63.3001L77.8262 80.0076H69.5782L65.7714 63.3001L65.4331 80.0076H56.043L57.7349 50.8223H70.0012L73.6811 66.6839L77.4032 50.8223H89.6695L91.3614 80.0076ZM120.315 68.7987H111.517V77.4697H104.75V68.7987H95.9943V62.0312H104.75V53.3602H111.517V62.0312H120.315V68.7987ZM159.342 71.5481C159.342 77.935 154.012 80.0076 148.471 80.0076H134.09V50.8223H146.145C148.683 50.8223 151.432 51.0338 153.547 51.8798C155.662 52.7257 157.861 54.8406 157.861 58.2244C157.861 61.6082 155.662 63.9345 153.758 64.6959C157.142 65.6264 159.342 68.1643 159.342 71.5481ZM148.471 59.8317C148.471 57.9706 146.991 57.7168 145.51 57.7168H143.607V61.9466H145.51C146.948 61.9466 148.471 61.6082 148.471 59.8317ZM149.74 70.6175C149.74 68.7565 148.387 68.2912 146.779 68.2912H143.607V72.9439H146.779C148.302 72.9439 149.74 72.394 149.74 70.6175ZM188.449 67.5298C188.449 72.1825 187.391 74.9319 185.277 77.0467C183.162 79.1616 179.778 80.4728 175.125 80.4728C170.472 80.4728 167.089 79.1616 164.974 77.0467C162.859 74.9319 161.801 72.1825 161.801 67.5298V50.8223H171.403V67.9528C171.403 70.4483 172.418 72.1825 175.125 72.1825C177.832 72.1825 178.805 70.4483 178.805 67.9528V50.8223H188.449V67.5298ZM219.949 65.415C219.949 75.9047 213.139 80.0076 203.453 80.0076H192.456V50.8223H203.453C213.139 50.8223 219.949 54.9252 219.949 65.415ZM210.305 65.415C210.305 61.1852 208.613 58.6474 204.172 58.6474H201.972V71.9711H204.172C208.444 71.9711 210.305 69.5601 210.305 65.415ZM250.603 75.1434C248.277 77.2582 244.893 80.4728 237.068 80.4728C229.243 80.4728 221.629 75.7778 221.629 65.415C221.629 55.0521 229.243 50.3994 237.279 50.3994C245.316 50.3994 248.7 54.6291 249.546 55.4751L243.201 60.7622C242.566 60.1278 240.663 58.2244 237.279 58.2244C233.895 58.2244 231.231 60.7622 231.231 65.415C231.231 70.0677 233.895 72.6055 237.279 72.6055C240.663 72.6055 241.298 71.5481 241.298 71.5481V69.4332H236.856V62.3695H250.603V75.1434ZM275.15 80.0076H254.002V50.8223H274.727V58.3513H263.519V61.5236H274.093V69.0102H263.519V72.394H275.15V80.0076ZM299.728 58.2667H292.834V80.0076H283.275V58.2667H276.423V50.8223H299.728V58.2667ZM322.983 80.0076H301.834V50.8223H322.56V58.3513H311.351V61.5236H321.925V69.0102H311.351V72.394H322.983V80.0076ZM352.806 80.0076H341.808L337.156 70.2792H335.929V80.0076H326.37V50.8223H339.059C342.654 50.8223 345.404 51.4568 347.519 52.9372C349.633 54.4176 351.114 56.9555 351.114 60.1278C351.114 66.0494 347.519 68.1643 346.25 68.9256L352.806 80.0076ZM341.47 60.5507C341.47 59.2818 340.836 58.8589 340.413 58.5628C339.99 58.2244 339.355 58.0129 338.298 58.0129H335.887V63.0886H338.298C339.947 63.0886 341.47 62.4541 341.47 60.5507ZM375.658 70.4061C375.658 73.4515 374.178 76.2008 371.851 78.0196C369.525 79.7961 366.606 80.5151 363.223 80.5151C359.839 80.5151 355.947 79.5846 351.971 76.6238L356.201 69.4332C358.908 71.7173 362.715 72.6055 363.984 72.6055C365.253 72.6055 366.141 72.2248 366.141 71.3789C366.141 70.5329 365.084 70.1946 364.026 69.8562C362.969 69.5601 360.642 68.7987 359.796 68.5027C355.736 66.8954 353.113 64.992 353.113 60.1278C353.113 56.9555 354.763 54.5022 356.497 53.0641C358.274 51.5837 361.192 50.5263 365.084 50.5263C368.975 50.5263 372.951 51.9221 375.489 54.0369L371.851 60.8045C369.652 58.8589 366.437 58.0129 364.914 58.0129C363.392 58.0129 362.546 58.309 362.546 59.1972C362.546 60.0432 363.899 60.3393 364.576 60.5507C365.253 60.7622 367.029 61.2698 368.044 61.6082C372.443 63.0886 375.658 65.2881 375.658 70.4061Z" fill="#003561"/>
<path d="M184.845 134.752C185.853 134.752 187.08 134.164 187.08 132.584C187.08 131.021 185.971 130.332 184.66 130.332C183.887 130.332 183.114 130.584 182.576 130.937L181.584 130.349L182.677 124.785H188.845L188.828 126.584H184.055L183.5 129.172C184.055 128.937 184.744 128.785 185.45 128.785C187.568 128.785 189.299 130.181 189.299 132.618C189.299 135.156 187.164 136.567 184.761 136.567C182.559 136.567 181.063 135.038 180.777 134.635L181.937 133.256C182.525 133.996 183.517 134.752 184.845 134.752ZM191.962 133.996C192.533 134.416 193.424 134.87 194.567 134.87C195.424 134.87 196.097 134.685 196.584 134.097C197.139 133.441 197.424 132.281 197.424 130.752C197.088 131.391 196.198 132.248 194.399 132.248C192.584 132.248 190.819 131.055 190.819 128.685C190.819 126.432 192.399 124.617 194.971 124.617C196.937 124.617 197.962 125.575 198.5 126.399C198.988 127.122 199.492 128.55 199.492 130.433C199.492 132.5 199.038 134.164 198.147 135.172C197.374 136.08 196.13 136.584 194.634 136.584C192.685 136.584 191.542 135.811 191.138 135.492L191.962 133.996ZM197.189 128.466C197.189 127.306 196.433 126.248 195.038 126.248C193.643 126.248 192.903 127.306 192.903 128.466C192.903 129.626 193.643 130.702 195.038 130.702C196.433 130.702 197.189 129.76 197.189 128.466ZM202.112 134.265H204.23L202.549 138.736H200.818L202.112 134.265ZM205.372 130.601C205.372 127.559 206.818 124.617 210.062 124.617C213.305 124.617 214.734 127.559 214.734 130.601C214.734 133.643 213.305 136.584 210.062 136.584C206.801 136.584 205.372 133.643 205.372 130.601ZM212.515 130.567C212.515 128.197 211.742 126.5 210.062 126.5C208.381 126.5 207.591 128.197 207.591 130.567C207.591 132.92 208.381 134.635 210.062 134.635C211.742 134.635 212.515 132.92 212.515 130.567ZM215.565 130.601C215.565 127.559 217.011 124.617 220.254 124.617C223.498 124.617 224.927 127.559 224.927 130.601C224.927 133.643 223.498 136.584 220.254 136.584C216.994 136.584 215.565 133.643 215.565 130.601ZM222.708 130.567C222.708 128.197 221.935 126.5 220.254 126.5C218.574 126.5 217.784 128.197 217.784 130.567C217.784 132.92 218.574 134.635 220.254 134.635C221.935 134.635 222.708 132.92 222.708 130.567ZM225.758 130.601C225.758 127.559 227.204 124.617 230.447 124.617C233.691 124.617 235.12 127.559 235.12 130.601C235.12 133.643 233.691 136.584 230.447 136.584C227.187 136.584 225.758 133.643 225.758 130.601ZM232.901 130.567C232.901 128.197 232.128 126.5 230.447 126.5C228.767 126.5 227.977 128.197 227.977 130.567C227.977 132.92 228.767 134.635 230.447 134.635C232.128 134.635 232.901 132.92 232.901 130.567ZM240.039 124.785H246.88V126.617H242.224V129.878H246.611V131.676H242.224V136.383H240.039V124.785ZM249.549 126.953C248.793 126.953 248.255 126.466 248.255 125.76C248.255 125.071 248.793 124.567 249.549 124.567C250.306 124.567 250.844 125.071 250.844 125.76C250.844 126.466 250.306 126.953 249.549 126.953ZM248.474 128.248H250.625V136.383H248.474V128.248ZM251.682 128.248H253.918L256.12 134.114L258.321 128.248H260.473L257.128 136.383H255.027L251.682 128.248ZM263.103 133.004C263.305 134.298 264.297 134.92 265.524 134.92C266.616 134.92 267.591 134.433 267.978 134.097L268.818 135.256C268.364 135.727 267.137 136.567 265.154 136.567C262.7 136.567 260.885 135.072 260.885 132.45C260.885 129.844 262.784 128.096 265.103 128.096C267.608 128.096 269.121 129.744 269.121 131.912C269.121 132.332 269.087 133.004 269.087 133.004H263.103ZM265.087 129.693C263.809 129.693 263.137 130.584 263.07 131.609H266.969C266.936 130.718 266.599 129.693 265.087 129.693ZM270.011 130.97H274.398V132.685H270.011V130.97ZM281.212 129.979C282.842 130.651 283.481 131.559 283.481 133.004C283.481 135.156 281.901 136.584 279.447 136.584C277.464 136.584 276.102 135.66 275.346 134.786L276.388 133.206C277.296 134.198 278.388 134.735 279.481 134.735C280.556 134.735 281.296 134.214 281.296 133.206C281.296 132.298 280.691 131.996 279.699 131.592L277.884 130.87C276.623 130.365 275.783 129.475 275.783 128.063C275.783 126.046 277.363 124.651 279.8 124.651C281.447 124.651 282.641 125.34 283.33 126.046L282.288 127.609C281.548 126.937 280.657 126.449 279.666 126.449C278.708 126.449 277.951 126.92 277.951 127.777C277.951 128.617 278.674 128.937 279.279 129.189L281.212 129.979ZM287.481 133.223C287.481 134.466 287.699 134.769 288.456 134.769C288.893 134.769 289.229 134.635 289.229 134.635L289.346 136.299C289.246 136.332 288.607 136.567 287.699 136.567C286.035 136.567 285.346 135.811 285.346 133.693V129.928H284.136V128.264H285.346V125.945H287.481V128.264H289.363V129.928H287.481V133.223ZM295.313 135.441C294.977 136.03 294.035 136.567 292.825 136.567C291.245 136.567 289.968 135.71 289.968 134.013C289.968 132.315 291.632 131.66 293.313 131.542L295.262 131.407V131.189C295.262 130.147 294.573 129.659 293.447 129.659C292.372 129.659 291.481 130.063 291.128 130.332L290.472 128.954C291.094 128.584 292.237 128.096 293.649 128.096C295.094 128.096 295.918 128.466 296.523 129.038C297.111 129.609 297.414 130.349 297.414 131.727V136.383H295.346L295.313 135.441ZM293.817 132.803C292.674 132.87 292.119 133.256 292.119 133.945C292.119 134.635 292.64 135.105 293.531 135.105C294.372 135.105 294.994 134.618 295.279 134.214V132.718L293.817 132.803ZM299.256 128.248H301.391L301.357 129.559H301.408C301.727 128.685 302.534 128.096 303.408 128.096C303.963 128.096 304.265 128.248 304.265 128.248L304.114 130.113H304.013C303.778 130.046 303.408 130.012 303.122 130.012C302.483 130.012 301.996 130.281 301.693 130.802C301.492 131.206 301.391 131.76 301.391 132.382V136.383H299.256V128.248ZM312.057 131.676H311.015V136.383H308.83V124.785H312.561C313.788 124.785 314.763 125.054 315.485 125.609C316.208 126.163 316.729 127.054 316.729 128.164C316.729 130.164 315.637 130.97 314.225 131.407L317.351 136.383H314.796L312.057 131.676ZM312.141 129.962C312.847 129.962 313.384 129.912 313.805 129.592C314.242 129.273 314.477 128.886 314.477 128.231C314.477 127.592 314.242 127.172 313.805 126.869C313.384 126.55 312.847 126.5 312.141 126.5H310.998V129.962H312.141ZM323.643 135.441C323.307 136.03 322.366 136.567 321.156 136.567C319.576 136.567 318.298 135.71 318.298 134.013C318.298 132.315 319.962 131.66 321.643 131.542L323.593 131.407V131.189C323.593 130.147 322.904 129.659 321.777 129.659C320.702 129.659 319.811 130.063 319.458 130.332L318.802 128.954C319.424 128.584 320.567 128.096 321.979 128.096C323.425 128.096 324.248 128.466 324.853 129.038C325.441 129.609 325.744 130.349 325.744 131.727V136.383H323.677L323.643 135.441ZM322.147 132.803C321.004 132.87 320.45 133.256 320.45 133.945C320.45 134.635 320.971 135.105 321.861 135.105C322.702 135.105 323.324 134.618 323.609 134.214V132.718L322.147 132.803ZM330.091 133.223C330.091 134.466 330.309 134.769 331.066 134.769C331.503 134.769 331.839 134.635 331.839 134.635L331.957 136.299C331.856 136.332 331.217 136.567 330.309 136.567C328.645 136.567 327.956 135.811 327.956 133.693V129.928H326.746V128.264H327.956V125.945H330.091V128.264H331.973V129.928H330.091V133.223ZM334.343 126.953C333.587 126.953 333.049 126.466 333.049 125.76C333.049 125.071 333.587 124.567 334.343 124.567C335.099 124.567 335.637 125.071 335.637 125.76C335.637 126.466 335.099 126.953 334.343 126.953ZM333.267 128.248H335.419V136.383H333.267V128.248ZM342.863 132.029C342.863 130.819 342.644 129.861 341.401 129.861C340.073 129.861 339.619 130.97 339.619 132.332V136.383H337.468V128.248H339.619L339.602 129.475H339.653C340.09 128.617 340.913 128.096 342.09 128.096C344.426 128.096 345.014 129.609 345.014 131.559V136.383H342.863V132.029ZM353.022 134.836C352.468 135.677 351.493 136.114 350.249 136.114C348.199 136.114 346.451 134.803 346.451 132.214C346.451 129.962 348.031 128.096 350.451 128.096C351.543 128.096 352.468 128.5 353.039 129.374H353.073L353.056 128.248H355.191V134.702C355.191 136.483 354.821 137.492 354.132 138.215C353.426 138.954 352.384 139.643 350.434 139.643C348.501 139.643 347.056 138.719 346.652 138.433L347.543 136.937C348.064 137.307 349.392 137.895 350.434 137.895C351.594 137.895 352.199 137.525 352.501 137.173C352.804 136.82 353.056 136.147 353.056 135.24V134.836H353.022ZM353.174 132.164C353.174 130.987 352.3 129.794 350.888 129.794C349.476 129.794 348.636 130.836 348.636 132.164C348.636 133.408 349.442 134.433 350.854 134.433C352.401 134.433 353.174 133.408 353.174 132.164ZM361.903 130.399C361.432 130.046 360.743 129.71 360.004 129.71C359.298 129.71 358.945 129.979 358.945 130.365C358.945 130.718 359.214 131.004 360.121 131.29L360.693 131.475C362.491 132.063 363.13 132.702 363.13 133.878C363.13 135.425 361.903 136.567 359.903 136.567C358.659 136.567 357.264 136.063 356.608 135.307L357.482 133.845C358.44 134.584 359.264 134.954 359.953 134.954C360.76 134.954 361.13 134.651 361.13 134.181C361.13 133.761 360.81 133.525 359.768 133.172L358.827 132.853C357.617 132.45 356.995 131.727 356.995 130.533C356.995 129.054 358.34 128.096 359.903 128.096C361.348 128.096 362.155 128.483 362.827 128.97L361.903 130.399Z" fill="#24A344"/>
<path d="M39.3991 116.876L42.3964 126.102H52.0974L44.249 131.804L47.2475 141.03L39.3991 135.327L31.5507 141.03L34.5492 131.804L26.7008 126.102H36.4018L39.3991 116.876Z" fill="#FCD214"/>
<path d="M68.7304 116.876L71.7277 126.102H81.4287L73.5803 131.804L76.5787 141.03L68.7304 135.327L60.882 141.03L63.8804 131.804L56.032 126.102H65.733L68.7304 116.876Z" fill="#FCD214"/>
<path d="M98.0623 116.876L101.06 126.102H110.761L102.912 131.804L105.911 141.03L98.0623 135.327L90.2139 141.03L93.2124 131.804L85.364 126.102H95.065L98.0623 116.876Z" fill="#FCD214"/>
<path d="M127.393 116.876L130.391 126.102H140.092L132.243 131.804L135.242 141.03L127.393 135.327L119.545 141.03L122.543 131.804L114.695 126.102H124.396L127.393 116.876Z" fill="#FCD214"/>
<path d="M156.725 116.876L159.722 126.102H169.423L161.575 131.804L164.573 141.03L156.725 135.327L148.876 141.03L151.875 131.804L144.026 126.102H153.727L156.725 116.876Z" fill="#FCD214"/>
</svg>
