<svg fill="none" height="257" viewBox="0 0 414 257" width="414" xmlns="http://www.w3.org/2000/svg"><path d="m0 0h413.571v256.699h-413.571z" fill="#fff"/><path d="m257.143 215.343 2.788 8.578h9.02l-7.298 5.302 2.788 8.578-7.298-5.301-7.297 5.301 2.787-8.578-7.297-5.302h9.02z" fill="#fcd214"/><path d="m318.889 215.343 2.788 8.578h9.02l-7.298 5.302 2.788 8.578-7.298-5.301-7.297 5.301 2.787-8.578-7.297-5.302h9.02z" fill="#fcd214"/><path d="m288.016 215.343 2.788 8.578h9.02l-7.298 5.302 2.788 8.578-7.298-5.301-7.297 5.301 2.787-8.578-7.297-5.302h9.02z" fill="#fcd214"/><path d="m349.757 215.343 2.787 8.578h9.02l-7.297 5.302 2.787 8.578-7.297-5.301-7.298 5.301 2.788-8.578-7.298-5.302h9.02z" fill="#fcd214"/><path d="m380.63 215.343 2.787 8.578h9.02l-7.297 5.302 2.787 8.578-7.297-5.301-7.298 5.301 2.788-8.578-7.298-5.302h9.02z" fill="#fcd214"/><g fill="#000"><path d="m36.9626 35.6528v-13.7762h-1.9367v5.6902h-7.3273v-5.6902h-1.9367v13.7762h1.9367v-6.4289h7.3273v6.4289z"/><path d="m47.4748 35.6528v-5.5105c0-2.7552-1.3777-4.1528-4.1529-4.1528-1.5772 0-2.855.559-3.5538.9583l.579 1.2778c.3194-.1996 1.4774-.8185 2.855-.8185 1.3777 0 2.356.7187 2.356 2.1562v.3794l-2.5356.0998c-2.1963.0998-3.7136 1.0382-3.7136 2.895 0 1.8368 1.5173 2.9349 3.2743 2.9349 1.737 0 2.6355-1.0182 3.0148-1.4175l.02 1.1979zm-1.8968-4.5521v2.0365c-.3593.539-1.1779 1.3776-2.4158 1.3776-1.2578 0-1.9566-.7387-1.9566-1.6372 0-.8984.6189-1.5573 2.1563-1.6372z"/><path d="m57.9275 26.1692h-1.9766l-2.7952 7.1476-2.8151-7.1476h-1.9966l3.9532 9.4836h1.6771z"/><path d="m67.8801 30.5217c0-2.6554-1.8567-4.5322-4.4922-4.5322-2.6354 0-4.8117 1.9167-4.8117 4.9115 0 3.0148 1.9367 4.9714 4.7518 4.9714 2.8351 0 4.053-1.3976 4.1728-1.4974l-.7986-1.0981c-.2196.1398-1.3577 1.0981-3.1346 1.0981-1.757 0-2.9549-1.138-3.0547-3.0148h7.3073s.0599-.4791.0599-.8385zm-1.8168-.4393h-5.5305c.0599-1.138.8985-2.7153 2.7952-2.7153 1.9167 0 2.7153 1.6572 2.7353 2.7153z"/><path d="m82.046 26.1692-1.9766-.02-2.7952 7.3873-2.875-7.3673-1.9966-.02 3.8534 9.304-.4592 1.2578c-.2596.6988-.4592 1.1181-1.2379 1.1181-.4791 0-.9982-.2197-.9982-.2197l-.3794 1.5573s.7387.3395 1.7969.3395 1.8368-.5591 2.4957-2.1963z"/><path d="m92.6594 30.9409c0-2.9349-2.1962-4.9514-5.0114-4.9514-2.8351 0-5.0313 2.0165-5.0313 4.9514 0 2.9549 2.1962 4.9315 5.0313 4.9315 2.8152 0 5.0114-1.9766 5.0114-4.9315zm-1.9367-.0598c0 1.8767-1.1779 3.3542-3.0747 3.3542-1.9166 0-3.0946-1.4775-3.0946-3.3542 0-1.8568 1.178-3.3343 3.0946-3.3343 1.8968 0 3.0747 1.4775 3.0747 3.3343z"/><path d="m102.728 35.6528v-9.5036h-1.917v5.0912c0 1.5973-.679 3.0348-2.3558 3.0348-1.6971 0-1.9766-1.2179-1.9766-2.5157v-5.6103h-1.8968v5.6902c0 2.3559.6988 4.033 3.3343 4.033 1.3377 0 2.4159-.6588 2.9349-1.5772l.02 1.3576z"/><path d="m118.008 30.5217c0-2.6554-1.856-4.5322-4.492-4.5322-2.635 0-4.812 1.9167-4.812 4.9115 0 3.0148 1.937 4.9714 4.752 4.9714 2.835 0 4.053-1.3976 4.173-1.4974l-.799-1.0981c-.219.1398-1.357 1.0981-3.134 1.0981-1.757 0-2.955-1.138-3.055-3.0148h7.308s.059-.4791.059-.8385zm-1.816-.4393h-5.531c.06-1.138.899-2.7153 2.795-2.7153 1.917 0 2.716 1.6572 2.736 2.7153z"/><path d="m128.197 26.1692h-1.977l-2.795 7.1476-2.815-7.1476h-1.997l3.953 9.4836h1.678z"/><path d="m138.149 30.5217c0-2.6554-1.856-4.5322-4.492-4.5322-2.635 0-4.812 1.9167-4.812 4.9115 0 3.0148 1.937 4.9714 4.752 4.9714 2.835 0 4.053-1.3976 4.173-1.4974l-.799-1.0981c-.219.1398-1.357 1.0981-3.134 1.0981-1.757 0-2.955-1.138-3.055-3.0148h7.308s.059-.4791.059-.8385zm-1.816-.4393h-5.531c.06-1.138.899-2.7153 2.795-2.7153 1.917 0 2.716 1.6572 2.736 2.7153z"/><path d="m145.343 26.1492s-.359-.1597-.998-.1597c-1.019 0-1.877.559-2.336 1.6372h-.06l.02-1.4575h-1.917v9.4836h1.917v-4.7318c0-1.3776.419-3.1945 2.136-3.1945.519 0 .859.1198 1.038.1997h.08z"/><path d="m164.394 26.1692h-1.937l-2.196 7.1676-2.496-7.1876h-1.537l-2.496 7.1876-2.196-7.1676h-1.937l3.135 9.4836h1.757l2.515-7.0877 2.496 7.0877h1.757z"/><path d="m175.31 30.9409c0-2.9349-2.197-4.9514-5.012-4.9514-2.835 0-5.031 2.0165-5.031 4.9514 0 2.9549 2.196 4.9315 5.031 4.9315 2.815 0 5.012-1.9766 5.012-4.9315zm-1.937-.0598c0 1.8767-1.178 3.3542-3.075 3.3542-1.916 0-3.094-1.4775-3.094-3.3542 0-1.8568 1.178-3.3343 3.094-3.3343 1.897 0 3.075 1.4775 3.075 3.3343z"/><path d="m185.558 35.6528v-5.6103c0-2.2761-.699-4.053-3.394-4.053-1.378 0-2.396.7387-2.895 1.6771h-.06l.02-1.4974h-1.917v9.4836h1.917v-4.7717c0-1.8169.658-3.3143 2.435-3.3143 1.697 0 1.977 1.1979 1.977 2.7951v5.2909z"/><path d="m197.298 35.6528v-13.7762h-1.897v5.77h-.04c-.659-.9783-1.777-1.6571-3.314-1.6571-2.775 0-4.572 2.1163-4.572 4.9115 0 2.8152 1.797 4.9714 4.612 4.9714 1.377 0 2.555-.579 3.334-1.737h.04v1.5174zm-1.837-4.7717c0 1.8967-1.118 3.3542-3.015 3.3542s-3.015-1.4575-3.015-3.3542c0-1.8968 1.118-3.3343 3.015-3.3343s3.015 1.4375 3.015 3.3343z"/><path d="m208.692 30.5217c0-2.6554-1.857-4.5322-4.493-4.5322-2.635 0-4.811 1.9167-4.811 4.9115 0 3.0148 1.936 4.9714 4.752 4.9714 2.835 0 4.053-1.3976 4.172-1.4974l-.798-1.0981c-.22.1398-1.358 1.0981-3.135 1.0981-1.757 0-2.955-1.138-3.055-3.0148h7.308s.06-.4791.06-.8385zm-1.817-.4393h-5.531c.06-1.138.899-2.7153 2.796-2.7153 1.916 0 2.715 1.6572 2.735 2.7153z"/><path d="m215.885 26.1492s-.359-.1597-.998-.1597c-1.018 0-1.877.559-2.336 1.6372h-.06l.02-1.4575h-1.917v9.4836h1.917v-4.7318c0-1.3776.419-3.1945 2.136-3.1945.519 0 .859.1198 1.039.1997h.079z"/><path d="m225.85 30.5217c0-2.6554-1.857-4.5322-4.493-4.5322-2.635 0-4.811 1.9167-4.811 4.9115 0 3.0148 1.936 4.9714 4.751 4.9714 2.835 0 4.053-1.3976 4.173-1.4974l-.798-1.0981c-.22.1398-1.358 1.0981-3.135 1.0981-1.757 0-2.955-1.138-3.055-3.0148h7.308s.06-.4791.06-.8385zm-1.817-.4393h-5.531c.06-1.138.899-2.7153 2.795-2.7153 1.917 0 2.716 1.6572 2.736 2.7153z"/><path d="m237.034 35.6528v-13.7762h-1.897v5.77h-.04c-.659-.9783-1.777-1.6571-3.314-1.6571-2.775 0-4.572 2.1163-4.572 4.9115 0 2.8152 1.797 4.9714 4.612 4.9714 1.377 0 2.555-.579 3.334-1.737h.04v1.5174zm-1.837-4.7717c0 1.8967-1.118 3.3542-3.015 3.3542s-3.015-1.4575-3.015-3.3542c0-1.8968 1.118-3.3343 3.015-3.3343s3.015 1.4375 3.015 3.3343z"/><path d="m246.016 23.0546c0-.6789-.519-1.178-1.238-1.178-.738 0-1.257.4991-1.257 1.178 0 .6788.519 1.1779 1.257 1.1779.719 0 1.238-.4991 1.238-1.1779zm-.279 12.5982v-9.4836h-1.917v9.4836z"/><path d="m253.37 21.8766s-.539-.2196-1.637-.2196-1.857.5191-2.276 1.0382c-.399.4991-.639 1.2977-.639 2.5356v.9584h-1.358v1.5373h1.358v7.9263h1.897v-7.9263h2.256v-1.5373h-2.256v-1.0582c0-1.0782.199-2.0165 1.457-2.0165.539 0 1.078.1797 1.078.1797z"/><path d="m262.527 35.553-.12-1.5374s-.419.2197-.978.2197c-.539 0-.799-.1797-.978-.4792-.22-.3993-.24-.9384-.24-1.737v-4.2926h2.276v-1.5373h-2.276v-2.8351h-1.917v2.8351h-1.397v1.5373h1.397v4.3325c0 1.8568.12 3.8134 2.496 3.8134.659 0 1.238-.0998 1.737-.3194z"/><path d="m272.461 35.6528v-5.6502c0-2.2561-.659-4.0131-3.394-4.0131-1.378 0-2.416.7387-2.915 1.6771h-.04v-5.79h-1.897v13.7762h1.897v-4.6919c0-1.8967.738-3.3941 2.475-3.3941s1.957 1.3576 1.957 2.7153v5.3707z"/><path d="m283.718 30.5217c0-2.6554-1.856-4.5322-4.492-4.5322-2.635 0-4.812 1.9167-4.812 4.9115 0 3.0148 1.937 4.9714 4.752 4.9714 2.835 0 4.053-1.3976 4.173-1.4974l-.799-1.0981c-.219.1398-1.357 1.0981-3.134 1.0981-1.757 0-2.955-1.138-3.055-3.0148h7.307s.06-.4791.06-.8385zm-1.817-.4393h-5.53c.06-1.138.898-2.7153 2.795-2.7153 1.917 0 2.715 1.6572 2.735 2.7153z"/><path d="m290.912 26.1492s-.36-.1597-.998-.1597c-1.019 0-1.877.559-2.336 1.6372h-.06l.02-1.4575h-1.917v9.4836h1.917v-4.7318c0-1.3776.419-3.1945 2.136-3.1945.519 0 .858.1198 1.038.1997h.08z"/><path d="m300.876 30.5217c0-2.6554-1.857-4.5322-4.492-4.5322s-4.812 1.9167-4.812 4.9115c0 3.0148 1.937 4.9714 4.752 4.9714 2.835 0 4.053-1.3976 4.173-1.4974l-.799-1.0981c-.219.1398-1.357 1.0981-3.134 1.0981-1.757 0-2.955-1.138-3.055-3.0148h7.307s.06-.4791.06-.8385zm-1.817-.4393h-5.53c.06-1.138.898-2.7153 2.795-2.7153 1.917 0 2.715 1.6572 2.735 2.7153z"/><path d="m309.032 23.0546c0-.6789-.519-1.178-1.237-1.178-.739 0-1.258.4991-1.258 1.178 0 .6788.519 1.1779 1.258 1.1779.718 0 1.237-.4991 1.237-1.1779zm-.279 12.5982v-9.4836h-1.917v9.4836z"/><path d="m317.864 32.8776c0-1.2379-.799-1.9965-1.857-2.4358-.399-.1597-.759-.2795-1.278-.4592-.938-.2995-1.857-.6389-1.857-1.4175 0-.7787.599-1.178 1.518-1.178.918 0 1.837.4392 2.396 1.0182l.798-1.1779c-.599-.6389-1.557-1.2379-3.234-1.2379s-3.195.9583-3.195 2.7153c0 1.7969 1.398 2.296 2.795 2.7752.639.2196 2.137.5391 2.137 1.5773s-.939 1.3576-1.817 1.3576c-.879 0-1.997-.5191-2.795-1.3576l-.919 1.1181c.799 1.0382 2.097 1.697 3.694 1.697 1.837 0 3.614-.9583 3.614-2.9948z"/><path d="m331.087 35.6528v-5.5105c0-2.7552-1.378-4.1528-4.153-4.1528-1.578 0-2.855.559-3.554.9583l.579 1.2778c.319-.1996 1.477-.8185 2.855-.8185s2.356.7187 2.356 2.1562v.3794l-2.536.0998c-2.196.0998-3.713 1.0382-3.713 2.895 0 1.8368 1.517 2.9349 3.274 2.9349 1.737 0 2.635-1.0182 3.015-1.4175l.02 1.1979zm-1.897-4.5521v2.0365c-.36.539-1.178 1.3776-2.416 1.3776-1.258 0-1.957-.7387-1.957-1.6372 0-.8984.619-1.5573 2.157-1.6372z"/><path d="m341.792 35.6528v-5.6103c0-2.2761-.699-4.053-3.394-4.053-1.378 0-2.396.7387-2.895 1.6771h-.06l.02-1.4974h-1.917v9.4836h1.917v-4.7717c0-1.8169.659-3.3143 2.435-3.3143 1.698 0 1.977 1.1979 1.977 2.7951v5.2909z"/><path d="m34.2273 56.1916c0-2.6554-1.8568-4.5321-4.4922-4.5321-2.6355 0-4.8117 1.9166-4.8117 4.9115 0 3.0148 1.9367 4.9714 4.7518 4.9714 2.8351 0 4.053-1.3976 4.1728-1.4974l-.7986-1.0981c-.2197.1397-1.3577 1.0981-3.1346 1.0981-1.757 0-2.9549-1.1381-3.0547-3.0148h7.3073s.0599-.4792.0599-.8386zm-1.8168-.4392h-5.5305c.0599-1.1381.8985-2.7153 2.7952-2.7153 1.9167 0 2.7153 1.6571 2.7353 2.7153z"/><path d="m43.6922 61.3228v-5.5105c0-2.7553-1.3776-4.1528-4.1528-4.1528-1.5773 0-2.8551.559-3.5539.9583l.579 1.2778c.3195-.1997 1.4775-.8186 2.8551-.8186s2.3559.7188 2.3559 2.1563v.3793l-2.5356.0999c-2.1962.0998-3.7136 1.0382-3.7136 2.895 0 1.8368 1.5174 2.9349 3.2744 2.9349 1.737 0 2.6354-1.0183 3.0148-1.4176l.0199 1.198zm-1.8967-4.5522v2.0365c-.3594.5391-1.178 1.3776-2.4158 1.3776-1.2578 0-1.9566-.7387-1.9566-1.6371 0-.8985.6189-1.5574 2.1562-1.6372z"/><path d="m52.5407 58.5476c0-1.2379-.7986-1.9966-1.8568-2.4358-.3993-.1598-.7587-.2796-1.2778-.4592-.9384-.2995-1.8568-.6389-1.8568-1.4176s.599-1.178 1.5174-1.178 1.8368.4393 2.3959 1.0183l.7986-1.178c-.599-.6389-1.5573-1.2378-3.2344-1.2378s-3.1945.9583-3.1945 2.7153c0 1.7969 1.3976 2.296 2.7952 2.7752.6389.2196 2.1363.539 2.1363 1.5772 0 1.0383-.9384 1.3577-1.8169 1.3577s-1.9965-.5191-2.7952-1.3577l-.9184 1.1181c.7986 1.0382 2.0964 1.6971 3.6936 1.6971 1.8369 0 3.6138-.9584 3.6138-2.9948z"/><path d="m56.6948 48.7245c0-.6788-.5191-1.1779-1.2379-1.1779-.7387 0-1.2578.4991-1.2578 1.1779s.5191 1.178 1.2578 1.178c.7188 0 1.2379-.4992 1.2379-1.178zm-.2795 12.5983v-9.4837h-1.9167v9.4837z"/><path d="m67.8022 56.1916c0-2.6554-1.8568-4.5321-4.4923-4.5321-2.6354 0-4.8117 1.9166-4.8117 4.9115 0 3.0148 1.9367 4.9714 4.7518 4.9714 2.8351 0 4.053-1.3976 4.1728-1.4974l-.7986-1.0981c-.2196.1397-1.3577 1.0981-3.1346 1.0981-1.757 0-2.9549-1.1381-3.0547-3.0148h7.3074s.0599-.4792.0599-.8386zm-1.8169-.4392h-5.5305c.0599-1.1381.8985-2.7153 2.7952-2.7153 1.9167 0 2.7153 1.6571 2.7353 2.7153z"/><path d="m74.9957 51.8192s-.3594-.1597-.9983-.1597c-1.0182 0-1.8768.559-2.336 1.6371h-.0599l.02-1.4575h-1.9167v9.4837h1.9167v-4.7319c0-1.3776.4193-3.1944 2.1363-3.1944.5191 0 .8585.1197 1.0382.1996h.0799z"/><path d="m94.0464 51.8391h-1.9367l-2.1962 7.1677-2.4957-7.1876h-1.5373l-2.4957 7.1876-2.1962-7.1677h-1.9367l3.1346 9.4837h1.757l2.5156-7.0878 2.4957 7.0878h1.757z"/><path d="m103.023 61.3228v-5.5105c0-2.7553-1.377-4.1528-4.1525-4.1528-1.5772 0-2.855.559-3.5538.9583l.579 1.2778c.3194-.1997 1.4774-.8186 2.855-.8186 1.3773 0 2.3563.7188 2.3563 2.1563v.3793l-2.536.0999c-2.1962.0998-3.7135 1.0382-3.7135 2.895 0 1.8368 1.5173 2.9349 3.2743 2.9349 1.737 0 2.6352-1.0183 3.0152-1.4176l.02 1.198zm-1.896-4.5522v2.0365c-.36.5391-1.1783 1.3776-2.4162 1.3776-1.2578 0-1.9566-.7387-1.9566-1.6371 0-.8985.6189-1.5574 2.1563-1.6372z"/><path d="m113.535 51.8391-1.977-.0199-2.795 7.3872-2.875-7.3673-1.997-.0199 3.854 9.3039-.46 1.2578c-.259.6988-.459 1.1181-1.237 1.1181-.48 0-.999-.2196-.999-.2196l-.379 1.5573s.739.3394 1.797.3394 1.837-.559 2.495-2.1962z"/><path d="m123.392 61.2229-.12-1.5373s-.419.2196-.978.2196c-.539 0-.798-.1797-.978-.4792-.22-.3993-.24-.9383-.24-1.737v-4.2925h2.276v-1.5374h-2.276v-2.8351h-1.916v2.8351h-1.398v1.5374h1.398v4.3325c0 1.8568.119 3.8134 2.495 3.8134.659 0 1.238-.0998 1.737-.3195z"/><path d="m134.384 56.6109c0-2.9349-2.196-4.9514-5.011-4.9514-2.835 0-5.031 2.0165-5.031 4.9514 0 2.9549 2.196 4.9315 5.031 4.9315 2.815 0 5.011-1.9766 5.011-4.9315zm-1.936-.0599c0 1.8768-1.178 3.3542-3.075 3.3542-1.917 0-3.095-1.4774-3.095-3.3542 0-1.8568 1.178-3.3342 3.095-3.3342 1.897 0 3.075 1.4774 3.075 3.3342z"/><path d="m150.287 56.571c0-2.7952-1.797-4.9115-4.572-4.9115-1.498 0-2.636.6189-3.314 1.6571h-.04v-5.77h-1.897v13.7762h1.837v-1.4975h.04c.778 1.158 1.956 1.7171 3.334 1.7171 2.815 0 4.612-2.1563 4.612-4.9714zm-1.957-.02c0 1.8967-1.118 3.3542-3.015 3.3542-1.896 0-3.034-1.4575-3.034-3.3542s1.138-3.3342 3.034-3.3342c1.897 0 3.015 1.4375 3.015 3.3342z"/><path d="m160.343 61.3228v-9.5036h-1.917v5.0912c0 1.5972-.678 3.0347-2.356 3.0347-1.697 0-1.976-1.2179-1.976-2.5156v-5.6103h-1.897v5.6901c0 2.356.699 4.0331 3.334 4.0331 1.338 0 2.416-.6589 2.935-1.5773l.02 1.3577z"/><path d="m172.165 61.3228v-13.7762h-1.896v5.77h-.04c-.659-.9783-1.777-1.6571-3.315-1.6571-2.775 0-4.572 2.1163-4.572 4.9115 0 2.8151 1.797 4.9714 4.612 4.9714 1.378 0 2.556-.579 3.335-1.737h.04v1.5174zm-1.836-4.7718c0 1.8967-1.119 3.3542-3.015 3.3542-1.897 0-3.015-1.4575-3.015-3.3542s1.118-3.3342 3.015-3.3342c1.896 0 3.015 1.4375 3.015 3.3342z"/><path d="m184.078 59.3262v-7.4871h-1.896l.02 1.4975h-.06c-.559-.8785-1.657-1.6771-3.315-1.6771-2.435 0-4.572 1.7569-4.572 4.7717s2.137 4.7718 4.572 4.7718c1.598 0 2.676-.7388 3.315-1.6971h.04v.4792c0 2.2361-.899 3.6936-3.315 3.6936-1.417 0-2.895-.7587-3.394-1.1979l-.898 1.3377c.279.1996 1.897 1.4175 4.232 1.4175 2.356 0 3.534-.9583 4.233-1.8169.699-.8385 1.038-1.9965 1.038-4.0929zm-1.836-2.895c0 1.7969-1.059 3.2145-3.015 3.2145-1.937 0-3.015-1.4176-3.015-3.2145s1.078-3.2344 3.015-3.2344c1.956 0 3.015 1.4375 3.015 3.2344z"/><path d="m195.394 56.1916c0-2.6554-1.856-4.5321-4.492-4.5321-2.635 0-4.812 1.9166-4.812 4.9115 0 3.0148 1.937 4.9714 4.752 4.9714 2.835 0 4.053-1.3976 4.173-1.4974l-.799-1.0981c-.219.1397-1.357 1.0981-3.134 1.0981-1.757 0-2.955-1.1381-3.055-3.0148h7.307s.06-.4792.06-.8386zm-1.817-.4392h-5.53c.06-1.1381.898-2.7153 2.795-2.7153 1.917 0 2.715 1.6571 2.735 2.7153z"/><path d="m201.909 61.2229-.12-1.5373s-.419.2196-.978.2196c-.539 0-.799-.1797-.978-.4792-.22-.3993-.24-.9383-.24-1.737v-4.2925h2.276v-1.5374h-2.276v-2.8351h-1.917v2.8351h-1.397v1.5374h1.397v4.3325c0 1.8568.12 3.8134 2.496 3.8134.659 0 1.238-.0998 1.737-.3195z"/><path d="m214.842 61.3228v-5.5105c0-2.7553-1.378-4.1528-4.153-4.1528-1.577 0-2.855.559-3.554.9583l.579 1.2778c.32-.1997 1.478-.8186 2.855-.8186 1.378 0 2.356.7188 2.356 2.1563v.3793l-2.535.0999c-2.197.0998-3.714 1.0382-3.714 2.895 0 1.8368 1.517 2.9349 3.274 2.9349 1.737 0 2.636-1.0183 3.015-1.4176l.02 1.198zm-1.897-4.5522v2.0365c-.359.5391-1.178 1.3776-2.416 1.3776-1.257 0-1.956-.7387-1.956-1.6371 0-.8985.619-1.5574 2.156-1.6372z"/><path d="m225.547 61.3228v-5.6103c0-2.2761-.699-4.053-3.394-4.053-1.378 0-2.396.7387-2.895 1.6771h-.06l.02-1.4975h-1.917v9.4837h1.917v-4.7718c0-1.8169.659-3.3143 2.436-3.3143 1.697 0 1.977 1.198 1.977 2.7952v5.2909z"/><path d="m237.287 61.3228v-13.7762h-1.896v5.77h-.04c-.659-.9783-1.777-1.6571-3.315-1.6571-2.775 0-4.572 2.1163-4.572 4.9115 0 2.8151 1.797 4.9714 4.612 4.9714 1.378 0 2.556-.579 3.335-1.737h.039v1.5174zm-1.837-4.7718c0 1.8967-1.118 3.3542-3.014 3.3542-1.897 0-3.015-1.4575-3.015-3.3542s1.118-3.3342 3.015-3.3342c1.896 0 3.014 1.4375 3.014 3.3342z"/><path d="m252.339 61.3228v-5.6503c0-2.2561-.659-4.013-3.394-4.013-1.378 0-2.416.7387-2.915 1.6771h-.04v-5.79h-1.897v13.7762h1.897v-4.6919c0-1.8968.739-3.3942 2.476-3.3942s1.957 1.3577 1.957 2.7153v5.3708z"/><path d="m262.299 61.3228v-5.5105c0-2.7553-1.378-4.1528-4.153-4.1528-1.577 0-2.855.559-3.554.9583l.579 1.2778c.32-.1997 1.478-.8186 2.855-.8186 1.378 0 2.356.7188 2.356 2.1563v.3793l-2.535.0999c-2.196.0998-3.714 1.0382-3.714 2.895 0 1.8368 1.518 2.9349 3.275 2.9349 1.737 0 2.635-1.0183 3.014-1.4176l.02 1.198zm-1.897-4.5522v2.0365c-.359.5391-1.178 1.3776-2.415 1.3776-1.258 0-1.957-.7387-1.957-1.6371 0-.8985.619-1.5574 2.156-1.6372z"/><path d="m272.752 51.8391h-1.977l-2.795 7.1477-2.815-7.1477h-1.997l3.954 9.4837h1.677z"/><path d="m282.704 56.1916c0-2.6554-1.856-4.5321-4.492-4.5321-2.635 0-4.811 1.9166-4.811 4.9115 0 3.0148 1.936 4.9714 4.751 4.9714 2.835 0 4.053-1.3976 4.173-1.4974l-.799-1.0981c-.219.1397-1.357 1.0981-3.134 1.0981-1.757 0-2.955-1.1381-3.055-3.0148h7.308s.059-.4792.059-.8386zm-1.816-.4392h-5.531c.06-1.1381.899-2.7153 2.795-2.7153 1.917 0 2.716 1.6571 2.736 2.7153z"/><path d="m297.769 59.3262v-7.4871h-1.897l.02 1.4975h-.06c-.559-.8785-1.657-1.6771-3.314-1.6771-2.436 0-4.572 1.7569-4.572 4.7717s2.136 4.7718 4.572 4.7718c1.597 0 2.675-.7388 3.314-1.6971h.04v.4792c0 2.2361-.898 3.6936-3.314 3.6936-1.418 0-2.895-.7587-3.394-1.1979l-.899 1.3377c.28.1996 1.897 1.4175 4.233 1.4175 2.356 0 3.534-.9583 4.233-1.8169.698-.8385 1.038-1.9965 1.038-4.0929zm-1.837-2.895c0 1.7969-1.058 3.2145-3.015 3.2145-1.937 0-3.015-1.4176-3.015-3.2145s1.078-3.2344 3.015-3.2344c1.957 0 3.015 1.4375 3.015 3.2344z"/><path d="m309.823 56.6109c0-2.9349-2.196-4.9514-5.011-4.9514-2.835 0-5.031 2.0165-5.031 4.9514 0 2.9549 2.196 4.9315 5.031 4.9315 2.815 0 5.011-1.9766 5.011-4.9315zm-1.936-.0599c0 1.8768-1.178 3.3542-3.075 3.3542-1.917 0-3.095-1.4774-3.095-3.3542 0-1.8568 1.178-3.3342 3.095-3.3342 1.897 0 3.075 1.4774 3.075 3.3342z"/><path d="m321.229 56.6109c0-2.9349-2.196-4.9514-5.011-4.9514-2.835 0-5.031 2.0165-5.031 4.9514 0 2.9549 2.196 4.9315 5.031 4.9315 2.815 0 5.011-1.9766 5.011-4.9315zm-1.936-.0599c0 1.8768-1.178 3.3542-3.075 3.3542-1.917 0-3.095-1.4774-3.095-3.3542 0-1.8568 1.178-3.3342 3.095-3.3342 1.897 0 3.075 1.4774 3.075 3.3342z"/><path d="m332.416 61.3228v-13.7762h-1.897v5.77h-.04c-.659-.9783-1.777-1.6571-3.314-1.6571-2.775 0-4.572 2.1163-4.572 4.9115 0 2.8151 1.797 4.9714 4.612 4.9714 1.378 0 2.556-.579 3.334-1.737h.04v1.5174zm-1.837-4.7718c0 1.8967-1.118 3.3542-3.015 3.3542-1.896 0-3.014-1.4575-3.014-3.3542s1.118-3.3342 3.014-3.3342c1.897 0 3.015 1.4375 3.015 3.3342z"/><path d="m34.9661 82.2808c0-2.9349-2.1963-4.9514-5.0114-4.9514-2.8351 0-5.0313 2.0165-5.0313 4.9514 0 2.9549 2.1962 4.9315 5.0313 4.9315 2.8151 0 5.0114-1.9766 5.0114-4.9315zm-1.9367-.0598c0 1.8767-1.178 3.3542-3.0747 3.3542-1.9167 0-3.0946-1.4775-3.0946-3.3542 0-1.8568 1.1779-3.3343 3.0946-3.3343 1.8967 0 3.0747 1.4775 3.0747 3.3343z"/><path d="m42.2592 77.4891s-.3593-.1597-.9982-.1597c-1.0183 0-1.8768.559-2.336 1.6372h-.0599l.02-1.4575h-1.9167v9.4836h1.9167v-4.7318c0-1.3776.4192-3.1945 2.1363-3.1945.5191 0 .8585.1198 1.0382.1997h.0798z"/><path d="m52.7427 84.9962v-7.4871h-1.8967l.0199 1.4974h-.0599c-.559-.8785-1.6571-1.6771-3.3142-1.6771-2.4358 0-4.5721 1.757-4.5721 4.7718s2.1363 4.7717 4.5721 4.7717c1.5972 0 2.6753-.7387 3.3142-1.697h.04v.4791c0 2.2362-.8985 3.6936-3.3143 3.6936-1.4176 0-2.895-.7586-3.3941-1.1979l-.8985 1.3377c.2795.1997 1.8967 1.4176 4.2327 1.4176 2.3559 0 3.5339-.9584 4.2327-1.8169.6988-.8386 1.0382-1.9966 1.0382-4.0929zm-1.8368-2.895c0 1.7969-1.0582 3.2144-3.0148 3.2144-1.9367 0-3.0148-1.4175-3.0148-3.2144s1.0781-3.2345 3.0148-3.2345c1.9566 0 3.0148 1.4376 3.0148 3.2345z"/><path d="m62.7609 86.9927v-5.5105c0-2.7552-1.3777-4.1528-4.1529-4.1528-1.5772 0-2.855.559-3.5538.9583l.579 1.2778c.3194-.1996 1.4774-.8186 2.855-.8186 1.3777 0 2.356.7188 2.356 2.1563v.3794l-2.5356.0998c-2.1963.0998-3.7136 1.0382-3.7136 2.895 0 1.8368 1.5173 2.9349 3.2743 2.9349 1.737 0 2.6355-1.0182 3.0148-1.4175l.02 1.1979zm-1.8968-4.5521v2.0365c-.3593.539-1.1779 1.3776-2.4158 1.3776-1.2578 0-1.9566-.7387-1.9566-1.6372 0-.8984.6189-1.5573 2.1563-1.6372z"/><path d="m73.4661 86.9927v-5.6103c0-2.2761-.6988-4.053-3.3941-4.053-1.3776 0-2.3959.7387-2.895 1.6771h-.0599l.02-1.4974h-1.9167v9.4836h1.9167v-4.7717c0-1.8169.6588-3.3143 2.4357-3.3143 1.6971 0 1.9766 1.1979 1.9766 2.7951v5.2909z"/><path d="m78.2981 74.3945c0-.6789-.5191-1.178-1.2379-1.178-.7387 0-1.2578.4991-1.2578 1.178 0 .6788.5191 1.1779 1.2578 1.1779.7188 0 1.2379-.4991 1.2379-1.1779zm-.2795 12.5982v-9.4836h-1.9167v9.4836z"/><path d="m88.1077 86.9927v-1.5773h-5.81l5.5305-6.7283v-1.158h-7.7067v1.5373h5.2709l-5.5504 6.7483v1.178z"/><path d="m97.2131 86.9927v-5.5105c0-2.7552-1.3776-4.1528-4.1528-4.1528-1.5773 0-2.8551.559-3.5539.9583l.579 1.2778c.3194-.1996 1.4774-.8186 2.8551-.8186 1.3776 0 2.3559.7188 2.3559 2.1563v.3794l-2.5356.0998c-2.1962.0998-3.7136 1.0382-3.7136 2.895 0 1.8368 1.5174 2.9349 3.2743 2.9349 1.737 0 2.6355-1.0182 3.0148-1.4175l.02 1.1979zm-1.8967-4.5521v2.0365c-.3594.539-1.178 1.3776-2.4159 1.3776-1.2578 0-1.9566-.7387-1.9566-1.6372 0-.8984.6189-1.5573 2.1563-1.6372z"/><path d="m104.285 86.8929-.12-1.5374s-.419.2197-.978.2197c-.54 0-.799-.1797-.979-.4792-.219-.3993-.239-.9384-.239-1.737v-4.2926h2.276v-1.5373h-2.276v-2.8351h-1.917v2.8351h-1.3977v1.5373h1.3977v4.3325c0 1.8568.12 3.8134 2.496 3.8134.658 0 1.237-.0998 1.737-.3194z"/><path d="m108.149 74.3945c0-.6789-.519-1.178-1.238-1.178-.739 0-1.258.4991-1.258 1.178 0 .6788.519 1.1779 1.258 1.1779.719 0 1.238-.4991 1.238-1.1779zm-.28 12.5982v-9.4836h-1.916v9.4836z"/><path d="m119.995 82.2808c0-2.9349-2.196-4.9514-5.011-4.9514-2.835 0-5.032 2.0165-5.032 4.9514 0 2.9549 2.197 4.9315 5.032 4.9315 2.815 0 5.011-1.9766 5.011-4.9315zm-1.937-.0598c0 1.8767-1.178 3.3542-3.074 3.3542-1.917 0-3.095-1.4775-3.095-3.3542 0-1.8568 1.178-3.3343 3.095-3.3343 1.896 0 3.074 1.4775 3.074 3.3343z"/><path d="m130.243 86.9927v-5.6103c0-2.2761-.699-4.053-3.394-4.053-1.378 0-2.396.7387-2.895 1.6771h-.06l.02-1.4974h-1.917v9.4836h1.917v-4.7717c0-1.8169.659-3.3143 2.436-3.3143 1.697 0 1.976 1.1979 1.976 2.7951v5.2909z"/><path d="m139.582 76.2912c0-1.717-1.438-3.2744-3.794-3.2744-2.336 0-3.394 1.2778-3.733 1.8768l.838 1.1979c.42-.7187 1.298-1.4774 2.616-1.4774 1.338 0 2.236.6988 2.236 1.8767 0 .619-.26 1.0982-.639 1.4575l-1.158 1.0582c-.679.6389-1.437 1.3177-1.398 2.895l.04 1.4176h1.618l.04-1.3976c.02-.3195.059-.5191.159-.7388.24-.579.839-.9982 1.538-1.6771.838-.8185 1.637-1.5972 1.637-3.2144zm-2.855 9.6633c0-.7787-.539-1.2578-1.318-1.2578s-1.318.4791-1.318 1.2578c0 .7587.539 1.2379 1.318 1.2379s1.318-.4792 1.318-1.2379z"/><path d="m163.129 73.2165h-2.036l-2.975 10.8612-3.175-10.8612h-1.976l-3.175 10.8612-2.975-10.8612h-2.036l3.973 13.7962h1.897l3.294-11.1408 3.314 11.1408h1.897z"/><path d="m172.816 81.8616c0-2.6554-1.857-4.5322-4.492-4.5322-2.636 0-4.812 1.9167-4.812 4.9115 0 3.0148 1.937 4.9714 4.752 4.9714 2.835 0 4.053-1.3976 4.173-1.4974l-.799-1.0981c-.219.1398-1.358 1.0981-3.134 1.0981-1.757 0-2.955-1.138-3.055-3.0148h7.307s.06-.4791.06-.8385zm-1.817-.4393h-5.53c.06-1.138.898-2.7153 2.795-2.7153 1.917 0 2.715 1.6572 2.735 2.7153z"/><path d="m176.715 86.9927v-13.7762h-1.896v13.7762z"/><path d="m181.453 86.9927v-13.7762h-1.896v13.7762z"/><path d="m187.449 84.8764h-1.957l-1.397 4.9115h1.517z"/><path d="m198.789 86.8929-.119-1.5374s-.42.2197-.979.2197c-.539 0-.798-.1797-.978-.4792-.22-.3993-.24-.9384-.24-1.737v-4.2926h2.276v-1.5373h-2.276v-2.8351h-1.916v2.8351h-1.398v1.5373h1.398v4.3325c0 1.8568.119 3.8134 2.495 3.8134.659 0 1.238-.0998 1.737-.3194z"/><path d="m208.723 86.9927v-5.6502c0-2.2561-.659-4.0131-3.394-4.0131-1.378 0-2.416.7387-2.915 1.6771h-.04v-5.79h-1.897v13.7762h1.897v-4.6919c0-1.8967.739-3.3941 2.476-3.3941s1.956 1.3576 1.956 2.7153v5.3707z"/><path d="m213.592 74.3945c0-.6789-.519-1.178-1.238-1.178-.739 0-1.258.4991-1.258 1.178 0 .6788.519 1.1779 1.258 1.1779.719 0 1.238-.4991 1.238-1.1779zm-.28 12.5982v-9.4836h-1.916v9.4836z"/><path d="m222.423 84.2175c0-1.2379-.799-1.9965-1.857-2.4358-.399-.1597-.758-.2795-1.278-.4592-.938-.2995-1.856-.6389-1.856-1.4176 0-.7786.599-1.1779 1.517-1.1779.919 0 1.837.4392 2.396 1.0182l.799-1.1779c-.599-.6389-1.558-1.2379-3.235-1.2379s-3.194.9583-3.194 2.7153c0 1.7969 1.397 2.296 2.795 2.7752.639.2196 2.136.5391 2.136 1.5773s-.938 1.3576-1.817 1.3576c-.878 0-1.996-.5191-2.795-1.3576l-.918 1.1181c.798 1.0382 2.096 1.697 3.693 1.697 1.837 0 3.614-.9583 3.614-2.9948z"/><path d="m235.646 86.9927v-5.5105c0-2.7552-1.378-4.1528-4.153-4.1528-1.577 0-2.855.559-3.554.9583l.579 1.2778c.32-.1996 1.478-.8186 2.855-.8186 1.378 0 2.356.7188 2.356 2.1563v.3794l-2.535.0998c-2.197.0998-3.714 1.0382-3.714 2.895 0 1.8368 1.517 2.9349 3.274 2.9349 1.737 0 2.636-1.0182 3.015-1.4175l.02 1.1979zm-1.897-4.5521v2.0365c-.359.539-1.178 1.3776-2.416 1.3776-1.258 0-1.956-.7387-1.956-1.6372 0-.8984.619-1.5573 2.156-1.6372z"/><path d="m248.008 82.2409c0-2.8151-1.777-4.9115-4.572-4.9115-1.397 0-2.535.559-3.374 1.6771h-.04v-1.4974h-1.837v13.1972h1.917v-5.211l.02.02c.679 1.0581 1.777 1.697 3.274 1.697 2.815 0 4.612-2.1562 4.612-4.9714zm-1.956-.0199c0 1.8967-1.118 3.3542-3.015 3.3542s-3.015-1.4575-3.015-3.3542c0-1.8968 1.118-3.3343 3.015-3.3343s3.015 1.4375 3.015 3.3343z"/><path d="m259.902 82.2409c0-2.8151-1.777-4.9115-4.572-4.9115-1.398 0-2.536.559-3.374 1.6771h-.04v-1.4974h-1.837v13.1972h1.916v-5.211l.02.02c.679 1.0581 1.777 1.697 3.275 1.697 2.815 0 4.612-2.1562 4.612-4.9714zm-1.957-.0199c0 1.8967-1.118 3.3542-3.015 3.3542-1.896 0-3.014-1.4575-3.014-3.3542 0-1.8968 1.118-3.3343 3.014-3.3343 1.897 0 3.015 1.4375 3.015 3.3343z"/><path d="m268.146 74.3945c0-.6789-.519-1.178-1.238-1.178-.739 0-1.258.4991-1.258 1.178 0 .6788.519 1.1779 1.258 1.1779.719 0 1.238-.4991 1.238-1.1779zm-.28 12.5982v-9.4836h-1.916v9.4836z"/><path d="m276.977 84.2175c0-1.2379-.798-1.9965-1.856-2.4358-.4-.1597-.759-.2795-1.278-.4592-.939-.2995-1.857-.6389-1.857-1.4176 0-.7786.599-1.1779 1.517-1.1779.919 0 1.837.4392 2.396 1.0182l.799-1.1779c-.599-.6389-1.558-1.2379-3.235-1.2379s-3.194.9583-3.194 2.7153c0 1.7969 1.397 2.296 2.795 2.7752.639.2196 2.136.5391 2.136 1.5773s-.938 1.3576-1.816 1.3576c-.879 0-1.997-.5191-2.796-1.3576l-.918 1.1181c.799 1.0382 2.096 1.697 3.694 1.697 1.836 0 3.613-.9583 3.613-2.9948z"/><path d="m287.445 86.8929-.12-1.5374s-.419.2197-.978.2197c-.539 0-.799-.1797-.979-.4792-.219-.3993-.239-.9384-.239-1.737v-4.2926h2.276v-1.5373h-2.276v-2.8351h-1.917v2.8351h-1.397v1.5373h1.397v4.3325c0 1.8568.12 3.8134 2.496 3.8134.659 0 1.238-.0998 1.737-.3194z"/><path d="m297.379 86.9927v-5.6502c0-2.2561-.659-4.0131-3.395-4.0131-1.377 0-2.415.7387-2.914 1.6771h-.04v-5.79h-1.897v13.7762h1.897v-4.6919c0-1.8967.738-3.3941 2.475-3.3941s1.957 1.3576 1.957 2.7153v5.3707z"/><path d="m308.636 81.8616c0-2.6554-1.857-4.5322-4.492-4.5322s-4.812 1.9167-4.812 4.9115c0 3.0148 1.937 4.9714 4.752 4.9714 2.835 0 4.053-1.3976 4.173-1.4974l-.799-1.0981c-.219.1398-1.357 1.0981-3.134 1.0981-1.757 0-2.955-1.138-3.055-3.0148h7.307s.06-.4791.06-.8385zm-1.817-.4393h-5.53c.06-1.138.898-2.7153 2.795-2.7153 1.917 0 2.715 1.6572 2.735 2.7153z"/><path d="m32.9296 112.663v-5.511c0-2.755-1.3777-4.153-4.1529-4.153-1.5772 0-2.855.559-3.5538.959l.579 1.277c.3194-.199 1.4774-.818 2.855-.818 1.3777 0 2.356.719 2.356 2.156v.38l-2.5356.099c-2.1962.1-3.7136 1.039-3.7136 2.895 0 1.837 1.5174 2.935 3.2743 2.935 1.737 0 2.6355-1.018 3.0148-1.417l.02 1.198zm-1.8968-4.552v2.036c-.3593.539-1.1779 1.378-2.4158 1.378-1.2578 0-1.9566-.739-1.9566-1.638 0-.898.6189-1.557 2.1563-1.637z"/><path d="m43.6348 112.663v-5.611c0-2.276-.6988-4.053-3.3941-4.053-1.3776 0-2.3959.739-2.895 1.677h-.0599l.02-1.497h-1.9167v9.484h1.9167v-4.772c0-1.817.6588-3.314 2.4358-3.314 1.697 0 1.9765 1.198 1.9765 2.795v5.291z"/><path d="m52.5797 109.887c0-1.237-.7986-1.996-1.8568-2.435-.3993-.16-.7587-.28-1.2778-.46-.9384-.299-1.8568-.638-1.8568-1.417s.599-1.178 1.5174-1.178 1.8368.439 2.3959 1.018l.7986-1.178c-.599-.639-1.5573-1.238-3.2344-1.238s-3.1945.959-3.1945 2.716c0 1.797 1.3976 2.296 2.7952 2.775.6388.219 2.1363.539 2.1363 1.577s-.9384 1.358-1.8169 1.358-1.9966-.519-2.7952-1.358l-.9184 1.118c.7986 1.038 2.0964 1.697 3.6936 1.697 1.8369 0 3.6138-.958 3.6138-2.995z"/><path d="m67.8416 103.179h-1.9366l-2.1962 7.168-2.4957-7.188h-1.5374l-2.4957 7.188-2.1962-7.168h-1.9366l3.1346 9.484h1.7569l2.5157-7.088 2.4957 7.088h1.7569z"/><path d="m78.0189 107.532c0-2.656-1.8568-4.533-4.4923-4.533-2.6354 0-4.8116 1.917-4.8116 4.912 0 3.015 1.9366 4.971 4.7517 4.971 2.8352 0 4.0531-1.397 4.1728-1.497l-.7986-1.098c-.2196.14-1.3576 1.098-3.1346 1.098-1.7569 0-2.9549-1.138-3.0547-3.015h7.3074s.0599-.479.0599-.838zm-1.8169-.44h-5.5304c.0599-1.138.8984-2.715 2.7951-2.715 1.9167 0 2.7154 1.657 2.7353 2.715z"/><path d="m85.2124 103.159s-.3594-.16-.9983-.16c-1.0182 0-1.8767.559-2.3359 1.638h-.0599l.0199-1.458h-1.9167v9.484h1.9167v-4.732c0-1.378.4193-3.195 2.1363-3.195.5191 0 .8586.12 1.0382.2h.0799z"/><path d="m87.8302 111.624c0-.778-.559-1.257-1.3177-1.257-.7787 0-1.3377.479-1.3377 1.257 0 .759.559 1.238 1.3377 1.238.7587 0 1.3177-.479 1.3177-1.238z"/><path d="m96.9345 112.663v-13.7765h-1.9367v13.7765z"/><path d="m104.382 112.563-.12-1.538s-.419.22-.978.22c-.539 0-.799-.18-.978-.479-.22-.399-.24-.938-.24-1.737v-4.293h2.276v-1.537h-2.276v-2.835h-1.917v2.835h-1.3972v1.537h1.3972v4.333c0 1.857.12 3.813 2.496 3.813.659 0 1.238-.1 1.737-.319z"/><path d="m114.56 112.563-.12-1.538s-.419.22-.978.22c-.539 0-.799-.18-.979-.479-.219-.399-.239-.938-.239-1.737v-4.293h2.276v-1.537h-2.276v-2.835h-1.917v2.835h-1.397v1.537h1.397v4.333c0 1.857.12 3.813 2.496 3.813.659 0 1.238-.1 1.737-.319z"/><path d="m123.515 112.663v-5.511c0-2.755-1.377-4.153-4.153-4.153-1.577 0-2.855.559-3.553.959l.579 1.277c.319-.199 1.477-.818 2.855-.818 1.377 0 2.356.719 2.356 2.156v.38l-2.536.099c-2.196.1-3.714 1.039-3.714 2.895 0 1.837 1.518 2.935 3.275 2.935 1.737 0 2.635-1.018 3.015-1.417l.02 1.198zm-1.896-4.552v2.036c-.36.539-1.178 1.378-2.416 1.378-1.258 0-1.957-.739-1.957-1.638 0-.898.619-1.557 2.156-1.637z"/><path d="m134.56 112.663-4.193-5.91 3.714-3.574h-2.236l-3.874 3.793v-8.0855h-1.896v13.7765h1.896v-3.554l1.098-1.038 3.255 4.592z"/><path d="m144.369 107.532c0-2.656-1.857-4.533-4.492-4.533-2.636 0-4.812 1.917-4.812 4.912 0 3.015 1.937 4.971 4.752 4.971 2.835 0 4.053-1.397 4.173-1.497l-.799-1.098c-.219.14-1.357 1.098-3.134 1.098-1.757 0-2.955-1.138-3.055-3.015h7.307s.06-.479.06-.838zm-1.817-.44h-5.53c.06-1.138.898-2.715 2.795-2.715 1.917 0 2.715 1.657 2.735 2.715z"/><path d="m152.661 109.887c0-1.237-.799-1.996-1.857-2.435-.399-.16-.759-.28-1.278-.46-.938-.299-1.857-.638-1.857-1.417s.599-1.178 1.518-1.178c.918 0 1.837.439 2.396 1.018l.798-1.178c-.599-.639-1.557-1.238-3.234-1.238s-3.195.959-3.195 2.716c0 1.797 1.398 2.296 2.796 2.775.638.219 2.136.539 2.136 1.577s-.939 1.358-1.817 1.358c-.879 0-1.997-.519-2.795-1.358l-.919 1.118c.799 1.038 2.097 1.697 3.694 1.697 1.837 0 3.614-.958 3.614-2.995z"/><path d="m164.905 109.887c0-1.237-.798-1.996-1.857-2.435-.399-.16-.758-.28-1.277-.46-.939-.299-1.857-.638-1.857-1.417s.599-1.178 1.517-1.178c.919 0 1.837.439 2.396 1.018l.799-1.178c-.599-.639-1.558-1.238-3.235-1.238s-3.194.959-3.194 2.716c0 1.797 1.397 2.296 2.795 2.775.639.219 2.136.539 2.136 1.577s-.938 1.358-1.817 1.358c-.878 0-1.996-.519-2.795-1.358l-.918 1.118c.798 1.038 2.096 1.697 3.693 1.697 1.837 0 3.614-.958 3.614-2.995z"/><path d="m176.187 107.951c0-2.935-2.196-4.952-5.011-4.952-2.835 0-5.032 2.017-5.032 4.952 0 2.955 2.197 4.931 5.032 4.931 2.815 0 5.011-1.976 5.011-4.931zm-1.937-.06c0 1.877-1.178 3.354-3.074 3.354-1.917 0-3.095-1.477-3.095-3.354 0-1.857 1.178-3.334 3.095-3.334 1.896 0 3.074 1.477 3.074 3.334z"/><path d="m195.903 112.663v-5.75c0-2.057-.679-3.914-3.214-3.914-1.338 0-2.376.679-3.015 1.877-.439-1.238-1.418-1.877-2.815-1.877-1.258 0-2.296.799-2.736 1.677h-.059l.02-1.497h-1.917v9.484h1.917v-4.932c0-1.697.758-3.154 2.276-3.154 1.377 0 1.717 1.158 1.717 2.555v5.531h1.916v-4.932c0-1.697.759-3.154 2.276-3.154 1.538 0 1.737 1.457 1.737 2.555v5.531z"/><path d="m206.533 112.663v-9.504h-1.917v5.091c0 1.598-.679 3.035-2.356 3.035-1.697 0-1.976-1.218-1.976-2.516v-5.61h-1.897v5.69c0 2.356.699 4.033 3.334 4.033 1.338 0 2.416-.659 2.935-1.577l.02 1.358z"/><path d="m217.117 111.445-.679-1.398s-1.038 1.198-2.895 1.198c-1.836 0-3.074-1.378-3.074-3.374 0-1.997 1.397-3.274 3.074-3.274 1.678 0 2.516.838 2.836 1.158l.678-1.398c-.099-.12-1.138-1.358-3.673-1.358-2.516 0-4.852 1.877-4.852 4.932 0 3.035 2.236 4.951 4.792 4.951 2.535 0 3.514-1.158 3.793-1.437z"/><path d="m226.992 112.663v-5.651c0-2.256-.658-4.013-3.394-4.013-1.377 0-2.416.739-2.915 1.677h-.04v-5.7895h-1.896v13.7765h1.896v-4.692c0-1.897.739-3.394 2.476-3.394s1.957 1.357 1.957 2.715v5.371z"/><path d="m241.908 112.663v-5.651c0-2.256-.659-4.013-3.394-4.013-1.378 0-2.416.739-2.915 1.677h-.04v-5.7895h-1.897v13.7765h1.897v-4.692c0-1.897.739-3.394 2.476-3.394s1.956 1.357 1.956 2.715v5.371z"/><path d="m253.166 107.532c0-2.656-1.857-4.533-4.493-4.533-2.635 0-4.811 1.917-4.811 4.912 0 3.015 1.936 4.971 4.751 4.971 2.836 0 4.053-1.397 4.173-1.497l-.798-1.098c-.22.14-1.358 1.098-3.135 1.098-1.757 0-2.955-1.138-3.055-3.015h7.308s.06-.479.06-.838zm-1.817-.44h-5.531c.06-1.138.899-2.715 2.795-2.715 1.917 0 2.716 1.657 2.736 2.715z"/><path d="m262.631 112.663v-5.511c0-2.755-1.378-4.153-4.153-4.153-1.578 0-2.855.559-3.554.959l.579 1.277c.319-.199 1.477-.818 2.855-.818s2.356.719 2.356 2.156v.38l-2.536.099c-2.196.1-3.713 1.039-3.713 2.895 0 1.837 1.517 2.935 3.274 2.935 1.737 0 2.635-1.018 3.015-1.417l.02 1.198zm-1.897-4.552v2.036c-.36.539-1.178 1.378-2.416 1.378-1.258 0-1.957-.739-1.957-1.638 0-.898.619-1.557 2.157-1.637z"/><path d="m274.274 112.663v-13.7765h-1.897v5.7695h-.039c-.659-.978-1.777-1.657-3.315-1.657-2.775 0-4.572 2.117-4.572 4.912 0 2.815 1.797 4.971 4.612 4.971 1.378 0 2.556-.579 3.334-1.737h.04v1.518zm-1.837-4.772c0 1.897-1.118 3.354-3.014 3.354-1.897 0-3.015-1.457-3.015-3.354s1.118-3.334 3.015-3.334c1.896 0 3.014 1.437 3.014 3.334z"/><path d="m284.37 112.663v-5.511c0-2.755-1.377-4.153-4.153-4.153-1.577 0-2.855.559-3.553.959l.579 1.277c.319-.199 1.477-.818 2.855-.818 1.377 0 2.356.719 2.356 2.156v.38l-2.536.099c-2.196.1-3.714 1.039-3.714 2.895 0 1.837 1.518 2.935 3.275 2.935 1.737 0 2.635-1.018 3.015-1.417l.02 1.198zm-1.896-4.552v2.036c-.36.539-1.178 1.378-2.416 1.378-1.258 0-1.957-.739-1.957-1.638 0-.898.619-1.557 2.156-1.637z"/><path d="m294.776 111.445-.679-1.398s-1.038 1.198-2.895 1.198c-1.837 0-3.074-1.378-3.074-3.374 0-1.997 1.397-3.274 3.074-3.274s2.516.838 2.835 1.158l.679-1.398c-.1-.12-1.138-1.358-3.673-1.358-2.516 0-4.852 1.877-4.852 4.932 0 3.035 2.236 4.951 4.792 4.951 2.535 0 3.514-1.158 3.793-1.437z"/><path d="m304.651 112.663v-5.651c0-2.256-.659-4.013-3.394-4.013-1.378 0-2.416.739-2.915 1.677h-.04v-5.7895h-1.897v13.7765h1.897v-4.692c0-1.897.739-3.394 2.476-3.394s1.957 1.357 1.957 2.715v5.371z"/><path d="m315.909 107.532c0-2.656-1.857-4.533-4.492-4.533-2.636 0-4.812 1.917-4.812 4.912 0 3.015 1.937 4.971 4.752 4.971 2.835 0 4.053-1.397 4.172-1.497l-.798-1.098c-.22.14-1.358 1.098-3.135 1.098-1.757 0-2.955-1.138-3.054-3.015h7.307s.06-.479.06-.838zm-1.817-.44h-5.53c.059-1.138.898-2.715 2.795-2.715 1.916 0 2.715 1.657 2.735 2.715z"/><path d="m331.193 107.951c0-2.935-2.196-4.952-5.012-4.952-2.835 0-5.031 2.017-5.031 4.952 0 2.955 2.196 4.931 5.031 4.931 2.816 0 5.012-1.976 5.012-4.931zm-1.937-.06c0 1.877-1.178 3.354-3.075 3.354-1.916 0-3.094-1.477-3.094-3.354 0-1.857 1.178-3.334 3.094-3.334 1.897 0 3.075 1.477 3.075 3.334z"/><path d="m341.261 112.663v-9.504h-1.917v5.091c0 1.598-.678 3.035-2.355 3.035-1.698 0-1.977-1.218-1.977-2.516v-5.61h-1.897v5.69c0 2.356.699 4.033 3.334 4.033 1.338 0 2.416-.659 2.935-1.577l.02 1.358z"/><path d="m348.511 112.563-.12-1.538s-.419.22-.978.22c-.539 0-.798-.18-.978-.479-.22-.399-.24-.938-.24-1.737v-4.293h2.276v-1.537h-2.276v-2.835h-1.916v2.835h-1.398v1.537h1.398v4.333c0 1.857.119 3.813 2.495 3.813.659 0 1.238-.1 1.737-.319z"/><path d="m34.9661 133.621c0-2.935-2.1963-4.952-5.0114-4.952-2.8351 0-5.0313 2.017-5.0313 4.952 0 2.955 2.1962 4.931 5.0313 4.931 2.8151 0 5.0114-1.976 5.0114-4.931zm-1.9367-.06c0 1.877-1.178 3.354-3.0747 3.354-1.9167 0-3.0946-1.477-3.0946-3.354 0-1.857 1.1779-3.334 3.0946-3.334 1.8967 0 3.0747 1.477 3.0747 3.334z"/><path d="m41.8799 124.556s-.5391-.219-1.6372-.219-1.8568.519-2.2761 1.038c-.3993.499-.6388 1.298-.6388 2.536v.958h-1.3577v1.537h1.3577v7.927h1.8967v-7.927h2.2561v-1.537h-2.2561v-1.058c0-1.078.1996-2.017 1.4575-2.017.539 0 1.0781.18 1.0781.18z"/><path d="m51.0367 138.233-.1198-1.538s-.4192.22-.9783.22c-.539 0-.7986-.18-.9783-.479-.2196-.399-.2396-.938-.2396-1.737v-4.293h2.2761v-1.537h-2.2761v-2.835h-1.9167v2.835h-1.3975v1.537h1.3975v4.333c0 1.857.1198 3.813 2.4957 3.813.6589 0 1.2379-.1 1.737-.319z"/><path d="m57.9158 128.829s-.3594-.16-.9983-.16c-1.0182 0-1.8767.559-2.336 1.637h-.0598l.0199-1.457h-1.9167v9.484h1.9167v-4.732c0-1.378.4193-3.195 2.1363-3.195.5191 0 .8585.12 1.0382.2h.0799z"/><path d="m67.5983 128.849-1.9766-.02-2.7952 7.387-2.875-7.367-1.9966-.02 3.8534 9.304-.4592 1.258c-.2596.699-.4592 1.118-1.2379 1.118-.4792 0-.9983-.22-.9983-.22l-.3793 1.558s.7387.339 1.7969.339 1.8368-.559 2.4957-2.196z"/><path d="m71.1425 125.734c0-.678-.5191-1.178-1.2379-1.178-.7387 0-1.2578.5-1.2578 1.178 0 .679.5191 1.178 1.2578 1.178.7188 0 1.2379-.499 1.2379-1.178zm-.2795 12.599v-9.484h-1.9167v9.484z"/><path d="m81.8306 138.333v-5.611c0-2.276-.6988-4.053-3.3942-4.053-1.3776 0-2.3958.739-2.895 1.677h-.0598l.0199-1.497h-1.9167v9.484h1.9167v-4.772c0-1.817.6589-3.314 2.4358-3.314 1.6971 0 1.9766 1.198 1.9766 2.795v5.291z"/><path d="m93.5706 136.336v-7.487h-1.8967l.02 1.497h-.0599c-.5591-.878-1.6572-1.677-3.3143-1.677-2.4358 0-4.5721 1.757-4.5721 4.772s2.1363 4.772 4.5721 4.772c1.5972 0 2.6754-.739 3.3143-1.697h.0399v.479c0 2.236-.8985 3.694-3.3143 3.694-1.4175 0-2.895-.759-3.3941-1.198l-.8985 1.337c.2796.2 1.8968 1.418 4.2327 1.418 2.356 0 3.5339-.958 4.2327-1.817.6988-.839 1.0382-1.997 1.0382-4.093zm-1.8368-2.895c0 1.797-1.0582 3.215-3.0148 3.215-1.9367 0-3.0148-1.418-3.0148-3.215s1.0781-3.234 3.0148-3.234c1.9566 0 3.0148 1.437 3.0148 3.234z"/><path d="m104.811 138.233-.12-1.538s-.419.22-.978.22c-.539 0-.799-.18-.978-.479-.22-.399-.24-.938-.24-1.737v-4.293h2.276v-1.537h-2.276v-2.835h-1.917v2.835h-1.3972v1.537h1.3972v4.333c0 1.857.12 3.813 2.496 3.813.659 0 1.238-.1 1.737-.319z"/><path d="m115.803 133.621c0-2.935-2.196-4.952-5.011-4.952-2.835 0-5.032 2.017-5.032 4.952 0 2.955 2.197 4.931 5.032 4.931 2.815 0 5.011-1.976 5.011-4.931zm-1.937-.06c0 1.877-1.178 3.354-3.074 3.354-1.917 0-3.095-1.477-3.095-3.354 0-1.857 1.178-3.334 3.095-3.334 1.896 0 3.074 1.477 3.074 3.334z"/><path d="m135.519 138.333v-5.75c0-2.057-.679-3.914-3.214-3.914-1.338 0-2.376.679-3.015 1.877-.439-1.238-1.418-1.877-2.815-1.877-1.258 0-2.296.799-2.736 1.677h-.059l.02-1.497h-1.917v9.484h1.917v-4.932c0-1.697.758-3.154 2.276-3.154 1.377 0 1.717 1.158 1.717 2.555v5.531h1.916v-4.932c0-1.697.759-3.154 2.276-3.154 1.538 0 1.737 1.457 1.737 2.555v5.531z"/><path d="m145.45 138.333v-5.511c0-2.755-1.378-4.153-4.153-4.153-1.577 0-2.855.559-3.554.959l.579 1.277c.32-.199 1.478-.818 2.855-.818 1.378 0 2.356.719 2.356 2.156v.379l-2.535.1c-2.196.1-3.714 1.039-3.714 2.895 0 1.837 1.518 2.935 3.275 2.935 1.737 0 2.635-1.018 3.014-1.417l.02 1.198zm-1.897-4.553v2.037c-.359.539-1.178 1.378-2.415 1.378-1.258 0-1.957-.739-1.957-1.638 0-.898.619-1.557 2.156-1.637z"/><path d="m150.186 125.734c0-.678-.519-1.178-1.238-1.178-.739 0-1.258.5-1.258 1.178 0 .679.519 1.178 1.258 1.178.719 0 1.238-.499 1.238-1.178zm-.28 12.599v-9.484h-1.917v9.484z"/><path d="m160.874 138.333v-5.611c0-2.276-.699-4.053-3.394-4.053-1.378 0-2.396.739-2.895 1.677h-.06l.02-1.497h-1.917v9.484h1.917v-4.772c0-1.817.659-3.314 2.435-3.314 1.698 0 1.977 1.198 1.977 2.795v5.291z"/><path d="m168.042 138.233-.12-1.538s-.419.22-.978.22c-.539 0-.799-.18-.979-.479-.219-.399-.239-.938-.239-1.737v-4.293h2.276v-1.537h-2.276v-2.835h-1.917v2.835h-1.398v1.537h1.398v4.333c0 1.857.12 3.813 2.496 3.813.659 0 1.238-.1 1.737-.319z"/><path d="m176.997 138.333v-5.511c0-2.755-1.377-4.153-4.153-4.153-1.577 0-2.855.559-3.554.959l.579 1.277c.32-.199 1.478-.818 2.856-.818 1.377 0 2.355.719 2.355 2.156v.379l-2.535.1c-2.196.1-3.714 1.039-3.714 2.895 0 1.837 1.518 2.935 3.275 2.935 1.737 0 2.635-1.018 3.014-1.417l.02 1.198zm-1.897-4.553v2.037c-.359.539-1.178 1.378-2.415 1.378-1.258 0-1.957-.739-1.957-1.638 0-.898.619-1.557 2.156-1.637z"/><path d="m181.733 125.734c0-.678-.519-1.178-1.238-1.178-.739 0-1.258.5-1.258 1.178 0 .679.519 1.178 1.258 1.178.719 0 1.238-.499 1.238-1.178zm-.28 12.599v-9.484h-1.916v9.484z"/><path d="m192.421 138.333v-5.611c0-2.276-.699-4.053-3.394-4.053-1.378 0-2.396.739-2.895 1.677h-.06l.02-1.497h-1.917v9.484h1.917v-4.772c0-1.817.659-3.314 2.436-3.314 1.697 0 1.976 1.198 1.976 2.795v5.291z"/><path d="m206.322 138.333v-5.511c0-2.755-1.378-4.153-4.153-4.153-1.578 0-2.855.559-3.554.959l.579 1.277c.319-.199 1.477-.818 2.855-.818s2.356.719 2.356 2.156v.379l-2.536.1c-2.196.1-3.713 1.039-3.713 2.895 0 1.837 1.517 2.935 3.274 2.935 1.737 0 2.635-1.018 3.015-1.417l.02 1.198zm-1.897-4.553v2.037c-.36.539-1.178 1.378-2.416 1.378-1.258 0-1.957-.739-1.957-1.638 0-.898.619-1.557 2.157-1.637z"/><path d="m221.943 136.336v-7.487h-1.897l.02 1.497h-.06c-.559-.878-1.657-1.677-3.314-1.677-2.436 0-4.572 1.757-4.572 4.772s2.136 4.772 4.572 4.772c1.597 0 2.675-.739 3.314-1.697h.04v.479c0 2.236-.898 3.694-3.314 3.694-1.418 0-2.895-.759-3.394-1.198l-.899 1.337c.28.2 1.897 1.418 4.233 1.418 2.356 0 3.534-.958 4.232-1.817.699-.839 1.039-1.997 1.039-4.093zm-1.837-2.895c0 1.797-1.058 3.215-3.015 3.215-1.937 0-3.015-1.418-3.015-3.215s1.078-3.234 3.015-3.234c1.957 0 3.015 1.437 3.015 3.234z"/><path d="m233.997 133.621c0-2.935-2.196-4.952-5.011-4.952-2.835 0-5.031 2.017-5.031 4.952 0 2.955 2.196 4.931 5.031 4.931 2.815 0 5.011-1.976 5.011-4.931zm-1.936-.06c0 1.877-1.178 3.354-3.075 3.354-1.917 0-3.095-1.477-3.095-3.354 0-1.857 1.178-3.334 3.095-3.334 1.897 0 3.075 1.477 3.075 3.334z"/><path d="m245.403 133.621c0-2.935-2.196-4.952-5.011-4.952-2.835 0-5.031 2.017-5.031 4.952 0 2.955 2.196 4.931 5.031 4.931 2.815 0 5.011-1.976 5.011-4.931zm-1.936-.06c0 1.877-1.178 3.354-3.075 3.354-1.917 0-3.095-1.477-3.095-3.354 0-1.857 1.178-3.334 3.095-3.334 1.897 0 3.075 1.477 3.075 3.334z"/><path d="m256.59 138.333v-13.777h-1.897v5.77h-.04c-.659-.978-1.777-1.657-3.314-1.657-2.775 0-4.572 2.117-4.572 4.912 0 2.815 1.797 4.971 4.612 4.971 1.377 0 2.555-.579 3.334-1.737h.04v1.518zm-1.837-4.772c0 1.897-1.118 3.354-3.015 3.354-1.896 0-3.015-1.457-3.015-3.354s1.119-3.334 3.015-3.334c1.897 0 3.015 1.437 3.015 3.334z"/><path d="m273.219 133.581c0-2.795-1.797-4.912-4.572-4.912-1.497 0-2.635.619-3.314 1.657h-.04v-5.77h-1.897v13.777h1.837v-1.498h.04c.778 1.158 1.956 1.717 3.334 1.717 2.815 0 4.612-2.156 4.612-4.971zm-1.957-.02c0 1.897-1.118 3.354-3.014 3.354-1.897 0-3.035-1.457-3.035-3.354s1.138-3.334 3.035-3.334c1.896 0 3.014 1.437 3.014 3.334z"/><path d="m283.275 138.333v-9.504h-1.916v5.091c0 1.597-.679 3.035-2.356 3.035-1.697 0-1.977-1.218-1.977-2.516v-5.61h-1.897v5.69c0 2.356.699 4.033 3.335 4.033 1.337 0 2.415-.659 2.935-1.577l.02 1.358z"/><path d="m295.098 138.333v-13.777h-1.897v5.77h-.04c-.659-.978-1.777-1.657-3.314-1.657-2.776 0-4.572 2.117-4.572 4.912 0 2.815 1.796 4.971 4.612 4.971 1.377 0 2.555-.579 3.334-1.737h.04v1.518zm-1.837-4.772c0 1.897-1.118 3.354-3.015 3.354s-3.015-1.457-3.015-3.354 1.118-3.334 3.015-3.334 3.015 1.437 3.015 3.334z"/><path d="m307.011 136.336v-7.487h-1.897l.02 1.497h-.06c-.559-.878-1.657-1.677-3.314-1.677-2.436 0-4.572 1.757-4.572 4.772s2.136 4.772 4.572 4.772c1.597 0 2.675-.739 3.314-1.697h.04v.479c0 2.236-.899 3.694-3.314 3.694-1.418 0-2.895-.759-3.395-1.198l-.898 1.337c.28.2 1.897 1.418 4.233 1.418 2.356 0 3.534-.958 4.232-1.817.699-.839 1.039-1.997 1.039-4.093zm-1.837-2.895c0 1.797-1.058 3.215-3.015 3.215-1.937 0-3.015-1.418-3.015-3.215s1.078-3.234 3.015-3.234c1.957 0 3.015 1.437 3.015 3.234z"/><path d="m318.327 133.201c0-2.655-1.857-4.532-4.493-4.532-2.635 0-4.811 1.917-4.811 4.912 0 3.015 1.936 4.971 4.751 4.971 2.835 0 4.053-1.397 4.173-1.497l-.798-1.098c-.22.139-1.358 1.098-3.135 1.098-1.757 0-2.955-1.138-3.055-3.015h7.308s.06-.479.06-.839zm-1.817-.439h-5.531c.06-1.138.899-2.715 2.795-2.715 1.917 0 2.716 1.657 2.736 2.715z"/><path d="m324.841 138.233-.12-1.538s-.419.22-.978.22c-.539 0-.799-.18-.978-.479-.22-.399-.24-.938-.24-1.737v-4.293h2.276v-1.537h-2.276v-2.835h-1.916v2.835h-1.398v1.537h1.398v4.333c0 1.857.119 3.813 2.495 3.813.659 0 1.238-.1 1.737-.319z"/><path d="m329.444 137.294c0-.778-.559-1.257-1.318-1.257-.778 0-1.337.479-1.337 1.257 0 .759.559 1.238 1.337 1.238.759 0 1.318-.479 1.318-1.238z"/><path d="m27.5543 222.293 6.9879 10.163h2.6155v-13.777h-2.5356v6.789c0 1.637.0399 3.254.0399 3.254l-6.8482-10.043h-2.7552v13.777h2.5356v-6.769c0-1.637-.0399-3.394-.0399-3.394z"/><path d="m41.0932 221.255c.8985 0 1.5374-.579 1.5374-1.418 0-.818-.6389-1.417-1.5374-1.417-.8984 0-1.5373.599-1.5373 1.417 0 .839.6389 1.418 1.5373 1.418zm-1.2777 1.537v9.664h2.5555v-9.664z"/><path d="m52.2521 229.501.7188 1.877c-.1997.179-1.198 1.297-3.7735 1.297-2.6355 0-5.0713-1.817-5.0713-4.971 0-3.175 2.5157-5.091 5.1112-5.091 2.4358 0 3.3941.978 3.6537 1.238l-.6988 1.916c-.2995-.279-1.158-1.018-2.6554-1.018-1.5174 0-2.7353 1.058-2.7353 2.835s1.2179 2.935 2.875 2.935c1.6572 0 2.5756-1.018 2.5756-1.018z"/><path d="m57.993 228.043 2.8151 4.413h2.9549l-4.053-6.01 3.5738-3.654h-2.8151l-3.494 3.774v-7.887h-2.5356v13.777h2.5356v-3.335z"/></g></svg>