<svg fill="none" height="257" viewBox="0 0 415 257" width="415" xmlns="http://www.w3.org/2000/svg"><path d="m.598633.300537h413.571v256.699h-413.571z" fill="#fff"/><path d="m258.304 215.643 2.787 8.579h9.02l-7.297 5.301 2.787 8.579-7.297-5.302-7.298 5.302 2.788-8.579-7.298-5.301h9.02z" fill="#fcd214"/><path d="m320.05 215.643 2.787 8.579h9.02l-7.297 5.301 2.787 8.579-7.297-5.302-7.298 5.302 2.788-8.579-7.298-5.301h9.02z" fill="#fcd214"/><path d="m289.177 215.643 2.787 8.579h9.02l-7.297 5.301 2.787 8.579-7.297-5.302-7.298 5.302 2.788-8.579-7.298-5.301h9.02z" fill="#fcd214"/><path d="m350.917 215.643 2.787 8.579h9.02l-7.297 5.301 2.787 8.579-7.297-5.302-7.297 5.302 2.787-8.579-7.297-5.301h9.02z" fill="#fcd214"/><path d="m381.79 215.643 2.787 8.579h9.02l-7.297 5.301 2.787 8.579-7.297-5.302-7.297 5.302 2.787-8.579-7.297-5.301h9.02z" fill="#fcd214"/><g fill="#000"><path d="m28.2969 35.9533v-13.7762h-1.9366v13.7762z"/><path d="m43.4556 35.9533v-5.6502c0-2.2561-.6589-4.0131-3.3942-4.0131-1.3776 0-2.4158.7388-2.9149 1.6771h-.04v-5.79h-1.8967v13.7762h1.8967v-4.6918c0-1.8968.7388-3.3942 2.4758-3.3942s1.9566 1.3577 1.9566 2.7153v5.3707z"/><path d="m53.4154 35.9533v-5.5104c0-2.7553-1.3776-4.1529-4.1528-4.1529-1.5773 0-2.8551.5591-3.5539.9584l.579 1.2778c.3195-.1997 1.4775-.8186 2.8551-.8186s2.3559.7187 2.3559 2.1563v.3793l-2.5356.0998c-2.1962.0999-3.7136 1.0382-3.7136 2.895 0 1.8369 1.5174 2.935 3.2744 2.935 1.737 0 2.6354-1.0183 3.0147-1.4176l.02 1.1979zm-1.8967-4.5521v2.0365c-.3594.5391-1.178 1.3776-2.4158 1.3776-1.2579 0-1.9567-.7387-1.9567-1.6372 0-.8984.619-1.5573 2.1563-1.6371z"/><path d="m63.8681 26.4697h-1.9766l-2.7951 7.1477-2.8152-7.1477h-1.9965l3.9532 9.4836h1.6771z"/><path d="m73.8208 30.8222c0-2.6554-1.8568-4.5322-4.4923-4.5322-2.6354 0-4.8116 1.9167-4.8116 4.9116 0 3.0147 1.9366 4.9714 4.7518 4.9714 2.8351 0 4.053-1.3976 4.1727-1.4974l-.7986-1.0981c-.2196.1397-1.3576 1.0981-3.1346 1.0981-1.7569 0-2.9549-1.1381-3.0547-3.0148h7.3074s.0599-.4792.0599-.8386zm-1.8169-.4392h-5.5304c.0599-1.1381.8984-2.7153 2.7952-2.7153 1.9166 0 2.7153 1.6571 2.7352 2.7153z"/><path d="m89.6238 31.2016c0-2.7952-1.7969-4.9116-4.5721-4.9116-1.4974 0-2.6354.619-3.3143 1.6572h-.0399v-5.7701h-1.8967v13.7762h1.8368v-1.4974h.0399c.7787 1.158 1.9567 1.7171 3.3343 1.7171 2.8151 0 4.612-2.1563 4.612-4.9714zm-1.9566-.02c0 1.8967-1.1181 3.3542-3.0148 3.3542s-3.0348-1.4575-3.0348-3.3542 1.1381-3.3343 3.0348-3.3343 3.0148 1.4376 3.0148 3.3343z"/><path d="m100.279 30.8222c0-2.6554-1.8568-4.5322-4.4922-4.5322-2.6355 0-4.8117 1.9167-4.8117 4.9116 0 3.0147 1.9366 4.9714 4.7518 4.9714 2.8351 0 4.053-1.3976 4.1728-1.4974l-.7987-1.0981c-.2196.1397-1.3576 1.0981-3.1345 1.0981-1.757 0-2.9549-1.1381-3.0548-3.0148h7.3073s.06-.4792.06-.8386zm-1.8169-.4392h-5.5304c.0599-1.1381.8984-2.7153 2.7952-2.7153 1.9167 0 2.7153 1.6571 2.7352 2.7153z"/><path d="m110.944 30.8222c0-2.6554-1.857-4.5322-4.492-4.5322-2.636 0-4.812 1.9167-4.812 4.9116 0 3.0147 1.937 4.9714 4.752 4.9714 2.835 0 4.053-1.3976 4.173-1.4974l-.799-1.0981c-.219.1397-1.357 1.0981-3.134 1.0981-1.757 0-2.955-1.1381-3.055-3.0148h7.307s.06-.4792.06-.8386zm-1.817-.4392h-5.53c.06-1.1381.898-2.7153 2.795-2.7153 1.917 0 2.715 1.6571 2.735 2.7153z"/><path d="m121.093 35.9533v-5.6103c0-2.276-.699-4.053-3.395-4.053-1.377 0-2.395.7388-2.895 1.6771h-.059l.02-1.4974h-1.917v9.4836h1.917v-4.7717c0-1.8169.658-3.3143 2.435-3.3143 1.697 0 1.977 1.1979 1.977 2.7952v5.2908z"/><path d="m135.692 35.9533v-9.5035h-1.917v5.0912c0 1.5972-.678 3.0347-2.356 3.0347-1.697 0-1.976-1.2179-1.976-2.5156v-5.6103h-1.897v5.6901c0 2.356.699 4.0331 3.334 4.0331 1.338 0 2.416-.6589 2.935-1.5773l.02 1.3576z"/><path d="m144.719 33.1781c0-1.2378-.798-1.9965-1.857-2.4358-.399-.1597-.758-.2795-1.277-.4592-.939-.2994-1.857-.6389-1.857-1.4175 0-.7787.599-1.178 1.517-1.178.919 0 1.837.4393 2.396 1.0183l.799-1.178c-.599-.6389-1.558-1.2379-3.235-1.2379s-3.194.9584-3.194 2.7153c0 1.7969 1.397 2.2961 2.795 2.7753.639.2196 2.136.539 2.136 1.5772s-.938 1.3577-1.817 1.3577c-.878 0-1.996-.5191-2.795-1.3577l-.918 1.1181c.798 1.0382 2.096 1.6971 3.693 1.6971 1.837 0 3.614-.9584 3.614-2.9949z"/><path d="m148.873 23.3551c0-.6788-.519-1.178-1.238-1.178-.738 0-1.257.4992-1.257 1.178s.519 1.178 1.257 1.178c.719 0 1.238-.4992 1.238-1.178zm-.279 12.5982v-9.4836h-1.917v9.4836z"/><path d="m159.561 35.9533v-5.6103c0-2.276-.698-4.053-3.394-4.053-1.377 0-2.396.7388-2.895 1.6771h-.06l.02-1.4974h-1.916v9.4836h1.916v-4.7717c0-1.8169.659-3.3143 2.436-3.3143 1.697 0 1.977 1.1979 1.977 2.7952v5.2908z"/><path d="m171.301 33.9568v-7.4871h-1.896l.02 1.4974h-.06c-.559-.8784-1.657-1.6771-3.315-1.6771-2.435 0-4.572 1.757-4.572 4.7718s2.137 4.7718 4.572 4.7718c1.598 0 2.676-.7388 3.315-1.6971h.04v.4792c0 2.2361-.899 3.6936-3.315 3.6936-1.417 0-2.895-.7587-3.394-1.1979l-.898 1.3376c.279.1997 1.896 1.4176 4.232 1.4176 2.356 0 3.534-.9584 4.233-1.8169.699-.8385 1.038-1.9965 1.038-4.0929zm-1.836-2.895c0 1.7969-1.059 3.2144-3.015 3.2144-1.937 0-3.015-1.4175-3.015-3.2144s1.078-3.2344 3.015-3.2344c1.956 0 3.015 1.4375 3.015 3.2344z"/><path d="m186.355 35.9533v-1.6371h-6.289v-4.7718h5.79v-1.6372h-5.79v-4.1129h6.129v-1.6172h-8.066v13.7762z"/><path d="m196.725 26.4697h-1.977l-2.795 7.1477-2.815-7.1477h-1.997l3.953 9.4836h1.677z"/><path d="m206.677 30.8222c0-2.6554-1.857-4.5322-4.492-4.5322s-4.812 1.9167-4.812 4.9116c0 3.0147 1.937 4.9714 4.752 4.9714 2.835 0 4.053-1.3976 4.173-1.4974l-.799-1.0981c-.219.1397-1.357 1.0981-3.134 1.0981-1.757 0-2.955-1.1381-3.055-3.0148h7.307s.06-.4792.06-.8386zm-1.817-.4392h-5.53c.06-1.1381.898-2.7153 2.795-2.7153 1.917 0 2.715 1.6571 2.735 2.7153z"/><path d="m213.871 26.4498s-.36-.1598-.998-.1598c-1.019 0-1.877.5591-2.336 1.6372h-.06l.02-1.4575h-1.917v9.4836h1.917v-4.7318c0-1.3776.419-3.1945 2.136-3.1945.519 0 .858.1198 1.038.1997h.08z"/><path d="m223.553 26.4697-1.976-.0199-2.795 7.3872-2.876-7.3673-1.996-.0199 3.853 9.3039-.459 1.2578c-.259.6988-.459 1.1181-1.238 1.1181-.479 0-.998-.2196-.998-.2196l-.379 1.5573s.738.3394 1.796.3394c1.059 0 1.837-.559 2.496-2.1962z"/><path d="m236.461 29.0652c0-4.2726-3.154-6.8881-7.287-6.8881h-4.153v13.7762h4.153c4.133 0 7.287-2.6154 7.287-6.8881zm-1.976 0c0 3.1746-2.196 5.211-5.311 5.211h-2.216v-10.4419h2.216c3.115 0 5.311 2.0564 5.311 5.2309z"/><path d="m247.912 31.2415c0-2.9349-2.196-4.9515-5.011-4.9515-2.835 0-5.031 2.0166-5.031 4.9515 0 2.9549 2.196 4.9315 5.031 4.9315 2.815 0 5.011-1.9766 5.011-4.9315zm-1.936-.0599c0 1.8767-1.178 3.3542-3.075 3.3542-1.917 0-3.095-1.4775-3.095-3.3542 0-1.8568 1.178-3.3343 3.095-3.3343 1.897 0 3.075 1.4775 3.075 3.3343z"/><path d="m251.911 35.9533v-13.7762h-1.896v13.7762z"/><path d="m256.649 35.9533v-13.7762h-1.896v13.7762z"/><path d="m266.758 35.9533v-5.5104c0-2.7553-1.378-4.1529-4.153-4.1529-1.577 0-2.855.5591-3.554.9584l.579 1.2778c.32-.1997 1.478-.8186 2.855-.8186 1.378 0 2.356.7187 2.356 2.1563v.3793l-2.535.0998c-2.197.0999-3.714 1.0382-3.714 2.895 0 1.8369 1.517 2.935 3.274 2.935 1.737 0 2.636-1.0183 3.015-1.4176l.02 1.1979zm-1.897-4.5521v2.0365c-.359.5391-1.178 1.3776-2.416 1.3776-1.257 0-1.956-.7387-1.956-1.6372 0-.8984.619-1.5573 2.156-1.6371z"/><path d="m274.508 26.4498s-.359-.1598-.998-.1598c-1.018 0-1.877.5591-2.336 1.6372h-.06l.02-1.4575h-1.917v9.4836h1.917v-4.7318c0-1.3776.419-3.1945 2.136-3.1945.52 0 .859.1198 1.039.1997h.079z"/><path d="m284.794 22.1771s-.539-.2196-1.637-.2196-1.857.5191-2.276 1.0382c-.399.4992-.639 1.2978-.639 2.5356v.9584h-1.358v1.5373h1.358v7.9263h1.897v-7.9263h2.256v-1.5373h-2.256v-1.0582c0-1.0781.199-2.0165 1.457-2.0165.539 0 1.078.1797 1.078.1797z"/><path d="m294.726 31.2415c0-2.9349-2.196-4.9515-5.011-4.9515-2.835 0-5.032 2.0166-5.032 4.9515 0 2.9549 2.197 4.9315 5.032 4.9315 2.815 0 5.011-1.9766 5.011-4.9315zm-1.936-.0599c0 1.8767-1.178 3.3542-3.075 3.3542-1.917 0-3.095-1.4775-3.095-3.3542 0-1.8568 1.178-3.3343 3.095-3.3343 1.897 0 3.075 1.4775 3.075 3.3343z"/><path d="m302.019 26.4498s-.359-.1598-.998-.1598c-1.018 0-1.877.5591-2.336 1.6372h-.06l.02-1.4575h-1.917v9.4836h1.917v-4.7318c0-1.3776.419-3.1945 2.136-3.1945.52 0 .859.1198 1.039.1997h.08z"/><path d="m316.797 31.2415c0-2.9349-2.196-4.9515-5.011-4.9515-2.835 0-5.031 2.0166-5.031 4.9515 0 2.9549 2.196 4.9315 5.031 4.9315 2.815 0 5.011-1.9766 5.011-4.9315zm-1.936-.0599c0 1.8767-1.178 3.3542-3.075 3.3542-1.917 0-3.095-1.4775-3.095-3.3542 0-1.8568 1.178-3.3343 3.095-3.3343 1.897 0 3.075 1.4775 3.075 3.3343z"/><path d="m327.027 26.4697h-1.977l-2.795 7.1477-2.815-7.1477h-1.997l3.954 9.4836h1.677z"/><path d="m336.98 30.8222c0-2.6554-1.857-4.5322-4.493-4.5322-2.635 0-4.811 1.9167-4.811 4.9116 0 3.0147 1.936 4.9714 4.751 4.9714 2.836 0 4.053-1.3976 4.173-1.4974l-.798-1.0981c-.22.1397-1.358 1.0981-3.135 1.0981-1.757 0-2.955-1.1381-3.055-3.0148h7.308s.06-.4792.06-.8386zm-1.817-.4392h-5.531c.06-1.1381.899-2.7153 2.795-2.7153 1.917 0 2.716 1.6571 2.736 2.7153z"/><path d="m344.173 26.4498s-.359-.1598-.998-.1598c-1.018 0-1.877.5591-2.336 1.6372h-.06l.02-1.4575h-1.917v9.4836h1.917v-4.7318c0-1.3776.419-3.1945 2.136-3.1945.519 0 .859.1198 1.038.1997h.08z"/><path d="m35.3647 57.2109c0-3.0148-2.4558-4.5122-4.6919-4.5122-.7587 0-1.4175.1198-1.9566.3594l.7187-3.6537h5.5305v-1.5573h-6.928l-1.198 6.4688.9783.579c.5391-.4792 1.5374-.7387 2.4358-.7387 1.5773 0 3.1945.9583 3.1945 3.0547s-1.6372 3.0547-3.1945 3.0547c-1.5373 0-2.8351-.8185-3.434-1.8368l-1.0782 1.1181c.4992.8785 1.9367 2.316 4.5322 2.316s5.0912-1.6372 5.0912-4.652z"/><path d="m50.1223 52.1397-1.9765-.02-2.7952 7.3873-2.8751-7.3673-1.9965-.02 3.8533 9.3039-.4592 1.2579c-.2595.6988-.4592 1.118-1.2378 1.118-.4792 0-.9983-.2196-.9983-.2196l-.3793 1.5573s.7387.3394 1.7969.3394c1.0581 0 1.8368-.559 2.4956-2.1962z"/><path d="m59.997 56.4922c0-2.6554-1.8568-4.5322-4.4922-4.5322-2.6355 0-4.8117 1.9167-4.8117 4.9115 0 3.0148 1.9366 4.9714 4.7518 4.9714 2.8351 0 4.053-1.3976 4.1728-1.4974l-.7987-1.0981c-.2196.1398-1.3576 1.0981-3.1345 1.0981-1.757 0-2.9549-1.138-3.0548-3.0148h7.3074s.0599-.4792.0599-.8385zm-1.8169-.4393h-5.5304c.0599-1.138.8984-2.7153 2.7952-2.7153 1.9167 0 2.7153 1.6571 2.7352 2.7153z"/><path d="m69.4619 61.6233v-5.5105c0-2.7552-1.3776-4.1528-4.1528-4.1528-1.5773 0-2.8551.559-3.5539.9583l.579 1.2778c.3195-.1996 1.4775-.8186 2.8551-.8186s2.3559.7188 2.3559 2.1563v.3794l-2.5356.0998c-2.1962.0998-3.7136 1.0382-3.7136 2.895 0 1.8368 1.5174 2.9349 3.2744 2.9349 1.737 0 2.6354-1.0182 3.0148-1.4175l.0199 1.1979zm-1.8967-4.5521v2.0364c-.3594.5391-1.178 1.3777-2.4158 1.3777-1.2579 0-1.9567-.7388-1.9567-1.6372 0-.8985.619-1.5573 2.1563-1.6372z"/><path d="m77.2123 52.1197s-.3594-.1597-.9983-.1597c-1.0182 0-1.8768.559-2.336 1.6372h-.0599l.02-1.4575h-1.9167v9.4836h1.9167v-4.7318c0-1.3776.4193-3.1945 2.1363-3.1945.5191 0 .8585.1198 1.0382.1996h.0799z"/><path d="m84.7056 58.8481c0-1.2379-.7986-1.9966-1.8568-2.4358-.3993-.1597-.7587-.2795-1.2778-.4592-.9384-.2995-1.8568-.6389-1.8568-1.4176 0-.7786.599-1.1779 1.5174-1.1779s1.8368.4392 2.3958 1.0182l.7987-1.1779c-.599-.6389-1.5573-1.2379-3.2344-1.2379s-3.1945.9583-3.1945 2.7153c0 1.7969 1.3976 2.296 2.7951 2.7752.6389.2196 2.1364.5391 2.1364 1.5773s-.9384 1.3576-1.8169 1.3576-1.9966-.5191-2.7952-1.3576l-.9184 1.1181c.7986 1.0382 2.0964 1.697 3.6936 1.697 1.8369 0 3.6138-.9583 3.6138-2.9948z"/><path d="m89.5984 60.5851c0-.7787-.559-1.2578-1.3177-1.2578-.7787 0-1.3377.4791-1.3377 1.2578 0 .7587.559 1.2379 1.3377 1.2379.7587 0 1.3177-.4792 1.3177-1.2379z"/><path d="m105.092 49.4643v-1.6172h-9.7036v1.6172h3.8933v12.159h1.9363v-12.159z"/><path d="m114.914 61.6233v-5.6502c0-2.2561-.659-4.0131-3.394-4.0131-1.378 0-2.416.7387-2.915 1.6771h-.04v-5.79h-1.897v13.7762h1.897v-4.6919c0-1.8967.739-3.3941 2.476-3.3941s1.957 1.3576 1.957 2.7153v5.3707z"/><path d="m119.783 49.0251c0-.6789-.519-1.178-1.238-1.178-.739 0-1.258.4991-1.258 1.178 0 .6788.519 1.1779 1.258 1.1779.719 0 1.238-.4991 1.238-1.1779zm-.28 12.5982v-9.4836h-1.916v9.4836z"/><path d="m128.614 58.8481c0-1.2379-.798-1.9966-1.857-2.4358-.399-.1597-.758-.2795-1.277-.4592-.939-.2995-1.857-.6389-1.857-1.4176 0-.7786.599-1.1779 1.517-1.1779.919 0 1.837.4392 2.396 1.0182l.799-1.1779c-.599-.6389-1.558-1.2379-3.235-1.2379s-3.194.9583-3.194 2.7153c0 1.7969 1.397 2.296 2.795 2.7752.639.2196 2.136.5391 2.136 1.5773s-.938 1.3576-1.817 1.3576c-.878 0-1.996-.5191-2.795-1.3576l-.918 1.1181c.798 1.0382 2.096 1.697 3.693 1.697 1.837 0 3.614-.9583 3.614-2.9948z"/><path d="m141.837 61.6233v-5.5105c0-2.7552-1.378-4.1528-4.153-4.1528-1.577 0-2.855.559-3.554.9583l.579 1.2778c.32-.1996 1.478-.8186 2.855-.8186 1.378 0 2.356.7188 2.356 2.1563v.3794l-2.535.0998c-2.197.0998-3.714 1.0382-3.714 2.895 0 1.8368 1.517 2.9349 3.274 2.9349 1.737 0 2.636-1.0182 3.015-1.4175l.02 1.1979zm-1.897-4.5521v2.0364c-.359.5391-1.178 1.3777-2.416 1.3777-1.257 0-1.956-.7388-1.956-1.6372 0-.8985.619-1.5573 2.156-1.6372z"/><path d="m154.199 56.8715c0-2.8151-1.777-4.9115-4.572-4.9115-1.397 0-2.535.559-3.374 1.6771h-.04v-1.4974h-1.837v13.1972h1.917v-5.211l.02.02c.679 1.0581 1.777 1.697 3.274 1.697 2.815 0 4.612-2.1563 4.612-4.9714zm-1.956-.02c0 1.8968-1.118 3.3543-3.015 3.3543s-3.015-1.4575-3.015-3.3543c0-1.8967 1.118-3.3342 3.015-3.3342s3.015 1.4375 3.015 3.3342z"/><path d="m166.093 56.8715c0-2.8151-1.777-4.9115-4.572-4.9115-1.398 0-2.536.559-3.374 1.6771h-.04v-1.4974h-1.837v13.1972h1.916v-5.211l.02.02c.679 1.0581 1.777 1.697 3.275 1.697 2.815 0 4.612-2.1563 4.612-4.9714zm-1.957-.02c0 1.8968-1.118 3.3543-3.015 3.3543-1.896 0-3.014-1.4575-3.014-3.3543 0-1.8967 1.118-3.3342 3.014-3.3342 1.897 0 3.015 1.4375 3.015 3.3342z"/><path d="m185.797 61.6233v-5.7501c0-2.0564-.679-3.9132-3.214-3.9132-1.338 0-2.376.6788-3.015 1.8767-.439-1.2378-1.418-1.8767-2.815-1.8767-1.258 0-2.296.7986-2.735 1.6771h-.06l.02-1.4974h-1.917v9.4836h1.917v-4.9315c0-1.6971.758-3.1545 2.276-3.1545 1.377 0 1.717 1.158 1.717 2.5556v5.5304h1.916v-4.9315c0-1.6971.759-3.1545 2.277-3.1545 1.537 0 1.737 1.4574 1.737 2.5556v5.5304z"/><path d="m195.728 61.6233v-5.5105c0-2.7552-1.377-4.1528-4.153-4.1528-1.577 0-2.855.559-3.553.9583l.579 1.2778c.319-.1996 1.477-.8186 2.855-.8186 1.377 0 2.356.7188 2.356 2.1563v.3794l-2.536.0998c-2.196.0998-3.714 1.0382-3.714 2.895 0 1.8368 1.518 2.9349 3.275 2.9349 1.737 0 2.635-1.0182 3.014-1.4175l.02 1.1979zm-1.896-4.5521v2.0364c-.36.5391-1.178 1.3777-2.416 1.3777-1.258 0-1.957-.7388-1.957-1.6372 0-.8985.619-1.5573 2.156-1.6372z"/><path d="m207.372 61.6233v-13.7762h-1.897v5.77h-.04c-.659-.9783-1.777-1.6571-3.314-1.6571-2.775 0-4.572 2.1163-4.572 4.9115 0 2.8151 1.797 4.9714 4.612 4.9714 1.377 0 2.555-.579 3.334-1.737h.04v1.5174zm-1.837-4.7718c0 1.8968-1.118 3.3543-3.015 3.3543-1.896 0-3.015-1.4575-3.015-3.3543 0-1.8967 1.119-3.3342 3.015-3.3342 1.897 0 3.015 1.4375 3.015 3.3342z"/><path d="m218.766 56.4922c0-2.6554-1.857-4.5322-4.492-4.5322-2.636 0-4.812 1.9167-4.812 4.9115 0 3.0148 1.937 4.9714 4.752 4.9714 2.835 0 4.053-1.3976 4.172-1.4974l-.798-1.0981c-.22.1398-1.358 1.0981-3.135 1.0981-1.757 0-2.955-1.138-3.054-3.0148h7.307s.06-.4792.06-.8385zm-1.817-.4393h-5.531c.06-1.138.899-2.7153 2.796-2.7153 1.916 0 2.715 1.6571 2.735 2.7153z"/><path d="m226.922 49.0251c0-.6789-.519-1.178-1.238-1.178-.739 0-1.258.4991-1.258 1.178 0 .6788.519 1.1779 1.258 1.1779.719 0 1.238-.4991 1.238-1.1779zm-.28 12.5982v-9.4836h-1.916v9.4836z"/><path d="m233.976 61.5235-.119-1.5374s-.42.2197-.979.2197c-.539 0-.798-.1797-.978-.4792-.22-.3993-.24-.9384-.24-1.737v-4.2926h2.276v-1.5374h-2.276v-2.8351h-1.916v2.8351h-1.398v1.5374h1.398v4.3325c0 1.8568.119 3.8134 2.495 3.8134.659 0 1.238-.0998 1.737-.3194z"/><path d="m247.828 52.1397h-1.977l-2.795 7.1476-2.815-7.1476h-1.997l3.953 9.4836h1.678z"/><path d="m257.78 56.4922c0-2.6554-1.856-4.5322-4.492-4.5322-2.635 0-4.812 1.9167-4.812 4.9115 0 3.0148 1.937 4.9714 4.752 4.9714 2.835 0 4.053-1.3976 4.173-1.4974l-.799-1.0981c-.219.1398-1.357 1.0981-3.134 1.0981-1.757 0-2.955-1.138-3.055-3.0148h7.308s.059-.4792.059-.8385zm-1.816-.4393h-5.531c.06-1.138.899-2.7153 2.795-2.7153 1.917 0 2.716 1.6571 2.736 2.7153z"/><path d="m264.974 52.1197s-.359-.1597-.998-.1597c-1.019 0-1.877.559-2.336 1.6372h-.06l.02-1.4575h-1.917v9.4836h1.917v-4.7318c0-1.3776.419-3.1945 2.136-3.1945.519 0 .859.1198 1.038.1996h.08z"/><path d="m274.656 52.1397-1.976-.02-2.795 7.3873-2.875-7.3673-1.997-.02 3.853 9.3039-.459 1.2579c-.259.6988-.459 1.118-1.238 1.118-.479 0-.998-.2196-.998-.2196l-.379 1.5573s.738.3394 1.797.3394c1.058 0 1.836-.559 2.495-2.1962z"/><path d="m288.567 56.4922c0-2.6554-1.857-4.5322-4.492-4.5322-2.636 0-4.812 1.9167-4.812 4.9115 0 3.0148 1.937 4.9714 4.752 4.9714 2.835 0 4.053-1.3976 4.173-1.4974l-.799-1.0981c-.219.1398-1.358 1.0981-3.134 1.0981-1.757 0-2.955-1.138-3.055-3.0148h7.307s.06-.4792.06-.8385zm-1.817-.4393h-5.53c.06-1.138.898-2.7153 2.795-2.7153 1.917 0 2.715 1.6571 2.735 2.7153z"/><path d="m298.032 61.6233v-5.5105c0-2.7552-1.378-4.1528-4.153-4.1528-1.577 0-2.855.559-3.554.9583l.579 1.2778c.32-.1996 1.478-.8186 2.855-.8186 1.378 0 2.356.7188 2.356 2.1563v.3794l-2.535.0998c-2.197.0998-3.714 1.0382-3.714 2.895 0 1.8368 1.517 2.9349 3.274 2.9349 1.737 0 2.636-1.0182 3.015-1.4175l.02 1.1979zm-1.897-4.5521v2.0364c-.359.5391-1.178 1.3777-2.416 1.3777-1.257 0-1.956-.7388-1.956-1.6372 0-.8985.619-1.5573 2.156-1.6372z"/><path d="m306.88 58.8481c0-1.2379-.798-1.9966-1.856-2.4358-.4-.1597-.759-.2795-1.278-.4592-.938-.2995-1.857-.6389-1.857-1.4176 0-.7786.599-1.1779 1.517-1.1779.919 0 1.837.4392 2.396 1.0182l.799-1.1779c-.599-.6389-1.557-1.2379-3.234-1.2379-1.678 0-3.195.9583-3.195 2.7153 0 1.7969 1.398 2.296 2.795 2.7752.639.2196 2.137.5391 2.137 1.5773s-.939 1.3576-1.817 1.3576c-.879 0-1.997-.5191-2.795-1.3576l-.919 1.1181c.799 1.0382 2.096 1.697 3.694 1.697 1.837 0 3.613-.9583 3.613-2.9948z"/><path d="m316.849 52.1397-1.976-.02-2.796 7.3873-2.875-7.3673-1.996-.02 3.853 9.3039-.459 1.2579c-.26.6988-.459 1.118-1.238 1.118-.479 0-.998-.2196-.998-.2196l-.379 1.5573s.738.3394 1.796.3394c1.059 0 1.837-.559 2.496-2.1962z"/><path d="m326.707 61.5235-.12-1.5374s-.419.2197-.978.2197c-.539 0-.799-.1797-.979-.4792-.219-.3993-.239-.9384-.239-1.737v-4.2926h2.276v-1.5374h-2.276v-2.8351h-1.917v2.8351h-1.397v1.5374h1.397v4.3325c0 1.8568.12 3.8134 2.496 3.8134.659 0 1.238-.0998 1.737-.3194z"/><path d="m337.699 56.9114c0-2.9349-2.196-4.9514-5.012-4.9514-2.835 0-5.031 2.0165-5.031 4.9514 0 2.9549 2.196 4.9315 5.031 4.9315 2.816 0 5.012-1.9766 5.012-4.9315zm-1.937-.0599c0 1.8768-1.178 3.3543-3.075 3.3543-1.916 0-3.094-1.4775-3.094-3.3543 0-1.8568 1.178-3.3342 3.094-3.3342 1.897 0 3.075 1.4774 3.075 3.3342z"/><path d="m34.1069 86.0754-.6789-1.3976s-1.0382 1.1979-2.8949 1.1979c-1.8369 0-3.0747-1.3776-3.0747-3.3742 0-1.9965 1.3975-3.2743 3.0747-3.2743 1.6771 0 2.5156.8385 2.8351 1.158l.6788-1.3976c-.0998-.1198-1.1381-1.3577-3.6737-1.3577-2.5156 0-4.8516 1.8768-4.8516 4.9315 0 3.0348 2.2361 4.9515 4.7917 4.9515 2.5357 0 3.514-1.158 3.7935-1.4375z"/><path d="m41.0248 77.7897s-.3594-.1598-.9983-.1598c-1.0182 0-1.8768.5591-2.336 1.6372h-.0599l.02-1.4575h-1.9167v9.4837h1.9167v-4.7319c0-1.3776.4193-3.1945 2.1363-3.1945.5191 0 .8585.1198 1.0382.1997h.0799z"/><path d="m50.9891 82.1621c0-2.6554-1.8568-4.5322-4.4922-4.5322-2.6355 0-4.8117 1.9167-4.8117 4.9116 0 3.0148 1.9367 4.9714 4.7518 4.9714 2.8351 0 4.053-1.3976 4.1728-1.4974l-.7986-1.0981c-.2197.1397-1.3577 1.0981-3.1346 1.0981-1.757 0-2.9549-1.1381-3.0547-3.0148h7.3073s.0599-.4792.0599-.8386zm-1.8168-.4392h-5.5305c.0599-1.1381.8985-2.7153 2.7952-2.7153 1.9167 0 2.7153 1.6571 2.7353 2.7153z"/><path d="m60.454 87.2933v-5.5105c0-2.7553-1.3776-4.1529-4.1528-4.1529-1.5773 0-2.8551.5591-3.5539.9584l.579 1.2778c.3195-.1997 1.4775-.8186 2.8551-.8186s2.3559.7188 2.3559 2.1563v.3793l-2.5356.0998c-2.1962.0999-3.7136 1.0382-3.7136 2.895 0 1.8369 1.5174 2.935 3.2744 2.935 1.737 0 2.6354-1.0183 3.0148-1.4176l.0199 1.198zm-1.8967-4.5522v2.0365c-.3594.5391-1.178 1.3776-2.4158 1.3776-1.2578 0-1.9566-.7387-1.9566-1.6372 0-.8984.6189-1.5573 2.1562-1.6371z"/><path d="m67.5256 87.1934-.1198-1.5373s-.4193.2196-.9783.2196c-.5391 0-.7987-.1797-.9783-.4792-.2197-.3993-.2396-.9384-.2396-1.737v-4.2926h2.276v-1.5373h-2.276v-2.8351h-1.9167v2.8351h-1.3976v1.5373h1.3976v4.3326c0 1.8568.1198 3.8134 2.4957 3.8134.6588 0 1.2378-.0999 1.737-.3195z"/><path d="m77.7788 82.1621c0-2.6554-1.8568-4.5322-4.4922-4.5322-2.6355 0-4.8117 1.9167-4.8117 4.9116 0 3.0148 1.9366 4.9714 4.7518 4.9714 2.8351 0 4.053-1.3976 4.1728-1.4974l-.7987-1.0981c-.2196.1397-1.3576 1.0981-3.1345 1.0981-1.757 0-2.955-1.1381-3.0548-3.0148h7.3074s.0599-.4792.0599-.8386zm-1.8169-.4392h-5.5304c.0599-1.1381.8984-2.7153 2.7952-2.7153 1.9166 0 2.7153 1.6571 2.7352 2.7153z"/><path d="m91.0262 87.2933v-5.5105c0-2.7553-1.3776-4.1529-4.1528-4.1529-1.5773 0-2.8551.5591-3.5539.9584l.579 1.2778c.3195-.1997 1.4775-.8186 2.8551-.8186s2.3559.7188 2.3559 2.1563v.3793l-2.5356.0998c-2.1962.0999-3.7136 1.0382-3.7136 2.895 0 1.8369 1.5174 2.935 3.2744 2.935 1.737 0 2.6354-1.0183 3.0148-1.4176l.0199 1.198zm-1.8967-4.5522v2.0365c-.3594.5391-1.178 1.3776-2.4158 1.3776-1.2578 0-1.9566-.7387-1.9566-1.6372 0-.8984.6189-1.5573 2.1562-1.6371z"/><path d="m107.386 82.5415c0-2.7952-1.797-4.9116-4.572-4.9116-1.497 0-2.635.619-3.3143 1.6572h-.0399v-5.7701h-1.8967v13.7763h1.8368v-1.4975h.0399c.7782 1.158 1.9562 1.7171 3.3342 1.7171 2.815 0 4.612-2.1563 4.612-4.9714zm-1.957-.02c0 1.8967-1.118 3.3542-3.014 3.3542-1.897 0-3.0351-1.4575-3.0351-3.3542s1.1381-3.3343 3.0351-3.3343c1.896 0 3.014 1.4376 3.014 3.3343z"/><path d="m117.442 87.2933v-9.5036h-1.916v5.0912c0 1.5972-.679 3.0347-2.356 3.0347-1.697 0-1.977-1.2179-1.977-2.5156v-5.6103h-1.897v5.6901c0 2.356.699 4.0331 3.335 4.0331 1.337 0 2.415-.6589 2.935-1.5773l.02 1.3577z"/><path d="m129.265 87.2933v-13.7763h-1.897v5.7701h-.04c-.659-.9783-1.777-1.6572-3.314-1.6572-2.776 0-4.572 2.1164-4.572 4.9116 0 2.8151 1.796 4.9714 4.612 4.9714 1.377 0 2.555-.579 3.334-1.737h.04v1.5174zm-1.837-4.7718c0 1.8967-1.118 3.3542-3.015 3.3542s-3.015-1.4575-3.015-3.3542 1.118-3.3343 3.015-3.3343 3.015 1.4376 3.015 3.3343z"/><path d="m141.178 85.2967v-7.4871h-1.897l.02 1.4974h-.06c-.559-.8784-1.657-1.6771-3.314-1.6771-2.436 0-4.572 1.757-4.572 4.7718s2.136 4.7718 4.572 4.7718c1.597 0 2.675-.7388 3.314-1.6971h.04v.4792c0 2.2361-.899 3.6936-3.314 3.6936-1.418 0-2.895-.7587-3.395-1.1979l-.898 1.3376c.28.1997 1.897 1.4176 4.233 1.4176 2.356 0 3.534-.9583 4.232-1.8169.699-.8385 1.039-1.9965 1.039-4.0929zm-1.837-2.895c0 1.7969-1.058 3.2145-3.015 3.2145-1.937 0-3.015-1.4176-3.015-3.2145s1.078-3.2344 3.015-3.2344c1.957 0 3.015 1.4375 3.015 3.2344z"/><path d="m152.494 82.1621c0-2.6554-1.857-4.5322-4.493-4.5322-2.635 0-4.811 1.9167-4.811 4.9116 0 3.0148 1.936 4.9714 4.751 4.9714 2.835 0 4.053-1.3976 4.173-1.4974l-.798-1.0981c-.22.1397-1.358 1.0981-3.135 1.0981-1.757 0-2.955-1.1381-3.055-3.0148h7.308s.06-.4792.06-.8386zm-1.817-.4392h-5.531c.06-1.1381.899-2.7153 2.795-2.7153 1.917 0 2.716 1.6571 2.736 2.7153z"/><path d="m159.008 87.1934-.12-1.5373s-.419.2196-.978.2196c-.539 0-.799-.1797-.978-.4792-.22-.3993-.24-.9384-.24-1.737v-4.2926h2.276v-1.5373h-2.276v-2.8351h-1.916v2.8351h-1.398v1.5373h1.398v4.3326c0 1.8568.119 3.8134 2.495 3.8134.659 0 1.238-.0999 1.737-.3195z"/><path d="m173.239 82.1621c0-2.6554-1.857-4.5322-4.492-4.5322-2.636 0-4.812 1.9167-4.812 4.9116 0 3.0148 1.937 4.9714 4.752 4.9714 2.835 0 4.053-1.3976 4.173-1.4974l-.799-1.0981c-.22.1397-1.358 1.0981-3.135 1.0981-1.757 0-2.955-1.1381-3.054-3.0148h7.307s.06-.4792.06-.8386zm-1.817-.4392h-5.53c.06-1.1381.898-2.7153 2.795-2.7153 1.916 0 2.715 1.6571 2.735 2.7153z"/><path d="m183.427 77.8096h-1.976l-2.795 7.1477-2.816-7.1477h-1.996l3.953 9.4837h1.677z"/><path d="m193.38 82.1621c0-2.6554-1.857-4.5322-4.492-4.5322-2.636 0-4.812 1.9167-4.812 4.9116 0 3.0148 1.937 4.9714 4.752 4.9714 2.835 0 4.053-1.3976 4.173-1.4974l-.799-1.0981c-.22.1397-1.358 1.0981-3.135 1.0981-1.757 0-2.955-1.1381-3.054-3.0148h7.307s.06-.4792.06-.8386zm-1.817-.4392h-5.53c.06-1.1381.898-2.7153 2.795-2.7153 1.916 0 2.715 1.6571 2.735 2.7153z"/><path d="m200.573 77.7897s-.359-.1598-.998-.1598c-1.018 0-1.877.5591-2.336 1.6372h-.06l.02-1.4575h-1.916v9.4837h1.916v-4.7319c0-1.3776.42-3.1945 2.137-3.1945.519 0 .858.1198 1.038.1997h.08z"/><path d="m210.256 77.8096-1.977-.0199-2.795 7.3872-2.875-7.3673-1.996-.0199 3.853 9.3039-.459 1.2578c-.26.6988-.459 1.1181-1.238 1.1181-.479 0-.998-.2196-.998-.2196l-.38 1.5573s.739.3394 1.797.3394 1.837-.559 2.496-2.1962z"/><path d="m221.891 84.518c0-1.2378-.799-1.9965-1.857-2.4357-.4-.1598-.759-.2796-1.278-.4593-.938-.2994-1.857-.6389-1.857-1.4175 0-.7787.599-1.178 1.518-1.178.918 0 1.836.4393 2.395 1.0183l.799-1.178c-.599-.6389-1.557-1.2379-3.234-1.2379s-3.195.9584-3.195 2.7153c0 1.7969 1.398 2.2961 2.795 2.7753.639.2196 2.137.539 2.137 1.5772s-.939 1.3577-1.817 1.3577c-.879 0-1.997-.5191-2.795-1.3577l-.919 1.1181c.799 1.0382 2.097 1.6971 3.694 1.6971 1.837 0 3.614-.9584 3.614-2.9949z"/><path d="m226.045 74.695c0-.6788-.519-1.178-1.238-1.178-.739 0-1.258.4992-1.258 1.178s.519 1.178 1.258 1.178c.719 0 1.238-.4992 1.238-1.178zm-.28 12.5983v-9.4837h-1.917v9.4837z"/><path d="m236.733 87.2933v-5.6104c0-2.276-.699-4.053-3.394-4.053-1.378 0-2.396.7388-2.895 1.6771h-.06l.02-1.4974h-1.917v9.4837h1.917v-4.7718c0-1.8169.659-3.3143 2.435-3.3143 1.698 0 1.977 1.1979 1.977 2.7952v5.2909z"/><path d="m248.473 85.2967v-7.4871h-1.897l.02 1.4974h-.06c-.559-.8784-1.657-1.6771-3.314-1.6771-2.436 0-4.572 1.757-4.572 4.7718s2.136 4.7718 4.572 4.7718c1.597 0 2.675-.7388 3.314-1.6971h.04v.4792c0 2.2361-.898 3.6936-3.314 3.6936-1.418 0-2.895-.7587-3.394-1.1979l-.899 1.3376c.28.1997 1.897 1.4176 4.233 1.4176 2.356 0 3.534-.9583 4.233-1.8169.698-.8385 1.038-1.9965 1.038-4.0929zm-1.837-2.895c0 1.7969-1.058 3.2145-3.015 3.2145-1.937 0-3.015-1.4176-3.015-3.2145s1.078-3.2344 3.015-3.2344c1.957 0 3.015 1.4375 3.015 3.2344z"/><path d="m253.12 87.2933v-13.7763h-1.897v13.7763z"/><path d="m264.527 82.1621c0-2.6554-1.857-4.5322-4.493-4.5322-2.635 0-4.811 1.9167-4.811 4.9116 0 3.0148 1.936 4.9714 4.751 4.9714 2.836 0 4.053-1.3976 4.173-1.4974l-.798-1.0981c-.22.1397-1.358 1.0981-3.135 1.0981-1.757 0-2.955-1.1381-3.055-3.0148h7.308s.06-.4792.06-.8386zm-1.817-.4392h-5.531c.06-1.1381.899-2.7153 2.795-2.7153 1.917 0 2.716 1.6571 2.736 2.7153z"/><path d="m284.143 87.2933v-5.7501c0-2.0565-.679-3.9133-3.214-3.9133-1.338 0-2.376.6789-3.015 1.8768-.439-1.2379-1.418-1.8768-2.815-1.8768-1.258 0-2.296.7987-2.736 1.6771h-.06l.02-1.4974h-1.916v9.4837h1.916v-4.9315c0-1.6971.759-3.1546 2.277-3.1546 1.377 0 1.717 1.158 1.717 2.5556v5.5305h1.916v-4.9315c0-1.6971.759-3.1546 2.276-3.1546 1.538 0 1.737 1.4575 1.737 2.5556v5.5305z"/><path d="m296.11 82.5814c0-2.9349-2.196-4.9515-5.011-4.9515-2.835 0-5.031 2.0166-5.031 4.9515 0 2.9549 2.196 4.9315 5.031 4.9315 2.815 0 5.011-1.9766 5.011-4.9315zm-1.936-.0599c0 1.8768-1.178 3.3542-3.075 3.3542-1.917 0-3.095-1.4774-3.095-3.3542 0-1.8568 1.178-3.3343 3.095-3.3343 1.897 0 3.075 1.4775 3.075 3.3343z"/><path d="m306.359 87.2933v-5.6104c0-2.276-.699-4.053-3.395-4.053-1.377 0-2.395.7388-2.895 1.6771h-.059l.02-1.4974h-1.917v9.4837h1.917v-4.7718c0-1.8169.658-3.3143 2.435-3.3143 1.697 0 1.977 1.1979 1.977 2.7952v5.2909z"/><path d="m313.527 87.1934-.12-1.5373s-.42.2196-.979.2196c-.539 0-.798-.1797-.978-.4792-.22-.3993-.24-.9384-.24-1.737v-4.2926h2.277v-1.5373h-2.277v-2.8351h-1.916v2.8351h-1.398v1.5373h1.398v4.3326c0 1.8568.12 3.8134 2.496 3.8134.658 0 1.237-.0999 1.737-.3195z"/><path d="m323.46 87.2933v-5.6503c0-2.2561-.659-4.0131-3.394-4.0131-1.377 0-2.416.7388-2.915 1.6771h-.04v-5.79h-1.896v13.7763h1.896v-4.6919c0-1.8968.739-3.3942 2.476-3.3942s1.957 1.3577 1.957 2.7153v5.3708z"/><path d="m329.068 86.255c0-.7786-.559-1.2578-1.318-1.2578-.779 0-1.338.4792-1.338 1.2578 0 .7587.559 1.2379 1.338 1.2379.759 0 1.318-.4792 1.318-1.2379z"/><path d="m28.2969 112.963v-13.776h-1.9366v13.776z"/><path d="m43.4556 112.963v-5.65c0-2.256-.6589-4.013-3.3942-4.013-1.3776 0-2.4158.739-2.9149 1.677h-.04v-5.79h-1.8967v13.776h1.8967v-4.692c0-1.896.7388-3.394 2.4758-3.394s1.9566 1.358 1.9566 2.715v5.371z"/><path d="m53.4154 112.963v-5.51c0-2.756-1.3776-4.153-4.1528-4.153-1.5773 0-2.8551.559-3.5539.958l.579 1.278c.3195-.2 1.4775-.819 2.8551-.819s2.3559.719 2.3559 2.157v.379l-2.5356.1c-2.1962.1-3.7136 1.038-3.7136 2.895 0 1.837 1.5174 2.935 3.2744 2.935 1.737 0 2.6354-1.018 3.0147-1.418l.02 1.198zm-1.8967-4.552v2.037c-.3594.539-1.178 1.377-2.4158 1.377-1.2579 0-1.9567-.739-1.9567-1.637s.619-1.557 2.1563-1.637z"/><path d="m63.8681 103.48h-1.9766l-2.7951 7.147-2.8152-7.147h-1.9965l3.9532 9.483h1.6771z"/><path d="m73.8208 107.832c0-2.655-1.8568-4.532-4.4923-4.532-2.6354 0-4.8116 1.917-4.8116 4.911 0 3.015 1.9366 4.972 4.7518 4.972 2.8351 0 4.053-1.398 4.1727-1.498l-.7986-1.098c-.2196.14-1.3576 1.098-3.1346 1.098-1.7569 0-2.9549-1.138-3.0547-3.014h7.3074s.0599-.48.0599-.839zm-1.8169-.439h-5.5304c.0599-1.138.8984-2.715 2.7952-2.715 1.9166 0 2.7153 1.657 2.7352 2.715z"/><path d="m89.6238 108.211c0-2.795-1.7969-4.911-4.5721-4.911-1.4974 0-2.6354.619-3.3143 1.657h-.0399v-5.77h-1.8967v13.776h1.8368v-1.497h.0399c.7787 1.158 1.9567 1.717 3.3343 1.717 2.8151 0 4.612-2.156 4.612-4.972zm-1.9566-.02c0 1.897-1.1181 3.355-3.0148 3.355s-3.0348-1.458-3.0348-3.355c0-1.896 1.1381-3.334 3.0348-3.334s3.0148 1.438 3.0148 3.334z"/><path d="m100.279 107.832c0-2.655-1.8568-4.532-4.4922-4.532-2.6355 0-4.8117 1.917-4.8117 4.911 0 3.015 1.9366 4.972 4.7518 4.972 2.8351 0 4.053-1.398 4.1728-1.498l-.7987-1.098c-.2196.14-1.3576 1.098-3.1345 1.098-1.757 0-2.9549-1.138-3.0548-3.014h7.3073s.06-.48.06-.839zm-1.8169-.439h-5.5304c.0599-1.138.8984-2.715 2.7952-2.715 1.9167 0 2.7153 1.657 2.7352 2.715z"/><path d="m110.944 107.832c0-2.655-1.857-4.532-4.492-4.532-2.636 0-4.812 1.917-4.812 4.911 0 3.015 1.937 4.972 4.752 4.972 2.835 0 4.053-1.398 4.173-1.498l-.799-1.098c-.219.14-1.357 1.098-3.134 1.098-1.757 0-2.955-1.138-3.055-3.014h7.307s.06-.48.06-.839zm-1.817-.439h-5.53c.06-1.138.898-2.715 2.795-2.715 1.917 0 2.715 1.657 2.735 2.715z"/><path d="m121.093 112.963v-5.61c0-2.276-.699-4.053-3.395-4.053-1.377 0-2.395.739-2.895 1.677h-.059l.02-1.497h-1.917v9.483h1.917v-4.772c0-1.816.658-3.314 2.435-3.314 1.697 0 1.977 1.198 1.977 2.795v5.291z"/><path d="m134.993 112.963v-5.51c0-2.756-1.377-4.153-4.153-4.153-1.577 0-2.855.559-3.553.958l.579 1.278c.319-.2 1.477-.819 2.855-.819 1.377 0 2.356.719 2.356 2.157v.379l-2.536.1c-2.196.1-3.714 1.038-3.714 2.895 0 1.837 1.518 2.935 3.275 2.935 1.737 0 2.635-1.018 3.015-1.418l.019 1.198zm-1.896-4.552v2.037c-.36.539-1.178 1.377-2.416 1.377-1.258 0-1.957-.739-1.957-1.637s.619-1.557 2.156-1.637z"/><path d="m147.376 108.211c0-2.795-1.797-4.911-4.572-4.911-1.498 0-2.636.619-3.315 1.657h-.04v-5.77h-1.896v13.776h1.836v-1.497h.04c.779 1.158 1.957 1.717 3.335 1.717 2.815 0 4.612-2.156 4.612-4.972zm-1.957-.02c0 1.897-1.118 3.355-3.015 3.355-1.896 0-3.035-1.458-3.035-3.355 0-1.896 1.139-3.334 3.035-3.334 1.897 0 3.015 1.438 3.015 3.334z"/><path d="m151.362 112.963v-13.776h-1.896v13.776z"/><path d="m162.769 107.832c0-2.655-1.857-4.532-4.493-4.532-2.635 0-4.811 1.917-4.811 4.911 0 3.015 1.936 4.972 4.752 4.972 2.835 0 4.053-1.398 4.172-1.498l-.798-1.098c-.22.14-1.358 1.098-3.135 1.098-1.757 0-2.955-1.138-3.055-3.014h7.308s.06-.48.06-.839zm-1.817-.439h-5.531c.06-1.138.899-2.715 2.796-2.715 1.916 0 2.715 1.657 2.735 2.715z"/><path d="m173.261 112.863-.12-1.537s-.419.22-.978.22c-.539 0-.799-.18-.978-.48-.22-.399-.24-.938-.24-1.737v-4.292h2.276v-1.537h-2.276v-2.836h-1.917v2.836h-1.397v1.537h1.397v4.332c0 1.857.12 3.814 2.496 3.814.659 0 1.238-.1 1.737-.32z"/><path d="m184.253 108.251c0-2.935-2.196-4.951-5.011-4.951-2.836 0-5.032 2.016-5.032 4.951 0 2.955 2.196 4.932 5.032 4.932 2.815 0 5.011-1.977 5.011-4.932zm-1.937-.06c0 1.877-1.178 3.355-3.074 3.355-1.917 0-3.095-1.478-3.095-3.355 0-1.856 1.178-3.334 3.095-3.334 1.896 0 3.074 1.478 3.074 3.334z"/><path d="m200.136 108.211c0-2.815-1.777-4.911-4.572-4.911-1.398 0-2.536.559-3.375 1.677h-.04v-1.497h-1.836v13.197h1.916v-5.211l.02.02c.679 1.058 1.777 1.697 3.275 1.697 2.815 0 4.612-2.156 4.612-4.972zm-1.957-.02c0 1.897-1.118 3.355-3.015 3.355s-3.015-1.458-3.015-3.355c0-1.896 1.118-3.334 3.015-3.334s3.015 1.438 3.015 3.334z"/><path d="m209.494 112.963v-5.51c0-2.756-1.378-4.153-4.153-4.153-1.578 0-2.855.559-3.554.958l.579 1.278c.319-.2 1.477-.819 2.855-.819s2.356.719 2.356 2.157v.379l-2.536.1c-2.196.1-3.713 1.038-3.713 2.895 0 1.837 1.517 2.935 3.274 2.935 1.737 0 2.635-1.018 3.015-1.418l.02 1.198zm-1.897-4.552v2.037c-.36.539-1.178 1.377-2.416 1.377-1.258 0-1.957-.739-1.957-1.637s.619-1.557 2.157-1.637z"/><path d="m220.005 103.48-1.977-.02-2.795 7.387-2.875-7.367-1.997-.02 3.854 9.304-.459 1.257c-.26.699-.46 1.118-1.238 1.118-.48 0-.999-.219-.999-.219l-.379 1.557s.739.34 1.797.34 1.837-.559 2.496-2.197z"/><path d="m234.654 108.251c0-2.935-2.196-4.951-5.011-4.951-2.835 0-5.032 2.016-5.032 4.951 0 2.955 2.197 4.932 5.032 4.932 2.815 0 5.011-1.977 5.011-4.932zm-1.937-.06c0 1.877-1.178 3.355-3.074 3.355-1.917 0-3.095-1.478-3.095-3.355 0-1.856 1.178-3.334 3.095-3.334 1.896 0 3.074 1.478 3.074 3.334z"/><path d="m247.039 99.187s-.54-.2196-1.638-.2196-1.856.5191-2.276 1.0386c-.399.499-.639 1.297-.639 2.535v.959h-3.573v-1.059c0-1.078.199-2.016 1.457-2.016.539 0 1.078.18 1.078.18l.12-1.418s-.539-.2196-1.637-.2196-1.857.5191-2.276 1.0386c-.4.499-.639 1.297-.639 2.535v.959h-1.358v1.537h1.358v7.926h1.897v-7.926h3.573v7.926h1.897v-7.926h2.256v-1.537h-2.256v-1.059c0-1.078.2-2.016 1.458-2.016.539 0 1.078.18 1.078.18z"/><path d="m260.616 109.25c0-1.897-1.177-2.935-2.515-3.534l-1.198-.559.02-4.612c.898.099 1.797.639 2.356 1.537l.978-1.138c-.799-1.2379-2.036-1.757-3.234-1.8568v-1.3777h-1.118l-.02 1.3577c-2.017.1997-3.714 1.4378-3.714 3.6138 0 1.997 1.278 2.875 2.875 3.614l.739.339-.02 4.932c-1.158-.02-2.456-.799-3.015-2.037l-1.158 1.098c.819 1.538 2.376 2.456 4.073 2.476v1.437h1.118l.02-1.457c1.997-.2 3.813-1.737 3.813-3.833zm-4.751-8.725-.02 4.232-.32-.159c-.758-.38-1.617-.899-1.617-2.037 0-1.158.779-1.917 1.957-2.036zm2.994 8.944c0 1.218-1.078 2.057-2.036 2.117l.02-4.553.499.24c.899.439 1.517.998 1.517 2.196z"/><path d="m267.763 112.963v-13.776h-4.572v1.418h2.695v12.358z"/><path d="m281.47 112.963v-1.597h-7.028l3.534-3.374c.859-.799 2.915-2.516 2.915-4.952 0-2.435-1.857-4.0527-4.612-4.0527-2.735 0-4.133 1.8167-4.512 2.6557l1.018 1.138c.559-.919 1.637-2.216 3.374-2.216 1.757 0 2.835 1.118 2.835 2.675 0 1.537-1.178 2.795-2.236 3.813l-4.871 4.612.279 1.298z"/><path d="m286.919 110.847h-1.956l-1.398 4.911h1.518z"/><path d="m299.083 106.095c0-3.594-1.557-7.1077-5.27-7.1077-3.694 0-5.271 3.5137-5.271 7.1077 0 3.574 1.557 7.088 5.271 7.088 3.713 0 5.27-3.514 5.27-7.088zm-1.956-.04c0 3.135-1.098 5.431-3.314 5.431-2.217 0-3.315-2.296-3.315-5.431 0-3.154 1.098-5.43 3.315-5.43 2.216 0 3.314 2.276 3.314 5.43z"/><path d="m310.782 106.095c0-3.594-1.557-7.1077-5.271-7.1077-3.693 0-5.271 3.5137-5.271 7.1077 0 3.574 1.558 7.088 5.271 7.088 3.714 0 5.271-3.514 5.271-7.088zm-1.957-.04c0 3.135-1.098 5.431-3.314 5.431s-3.314-2.296-3.314-5.431c0-3.154 1.098-5.43 3.314-5.43s3.314 2.276 3.314 5.43z"/><path d="m322.481 106.095c0-3.594-1.558-7.1077-5.271-7.1077-3.694 0-5.271 3.5137-5.271 7.1077 0 3.574 1.557 7.088 5.271 7.088 3.713 0 5.271-3.514 5.271-7.088zm-1.957-.04c0 3.135-1.098 5.431-3.314 5.431s-3.315-2.296-3.315-5.431c0-3.154 1.099-5.43 3.315-5.43s3.314 2.276 3.314 5.43z"/><path d="m330.63 100.365c0-.6789-.519-1.178-1.238-1.178-.739 0-1.258.4991-1.258 1.178 0 .679.519 1.178 1.258 1.178.719 0 1.238-.499 1.238-1.178zm-.28 12.598v-9.483h-1.917v9.483z"/><path d="m341.318 112.963v-5.61c0-2.276-.699-4.053-3.394-4.053-1.378 0-2.396.739-2.895 1.677h-.06l.02-1.497h-1.917v9.483h1.917v-4.772c0-1.816.659-3.314 2.435-3.314 1.698 0 1.977 1.198 1.977 2.795v5.291z"/><path d="m35.3447 138.633v-13.776h-1.8967v5.77h-.0399c-.6589-.978-1.7769-1.657-3.3143-1.657-2.7752 0-4.5721 2.116-4.5721 4.911 0 2.816 1.7969 4.972 4.612 4.972 1.3777 0 2.5556-.579 3.3343-1.737h.0399v1.517zm-1.8368-4.772c0 1.897-1.1181 3.355-3.0148 3.355s-3.0148-1.458-3.0148-3.355c0-1.896 1.1181-3.334 3.0148-3.334s3.0148 1.438 3.0148 3.334z"/><path d="m46.7387 133.502c0-2.655-1.8568-4.532-4.4923-4.532-2.6354 0-4.8117 1.917-4.8117 4.911 0 3.015 1.9367 4.972 4.7518 4.972 2.8351 0 4.053-1.398 4.1728-1.498l-.7986-1.098c-.2196.14-1.3577 1.098-3.1346 1.098-1.757 0-2.9549-1.138-3.0547-3.014h7.3074s.0599-.48.0599-.839zm-1.8169-.439h-5.5305c.0599-1.138.8985-2.716 2.7952-2.716 1.9167 0 2.7153 1.658 2.7353 2.716z"/><path d="m58.5642 133.881c0-2.795-1.7969-4.911-4.5721-4.911-1.4974 0-2.6355.619-3.3143 1.657h-.0399v-5.77h-1.8968v13.776h1.8369v-1.497h.0399c.7786 1.158 1.9566 1.717 3.3342 1.717 2.8152 0 4.6121-2.156 4.6121-4.972zm-1.9567-.02c0 1.897-1.118 3.355-3.0147 3.355-1.8968 0-3.0348-1.458-3.0348-3.355 0-1.896 1.138-3.334 3.0348-3.334 1.8967 0 3.0147 1.438 3.0147 3.334z"/><path d="m65.1664 138.533-.1198-1.537s-.4193.22-.9783.22c-.5391 0-.7987-.18-.9784-.48-.2196-.399-.2395-.938-.2395-1.737v-4.292h2.276v-1.537h-2.276v-2.836h-1.9167v2.836h-1.3976v1.537h1.3976v4.332c0 1.857.1198 3.814 2.4957 3.814.6588 0 1.2378-.1 1.737-.32z"/><path d="m73.0081 126.035c0-.679-.5191-1.178-1.2378-1.178-.7388 0-1.2579.499-1.2579 1.178s.5191 1.178 1.2579 1.178c.7187 0 1.2378-.499 1.2378-1.178zm-.2795 12.598v-9.483h-1.9167v9.483z"/><path d="m83.6962 138.633v-5.61c0-2.276-.6988-4.053-3.3941-4.053-1.3776 0-2.3959.739-2.895 1.677h-.0599l.02-1.497h-1.9167v9.483h1.9167v-4.772c0-1.816.6588-3.314 2.4358-3.314 1.697 0 1.9765 1.198 1.9765 2.795v5.291z"/><path d="m99.4337 134.221c0-3.015-2.4557-4.512-4.6919-4.512-.7586 0-1.4175.119-1.9566.359l.7188-3.654h5.5304v-1.557h-6.928l-1.1979 6.469.9783.579c.539-.479 1.5373-.739 2.4358-.739 1.5772 0 3.1945.958 3.1945 3.055 0 2.096-1.6372 3.055-3.1945 3.055-1.5374 0-2.8351-.819-3.4341-1.837l-1.0781 1.118c.4991.878 1.9366 2.316 4.5321 2.316 2.5956 0 5.0912-1.637 5.0912-4.652z"/><path d="m113.273 138.633v-5.51c0-2.756-1.378-4.153-4.153-4.153-1.577 0-2.855.559-3.554.958l.579 1.278c.32-.2 1.478-.819 2.855-.819 1.378 0 2.356.719 2.356 2.157v.379l-2.535.1c-2.197.1-3.714 1.038-3.714 2.895 0 1.837 1.517 2.935 3.274 2.935 1.737 0 2.636-1.018 3.015-1.418l.02 1.198zm-1.897-4.552v2.037c-.359.539-1.178 1.377-2.416 1.377-1.257 0-1.956-.739-1.956-1.637s.619-1.557 2.156-1.637z"/><path d="m123.978 138.633v-5.61c0-2.276-.699-4.053-3.394-4.053-1.378 0-2.396.739-2.895 1.677h-.06l.02-1.497h-1.917v9.483h1.917v-4.772c0-1.816.659-3.314 2.436-3.314 1.697 0 1.977 1.198 1.977 2.795v5.291z"/><path d="m135.718 138.633v-13.776h-1.896v5.77h-.04c-.659-.978-1.777-1.657-3.315-1.657-2.775 0-4.572 2.116-4.572 4.911 0 2.816 1.797 4.972 4.612 4.972 1.378 0 2.556-.579 3.335-1.737h.039v1.517zm-1.837-4.772c0 1.897-1.118 3.355-3.014 3.355-1.897 0-3.015-1.458-3.015-3.355 0-1.896 1.118-3.334 3.015-3.334 1.896 0 3.014 1.438 3.014 3.334z"/><path d="m149.792 138.633v-5.51c0-2.756-1.378-4.153-4.153-4.153-1.577 0-2.855.559-3.554.958l.579 1.278c.32-.2 1.478-.819 2.855-.819 1.378 0 2.356.719 2.356 2.157v.379l-2.535.1c-2.197.1-3.714 1.038-3.714 2.895 0 1.837 1.517 2.935 3.274 2.935 1.737 0 2.636-1.018 3.015-1.418l.02 1.198zm-1.897-4.552v2.037c-.359.539-1.178 1.377-2.416 1.377-1.257 0-1.956-.739-1.956-1.637s.619-1.557 2.156-1.637z"/><path d="m164.575 138.633v-5.65c0-2.256-.659-4.013-3.395-4.013-1.377 0-2.415.739-2.915 1.677h-.04v-5.79h-1.896v13.776h1.896v-4.692c0-1.896.739-3.394 2.476-3.394s1.957 1.358 1.957 2.715v5.371z"/><path d="m174.534 138.633v-5.51c0-2.756-1.377-4.153-4.152-4.153-1.578 0-2.856.559-3.554.958l.579 1.278c.319-.2 1.477-.819 2.855-.819 1.377 0 2.356.719 2.356 2.157v.379l-2.536.1c-2.196.1-3.714 1.038-3.714 2.895 0 1.837 1.518 2.935 3.275 2.935 1.737 0 2.635-1.018 3.015-1.418l.02 1.198zm-1.896-4.552v2.037c-.36.539-1.178 1.377-2.416 1.377-1.258 0-1.957-.739-1.957-1.637s.619-1.557 2.156-1.637z"/><path d="m178.99 138.633v-13.776h-1.896v13.776z"/><path d="m186.643 124.857s-.539-.22-1.637-.22-1.857.519-2.276 1.039c-.399.499-.639 1.297-.639 2.535v.959h-1.358v1.537h1.358v7.926h1.897v-7.926h2.256v-1.537h-2.256v-1.059c0-1.078.2-2.016 1.457-2.016.539 0 1.078.18 1.078.18z"/><path d="m204.924 138.633v-5.75c0-2.056-.678-3.913-3.214-3.913-1.338 0-2.376.679-3.015 1.877-.439-1.238-1.417-1.877-2.815-1.877-1.258 0-2.296.798-2.735 1.677h-.06l.02-1.497h-1.917v9.483h1.917v-4.931c0-1.697.758-3.155 2.276-3.155 1.377 0 1.717 1.158 1.717 2.556v5.53h1.917v-4.931c0-1.697.758-3.155 2.276-3.155 1.537 0 1.737 1.458 1.737 2.556v5.53z"/><path d="m216.892 133.921c0-2.935-2.196-4.951-5.012-4.951-2.835 0-5.031 2.016-5.031 4.951 0 2.955 2.196 4.932 5.031 4.932 2.816 0 5.012-1.977 5.012-4.932zm-1.937-.06c0 1.877-1.178 3.355-3.075 3.355-1.916 0-3.094-1.478-3.094-3.355 0-1.856 1.178-3.334 3.094-3.334 1.897 0 3.075 1.478 3.075 3.334z"/><path d="m227.14 138.633v-5.61c0-2.276-.699-4.053-3.394-4.053-1.378 0-2.396.739-2.895 1.677h-.06l.02-1.497h-1.917v9.483h1.917v-4.772c0-1.816.659-3.314 2.436-3.314 1.697 0 1.976 1.198 1.976 2.795v5.291z"/><path d="m234.308 138.533-.12-1.537s-.419.22-.978.22c-.539 0-.799-.18-.979-.48-.219-.399-.239-.938-.239-1.737v-4.292h2.276v-1.537h-2.276v-2.836h-1.917v2.836h-1.397v1.537h1.397v4.332c0 1.857.12 3.814 2.496 3.814.659 0 1.238-.1 1.737-.32z"/><path d="m244.242 138.633v-5.65c0-2.256-.659-4.013-3.395-4.013-1.377 0-2.415.739-2.914 1.677h-.04v-5.79h-1.897v13.776h1.897v-4.692c0-1.896.738-3.394 2.475-3.394s1.957 1.358 1.957 2.715v5.371z"/><path d="m253.223 135.858c0-1.238-.798-1.997-1.857-2.436-.399-.16-.758-.279-1.277-.459-.939-.3-1.857-.639-1.857-1.418 0-.778.599-1.178 1.517-1.178.919 0 1.837.44 2.396 1.019l.799-1.178c-.599-.639-1.558-1.238-3.235-1.238s-3.194.958-3.194 2.715c0 1.797 1.397 2.296 2.795 2.775.639.22 2.136.539 2.136 1.578 0 1.038-.938 1.357-1.817 1.357-.878 0-1.996-.519-2.795-1.357l-.918 1.118c.798 1.038 2.096 1.697 3.693 1.697 1.837 0 3.614-.959 3.614-2.995z"/><path d="m266.446 138.633v-5.51c0-2.756-1.378-4.153-4.153-4.153-1.577 0-2.855.559-3.554.958l.579 1.278c.32-.2 1.478-.819 2.855-.819 1.378 0 2.356.719 2.356 2.157v.379l-2.535.1c-2.197.1-3.714 1.038-3.714 2.895 0 1.837 1.517 2.935 3.274 2.935 1.737 0 2.636-1.018 3.015-1.418l.02 1.198zm-1.897-4.552v2.037c-.359.539-1.178 1.377-2.416 1.377-1.257 0-1.956-.739-1.956-1.637s.619-1.557 2.156-1.637z"/><path d="m277.151 138.633v-5.61c0-2.276-.699-4.053-3.394-4.053-1.378 0-2.396.739-2.895 1.677h-.06l.02-1.497h-1.917v9.483h1.917v-4.772c0-1.816.659-3.314 2.436-3.314 1.697 0 1.977 1.198 1.977 2.795v5.291z"/><path d="m288.891 138.633v-13.776h-1.896v5.77h-.04c-.659-.978-1.777-1.657-3.315-1.657-2.775 0-4.572 2.116-4.572 4.911 0 2.816 1.797 4.972 4.612 4.972 1.378 0 2.556-.579 3.334-1.737h.04v1.517zm-1.837-4.772c0 1.897-1.118 3.355-3.014 3.355-1.897 0-3.015-1.458-3.015-3.355 0-1.896 1.118-3.334 3.015-3.334 1.896 0 3.014 1.438 3.014 3.334z"/><path d="m297.594 138.633v-13.776h-1.897v13.776z"/><path d="m312.659 138.633v-5.65c0-2.256-.659-4.013-3.395-4.013-1.377 0-2.415.739-2.914 1.677h-.04v-5.79h-1.897v13.776h1.897v-4.692c0-1.896.738-3.394 2.475-3.394s1.957 1.358 1.957 2.715v5.371z"/><path d="m322.618 138.633v-5.51c0-2.756-1.377-4.153-4.152-4.153-1.578 0-2.855.559-3.554.958l.579 1.278c.319-.2 1.477-.819 2.855-.819 1.377 0 2.356.719 2.356 2.157v.379l-2.536.1c-2.196.1-3.713 1.038-3.713 2.895 0 1.837 1.517 2.935 3.274 2.935 1.737 0 2.635-1.018 3.015-1.418l.02 1.198zm-1.896-4.552v2.037c-.36.539-1.178 1.377-2.416 1.377-1.258 0-1.957-.739-1.957-1.637s.619-1.557 2.157-1.637z"/><path d="m333.071 129.15h-1.976l-2.796 7.147-2.815-7.147h-1.996l3.953 9.483h1.677z"/><path d="m343.024 133.502c0-2.655-1.857-4.532-4.492-4.532-2.636 0-4.812 1.917-4.812 4.911 0 3.015 1.937 4.972 4.752 4.972 2.835 0 4.053-1.398 4.172-1.498l-.798-1.098c-.22.14-1.358 1.098-3.135 1.098-1.757 0-2.955-1.138-3.054-3.014h7.307s.06-.48.06-.839zm-1.817-.439h-5.53c.059-1.138.898-2.716 2.795-2.716 1.916 0 2.715 1.658 2.735 2.716z"/><path d="m32.5496 161.528c0-1.238-.7987-1.997-1.8568-2.436-.3993-.16-.7587-.279-1.2778-.459-.9384-.3-1.8568-.639-1.8568-1.418 0-.778.599-1.178 1.5174-1.178s1.8368.44 2.3958 1.019l.7987-1.178c-.599-.639-1.5574-1.238-3.2345-1.238s-3.1944.958-3.1944 2.715c0 1.797 1.3975 2.296 2.7951 2.775.6389.22 2.1363.539 2.1363 1.578 0 1.038-.9383 1.357-1.8168 1.357s-1.9966-.519-2.7952-1.357l-.9184 1.118c.7986 1.038 2.0964 1.697 3.6936 1.697 1.8368 0 3.6138-.959 3.6138-2.995z"/><path d="m41.8923 164.303v-5.51c0-2.756-1.3776-4.153-4.1528-4.153-1.5773 0-2.8551.559-3.5539.958l.579 1.278c.3195-.2 1.4775-.819 2.8551-.819s2.3559.719 2.3559 2.157v.379l-2.5356.1c-2.1962.1-3.7136 1.038-3.7136 2.895 0 1.837 1.5174 2.935 3.2744 2.935 1.737 0 2.6354-1.018 3.0148-1.418l.0199 1.198zm-1.8967-4.552v2.036c-.3594.54-1.178 1.378-2.4158 1.378-1.2578 0-1.9566-.739-1.9566-1.637 0-.899.6189-1.557 2.1562-1.637z"/><path d="m52.3451 154.819h-1.9766l-2.7952 7.148-2.8151-7.148h-1.9966l3.9532 9.484h1.6771z"/><path d="m62.2977 159.172c0-2.655-1.8568-4.532-4.4922-4.532-2.6355 0-4.8117 1.916-4.8117 4.911 0 3.015 1.9366 4.972 4.7518 4.972 2.8351 0 4.053-1.398 4.1728-1.498l-.7986-1.098c-.2197.14-1.3577 1.098-3.1346 1.098-1.757 0-2.9549-1.138-3.0548-3.014h7.3074s.0599-.48.0599-.839zm-1.8168-.439h-5.5305c.0599-1.138.8985-2.716 2.7952-2.716 1.9167 0 2.7153 1.658 2.7353 2.716z"/><path d="m73.482 164.303v-13.776h-1.8967v5.77h-.04c-.6588-.978-1.7769-1.657-3.3142-1.657-2.7752 0-4.5721 2.116-4.5721 4.911 0 2.815 1.7969 4.972 4.612 4.972 1.3776 0 2.5556-.579 3.3342-1.737h.04v1.517zm-1.8368-4.772c0 1.897-1.1181 3.355-3.0148 3.355s-3.0148-1.458-3.0148-3.355c0-1.896 1.1181-3.334 3.0148-3.334s3.0148 1.438 3.0148 3.334z"/><path d="m89.4724 160.49c0-1.737-1.0582-2.935-2.5756-3.434v-.04c.8984-.36 2.1363-1.098 2.1363-3.115 0-2.276-1.9965-3.574-4.3125-3.574s-4.3126 1.298-4.3126 3.574c0 2.017 1.2578 2.755 2.1563 3.095v.06c-1.5374.479-2.5756 1.697-2.5756 3.434 0 2.595 2.0166 4.033 4.7319 4.033s4.7518-1.438 4.7518-4.033zm-2.316-6.409c0 1.457-1.0582 2.236-2.4358 2.236-1.3777 0-2.4358-.779-2.4358-2.236 0-1.438 1.0581-2.236 2.4358-2.236 1.3776 0 2.4358.798 2.4358 2.236zm.3993 6.269c0 1.637-1.2778 2.615-2.8351 2.615-1.5374 0-2.8351-.978-2.8351-2.615s1.2179-2.616 2.8351-2.616 2.8351.979 2.8351 2.616z"/><path d="m109.601 164.303v-5.75c0-2.056-.679-3.913-3.215-3.913-1.337 0-2.376.679-3.015 1.877-.439-1.238-1.417-1.877-2.815-1.877-1.2575 0-2.2957.798-2.7349 1.677h-.0599l.0199-1.498h-1.9167v9.484h1.9167v-4.931c0-1.697.7587-3.155 2.2759-3.155 1.378 0 1.717 1.158 1.717 2.556v5.53h1.917v-4.931c0-1.697.759-3.155 2.276-3.155 1.537 0 1.737 1.458 1.737 2.556v5.53z"/><path d="m121.568 159.591c0-2.935-2.196-4.951-5.011-4.951-2.835 0-5.031 2.016-5.031 4.951 0 2.955 2.196 4.932 5.031 4.932 2.815 0 5.011-1.977 5.011-4.932zm-1.936-.06c0 1.877-1.178 3.355-3.075 3.355-1.917 0-3.095-1.478-3.095-3.355 0-1.856 1.178-3.334 3.095-3.334 1.897 0 3.075 1.478 3.075 3.334z"/><path d="m131.816 164.303v-5.61c0-2.276-.699-4.053-3.394-4.053-1.377 0-2.396.739-2.895 1.677h-.06l.02-1.498h-1.916v9.484h1.916v-4.772c0-1.817.659-3.314 2.436-3.314 1.697 0 1.977 1.198 1.977 2.795v5.291z"/><path d="m138.984 164.203-.12-1.537s-.419.22-.978.22c-.539 0-.799-.18-.978-.48-.22-.399-.24-.938-.24-1.737v-4.292h2.276v-1.538h-2.276v-2.835h-1.916v2.835h-1.398v1.538h1.398v4.332c0 1.857.119 3.814 2.495 3.814.659 0 1.238-.1 1.737-.32z"/><path d="m148.918 164.303v-5.65c0-2.256-.659-4.013-3.394-4.013-1.378 0-2.416.739-2.915 1.677h-.04v-5.79h-1.897v13.776h1.897v-4.692c0-1.897.739-3.394 2.476-3.394s1.956 1.358 1.956 2.715v5.371z"/><path d="m157.899 161.528c0-1.238-.798-1.997-1.856-2.436-.4-.16-.759-.279-1.278-.459-.938-.3-1.857-.639-1.857-1.418 0-.778.599-1.178 1.517-1.178.919 0 1.837.44 2.396 1.019l.799-1.178c-.599-.639-1.557-1.238-3.234-1.238-1.678 0-3.195.958-3.195 2.715 0 1.797 1.398 2.296 2.795 2.775.639.22 2.137.539 2.137 1.578 0 1.038-.939 1.357-1.817 1.357-.879 0-1.997-.519-2.795-1.357l-.919 1.118c.799 1.038 2.096 1.697 3.694 1.697 1.837 0 3.613-.959 3.613-2.995z"/><path d="m163.152 150.527h-1.957l-1.338 4.273h1.518z"/><path d="m183.651 154.819h-1.937l-2.196 7.168-2.495-7.187h-1.538l-2.495 7.187-2.197-7.168h-1.936l3.134 9.484h1.757l2.516-7.088 2.496 7.088h1.757z"/><path d="m194.567 159.591c0-2.935-2.196-4.951-5.011-4.951-2.835 0-5.032 2.016-5.032 4.951 0 2.955 2.197 4.932 5.032 4.932 2.815 0 5.011-1.977 5.011-4.932zm-1.937-.06c0 1.877-1.178 3.355-3.074 3.355-1.917 0-3.095-1.478-3.095-3.355 0-1.856 1.178-3.334 3.095-3.334 1.896 0 3.074 1.478 3.074 3.334z"/><path d="m201.86 154.8s-.359-.16-.998-.16c-1.018 0-1.877.559-2.336 1.637h-.06l.02-1.458h-1.917v9.484h1.917v-4.732c0-1.377.419-3.194 2.136-3.194.52 0 .859.12 1.039.199h.079z"/><path d="m207.869 164.203-.12-1.537s-.419.22-.978.22c-.539 0-.799-.18-.978-.48-.22-.399-.24-.938-.24-1.737v-4.292h2.276v-1.538h-2.276v-2.835h-1.917v2.835h-1.397v1.538h1.397v4.332c0 1.857.12 3.814 2.496 3.814.659 0 1.238-.1 1.737-.32z"/><path d="m217.803 164.303v-5.65c0-2.256-.659-4.013-3.394-4.013-1.378 0-2.416.739-2.915 1.677h-.04v-5.79h-1.897v13.776h1.897v-4.692c0-1.897.739-3.394 2.476-3.394s1.956 1.358 1.956 2.715v5.371z"/><path d="m233.777 159.591c0-2.935-2.196-4.951-5.012-4.951-2.835 0-5.031 2.016-5.031 4.951 0 2.955 2.196 4.932 5.031 4.932 2.816 0 5.012-1.977 5.012-4.932zm-1.937-.06c0 1.877-1.178 3.355-3.075 3.355-1.916 0-3.094-1.478-3.094-3.355 0-1.856 1.178-3.334 3.094-3.334 1.897 0 3.075 1.478 3.075 3.334z"/><path d="m240.691 150.527s-.539-.22-1.638-.22c-1.098 0-1.856.519-2.276 1.038-.399.5-.639 1.298-.639 2.536v.958h-1.357v1.538h1.357v7.926h1.897v-7.926h2.256v-1.538h-2.256v-1.058c0-1.078.2-2.016 1.458-2.016.539 0 1.078.179 1.078.179z"/><path d="m253.9 159.172c0-2.655-1.856-4.532-4.492-4.532-2.635 0-4.812 1.916-4.812 4.911 0 3.015 1.937 4.972 4.752 4.972 2.835 0 4.053-1.398 4.173-1.498l-.799-1.098c-.219.14-1.357 1.098-3.134 1.098-1.757 0-2.955-1.138-3.055-3.014h7.308s.059-.48.059-.839zm-1.816-.439h-5.531c.06-1.138.899-2.716 2.795-2.716 1.917 0 2.716 1.658 2.736 2.716z"/><path d="m264.116 164.303-3.854-4.991 3.434-4.493h-2.136l-2.416 3.415-2.416-3.415h-2.116l3.414 4.493-3.853 4.991h2.156l2.815-3.853 2.815 3.853z"/><path d="m275.318 159.551c0-2.815-1.777-4.911-4.572-4.911-1.397 0-2.535.559-3.374 1.677h-.04v-1.498h-1.837v13.198h1.917v-5.211l.02.02c.679 1.058 1.777 1.697 3.274 1.697 2.815 0 4.612-2.157 4.612-4.972zm-1.956-.02c0 1.897-1.118 3.355-3.015 3.355s-3.015-1.458-3.015-3.355c0-1.896 1.118-3.334 3.015-3.334s3.015 1.438 3.015 3.334z"/><path d="m285.974 159.172c0-2.655-1.857-4.532-4.492-4.532-2.636 0-4.812 1.916-4.812 4.911 0 3.015 1.937 4.972 4.752 4.972 2.835 0 4.053-1.398 4.173-1.498l-.799-1.098c-.22.14-1.358 1.098-3.135 1.098-1.757 0-2.955-1.138-3.054-3.014h7.307s.06-.48.06-.839zm-1.817-.439h-5.53c.06-1.138.898-2.716 2.795-2.716 1.916 0 2.715 1.658 2.735 2.716z"/><path d="m296.122 164.303v-5.61c0-2.276-.698-4.053-3.394-4.053-1.377 0-2.396.739-2.895 1.677h-.06l.02-1.498h-1.916v9.484h1.916v-4.772c0-1.817.659-3.314 2.436-3.314 1.697 0 1.977 1.198 1.977 2.795v5.291z"/><path d="m305.067 161.528c0-1.238-.798-1.997-1.857-2.436-.399-.16-.758-.279-1.277-.459-.939-.3-1.857-.639-1.857-1.418 0-.778.599-1.178 1.517-1.178.919 0 1.837.44 2.396 1.019l.799-1.178c-.599-.639-1.558-1.238-3.235-1.238s-3.194.958-3.194 2.715c0 1.797 1.397 2.296 2.795 2.775.639.22 2.136.539 2.136 1.578 0 1.038-.938 1.357-1.817 1.357-.878 0-1.996-.519-2.795-1.357l-.918 1.118c.798 1.038 2.096 1.697 3.693 1.697 1.837 0 3.614-.959 3.614-2.995z"/><path d="m315.61 159.172c0-2.655-1.857-4.532-4.492-4.532s-4.812 1.916-4.812 4.911c0 3.015 1.937 4.972 4.752 4.972 2.835 0 4.053-1.398 4.173-1.498l-.799-1.098c-.219.14-1.357 1.098-3.134 1.098-1.757 0-2.955-1.138-3.055-3.014h7.307s.06-.48.06-.839zm-1.817-.439h-5.53c.06-1.138.898-2.716 2.795-2.716 1.917 0 2.715 1.658 2.735 2.716z"/><path d="m323.902 161.528c0-1.238-.799-1.997-1.857-2.436-.399-.16-.759-.279-1.278-.459-.938-.3-1.857-.639-1.857-1.418 0-.778.599-1.178 1.518-1.178.918 0 1.837.44 2.396 1.019l.798-1.178c-.599-.639-1.557-1.238-3.234-1.238s-3.195.958-3.195 2.715c0 1.797 1.398 2.296 2.796 2.775.639.22 2.136.539 2.136 1.578 0 1.038-.938 1.357-1.817 1.357-.878 0-1.996-.519-2.795-1.357l-.919 1.118c.799 1.038 2.097 1.697 3.694 1.697 1.837 0 3.614-.959 3.614-2.995z"/><path d="m328.795 163.265c0-.779-.559-1.258-1.318-1.258-.779 0-1.338.479-1.338 1.258 0 .759.559 1.238 1.338 1.238.759 0 1.318-.479 1.318-1.238z"/><path d="m24.0047 234.493-.0799 1.917c.1198.08.8985.279 1.7769.279 1.0981 0 1.8968-.479 2.356-1.078.4791-.619.7387-1.597.7387-3.015v-13.616h-2.5756v13.676c0 1.138-.1797 1.997-1.138 1.997-.4592 0-.8186-.06-1.0781-.16z"/><path d="m36.9738 231.638.04 1.118h2.4557v-5.53c0-1.638-.3594-2.516-1.0582-3.195-.7187-.679-1.697-1.118-3.4141-1.118-1.6771 0-3.0347.579-3.7734 1.018l.7786 1.637c.4193-.319 1.4775-.798 2.7553-.798 1.3376 0 2.1562.579 2.1562 1.817v.259l-2.316.16c-1.9965.14-3.9731.918-3.9731 2.935 0 2.016 1.5174 3.035 3.3941 3.035 1.4376 0 2.5556-.639 2.9549-1.338zm-1.7769-3.135 1.737-.1v1.777c-.3394.48-1.0781 1.059-2.0764 1.059-1.0582 0-1.6771-.559-1.6771-1.378s.6588-1.278 2.0165-1.358z"/><path d="m47.2286 225.648 1.0981-1.697c-.7986-.579-1.7569-1.038-3.474-1.038-1.8568 0-3.454 1.138-3.454 2.895 0 1.418.7387 2.276 2.1762 2.755l1.1181.38c1.2379.419 1.6172.698 1.6172 1.197 0 .56-.4392.919-1.3976.919-.8186 0-1.7969-.439-2.9349-1.318l-1.0382 1.737c.7786.899 2.4358 1.498 3.9132 1.498 2.3759 0 3.8334-1.358 3.8334-3.195 0-1.397-.7587-2.156-2.895-2.855l-.6788-.22c-1.0782-.339-1.3976-.678-1.3976-1.098 0-.459.4193-.778 1.2578-.778.8785 0 1.6971.399 2.2561.818z"/><path d="m62.2954 227.345v5.411h2.5556v-5.83c0-2.216-.6988-4.013-3.2344-4.013-1.3976 0-2.4957.659-3.1745 1.837-.4592-1.278-1.2978-1.837-2.6954-1.837-1.2578 0-2.4358.739-2.875 1.637h-.0599l.02-1.457h-2.5556v9.663h2.5556v-4.991c0-1.518.579-2.756 1.8967-2.756 1.2179 0 1.5573.999 1.5573 2.316v5.431h2.5556v-4.991c0-1.658.6588-2.756 1.9366-2.756 1.2579 0 1.5174 1.158 1.5174 2.336z"/><path d="m68.4992 221.555c.8985 0 1.5374-.579 1.5374-1.417 0-.819-.6389-1.418-1.5374-1.418-.8984 0-1.5373.599-1.5373 1.418 0 .838.6389 1.417 1.5373 1.417zm-1.2778 1.538v9.663h2.5556v-9.663z"/><path d="m78.6199 227.585v5.171h2.5556v-5.73c0-2.316-.6988-4.113-3.474-4.113-1.3976 0-2.3759.619-2.895 1.637h-.0599l.0199-1.457h-2.5556v9.663h2.5556v-4.812c0-1.617.5391-2.935 2.1164-2.935 1.4774 0 1.737 1.138 1.737 2.576z"/><path d="m85.4771 228.743h7.1077s.04-.799.04-1.298c0-2.575-1.7969-4.532-4.7718-4.532-2.7552 0-5.0114 2.076-5.0114 5.171 0 3.115 2.1563 4.892 5.0713 4.892 2.3559 0 3.8134-.999 4.3525-1.558l-.9983-1.377c-.4592.399-1.6172.978-2.915.978-1.4575 0-2.6354-.739-2.875-2.276zm2.3559-3.933c1.7969 0 2.1962 1.218 2.2362 2.276h-4.632c.0798-1.218.8784-2.276 2.3958-2.276z"/></g></svg>