<svg fill="none" height="257" viewBox="0 0 415 257" width="415" xmlns="http://www.w3.org/2000/svg"><path d="m.598633 0h413.571v256.699h-413.571z" fill="#fff"/><path d="m258.304 215.343 2.787 8.578h9.02l-7.297 5.302 2.787 8.578-7.297-5.301-7.298 5.301 2.788-8.578-7.298-5.302h9.02z" fill="#fcd214"/><path d="m320.05 215.343 2.787 8.578h9.02l-7.297 5.302 2.787 8.578-7.297-5.301-7.298 5.301 2.788-8.578-7.298-5.302h9.02z" fill="#fcd214"/><path d="m289.177 215.343 2.787 8.578h9.02l-7.297 5.302 2.787 8.578-7.297-5.301-7.298 5.301 2.788-8.578-7.298-5.302h9.02z" fill="#fcd214"/><path d="m350.917 215.343 2.787 8.578h9.02l-7.297 5.302 2.787 8.578-7.297-5.301-7.297 5.301 2.787-8.578-7.297-5.302h9.02z" fill="#fcd214"/><path d="m381.79 215.343 2.787 8.578h9.02l-7.297 5.302 2.787 8.578-7.297-5.301-7.297 5.301 2.787-8.578-7.297-5.302h9.02z" fill="#fcd214"/><g fill="#000"><path d="m34.6847 23.4938v-1.6172h-9.7033v1.6172h3.8933v12.159h1.9367v-12.159z"/><path d="m44.5073 35.6528v-5.6502c0-2.2561-.6589-4.0131-3.3942-4.0131-1.3776 0-2.4158.7387-2.9149 1.6771h-.04v-5.79h-1.8967v13.7762h1.8967v-4.6919c0-1.8967.7387-3.3941 2.4757-3.3941s1.9567 1.3576 1.9567 2.7153v5.3707z"/><path d="m49.3759 23.0546c0-.6789-.5191-1.178-1.2379-1.178-.7387 0-1.2578.4991-1.2578 1.178 0 .6788.5191 1.1779 1.2578 1.1779.7188 0 1.2379-.4991 1.2379-1.1779zm-.2795 12.5982v-9.4836h-1.9167v9.4836z"/><path d="m58.2072 32.8776c0-1.2379-.7986-1.9965-1.8568-2.4358-.3993-.1597-.7587-.2795-1.2778-.4592-.9384-.2995-1.8568-.6389-1.8568-1.4175 0-.7787.599-1.178 1.5174-1.178s1.8368.4392 2.3959 1.0182l.7986-1.1779c-.599-.6389-1.5573-1.2379-3.2344-1.2379s-3.1945.9583-3.1945 2.7153c0 1.7969 1.3976 2.296 2.7951 2.7752.6389.2196 2.1364.5391 2.1364 1.5773s-.9384 1.3576-1.8169 1.3576-1.9966-.5191-2.7952-1.3576l-.9184 1.1181c.7986 1.0382 2.0964 1.697 3.6936 1.697 1.8369 0 3.6138-.9583 3.6138-2.9948z"/><path d="m66.3388 23.0546c0-.6789-.5191-1.178-1.2379-1.178-.7387 0-1.2578.4991-1.2578 1.178 0 .6788.5191 1.1779 1.2578 1.1779.7188 0 1.2379-.4991 1.2379-1.1779zm-.2795 12.5982v-9.4836h-1.9167v9.4836z"/><path d="m75.1701 32.8776c0-1.2379-.7986-1.9965-1.8568-2.4358-.3993-.1597-.7587-.2795-1.2778-.4592-.9384-.2995-1.8568-.6389-1.8568-1.4175 0-.7787.599-1.178 1.5174-1.178s1.8368.4392 2.3958 1.0182l.7987-1.1779c-.599-.6389-1.5573-1.2379-3.2345-1.2379-1.6771 0-3.1944.9583-3.1944 2.7153 0 1.7969 1.3976 2.296 2.7951 2.7752.6389.2196 2.1364.5391 2.1364 1.5773s-.9384 1.3576-1.8169 1.3576-1.9966-.5191-2.7952-1.3576l-.9184 1.1181c.7986 1.0382 2.0964 1.697 3.6936 1.697 1.8368 0 3.6138-.9583 3.6138-2.9948z"/><path d="m90.9485 30.901c0-2.7952-1.7969-4.9115-4.5721-4.9115-1.4975 0-2.6355.6189-3.3143 1.6571h-.04v-5.77h-1.8967v13.7762h1.8369v-1.4974h.0399c.7786 1.158 1.9566 1.717 3.3342 1.717 2.8152 0 4.6121-2.1562 4.6121-4.9714zm-1.9567-.0199c0 1.8967-1.118 3.3542-3.0148 3.3542-1.8967 0-3.0347-1.4575-3.0347-3.3542 0-1.8968 1.138-3.3343 3.0347-3.3343 1.8968 0 3.0148 1.4375 3.0148 3.3343z"/><path d="m100.717 26.1692-1.9762-.02-2.7952 7.3873-2.875-7.3673-1.9966-.02 3.8534 9.304-.4592 1.2578c-.2596.6988-.4592 1.1181-1.2379 1.1181-.4792 0-.9983-.2197-.9983-.2197l-.3793 1.5573s.7387.3395 1.7969.3395c1.0581 0 1.8368-.5591 2.4957-2.1963z"/><path d="m110.875 21.8766s-.54-.2196-1.638-.2196-1.856.5191-2.276 1.0382c-.399.4991-.639 1.2977-.639 2.5356v.9584h-1.357v1.5373h1.357v7.9263h1.897v-7.9263h2.256v-1.5373h-2.256v-1.0582c0-1.0782.2-2.0165 1.458-2.0165.539 0 1.078.1797 1.078.1797z"/><path d="m118.809 35.6528v-5.5105c0-2.7552-1.378-4.1528-4.153-4.1528-1.577 0-2.855.559-3.554.9583l.579 1.2778c.32-.1996 1.478-.8185 2.855-.8185 1.378 0 2.356.7187 2.356 2.1562v.3794l-2.535.0998c-2.196.0998-3.714 1.0382-3.714 2.895 0 1.8368 1.518 2.9349 3.275 2.9349 1.737 0 2.635-1.0182 3.014-1.4175l.02 1.1979zm-1.897-4.5521v2.0365c-.359.539-1.178 1.3776-2.415 1.3776-1.258 0-1.957-.7387-1.957-1.6372 0-.8984.619-1.5573 2.156-1.6372z"/><path d="m126.559 26.1492s-.359-.1597-.998-.1597c-1.018 0-1.877.559-2.336 1.6372h-.06l.02-1.4575h-1.916v9.4836h1.916v-4.7318c0-1.3776.42-3.1945 2.137-3.1945.519 0 .858.1198 1.038.1997h.08z"/><path d="m136.546 35.553-.12-1.5374s-.419.2197-.978.2197c-.539 0-.799-.1797-.979-.4792-.219-.3993-.239-.9384-.239-1.737v-4.2926h2.276v-1.5373h-2.276v-2.8351h-1.917v2.8351h-1.397v1.5373h1.397v4.3325c0 1.8568.12 3.8134 2.496 3.8134.659 0 1.238-.0998 1.737-.3194z"/><path d="m146.48 35.6528v-5.6502c0-2.2561-.659-4.0131-3.395-4.0131-1.377 0-2.415.7387-2.915 1.6771h-.039v-5.79h-1.897v13.7762h1.897v-4.6919c0-1.8967.738-3.3941 2.475-3.3941s1.957 1.3576 1.957 2.7153v5.3707z"/><path d="m157.737 30.5217c0-2.6554-1.857-4.5322-4.492-4.5322-2.636 0-4.812 1.9167-4.812 4.9115 0 3.0148 1.937 4.9714 4.752 4.9714 2.835 0 4.053-1.3976 4.173-1.4974l-.799-1.0981c-.219.1398-1.357 1.0981-3.134 1.0981-1.757 0-2.955-1.138-3.055-3.0148h7.307s.06-.4791.06-.8385zm-1.817-.4393h-5.53c.06-1.138.898-2.7153 2.795-2.7153 1.917 0 2.715 1.6572 2.735 2.7153z"/><path d="m173.54 30.901c0-2.7952-1.797-4.9115-4.572-4.9115-1.497 0-2.635.6189-3.314 1.6571h-.04v-5.77h-1.897v13.7762h1.837v-1.4974h.04c.779 1.158 1.957 1.717 3.334 1.717 2.815 0 4.612-2.1562 4.612-4.9714zm-1.956-.0199c0 1.8967-1.118 3.3542-3.015 3.3542s-3.035-1.4575-3.035-3.3542c0-1.8968 1.138-3.3343 3.035-3.3343s3.015 1.4375 3.015 3.3343z"/><path d="m184.195 30.5217c0-2.6554-1.856-4.5322-4.492-4.5322-2.635 0-4.812 1.9167-4.812 4.9115 0 3.0148 1.937 4.9714 4.752 4.9714 2.835 0 4.053-1.3976 4.173-1.4974l-.799-1.0981c-.219.1398-1.357 1.0981-3.134 1.0981-1.757 0-2.955-1.138-3.055-3.0148h7.307s.06-.4791.06-.8385zm-1.816-.4393h-5.531c.06-1.138.899-2.7153 2.795-2.7153 1.917 0 2.716 1.6572 2.736 2.7153z"/><path d="m192.487 32.8776c0-1.2379-.799-1.9965-1.857-2.4358-.399-.1597-.758-.2795-1.278-.4592-.938-.2995-1.856-.6389-1.856-1.4175 0-.7787.599-1.178 1.517-1.178s1.837.4392 2.396 1.0182l.798-1.1779c-.598-.6389-1.557-1.2379-3.234-1.2379s-3.194.9583-3.194 2.7153c0 1.7969 1.397 2.296 2.795 2.7752.639.2196 2.136.5391 2.136 1.5773s-.938 1.3576-1.817 1.3576c-.878 0-1.996-.5191-2.795-1.3576l-.918 1.1181c.798 1.0382 2.096 1.697 3.693 1.697 1.837 0 3.614-.9583 3.614-2.9948z"/><path d="m198.977 35.553-.12-1.5374s-.419.2197-.978.2197c-.539 0-.799-.1797-.978-.4792-.22-.3993-.24-.9384-.24-1.737v-4.2926h2.276v-1.5373h-2.276v-2.8351h-1.917v2.8351h-1.397v1.5373h1.397v4.3325c0 1.8568.12 3.8134 2.496 3.8134.659 0 1.238-.0998 1.737-.3194z"/><path d="m214.466 30.901c0-2.7952-1.797-4.9115-4.573-4.9115-1.497 0-2.635.6189-3.314 1.6571h-.04v-5.77h-1.896v13.7762h1.836v-1.4974h.04c.779 1.158 1.957 1.717 3.335 1.717 2.815 0 4.612-2.1562 4.612-4.9714zm-1.957-.0199c0 1.8967-1.118 3.3542-3.015 3.3542s-3.035-1.4575-3.035-3.3542c0-1.8968 1.138-3.3343 3.035-3.3343s3.015 1.4375 3.015 3.3343z"/><path d="m224.522 35.6528v-9.5036h-1.917v5.0912c0 1.5973-.679 3.0348-2.356 3.0348-1.697 0-1.976-1.2179-1.976-2.5157v-5.6103h-1.897v5.6902c0 2.3559.699 4.033 3.334 4.033 1.338 0 2.416-.6588 2.935-1.5772l.02 1.3576z"/><path d="m236.344 35.6528v-13.7762h-1.897v5.77h-.04c-.658-.9783-1.777-1.6571-3.314-1.6571-2.775 0-4.572 2.1163-4.572 4.9115 0 2.8152 1.797 4.9714 4.612 4.9714 1.378 0 2.556-.579 3.334-1.737h.04v1.5174zm-1.837-4.7717c0 1.8967-1.118 3.3542-3.015 3.3542-1.896 0-3.014-1.4575-3.014-3.3542 0-1.8968 1.118-3.3343 3.014-3.3343 1.897 0 3.015 1.4375 3.015 3.3343z"/><path d="m248.257 33.6563v-7.4871h-1.897l.02 1.4974h-.06c-.559-.8785-1.657-1.6771-3.314-1.6771-2.436 0-4.572 1.757-4.572 4.7718s2.136 4.7717 4.572 4.7717c1.597 0 2.676-.7387 3.314-1.6971h.04v.4792c0 2.2362-.898 3.6936-3.314 3.6936-1.417 0-2.895-.7586-3.394-1.1979l-.899 1.3377c.28.1997 1.897 1.4176 4.233 1.4176 2.356 0 3.534-.9584 4.233-1.8169.699-.8386 1.038-1.9966 1.038-4.0929zm-1.837-2.895c0 1.7969-1.058 3.2144-3.015 3.2144-1.936 0-3.014-1.4175-3.014-3.2144s1.078-3.2345 3.014-3.2345c1.957 0 3.015 1.4376 3.015 3.2345z"/><path d="m259.573 30.5217c0-2.6554-1.857-4.5322-4.492-4.5322-2.636 0-4.812 1.9167-4.812 4.9115 0 3.0148 1.937 4.9714 4.752 4.9714 2.835 0 4.053-1.3976 4.173-1.4974l-.799-1.0981c-.22.1398-1.358 1.0981-3.135 1.0981-1.757 0-2.954-1.138-3.054-3.0148h7.307s.06-.4791.06-.8385zm-1.817-.4393h-5.53c.06-1.138.898-2.7153 2.795-2.7153 1.917 0 2.715 1.6572 2.735 2.7153z"/><path d="m266.088 35.553-.12-1.5374s-.419.2197-.978.2197c-.539 0-.799-.1797-.979-.4792-.219-.3993-.239-.9384-.239-1.737v-4.2926h2.276v-1.5373h-2.276v-2.8351h-1.917v2.8351h-1.398v1.5373h1.398v4.3325c0 1.8568.12 3.8134 2.496 3.8134.659 0 1.238-.0998 1.737-.3194z"/><path d="m279.021 35.6528v-5.5105c0-2.7552-1.378-4.1528-4.153-4.1528-1.577 0-2.855.559-3.554.9583l.579 1.2778c.319-.1996 1.477-.8185 2.855-.8185s2.356.7187 2.356 2.1562v.3794l-2.536.0998c-2.196.0998-3.713 1.0382-3.713 2.895 0 1.8368 1.517 2.9349 3.274 2.9349 1.737 0 2.636-1.0182 3.015-1.4175l.02 1.1979zm-1.897-4.5521v2.0365c-.359.539-1.178 1.3776-2.416 1.3776-1.258 0-1.956-.7387-1.956-1.6372 0-.8984.618-1.5573 2.156-1.6372z"/><path d="m291.383 30.901c0-2.8151-1.777-4.9115-4.572-4.9115-1.398 0-2.536.559-3.374 1.6771h-.04v-1.4974h-1.837v13.1972h1.917v-5.211l.02.02c.679 1.0581 1.777 1.697 3.274 1.697 2.815 0 4.612-2.1562 4.612-4.9714zm-1.957-.0199c0 1.8967-1.118 3.3542-3.014 3.3542-1.897 0-3.015-1.4575-3.015-3.3542 0-1.8968 1.118-3.3343 3.015-3.3343 1.896 0 3.014 1.4375 3.014 3.3343z"/><path d="m303.277 30.901c0-2.8151-1.777-4.9115-4.572-4.9115-1.398 0-2.536.559-3.375 1.6771h-.04v-1.4974h-1.836v13.1972h1.916v-5.211l.02.02c.679 1.0581 1.777 1.697 3.275 1.697 2.815 0 4.612-2.1562 4.612-4.9714zm-1.957-.0199c0 1.8967-1.118 3.3542-3.015 3.3542s-3.015-1.4575-3.015-3.3542c0-1.8968 1.118-3.3343 3.015-3.3343s3.015 1.4375 3.015 3.3343z"/><path d="m311.381 35.6528v-13.7762h-1.937v13.7762z"/><path d="m317.591 21.8766h-1.957l-1.338 4.2726h1.518z"/><path d="m327.728 26.1692h-1.977l-2.795 7.1476-2.815-7.1476h-1.997l3.953 9.4836h1.677z"/><path d="m337.68 30.5217c0-2.6554-1.856-4.5322-4.492-4.5322-2.635 0-4.812 1.9167-4.812 4.9115 0 3.0148 1.937 4.9714 4.752 4.9714 2.835 0 4.053-1.3976 4.173-1.4974l-.799-1.0981c-.219.1398-1.357 1.0981-3.134 1.0981-1.757 0-2.955-1.138-3.055-3.0148h7.307s.06-.4791.06-.8385zm-1.817-.4393h-5.53c.06-1.138.898-2.7153 2.795-2.7153 1.917 0 2.715 1.6572 2.735 2.7153z"/><path d="m31.0709 47.5466s-.539-.2197-1.6371-.2197-1.8568.5191-2.2761 1.0382c-.3993.4992-.6389 1.2978-.6389 2.5357v.9583h-1.3577v1.5374h1.3577v7.9263h1.8967v-7.9263h2.2561v-1.5374h-2.2561v-1.0582c0-1.0781.1997-2.0165 1.4575-2.0165.5391 0 1.0781.1797 1.0781.1797z"/><path d="m41.003 56.6109c0-2.9349-2.1962-4.9514-5.0113-4.9514-2.8352 0-5.0314 2.0165-5.0314 4.9514 0 2.9549 2.1962 4.9315 5.0314 4.9315 2.8151 0 5.0113-1.9766 5.0113-4.9315zm-1.9367-.0599c0 1.8768-1.1779 3.3542-3.0746 3.3542-1.9167 0-3.0947-1.4774-3.0947-3.3542 0-1.8568 1.178-3.3342 3.0947-3.3342 1.8967 0 3.0746 1.4774 3.0746 3.3342z"/><path d="m51.0714 61.3228v-9.5036h-1.9167v5.0912c0 1.5972-.6788 3.0347-2.3559 3.0347-1.6971 0-1.9766-1.2179-1.9766-2.5156v-5.6103h-1.8967v5.6901c0 2.356.6988 4.0331 3.3342 4.0331 1.3377 0 2.4158-.6589 2.9349-1.5773l.02 1.3577z"/><path d="m61.9553 61.3228v-5.6103c0-2.2761-.6988-4.053-3.3942-4.053-1.3776 0-2.3959.7387-2.895 1.6771h-.0599l.02-1.4975h-1.9167v9.4837h1.9167v-4.7718c0-1.8169.6588-3.3143 2.4358-3.3143 1.697 0 1.9766 1.198 1.9766 2.7952v5.2909z"/><path d="m73.6953 61.3228v-13.7762h-1.8967v5.77h-.04c-.6588-.9783-1.7769-1.6571-3.3142-1.6571-2.7753 0-4.5722 2.1163-4.5722 4.9115 0 2.8151 1.7969 4.9714 4.6121 4.9714 1.3776 0 2.5556-.579 3.3342-1.737h.04v1.5174zm-1.8368-4.7718c0 1.8967-1.1181 3.3542-3.0148 3.3542-1.8968 0-3.0148-1.4575-3.0148-3.3542s1.118-3.3342 3.0148-3.3342c1.8967 0 3.0148 1.4375 3.0148 3.3342z"/><path d="m79.439 60.2846c0-.7787-.5591-1.2579-1.3178-1.2579-.7786 0-1.3377.4792-1.3377 1.2579 0 .7586.5591 1.2378 1.3377 1.2378.7587 0 1.3178-.4792 1.3178-1.2378z"/><path d="m94.9322 49.1638v-1.6172h-9.7032v1.6172h3.8932v12.159h1.9367v-12.159z"/><path d="m104.755 61.3228v-5.6503c0-2.2561-.659-4.013-3.394-4.013-1.378 0-2.4162.7387-2.9153 1.6771h-.04v-5.79h-1.8967v13.7762h1.8967v-4.6919c0-1.8968.7388-3.3942 2.4753-3.3942 1.737 0 1.957 1.3577 1.957 2.7153v5.3708z"/><path d="m116.012 56.1916c0-2.6554-1.856-4.5321-4.492-4.5321-2.635 0-4.812 1.9166-4.812 4.9115 0 3.0148 1.937 4.9714 4.752 4.9714 2.835 0 4.053-1.3976 4.173-1.4974l-.799-1.0981c-.219.1397-1.357 1.0981-3.134 1.0981-1.757 0-2.955-1.1381-3.055-3.0148h7.307s.06-.4792.06-.8386zm-1.817-.4392h-5.53c.06-1.1381.898-2.7153 2.795-2.7153 1.917 0 2.716 1.6571 2.735 2.7153z"/><path d="m129.26 61.3228v-5.5105c0-2.7553-1.378-4.1528-4.153-4.1528-1.577 0-2.855.559-3.554.9583l.579 1.2778c.32-.1997 1.478-.8186 2.855-.8186 1.378 0 2.356.7188 2.356 2.1563v.3793l-2.536.0999c-2.196.0998-3.713 1.0382-3.713 2.895 0 1.8368 1.517 2.9349 3.274 2.9349 1.737 0 2.636-1.0183 3.015-1.4176l.02 1.198zm-1.897-4.5522v2.0365c-.359.5391-1.178 1.3776-2.416 1.3776-1.258 0-1.956-.7387-1.956-1.6371 0-.8985.619-1.5574 2.156-1.6372z"/><path d="m141.642 56.571c0-2.7952-1.797-4.9115-4.572-4.9115-1.497 0-2.635.6189-3.314 1.6571h-.04v-5.77h-1.897v13.7762h1.837v-1.4975h.04c.779 1.158 1.957 1.7171 3.334 1.7171 2.815 0 4.612-2.1563 4.612-4.9714zm-1.956-.02c0 1.8967-1.119 3.3542-3.015 3.3542-1.897 0-3.035-1.4575-3.035-3.3542s1.138-3.3342 3.035-3.3342c1.896 0 3.015 1.4375 3.015 3.3342z"/><path d="m145.908 48.7245c0-.6788-.519-1.1779-1.237-1.1779-.739 0-1.258.4991-1.258 1.1779s.519 1.178 1.258 1.178c.718 0 1.237-.4992 1.237-1.178zm-.279 12.5983v-9.4837h-1.917v9.4837z"/><path d="m150.347 61.3228v-13.7762h-1.896v13.7762z"/><path d="m155.365 48.7245c0-.6788-.519-1.1779-1.238-1.1779-.739 0-1.258.4991-1.258 1.1779s.519 1.178 1.258 1.178c.719 0 1.238-.4992 1.238-1.178zm-.28 12.5983v-9.4837h-1.916v9.4837z"/><path d="m162.419 61.2229-.12-1.5373s-.419.2196-.978.2196c-.539 0-.799-.1797-.978-.4792-.22-.3993-.24-.9383-.24-1.737v-4.2925h2.276v-1.5374h-2.276v-2.8351h-1.917v2.8351h-1.397v1.5374h1.397v4.3325c0 1.8568.12 3.8134 2.496 3.8134.659 0 1.238-.0998 1.737-.3195z"/><path d="m172.293 51.8391-1.977-.0199-2.795 7.3872-2.875-7.3673-1.996-.0199 3.853 9.3039-.459 1.2578c-.26.6988-.459 1.1181-1.238 1.1181-.479 0-.998-.2196-.998-.2196l-.38 1.5573s.739.3394 1.797.3394 1.837-.559 2.496-2.1962z"/><path d="m182.45 47.5466s-.539-.2197-1.637-.2197-1.857.5191-2.276 1.0382c-.399.4992-.639 1.2978-.639 2.5357v.9583h-1.358v1.5374h1.358v7.9263h1.897v-7.9263h2.256v-1.5374h-2.256v-1.0582c0-1.0781.199-2.0165 1.457-2.0165.539 0 1.078.1797 1.078.1797z"/><path d="m192.382 56.6109c0-2.9349-2.196-4.9514-5.011-4.9514-2.835 0-5.031 2.0165-5.031 4.9514 0 2.9549 2.196 4.9315 5.031 4.9315 2.815 0 5.011-1.9766 5.011-4.9315zm-1.936-.0599c0 1.8768-1.178 3.3542-3.075 3.3542-1.917 0-3.095-1.4774-3.095-3.3542 0-1.8568 1.178-3.3342 3.095-3.3342 1.897 0 3.075 1.4774 3.075 3.3342z"/><path d="m199.675 51.8192s-.359-.1597-.998-.1597c-1.018 0-1.877.559-2.336 1.6371h-.06l.02-1.4575h-1.916v9.4837h1.916v-4.7319c0-1.3776.419-3.1944 2.137-3.1944.519 0 .858.1197 1.038.1996h.08z"/><path d="m214.953 56.571c0-2.8152-1.777-4.9115-4.573-4.9115-1.397 0-2.535.559-3.374 1.6771h-.04v-1.4975h-1.836v13.1972h1.916v-5.211l.02.02c.679 1.0582 1.777 1.6971 3.275 1.6971 2.815 0 4.612-2.1563 4.612-4.9714zm-1.957-.02c0 1.8967-1.118 3.3542-3.015 3.3542s-3.015-1.4575-3.015-3.3542 1.118-3.3342 3.015-3.3342 3.015 1.4375 3.015 3.3342z"/><path d="m224.31 61.3228v-5.5105c0-2.7553-1.377-4.1528-4.152-4.1528-1.578 0-2.855.559-3.554.9583l.579 1.2778c.319-.1997 1.477-.8186 2.855-.8186 1.377 0 2.356.7188 2.356 2.1563v.3793l-2.536.0999c-2.196.0998-3.713 1.0382-3.713 2.895 0 1.8368 1.517 2.9349 3.274 2.9349 1.737 0 2.635-1.0183 3.015-1.4176l.02 1.198zm-1.896-4.5522v2.0365c-.36.5391-1.178 1.3776-2.416 1.3776-1.258 0-1.957-.7387-1.957-1.6371 0-.8985.619-1.5574 2.157-1.6372z"/><path d="m234.822 51.8391-1.977-.0199-2.795 7.3872-2.875-7.3673-1.997-.0199 3.854 9.3039-.459 1.2578c-.26.6988-.46 1.1181-1.238 1.1181-.48 0-.999-.2196-.999-.2196l-.379 1.5573s.739.3394 1.797.3394 1.837-.559 2.496-2.1962z"/><path d="m243.978 60.1049-.679-1.3976s-1.038 1.1979-2.895 1.1979c-1.837 0-3.075-1.3776-3.075-3.3742 0-1.9965 1.398-3.2743 3.075-3.2743s2.515.8385 2.835 1.158l.679-1.3976c-.1-.1198-1.138-1.3576-3.674-1.3576-2.516 0-4.852 1.8767-4.852 4.9314 0 3.0348 2.237 4.9515 4.792 4.9515 2.536 0 3.514-1.158 3.794-1.4375z"/><path d="m253.853 61.3228v-5.6503c0-2.2561-.659-4.013-3.394-4.013-1.378 0-2.416.7387-2.915 1.6771h-.04v-5.79h-1.897v13.7762h1.897v-4.6919c0-1.8968.738-3.3942 2.475-3.3942s1.957 1.3577 1.957 2.7153v5.3708z"/><path d="m265.11 56.1916c0-2.6554-1.856-4.5321-4.492-4.5321-2.635 0-4.812 1.9166-4.812 4.9115 0 3.0148 1.937 4.9714 4.752 4.9714 2.835 0 4.053-1.3976 4.173-1.4974l-.799-1.0981c-.219.1397-1.357 1.0981-3.134 1.0981-1.757 0-2.955-1.1381-3.055-3.0148h7.307s.06-.4792.06-.8386zm-1.817-.4392h-5.53c.06-1.1381.898-2.7153 2.795-2.7153 1.917 0 2.715 1.6571 2.735 2.7153z"/><path d="m275.057 60.1049-.679-1.3976s-1.038 1.1979-2.895 1.1979c-1.837 0-3.075-1.3776-3.075-3.3742 0-1.9965 1.398-3.2743 3.075-3.2743s2.516.8385 2.835 1.158l.679-1.3976c-.1-.1198-1.138-1.3576-3.674-1.3576-2.515 0-4.851 1.8767-4.851 4.9314 0 3.0348 2.236 4.9515 4.791 4.9515 2.536 0 3.514-1.158 3.794-1.4375z"/><path d="m285.171 61.3228-4.192-5.9098 3.713-3.5739h-2.236l-3.873 3.7935v-8.086h-1.897v13.7762h1.897v-3.5539l1.098-1.0382 3.254 4.5921z"/><path d="m300.196 56.571c0-2.8152-1.777-4.9115-4.572-4.9115-1.398 0-2.536.559-3.374 1.6771h-.04v-1.4975h-1.837v13.1972h1.917v-5.211l.02.02c.678 1.0582 1.777 1.6971 3.274 1.6971 2.815 0 4.612-2.1563 4.612-4.9714zm-1.957-.02c0 1.8967-1.118 3.3542-3.014 3.3542-1.897 0-3.015-1.4575-3.015-3.3542s1.118-3.3342 3.015-3.3342c1.896 0 3.014 1.4375 3.014 3.3342z"/><path d="m304.183 61.3228v-13.7762h-1.897v13.7762z"/><path d="m314.292 61.3228v-5.5105c0-2.7553-1.378-4.1528-4.153-4.1528-1.577 0-2.855.559-3.554.9583l.579 1.2778c.32-.1997 1.478-.8186 2.855-.8186 1.378 0 2.356.7188 2.356 2.1563v.3793l-2.536.0999c-2.196.0998-3.713 1.0382-3.713 2.895 0 1.8368 1.517 2.9349 3.274 2.9349 1.737 0 2.636-1.0183 3.015-1.4176l.02 1.198zm-1.897-4.5522v2.0365c-.359.5391-1.178 1.3776-2.416 1.3776-1.258 0-1.956-.7387-1.956-1.6371 0-.8985.619-1.5574 2.156-1.6372z"/><path d="m324.997 61.3228v-5.6103c0-2.2761-.699-4.053-3.394-4.053-1.378 0-2.396.7387-2.895 1.6771h-.06l.02-1.4975h-1.917v9.4837h1.917v-4.7718c0-1.8169.659-3.3143 2.436-3.3143 1.697 0 1.976 1.198 1.976 2.7952v5.2909z"/><path d="m335.799 61.3228v-5.6103c0-2.2761-.699-4.053-3.394-4.053-1.378 0-2.396.7387-2.895 1.6771h-.06l.02-1.4975h-1.917v9.4837h1.917v-4.7718c0-1.8169.659-3.3143 2.435-3.3143 1.698 0 1.977 1.198 1.977 2.7952v5.2909z"/><path d="m340.631 48.7245c0-.6788-.519-1.1779-1.238-1.1779-.739 0-1.258.4991-1.258 1.1779s.519 1.178 1.258 1.178c.719 0 1.238-.4992 1.238-1.178zm-.28 12.5983v-9.4837h-1.917v9.4837z"/><path d="m351.319 61.3228v-5.6103c0-2.2761-.699-4.053-3.394-4.053-1.378 0-2.396.7387-2.895 1.6771h-.06l.02-1.4975h-1.917v9.4837h1.917v-4.7718c0-1.8169.659-3.3143 2.436-3.3143 1.697 0 1.976 1.198 1.976 2.7952v5.2909z"/><path d="m363.059 59.3262v-7.4871h-1.897l.02 1.4975h-.06c-.559-.8785-1.657-1.6771-3.314-1.6771-2.436 0-4.572 1.7569-4.572 4.7717s2.136 4.7718 4.572 4.7718c1.597 0 2.675-.7388 3.314-1.6971h.04v.4792c0 2.2361-.898 3.6936-3.314 3.6936-1.418 0-2.895-.7587-3.394-1.1979l-.899 1.3377c.28.1996 1.897 1.4175 4.233 1.4175 2.356 0 3.534-.9583 4.233-1.8169.698-.8385 1.038-1.9965 1.038-4.0929zm-1.837-2.895c0 1.7969-1.058 3.2145-3.015 3.2145-1.936 0-3.015-1.4176-3.015-3.2145s1.079-3.2344 3.015-3.2344c1.957 0 3.015 1.4375 3.015 3.2344z"/><path d="m28.4355 74.3945c0-.6789-.5191-1.178-1.2379-1.178-.7387 0-1.2578.4991-1.2578 1.178 0 .6788.5191 1.1779 1.2578 1.1779.7188 0 1.2379-.4991 1.2379-1.1779zm-.2795 12.5982v-9.4836h-1.9167v9.4836z"/><path d="m37.2668 84.2175c0-1.2379-.7986-1.9965-1.8568-2.4358-.3993-.1597-.7587-.2795-1.2778-.4592-.9384-.2995-1.8568-.6389-1.8568-1.4176 0-.7786.599-1.1779 1.5174-1.1779s1.8368.4392 2.3959 1.0182l.7986-1.1779c-.599-.6389-1.5573-1.2379-3.2344-1.2379s-3.1945.9583-3.1945 2.7153c0 1.7969 1.3976 2.296 2.7952 2.7752.6388.2196 2.1363.5391 2.1363 1.5773s-.9384 1.3576-1.8169 1.3576-1.9966-.5191-2.7952-1.3576l-.9184 1.1181c.7986 1.0382 2.0964 1.697 3.6936 1.697 1.8369 0 3.6138-.9583 3.6138-2.9948z"/><path d="m53.0252 82.2409c0-2.8151-1.7769-4.9115-4.5721-4.9115-1.3976 0-2.5356.559-3.3742 1.6771h-.0399v-1.4974h-1.8368v13.1972h1.9167v-5.211l.0199.02c.6789 1.0581 1.777 1.697 3.2744 1.697 2.8151 0 4.612-2.1562 4.612-4.9714zm-1.9566-.0199c0 1.8967-1.1181 3.3542-3.0148 3.3542s-3.0148-1.4575-3.0148-3.3542c0-1.8968 1.1181-3.3343 3.0148-3.3343s3.0148 1.4375 3.0148 3.3343z"/><path d="m63.6809 81.8616c0-2.6554-1.8568-4.5322-4.4923-4.5322-2.6354 0-4.8117 1.9167-4.8117 4.9115 0 3.0148 1.9367 4.9714 4.7518 4.9714 2.8351 0 4.053-1.3976 4.1728-1.4974l-.7986-1.0981c-.2196.1398-1.3577 1.0981-3.1346 1.0981-1.757 0-2.9549-1.138-3.0547-3.0148h7.3074s.0599-.4791.0599-.8385zm-1.8169-.4393h-5.5304c.0598-1.138.8984-2.7153 2.7951-2.7153 1.9167 0 2.7153 1.6572 2.7353 2.7153z"/><path d="m70.8744 77.4891s-.3594-.1597-.9983-.1597c-1.0182 0-1.8768.559-2.336 1.6372h-.0599l.02-1.4575h-1.9167v9.4836h1.9167v-4.7318c0-1.3776.4193-3.1945 2.1363-3.1945.5191 0 .8585.1198 1.0382.1997h.0799z"/><path d="m77.1827 73.2165s-.5391-.2196-1.6372-.2196-1.8568.5191-2.276 1.0382c-.3994.4991-.6389 1.2977-.6389 2.5356v.9584h-1.3577v1.5373h1.3577v7.9263h1.8967v-7.9263h2.2561v-1.5373h-2.2561v-1.0582c0-1.0782.1996-2.0165 1.4575-2.0165.539 0 1.0781.1797 1.0781.1797z"/><path d="m86.376 81.8616c0-2.6554-1.8568-4.5322-4.4922-4.5322-2.6355 0-4.8117 1.9167-4.8117 4.9115 0 3.0148 1.9367 4.9714 4.7518 4.9714 2.8351 0 4.053-1.3976 4.1728-1.4974l-.7986-1.0981c-.2196.1398-1.3577 1.0981-3.1346 1.0981-1.757 0-2.9549-1.138-3.0547-3.0148h7.3073s.0599-.4791.0599-.8385zm-1.8168-.4393h-5.5305c.0599-1.138.8985-2.7153 2.7952-2.7153 1.9167 0 2.7153 1.6572 2.7353 2.7153z"/><path d="m96.3225 85.7748-.6789-1.3976s-1.0382 1.198-2.895 1.198c-1.8368 0-3.0747-1.3777-3.0747-3.3742 0-1.9966 1.3976-3.2744 3.0747-3.2744s2.5157.8386 2.8351 1.158l.6789-1.3975c-.0999-.1198-1.1381-1.3577-3.6737-1.3577-2.5157 0-4.8516 1.8768-4.8516 4.9315 0 3.0347 2.2361 4.9514 4.7917 4.9514 2.5356 0 3.5139-1.158 3.7935-1.4375z"/><path d="m102.464 86.8929-.12-1.5374s-.419.2197-.978.2197c-.539 0-.799-.1797-.978-.4792-.22-.3993-.24-.9384-.24-1.737v-4.2926h2.276v-1.5373h-2.276v-2.8351h-1.9167v2.8351h-1.3975v1.5373h1.3975v4.3325c0 1.8568.1198 3.8134 2.4957 3.8134.659 0 1.238-.0998 1.737-.3194z"/><path d="m107.067 85.9545c0-.7787-.559-1.2578-1.318-1.2578-.778 0-1.337.4791-1.337 1.2578 0 .7587.559 1.2379 1.337 1.2379.759 0 1.318-.4792 1.318-1.2379z"/><path d="m116.171 86.9927v-13.7762h-1.936v13.7762z"/><path d="m123.619 86.8929-.12-1.5374s-.419.2197-.978.2197c-.539 0-.799-.1797-.979-.4792-.219-.3993-.239-.9384-.239-1.737v-4.2926h2.276v-1.5373h-2.276v-2.8351h-1.917v2.8351h-1.397v1.5373h1.397v4.3325c0 1.8568.12 3.8134 2.496 3.8134.659 0 1.238-.0998 1.737-.3194z"/><path d="m137.53 86.9927v-5.6502c0-2.2561-.659-4.0131-3.394-4.0131-1.378 0-2.416.7387-2.915 1.6771h-.04v-5.79h-1.897v13.7762h1.897v-4.6919c0-1.8967.739-3.3941 2.476-3.3941s1.957 1.3576 1.957 2.7153v5.3707z"/><path d="m148.788 81.8616c0-2.6554-1.857-4.5322-4.492-4.5322-2.636 0-4.812 1.9167-4.812 4.9115 0 3.0148 1.937 4.9714 4.752 4.9714 2.835 0 4.053-1.3976 4.172-1.4974l-.798-1.0981c-.22.1398-1.358 1.0981-3.135 1.0981-1.757 0-2.955-1.138-3.054-3.0148h7.307s.06-.4791.06-.8385zm-1.817-.4393h-5.531c.06-1.138.899-2.7153 2.796-2.7153 1.916 0 2.715 1.6572 2.735 2.7153z"/><path d="m152.687 86.9927v-13.7762h-1.897v13.7762z"/><path d="m165.331 82.2409c0-2.8151-1.777-4.9115-4.572-4.9115-1.397 0-2.535.559-3.374 1.6771h-.04v-1.4974h-1.837v13.1972h1.917v-5.211l.02.02c.679 1.0581 1.777 1.697 3.274 1.697 2.815 0 4.612-2.1562 4.612-4.9714zm-1.956-.0199c0 1.8967-1.118 3.3542-3.015 3.3542s-3.015-1.4575-3.015-3.3542c0-1.8968 1.118-3.3343 3.015-3.3343s3.015 1.4375 3.015 3.3343z"/><path d="m173.711 84.2175c0-1.2379-.799-1.9965-1.857-2.4358-.399-.1597-.759-.2795-1.278-.4592-.938-.2995-1.857-.6389-1.857-1.4176 0-.7786.599-1.1779 1.518-1.1779.918 0 1.837.4392 2.396 1.0182l.798-1.1779c-.599-.6389-1.557-1.2379-3.234-1.2379s-3.195.9583-3.195 2.7153c0 1.7969 1.398 2.296 2.796 2.7752.638.2196 2.136.5391 2.136 1.5773s-.938 1.3576-1.817 1.3576c-.878 0-1.997-.5191-2.795-1.3576l-.919 1.1181c.799 1.0382 2.097 1.697 3.694 1.697 1.837 0 3.614-.9583 3.614-2.9948z"/><path d="m193.303 86.9927v-5.7501c0-2.0564-.679-3.9132-3.215-3.9132-1.338 0-2.376.6788-3.015 1.8768-.439-1.2379-1.417-1.8768-2.815-1.8768-1.258 0-2.296.7986-2.735 1.6771h-.06l.02-1.4974h-1.917v9.4836h1.917v-4.9315c0-1.697.759-3.1545 2.276-3.1545 1.378 0 1.717 1.158 1.717 2.5556v5.5304h1.917v-4.9315c0-1.697.759-3.1545 2.276-3.1545 1.537 0 1.737 1.4575 1.737 2.5556v5.5304z"/><path d="m204.531 81.8616c0-2.6554-1.856-4.5322-4.492-4.5322-2.635 0-4.812 1.9167-4.812 4.9115 0 3.0148 1.937 4.9714 4.752 4.9714 2.835 0 4.053-1.3976 4.173-1.4974l-.799-1.0981c-.219.1398-1.357 1.0981-3.134 1.0981-1.757 0-2.955-1.138-3.055-3.0148h7.307s.06-.4791.06-.8385zm-1.817-.4393h-5.53c.06-1.138.898-2.7153 2.795-2.7153 1.917 0 2.716 1.6572 2.735 2.7153z"/><path d="m215.024 86.8929-.12-1.5374s-.42.2197-.979.2197c-.539 0-.798-.1797-.978-.4792-.219-.3993-.239-.9384-.239-1.737v-4.2926h2.276v-1.5373h-2.276v-2.8351h-1.917v2.8351h-1.398v1.5373h1.398v4.3325c0 1.8568.12 3.8134 2.496 3.8134.658 0 1.237-.0998 1.737-.3194z"/><path d="m221.903 77.4891s-.36-.1597-.999-.1597c-1.018 0-1.876.559-2.336 1.6372h-.06l.02-1.4575h-1.916v9.4836h1.916v-4.7318c0-1.3776.42-3.1945 2.137-3.1945.519 0 .858.1198 1.038.1997h.08z"/><path d="m231.867 81.8616c0-2.6554-1.857-4.5322-4.492-4.5322-2.636 0-4.812 1.9167-4.812 4.9115 0 3.0148 1.937 4.9714 4.752 4.9714 2.835 0 4.053-1.3976 4.173-1.4974l-.799-1.0981c-.22.1398-1.358 1.0981-3.135 1.0981-1.757 0-2.954-1.138-3.054-3.0148h7.307s.06-.4791.06-.8385zm-1.817-.4393h-5.53c.06-1.138.898-2.7153 2.795-2.7153 1.917 0 2.715 1.6572 2.735 2.7153z"/><path d="m247.506 86.9927v-5.7501c0-2.0564-.679-3.9132-3.215-3.9132-1.337 0-2.375.6788-3.014 1.8768-.44-1.2379-1.418-1.8768-2.815-1.8768-1.258 0-2.297.7986-2.736 1.6771h-.06l.02-1.4974h-1.916v9.4836h1.916v-4.9315c0-1.697.759-3.1545 2.276-3.1545 1.378 0 1.717 1.158 1.717 2.5556v5.5304h1.917v-4.9315c0-1.697.759-3.1545 2.276-3.1545 1.538 0 1.737 1.4575 1.737 2.5556v5.5304z"/><path d="m258.735 81.8616c0-2.6554-1.857-4.5322-4.493-4.5322-2.635 0-4.811 1.9167-4.811 4.9115 0 3.0148 1.936 4.9714 4.751 4.9714 2.836 0 4.053-1.3976 4.173-1.4974l-.798-1.0981c-.22.1398-1.358 1.0981-3.135 1.0981-1.757 0-2.955-1.138-3.055-3.0148h7.308s.06-.4791.06-.8385zm-1.817-.4393h-5.531c.06-1.138.899-2.7153 2.795-2.7153 1.917 0 2.716 1.6572 2.736 2.7153z"/><path d="m268.883 86.9927v-5.6103c0-2.2761-.699-4.053-3.394-4.053-1.378 0-2.396.7387-2.895 1.6771h-.06l.02-1.4974h-1.917v9.4836h1.917v-4.7717c0-1.8169.659-3.3143 2.436-3.3143 1.697 0 1.976 1.1979 1.976 2.7951v5.2909z"/><path d="m280.623 86.9927v-13.7762h-1.897v5.77h-.04c-.658-.9783-1.777-1.6571-3.314-1.6571-2.775 0-4.572 2.1163-4.572 4.9115 0 2.8152 1.797 4.9714 4.612 4.9714 1.378 0 2.556-.579 3.334-1.737h.04v1.5174zm-1.837-4.7717c0 1.8967-1.118 3.3542-3.015 3.3542-1.896 0-3.014-1.4575-3.014-3.3542 0-1.8968 1.118-3.3343 3.014-3.3343 1.897 0 3.015 1.4375 3.015 3.3343z"/><path d="m292.756 82.2808c0-2.9349-2.197-4.9514-5.012-4.9514-2.835 0-5.031 2.0165-5.031 4.9514 0 2.9549 2.196 4.9315 5.031 4.9315 2.815 0 5.012-1.9766 5.012-4.9315zm-1.937-.0598c0 1.8767-1.178 3.3542-3.075 3.3542-1.916 0-3.094-1.4775-3.094-3.3542 0-1.8568 1.178-3.3343 3.094-3.3343 1.897 0 3.075 1.4775 3.075 3.3343z"/><path d="m302.824 86.9927v-9.5036h-1.917v5.0912c0 1.5973-.678 3.0348-2.356 3.0348-1.697 0-1.976-1.2179-1.976-2.5157v-5.6103h-1.897v5.6902c0 2.3559.699 4.033 3.334 4.033 1.338 0 2.416-.6588 2.935-1.5772l.02 1.3576z"/><path d="m311.851 84.2175c0-1.2379-.798-1.9965-1.857-2.4358-.399-.1597-.758-.2795-1.277-.4592-.939-.2995-1.857-.6389-1.857-1.4176 0-.7786.599-1.1779 1.517-1.1779.919 0 1.837.4392 2.396 1.0182l.799-1.1779c-.599-.6389-1.558-1.2379-3.235-1.2379s-3.194.9583-3.194 2.7153c0 1.7969 1.397 2.296 2.795 2.7752.639.2196 2.136.5391 2.136 1.5773s-.938 1.3576-1.817 1.3576c-.878 0-1.996-.5191-2.795-1.3576l-.918 1.1181c.798 1.0382 2.096 1.697 3.693 1.697 1.837 0 3.614-.9583 3.614-2.9948z"/><path d="m315.726 86.9927v-13.7762h-1.897v13.7762z"/><path d="m326.753 77.5091-1.977-.02-2.795 7.3873-2.875-7.3673-1.997-.02 3.854 9.304-.459 1.2578c-.26.6988-.46 1.1181-1.238 1.1181-.479 0-.999-.2197-.999-.2197l-.379 1.5573s.739.3395 1.797.3395 1.837-.5591 2.496-2.1963z"/><path d="m336.61 86.8929-.119-1.5374s-.42.2197-.979.2197c-.539 0-.798-.1797-.978-.4792-.22-.3993-.24-.9384-.24-1.737v-4.2926h2.277v-1.5373h-2.277v-2.8351h-1.916v2.8351h-1.398v1.5373h1.398v4.3325c0 1.8568.12 3.8134 2.495 3.8134.659 0 1.238-.0998 1.737-.3194z"/><path d="m347.602 82.2808c0-2.9349-2.196-4.9514-5.011-4.9514-2.835 0-5.031 2.0165-5.031 4.9514 0 2.9549 2.196 4.9315 5.031 4.9315 2.815 0 5.011-1.9766 5.011-4.9315zm-1.936-.0598c0 1.8767-1.178 3.3542-3.075 3.3542-1.917 0-3.095-1.4775-3.095-3.3542 0-1.8568 1.178-3.3343 3.095-3.3343 1.897 0 3.075 1.4775 3.075 3.3343z"/><path d="m34.7446 112.663-4.1928-5.91 3.7136-3.574h-2.2361l-3.8733 3.793v-8.0855h-1.8968v13.7765h1.8968v-3.554l1.0981-1.038 3.2543 4.592z"/><path d="m44.5537 107.532c0-2.656-1.8568-4.533-4.4922-4.533-2.6355 0-4.8117 1.917-4.8117 4.912 0 3.015 1.9367 4.971 4.7518 4.971 2.8351 0 4.053-1.397 4.1728-1.497l-.7986-1.098c-.2196.14-1.3577 1.098-3.1346 1.098-1.757 0-2.9549-1.138-3.0547-3.015h7.3073s.0599-.479.0599-.838zm-1.8168-.44h-5.5305c.0599-1.138.8985-2.715 2.7952-2.715 1.9167 0 2.7153 1.657 2.7353 2.715z"/><path d="m55.2189 107.532c0-2.656-1.8568-4.533-4.4922-4.533-2.6355 0-4.8117 1.917-4.8117 4.912 0 3.015 1.9366 4.971 4.7518 4.971 2.8351 0 4.053-1.397 4.1728-1.497l-.7987-1.098c-.2196.14-1.3576 1.098-3.1345 1.098-1.757 0-2.9549-1.138-3.0548-3.015h7.3074s.0599-.479.0599-.838zm-1.8168-.44h-5.5305c.0599-1.138.8985-2.715 2.7952-2.715 1.9167 0 2.7153 1.657 2.7353 2.715z"/><path d="m67.0245 107.911c0-2.815-1.777-4.912-4.5721-4.912-1.3976 0-2.5357.559-3.3742 1.677h-.0399v-1.497h-1.8369v13.197h1.9167v-5.211l.02.02c.6788 1.058 1.7769 1.697 3.2743 1.697 2.8152 0 4.6121-2.156 4.6121-4.971zm-1.9567-.02c0 1.897-1.118 3.354-3.0148 3.354-1.8967 0-3.0147-1.457-3.0147-3.354s1.118-3.334 3.0147-3.334c1.8968 0 3.0148 1.437 3.0148 3.334z"/><path d="m77.9041 98.8865s-.5391-.2197-1.6372-.2197-1.8568.5191-2.276 1.0382c-.3993.499-.6389 1.298-.6389 2.536v.958h-1.3577v1.537h1.3577v7.927h1.8967v-7.927h2.2561v-1.537h-2.2561v-1.058c0-1.078.1997-2.017 1.4575-2.017.539 0 1.0781.18 1.0781.18z"/><path d="m83.8598 103.159s-.3594-.16-.9983-.16c-1.0183 0-1.8768.559-2.336 1.638h-.0599l.02-1.458h-1.9167v9.484h1.9167v-4.732c0-1.378.4193-3.195 2.1363-3.195.5191 0 .8585.12 1.0382.2h.0799z"/><path d="m94.5628 107.951c0-2.935-2.1962-4.952-5.0113-4.952-2.8351 0-5.0313 2.017-5.0313 4.952 0 2.955 2.1962 4.931 5.0313 4.931 2.8151 0 5.0113-1.976 5.0113-4.931zm-1.9366-.06c0 1.877-1.178 3.354-3.0747 3.354-1.9167 0-3.0947-1.477-3.0947-3.354 0-1.857 1.178-3.334 3.0947-3.334 1.8967 0 3.0747 1.477 3.0747 3.334z"/><path d="m110.301 112.663v-5.75c0-2.057-.678-3.914-3.214-3.914-1.338 0-2.376.679-3.015 1.877-.439-1.238-1.417-1.877-2.815-1.877-1.2578 0-2.296.799-2.7352 1.677h-.0599l.02-1.497h-1.9167v9.484h1.9167v-4.932c0-1.697.7586-3.154 2.2761-3.154 1.378 0 1.717 1.158 1.717 2.555v5.531h1.917v-4.932c0-1.697.758-3.154 2.276-3.154 1.537 0 1.737 1.457 1.737 2.555v5.531z"/><path d="m126.246 107.951c0-2.935-2.196-4.952-5.011-4.952-2.835 0-5.031 2.017-5.031 4.952 0 2.955 2.196 4.931 5.031 4.931 2.815 0 5.011-1.976 5.011-4.931zm-1.936-.06c0 1.877-1.178 3.354-3.075 3.354-1.917 0-3.095-1.477-3.095-3.354 0-1.857 1.178-3.334 3.095-3.334 1.897 0 3.075 1.477 3.075 3.334z"/><path d="m136.476 103.179h-1.977l-2.795 7.148-2.815-7.148h-1.997l3.954 9.484h1.677z"/><path d="m146.429 107.532c0-2.656-1.857-4.533-4.493-4.533-2.635 0-4.811 1.917-4.811 4.912 0 3.015 1.936 4.971 4.751 4.971 2.836 0 4.053-1.397 4.173-1.497l-.798-1.098c-.22.14-1.358 1.098-3.135 1.098-1.757 0-2.955-1.138-3.055-3.015h7.308s.06-.479.06-.838zm-1.817-.44h-5.531c.06-1.138.899-2.715 2.795-2.715 1.917 0 2.716 1.657 2.736 2.715z"/><path d="m153.622 103.159s-.359-.16-.998-.16c-1.018 0-1.877.559-2.336 1.638h-.06l.02-1.458h-1.917v9.484h1.917v-4.732c0-1.378.419-3.195 2.136-3.195.519 0 .859.12 1.038.2h.08z"/><path d="m164.106 112.663v-13.7765h-1.897v5.7695h-.04c-.659-.978-1.777-1.657-3.314-1.657-2.776 0-4.572 2.117-4.572 4.912 0 2.815 1.796 4.971 4.612 4.971 1.377 0 2.555-.579 3.334-1.737h.04v1.518zm-1.837-4.772c0 1.897-1.118 3.354-3.015 3.354s-3.015-1.457-3.015-3.354 1.118-3.334 3.015-3.334 3.015 1.437 3.015 3.334z"/><path d="m172.125 103.159s-.359-.16-.998-.16c-1.018 0-1.877.559-2.336 1.638h-.06l.02-1.458h-1.917v9.484h1.917v-4.732c0-1.378.419-3.195 2.136-3.195.52 0 .859.12 1.039.2h.08z"/><path d="m180.499 112.663v-5.511c0-2.755-1.377-4.153-4.152-4.153-1.578 0-2.855.559-3.554.959l.579 1.277c.319-.199 1.477-.818 2.855-.818 1.377 0 2.356.719 2.356 2.156v.38l-2.536.099c-2.196.1-3.713 1.039-3.713 2.895 0 1.837 1.517 2.935 3.274 2.935 1.737 0 2.635-1.018 3.015-1.417l.02 1.198zm-1.896-4.552v2.036c-.36.539-1.178 1.378-2.416 1.378-1.258 0-1.957-.739-1.957-1.638 0-.898.619-1.557 2.157-1.637z"/><path d="m193.042 112.563-.12-1.538s-.42.22-.979.22c-.539 0-.798-.18-.978-.479-.22-.399-.239-.938-.239-1.737v-4.293h2.276v-1.537h-2.276v-2.835h-1.917v2.835h-3.594v-1.058c0-1.078.2-2.017 1.458-2.017.539 0 1.078.18 1.078.18l.119-1.4175s-.539-.2197-1.637-.2197-1.857.5191-2.276 1.0382c-.399.499-.639 1.298-.639 2.536v.958h-1.357v1.537h1.357v7.927h1.897v-7.927h3.594v4.333c0 1.857.12 3.813 2.496 3.813.658 0 1.237-.1 1.737-.319z"/><path d="m196.914 100.064c0-.6784-.519-1.1775-1.238-1.1775-.739 0-1.258.4991-1.258 1.1775 0 .679.519 1.178 1.258 1.178.719 0 1.238-.499 1.238-1.178zm-.279 12.599v-9.484h-1.917v9.484z"/><path d="m207.602 112.663v-5.611c0-2.276-.699-4.053-3.394-4.053-1.378 0-2.396.739-2.895 1.677h-.06l.02-1.497h-1.917v9.484h1.917v-4.772c0-1.817.659-3.314 2.436-3.314 1.697 0 1.976 1.198 1.976 2.795v5.291z"/><path d="m219.342 110.666v-7.487h-1.897l.02 1.497h-.059c-.56-.878-1.658-1.677-3.315-1.677-2.436 0-4.572 1.757-4.572 4.772s2.136 4.772 4.572 4.772c1.598 0 2.676-.739 3.315-1.697h.039v.479c0 2.236-.898 3.694-3.314 3.694-1.417 0-2.895-.759-3.394-1.198l-.898 1.337c.279.2 1.896 1.418 4.232 1.418 2.356 0 3.534-.958 4.233-1.817.699-.839 1.038-1.997 1.038-4.093zm-1.837-2.895c0 1.797-1.058 3.215-3.014 3.215-1.937 0-3.015-1.418-3.015-3.215s1.078-3.234 3.015-3.234c1.956 0 3.014 1.437 3.014 3.234z"/><path d="m239.707 112.663v-5.75c0-2.057-.679-3.914-3.215-3.914-1.337 0-2.375.679-3.014 1.877-.44-1.238-1.418-1.877-2.816-1.877-1.257 0-2.296.799-2.735 1.677h-.06l.02-1.497h-1.916v9.484h1.916v-4.932c0-1.697.759-3.154 2.276-3.154 1.378 0 1.717 1.158 1.717 2.555v5.531h1.917v-4.932c0-1.697.759-3.154 2.276-3.154 1.537 0 1.737 1.457 1.737 2.555v5.531z"/><path d="m250.322 103.179-1.976-.02-2.795 7.387-2.876-7.367-1.996-.02 3.853 9.304-.459 1.258c-.259.699-.459 1.118-1.238 1.118-.479 0-.998-.22-.998-.22l-.379 1.558s.738.339 1.796.339c1.059 0 1.837-.559 2.496-2.196z"/><path d="m262.935 112.663v-5.511c0-2.755-1.377-4.153-4.153-4.153-1.577 0-2.855.559-3.554.959l.579 1.277c.32-.199 1.478-.818 2.856-.818 1.377 0 2.355.719 2.355 2.156v.38l-2.535.099c-2.196.1-3.714 1.039-3.714 2.895 0 1.837 1.518 2.935 3.275 2.935 1.737 0 2.635-1.018 3.014-1.417l.02 1.198zm-1.897-4.552v2.036c-.359.539-1.178 1.378-2.415 1.378-1.258 0-1.957-.739-1.957-1.638 0-.898.619-1.557 2.156-1.637z"/><path d="m273.341 111.445-.679-1.398s-1.038 1.198-2.895 1.198c-1.837 0-3.075-1.378-3.075-3.374 0-1.997 1.398-3.274 3.075-3.274s2.516.838 2.835 1.158l.679-1.398c-.1-.12-1.138-1.358-3.674-1.358-2.515 0-4.851 1.877-4.851 4.932 0 3.035 2.236 4.951 4.792 4.951 2.535 0 3.513-1.158 3.793-1.437z"/><path d="m282.817 111.445-.679-1.398s-1.038 1.198-2.895 1.198c-1.837 0-3.075-1.378-3.075-3.374 0-1.997 1.398-3.274 3.075-3.274s2.516.838 2.835 1.158l.679-1.398c-.1-.12-1.138-1.358-3.674-1.358-2.515 0-4.851 1.877-4.851 4.932 0 3.035 2.236 4.951 4.791 4.951 2.536 0 3.514-1.158 3.794-1.437z"/><path d="m293.75 107.951c0-2.935-2.196-4.952-5.011-4.952-2.835 0-5.032 2.017-5.032 4.952 0 2.955 2.197 4.931 5.032 4.931 2.815 0 5.011-1.976 5.011-4.931zm-1.937-.06c0 1.877-1.178 3.354-3.074 3.354-1.917 0-3.095-1.477-3.095-3.354 0-1.857 1.178-3.334 3.095-3.334 1.896 0 3.074 1.477 3.074 3.334z"/><path d="m303.818 112.663v-9.504h-1.916v5.091c0 1.598-.679 3.035-2.356 3.035-1.697 0-1.977-1.218-1.977-2.516v-5.61h-1.896v5.69c0 2.356.698 4.033 3.334 4.033 1.337 0 2.416-.659 2.935-1.577l.02 1.358z"/><path d="m314.702 112.663v-5.611c0-2.276-.698-4.053-3.394-4.053-1.377 0-2.396.739-2.895 1.677h-.06l.02-1.497h-1.916v9.484h1.916v-4.772c0-1.817.659-3.314 2.436-3.314 1.697 0 1.977 1.198 1.977 2.795v5.291z"/><path d="m321.87 112.563-.12-1.538s-.419.22-.978.22c-.539 0-.798-.18-.978-.479-.22-.399-.24-.938-.24-1.737v-4.293h2.276v-1.537h-2.276v-2.835h-1.916v2.835h-1.398v1.537h1.398v4.333c0 1.857.119 3.813 2.495 3.813.659 0 1.238-.1 1.737-.319z"/><path d="m326.473 111.624c0-.778-.559-1.257-1.317-1.257-.779 0-1.338.479-1.338 1.257 0 .759.559 1.238 1.338 1.238.758 0 1.317-.479 1.317-1.238z"/><path d="m335.578 112.663v-13.7765h-1.937v13.7765z"/><path d="m343.325 98.8865s-.539-.2197-1.638-.2197c-1.098 0-1.856.5191-2.276 1.0382-.399.499-.639 1.298-.639 2.536v.958h-1.357v1.537h1.357v7.927h1.897v-7.927h2.256v-1.537h-2.256v-1.058c0-1.078.2-2.017 1.458-2.017.539 0 1.078.18 1.078.18z"/><path d="m34.4451 128.849-1.9766-.02-2.7952 7.387-2.875-7.367-1.9965-.02 3.8533 9.304-.4592 1.258c-.2596.699-.4592 1.118-1.2379 1.118-.4791 0-.9982-.22-.9982-.22l-.3794 1.558s.7387.339 1.7969.339 1.8368-.559 2.4957-2.196z"/><path d="m45.0585 133.621c0-2.935-2.1962-4.952-5.0114-4.952-2.8351 0-5.0313 2.017-5.0313 4.952 0 2.955 2.1962 4.931 5.0313 4.931 2.8152 0 5.0114-1.976 5.0114-4.931zm-1.9367-.06c0 1.877-1.1779 3.354-3.0747 3.354-1.9166 0-3.0946-1.477-3.0946-3.354 0-1.857 1.178-3.334 3.0946-3.334 1.8968 0 3.0747 1.477 3.0747 3.334z"/><path d="m55.1269 138.333v-9.504h-1.9167v5.091c0 1.597-.6788 3.035-2.3559 3.035-1.6971 0-1.9766-1.218-1.9766-2.516v-5.61h-1.8967v5.69c0 2.356.6987 4.033 3.3342 4.033 1.3377 0 2.4158-.659 2.9349-1.577l.02 1.358z"/><path d="m63.739 138.333v-13.777h-1.8967v13.777z"/><path d="m68.7565 125.734c0-.678-.5191-1.178-1.2379-1.178-.7387 0-1.2578.5-1.2578 1.178 0 .679.5191 1.178 1.2578 1.178.7188 0 1.2379-.499 1.2379-1.178zm-.2795 12.599v-9.484h-1.9167v9.484z"/><path d="m79.4845 128.849h-1.9766l-2.7952 7.148-2.8151-7.148h-1.9965l3.9531 9.484h1.6771z"/><path d="m89.4372 133.201c0-2.655-1.8568-4.532-4.4923-4.532-2.6354 0-4.8117 1.917-4.8117 4.912 0 3.015 1.9367 4.971 4.7518 4.971 2.8351 0 4.053-1.397 4.1728-1.497l-.7986-1.098c-.2196.139-1.3577 1.098-3.1346 1.098-1.757 0-2.9549-1.138-3.0547-3.015h7.3074s.0599-.479.0599-.839zm-1.8169-.439h-5.5305c.0599-1.138.8985-2.715 2.7952-2.715 1.9167 0 2.7153 1.657 2.7353 2.715z"/><path d="m105.22 133.581c0-2.815-1.777-4.912-4.572-4.912-1.3975 0-2.5355.559-3.3741 1.677h-.0399v-1.497h-1.8368v13.197h1.9167v-5.211l.0199.02c.6789 1.058 1.777 1.697 3.2742 1.697 2.815 0 4.612-2.156 4.612-4.971zm-1.956-.02c0 1.897-1.118 3.354-3.015 3.354-1.8969 0-3.015-1.457-3.015-3.354s1.1181-3.334 3.015-3.334c1.897 0 3.015 1.437 3.015 3.334z"/><path d="m114.578 138.333v-5.511c0-2.755-1.378-4.153-4.153-4.153-1.577 0-2.855.559-3.554.959l.579 1.277c.32-.199 1.478-.818 2.855-.818 1.378 0 2.356.719 2.356 2.156v.379l-2.535.1c-2.196.1-3.714 1.039-3.714 2.895 0 1.837 1.518 2.935 3.275 2.935 1.737 0 2.635-1.018 3.014-1.417l.02 1.198zm-1.897-4.553v2.037c-.359.539-1.178 1.378-2.415 1.378-1.258 0-1.957-.739-1.957-1.638 0-.898.619-1.557 2.156-1.637z"/><path d="m125.089 128.849-1.976-.02-2.795 7.387-2.875-7.367-1.997-.02 3.853 9.304-.459 1.258c-.259.699-.459 1.118-1.238 1.118-.479 0-.998-.22-.998-.22l-.379 1.558s.738.339 1.797.339c1.058 0 1.836-.559 2.495-2.196z"/><path d="m134.245 137.115-.679-1.398s-1.038 1.198-2.895 1.198c-1.836 0-3.074-1.378-3.074-3.374 0-1.997 1.397-3.274 3.074-3.274 1.678 0 2.516.838 2.836 1.158l.678-1.398c-.099-.12-1.138-1.358-3.673-1.358-2.516 0-4.852 1.877-4.852 4.932 0 3.035 2.236 4.951 4.792 4.951 2.535 0 3.514-1.158 3.793-1.437z"/><path d="m144.12 138.333v-5.651c0-2.256-.658-4.013-3.394-4.013-1.377 0-2.416.739-2.915 1.677h-.04v-5.79h-1.896v13.777h1.896v-4.692c0-1.897.739-3.394 2.476-3.394s1.957 1.357 1.957 2.715v5.371z"/><path d="m155.378 133.201c0-2.655-1.857-4.532-4.492-4.532-2.636 0-4.812 1.917-4.812 4.912 0 3.015 1.937 4.971 4.752 4.971 2.835 0 4.053-1.397 4.173-1.497l-.799-1.098c-.22.139-1.358 1.098-3.135 1.098-1.757 0-2.954-1.138-3.054-3.015h7.307s.06-.479.06-.839zm-1.817-.439h-5.53c.06-1.138.898-2.715 2.795-2.715 1.917 0 2.715 1.657 2.735 2.715z"/><path d="m165.324 137.115-.678-1.398s-1.039 1.198-2.895 1.198c-1.837 0-3.075-1.378-3.075-3.374 0-1.997 1.397-3.274 3.075-3.274 1.677 0 2.515.838 2.835 1.158l.678-1.398c-.099-.12-1.138-1.358-3.673-1.358-2.516 0-4.852 1.877-4.852 4.932 0 3.035 2.236 4.951 4.792 4.951 2.536 0 3.514-1.158 3.793-1.437z"/><path d="m175.439 138.333-4.193-5.91 3.714-3.574h-2.236l-3.874 3.793v-8.086h-1.896v13.777h1.896v-3.554l1.099-1.038 3.254 4.592z"/><path d="m185.173 138.233-.12-1.538s-.419.22-.978.22c-.539 0-.799-.18-.979-.479-.219-.399-.239-.938-.239-1.737v-4.293h2.276v-1.537h-2.276v-2.835h-1.917v2.835h-1.398v1.537h1.398v4.333c0 1.857.12 3.813 2.496 3.813.659 0 1.238-.1 1.737-.319z"/><path d="m196.165 133.621c0-2.935-2.196-4.952-5.012-4.952-2.835 0-5.031 2.017-5.031 4.952 0 2.955 2.196 4.931 5.031 4.931 2.816 0 5.012-1.976 5.012-4.931zm-1.937-.06c0 1.877-1.178 3.354-3.075 3.354-1.916 0-3.094-1.477-3.094-3.354 0-1.857 1.178-3.334 3.094-3.334 1.897 0 3.075 1.477 3.075 3.334z"/><path d="m212.047 133.581c0-2.815-1.776-4.912-4.572-4.912-1.397 0-2.535.559-3.374 1.677h-.04v-1.497h-1.837v13.197h1.917v-5.211l.02.02c.679 1.058 1.777 1.697 3.274 1.697 2.816 0 4.612-2.156 4.612-4.971zm-1.956-.02c0 1.897-1.118 3.354-3.015 3.354s-3.015-1.457-3.015-3.354 1.118-3.334 3.015-3.334 3.015 1.437 3.015 3.334z"/><path d="m221.405 138.333v-5.511c0-2.755-1.377-4.153-4.152-4.153-1.578 0-2.856.559-3.554.959l.579 1.277c.319-.199 1.477-.818 2.855-.818 1.377 0 2.356.719 2.356 2.156v.379l-2.536.1c-2.196.1-3.714 1.039-3.714 2.895 0 1.837 1.518 2.935 3.275 2.935 1.737 0 2.635-1.018 3.015-1.417l.02 1.198zm-1.896-4.553v2.037c-.36.539-1.178 1.378-2.416 1.378-1.258 0-1.957-.739-1.957-1.638 0-.898.619-1.557 2.156-1.637z"/><path d="m231.917 128.849-1.977-.02-2.795 7.387-2.875-7.367-1.997-.02 3.854 9.304-.46 1.258c-.259.699-.459 1.118-1.238 1.118-.479 0-.998-.22-.998-.22l-.379 1.558s.739.339 1.797.339 1.837-.559 2.495-2.196z"/><path d="m241.072 137.115-.678-1.398s-1.039 1.198-2.895 1.198c-1.837 0-3.075-1.378-3.075-3.374 0-1.997 1.398-3.274 3.075-3.274s2.515.838 2.835 1.158l.679-1.398c-.1-.12-1.138-1.358-3.674-1.358-2.516 0-4.852 1.877-4.852 4.932 0 3.035 2.236 4.951 4.792 4.951 2.536 0 3.514-1.158 3.793-1.437z"/><path d="m250.948 138.333v-5.651c0-2.256-.659-4.013-3.395-4.013-1.377 0-2.415.739-2.914 1.677h-.04v-5.79h-1.897v13.777h1.897v-4.692c0-1.897.738-3.394 2.475-3.394s1.957 1.357 1.957 2.715v5.371z"/><path d="m262.205 133.201c0-2.655-1.857-4.532-4.492-4.532s-4.812 1.917-4.812 4.912c0 3.015 1.937 4.971 4.752 4.971 2.835 0 4.053-1.397 4.173-1.497l-.799-1.098c-.219.139-1.357 1.098-3.134 1.098-1.757 0-2.955-1.138-3.055-3.015h7.307s.06-.479.06-.839zm-1.817-.439h-5.53c.06-1.138.898-2.715 2.795-2.715 1.917 0 2.715 1.657 2.735 2.715z"/><path d="m272.152 137.115-.679-1.398s-1.038 1.198-2.895 1.198c-1.837 0-3.075-1.378-3.075-3.374 0-1.997 1.398-3.274 3.075-3.274s2.515.838 2.835 1.158l.679-1.398c-.1-.12-1.138-1.358-3.674-1.358-2.516 0-4.852 1.877-4.852 4.932 0 3.035 2.237 4.951 4.792 4.951 2.536 0 3.514-1.158 3.794-1.437z"/><path d="m282.266 138.333-4.192-5.91 3.713-3.574h-2.236l-3.873 3.793v-8.086h-1.897v13.777h1.897v-3.554l1.098-1.038 3.254 4.592z"/><path d="m289.385 138.333v-13.777h-1.897v13.777z"/><path d="m294.402 125.734c0-.678-.519-1.178-1.238-1.178-.739 0-1.258.5-1.258 1.178 0 .679.519 1.178 1.258 1.178.719 0 1.238-.499 1.238-1.178zm-.28 12.599v-9.484h-1.916v9.484z"/><path d="m305.429 138.333-4.192-5.91 3.713-3.574h-2.236l-3.873 3.793v-8.086h-1.897v13.777h1.897v-3.554l1.098-1.038 3.254 4.592z"/><path d="m315.239 133.201c0-2.655-1.857-4.532-4.493-4.532-2.635 0-4.811 1.917-4.811 4.912 0 3.015 1.936 4.971 4.751 4.971 2.836 0 4.053-1.397 4.173-1.497l-.798-1.098c-.22.139-1.358 1.098-3.135 1.098-1.757 0-2.955-1.138-3.055-3.015h7.308s.06-.479.06-.839zm-1.817-.439h-5.531c.06-1.138.899-2.715 2.795-2.715 1.917 0 2.716 1.657 2.736 2.715z"/><path d="m323.255 138.333v-13.777h-1.937v13.777z"/><path d="m339.252 138.333v-13.777h-1.896v5.77h-.04c-.659-.978-1.777-1.657-3.315-1.657-2.775 0-4.572 2.117-4.572 4.912 0 2.815 1.797 4.971 4.612 4.971 1.378 0 2.556-.579 3.335-1.737h.039v1.518zm-1.837-4.772c0 1.897-1.118 3.354-3.014 3.354-1.897 0-3.015-1.457-3.015-3.354s1.118-3.334 3.015-3.334c1.896 0 3.014 1.437 3.014 3.334z"/><path d="m351.385 133.621c0-2.935-2.196-4.952-5.011-4.952-2.836 0-5.032 2.017-5.032 4.952 0 2.955 2.196 4.931 5.032 4.931 2.815 0 5.011-1.976 5.011-4.931zm-1.937-.06c0 1.877-1.178 3.354-3.074 3.354-1.917 0-3.095-1.477-3.095-3.354 0-1.857 1.178-3.334 3.095-3.334 1.896 0 3.074 1.477 3.074 3.334z"/><path d="m356.252 136.216h-1.957l-1.398 4.912h1.518z"/><path d="m30.7714 163.903-.1197-1.538s-.4193.22-.9784.22c-.539 0-.7986-.18-.9783-.479-.2196-.399-.2396-.939-.2396-1.737v-4.293h2.2761v-1.537h-2.2761v-2.835h-1.9166v2.835h-1.3976v1.537h1.3976v4.333c0 1.857.1198 3.813 2.4956 3.813.6589 0 1.2379-.1 1.737-.319z"/><path d="m40.7052 164.003v-5.651c0-2.256-.6588-4.013-3.3941-4.013-1.3776 0-2.4158.739-2.915 1.677h-.0399v-5.79h-1.8967v13.777h1.8967v-4.692c0-1.897.7387-3.394 2.4757-3.394s1.9566 1.357 1.9566 2.715v5.371z"/><path d="m45.5739 151.404c0-.679-.5192-1.178-1.2379-1.178-.7387 0-1.2578.499-1.2578 1.178s.5191 1.178 1.2578 1.178c.7187 0 1.2379-.499 1.2379-1.178zm-.2796 12.599v-9.484h-1.9167v9.484z"/><path d="m54.4052 161.227c0-1.238-.7987-1.996-1.8568-2.435-.3993-.16-.7587-.28-1.2778-.46-.9384-.299-1.8568-.639-1.8568-1.417 0-.779.5989-1.178 1.5174-1.178.9184 0 1.8368.439 2.3958 1.018l.7986-1.178c-.5989-.639-1.5573-1.238-3.2344-1.238s-3.1945.959-3.1945 2.716c0 1.796 1.3976 2.296 2.7952 2.775.6389.219 2.1363.539 2.1363 1.577s-.9383 1.358-1.8168 1.358-1.9966-.519-2.7952-1.358l-.9184 1.118c.7986 1.038 2.0964 1.697 3.6936 1.697 1.8368 0 3.6138-.958 3.6138-2.995z"/><path d="m67.628 164.003v-5.511c0-2.755-1.3777-4.153-4.1529-4.153-1.5773 0-2.855.559-3.5538.959l.579 1.277c.3194-.199 1.4774-.818 2.855-.818 1.3777 0 2.356.719 2.356 2.156v.379l-2.5357.1c-2.1962.1-3.7135 1.038-3.7135 2.895 0 1.837 1.5173 2.935 3.2743 2.935 1.737 0 2.6354-1.018 3.0148-1.417l.02 1.198zm-1.8968-4.553v2.037c-.3594.539-1.1779 1.378-2.4158 1.378-1.2578 0-1.9566-.739-1.9566-1.638 0-.898.6189-1.557 2.1563-1.637z"/><path d="m79.9904 159.251c0-2.815-1.777-4.912-4.5722-4.912-1.3975 0-2.5356.559-3.3741 1.677h-.04v-1.497h-1.8368v13.197h1.9167v-5.211l.02.02c.6788 1.058 1.7769 1.697 3.2743 1.697 2.8152 0 4.6121-2.156 4.6121-4.971zm-1.9567-.02c0 1.897-1.118 3.354-3.0148 3.354-1.8967 0-3.0148-1.457-3.0148-3.354s1.1181-3.334 3.0148-3.334c1.8968 0 3.0148 1.437 3.0148 3.334z"/><path d="m91.8839 159.251c0-2.815-1.777-4.912-4.5721-4.912-1.3976 0-2.5356.559-3.3742 1.677h-.0399v-1.497h-1.8369v13.197h1.9167v-5.211l.02.02c.6788 1.058 1.7769 1.697 3.2743 1.697 2.8152 0 4.6121-2.156 4.6121-4.971zm-1.9567-.02c0 1.897-1.118 3.354-3.0147 3.354-1.8968 0-3.0148-1.457-3.0148-3.354s1.118-3.334 3.0148-3.334c1.8967 0 3.0147 1.437 3.0147 3.334z"/><path d="m100.128 151.404c0-.679-.519-1.178-1.2378-1.178-.7387 0-1.2578.499-1.2578 1.178s.5191 1.178 1.2578 1.178c.7188 0 1.2378-.499 1.2378-1.178zm-.2794 12.599v-9.484h-1.9167v9.484z"/><path d="m108.959 161.227c0-1.238-.798-1.996-1.856-2.435-.4-.16-.759-.28-1.278-.46-.939-.299-1.857-.639-1.857-1.417 0-.779.599-1.178 1.517-1.178.919 0 1.837.439 2.396 1.018l.799-1.178c-.599-.639-1.557-1.238-3.235-1.238-1.677 0-3.194.959-3.194 2.716 0 1.796 1.398 2.296 2.795 2.775.639.219 2.136.539 2.136 1.577s-.938 1.358-1.816 1.358c-.879 0-1.997-.519-2.796-1.358l-.918 1.118c.799 1.038 2.096 1.697 3.694 1.697 1.836 0 3.613-.958 3.613-2.995z"/><path d="m119.726 150.226s-.539-.219-1.637-.219-1.857.519-2.276 1.038c-.399.499-.639 1.298-.639 2.536v.958h-1.357v1.537h1.357v7.927h1.897v-7.927h2.256v-1.537h-2.256v-1.058c0-1.078.2-2.017 1.457-2.017.54 0 1.079.18 1.079.18z"/><path d="m129.658 159.291c0-2.935-2.196-4.952-5.011-4.952-2.835 0-5.031 2.017-5.031 4.952 0 2.955 2.196 4.931 5.031 4.931 2.815 0 5.011-1.976 5.011-4.931zm-1.936-.06c0 1.877-1.178 3.354-3.075 3.354-1.917 0-3.095-1.477-3.095-3.354 0-1.857 1.178-3.334 3.095-3.334 1.897 0 3.075 1.477 3.075 3.334z"/><path d="m136.952 154.499s-.36-.16-.999-.16c-1.018 0-1.876.559-2.336 1.637h-.059l.019-1.457h-1.916v9.484h1.916v-4.732c0-1.378.42-3.195 2.137-3.195.519 0 .858.12 1.038.2h.08z"/><path d="m150.612 154.519-1.977-.02-2.795 7.387-2.875-7.367-1.997-.02 3.854 9.304-.46 1.258c-.259.699-.459 1.118-1.237 1.118-.48 0-.999-.22-.999-.22l-.379 1.557s.739.34 1.797.34 1.837-.559 2.496-2.196z"/><path d="m161.225 159.291c0-2.935-2.196-4.952-5.011-4.952-2.835 0-5.032 2.017-5.032 4.952 0 2.955 2.197 4.931 5.032 4.931 2.815 0 5.011-1.976 5.011-4.931zm-1.937-.06c0 1.877-1.178 3.354-3.074 3.354-1.917 0-3.095-1.477-3.095-3.354 0-1.857 1.178-3.334 3.095-3.334 1.896 0 3.074 1.477 3.074 3.334z"/><path d="m171.293 164.003v-9.504h-1.916v5.091c0 1.597-.679 3.035-2.356 3.035-1.697 0-1.977-1.218-1.977-2.516v-5.61h-1.896v5.69c0 2.356.698 4.033 3.334 4.033 1.337 0 2.416-.659 2.935-1.577l.02 1.358z"/><path d="m176.946 162.964c0-.778-.559-1.257-1.317-1.257-.779 0-1.338.479-1.338 1.257 0 .759.559 1.238 1.338 1.238.758 0 1.317-.479 1.317-1.238z"/><path d="m30.0531 226.866 3.2544 5.59h3.0347l-3.7135-5.91c1.6771-.519 2.9748-1.477 2.9748-3.853 0-1.318-.6189-2.376-1.4774-3.035s-2.0165-.978-3.474-.978h-4.4324v13.776h2.5955v-5.59zm.0998-2.037h-1.3576v-4.113h1.3576c.8386 0 1.4775.06 1.9766.439.5191.36.7986.859.7986 1.618 0 .778-.2795 1.237-.7986 1.617-.4991.379-1.138.439-1.9766.439z"/><path d="m35.3901 234.193-.0798 1.917c.1198.079.8984.279 1.7769.279 1.0981 0 1.8967-.479 2.3559-1.078.4792-.619.7388-1.597.7388-3.015v-13.616h-2.5756v13.676c0 1.138-.1797 1.997-1.138 1.997-.4592 0-.8186-.06-1.0782-.16z"/></g></svg>